<?xml version="1.0" encoding="utf-8"?>
<svg xmlns="http://www.w3.org/2000/svg" viewBox="0 0 1024 1024" width="24" height="24">
  <g transform="scale(1, -1) translate(0, -960)">
    <path d="M512 21.333c235.264 0 426.667 191.403 426.667 426.667s-191.403 426.667-426.667 426.667-426.667-191.403-426.667-426.667 191.403-426.667 426.667-426.667zM512 789.333c188.203 0 341.333-153.131 341.333-341.333s-153.131-341.333-341.333-341.333-341.333 153.131-341.333 341.333 153.131 341.333 341.333 341.333zM810.667 448c0 164.949-133.718 298.667-298.667 298.667v0-597.333c164.949 0 298.667 133.718 298.667 298.667v0z" fill="currentColor" />
  </g>
</svg>
