<?xml version="1.0" encoding="utf-8"?>
<svg xmlns="http://www.w3.org/2000/svg" viewBox="0 0 1024 1024" width="24" height="24">
  <g transform="scale(1, -1) translate(0, -960)">
    <path d="M597.333 448.427c0-47.364-38.396-85.76-85.76-85.76s-85.76 38.396-85.76 85.76c0 47.364 38.396 85.76 85.76 85.76s85.76-38.396 85.76-85.76zM512 874.667c-235.641 0-426.667-191.025-426.667-426.667s191.025-426.667 426.667-426.667c235.641 0 426.667 191.025 426.667 426.667v0c0 235.641-191.025 426.667-426.667 426.667v0zM512 106.667c-188.513 0-341.333 152.82-341.333 341.333s152.82 341.333 341.333 341.333c188.513 0 341.333-152.82 341.333-341.333v0c0-188.513-152.82-341.333-341.333-341.333v0zM512 704c-141.385 0-256-114.615-256-256v0h85.333c0 94.257 76.41 170.667 170.667 170.667v0z" fill="currentColor" />
  </g>
</svg>
