<?xml version="1.0" encoding="utf-8"?>
<svg xmlns="http://www.w3.org/2000/svg" viewBox="0 0 1024 1024" width="24" height="24">
  <g transform="scale(1, -1) translate(0, -960)">
    <path d="M85.333 832h85.333v-768h-85.333zM853.333 832h85.333v-768h-85.333zM213.333 405.333h85.333v-42.667h85.333v42.667h85.333v-42.667h85.333v42.667h170.667v-42.667h85.333v170.667h-85.333v-42.667h-170.667v42.667h-85.333v-42.667h-85.333v42.667h-85.333v-42.667h-85.333zM213.333 789.333v-170.667h85.333v42.667h341.333v-42.667h85.333v42.667h85.333v85.333h-85.333v42.667h-85.333v-42.667h-341.333v42.667zM213.333 234.667v-128h85.333v42.667h85.333v-42.667h85.333v42.667h341.333v85.333h-341.333v42.667h-85.333v-42.667h-85.333v42.667h-85.333z" fill="currentColor" />
  </g>
</svg>
