<?xml version="1.0" encoding="utf-8"?>
<svg xmlns="http://www.w3.org/2000/svg" viewBox="0 0 1024 1024" width="24" height="24">
  <g transform="scale(1, -1) translate(0, -960)">
    <path d="M512 789.333c-208.171 0-384-175.829-384-384s175.829-384 384-384 384 175.829 384 384-175.829 384-384 384zM512 106.667c-161.877 0-298.667 136.789-298.667 298.667s136.789 298.667 298.667 298.667 298.667-136.789 298.667-298.667-136.789-298.667-298.667-298.667zM554.667 618.667h-85.333v-170.667h-170.667v-85.333h170.667v-170.667h85.333v170.667h170.667v85.333h-170.667zM865.792 673.792l-128.427 128 60.245 60.459 128.427-128zM225.365 862.123l60.501-60.245-127.573-128-60.459 60.288z" fill="currentColor" />
  </g>
</svg>
