<?xml version="1.0" encoding="utf-8"?>
<svg xmlns="http://www.w3.org/2000/svg" viewBox="0 0 1024 1024" width="24" height="24">
  <g transform="scale(1, -1) translate(0, -960)">
    <path d="M938.667 320l-128 170.667-128-170.667h81.323c-18.603-105.344-104.021-190.763-209.323-209.323v294.656h85.333v85.333h-85.333v70.997c65.835 19.584 115.797 82.048 115.797 154.496 0 87.424-71.083 158.507-158.464 158.507s-158.464-71.083-158.464-158.507c0-72.448 49.963-134.912 115.797-154.496v-70.997h-85.333v-85.333h85.333v-294.656c-105.344 18.56-190.763 103.979-209.323 209.323h81.323l-128 170.667-128-170.667h88.448c21.803-165.76 167.637-298.667 338.219-298.667s316.416 132.907 338.219 298.667h88.448zM438.869 716.16c0 40.32 32.811 73.173 73.131 73.173s73.131-32.853 73.131-73.173c0-40.576-34.176-76.16-73.131-76.16s-73.131 35.584-73.131 76.16z" fill="currentColor" />
  </g>
</svg>
