<?xml version="1.0" encoding="utf-8"?>
<svg xmlns="http://www.w3.org/2000/svg" viewBox="0 0 1024 1024" width="24" height="24">
  <g transform="scale(1, -1) translate(0, -960)">
    <path d="M132.352 68.352c29.781-29.824 72.363-45.568 123.179-45.568 74.325 0 164.48 33.195 256.512 90.752 91.989-57.6 182.187-90.752 256.512-90.752 50.773 0 93.355 15.744 123.179 45.568 54.144 54.144 60.203 145.621 17.109 257.664-15.275 39.765-36.437 80.853-62.165 121.984 22.606 34.891 43.473 75.038 60.452 117.171l1.713 4.813c43.093 112.043 36.992 203.563-17.109 257.664-29.781 29.824-72.363 45.568-123.179 45.568-74.325 0-164.48-33.195-256.512-90.752-91.989 57.6-182.187 90.752-256.512 90.752-50.773 0-93.355-15.744-123.179-45.568-54.144-54.144-60.245-145.621-17.152-257.664 15.317-39.765 36.437-80.853 62.165-121.984-22.606-34.891-43.473-75.038-60.452-117.171l-1.713-4.813c-43.093-112.043-36.992-203.52 17.152-257.664zM829.141 295.381c29.397-76.373 30.208-138.709 2.219-166.699-13.653-13.653-34.773-20.565-62.848-20.565-49.792 0-112.896 21.461-179.541 58.88 77.064 59.927 144.159 127.035 202.164 201.567l1.911 2.551c14.336-25.643 26.581-51.029 36.096-75.733zM512 216.875c-46.448 33.415-87.325 68.188-125.206 105.964l0.022-0.022c-37.973 37.921-72.973 78.795-104.635 122.257l-2.032 2.927c65.195 89.749 141.84 166.164 228.883 229.083l2.968 2.042c46.448-33.415 87.325-68.188 125.206-105.964l-0.022 0.022c37.973-37.921 72.973-78.795 104.635-122.257l2.032-2.927c-65.195-89.749-141.84-166.164-228.883-229.083l-2.968-2.042zM768.512 787.883c28.032 0 49.152-6.912 62.848-20.565 27.989-27.989 27.221-90.325-2.219-166.699-9.515-24.704-21.76-50.091-36.096-75.733-59.858 77.131-126.96 144.247-201.528 202.212l-2.547 1.905c66.645 37.376 129.749 58.88 179.541 58.88zM194.859 600.619c-29.397 76.373-30.208 138.709-2.219 166.699 13.653 13.653 34.773 20.565 62.848 20.565 49.792 0 112.896-21.461 179.541-58.88-77.115-59.871-144.217-126.986-202.167-201.566l-1.907-2.551c-12.199 20.99-24.318 45.913-34.678 71.731l-1.418 4.002zM194.859 295.381c9.515 24.704 21.76 50.091 36.096 75.733 59.858-77.131 126.96-144.247 201.528-202.212l2.547-1.905c-66.688-37.419-129.749-58.88-179.541-58.88-28.032 0-49.152 6.912-62.848 20.565-27.989 27.989-27.179 90.325 2.219 166.699zM621.824 448c0-60.654-49.17-109.824-109.824-109.824s-109.824 49.17-109.824 109.824c0 60.654 49.17 109.824 109.824 109.824s109.824-49.17 109.824-109.824z" fill="currentColor" />
  </g>
</svg>
