<?xml version="1.0" encoding="utf-8"?>
<svg xmlns="http://www.w3.org/2000/svg" viewBox="0 0 1024 1024" width="24" height="24">
  <g transform="scale(1, -1) translate(0, -960)">
    <path d="M512 874.667c-231.296 0-426.667-195.371-426.667-426.667s195.371-426.667 426.667-426.667 426.667 195.371 426.667 426.667-195.371 426.667-426.667 426.667zM602.155 320h-176.085l-73.515 132.011 82.731 123.989h159.403l79.829-130.645-72.363-125.355zM170.667 448c0 40.661 7.936 79.787 21.675 116.352l136.021-244.352h-131.669c-16.37 37.774-25.933 81.758-26.027 127.964v0.036zM694.741 576h132.523c16.403-37.769 25.982-81.755 26.069-127.967v-0.033c0-36.011-6.101-70.827-16.939-103.765l-141.653 231.765zM776.021 661.333h-283.861l81.28 121.899c80.469-15.317 151.979-59.861 202.581-121.899zM473.301 786.816l-83.669-125.483h-5.632v-8.405l-78.080-117.12-64.853 116.395c55.467 72.661 138.624 123.52 232.235 134.613zM247.979 234.667h304.939l-72.917-126.336c-92.416 9.088-175.317 56.789-232.021 126.336zM581.973 114.347l143.232 248.107 65.877-107.776c-49.237-70.059-123.776-121.771-209.109-140.331z" fill="currentColor" />
  </g>
</svg>
