<?xml version="1.0" encoding="utf-8"?>
<svg xmlns="http://www.w3.org/2000/svg" viewBox="0 0 1024 1024" width="24" height="24">
  <g transform="scale(1, -1) translate(0, -960)">
    <path d="M512 874.667c-235.264 0-426.667-191.403-426.667-426.667s191.403-426.667 426.667-426.667 426.667 191.403 426.667 426.667-191.403 426.667-426.667 426.667zM512 106.667c-188.203 0-341.333 153.131-341.333 341.333s153.131 341.333 341.333 341.333 341.333-153.131 341.333-341.333-153.131-341.333-341.333-341.333zM512 362.667c-128 0-170.667-128-170.667-128h341.333s-42.667 128-170.667 128zM407.936 466.731c0.597 0.597 0.981 1.28 1.579 1.877l43.989-17.621 31.659 79.232-213.333 85.333-31.659-79.189 58.581-23.424-0.085-0.939c0-0.039 0-0.086 0-0.132 0-35.323 28.635-63.957 63.957-63.957 17.705 0 33.73 7.194 45.31 18.818l0.002 0.002zM538.837 530.304l31.659-79.232 44.245 17.707c0.469-0.469 0.811-1.024 1.237-1.493 11.505-11.587 27.443-18.759 45.056-18.759s33.551 7.172 45.052 18.755l0.004 0.004c11.563 11.563 18.688 27.477 18.688 45.056l-0.043 0.427 59.136 23.637-31.659 79.232-213.376-85.333z" fill="currentColor" />
  </g>
</svg>
