<?xml version="1.0" encoding="utf-8"?>
<svg xmlns="http://www.w3.org/2000/svg" viewBox="0 0 1024 1024" width="24" height="24">
  <g transform="scale(1, -1) translate(0, -960)">
    <path d="M512 789.333c-208.171 0-384-175.829-384-384s175.829-384 384-384 384 175.829 384 384-175.829 384-384 384zM512 106.667c-161.877 0-298.667 136.789-298.667 298.667s136.789 298.667 298.667 298.667 298.667-136.789 298.667-298.667-136.789-298.667-298.667-298.667zM865.792 673.792l-128.427 128 60.245 60.459 128.427-128zM285.781 801.835l-127.573-127.957-60.501 60.245 127.573 128zM632.832 509.653c4.494 6.653 7.174 14.854 7.174 23.68 0 23.564-19.103 42.667-42.667 42.667-0.002 0-0.005 0-0.007 0h-213.333v-85.333h133.632l-126.464-189.653c-4.494-6.653-7.174-14.854-7.174-23.68 0-23.564 19.103-42.667 42.667-42.667 0.002 0 0.005 0 0.007 0h213.333v85.333h-133.632l126.464 189.653z" fill="currentColor" />
  </g>
</svg>
