<?xml version="1.0" encoding="utf-8"?>
<svg xmlns="http://www.w3.org/2000/svg" viewBox="0 0 1024 1024" width="24" height="24">
  <g transform="scale(1, -1) translate(0, -960)">
    <path d="M865.792 673.792l-128.427 128 60.245 60.459 128.427-128zM926.165 94.165l-97.579 97.579c42.197 61.568 67.413 135.168 67.413 213.589 0 208.171-175.829 384-384 384-78.421 0-152.021-25.216-213.589-67.413l-46.251 46.251 33.621 33.707-60.416 60.245-33.536-33.621-33.664 33.664-60.331-60.331 768-768 60.331 60.331zM512 704c161.877 0 298.667-136.789 298.667-298.667 0-55.125-16.512-106.965-43.819-151.851l-109.184 109.184h67.669v85.333h-153.003l-17.664 17.664v153.003h-85.333v-67.669l-109.184 109.184c44.885 27.307 96.725 43.819 151.851 43.819zM183.68 600.491c-34.694-55.518-55.381-122.891-55.68-195.076v-0.082c0-208.171 175.829-384 384-384 72.266 0.299 139.64 20.986 196.741 56.601l-1.584-0.921-62.336 62.336c-38.553-20.444-84.258-32.515-132.768-32.683h-0.053c-161.877 0-298.667 136.789-298.667 298.667 0 47.403 11.989 92.544 32.683 132.821l-62.336 62.336z" fill="currentColor" />
  </g>
</svg>
