<?xml version="1.0" encoding="utf-8"?>
<svg xmlns="http://www.w3.org/2000/svg" viewBox="0 0 1024 1024" width="24" height="24">
  <g transform="scale(1, -1) translate(0, -960)">
    <path d="M512 21.333c208.171 0 384 175.829 384 384s-175.829 384-384 384-384-175.829-384-384 175.829-384 384-384zM512 704c161.877 0 298.667-136.789 298.667-298.667s-136.789-298.667-298.667-298.667-298.667 136.789-298.667 298.667 136.789 298.667 298.667 298.667zM737.451 801.835l60.245 60.416 128.427-128-60.288-60.459zM225.365 862.123l60.501-60.245-127.573-128-60.459 60.288zM469.333 576h85.333v-213.333h-85.333zM469.333 320h85.333v-85.333h-85.333z" fill="currentColor" />
  </g>
</svg>
