<?xml version="1.0" encoding="utf-8"?>
<svg xmlns="http://www.w3.org/2000/svg" viewBox="0 0 1024 1024" width="24" height="24">
  <g transform="scale(1, -1) translate(0, -960)">
    <path d="M512 874.667c-235.264 0-426.667-191.403-426.667-426.667s191.403-426.667 426.667-426.667c62.549 0 126.336 15.829 189.525 47.104l-37.76 76.501c-51.371-25.387-102.443-38.272-151.765-38.272-188.203 0-341.333 153.131-341.333 341.333s153.131 341.333 341.333 341.333 341.333-153.131 341.333-341.333v-42.667c0-29.525-13.355-85.333-64-85.333-59.563 0-63.744 77.611-64 85.333v213.333h-85.333v-1.067c-35.051 27.134-79.591 43.557-127.959 43.733h-0.041c-117.632 0-213.333-95.701-213.333-213.333s95.701-213.333 213.333-213.333c61.867 0 117.248 26.923 156.245 69.163 22.357-37.973 60.075-69.163 121.088-69.163 96.981 0 149.333 87.936 149.333 170.667v42.667c0 235.264-191.403 426.667-426.667 426.667zM512 320c-70.571 0-128 57.429-128 128s57.429 128 128 128 128-57.429 128-128-57.429-128-128-128z" fill="currentColor" />
  </g>
</svg>
