<?xml version="1.0" encoding="utf-8"?>
<svg xmlns="http://www.w3.org/2000/svg" viewBox="0 0 1024 1024" width="24" height="24">
  <g transform="scale(1, -1) translate(0, -960)">
    <path d="M853.333 789.333c0-47.128-38.205-85.333-85.333-85.333s-85.333 38.205-85.333 85.333c0 47.128 38.205 85.333 85.333 85.333s85.333-38.205 85.333-85.333zM761.003 447.403l-185.387-30.933 140.373 175.488c5.821 7.231 9.343 16.527 9.343 26.645 0 14.755-7.49 27.761-18.876 35.423l-0.152 0.097-256 170.667c-6.651 4.498-14.85 7.18-23.676 7.18-11.785 0-22.453-4.783-30.169-12.513l-170.668-170.668 60.331-60.331 145.92 145.92 110.251-73.515-114.389-143.019c-25.909 9.837-55.867 15.533-87.156 15.533-55.395 0-106.62-17.853-148.236-48.12l0.725 0.502 61.909-61.909c24.606 14.999 54.33 23.954 86.132 24.149h0.055c94.123 0 170.667-76.544 170.667-170.667 0-31.531-9.216-60.8-24.149-86.187l61.909-61.909c29.74 41.099 47.571 92.515 47.573 148.095v0.001c0 18.987-2.261 37.461-6.187 55.253l134.187 22.357v-248.277h85.333v298.667c0 0.024 0 0.053 0 0.081 0 23.517-19.064 42.581-42.581 42.581-2.502 0-4.953-0.216-7.337-0.63l0.254 0.037zM341.333 106.667c-94.123 0-170.667 76.544-170.667 170.667 0 31.531 9.216 60.8 24.149 86.187l-61.909 61.909c-29.74-41.099-47.571-92.515-47.573-148.095v-0.001c0-141.184 114.816-256 256-256 55.211 0 106.24 17.749 148.096 47.573l-61.909 61.909c-24.606-14.999-54.33-23.954-86.132-24.149h-0.055z" fill="currentColor" />
  </g>
</svg>
