<?xml version="1.0" encoding="utf-8"?>
<svg xmlns="http://www.w3.org/2000/svg" viewBox="0 0 1024 1024" width="24" height="24">
  <g transform="scale(1, -1) translate(0, -960)">
    <path d="M853.333 704h-85.333v85.333c0 23.564-19.103 42.667-42.667 42.667v0h-597.333c-23.564 0-42.667-19.103-42.667-42.667v0-640c0-70.571 57.429-128 128-128h426.667c70.571 0 128 57.429 128 128v42.667h85.333c47.061 0 85.333 38.272 85.333 85.333v341.333c0 47.061-38.272 85.333-85.333 85.333zM682.667 149.333c0-23.509-19.115-42.667-42.667-42.667h-426.667c-23.552 0-42.667 19.157-42.667 42.667v597.333h512v-597.333zM853.333 277.333h-85.333v341.333h85.333v-341.333zM256 661.333h85.333v-426.667h-85.333zM512 661.333h85.333v-426.667h-85.333z" fill="currentColor" />
  </g>
</svg>
