<?xml version="1.0" encoding="utf-8"?>
<svg xmlns="http://www.w3.org/2000/svg" viewBox="0 0 1024 1024" width="24" height="24">
  <g transform="scale(1, -1) translate(0, -960)">
    <path d="M810.667 874.667h-426.667c-47.061 0-85.333-38.272-85.333-85.333v-256h-85.333c-47.061 0-85.333-38.272-85.333-85.333v-384c0-23.564 19.103-42.667 42.667-42.667v0h682.667c23.564 0 42.667 19.103 42.667 42.667v0 725.333c0 47.061-38.272 85.333-85.333 85.333zM213.333 448h256v-341.333h-256v341.333zM810.667 106.667h-256v341.333c0 47.061-38.272 85.333-85.333 85.333h-85.333v256h426.667v-682.667zM469.333 704h85.333v-85.333h-85.333zM640 704h85.333v-85.333h-85.333zM640 532.011h85.333v-84.011h-85.333zM640 362.667h85.333v-85.333h-85.333zM298.667 362.624h85.333v-85.333h-85.333z" fill="currentColor" />
  </g>
</svg>
