<?xml version="1.0" encoding="utf-8"?>
<svg xmlns="http://www.w3.org/2000/svg" viewBox="0 0 1024 1024" width="24" height="24">
  <g transform="scale(1, -1) translate(0, -960)">
    <path d="M511.573 874.667c-0.216 0-0.472 0.001-0.728 0.001-117.662 0-224.129-47.929-300.942-125.329l-0.026-0.026c-166.315-166.315-166.315-437.035 0-603.435 80.853-80.853 187.947-125.355 301.696-125.355s220.885 44.501 301.696 125.355c166.357 166.357 166.357 437.077 0 603.435-76.84 77.426-183.307 125.355-300.968 125.355-0.256 0-0.511 0-0.767-0.001h0.040zM752.939 206.208c-43.456-43.596-98.677-75.44-160.498-90.365l-2.318-0.473-0.043 1.579c0 0.171-0.001 0.372-0.001 0.574 0 34.47 6.594 67.401 18.59 97.598l-0.627-1.788-79.488 31.104c-15.028-37.537-23.745-81.049-23.745-126.597 0-4.079 0.070-8.142 0.209-12.188l-0.016 0.587c-91.911 1.626-174.659 39.547-234.78 99.996l-0.015 0.015c-60.232 60.229-97.961 142.961-99.495 234.504l-0.004 0.291c3.413-0.085 6.827-0.213 10.24-0.213 0.282-0.001 0.616-0.001 0.949-0.001 45.533 0 89.025 8.741 128.888 24.636l-2.35-0.827-31.147 79.445c-28.036-11.136-60.52-17.594-94.513-17.594-0.988 0-1.975 0.005-2.96 0.016l0.15-0.001c15.229 63.989 46.874 119.113 90.243 162.52l-0.003-0.003c45.018 45.223 102.671 77.831 167.217 92.083l2.255 0.418c-0.444-29.966-5.99-58.501-15.805-84.964l0.573 1.764 80.256-29.056c12.927 34.257 20.458 73.854 20.565 115.196v0.046c0 1.408-0.171 2.773-0.213 4.181 85.888-3.371 166.4-38.229 227.925-99.669 58.666-58.713 95.943-138.805 99.14-227.584l0.017-0.597c-1.162 0.014-2.534 0.023-3.909 0.023-41.261 0-80.793-7.406-117.338-20.962l2.334 0.758 29.184-80.213c24.488 9.274 52.791 14.877 82.333 15.399l0.227 0.003c-14.477-66.831-46.939-124.552-92.032-169.642v0zM602.112 357.12c-14.332-14.308-27.328-29.946-38.79-46.715l-0.719-1.114 70.656-47.787c8.533 12.629 18.347 24.491 29.141 35.243 14.789 14.77 31.26 27.862 49.099 38.963l1.163 0.674-44.757 72.661c-24.874-15.423-46.434-32.574-65.793-51.926l0.001 0.001zM360.789 598.443c-10.564-10.51-22.098-20.067-34.45-28.516l-0.836-0.54 47.744-70.741c17.891 12.212 33.54 25.207 47.878 39.515l-0.006-0.006c19.319 19.374 36.467 40.931 51.036 64.264l0.89 1.528-72.661 44.715c-11.8-18.973-24.875-35.426-39.606-50.23l0.011 0.011z" fill="currentColor" />
  </g>
</svg>
