<?xml version="1.0" encoding="utf-8"?>
<svg xmlns="http://www.w3.org/2000/svg" viewBox="0 0 1024 1024" width="24" height="24">
  <g transform="scale(1, -1) translate(0, -960)">
    <path d="M853.333 874.667h-554.667c-117.632 0-213.333-95.701-213.333-213.333v-426.667c0-117.632 95.701-213.333 213.333-213.333h512c70.571 0 128 57.429 128 128s-57.429 128-128 128h-554.667v-85.333h554.667c23.564 0 42.667-19.103 42.667-42.667s-19.103-42.667-42.667-42.667v0h-512c-70.571 0-128 57.429-128 128s57.429 128 128 128h554.667c47.061 0 85.333 38.272 85.333 85.333v341.333c0 47.061-38.272 85.333-85.333 85.333zM853.333 448h-554.667c-0.080 0-0.176 0-0.271 0-48.191 0-92.63-16.066-128.253-43.134l0.524 0.382v256.085c0 70.571 57.429 128 128 128h554.667v-341.333z" fill="currentColor" />
  </g>
</svg>
