<?xml version="1.0" encoding="utf-8"?>
<svg xmlns="http://www.w3.org/2000/svg" viewBox="0 0 1024 1024" width="24" height="24">
  <g transform="scale(1, -1) translate(0, -960)">
    <path d="M325.973 33.707c94.091 2.219 178.435 42.178 238.814 105.262l0.119 0.125 256 256c122.453 122.453 141.227 303.36 42.667 403.2s-280.747 81.493-403.2-42.667l-256-256c-122.453-122.453-141.227-303.36-42.667-403.2 41.039-38.894 96.611-62.812 157.769-62.812 2.285 0 4.561 0.033 6.83 0.1l-0.333-0.008zM240.64 417.707l118.613-119.040 60.587 60.587-119.040 119.040 60.16 60.16 120.747-120.747 60.587 60.587-120.747 120.747 60.16 60.16 120.747-120.747 60.587 60.587-119.040 118.613c85.333 68.693 198.4 79.787 256 20.053s46.507-194.56-42.667-282.453l-256-256c-87.893-87.467-217.173-106.667-282.453-42.667s-45.227 173.653 23.467 259.413z" fill="currentColor" />
  </g>
</svg>
