<?xml version="1.0" encoding="utf-8"?>
<svg xmlns="http://www.w3.org/2000/svg" viewBox="0 0 1024 1024" width="24" height="24">
  <g transform="scale(1, -1) translate(0, -960)">
    <path d="M512 704c-141.184 0-256-114.816-256-256s114.816-256 256-256 256 114.816 256 256-114.816 256-256 256zM512 277.333c-94.123 0-170.667 76.544-170.667 170.667s76.544 170.667 170.667 170.667 170.667-76.544 170.667-170.667-76.544-170.667-170.667-170.667zM512 874.667c-231.296 0-426.667-195.371-426.667-426.667s195.371-426.667 426.667-426.667 426.667 195.371 426.667 426.667-195.371 426.667-426.667 426.667zM512 106.667c-185.045 0-341.333 156.288-341.333 341.333s156.288 341.333 341.333 341.333 341.333-156.288 341.333-341.333-156.288-341.333-341.333-341.333zM512 533.333c-46.123 0-85.333-39.211-85.333-85.333s39.211-85.333 85.333-85.333 85.333 39.211 85.333 85.333-39.211 85.333-85.333 85.333z" fill="currentColor" />
  </g>
</svg>
