<?xml version="1.0" encoding="utf-8"?>
<svg xmlns="http://www.w3.org/2000/svg" viewBox="0 0 1024 1024" width="24" height="24">
  <g transform="scale(1, -1) translate(0, -960)">
    <path d="M896 831.957c-59.733 0-110.251-49.792-115.499-55.168l-46.336-46.336-46.549 46.421c-7.712 7.703-18.361 12.467-30.123 12.467-11.783 0-22.449-4.781-30.165-12.509l-53.036-53.078c-37.335 14.507-80.548 22.912-125.725 22.912-0.2 0-0.399 0-0.599 0h0.031c-199.979 0-362.667-162.688-362.667-362.667s162.688-362.667 362.667-362.667 362.667 162.688 362.667 362.667c0 38.784-6.144 76.8-18.261 113.408l57.387 57.387c7.698 7.73 12.457 18.392 12.457 30.165 0 11.795-4.776 22.474-12.5 30.209v0l-55.168 55.040 46.421 46.421c9.771 9.771 36.053 29.995 54.997 29.995h42.667v85.333h-42.667zM703.531 491.563c14.464-34.304 21.803-70.485 21.803-107.563 0-152.917-124.416-277.333-277.333-277.333s-277.333 124.416-277.333 277.333 124.416 277.333 277.333 277.333c40.96 0 80.64-8.96 117.845-26.624 16.256-7.723 35.712-4.395 48.469 8.363l43.264 43.264 101.717-101.419-46.592-46.592c-7.745-7.712-12.537-18.384-12.537-30.175 0-5.991 1.237-11.693 3.47-16.864l-0.106 0.276zM256 384c0-0.158-0.001-0.345-0.001-0.532 0-52.852 21.498-100.683 56.227-135.225l0.008-0.008 60.331 60.331c-20.139 20.181-31.232 46.933-31.232 75.435s11.093 55.253 31.232 75.435c19.198 19.293 45.771 31.232 75.132 31.232 0.106 0 0.213 0 0.319 0h-0.017v85.333c-0.163 0.001-0.357 0.001-0.55 0.001-52.846 0-100.672-21.499-135.207-56.227l-0.009-0.009c-34.737-34.55-56.235-82.381-56.235-135.233 0-0.187 0-0.374 0.001-0.561v0.029z" fill="currentColor" />
  </g>
</svg>
