<?xml version="1.0" encoding="utf-8"?>
<svg xmlns="http://www.w3.org/2000/svg" viewBox="0 0 1024 1024" width="24" height="24">
  <g transform="scale(1, -1) translate(0, -960)">
    <path d="M853.333 552.235v279.765h-85.333v-85.333h-512v85.333h-85.333v-279.765c-50.773-29.568-85.333-83.968-85.333-146.901v-170.667c0-23.564 19.103-42.667 42.667-42.667v0h42.667v-170.667h85.333v170.667h512v-170.667h85.333v170.667h42.667c23.564 0 42.667 19.103 42.667 42.667v0 170.667c0 62.933-34.603 117.333-85.333 146.901zM768 661.333v-85.333h-213.333v85.333h213.333zM256 661.333h213.333v-85.333h-213.333v85.333zM853.333 277.333h-682.667v128c0 47.061 38.272 85.333 85.333 85.333h512c47.061 0 85.333-38.272 85.333-85.333v-128z" fill="currentColor" />
  </g>
</svg>
