<?xml version="1.0" encoding="utf-8"?>
<svg xmlns="http://www.w3.org/2000/svg" viewBox="0 0 1024 1024" width="24" height="24">
  <g transform="scale(1, -1) translate(0, -960)">
    <path d="M810.667 874.24h-554.667c-51.456 0-128-34.091-128-128v-597.333c0-93.909 76.544-128 128-128h640v85.333h-639.488c-19.712 0.512-43.179 8.32-43.179 42.667 0 4.309 0.384 8.149 1.024 11.648 4.779 24.533 24.875 30.592 42.112 31.019h596.864c0.768 0 1.323 0.384 2.091 0.427h40.576v596.907c0 47.061-38.272 85.333-85.333 85.333zM810.667 276.907h-597.333v469.333c0 34.389 23.467 42.155 42.667 42.667h298.667v-298.667l85.333 42.667 85.333-42.667v298.667h85.333v-512z" fill="currentColor" />
  </g>
</svg>
