<?xml version="1.0" encoding="utf-8"?>
<svg xmlns="http://www.w3.org/2000/svg" viewBox="0 0 1024 1024" width="24" height="24">
  <g transform="scale(1, -1) translate(0, -960)">
    <path d="M812.757 748.757c-7.986 30.224-23.263 56.192-43.865 76.846l0.004-0.004c-64.427 64.427-176.896 64.427-241.323 0-30.841-30.935-49.91-73.621-49.91-120.761 0-31.927 8.747-61.81 23.975-87.385l-0.433 0.786-158.464-158.464c-64.213 37.973-153.216 27.691-207.36-26.368-30.845-30.904-49.92-73.566-49.92-120.683s19.074-89.779 49.922-120.685l-0.003 0.003c20.632-20.604 46.587-35.882 75.625-43.596l1.175-0.266c7.595-29.056 22.613-55.552 43.861-76.8 30.67-30.912 73.169-50.049 120.138-50.049 0.184 0 0.368 0 0.551 0.001h-0.029c0.131 0 0.286-0.001 0.441-0.001 46.987 0 89.509 19.117 120.212 49.998l0.008 0.008c30.828 30.92 49.889 73.586 49.889 120.704 0 31.934-8.755 61.822-23.996 87.397l0.433-0.784 158.464 158.464c64.299-38.016 153.301-27.733 207.403 26.411 30.843 30.897 49.916 73.552 49.916 120.661s-19.073 89.765-49.919 120.664l0.003-0.003c-20.625 20.626-46.582 35.921-75.626 43.639l-1.174 0.265zM829.269 523.861c-32.256-32.213-88.448-32.256-120.704 0l-30.165 30.165-271.488-271.531 30.165-30.165c15.406-15.455 24.932-36.781 24.932-60.331s-9.525-44.875-24.934-60.333l0.002 0.002c-32.299-32.299-88.491-32.213-120.704 0-14.351 14.402-23.494 34.002-24.358 55.732l-0.005 0.161-2.005 38.4-38.4 2.005c-21.883 0.909-41.472 10.042-55.898 24.367l0.005-0.005c-15.419 15.458-24.953 36.791-24.953 60.352s9.534 44.894 24.955 60.354l-0.002-0.002c16.085 16.085 37.504 24.96 60.288 24.96s44.203-8.875 60.331-24.96l30.165-30.165 271.531 271.488-30.165 30.165c-15.419 15.458-24.953 36.791-24.953 60.352s9.534 44.894 24.955 60.354l-0.002-0.002c32.256 32.171 88.405 32.171 120.661 0 14.635-14.635 23.296-34.517 24.405-55.979l2.048-38.272 38.272-2.048c21.461-1.109 41.344-9.771 55.979-24.405 16.085-16.128 24.96-37.547 24.96-60.331s-8.832-44.203-24.917-60.331z" fill="currentColor" />
  </g>
</svg>
