<?xml version="1.0" encoding="utf-8"?>
<svg xmlns="http://www.w3.org/2000/svg" viewBox="0 0 1024 1024" width="24" height="24">
  <g transform="scale(1, -1) translate(0, -960)">
    <path d="M810.667 149.333h85.333v-85.333h-85.333zM298.667 149.333h85.333v-85.333h-85.333zM640 149.333h85.333v-85.333h-85.333zM469.333 149.333h85.333v-85.333h-85.333zM128 149.333h85.333v-85.333h-85.333zM128 320h85.333v-85.333h-85.333zM128 661.333h85.333v-85.333h-85.333zM128 490.667h85.333v-85.333h-85.333zM128 832h85.333v-85.333h-85.333zM298.667 832h85.333v-85.333h-85.333zM810.667 320h85.333v-85.333h-85.333zM682.667 832h-213.333v-85.333h213.333c70.571 0 128-57.429 128-128v-213.333h85.333v213.333c0 117.632-95.701 213.333-213.333 213.333z" fill="currentColor" />
  </g>
</svg>
