<?xml version="1.0" encoding="utf-8"?>
<svg xmlns="http://www.w3.org/2000/svg" viewBox="0 0 1024 1024" width="24" height="24">
  <g transform="scale(1, -1) translate(0, -960)">
    <path d="M853.333 789.333h-682.667c-47.128 0-85.333-38.205-85.333-85.333v0-512c0-47.128 38.205-85.333 85.333-85.333v0h682.667c47.128 0 85.333 38.205 85.333 85.333v0 512c0 47.128-38.205 85.333-85.333 85.333v0zM170.667 192v512h682.667v-512zM256 618.667h85.333v-341.333h-85.333zM384 618.667h42.667v-341.333h-42.667zM725.333 618.667h42.667v-341.333h-42.667zM554.667 618.667h128v-341.333h-128zM469.333 618.667h42.667v-341.333h-42.667z" fill="currentColor" />
  </g>
</svg>
