<?xml version="1.0" encoding="utf-8"?>
<svg xmlns="http://www.w3.org/2000/svg" viewBox="0 0 1024 1024" width="24" height="24">
  <g transform="scale(1, -1) translate(0, -960)">
    <path d="M847.531 598.827c3.635 12.28 5.726 26.389 5.726 40.986 0 77.472-58.91 141.185-134.378 148.787l-0.628 0.051c-17.963 50.46-65.287 85.947-120.909 86.016h-0.008c-32.941-0.115-62.911-12.739-85.429-33.366l0.095 0.086c-22.423 20.541-52.393 33.165-85.31 33.28h-0.023c-55.509 0-102.827-35.456-120.533-85.973-76.275-7.467-135.392-71.267-135.392-148.875 0-14.599 2.092-28.71 5.993-42.048l-0.265 1.057c-54.381-29.366-90.786-85.805-91.136-150.778v-0.049c0-45.867 18.261-89.003 50.005-120.832-4.647-14.912-7.329-32.058-7.339-49.829v-0.005c0-83.499 60.245-153.173 141.056-167.851 24.088-52.309 75.996-88 136.258-88.149h0.020c41.771 0 79.531 17.365 106.667 45.184 27.037-27.866 64.83-45.165 106.663-45.184h0.004c60.177 0.115 112.014 35.705 135.722 86.966l0.385 0.927c80.781 14.627 141.247 84.416 141.247 168.327 0 17.699-2.69 34.77-7.684 50.825l0.324-1.211c30.896 30.906 50.005 73.597 50.005 120.751 0 0.029 0 0.057 0 0.086v-0.004c-0.35 65.022-36.755 121.461-90.226 150.377l-0.91 0.45zM405.333 106.667c-30.336 0-56.747 21.504-62.72 51.115l-9.045 34.219h-34.901c-47.061 0-85.333 38.272-85.333 85.333 0 15.019 3.627 29.099 10.795 41.856l19.456 34.816-33.451 21.76c-23.847 15.545-39.406 42.066-39.467 72.226v0.009c0 41.685 30.848 77.824 71.765 84.139l72.235 11.093-45.184 57.429c-8.387 10.73-13.448 24.413-13.448 39.279 0 35.393 28.692 64.085 64.085 64.085 4.702 0 9.286-0.506 13.701-1.468l-0.423 0.077 50.603-7.467v51.499c0 23.564 19.103 42.667 42.667 42.667s42.667-19.103 42.667-42.667v0-576c0-35.285-28.715-64-64-64zM813.867 375.808l-33.451-21.76 19.456-34.816c7.168-12.8 10.795-26.88 10.795-41.899 0-47.061-38.272-85.333-87.467-85.333h-34.901l-6.912-34.219c-6.229-29.372-31.935-51.095-62.718-51.115h-0.002c-35.285 0-64 28.715-64 64v576c0 23.552 19.115 42.667 42.667 42.667s42.667-19.115 42.667-44.8v-51.499l50.603 9.6c3.991 0.884 8.575 1.391 13.277 1.391 35.393 0 64.085-28.692 64.085-64.085 0-14.865-5.061-28.548-13.555-39.42l0.107 0.142-45.184-57.472 72.235-11.093c40.864-6.799 71.651-41.835 71.765-84.084v-0.012c0-29.141-14.763-56.107-39.467-72.192z" fill="currentColor" />
  </g>
</svg>
