<?xml version="1.0" encoding="utf-8"?>
<svg xmlns="http://www.w3.org/2000/svg" viewBox="0 0 1024 1024" width="24" height="24">
  <g transform="scale(1, -1) translate(0, -960)">
    <path d="M810.667 149.333h85.333v-85.333h-85.333zM298.667 149.333h85.333v-85.333h-85.333zM640 149.333h85.333v-85.333h-85.333zM128 149.333h85.333v-85.333h-85.333zM128 320h85.333v-85.333h-85.333zM128 661.333h85.333v-85.333h-85.333zM128 832h85.333v-85.333h-85.333zM640 832h85.333v-85.333h-85.333zM298.667 832h85.333v-85.333h-85.333zM810.667 832h85.333v-85.333h-85.333zM810.667 320h85.333v-85.333h-85.333zM810.667 661.333h85.333v-85.333h-85.333zM213.333 405.333h256v-341.333h85.333v341.333h341.333v85.333h-341.333v341.333h-85.333v-341.333h-341.333v-85.333h82.347z" fill="currentColor" />
  </g>
</svg>
