<?xml version="1.0" encoding="utf-8"?>
<svg xmlns="http://www.w3.org/2000/svg" viewBox="0 0 1024 1024" width="24" height="24">
  <g transform="scale(1, -1) translate(0, -960)">
    <path d="M512 21.333c0.047 0 0.104 0 0.16 0 55.241 0 102.254 35.229 119.798 84.445l0.276 0.888h-240.469c17.821-50.105 64.834-85.333 120.075-85.333 0.056 0 0.113 0 0.169 0h-0.009zM896 192v85.333c0 0.018 0 0.040 0 0.062 0 11.762-4.779 22.408-12.5 30.102l-72.833 72.833v153.003c0 137.259-93.227 252.885-219.52 287.659-12.501 31.488-43.051 53.675-79.147 53.675s-66.645-22.187-79.147-53.675c-56.448-15.531-105.088-48.128-142.763-90.752l-131.925 131.925-60.331-60.331 768-768 60.331 60.331-58.112 58.112c16.403 6.062 27.896 21.544 27.947 39.716v0.006zM512 746.667c117.632 0 213.333-95.701 213.333-213.333v-170.667c0-11.349 4.48-22.187 12.501-30.165l72.832-72.832v-25.003h-25.003l-435.499 435.499c38.955 46.421 96.597 76.501 161.835 76.501zM286.165 332.501c7.723 7.696 12.501 18.342 12.501 30.104 0 0.022 0 0.043 0 0.065v-0.003 122.837l-82.432 82.432c-1.323-11.435-2.901-22.827-2.901-34.603v-153.003l-72.832-72.832c-7.723-7.696-12.501-18.342-12.501-30.104 0-0.022 0-0.043 0-0.065v0.003-85.333c0-23.564 19.103-42.667 42.667-42.667v0h464.171l-85.333 85.333h-336.171v25.003l72.832 72.832z" fill="currentColor" />
  </g>
</svg>
