<?xml version="1.0" encoding="utf-8"?>
<svg xmlns="http://www.w3.org/2000/svg" viewBox="0 0 1024 1024" width="24" height="24">
  <g transform="scale(1, -1) translate(0, -960)">
    <path d="M298.667 121.173v-57.173c0-23.564 19.103-42.667 42.667-42.667v0h341.333c23.564 0 42.667 19.103 42.667 42.667v0 57.173c128.43 75.143 213.329 212.403 213.333 369.492v0.001c0 23.564-19.103 42.667-42.667 42.667v0 0c-1.686 54.66-31.839 101.917-76.069 127.608l-0.731 0.392c-11.43 75.969-76.248 133.547-154.514 133.547-0.129 0-0.257 0-0.386 0h0.020c-0.084 0-0.184 0-0.284 0-15.071 0-29.67-2.024-43.538-5.816l1.155 0.269c-28.284 27.040-66.705 43.683-109.013 43.683s-80.729-16.643-109.073-43.739l0.059 0.056c-12.713 3.523-27.312 5.547-42.383 5.547-0.1 0-0.2 0-0.299 0h0.016c-0.362 0.003-0.79 0.005-1.219 0.005-78.268 0-143.087-57.58-154.408-132.69l-0.107-0.861c-45.132-25.987-75.447-73.263-77.22-127.755l-0.006-0.245c-23.564 0-42.667-19.103-42.667-42.667v0c0.004-157.090 84.903-294.35 211.32-368.403l2.014-1.090zM260.693 590.507l35.413 11.093-6.827 38.4c0.479 38.279 31.621 69.125 69.968 69.125 0.302 0 0.603-0.002 0.904-0.006h-0.046c0.129 0.001 0.282 0.001 0.435 0.001 12.781 0 24.824-3.157 35.393-8.734l-0.414 0.199 34.56-19.2 21.333 32.853c13.285 19.6 35.451 32.31 60.587 32.31s47.302-12.71 60.423-32.054l0.164-0.256 21.333-32.853 34.56 19.2c10.154 5.378 22.198 8.535 34.979 8.535 0.153 0 0.306 0 0.458-0.001h-0.023c0.263 0.004 0.574 0.006 0.885 0.006 38.133 0 69.184-30.318 70.365-68.164l0.003-0.109-6.827-36.267 34.987-11.947c26.073-8.343 45.044-31.336 47.344-59.061l0.016-0.245h-597.333c2.316 27.971 21.287 50.964 46.88 59.174l0.48 0.133zM850.773 448c-15.17-115.831-86.512-212.188-185.346-261.932l-1.961-0.894c-14.031-7.182-23.468-21.541-23.468-38.103 0-0.104 0-0.209 0.001-0.313v0.016-40.107h-256v40.107c0.001 0.088 0.001 0.193 0.001 0.297 0 16.562-9.437 30.921-23.227 37.991l-0.24 0.112c-100.794 50.638-172.137 146.995-187.121 261.099l-0.185 1.728z" fill="currentColor" />
  </g>
</svg>
