<?xml version="1.0" encoding="utf-8"?>
<svg xmlns="http://www.w3.org/2000/svg" viewBox="0 0 1024 1024" width="24" height="24">
  <g transform="scale(1, -1) translate(0, -960)">
    <path d="M727.936 481.28c24.834 31.7 39.885 72.102 40.064 116.013v0.041c0 105.856-86.144 192-192 192h-320v-640h341.333c105.856 0 192 86.144 192 192-0.125 55.27-23.688 105.012-61.273 139.833l-0.124 0.114zM576 661.333c35.285 0 64-28.715 64-64s-28.715-64-64-64h-192v128h192zM597.333 277.333h-213.333v128h213.333c35.285 0 64-28.715 64-64s-28.715-64-64-64z" fill="currentColor" />
  </g>
</svg>
