<?xml version="1.0" encoding="utf-8"?>
<svg xmlns="http://www.w3.org/2000/svg" viewBox="0 0 1024 1024" width="24" height="24">
  <g transform="scale(1, -1) translate(0, -960)">
    <path d="M584.832 862.165c-7.716 7.729-18.382 12.51-30.165 12.51s-22.449-4.781-30.165-12.509l-249.174-249.174c-0.64 0.043-1.237 0.384-1.877 0.384-0.013 0-0.028 0-0.044 0-11.768 0-22.419-4.778-30.12-12.5l-60.332-60.332c-23.142-23.063-37.462-54.967-37.462-90.216 0-0.114 0-0.227 0-0.341v0.018c0-34.219 13.355-66.389 37.504-90.496l30.165-30.165-90.539-90.539c-23.026-22.622-37.295-54.092-37.295-88.894 0-0.383 0.002-0.766 0.005-1.149v0.058c-0.005-0.405-0.007-0.882-0.007-1.361 0-38.913 17.551-73.726 45.169-96.956l0.193-0.158c22.144-18.731 50.688-29.013 80.427-29.013 35.584 0 70.571 14.549 96 39.979l87.040 86.997 30.165-30.123c48.384-48.341 132.651-48.384 180.992-0.043l60.373 60.331c7.723 7.702 12.501 18.354 12.501 30.121 0 0.015 0 0.031 0 0.046v-0.002c0 1.109-0.555 2.133-0.64 3.243l248.619 248.619c7.729 7.716 12.51 18.382 12.51 30.165s-4.781 22.449-12.509 30.165l-341.334 341.334zM544.939 178.475c-7.821-7.477-18.444-12.080-30.143-12.080-11.72 0-22.362 4.62-30.203 12.137l-60.316 60.273c-7.716 7.729-18.382 12.51-30.165 12.51s-22.449-4.781-30.165-12.509l-117.164-117.121c-9.115-9.189-21.714-14.911-35.649-15.019h-0.021c-0.188-0.003-0.41-0.005-0.632-0.005-9.418 0-18.053 3.353-24.776 8.931l0.064-0.052c-9.266 7.709-15.122 19.243-15.122 32.146 0 0.429 0.006 0.856 0.019 1.282l-0.001-0.062c-0.001 0.099-0.001 0.216-0.001 0.332 0 11.429 4.686 21.763 12.241 29.187l120.71 120.71c7.729 7.716 12.51 18.382 12.51 30.165s-4.781 22.449-12.509 30.165l-60.374 60.374c-7.696 7.653-12.459 18.248-12.459 29.955 0 0.059 0 0.118 0 0.177v-0.009c0 11.435 4.437 22.144 12.501 30.208l30.165 30.165 301.696-301.739-30.208-30.123zM625.536 280.533l-281.003 281.003 210.133 210.133 281.003-281.003-210.133-210.133z" fill="currentColor" />
  </g>
</svg>
