<?xml version="1.0" encoding="utf-8"?>
<svg xmlns="http://www.w3.org/2000/svg" viewBox="0 0 1024 1024" width="24" height="24">
  <g transform="scale(1, -1) translate(0, -960)">
    <path d="M896 533.333h-768c-23.564 0-42.667-19.103-42.667-42.667v0c0.004-157.090 84.903-294.35 211.32-368.403l2.014-1.090v-57.173c0-23.564 19.103-42.667 42.667-42.667v0h341.333c23.564 0 42.667 19.103 42.667 42.667v0 57.173c128.43 75.143 213.329 212.403 213.333 369.492v0.001c0 23.564-19.103 42.667-42.667 42.667v0zM663.467 185.173c-14.031-7.182-23.468-21.541-23.468-38.103 0-0.104 0-0.209 0.001-0.313v0.016-40.107h-256v40.107c0.001 0.088 0.001 0.193 0.001 0.297 0 16.562-9.437 30.921-23.227 37.991l-0.24 0.112c-100.794 50.638-172.137 146.995-187.121 261.099l-0.185 1.728h677.547c-15.17-115.831-86.512-212.188-185.346-261.932l-1.961-0.894zM384 576v45.653c-0.068 52.285-20.885 99.694-54.658 134.446l0.044-0.046c-18.993 19.186-30.727 45.588-30.727 74.731 0 0.427 0.003 0.854 0.008 1.28l-0.001-0.065v42.667h-85.333v-42.667c-0.001-0.181-0.001-0.395-0.001-0.609 0-52.373 20.831-99.88 54.659-134.69l-0.044 0.046c18.989-19.185 30.721-45.585 30.721-74.725 0-0.13 0-0.259-0.001-0.389v0.020-45.653zM554.667 576v45.653c-0.068 52.285-20.885 99.694-54.658 134.446l0.044-0.046c-18.993 19.186-30.727 45.588-30.727 74.731 0 0.427 0.003 0.854 0.008 1.28l-0.001-0.065v42.667h-85.333v-42.667c0.068-52.285 20.885-99.694 54.658-134.446l-0.044 0.046c18.993-19.186 30.727-45.588 30.727-74.731 0-0.427-0.003-0.854-0.008-1.28l0.001 0.065v-45.653zM725.333 576v45.653c-0.068 52.285-20.885 99.694-54.658 134.446l0.044-0.046c-18.993 19.186-30.727 45.588-30.727 74.731 0 0.427 0.003 0.854 0.008 1.28l-0.001-0.065v42.667h-85.333v-42.667c0.068-52.285 20.885-99.694 54.658-134.446l-0.044 0.046c18.993-19.186 30.727-45.588 30.727-74.731 0-0.427-0.003-0.854-0.008-1.28l0.001 0.065v-45.653z" fill="currentColor" />
  </g>
</svg>
