<?xml version="1.0" encoding="utf-8"?>
<svg xmlns="http://www.w3.org/2000/svg" viewBox="0 0 1024 1024" width="24" height="24">
  <g transform="scale(1, -1) translate(0, -960)">
    <path d="M210.304 146.304c80.853-80.853 187.947-125.355 301.696-125.355s220.885 44.501 301.696 125.355c166.357 166.357 166.357 437.035 0 603.435-80.811 80.811-187.989 125.355-301.696 125.355s-220.885-44.544-301.696-125.397c-166.357-166.315-166.357-437.035 0-603.392zM525.184 789.077c74.531-2.764 142.376-29.277 196.727-72.14l-0.717 0.545-209.195-209.152-62.293 62.293c49.536 63.104 76.459 141.141 75.477 218.453zM388.693 631.637l-85.845 85.845c38.461 30.374 84.64 52.815 135.052 64.007l2.249 0.419c-0.64-52.736-18.987-105.685-51.456-150.272zM327.936 571.733c-40.853-28.236-91.445-45.104-145.976-45.104-0.565 0-1.131 0.002-1.695 0.005h0.087c11.917 50.009 33.483 93.779 62.768 131.218l-0.56-0.744 85.376-85.376zM171.136 441.771c3.285-0.085 6.571-0.597 9.856-0.597 0.326-0.001 0.711-0.002 1.096-0.002 78.11 0 150.131 26.074 207.832 69.993l-0.843-0.615 62.592-62.549-209.109-209.109c-43.422 55.503-70.091 125.953-71.42 202.579l-0.004 0.301zM695.68 324.651c44.459 32.341 97.28 50.688 149.675 51.456-11.473-52.606-33.726-98.772-64.433-138.002l0.561 0.744-85.803 85.803zM721.152 178.517c-36.69-28.9-80.466-50.632-128.201-62.244l-2.316-0.476c-0.007 0.699-0.011 1.525-0.011 2.352 0 54.469 16.871 104.998 45.672 146.646l-0.563-0.86 85.419-85.419zM505.941 106.581c-77.097 1.265-147.678 28.149-203.851 72.48l0.715-0.544 209.195 209.152 62.421-62.421c-47.061-61.611-70.784-139.349-68.48-218.667zM852.565 461.141c-77.099 0.768-155.008-26.027-217.941-75.435l-62.293 62.293 209.109 209.109c42.003-53.732 68.323-121.526 71.107-195.344l0.019-0.624z" fill="currentColor" />
  </g>
</svg>
