<?xml version="1.0" encoding="utf-8"?>
<svg xmlns="http://www.w3.org/2000/svg" viewBox="0 0 1024 1024" width="24" height="24">
  <g transform="scale(1, -1) translate(0, -960)">
    <path d="M469.333 832h85.333v-85.333h-85.333zM640 832h85.333v-85.333h-85.333zM298.667 832h85.333v-85.333h-85.333zM810.667 832h85.333v-85.333h-85.333zM810.667 490.667h85.333v-85.333h-85.333zM810.667 320h85.333v-85.333h-85.333zM810.667 661.333h85.333v-85.333h-85.333zM810.667 149.333h85.333v-85.333h-85.333zM640 149.333h85.333v-85.333h-85.333zM298.667 149.333h85.333v-85.333h-85.333zM469.333 149.333h85.333v-85.333h-85.333zM469.333 320h85.333v-85.333h-85.333zM469.333 661.333h85.333v-85.333h-85.333zM640 490.667h85.333v-85.333h-85.333zM298.667 490.667h85.333v-85.333h-85.333zM469.333 490.667h85.333v-85.333h-85.333zM128 746.667v-682.667h85.333v768h-85.333z" fill="currentColor" />
  </g>
</svg>
