<?xml version="1.0" encoding="utf-8"?>
<svg xmlns="http://www.w3.org/2000/svg" viewBox="0 0 1024 1024" width="24" height="24">
  <g transform="scale(1, -1) translate(0, -960)">
    <path d="M810.667 618.624h-170.667v128.085c0.003 0.311 0.004 0.68 0.004 1.048 0 34.802-14.27 66.271-37.277 88.876l-0.018 0.018c-22.843 23.494-54.751 38.070-90.064 38.070-4.194 0-8.34-0.206-12.428-0.607l0.518 0.041c-65.451-5.632-116.736-63.829-116.736-132.48v-123.008h-170.667c-47.061 0-85.333-38.272-85.333-85.333v-426.667c0-47.061 38.272-85.333 85.333-85.333h597.333c47.061 0 85.333 38.272 85.333 85.333v426.624c0 47.061-38.272 85.333-85.333 85.333zM213.333 533.333h256v208.341c0 24.32 17.365 45.653 42.752 47.659 11.349 0 21.845-4.395 30.379-13.099 7.535-7.406 12.205-17.707 12.205-29.098 0-0.15-0.001-0.3-0.002-0.45v0.023-213.376l256-0.043v-85.291h-597.333v85.333zM213.333 106.667v256h597.333l0.085-256h-597.419z" fill="currentColor" />
  </g>
</svg>
