<?xml version="1.0" encoding="utf-8"?>
<svg xmlns="http://www.w3.org/2000/svg" viewBox="0 0 1024 1024" width="24" height="24">
  <g transform="scale(1, -1) translate(0, -960)">
    <path d="M896 576h-60.587l-158.379 277.163-74.069-42.325 134.187-234.837h-450.304l134.229 234.837-74.112 42.325-158.379-277.163h-60.587c-23.567-0.027-42.662-19.138-42.662-42.709 0-3.977 0.544-7.826 1.56-11.479l-0.071 0.3 119.424-437.931c10.279-36.481 43.233-62.785 82.339-62.848h446.855c38.315 0 72.192 25.813 82.347 62.933l119.424 437.888c0.963 3.377 1.517 7.256 1.517 11.264 0 23.517-19.064 42.581-42.581 42.581-0.053 0-0.107 0-0.16 0h0.008zM735.403 106.667v0h-446.805l-104.704 384h656.213l-104.704-384zM384 405.333h85.333v-213.333h-85.333zM554.667 405.333h85.333v-213.333h-85.333z" fill="currentColor" />
  </g>
</svg>
