<?xml version="1.0" encoding="utf-8"?>
<svg xmlns="http://www.w3.org/2000/svg" viewBox="0 0 1024 1024" width="24" height="24">
  <g transform="scale(1, -1) translate(0, -960)">
    <path d="M926.165 478.165l-115.499 115.499v110.336c0 23.564-19.103 42.667-42.667 42.667v0h-110.336l-115.499 115.499c-7.716 7.729-18.382 12.51-30.165 12.51s-22.449-4.781-30.165-12.509l-115.5-115.5h-110.336c-23.564 0-42.667-19.103-42.667-42.667v0-110.336l-115.499-115.499c-7.729-7.716-12.51-18.382-12.51-30.165s4.781-22.449 12.509-30.165l115.5-115.5v-110.336c0-23.564 19.103-42.667 42.667-42.667v0h110.336l115.499-115.499c7.706-7.749 18.376-12.545 30.165-12.545s22.459 4.796 30.163 12.544l115.501 115.501h110.336c23.564 0 42.667 19.103 42.667 42.667v0 110.336l115.499 115.499c7.729 7.716 12.51 18.382 12.51 30.165s-4.781 22.449-12.509 30.165l-0.001 0.001zM737.835 350.165l-12.501-12.501v-102.997h-102.997l-110.336-110.336-110.336 110.336h-102.997v102.997l-110.336 110.336 110.336 110.336v102.997h102.997l110.336 110.336 110.336-110.336h102.997v-102.997l110.336-110.336-97.835-97.835zM512 618.667v-341.333c94.123 0 170.667 76.544 170.667 170.667s-76.544 170.667-170.667 170.667z" fill="currentColor" />
  </g>
</svg>
