<?xml version="1.0" encoding="utf-8"?>
<svg xmlns="http://www.w3.org/2000/svg" viewBox="0 0 1024 1024" width="24" height="24">
  <g transform="scale(1, -1) translate(0, -960)">
    <path d="M768 874.667h-512c-47.061 0-85.333-38.272-85.333-85.333v-725.333c0-23.564 19.103-42.667 42.667-42.667v0h597.333c23.564 0 42.667 19.103 42.667 42.667v0 725.333c0 47.061-38.272 85.333-85.333 85.333zM768 106.667h-512v682.667h512v-682.667zM341.333 704h128v-85.333h-128zM554.667 704h128v-85.333h-128zM341.333 533.333h128v-85.333h-128zM554.667 532.011h128v-84.011h-128zM341.333 362.667h128v-85.333h-128zM554.667 362.667h128v-85.333h-128z" fill="currentColor" />
  </g>
</svg>
