<?xml version="1.0" encoding="utf-8"?>
<svg xmlns="http://www.w3.org/2000/svg" viewBox="0 0 1024 1024" width="24" height="24">
  <g transform="scale(1, -1) translate(0, -960)">
    <path d="M160.427 64c49.713-11.673 106.794-18.365 165.438-18.365 1.839 0 3.676 0.007 5.511 0.020l-0.282-0.002c6.263-0.237 13.618-0.372 21.005-0.372 155.657 0 297.298 60.010 403.050 158.157l-0.375-0.344c226.56 229.12 143.787 581.547 141.227 596.48-3.682 16.21-16.217 28.745-32.141 32.372l-0.286 0.055c-50.032 11.669-107.482 18.358-166.493 18.358-1.467 0-2.934-0.004-4.399-0.012l0.225 0.001c-6.705 0.273-14.575 0.429-22.481 0.429-155.753 0-297.402-60.388-402.81-159.029l0.331 0.307c-227.84-228.267-142.507-580.693-139.947-595.627 3.682-16.21 16.217-28.745 32.141-32.372l0.286-0.055zM328.533 631.467c89.685 82.27 209.748 132.688 341.587 132.688 7.264 0 14.492-0.153 21.681-0.456l-1.028 0.034c0.586 0.002 1.28 0.003 1.974 0.003 44.522 0 88.138-3.881 130.527-11.324l-4.5 0.654c13.227-79.787 38.827-327.253-122.027-488.107-90.051-82.566-210.584-133.164-342.935-133.164-7.69 0-15.34 0.171-22.947 0.509l1.082-0.038c-0.146 0-0.318 0-0.491 0-43.995 0-87.084 3.88-128.943 11.318l4.421-0.651c-13.653 80.213-39.253 327.253 121.6 488.533zM311.040 307.627l60.587-60.587 76.373 76.373 76.373-76.373 60.587 60.587-76.8 76.373 67.84 67.84 76.373-76.8 60.587 60.587-76.8 76.373 76.8 76.373-60.587 60.587-76.373-76.8-76.373 76.8-60.587-60.587 76.8-76.373-67.84-67.84-76.373 76.8-60.587-60.587 76.8-76.373z" fill="currentColor" />
  </g>
</svg>
