<?xml version="1.0" encoding="utf-8"?>
<svg xmlns="http://www.w3.org/2000/svg" viewBox="0 0 1024 1024" width="24" height="24">
  <g transform="scale(1, -1) translate(0, -960)">
    <path d="M512 874.667c-235.264 0-426.667-191.403-426.667-426.667s191.403-426.667 426.667-426.667 426.667 191.403 426.667 426.667-191.403 426.667-426.667 426.667zM828.203 576h-145.536v-1.323c-12.637 16.852-27.138 31.353-43.435 43.591l-0.554 0.398h1.323v145.536c85.784-35.597 152.605-102.418 187.365-185.933l0.838-2.27zM512 320c-70.571 0-128 57.429-128 128s57.429 128 128 128 128-57.429 128-128-57.429-128-128-128zM554.667 786.389v-129.365c-12.827 2.747-27.563 4.321-42.667 4.321s-29.84-1.573-44.054-4.565l1.387 0.244v129.365c13.995 1.749 28.16 2.944 42.667 2.944s28.672-1.195 42.667-2.944zM384 764.203v-145.536h1.323c-16.852-12.637-31.353-27.138-43.591-43.435l-0.398-0.554v1.323h-145.536c34.688 85.333 102.827 153.515 188.203 188.203zM173.611 490.667h129.365c-2.73-12.795-4.293-27.496-4.293-42.562 0-15.141 1.579-29.913 4.581-44.161l-0.245 1.39h-129.408c-1.749 13.995-2.944 28.203-2.944 42.667s1.195 28.672 2.944 42.667zM195.797 320h145.536v1.323c12.117-16.256 26.496-30.635 42.667-42.88v-146.645c-85.784 35.597-152.605 102.418-187.365 185.933l-0.838 2.27zM469.333 109.611v129.365c12.827-2.747 27.563-4.321 42.667-4.321s29.84 1.573 44.054 4.565l-1.387-0.244v-129.365c-13.995-1.749-28.16-2.944-42.667-2.944s-28.672 1.195-42.667 2.944zM640 131.797v146.645c16.293 12.382 30.35 26.507 42.271 42.332l0.395 0.548v-1.323h145.536c-35.597-85.784-102.418-152.605-185.933-187.365l-2.27-0.838zM850.389 405.333h-129.365c2.73 12.795 4.293 27.496 4.293 42.562 0 15.141-1.579 29.913-4.581 44.161l0.245-1.39h129.365c1.792-13.995 2.987-28.203 2.987-42.667s-1.195-28.672-2.944-42.667z" fill="currentColor" />
  </g>
</svg>
