<?xml version="1.0" encoding="utf-8"?>
<svg xmlns="http://www.w3.org/2000/svg" viewBox="0 0 1024 1024" width="24" height="24">
  <g transform="scale(1, -1) translate(0, -960)">
    <path d="M597.333 746.667h-341.333c-47.061 0-85.333-38.272-85.333-85.333v-682.667l256 153.643 256-153.643v682.667c0 47.061-38.272 85.333-85.333 85.333zM597.333 129.408l-170.667 102.357-170.667-102.357v531.925h341.333v-531.925zM768 917.333h-341.333c-47.061 0-85.333-38.272-85.333-85.333h341.333c47.061 0 85.333-38.272 85.333-85.333v-445.568l85.333-106.197v637.099c0 47.061-38.272 85.333-85.333 85.333z" fill="currentColor" />
  </g>
</svg>
