<?xml version="1.0" encoding="utf-8"?>
<svg xmlns="http://www.w3.org/2000/svg" viewBox="0 0 1024 1024" width="24" height="24">
  <g transform="scale(1, -1) translate(0, -960)">
    <path d="M188.16 269.141l50.347-68.907 188.16 137.515v-273.749c0.001-23.564 19.103-42.666 42.667-42.666 8.575 0 16.56 2.53 23.247 6.884l-0.165-0.101 298.667 192c11.883 7.697 19.635 20.89 19.635 35.893 0 14.113-6.859 26.624-17.425 34.381l-0.119 0.083-215.595 157.525 215.595 157.525c10.648 7.869 17.477 20.377 17.477 34.48 0 14.996-7.721 28.188-19.404 35.819l-0.164 0.1-298.667 192c-6.533 4.256-14.527 6.787-23.113 6.787-7.497 0-14.543-1.93-20.669-5.319l0.22 0.111c-13.653-7.509-22.187-21.888-22.187-37.504v-273.749l-188.16 137.557-50.347-68.949 238.507-174.293v-9.173l-238.507-174.251zM512 753.835l180.565-116.096-180.565-131.968v248.064zM512 390.229l180.565-131.968-180.565-116.096v248.064z" fill="currentColor" />
  </g>
</svg>
