<?xml version="1.0" encoding="utf-8"?>
<svg xmlns="http://www.w3.org/2000/svg" viewBox="0 0 1024 1024" width="24" height="24">
  <g transform="scale(1, -1) translate(0, -960)">
    <path d="M896 533.333h-597.333v128c0 47.061 38.272 85.333 85.333 85.333s85.333-38.272 85.333-85.333h85.333c0 94.123-76.544 170.667-170.667 170.667s-170.667-76.544-170.667-170.667v-128h-85.333c-23.564 0-42.667-19.103-42.667-42.667v0-85.333c0-111.189 71.424-205.781 170.667-241.067v-142.933h85.333v128h341.333v-128h85.333v142.933c99.243 35.285 170.667 129.877 170.667 241.067v85.333c0 23.564-19.103 42.667-42.667 42.667v0zM853.333 405.333c0-94.123-76.544-170.667-170.667-170.667h-341.333c-94.123 0-170.667 76.544-170.667 170.667v42.667h682.667v-42.667z" fill="currentColor" />
  </g>
</svg>
