<?xml version="1.0" encoding="utf-8"?>
<svg xmlns="http://www.w3.org/2000/svg" viewBox="0 0 1024 1024" width="24" height="24">
  <g transform="scale(1, -1) translate(0, -960)">
    <path d="M512 874.667c-235.264 0-426.667-191.403-426.667-426.667s191.403-426.667 426.667-426.667 426.667 191.403 426.667 426.667-191.403 426.667-426.667 426.667zM170.667 448c0 78.763 27.051 151.125 72.021 208.939l478.251-478.251c-56.967-44.903-129.777-72.021-208.92-72.021-0.006 0-0.013 0-0.019 0h0.001c-188.203 0-341.333 153.131-341.333 341.333zM781.312 239.061l-478.251 478.251c56.975 44.901 129.79 72.019 208.938 72.021v0c188.203 0 341.333-153.131 341.333-341.333-0.024-79.146-27.137-151.956-72.572-209.664l0.551 0.726z" fill="currentColor" />
  </g>
</svg>
