<?xml version="1.0" encoding="utf-8"?>
<svg xmlns="http://www.w3.org/2000/svg" viewBox="0 0 1024 1024" width="24" height="24">
  <g transform="scale(1, -1) translate(0, -960)">
    <path d="M907.051 450.219c18.224 4.789 31.472 21.051 31.616 40.432v128.016c0 0 0 0 0 0 0 23.496-19.011 42.551-42.489 42.624h-0.007v42.709h-0.171c0 94.123-76.544 170.667-170.667 170.667h-426.667c-94.123 0-170.667-76.544-170.667-170.667v-42.667c-23.564 0-42.667-19.103-42.667-42.667v0-128c0-19.669 13.525-35.499 31.659-40.448-19.714-27.206-31.557-61.238-31.616-98.034v-0.014l0.171-160.299c0.043-31.275 17.237-58.411 42.453-73.216v-54.656c0-23.564 19.103-42.667 42.667-42.667v0h42.667c23.564 0 42.667 19.103 42.667 42.667v0 42.667h512v-42.667c0-23.564 19.103-42.667 42.667-42.667v0h42.667c23.564 0 42.667 19.103 42.667 42.667v0 54.357c6.836 3.855 12.734 8.284 17.985 13.376l-0.022-0.021c16.085 16.128 24.96 37.589 24.917 60.373l-0.171 160.384c-0.18 36.706-12.019 70.613-32 98.245l0.341-0.495zM213.333 192h-42.453l-0.171 160.299c-0.043 19.584 6.869 37.973 18.901 53.035h644.736c12.075-15.061 18.987-33.408 19.029-52.992l0.213-160.341h-640.256zM469.504 618.667v-128h-256.171v128h256.171zM810.667 490.667h-255.829v128h255.829v-128zM298.667 789.333h426.667c47.061 0 85.333-38.272 85.333-85.333h-170.667v42.667h-256v-42.667h-170.667c0 47.061 38.272 85.333 85.333 85.333zM341.333 298.667c0-35.346-28.654-64-64-64s-64 28.654-64 64c0 35.346 28.654 64 64 64s64-28.654 64-64zM810.667 298.667c0-35.346-28.654-64-64-64s-64 28.654-64 64c0 35.346 28.654 64 64 64s64-28.654 64-64z" fill="currentColor" />
  </g>
</svg>
