<?xml version="1.0" encoding="utf-8"?>
<svg xmlns="http://www.w3.org/2000/svg" viewBox="0 0 1024 1024" width="24" height="24">
  <g transform="scale(1, -1) translate(0, -960)">
    <path d="M789.333 874.667h-512c-82.347 0-149.333-66.987-149.333-149.333v-704l298.667 149.333 298.667-149.333v384h213.333v320c0 82.347-66.987 149.333-149.333 149.333zM640 159.403l-213.333 106.667-213.333-106.667v565.931c0 35.285 28.715 64 64 64h377.685c-9.358-18.678-14.89-40.678-15.018-63.957v-565.974zM853.333 490.667h-128v234.667c0 35.285 28.715 64 64 64s64-28.715 64-64v-234.667zM298.667 576h256v-85.333h-256z" fill="currentColor" />
  </g>
</svg>
