<?xml version="1.0" encoding="utf-8"?>
<svg xmlns="http://www.w3.org/2000/svg" viewBox="0 0 1024 1024" width="24" height="24">
  <g transform="scale(1, -1) translate(0, -960)">
    <path d="M384 576h256v-85.333h-256zM384 405.333h256v-85.333h-256zM768 729.003l72.832 72.832-60.331 60.331-66.688-66.645c-53.205 48.939-123.989 79.147-201.813 79.147s-148.608-30.208-201.813-79.147l-66.688 66.645-60.331-60.331 72.832-72.832c-26.781-43.63-42.65-96.462-42.667-152.998v-0.005h-85.333v-85.333h85.333v-85.333h-85.333v-85.333h85.333c0-164.693 134.016-298.667 298.667-298.667s298.667 133.973 298.667 298.667h85.333v85.333h-85.333v85.333h85.333v85.333h-85.333c-0.017 56.541-15.886 109.372-43.403 154.296l0.736-1.293zM725.333 405.333v-85.333c0-117.632-95.701-213.333-213.333-213.333s-213.333 95.701-213.333 213.333v256c0 117.632 95.701 213.333 213.333 213.333s213.333-95.701 213.333-213.333v-170.667z" fill="currentColor" />
  </g>
</svg>
