<?xml version="1.0" encoding="utf-8"?>
<svg xmlns="http://www.w3.org/2000/svg" viewBox="0 0 1024 1024" width="24" height="24">
  <g transform="scale(1, -1) translate(0, -960)">
    <path d="M341.333 405.333v-170.667h-85.333v-85.333h128v-85.333h85.333v85.333h85.333v-85.333h85.333v87.509c83.968 10.624 149.333 81.707 149.333 168.491 0 56.32-27.733 105.984-69.973 137.088 30.054 30.607 48.614 72.59 48.64 118.907v0.005c0 79.275-54.571 145.536-128 164.608v91.392h-85.333v-85.333h-85.333v85.333h-85.333v-85.333h-128v-85.333h85.333v-256zM618.667 234.667h-192v170.667h192c47.061 0 85.333-38.272 85.333-85.333s-38.272-85.333-85.333-85.333zM426.667 661.333h170.667c47.061 0 85.333-38.272 85.333-85.333s-38.272-85.333-85.333-85.333h-170.667v170.667z" fill="currentColor" />
  </g>
</svg>
