<?xml version="1.0" encoding="utf-8"?>
<svg xmlns="http://www.w3.org/2000/svg" viewBox="0 0 1024 1024" width="24" height="24">
  <g transform="scale(1, -1) translate(0, -960)">
    <path d="M346.069 26.069c0.196-0.001 0.428-0.001 0.66-0.001 70.473 0 134.253 28.658 180.322 74.956l331.871 331.871c46.251 46.359 74.851 110.346 74.851 181.013s-28.6 134.654-74.856 181.018l0.005-0.005c-46.098 46.309-109.895 74.966-180.385 74.966-0.228 0-0.457 0-0.685-0.001h0.035c-0.196 0.001-0.428 0.001-0.66 0.001-70.473 0-134.253-28.658-180.322-74.956l-331.871-331.871c-46.251-46.359-74.851-110.346-74.851-181.013s28.6-134.654 74.856-181.018l-0.005 0.005c46.098-46.309 109.895-74.966 180.385-74.966 0.228 0 0.457 0 0.685 0.001h-0.035zM225.365 402.731l331.861 331.861c30.726 30.864 73.248 49.963 120.231 49.963 0.151 0 0.303 0 0.454-0.001h-0.023c45.611 0 88.448-17.749 120.704-49.963 30.825-30.913 49.884-73.572 49.884-120.683s-19.060-89.77-49.888-120.687l-331.857-331.857c-30.726-30.864-73.248-49.963-120.231-49.963-0.151 0-0.303 0-0.454 0.001h0.023c-0.135 0-0.295-0.001-0.455-0.001-46.988 0-89.516 19.099-120.243 49.957l-0.006 0.006c-30.804 30.922-49.849 73.578-49.849 120.683s19.045 89.76 49.855 120.688l-0.005-0.005zM426.667 448c0-23.564-19.103-42.667-42.667-42.667s-42.667 19.103-42.667 42.667c0 23.564 19.103 42.667 42.667 42.667s42.667-19.103 42.667-42.667zM682.667 448c0-23.564-19.103-42.667-42.667-42.667s-42.667 19.103-42.667 42.667c0 23.564 19.103 42.667 42.667 42.667s42.667-19.103 42.667-42.667zM554.667 320c0-23.564-19.103-42.667-42.667-42.667s-42.667 19.103-42.667 42.667c0 23.564 19.103 42.667 42.667 42.667s42.667-19.103 42.667-42.667zM554.667 576c0-23.564-19.103-42.667-42.667-42.667s-42.667 19.103-42.667 42.667c0 23.564 19.103 42.667 42.667 42.667s42.667-19.103 42.667-42.667z" fill="currentColor" />
  </g>
</svg>
