<?xml version="1.0" encoding="utf-8"?>
<svg xmlns="http://www.w3.org/2000/svg" viewBox="0 0 1024 1024" width="24" height="24">
  <g transform="scale(1, -1) translate(0, -960)">
    <path d="M840.832 776.832l-60.331-60.331c116.608-116.608 116.608-313.728 0-430.336l60.331-60.331c149.333 149.333 149.333 401.664 0 550.997zM652.501 588.501c24.149-24.149 37.504-55.125 37.504-87.168s-13.355-63.019-37.504-87.168l60.331-60.331c40.277 40.235 62.507 92.672 62.507 147.499s-22.229 107.264-62.507 147.499l-60.331-60.331zM264.832 716.501l-60.331 60.331c-149.333-149.333-149.333-401.664 0-550.997l60.331 60.331c-116.608 116.608-116.608 313.728 0 430.336zM311.168 648.832c-40.277-40.235-62.507-92.672-62.507-147.499s22.229-107.264 62.507-147.499l60.331 60.331c-24.149 24.149-37.504 55.125-37.504 87.168s13.355 63.019 37.504 87.168l-60.331 60.331zM597.333 512c0 47.128-38.205 85.333-85.333 85.333s-85.333-38.205-85.333-85.333v0c0-0.035 0-0.076 0-0.117 0-29.519 15.041-55.525 37.877-70.771l0.31-0.195-38.101-419.584h170.496l-38.101 419.627c23.040 15.275 38.187 41.387 38.187 71.040z" fill="currentColor" />
  </g>
</svg>
