<?xml version="1.0" encoding="utf-8"?>
<svg xmlns="http://www.w3.org/2000/svg" viewBox="0 0 1024 1024" width="24" height="24">
  <g transform="scale(1, -1) translate(0, -960)">
    <path d="M810.667 874.667h-426.667c-47.061 0-85.333-38.272-85.333-85.333v-238.336l-200.832-200.832c-7.718-7.721-12.492-18.386-12.492-30.165 0-23.561 19.097-42.661 42.657-42.667h0.001v-213.333c0-23.564 19.103-42.667 42.667-42.667v0h682.667c23.564 0 42.667 19.103 42.667 42.667v0 725.333c0 47.061-38.272 85.333-85.333 85.333zM469.333 106.667h-256v238.336l128 128 128-128v-238.336zM810.667 106.667h-256v170.667c0.028 0 0.061 0 0.094 0 23.541 0 42.624 19.083 42.624 42.624 0 11.804-4.798 22.488-12.551 30.207l-200.834 200.834v238.336h426.667v-682.667zM469.333 704h85.333v-85.333h-85.333zM640 704h85.333v-85.333h-85.333zM640 532.011h85.333v-84.011h-85.333zM640 362.667h85.333v-85.333h-85.333zM298.667 320h85.333v-85.333h-85.333z" fill="currentColor" />
  </g>
</svg>
