<?xml version="1.0" encoding="utf-8"?>
<svg xmlns="http://www.w3.org/2000/svg" viewBox="0 0 1024 1024" width="24" height="24">
  <g transform="scale(1, -1) translate(0, -960)">
    <path d="M853.333 21.333v768c0 47.061-38.272 85.333-85.333 85.333h-512c-47.061 0-85.333-38.272-85.333-85.333v-768l341.333 195.072 341.333-195.072zM256 533.333v256h512v-620.928l-256 146.261-256-146.261v364.928zM657.451 554.155c15.403 15.872 24.96 37.888 24.96 62.123s-9.515 46.208-24.96 62.123c-15.227 15.838-36.582 25.689-60.238 25.728h-0.007s-42.496 0.128-85.205-43.904c-42.709 44.032-85.205 43.904-85.205 43.904-23.552 0-44.843-9.813-60.245-25.728-15.445-15.915-24.96-37.845-24.96-62.123s9.515-46.251 24.96-62.123l145.451-157.483 145.451 157.483z" fill="currentColor" />
  </g>
</svg>
