<?xml version="1.0" encoding="utf-8"?>
<svg xmlns="http://www.w3.org/2000/svg" viewBox="0 0 1024 1024" width="24" height="24">
  <g transform="scale(1, -1) translate(0, -960)">
    <path d="M128 618.667v-469.333c0-93.909 76.544-128 128-128h640v85.333h-639.488c-19.712 0.512-43.179 8.277-43.179 42.667 0 4.309 0.384 8.149 1.024 11.648 4.779 24.576 24.917 30.592 42.155 31.019h639.488v597.333c0 47.061-38.272 85.333-85.333 85.333h-554.667c-51.456 0-128-34.091-128-128v-128zM256 789.333h554.667v-512h-597.333v469.333c0 34.389 23.467 42.155 42.667 42.667zM469.333 362.667h85.333v128h128v85.333h-128v128h-85.333v-128h-128v-85.333h128z" fill="currentColor" />
  </g>
</svg>
