<?xml version="1.0" encoding="utf-8"?>
<svg xmlns="http://www.w3.org/2000/svg" viewBox="0 0 1024 1024" width="24" height="24">
  <g transform="scale(1, -1) translate(0, -960)">
    <path d="M896.171 619.733v84.267c0 94.123-76.544 170.667-170.667 170.667h-426.667c-94.123 0-170.667-76.544-170.667-170.667v-85.248l-3.243-0.171c-22.205-1.651-39.595-20.073-39.595-42.556 0-0.009 0-0.018 0-0.027v0.001-85.333c0-23.564 19.103-42.667 42.667-42.667v0h0.171v-256c0-31.36 17.195-58.539 42.496-73.387v-54.613c0-23.564 19.103-42.667 42.667-42.667v0h42.667c23.564 0 42.667 19.103 42.667 42.667v0 42.667h426.667v-42.667c0-23.564 19.103-42.667 42.667-42.667v0h42.667c23.564 0 42.667 19.103 42.667 42.667v0 54.443c25.694 14.896 42.726 42.225 42.837 73.541v256.016c23.564 0 42.667 19.103 42.667 42.667v0 82.688c0.075 0.951 0.118 2.058 0.118 3.176 0 5.855-1.172 11.436-3.295 16.521l0.105-0.284c-8.661 20.779-27.093 25.771-39.595 26.965zM810.923 192h-597.419v213.333h597.376l0.043-213.333zM469.504 661.333v-170.667h-256v170.667h256zM810.837 661.333v-170.667h-256v170.667h256zM298.837 789.333h426.667c31.403 0 58.667-17.28 73.472-42.667h-573.611c14.805 25.387 42.069 42.667 73.472 42.667zM384 298.667c0-35.346-28.654-64-64-64s-64 28.654-64 64c0 35.346 28.654 64 64 64s64-28.654 64-64zM768 298.667c0-35.346-28.654-64-64-64s-64 28.654-64 64c0 35.346 28.654 64 64 64s64-28.654 64-64z" fill="currentColor" />
  </g>
</svg>
