<?xml version="1.0" encoding="utf-8"?>
<svg xmlns="http://www.w3.org/2000/svg" viewBox="0 0 1024 1024" width="24" height="24">
  <g transform="scale(1, -1) translate(0, -960)">
    <path d="M853.333 704h-128v85.333c0 47.061-38.272 85.333-85.333 85.333h-256c-47.061 0-85.333-38.272-85.333-85.333v-85.333h-128c-47.061 0-85.333-38.272-85.333-85.333v-469.333c0-47.061 38.272-85.333 85.333-85.333h682.667c47.061 0 85.333 38.272 85.333 85.333v469.333c0 47.061-38.272 85.333-85.333 85.333zM682.667 618.667v-469.333h-341.333v469.333h341.333zM640 789.333v-85.333h-256v85.333h256zM170.667 618.667h85.333v-469.333h-85.333v469.333zM768 149.333v469.333h85.333l0.043-469.333h-85.376z" fill="currentColor" />
  </g>
</svg>
