<?xml version="1.0" encoding="utf-8"?>
<svg xmlns="http://www.w3.org/2000/svg" viewBox="0 0 1024 1024" width="24" height="24">
  <g transform="scale(1, -1) translate(0, -960)">
    <path d="M720.853 681.856l120.021 119.979-60.331 60.331-121.429-121.429c-8.82 6.457-18.902 12.874-29.393 18.638l-1.455 0.732c-33.647 18.349-73.697 29.139-116.267 29.139s-82.619-10.79-117.563-29.784l1.296 0.645c-10.667-5.632-20.821-12.245-30.805-19.328l-121.429 121.387-60.331-60.331 120.021-119.979c-23.924-30.227-43.459-65.322-56.824-103.323l-0.776-2.533h-160.256v-85.333h98.432c-2.773-21.12-4.565-42.539-4.565-64 0-21.632 1.792-43.221 4.565-64.469h-98.432v-85.333h117.461c0.555-1.664 0.896-3.413 1.451-5.035 8.021-23.68 17.963-46.635 29.653-68.267 1.877-3.456 4.053-6.613 6.016-9.984l-99.413-99.413 60.331-60.331 90.027 90.069c24.789-27.616 53.963-50.679 86.54-68.242l1.695-0.835c20.437-10.795 41.899-19.157 63.829-24.747 20.75-5.549 44.572-8.736 69.139-8.736 24.507 0 48.273 3.171 70.91 9.126l-1.937-0.433c24.302 6.341 45.531 14.804 65.372 25.508l-1.543-0.761c19.84 10.496 38.997 23.467 56.875 38.571 11.008 9.301 21.333 19.712 31.317 30.549l90.069-90.069 60.331 60.331-99.413 99.413c2.005 3.413 4.181 6.613 6.059 10.069 11.648 21.547 21.632 44.501 29.611 68.224 0.555 1.664 0.896 3.371 1.451 5.035h117.504v85.333h-98.475c2.773 21.291 4.565 42.837 4.565 64.469 0 21.461-1.792 42.88-4.523 64h98.432v85.291h-160.256c-14.146 40.53-33.665 75.623-58.14 106.621l0.583-0.765zM370.389 629.419c18.987 23.808 40.96 42.368 65.195 55.211 22.090 12.14 48.408 19.281 76.395 19.281s54.305-7.142 77.233-19.702l-0.838 0.421c25.866-14.177 47.584-32.695 64.938-54.801l0.342-0.452c12.757-15.915 23.040-34.133 32.128-53.376h-347.563c9.131 19.243 19.371 37.504 32.171 53.419zM759.467 426.667c0-22.272-1.792-44.544-5.376-66.261-3.371-20.907-8.491-41.515-15.147-61.269-7.25-21.362-15.311-39.517-24.774-56.794l0.923 1.84c-9.835-18.033-20.196-33.527-31.774-48.006l0.499 0.646c-11.392-14.208-23.893-27.136-37.077-38.315-13.227-11.136-27.264-20.651-41.771-28.331s-29.653-13.525-45.099-17.493c-1.707-0.427-3.499-0.597-5.205-0.981v250.965h-85.333v-250.923c-1.707 0.384-3.499 0.555-5.205 0.981-15.403 3.968-30.592 9.813-45.099 17.493s-28.544 17.195-41.728 28.331c-13.649 11.641-25.828 24.198-36.742 37.814l-0.421 0.543c-11.096 13.811-21.432 29.28-30.364 45.626l-0.825 1.649c-8.54 15.442-16.614 33.609-23.142 52.498l-0.751 2.499c-6.045 17.197-11.325 37.85-14.876 59.090l-0.313 2.265c-3.388 19.8-5.324 42.605-5.324 65.863 0 22.691 1.843 44.951 5.388 66.639l-0.319-2.369h484.736c3.371-20.949 5.12-42.453 5.12-64z" fill="currentColor" />
  </g>
</svg>
