<?xml version="1.0" encoding="utf-8"?>
<svg xmlns="http://www.w3.org/2000/svg" viewBox="0 0 1024 1024" width="24" height="24">
  <g transform="scale(1, -1) translate(0, -960)">
    <path d="M896 832h-298.667c-32.941-0.115-62.911-12.739-85.429-33.366l0.095 0.086c-22.423 20.541-52.393 33.165-85.31 33.28h-298.69c-23.564 0-42.667-19.103-42.667-42.667v0-640c0-23.564 19.103-42.667 42.667-42.667v0h245.675c22.443 0 44.459-9.131 60.331-25.003l47.829-47.829c0.384-0.384 0.896-0.512 1.28-0.896 3.669-3.371 7.765-6.357 12.544-8.363h0.085c4.804-2.044 10.391-3.232 16.256-3.232s11.452 1.188 16.535 3.337l-0.279-0.105h0.085c4.779 2.005 8.875 4.992 12.544 8.363 0.384 0.384 0.896 0.512 1.28 0.896l47.829 47.829c15.475 15.387 36.781 24.923 60.315 25.003h245.69c23.564 0 42.667 19.103 42.667 42.667v0 640c0 23.564-19.103 42.667-42.667 42.667v0zM373.675 192h-203.008v554.667h256c23.552 0 42.667-19.157 42.667-42.667v-541.397c-26.836 18.315-59.955 29.286-95.63 29.397h-0.028zM853.333 192h-203.008c-34.091 0-67.584-10.496-95.659-29.397v541.397c0 23.509 19.115 42.667 42.667 42.667h256v-554.667z" fill="currentColor" />
  </g>
</svg>
