<?xml version="1.0" encoding="utf-8"?>
<svg xmlns="http://www.w3.org/2000/svg" viewBox="0 0 1024 1024" width="24" height="24">
  <g transform="scale(1, -1) translate(0, -960)">
    <path d="M853.333 832h-682.667c-47.128 0-85.333-38.205-85.333-85.333v0-85.333c0.194-31.22 17.125-58.443 42.264-73.169l0.403-0.218v-438.613c0-47.128 38.205-85.333 85.333-85.333v0h597.333c47.128 0 85.333 38.205 85.333 85.333v0 438.613c25.542 14.943 42.472 42.166 42.667 73.359v85.361c0 47.128-38.205 85.333-85.333 85.333v0zM170.667 746.667h682.667v-85.333h-682.667zM213.333 149.333v426.667h597.333v-426.667zM341.333 490.667h341.333v-85.333h-341.333z" fill="currentColor" />
  </g>
</svg>
