<?xml version="1.0" encoding="utf-8"?>
<svg xmlns="http://www.w3.org/2000/svg" viewBox="0 0 1024 1024" width="24" height="24">
  <g transform="scale(1, -1) translate(0, -960)">
    <path d="M512 874.667c-188.203 0-341.333-153.131-341.333-341.12-1.237-274.987 303.616-495.104 316.587-504.277 6.872-4.958 15.462-7.929 24.747-7.929s17.875 2.972 24.873 8.016l-0.126-0.086c12.971 9.173 317.824 229.291 316.587 504.064 0 188.203-153.131 341.333-341.333 341.333zM512 117.973c-68.736 55.808-256.896 225.877-256 415.36 0 141.184 114.816 256 256 256s256-114.816 256-256.213c0.896-189.312-187.221-359.381-256-415.147zM469.333 465.664l-97.835 97.835-60.331-60.331 158.165-158.165 243.499 243.499-60.331 60.331z" fill="currentColor" />
  </g>
</svg>
