<?xml version="1.0" encoding="utf-8"?>
<svg xmlns="http://www.w3.org/2000/svg" viewBox="0 0 1024 1024" width="24" height="24">
  <g transform="scale(1, -1) translate(0, -960)">
    <path d="M883.499 307.499l-72.832 72.832v153.003c0 137.259-93.227 252.885-219.52 287.659-12.501 31.488-43.051 53.675-79.147 53.675s-66.645-22.187-79.147-53.675c-126.293-34.816-219.52-150.4-219.52-287.659v-153.003l-72.832-72.832c-7.723-7.696-12.501-18.342-12.501-30.104 0-0.022 0-0.043 0-0.065v0.003-85.333c0-23.564 19.103-42.667 42.667-42.667v0h682.667c23.564 0 42.667 19.103 42.667 42.667v0 85.333c0 0.018 0 0.040 0 0.062 0 11.762-4.779 22.408-12.5 30.102l-0.001 0.001zM810.667 234.667h-597.333v25.003l72.832 72.832c7.723 7.696 12.501 18.342 12.501 30.104 0 0.022 0 0.043 0 0.065v-0.003 170.667c0 117.632 95.701 213.333 213.333 213.333s213.333-95.701 213.333-213.333v-170.667c0-11.349 4.48-22.187 12.501-30.165l72.832-72.832v-25.003zM512 21.333c0.047 0 0.104 0 0.16 0 55.241 0 102.254 35.229 119.798 84.445l0.276 0.888h-240.469c17.821-50.105 64.834-85.333 120.075-85.333 0.056 0 0.113 0 0.169 0h-0.009zM342.912 533.333h338.176v-85.333h-338.176z" fill="currentColor" />
  </g>
</svg>
