<?xml version="1.0" encoding="utf-8"?>
<svg xmlns="http://www.w3.org/2000/svg" viewBox="0 0 1024 1024" width="24" height="24">
  <g transform="scale(1, -1) translate(0, -960)">
    <path d="M935.595 464.768c-8.619 20.821-27.093 25.813-39.595 27.008v126.891c0 47.061-38.272 85.333-85.333 85.333h-256v59.307c13.013 11.691 21.333 28.501 21.333 47.36 0 35.346-28.654 64-64 64s-64-28.654-64-64v0c0-18.859 8.32-35.669 21.333-47.36v-59.307h-256c-47.061 0-85.333-38.272-85.333-85.333v-127.872l-3.499-0.256c-22.199-1.651-39.585-20.063-39.595-42.538v-85.334c0-23.564 19.103-42.667 42.667-42.667v0h0.427v-213.333c0-47.061 38.272-85.333 85.333-85.333h597.333c47.061 0 85.333 38.272 85.333 85.333v213.333c23.564 0 42.667 19.103 42.667 42.667v0 82.688c0.075 0.951 0.118 2.058 0.118 3.176 0 5.855-1.172 11.436-3.295 16.521l0.105-0.284zM213.333 106.667v512h597.333l0.043-170.496-0.043-0.171v-85.333l0.043-0.213 0.043-255.787h-597.419zM426.667 448c0-47.128-28.654-85.333-64-85.333s-64 38.205-64 85.333c0 47.128 28.654 85.333 64 85.333s64-38.205 64-85.333zM725.333 448c0-47.128-28.654-85.333-64-85.333s-64 38.205-64 85.333c0 47.128 28.654 85.333 64 85.333s64-38.205 64-85.333zM341.333 277.333h341.333v-85.333h-341.333z" fill="currentColor" />
  </g>
</svg>
