<?xml version="1.0" encoding="utf-8"?>
<svg xmlns="http://www.w3.org/2000/svg" viewBox="0 0 1024 1024" width="24" height="24">
  <g transform="scale(1, -1) translate(0, -960)">
    <path d="M626.475 327.339c-15.195-15.147-33.196-27.488-53.155-36.175l-1.117-0.433c-19.601-8.5-42.429-13.444-66.412-13.444-58.696 0-110.474 29.616-141.208 74.719l-0.38 0.592-70.741-47.744c18.744-27.416 41.732-50.39 68.276-68.547l0.887-0.573c26.132-17.895 56.877-31.286 89.991-38.237l1.657-0.291c15.443-3.291 33.185-5.176 51.368-5.176 36.017 0 70.306 7.395 101.434 20.749l-1.676-0.64c31.604 13.612 58.598 32.086 81.372 54.791l-0.007-0.007c11.605 11.563 22.187 24.363 31.317 37.931l-70.741 47.744c-6.467-9.433-13.328-17.689-20.87-25.265l0.006 0.006zM512 874.667c-235.264 0-426.667-191.403-426.667-426.667s191.403-426.667 426.667-426.667 426.667 191.403 426.667 426.667-191.403 426.667-426.667 426.667zM512 789.333c125.995 0 235.989-68.821 295.168-170.667h-590.336c59.179 101.845 169.173 170.667 295.168 170.667zM512 106.667c-188.203 0-341.333 153.131-341.333 341.333 0 29.483 4.181 57.984 11.264 85.333h31.403v-42.667c0-47.128 38.205-85.333 85.333-85.333v0h85.333c47.128 0 85.333 38.205 85.333 85.333v0h85.333c0-47.128 38.205-85.333 85.333-85.333v0h85.333c47.128 0 85.333 38.205 85.333 85.333v0 42.667h31.403c7.083-27.349 11.264-55.851 11.264-85.333 0-188.203-153.131-341.333-341.333-341.333z" fill="currentColor" />
  </g>
</svg>
