<?xml version="1.0" encoding="utf-8"?>
<svg xmlns="http://www.w3.org/2000/svg" viewBox="0 0 1024 1024" width="24" height="24">
  <g transform="scale(1, -1) translate(0, -960)">
    <path d="M921.515 487.936c-7.104 5.407-16.101 8.663-25.858 8.663-3.758 0-7.404-0.483-10.878-1.391l0.299 0.066c-9.47-2.752-20.374-4.422-31.639-4.607l-0.105-0.001c-70.571 0-128 57.429-128.128 125.312 0.213 1.451 0.683 5.803 0.725 7.253 0.024 0.53 0.037 1.151 0.037 1.776 0 23.517-19.064 42.581-42.581 42.581-3.897 0-7.672-0.524-11.258-1.504l0.299 0.070c-9.667-2.864-20.801-4.611-32.31-4.82l-0.117-0.002c-70.571 0-128 57.429-128 128 0 9.259 1.323 18.944 4.224 30.549 0.797 3.083 1.254 6.622 1.254 10.268 0 23.564-19.103 42.667-42.667 42.667-1.448 0-2.88-0.072-4.291-0.213l0.178 0.014c-217.022-20.826-385.369-202.232-385.369-422.956 0-0.584 0.001-1.169 0.004-1.752v0.090c0-235.264 191.403-426.667 426.667-426.667s426.667 191.403 426.667 426.667c0 2.091-0.128 4.139-0.299 6.827-0.31 13.486-6.807 25.394-16.752 33.035l-0.101 0.075zM512 106.667c-188.203 0-341.333 153.131-341.333 341.333-0.002 0.405-0.003 0.885-0.003 1.365 0 157.972 107.827 290.761 253.897 328.78l2.362 0.522c5.969-113.087 99.056-202.538 213.065-202.667h0.013l4.309 0.043c20.457-97.144 104.796-169.248 206.225-170.665l0.153-0.002c-21.077-168.192-164.907-298.709-338.688-298.709zM597.333 469.333c0-35.346-28.654-64-64-64s-64 28.654-64 64c0 35.346 28.654 64 64 64s64-28.654 64-64zM426.667 597.333c0-35.346-28.654-64-64-64s-64 28.654-64 64c0 35.346 28.654 64 64 64s64-28.654 64-64zM384 426.667c0-35.346-28.654-64-64-64s-64 28.654-64 64c0 35.346 28.654 64 64 64s64-28.654 64-64zM725.333 298.667c0-35.346-28.654-64-64-64s-64 28.654-64 64c0 35.346 28.654 64 64 64s64-28.654 64-64zM512 256c0-35.346-28.654-64-64-64s-64 28.654-64 64c0 35.346 28.654 64 64 64s64-28.654 64-64z" fill="currentColor" />
  </g>
</svg>
