<?xml version="1.0" encoding="utf-8"?>
<svg xmlns="http://www.w3.org/2000/svg" viewBox="0 0 1024 1024" width="24" height="24">
  <g transform="scale(1, -1) translate(0, -960)">
    <path d="M341.931 442.24c3.157-87.979 76.331-161.152 164.309-164.309l-164.309 164.309zM170.667 106.667h506.837l-85.333 85.333h-421.504v421.504l-79.189 79.189c-3.857-9.277-6.111-20.051-6.144-31.347v-469.346c0-47.061 38.272-85.333 85.333-85.333zM853.333 746.667h-110.336l-115.499 115.499c-7.696 7.723-18.342 12.501-30.104 12.501-0.022 0-0.043 0-0.065 0h-170.664c-0.013 0-0.028 0-0.044 0-11.768 0-22.419-4.778-30.12-12.5l-115.5-115.5h-7.339l-115.499 115.499-60.331-60.331 768-768 60.331 60.331-26.709 26.709c23.664 15.191 39.137 41.343 39.211 71.114v469.344c0 47.061-38.272 85.333-85.333 85.333zM593.877 426.453l-103.424 103.467c6.955 1.963 14.123 3.413 21.547 3.413 45.44 0 85.333-39.893 85.333-85.333 0-7.424-1.408-14.592-3.456-21.547zM657.963 362.411c15.262 24.342 24.421 53.867 24.703 85.513l0.001 0.077c0 92.501-78.165 170.667-170.667 170.667-31.104 0-60.245-9.387-85.632-24.704l-88.704 88.704 106.667 106.667h135.339l115.499-115.499c7.696-7.723 18.342-12.501 30.104-12.501 0.022 0 0.043 0 0.065 0l127.997 0.043v-469.376h-25.003l-170.368 170.411z" fill="currentColor" />
  </g>
</svg>
