<?xml version="1.0" encoding="utf-8"?>
<svg xmlns="http://www.w3.org/2000/svg" viewBox="0 0 1024 1024" width="24" height="24">
  <g transform="scale(1, -1) translate(0, -960)">
    <path d="M810.667 789.333h-85.333v85.333h-85.333v-85.333h-256v85.333h-85.333v-85.333h-85.333c-47.061 0-85.333-38.272-85.333-85.333v-597.333c0-47.061 38.272-85.333 85.333-85.333h597.333c47.061 0 85.333 38.272 85.333 85.333v597.333c0 47.061-38.272 85.333-85.333 85.333zM810.752 106.667h-597.419v512h597.333l0.085-512zM469.333 217.003l243.499 243.499-60.331 60.331-183.168-183.168-97.835 97.835-60.331-60.331z" fill="currentColor" />
  </g>
</svg>
