<?xml version="1.0" encoding="utf-8"?>
<svg xmlns="http://www.w3.org/2000/svg" viewBox="0 0 1024 1024" width="24" height="24">
  <g transform="scale(1, -1) translate(0, -960)">
    <path d="M256 149.333h42.667v-128h85.333v128h42.667c23.564 0 42.667 19.103 42.667 42.667v0 512c0 23.564-19.103 42.667-42.667 42.667v0h-42.667v128h-85.333v-128h-42.667c-23.564 0-42.667-19.103-42.667-42.667v0-512c0-23.564 19.103-42.667 42.667-42.667v0zM298.667 661.333h85.333v-426.667h-85.333zM597.333 234.667h42.667v-128h85.333v128h42.667c23.564 0 42.667 19.103 42.667 42.667v0 341.333c0 23.564-19.103 42.667-42.667 42.667v0h-42.667v128h-85.333v-128h-42.667c-23.564 0-42.667-19.103-42.667-42.667v0-341.333c0-23.564 19.103-42.667 42.667-42.667v0zM640 576h85.333v-256h-85.333z" fill="currentColor" />
  </g>
</svg>
