<?xml version="1.0" encoding="utf-8"?>
<svg xmlns="http://www.w3.org/2000/svg" viewBox="0 0 1024 1024" width="24" height="24">
  <g transform="scale(1, -1) translate(0, -960)">
    <path d="M469.333 63.957h85.333c0 258.816-210.56 469.376-469.333 469.376v-85.333c211.712 0 384-172.288 384-384.043zM298.667 63.957h85.333c0 164.693-133.973 298.709-298.667 298.709v-85.333c117.632 0 213.333-95.701 213.333-213.376zM213.333 128c0-35.346-28.654-64-64-64s-64 28.654-64 64c0 35.346 28.654 64 64 64s64-28.654 64-64zM853.333 789.333h-682.667c-47.061 0-85.333-38.272-85.333-85.333v-87.552c29.013-1.067 57.557-4.011 85.333-9.259v96.811h682.667v-554.667h-224.811c5.248-27.776 8.149-56.32 9.259-85.333h215.552c47.061 0 85.333 38.272 85.333 85.333v554.667c0 47.061-38.272 85.333-85.333 85.333z" fill="currentColor" />
  </g>
</svg>
