<?xml version="1.0" encoding="utf-8"?>
<svg xmlns="http://www.w3.org/2000/svg" viewBox="0 0 1024 1024" width="24" height="24">
  <g transform="scale(1, -1) translate(0, -960)">
    <path d="M213.333 874.667h85.333v-128h-85.333zM384 874.667h85.333v-128h-85.333zM554.667 874.667h85.333v-128h-85.333zM810.667 576h-85.333v85.333h-597.333v-469.333c0-70.571 57.429-128 128-128h341.333c70.571 0 128 57.429 128 128h85.333c47.061 0 85.333 38.272 85.333 85.333v213.333c0 47.061-38.272 85.333-85.333 85.333zM640 192c0-23.564-19.103-42.667-42.667-42.667v0h-341.333c-23.564 0-42.667 19.103-42.667 42.667v0 384h426.667v-384zM725.333 277.333v213.333h85.333l0.085-213.333h-85.419z" fill="currentColor" />
  </g>
</svg>
