<?xml version="1.0" encoding="utf-8"?>
<svg xmlns="http://www.w3.org/2000/svg" viewBox="0 0 1024 1024" width="24" height="24">
  <g transform="scale(1, -1) translate(0, -960)">
    <path d="M512 704c-212.053 0-426.667-65.963-426.667-192v-170.667c0-126.037 214.613-192 426.667-192s426.667 65.963 426.667 192v170.667c0 126.037-214.613 192-426.667 192zM170.667 341.333v51.072c24.399-14.119 52.659-26.575 82.314-35.877l3.019-0.817v-80.256c-55.979 21.931-85.333 48.043-85.333 65.877zM682.667 335.019v-84.096c-36.992-7.637-79.659-13.227-128-15.275v85.333c46.698 1.903 90.734 6.93 133.729 14.922l-5.729-0.885zM469.333 235.605c-46.473 1.824-90.459 7.299-133.199 16.178l5.199-0.903v84.096c40.917-7.424 84.139-12.245 128-14.080v-85.291zM768 275.456v80.256c32.666 10.094 60.927 22.551 87.388 37.784l-2.055-1.091v-51.072c0-17.835-29.312-43.947-85.333-65.877zM512 405.333c-220.885 0-341.333 70.443-341.333 106.667s120.448 106.667 341.333 106.667 341.333-70.443 341.333-106.667-120.448-106.667-341.333-106.667z" fill="currentColor" />
  </g>
</svg>
