<?xml version="1.0" encoding="utf-8"?>
<svg xmlns="http://www.w3.org/2000/svg" viewBox="0 0 1024 1024" width="24" height="24">
  <g transform="scale(1, -1) translate(0, -960)">
    <path d="M682.667 448c0-94.257-76.41-170.667-170.667-170.667s-170.667 76.41-170.667 170.667c0 94.257 76.41 170.667 170.667 170.667s170.667-76.41 170.667-170.667zM554.667 786.389v88.277h-85.333v-88.277c-154.474-20.284-275.439-141.249-295.537-293.991l-0.186-1.731h-88.277v-85.333h88.277c20.255-154.488 141.235-275.468 293.993-295.537l1.73-0.186v-88.277h85.333v88.277c154.495 20.24 275.483 141.228 295.537 293.995l0.185 1.728h88.277v85.333h-88.277c-20.255 154.488-141.235 275.468-293.993 295.537l-1.73 0.186zM512 192c-141.184 0-256 114.816-256 256s114.816 256 256 256 256-114.816 256-256-114.816-256-256-256z" fill="currentColor" />
  </g>
</svg>
