<?xml version="1.0" encoding="utf-8"?>
<svg xmlns="http://www.w3.org/2000/svg" viewBox="0 0 1024 1024" width="24" height="24">
  <g transform="scale(1, -1) translate(0, -960)">
    <path d="M85.333 543.573l384 104.533v-114.773h-170.667c-47.128 0-85.333-38.205-85.333-85.333v0-341.333c0-47.128 38.205-85.333 85.333-85.333v0h426.667c47.128 0 85.333 38.205 85.333 85.333v0 341.333c0 47.128-38.205 85.333-85.333 85.333v0h-170.667v138.24l384 104.533v88.32l-853.333-232.533zM469.333 448v-128h-170.667v128zM725.333 448v-341.333h-426.667v128h426.667v85.333h-170.667v128z" fill="currentColor" />
  </g>
</svg>
