<?xml version="1.0" encoding="utf-8"?>
<svg xmlns="http://www.w3.org/2000/svg" viewBox="0 0 1024 1024" width="24" height="24">
  <g transform="scale(1, -1) translate(0, -960)">
    <path d="M512 874.667h-42.667v-384h-384v-42.667c0.052-235.602 191.057-426.576 426.667-426.576 117.798 0 224.446 47.738 301.654 124.923l-0.001-0.001c77.184 77.207 124.922 183.855 124.922 301.653 0 235.609-190.973 426.614-426.57 426.667h-0.006zM753.493 206.507c-61.79-61.894-147.207-100.183-241.567-100.183-173.594 0-316.921 129.588-338.52 297.304l-0.179 1.705h381.44v381.44c169.421-21.778 299.009-165.105 299.009-338.699 0-94.36-38.289-179.778-100.178-241.563l-0.005-0.005z" fill="currentColor" />
  </g>
</svg>
