<?xml version="1.0" encoding="utf-8"?>
<svg xmlns="http://www.w3.org/2000/svg" viewBox="0 0 1024 1024" width="24" height="24">
  <g transform="scale(1, -1) translate(0, -960)">
    <path d="M554.667 149.333v170.667h128l-170.667 213.333-170.667-213.333h128v-170.667zM298.667 149.333h85.333v85.333h-85.333c-70.571 0-128 57.429-128 128 0 59.904 51.157 117.589 114.048 128.64l24.789 4.352 8.192 23.808c29.995 87.509 104.491 141.867 194.304 141.867 117.632 0 213.333-95.701 213.333-213.333v-42.667h42.667c47.061 0 85.333-38.272 85.333-85.333s-38.272-85.333-85.333-85.333h-128v-85.333h128c94.123 0 170.667 76.544 170.667 170.667-0.141 79.922-55.060 146.978-129.209 165.636l-1.181 0.252c-18.645 146.859-144.384 260.779-296.277 260.779-117.589 0-219.733-68.736-266.368-177.067-91.648-27.392-160.299-113.92-160.299-206.933 0-117.632 95.701-213.333 213.333-213.333z" fill="currentColor" />
  </g>
</svg>
