<?xml version="1.0" encoding="utf-8"?>
<svg xmlns="http://www.w3.org/2000/svg" viewBox="0 0 1024 1024" width="24" height="24">
  <g transform="scale(1, -1) translate(0, -960)">
    <path d="M512 21.333c169.643 0 341.333 58.624 341.333 170.667v512c0 112.043-171.691 170.667-341.333 170.667s-341.333-58.624-341.333-170.667v-512c0-112.043 171.691-170.667 341.333-170.667zM512 106.667c-158.805 0-256 55.253-256 85.333v54.101c65.749-35.755 161.152-54.101 256-54.101s190.251 18.347 256 54.101v-54.101c0-30.080-97.195-85.333-256-85.333zM512 789.333c158.805 0 256-55.253 256-85.333s-97.195-85.333-256-85.333-256 55.253-256 85.333 97.195 85.333 256 85.333zM256 587.435c65.749-35.755 161.152-54.101 256-54.101s190.251 18.347 256 54.101v-54.101c0-30.080-97.195-85.333-256-85.333s-256 55.253-256 85.333v54.101zM256 416.768c65.749-35.755 161.152-54.101 256-54.101s190.251 18.347 256 54.101v-54.101c0-30.080-97.195-85.333-256-85.333s-256 55.253-256 85.333v54.101z" fill="currentColor" />
  </g>
</svg>
