<?xml version="1.0" encoding="utf-8"?>
<svg xmlns="http://www.w3.org/2000/svg" viewBox="0 0 1024 1024" width="24" height="24">
  <g transform="scale(1, -1) translate(0, -960)">
    <path d="M512 21.333c218.923 0 384 82.56 384 192v448h-2.261c1.408 6.997 2.261 14.080 2.261 21.333 0 109.44-165.077 192-384 192-204.416 0-361.813-72.021-381.739-170.667h-2.261v-490.667c0-109.44 165.077-192 384-192zM512 106.667c-182.315 0-298.667 63.147-298.667 106.667v345.856c69.248-42.368 175.403-68.523 298.667-68.523s229.419 26.155 298.667 68.523v-345.856c0-43.52-116.352-106.667-298.667-106.667zM512 789.333c182.315 0 298.667-63.147 298.667-106.667s-116.352-106.667-298.667-106.667-298.667 63.147-298.667 106.667 116.352 106.667 298.667 106.667z" fill="currentColor" />
  </g>
</svg>
