<?xml version="1.0" encoding="utf-8"?>
<svg xmlns="http://www.w3.org/2000/svg" viewBox="0 0 1024 1024" width="24" height="24">
  <g transform="scale(1, -1) translate(0, -960)">
    <path d="M597.333 704c0-47.128-38.205-85.333-85.333-85.333s-85.333 38.205-85.333 85.333c0 47.128 38.205 85.333 85.333 85.333s85.333-38.205 85.333-85.333zM597.333 576h-170.667c-13.911 0-26.267-6.657-34.056-16.959l-0.078-0.107-128-170.667 68.267-51.2 51.2 68.267v-298.667h85.333v170.667h85.333v-170.667h85.333v298.667l51.2-68.267 68.267 51.2-128 170.667c-7.867 10.41-20.223 17.067-34.133 17.067v0z" fill="currentColor" />
  </g>
</svg>
