<?xml version="1.0" encoding="utf-8"?>
<svg xmlns="http://www.w3.org/2000/svg" viewBox="0 0 1024 1024" width="24" height="24">
  <g transform="scale(1, -1) translate(0, -960)">
    <path d="M256 533.333v-170.667c0-47.061 38.272-85.333 85.333-85.333h128v85.333h-128v170.667h128v85.333h-128c-47.061 0-85.333-38.272-85.333-85.333zM554.667 533.333v-170.667c0-47.061 38.272-85.333 85.333-85.333h128v85.333h-128v170.667h128v85.333h-128c-47.061 0-85.333-38.272-85.333-85.333zM853.333 789.333h-682.667c-47.061 0-85.333-38.272-85.333-85.333v-512c0-47.061 38.272-85.333 85.333-85.333h682.667c47.061 0 85.333 38.272 85.333 85.333v512c0 47.061-38.272 85.333-85.333 85.333zM170.667 192v512h682.667l0.085-512h-682.752z" fill="currentColor" />
  </g>
</svg>
