<?xml version="1.0" encoding="utf-8"?>
<svg xmlns="http://www.w3.org/2000/svg" viewBox="0 0 1024 1024" width="24" height="24">
  <g transform="scale(1, -1) translate(0, -960)">
    <path d="M341.333 405.333h85.333v-128h-85.333zM341.333 234.667h85.333v-128h-85.333zM469.333 320h85.333v-128h-85.333zM469.333 149.333h85.333v-128h-85.333zM597.333 405.333h85.333v-128h-85.333zM597.333 234.667h85.333v-128h-85.333zM808.277 528.555c-18.645 146.859-144.384 260.779-296.277 260.779-117.547 0-219.733-68.736-266.368-177.067-91.648-27.392-160.299-113.877-160.299-206.933 0-117.632 95.701-213.333 213.333-213.333v85.333c-70.571 0-128 57.429-128 128 0 59.861 51.157 117.589 114.048 128.64l24.832 4.395 8.149 23.851c29.995 87.467 104.491 141.781 194.304 141.781 117.632 0 213.333-95.701 213.333-213.333v-42.667h42.667c47.061 0 85.333-38.272 85.333-85.333s-38.272-85.333-85.333-85.333h-42.667v-85.333h42.667c94.123 0 170.667 76.544 170.667 170.667-0.109 79.933-55.043 147.006-129.21 165.637l-1.18 0.251z" fill="currentColor" />
  </g>
</svg>
