<?xml version="1.0" encoding="utf-8"?>
<svg xmlns="http://www.w3.org/2000/svg" viewBox="0 0 1024 1024" width="24" height="24">
  <g transform="scale(1, -1) translate(0, -960)">
    <path d="M383.957 100.992c0.162 0 0.354-0.001 0.545-0.001 58.749 0 111.917 23.896 150.315 62.498l304.393 304.35c38.533 38.638 62.359 91.961 62.359 150.848 0 58.908-23.843 112.248-62.405 150.895l0.004-0.004c-40.32 40.235-93.909 62.421-150.869 62.421s-110.549-22.187-150.784-62.464l-304.384-304.384c-38.525-38.65-62.345-91.978-62.345-150.869s23.82-112.219 62.351-150.875l-0.005 0.005c38.405-38.561 91.544-62.422 150.257-62.422 0.2 0 0.401 0 0.601 0.001h-0.031zM597.845 709.205c23.024 23.141 54.894 37.462 90.109 37.462 0.121 0 0.242 0 0.363-0.001h-0.019c34.219 0 66.389-13.355 90.539-37.461 23.14-23.185 37.449-55.191 37.449-90.539 0-35.327-14.292-67.315-37.409-90.499l-123.432-123.389-180.992 181.035 123.392 123.392zM293.461 404.821l120.661 120.661 180.992-181.035-120.619-120.619c-48.341-48.341-132.693-48.299-181.035-0.043-23.117 23.188-37.41 55.183-37.41 90.517s14.293 67.33 37.413 90.521l-0.003-0.003z" fill="currentColor" />
  </g>
</svg>
