<?xml version="1.0" encoding="utf-8"?>
<svg xmlns="http://www.w3.org/2000/svg" viewBox="0 0 1024 1024" width="24" height="24">
  <g transform="scale(1, -1) translate(0, -960)">
    <path d="M810.667 746.667h-256v128h-85.333v-128h-256c-70.571 0-128-57.429-128-128v-426.667c0-47.061 38.272-85.333 85.333-85.333h682.667c47.061 0 85.333 38.272 85.333 85.333v426.667c0 70.571-57.429 128-128 128zM213.333 661.333h597.333c23.564 0 42.667-19.103 42.667-42.667v0l0.043-133.12c-38.229-9.728-62.677-31.317-81.749-48.299-21.632-19.2-35.925-31.915-67.755-31.915-31.787 0-46.080 12.715-67.712 31.872-25.387 22.571-60.117 53.461-124.373 53.461-64.213 0-98.944-30.891-124.331-53.461-21.632-19.2-35.883-31.872-67.669-31.872-31.701 0-45.952 12.672-67.499 31.872-19.072 16.981-43.435 38.613-81.621 48.341v133.12c0 23.564 19.103 42.667 42.667 42.667v0zM170.667 192v201.131c8.149-5.248 15.957-11.691 24.875-19.669 25.387-22.571 60.075-53.461 124.245-53.461 64.213 0 98.944 30.891 124.331 53.461 21.632 19.2 35.883 31.872 67.669 31.872s46.080-12.715 67.712-31.872c25.387-22.571 60.117-53.461 124.373-53.461s99.029 30.891 124.416 53.461c9.003 8.021 16.853 14.507 25.088 19.797l0.043-201.259h-682.752z" fill="currentColor" />
  </g>
</svg>
