<?xml version="1.0" encoding="utf-8"?>
<svg xmlns="http://www.w3.org/2000/svg" viewBox="0 0 1024 1024" width="24" height="24">
  <g transform="scale(1, -1) translate(0, -960)">
    <path d="M542.165 862.165c-7.716 7.729-18.382 12.51-30.165 12.51s-22.449-4.781-30.165-12.509l-384.001-384.001c-7.718-7.721-12.492-18.386-12.492-30.165 0-23.561 19.097-42.661 42.657-42.667h42.667v-298.667c0-47.061 38.272-85.333 85.333-85.333h512c47.061 0 85.333 38.272 85.333 85.333v298.667h42.667c0.028 0 0.061 0 0.094 0 23.541 0 42.624 19.083 42.624 42.624 0 11.804-4.798 22.488-12.551 30.207l-384.002 384.002zM768.043 106.667h-512.043v409.003l256 256 256-256v-195.669l0.043-213.333zM554.667 533.333h-85.333v-128h-128v-85.333h128v-128h85.333v128h128v85.333h-128z" fill="currentColor" />
  </g>
</svg>
