<?xml version="1.0" encoding="utf-8"?>
<svg xmlns="http://www.w3.org/2000/svg" viewBox="0 0 1024 1024" width="24" height="24">
  <g transform="scale(1, -1) translate(0, -960)">
    <path d="M256 362.667c-94.123 0-170.667-76.544-170.667-170.667s76.544-170.667 170.667-170.667c93.892 0.119 170.025 75.983 170.581 169.76v0.053h0.085v86.187h170.667v-86.997h0.171c0.988-93.462 76.913-168.863 170.482-169.003h0.014c94.123 0 170.667 76.544 170.667 170.667s-76.544 170.667-170.667 170.667h-85.333v170.667h85.333c94.123 0 170.667 76.544 170.667 170.667s-76.544 170.667-170.667 170.667-170.667-76.544-170.667-170.667v-85.333h-170.667v86.187h-0.085c-0.556 93.831-76.69 169.694-170.57 169.813h-0.011c-94.123 0-170.667-76.544-170.667-170.667s76.544-170.667 170.667-170.667h85.333v-170.667h-85.333zM341.333 192c0-47.872-37.504-85.333-85.333-85.333s-85.333 37.461-85.333 85.333 37.504 85.333 85.333 85.333h85.333v-85.333zM768 277.333c47.829 0 85.333-37.461 85.333-85.333s-37.504-85.333-85.333-85.333-85.333 37.461-85.333 85.333v85.333h85.333zM682.667 704c0 47.872 37.504 85.333 85.333 85.333s85.333-37.461 85.333-85.333-37.504-85.333-85.333-85.333h-85.333v85.333zM256 618.667c-47.829 0-85.333 37.461-85.333 85.333s37.504 85.333 85.333 85.333 85.333-37.461 85.333-85.333v-85.333h-85.333zM426.667 533.333h170.667v-170.667h-170.667v170.667z" fill="currentColor" />
  </g>
</svg>
