<?xml version="1.0" encoding="utf-8"?>
<svg xmlns="http://www.w3.org/2000/svg" viewBox="0 0 1024 1024" width="24" height="24">
  <g transform="scale(1, -1) translate(0, -960)">
    <path d="M810.667 405.333v384c0 47.061-38.272 85.333-85.333 85.333h-426.667c-47.061 0-85.333-38.272-85.333-85.333v-384c-23.564 0-42.667-19.103-42.667-42.667v0-341.333h85.333v213.333h512v-213.333h85.333v341.333c0 23.564-19.103 42.667-42.667 42.667v0zM725.333 789.333v-384h-85.333v384h85.333zM554.667 789.333v-384h-85.333v384h85.333zM298.667 789.333h85.333v-384h-85.333v384z" fill="currentColor" />
  </g>
</svg>
