<?xml version="1.0" encoding="utf-8"?>
<svg xmlns="http://www.w3.org/2000/svg" viewBox="0 0 1024 1024" width="24" height="24">
  <g transform="scale(1, -1) translate(0, -960)">
    <path d="M853.333 832h-682.667c-47.061 0-85.333-38.272-85.333-85.333v-469.333c0-47.061 38.272-85.333 85.333-85.333h170.667l-76.8-102.4 68.267-51.2 115.2 153.6h128l115.2-153.6 68.267 51.2-76.8 102.4h170.667c47.061 0 85.333 38.272 85.333 85.333v469.333c0 47.061-38.272 85.333-85.333 85.333zM170.667 277.333v469.333h682.667l0.043-469.333h-682.709zM256 448h170.667v-85.333h-170.667z" fill="currentColor" />
  </g>
</svg>
