<?xml version="1.0" encoding="utf-8"?>
<svg xmlns="http://www.w3.org/2000/svg" viewBox="0 0 1024 1024" width="24" height="24">
  <g transform="scale(1, -1) translate(0, -960)">
    <path d="M896 789.333c0 47.061-38.272 85.333-85.333 85.333h-597.333c-47.061 0-85.333-38.272-85.333-85.333v-682.667c0-47.061 38.272-85.333 85.333-85.333h597.333c47.061 0 85.333 38.272 85.333 85.333v682.667zM213.333 789.333h597.333v-298.667h-597.333v298.667zM213.333 106.667v298.667h597.376v-298.667h-597.376zM597.333 661.333h-170.667v42.667h-85.333v-128h341.333v128h-85.333zM597.333 320v-42.667h-170.667v42.667h-85.333v-128h341.333v128z" fill="currentColor" />
  </g>
</svg>
