<?xml version="1.0" encoding="utf-8"?>
<svg xmlns="http://www.w3.org/2000/svg" viewBox="0 0 1024 1024" width="24" height="24">
  <g transform="scale(1, -1) translate(0, -960)">
    <path d="M170.667 149.333h85.333c0-47.061 38.272-85.333 85.333-85.333h341.333c47.061 0 85.333 38.272 85.333 85.333h85.333c47.061 0 85.333 38.272 85.333 85.333v426.667c0 47.061-38.272 85.333-85.333 85.333h-85.333c0 47.061-38.272 85.333-85.333 85.333h-341.333c-47.061 0-85.333-38.272-85.333-85.333h-85.333c-47.061 0-85.333-38.272-85.333-85.333v-426.667c0-47.061 38.272-85.333 85.333-85.333zM853.333 661.333v-426.667h-85.333v426.667h85.333zM341.333 746.667h341.333l0.043-597.333h-341.376v597.333zM170.667 661.333h85.333v-426.667h-85.333v426.667z" fill="currentColor" />
  </g>
</svg>
