<?xml version="1.0" encoding="utf-8"?>
<svg xmlns="http://www.w3.org/2000/svg" viewBox="0 0 1024 1024" width="24" height="24">
  <g transform="scale(1, -1) translate(0, -960)">
    <path d="M512 21.333c231.296 0 426.667 195.371 426.667 426.667s-195.371 426.667-426.667 426.667-426.667-195.371-426.667-426.667 195.371-426.667 426.667-426.667zM512 789.333c185.045 0 341.333-156.288 341.333-341.333s-156.288-341.333-341.333-341.333-341.333 156.288-341.333 341.333 156.288 341.333 341.333 341.333zM512 234.667c38.443 0 110.123 7.168 158.165 55.125l-60.331 60.416c-18.901-18.901-55.509-30.208-97.835-30.208-69.376 0-128 58.624-128 128s58.624 128 128 128c42.368 0 78.976-11.307 97.835-30.165l60.331 60.331c-48 48-119.723 55.168-158.165 55.168-117.632 0-213.333-95.701-213.333-213.333s95.701-213.333 213.333-213.333z" fill="currentColor" />
  </g>
</svg>
