<?xml version="1.0" encoding="utf-8"?>
<svg xmlns="http://www.w3.org/2000/svg" viewBox="0 0 1024 1024" width="24" height="24">
  <g transform="scale(1, -1) translate(0, -960)">
    <path d="M773.333 874.667h-522.667c-44.163-0.049-79.951-35.837-80-79.995v-522.672c0-44.117 35.883-80 80-80h218.667v-85.333h-170.667v-85.333h426.667v85.333h-170.667v85.333h218.667c44.163 0.049 79.951 35.837 80 79.995v522.672c-0.049 44.163-35.837 79.951-79.995 80h-0.005zM768 277.333h-512v512h512v-512zM512 362.667c94.123 0 170.667 76.544 170.667 170.667s-76.544 170.667-170.667 170.667-170.667-76.544-170.667-170.667 76.544-170.667 170.667-170.667zM512 618.667c47.061 0 85.333-38.272 85.333-85.333s-38.272-85.333-85.333-85.333-85.333 38.272-85.333 85.333 38.272 85.333 85.333 85.333z" fill="currentColor" />
  </g>
</svg>
