<?xml version="1.0" encoding="utf-8"?>
<svg xmlns="http://www.w3.org/2000/svg" viewBox="0 0 1024 1024" width="24" height="24">
  <g transform="scale(1, -1) translate(0, -960)">
    <path d="M426.667 682.667c0 82.347-66.987 149.333-149.333 149.333s-149.333-66.987-149.333-149.333 66.987-149.333 149.333-149.333c25.239 0.181 48.92 6.686 69.588 18.006l-0.766-0.385 100.565-107.861-98.901-98.901c-20.323 11.462-44.587 18.288-70.43 18.474h-0.055c-82.347 0-149.333-66.987-149.333-149.333s66.987-149.333 149.333-149.333 149.333 66.987 149.333 149.333c0 25.643-7.083 49.408-18.517 70.485l96.811 96.768 220.373-236.416c23.158-23.165 55.153-37.496 90.494-37.504h122.839l-539.733 489.899c17.323 24.405 27.733 53.973 27.733 86.101zM277.333 618.667c-35.285 0-64 28.715-64 64s28.715 64 64 64 64-28.715 64-64-28.715-64-64-64zM277.333 149.333c-35.285 0-64 28.715-64 64s28.715 64 64 64 64-28.715 64-64-28.715-64-64-64zM725.333 751.829l-158.165-188.331 60.331-60.331 311.168 286.165h-122.837c-35.343-0.008-67.337-14.339-90.496-37.504v0z" fill="currentColor" />
  </g>
</svg>
