<?xml version="1.0" encoding="utf-8"?>
<svg xmlns="http://www.w3.org/2000/svg" viewBox="0 0 1024 1024" width="24" height="24">
  <g transform="scale(1, -1) translate(0, -960)">
    <path d="M554.667 509.824v28.928c74.154 19.692 127.922 86.18 128 165.239v0.009c0 94.123-76.544 170.667-170.667 170.667s-170.667-76.544-170.667-170.667h85.333c0 47.061 38.272 85.333 85.333 85.333s85.333-38.272 85.333-85.333-38.272-85.333-85.333-85.333c-23.564 0-42.667-19.103-42.667-42.667v0-66.176l-369.707-328.619c-8.752-7.854-14.232-19.202-14.232-31.829 0-23.551 19.062-42.65 42.599-42.709h768.006c23.545 0.056 42.61 19.156 42.61 42.709 0 12.65-5.5 24.016-14.239 31.836l-0.041 0.036-369.664 328.576zM240.213 192l271.787 241.579 271.787-241.579h-543.573z" fill="currentColor" />
  </g>
</svg>
