<?xml version="1.0" encoding="utf-8"?>
<svg xmlns="http://www.w3.org/2000/svg" viewBox="0 0 1024 1024" width="24" height="24">
  <g transform="scale(1, -1) translate(0, -960)">
    <path d="M384 576h256v-256h-256zM853.333 704c0 47.061-38.272 85.333-85.333 85.333h-85.333v85.333h-85.333v-85.333h-170.667v85.333h-85.333v-85.333h-85.333c-47.061 0-85.333-38.272-85.333-85.333v-85.333h-85.333v-85.333h85.333v-170.667h-85.333v-85.333h85.333v-85.333c0-47.061 38.272-85.333 85.333-85.333h85.333v-85.333h85.333v85.333h170.667v-85.333h85.333v85.333h85.333c47.061 0 85.333 38.272 85.333 85.333v85.333h85.333v85.333h-85.333v170.667h85.333v85.333h-85.333v85.333zM256 192v512h512l0.085-512h-512.085z" fill="currentColor" />
  </g>
</svg>
