<?xml version="1.0" encoding="utf-8"?>
<svg xmlns="http://www.w3.org/2000/svg" viewBox="0 0 1024 1024" width="24" height="24">
  <g transform="scale(1, -1) translate(0, -960)">
    <path d="M213.333 192v-160.683l267.819 160.683h201.515c47.061 0 85.333 38.272 85.333 85.333v341.333c0 47.061-38.272 85.333-85.333 85.333h-512c-47.061 0-85.333-38.272-85.333-85.333v-341.333c0-47.061 38.272-85.333 85.333-85.333h42.667zM170.667 618.667h512v-341.333h-225.152l-158.848-95.317v95.317h-128v341.333zM853.333 874.667h-512c-47.061 0-85.333-38.272-85.333-85.333h512c47.061 0 85.333-38.272 85.333-85.333v-341.333c47.061 0 85.333 38.272 85.333 85.333v341.333c0 47.061-38.272 85.333-85.333 85.333z" fill="currentColor" />
  </g>
</svg>
