<?xml version="1.0" encoding="utf-8"?>
<svg xmlns="http://www.w3.org/2000/svg" viewBox="0 0 1024 1024" width="24" height="24">
  <g transform="scale(1, -1) translate(0, -960)">
    <path d="M763.52 808.405c-7.17 14.1-21.57 23.592-38.186 23.595h-426.667c-16.171 0-30.933-9.131-38.187-23.595l-170.667-341.333c-2.844-5.562-4.511-12.133-4.511-19.093s1.667-13.531 4.622-19.335l-0.112 0.242 170.667-341.333c7.253-14.421 22.016-23.552 38.187-23.552h426.667c16.171 0 30.933 9.131 38.187 23.595l170.667 341.333c2.844 5.562 4.511 12.133 4.511 19.093s-1.667 13.531-4.622 19.335l0.112-0.242-170.667 341.291zM826.965 490.667h-331.264l-128 256h331.264l128-256zM175.701 448l122.965 245.931 122.965-245.931-122.965-245.931-122.965 245.931zM698.965 149.333h-331.264l128 256h331.264l-128-256z" fill="currentColor" />
  </g>
</svg>
