<?xml version="1.0" encoding="utf-8"?>
<svg xmlns="http://www.w3.org/2000/svg" viewBox="0 0 1024 1024" width="24" height="24">
  <g transform="scale(1, -1) translate(0, -960)">
    <path d="M512 128c0-35.346-28.654-64-64-64s-64 28.654-64 64c0 35.346 28.654 64 64 64s64-28.654 64-64zM810.667 128c0-35.346-28.654-64-64-64s-64 28.654-64 64c0 35.346 28.654 64 64 64s64-28.654 64-64zM554.667 405.333h85.333v127.573h127.573v85.333h-127.573v127.147h-85.333v-127.147h-127.573v-85.333h127.573v-127.573zM426.667 234.667h341.333c17.989 0.055 33.354 11.234 39.579 27.017l0.101 0.289 120.747 314.027h-91.307l-98.56-256h-283.307l-191.573 459.52c-13.212 31.081-43.485 52.48-78.756 52.48-0.062 0-0.125 0-0.187 0h-99.403v-85.333h99.413l202.667-485.547c6.527-15.59 21.621-26.363 39.242-26.453h0.012z" fill="currentColor" />
  </g>
</svg>
