<?xml version="1.0" encoding="utf-8"?>
<svg xmlns="http://www.w3.org/2000/svg" viewBox="0 0 1024 1024" width="24" height="24">
  <g transform="scale(1, -1) translate(0, -960)">
    <path d="M469.333 302.336v-195.669h85.333v195.669c0 22.443-9.131 44.459-25.003 60.331l-85.333 85.333 110.336 110.336 85.333-85.333c15.872-15.872 37.888-25.003 60.331-25.003h153.003v85.333h-153.003l-158.165 158.165c-7.716 7.729-18.382 12.51-30.165 12.51s-22.449-4.781-30.165-12.509l-140.502-140.502c-16.128-16.128-25.003-37.547-25.003-60.331s8.875-44.203 25.003-60.331l128-128zM768 746.667c0-47.128-38.205-85.333-85.333-85.333s-85.333 38.205-85.333 85.333c0 47.128 38.205 85.333 85.333 85.333s85.333-38.205 85.333-85.333zM768 362.667c-94.123 0-170.667-76.544-170.667-170.667s76.544-170.667 170.667-170.667 170.667 76.544 170.667 170.667-76.544 170.667-170.667 170.667zM768 106.667c-47.061 0-85.333 38.272-85.333 85.333s38.272 85.333 85.333 85.333 85.333-38.272 85.333-85.333-38.272-85.333-85.333-85.333zM256 21.333c94.123 0 170.667 76.544 170.667 170.667s-76.544 170.667-170.667 170.667-170.667-76.544-170.667-170.667 76.544-170.667 170.667-170.667zM256 277.333c47.061 0 85.333-38.272 85.333-85.333s-38.272-85.333-85.333-85.333-85.333 38.272-85.333 85.333 38.272 85.333 85.333 85.333z" fill="currentColor" />
  </g>
</svg>
