<?xml version="1.0" encoding="utf-8"?>
<svg xmlns="http://www.w3.org/2000/svg" viewBox="0 0 1024 1024" width="24" height="24">
  <g transform="scale(1, -1) translate(0, -960)">
    <path d="M813.653 749.653c-76.649 74.104-181.197 119.77-296.41 119.77-235.641 0-426.667-191.025-426.667-426.667 0-115.214 45.666-219.761 119.885-296.53l-0.115 0.12c76.649-74.104 181.197-119.77 296.41-119.77 235.641 0 426.667 191.025 426.667 426.667 0 115.214-45.666 219.761-119.885 296.53l0.115-0.12zM270.507 689.493c61.774 61.799 147.128 100.024 241.409 100.024 48.112 0 93.9-9.954 135.415-27.916l-2.211 0.851-12.373-12.8 30.293-30.293 22.187 22.613c13.892-8.42 25.585-16.443 36.817-25.038l-0.977 0.718-478.72-478.72c-7.877 10.255-15.9 21.948-23.307 34.058l-1.013 1.782 22.613 22.187-30.293 30.293-12.373-12.373c-17.19 39.386-27.191 85.277-27.191 133.504 0 94.133 38.105 179.365 99.731 241.115l-0.006-0.006zM753.493 206.507c-61.774-61.799-147.128-100.024-241.409-100.024-48.112 0-93.9 9.954-135.415 27.916l2.211-0.851 12.373 12.8-30.293 30.293-22.187-22.613c-13.892 8.42-25.585 16.443-36.817 25.038l0.977-0.718 478.72 478.72c7.877-10.255 15.9-21.948 23.307-34.058l1.013-1.782-22.613-22.187 30.293-30.293 12.373 12.373c17.19-39.386 27.191-85.277 27.191-133.504 0-94.133-38.105-179.365-99.731-241.115l0.006 0.006zM481.707 296.96l30.293-29.867-60.16-60.587-30.293 28.16zM602.453 417.707l30.293-29.867-60.587-60.587-29.867 30.293zM725.333 538.453l30.293-30.293-62.72-60.16-29.867 30.293zM542.293 599.040l-30.293 29.867 60.16 60.587 30.293-30.293zM421.547 478.293l-30.293 29.867 60.587 60.587 29.867-30.293zM300.8 357.547l-30.293 30.293 60.587 60.16 29.867-30.293z" fill="currentColor" />
  </g>
</svg>
