<?xml version="1.0" encoding="utf-8"?>
<svg xmlns="http://www.w3.org/2000/svg" viewBox="0 0 1024 1024" width="24" height="24">
  <g transform="scale(1, -1) translate(0, -960)">
    <path d="M886.272 526.677l-58.368 175.147c-17.402 51.271-65.105 87.509-121.273 87.509-0.040 0-0.080 0-0.12 0h-389.028c-0.034 0-0.074 0-0.114 0-56.168 0-103.872-36.238-121.007-86.609l-0.266-0.9-58.368-175.147c-31.001-13.254-52.34-43.467-52.395-78.67v-213.34c0-32.128 18.048-59.819 44.331-74.368-0.555-2.816-1.664-5.376-1.664-8.32v-87.979c0-23.564 19.103-42.667 42.667-42.667v0h42.667c23.564 0 42.667 19.103 42.667 42.667v0 85.333h512v-85.333c0-23.564 19.103-42.667 42.667-42.667v0h42.667c23.564 0 42.667 19.103 42.667 42.667v0 87.979c0 2.944-1.109 5.547-1.664 8.32 26.527 14.672 44.217 42.441 44.331 74.352v213.349c0 35.371-21.675 65.749-52.395 78.677zM170.667 234.667v213.333h682.667l0.085-213.333h-682.752zM317.483 704h388.992c18.389 0 34.688-11.691 40.491-29.184l47.189-141.483h-564.309l47.147 141.483c5.82 17.101 21.739 29.184 40.48 29.184 0.004 0 0.007 0 0.011 0h-0.001zM341.333 341.333c0-35.346-28.654-64-64-64s-64 28.654-64 64c0 35.346 28.654 64 64 64s64-28.654 64-64zM810.667 341.333c0-35.346-28.654-64-64-64s-64 28.654-64 64c0 35.346 28.654 64 64 64s64-28.654 64-64z" fill="currentColor" />
  </g>
</svg>
