<?xml version="1.0" encoding="utf-8"?>
<svg xmlns="http://www.w3.org/2000/svg" viewBox="0 0 1024 1024" width="24" height="24">
  <g transform="scale(1, -1) translate(0, -960)">
    <path d="M512 874.667c-235.264 0-426.667-191.403-426.667-426.667s191.403-426.667 426.667-426.667 426.667 191.403 426.667 426.667-191.403 426.667-426.667 426.667zM512 106.667c-188.203 0-341.333 153.131-341.333 341.333s153.131 341.333 341.333 341.333 341.333-153.131 341.333-341.333-153.131-341.333-341.333-341.333zM426.667 512c0-35.346-28.654-64-64-64s-64 28.654-64 64c0 35.346 28.654 64 64 64s64-28.654 64-64zM724.736 512.299c0-35.181-28.52-63.701-63.701-63.701s-63.701 28.52-63.701 63.701c0 35.181 28.52 63.701 63.701 63.701s63.701-28.52 63.701-63.701zM346.624 235.008l-10.581 84.651 341.333 42.667 10.581-84.651z" fill="currentColor" />
  </g>
</svg>
