<?xml version="1.0" encoding="utf-8"?>
<svg xmlns="http://www.w3.org/2000/svg" viewBox="0 0 1024 1024" width="24" height="24">
  <g transform="scale(1, -1) translate(0, -960)">
    <path d="M298.667 490.667h85.333v-85.333h-85.333zM298.667 320h85.333v-85.333h-85.333zM469.333 490.667h85.333v-85.333h-85.333zM469.333 320h85.333v-85.333h-85.333zM640 490.667h85.333v-85.333h-85.333zM640 320h85.333v-85.333h-85.333zM213.333 21.333h597.333c47.061 0 85.333 38.272 85.333 85.333v597.333c0 47.061-38.272 85.333-85.333 85.333h-85.333v85.333h-85.333v-85.333h-256v85.333h-85.333v-85.333h-85.333c-47.061 0-85.333-38.272-85.333-85.333v-597.333c0-47.061 38.272-85.333 85.333-85.333zM810.667 618.667l0.043-512h-597.376v512h597.333z" fill="currentColor" />
  </g>
</svg>
