<?xml version="1.0" encoding="utf-8"?>
<svg xmlns="http://www.w3.org/2000/svg" viewBox="0 0 1024 1024" width="24" height="24">
  <g transform="scale(1, -1) translate(0, -960)">
    <path d="M478.677 816l-137.344-171.691-137.344 171.691c-7.901 9.711-19.851 15.864-33.238 15.864-23.533 0-42.626-19.015-42.751-42.518v-640.012c0-47.061 38.272-85.333 85.333-85.333h597.333c47.061 0 85.333 38.272 85.333 85.333v640c-0.126 23.516-19.218 42.53-42.751 42.53-13.387 0-25.337-6.153-33.176-15.786l-0.062-0.078-137.344-171.691-137.344 171.691c-16.256 20.224-50.389 20.224-66.645 0zM213.333 149.333v85.333h597.376v-85.333h-597.376zM649.344 549.333c16.256-20.267 50.432-20.267 66.688 0l94.635 118.357 0.043-347.691h-597.376v347.691l94.677-118.357c16.256-20.267 50.432-20.267 66.688 0l137.301 171.691 137.344-171.691z" fill="currentColor" />
  </g>
</svg>
