<?xml version="1.0" encoding="utf-8"?>
<svg xmlns="http://www.w3.org/2000/svg" viewBox="0 0 1024 1024" width="24" height="24">
  <g transform="scale(1, -1) translate(0, -960)">
    <path d="M512 874.667c-235.641 0-426.667-191.025-426.667-426.667s191.025-426.667 426.667-426.667c235.641 0 426.667 191.025 426.667 426.667v0c0 235.641-191.025 426.667-426.667 426.667v0zM512 320c-70.692 0-128 57.308-128 128s57.308 128 128 128c70.692 0 128-57.308 128-128v0c0-70.692-57.308-128-128-128v0zM629.333 625.92c-21.334 14.349-46.363 25.16-73.269 30.897l-1.397 0.25v128c63.643-8.17 120.348-32.894 167.129-69.672l-0.729 0.552zM469.333 657.067c-28.304-5.987-53.333-16.797-75.434-31.632l0.767 0.485-91.733 91.307c46.052 36.226 102.757 60.95 164.706 68.942l1.694 0.178zM334.080 565.333c-14.349-21.334-25.16-46.363-30.897-73.269l-0.25-1.397h-128c7.771 63.53 32.069 120.255 68.418 167.175l-0.578-0.775zM302.933 405.333c5.987-28.304 16.797-53.333 31.632-75.434l-0.485 0.767-91.307-91.733c-36.226 46.052-60.95 102.757-68.942 164.706l-0.178 1.694zM394.667 270.080c21.334-14.349 46.363-25.16 73.269-30.897l1.397-0.25v-128c-63.643 8.17-120.348 32.894-167.129 69.672l0.729-0.552zM554.667 238.933c28.304 5.987 53.333 16.797 75.434 31.632l-0.767-0.485 91.733-91.307c-46.052-36.226-102.757-60.95-164.706-68.942l-1.694-0.178zM689.92 330.667c14.349 21.334 25.16 46.363 30.897 73.269l0.25 1.397h128c-8.17-63.643-32.894-120.348-69.672-167.129l0.552 0.729zM721.067 490.667c-5.987 28.304-16.797 53.333-31.632 75.434l0.485-0.767 91.307 91.733c36.226-46.052 60.95-102.757 68.942-164.706l0.178-1.694z" fill="currentColor" />
  </g>
</svg>
