<?xml version="1.0" encoding="utf-8"?>
<svg xmlns="http://www.w3.org/2000/svg" viewBox="0 0 1024 1024" width="24" height="24">
  <g transform="scale(1, -1) translate(0, -960)">
    <path d="M384 21.333h42.667v85.333h-42.197c-13.141 0.256-128.469 7.381-128.469 170.667 0 85.035-28.373 138.496-64.085 170.667 35.712 32.171 64.085 85.632 64.085 170.667 0 163.285 115.328 170.411 128 170.667h42.667v85.333h-42.752c-73.771-0.171-213.248-53.931-213.248-256 0-119.467-71.595-127.573-85.931-128l0.597-85.333c3.499 0 85.333-1.451 85.333-128 0-202.069 139.477-255.829 213.333-256zM938.667 490.667c-3.499 0-85.333 1.451-85.333 128 0 202.069-139.477 255.829-213.333 256h-42.667v-85.333h42.197c13.141-0.256 128.469-7.381 128.469-170.667 0-85.035 28.373-138.496 64.085-170.667-35.712-32.171-64.085-85.632-64.085-170.667 0-163.285-115.328-170.411-128-170.667h-42.667v-85.333h42.752c73.771 0.171 213.248 53.931 213.248 256 0 119.467 71.595 127.573 85.931 128l-0.597 85.333z" fill="currentColor" />
  </g>
</svg>
