<?xml version="1.0" encoding="utf-8"?>
<svg xmlns="http://www.w3.org/2000/svg" viewBox="0 0 1024 1024" width="24" height="24">
  <g transform="scale(1, -1) translate(0, -960)">
    <path d="M915.072 358.187l-147.072 73.515v16.299c-0.003 15.445-8.212 28.972-20.505 36.459l-0.188 0.107-192.64 115.584v103.851h85.333v85.333h-85.333v85.333h-85.333v-85.333h-85.333v-85.333h85.333v-103.851l-192.64-115.584c-12.481-7.593-20.69-21.12-20.693-36.565v0-16.299l-147.072-73.557c-14.098-7.137-23.595-21.516-23.595-38.114 0-0.011 0-0.021 0-0.032v0.002-256c0-23.564 19.103-42.667 42.667-42.667v0h768c23.564 0 42.667 19.103 42.667 42.667v0 256c0 16.171-9.131 30.933-23.595 38.187zM170.667 293.632l85.333 42.667v-229.632h-85.333v186.965zM512 320c-47.128 0-85.333-38.205-85.333-85.333v0-128h-85.333v317.184l170.667 102.4 170.667-102.4v-317.184h-85.333v128c0 47.128-38.205 85.333-85.333 85.333v0zM853.333 106.667h-85.333v229.632l85.333-42.667v-186.965z" fill="currentColor" />
  </g>
</svg>
