<?xml version="1.0" encoding="utf-8"?>
<svg xmlns="http://www.w3.org/2000/svg" viewBox="0 0 1024 1024" width="24" height="24">
  <g transform="scale(1, -1) translate(0, -960)">
    <path d="M298.667 21.333h426.667c0.002 0 0.004 0 0.006 0 21.427 0 39.165 15.794 42.206 36.375l0.028 0.233 80.085 560.725h48.341v85.333h-58.965l-73.557 147.072c-7.137 14.098-21.516 23.595-38.114 23.595-0.011 0-0.021 0-0.032 0h-426.665c-16.171 0-30.933-9.131-38.187-23.595l-73.515-147.072h-58.965v-85.333h48.341l80.085-560.725c3.070-20.814 20.808-36.608 42.234-36.608 0.002 0 0.004 0 0.006 0v0zM743.168 490.667h-462.336l-18.304 128h498.901l-18.261-128zM335.659 106.667l-18.304 128h389.248l-18.304-128h-352.64zM325.035 789.333h373.931l42.667-85.333h-459.264l42.667 85.333z" fill="currentColor" />
  </g>
</svg>
