<?xml version="1.0" encoding="utf-8"?>
<svg xmlns="http://www.w3.org/2000/svg" viewBox="0 0 1024 1024" width="24" height="24">
  <g transform="scale(1, -1) translate(0, -960)">
    <path d="M810.667 874.667h-597.333c-47.061 0-85.333-38.272-85.333-85.333v-682.667c0-47.061 38.272-85.333 85.333-85.333h597.333c47.061 0 85.333 38.272 85.333 85.333v682.667c0 47.061-38.272 85.333-85.333 85.333zM213.333 106.667v682.667h597.333l0.043-682.667h-597.376zM298.667 448h85.333v-85.333h-85.333zM298.667 277.333h85.333v-85.333h-85.333zM469.333 448h85.333v-85.333h-85.333zM298.667 704h426.667v-170.667h-426.667zM469.333 277.333h85.333v-85.333h-85.333zM640 448h85.333v-256h-85.333z" fill="currentColor" />
  </g>
</svg>
