<?xml version="1.0" encoding="utf-8"?>
<svg xmlns="http://www.w3.org/2000/svg" viewBox="0 0 1024 1024" width="24" height="24">
  <g transform="scale(1, -1) translate(0, -960)">
    <path d="M892.416 551.936c2.278 5.047 3.605 10.942 3.605 17.147 0 17.335-10.358 32.25-25.223 38.894l-0.27 0.108-557.867 245.589c-42.453 18.688-94.72-2.176-112.853-44.459l-94.293-219.904c-4.326-9.878-6.843-21.391-6.843-33.491 0-34.992 21.051-65.067 51.179-78.252l0.549-0.214 257.621-110.421-52.907-132.267h-184.448v128h-85.333v-341.333h85.333v128h184.448c35.115 0 66.219 21.077 79.189 53.675l52.139 130.304 222.080-95.147c4.961-2.185 10.744-3.458 16.825-3.458 17.359 0 32.296 10.366 38.96 25.246l0.108 0.27 13.312 30.293 72.576-29.013 85.333 213.333-65.536 26.155 22.315 50.944zM703.232 333.227l-519.211 222.507 94.208 219.819 518.912-228.437-93.909-213.888z" fill="currentColor" />
  </g>
</svg>
