<?xml version="1.0" encoding="utf-8"?>
<svg xmlns="http://www.w3.org/2000/svg" viewBox="0 0 1024 1024" width="24" height="24">
  <g transform="scale(1, -1) translate(0, -960)">
    <path d="M913.323 700.331l-384 170.667c-5.102 2.325-11.065 3.68-17.344 3.68s-12.242-1.355-17.612-3.789l0.268 0.109-384-170.667c-0.853-0.384-1.451-1.024-2.304-1.493-1.195-0.597-2.475-0.981-3.584-1.707-0.939-0.64-1.664-1.451-2.56-2.133-3.136-2.347-5.814-5.079-8.031-8.166l-0.076-0.111c-0.853-1.195-1.749-2.261-2.517-3.456-1.14-1.976-2.232-4.297-3.135-6.71l-0.108-0.33c-0.384-1.152-0.981-2.219-1.323-3.371-1.023-3.444-1.628-7.404-1.664-11.501v-426.686c0-16.896 9.899-32.128 25.344-38.997l384-170.667c5.547-2.475 11.435-3.669 17.323-3.669 6.262 0.165 12.137 1.659 17.406 4.207l-0.254-0.111 0.171-0.427 384 170.667c15.055 6.797 25.344 21.679 25.344 38.964 0 0.012 0 0.023 0 0.035v-0.002 426.667c0 0.010 0 0.021 0 0.033 0 17.285-10.289 32.167-25.076 38.856l-0.268 0.109zM512 785.28l278.955-123.947-278.955-123.947-278.912 123.947 278.912 123.947zM170.667 262.357v333.312l298.667-132.736v-333.269l-298.667 132.693zM554.667 129.664v333.269l298.667 132.736v-333.312l-298.667-132.693z" fill="currentColor" />
  </g>
</svg>
