<?xml version="1.0" encoding="utf-8"?>
<svg xmlns="http://www.w3.org/2000/svg" viewBox="0 0 1024 1024" width="24" height="24">
  <g transform="scale(1, -1) translate(0, -960)">
    <path d="M512 874.667c-235.264 0-426.667-191.403-426.667-426.667s191.403-426.667 426.667-426.667 426.667 191.403 426.667 426.667-191.403 426.667-426.667 426.667zM554.667 109.611v125.056h-85.333v-125.056c-154.488 20.255-275.468 141.235-295.537 293.993l-0.186 1.73h125.056v85.333h-125.056c20.255 154.488 141.235 275.468 293.993 295.537l1.73 0.186v-125.056h85.333v125.056c154.495-20.24 275.483-141.228 295.537-293.995l0.185-1.728h-125.056v-85.333h125.056c-20.255-154.488-141.235-275.468-293.993-295.537l-1.73-0.186z" fill="currentColor" />
  </g>
</svg>
