<?xml version="1.0" encoding="utf-8"?>
<svg xmlns="http://www.w3.org/2000/svg" viewBox="0 0 1024 1024" width="24" height="24">
  <g transform="scale(1, -1) translate(0, -960)">
    <path d="M314.667 244.011l53.333 66.645-171.691 137.344 171.691 137.344-53.333 66.645-213.333-170.667c-9.801-7.885-16.020-19.877-16.020-33.323s6.219-25.438 15.938-33.258l0.082-0.064 213.333-170.667zM709.333 651.989l-53.333-66.645 171.691-137.344-171.691-137.344 53.333-66.645 213.333 170.667c9.801 7.885 16.020 19.877 16.020 33.323s-6.219 25.438-15.938 33.258l-0.082 0.064-213.333 170.667zM638.976 822.784l-170.667-768-83.328 18.517 170.667 768z" fill="currentColor" />
  </g>
</svg>
