<?xml version="1.0" encoding="utf-8"?>
<svg xmlns="http://www.w3.org/2000/svg" viewBox="0 0 1024 1024" width="24" height="24">
  <g transform="scale(1, -1) translate(0, -960)">
    <path d="M443.093 30.379c7.149-5.637 16.287-9.042 26.221-9.042 3.674 0 7.239 0.466 10.64 1.341l-0.295-0.064 341.333 85.333c18.719 4.768 32.341 21.476 32.341 41.365 0 0.008 0 0.015 0 0.023v-0.001 597.333c-0.006 19.893-13.624 36.603-32.046 41.322l-0.296 0.064-341.333 85.333c-3.062 0.783-6.577 1.233-10.198 1.233-23.573 0-42.695-19.060-42.794-42.61v-42.677h-170.667c-23.564 0-42.667-19.103-42.667-42.667v0-597.333c0-23.564 19.103-42.667 42.667-42.667v0h170.667v-42.667c0-13.141 6.059-25.557 16.427-33.621zM512 777.344l256-64v-530.688l-256-64v658.688zM298.667 192v512h128v-512h-128zM607.659 398.549c19.029 4.779 32.341 21.845 32.341 41.429v16.085c-0.012 23.555-19.11 42.645-42.667 42.645-23.564 0-42.667-19.103-42.667-42.667 0-0.007 0-0.015 0-0.022v0.001-16.085c0.007-23.559 19.107-42.655 42.667-42.655 3.667 0 7.225 0.463 10.621 1.332l-0.296-0.064z" fill="currentColor" />
  </g>
</svg>
