<?xml version="1.0" encoding="utf-8"?>
<svg xmlns="http://www.w3.org/2000/svg" viewBox="0 0 1024 1024" width="24" height="24">
  <g transform="scale(1, -1) translate(0, -960)">
    <path d="M853.333 832h-554.667c-47.061 0-85.333-38.272-85.333-85.333v-85.333h-42.667c-47.061 0-85.333-38.272-85.333-85.333v-426.667c0-47.061 38.272-85.333 85.333-85.333h256c47.061 0 85.333 38.272 85.333 85.333h341.333c47.061 0 85.333 38.272 85.333 85.333v512c0 47.061-38.272 85.333-85.333 85.333zM426.539 149.333h-255.872v426.667h256l-0.128-426.667zM853.205 234.667h-341.205v341.333c0 47.061-38.272 85.333-85.333 85.333h-128v85.333h554.667l-0.128-512z" fill="currentColor" />
  </g>
</svg>
