<?xml version="1.0" encoding="utf-8"?>
<svg xmlns="http://www.w3.org/2000/svg" viewBox="0 0 1024 1024" width="24" height="24">
  <g transform="scale(1, -1) translate(0, -960)">
    <path d="M929.323 368l-85.333 106.667c-7.885 9.789-19.87 16-33.307 16-0.006 0-0.011 0-0.017 0h-255.999v85.333h256c47.061 0 85.333 38.272 85.333 85.333v128c0 47.061-38.272 85.333-85.333 85.333h-597.333c-0.005 0-0.010 0-0.016 0-13.436 0-25.422-6.211-33.243-15.918l-0.064-0.082-85.333-106.667c-5.824-7.238-9.348-16.541-9.348-26.667s3.524-19.429 9.412-26.749l-0.064 0.083 85.333-106.667c7.885-9.789 19.87-16 33.307-16 0.006 0 0.011 0 0.017 0h255.999v-85.333h-256c-47.061 0-85.333-38.272-85.333-85.333v-128c0-47.061 38.272-85.333 85.333-85.333h256v-170.667h85.333v170.667h256c0.005 0 0.010 0 0.016 0 13.436 0 25.422 6.211 33.243 15.918l0.064 0.082 85.333 106.667c5.824 7.238 9.348 16.541 9.348 26.667s-3.524 19.429-9.412 26.749l0.064-0.083zM182.656 725.333l51.157 64h576.853l0.085-128h-576.939l-51.157 64zM790.187 277.333h-576.853v128h576.853l51.2-64-51.2-64z" fill="currentColor" />
  </g>
</svg>
