<?xml version="1.0" encoding="utf-8"?>
<svg xmlns="http://www.w3.org/2000/svg" viewBox="0 0 1024 1024" width="24" height="24">
  <g transform="scale(1, -1) translate(0, -960)">
    <path d="M170.667 64h410.453c0.027 0 0.059 0 0.091 0 51.708 0 98.039 23.024 129.299 59.38l0.189 0.225 217.685 253.952c6.399 7.419 10.296 17.152 10.296 27.796 0 18.73-12.069 34.642-28.855 40.382l-0.3 0.089-83.968 27.989c-11.986 4.032-25.789 6.359-40.135 6.359-30.445 0-58.442-10.479-80.582-28.027l0.27 0.206-135.893-108.672-26.325 52.693c-28.424 56.334-85.827 94.294-152.097 94.294-0.199 0-0.397 0-0.595-0.001h-219.532c-47.061 0-85.333-38.272-85.333-85.333v-256c0-47.061 38.272-85.333 85.333-85.333zM170.667 405.333h219.563c32.555 0 61.781-18.048 76.331-47.147l19.072-38.187h-186.965v-85.333h256.597c6.901 0.094 13.379 1.819 19.093 4.805l-0.234-0.112 0.128 0.043 0.171 0.085h0.128l0.085 0.043h0.171l0.043 0.043c0.469-0.128 0.128 0.043 0.128 0.043 0.512 0 0.085 0.043 0.085 0.043h0.043l0.085 0.043 0.128 0.043 0.171 0.085 0.128 0.043 0.171 0.085 0.128 0.085 0.171 0.085 0.128 0.043 0.085 0.043h0.043l0.085 0.043h0.043l0.171 0.085c0.469 0.043 0.128 0.043 0.128 0.043l0.085 0.043c1.78 1.082 3.313 2.18 4.757 3.38l-0.064-0.052 176.896 141.525c11.136 8.875 26.581 11.648 40.107 7.125l23.765-7.936-176.341-205.781c-15.917-18.011-39.061-29.319-64.847-29.355h-410.459v256zM587.136 860.757c-19.669-21.589-117.803-133.589-117.803-220.757 0-82.347 66.987-149.333 149.333-149.333s149.333 66.987 149.333 149.333c0 87.168-98.133 199.168-117.803 220.757-16.171 17.749-46.891 17.749-63.061 0zM682.667 640c0-35.285-28.715-64-64-64s-64 28.715-64 64c0 30.208 31.488 82.517 64 125.184 32.512-42.667 64-94.976 64-125.184z" fill="currentColor" />
  </g>
</svg>
