<?xml version="1.0" encoding="utf-8"?>
<svg xmlns="http://www.w3.org/2000/svg" viewBox="0 0 1024 1024" width="24" height="24">
  <g transform="scale(1, -1) translate(0, -960)">
    <path d="M853.333 832h-567.765c-36.332-0.124-67.332-22.822-79.715-54.796l-0.199-0.585-117.632-313.643c-1.702-4.428-2.688-9.551-2.688-14.905 0-0.025 0-0.050 0-0.075v0.004-85.333c0-47.061 38.272-85.333 85.333-85.333h239.445l-47.872-143.659c-2.772-8.056-4.373-17.339-4.373-26.995 0-18.729 6.022-36.052 16.235-50.138l-0.171 0.248c16.043-22.187 41.899-35.456 69.291-35.456h68.779c12.672 0 24.661 5.632 32.811 15.36l200.533 240.64h107.989c47.061 0 85.333 38.272 85.333 85.333v384c0 47.061-38.272 85.333-85.333 85.333zM491.989 106.667h-48.853l66.645 199.851c1.386 4.023 2.186 8.66 2.186 13.483 0 23.553-19.084 42.648-42.633 42.667h-298.668v77.611l114.901 306.389h397.099v-411.221l-190.677-228.779zM768 362.667v384h85.333l0.043-384h-85.376z" fill="currentColor" />
  </g>
</svg>
