<?xml version="1.0" encoding="utf-8"?>
<svg xmlns="http://www.w3.org/2000/svg" viewBox="0 0 1024 1024" width="24" height="24">
  <g transform="scale(1, -1) translate(0, -960)">
    <path d="M933.803 723.797c-7.301 13.689-21.48 22.852-37.8 22.869h-768.002c-23.535-0.1-42.575-19.202-42.575-42.752 0-9.041 2.807-17.427 7.596-24.334l-0.093 0.141 384-554.667c7.783-11.196 20.582-18.433 35.072-18.433s27.289 7.237 34.98 18.294l0.092 0.14 384 554.667c4.76 6.778 7.607 15.201 7.607 24.289 0 7.235-1.804 14.048-4.988 20.015l0.112-0.229zM512 224.299l-302.592 437.035h605.184l-302.592-437.035z" fill="currentColor" />
  </g>
</svg>
