<?xml version="1.0" encoding="utf-8"?>
<svg xmlns="http://www.w3.org/2000/svg" viewBox="0 0 1024 1024" width="24" height="24">
  <g transform="scale(1, -1) translate(0, -960)">
    <path d="M512 874.667c-235.264 0-426.667-191.403-426.667-426.667s191.403-426.667 426.667-426.667 426.667 191.403 426.667 426.667-191.403 426.667-426.667 426.667zM850.389 490.667h-129.365c-17.711 83.768-82.583 148.625-164.96 166.067l-1.397 0.248v129.408c154.488-20.255 275.468-141.235 295.537-293.993l0.186-1.73zM512 576c70.571 0 128-57.429 128-128s-57.429-128-128-128-128 57.429-128 128 57.429 128 128 128zM512 106.667c-188.203 0-341.333 153.131-341.333 341.333 0 173.739 130.603 317.269 298.667 338.389v-129.365c-97.994-20.68-170.512-106.361-170.667-209.007v-0.017c0-117.632 95.701-213.333 213.333-213.333 102.658 0.142 188.335 72.67 208.735 169.272l0.246 1.394h129.365c-21.077-168.064-164.608-298.667-338.347-298.667z" fill="currentColor" />
  </g>
</svg>
