<?xml version="1.0" encoding="utf-8"?>
<svg xmlns="http://www.w3.org/2000/svg" viewBox="0 0 1024 1024" width="24" height="24">
  <g transform="scale(1, -1) translate(0, -960)">
    <path d="M512 21.333c197.803 0 341.333 147.968 341.333 351.829 0 265.899-303.701 484.437-316.629 493.611-6.864 4.922-15.433 7.87-24.691 7.87-9.232 0-17.779-2.932-24.761-7.916l0.13 0.088c-12.928-9.088-316.715-226.944-316.715-493.483 0-203.947 143.531-352 341.333-352zM511.957 778.24c68.48-55.040 256.043-222.464 256.043-405.077 0-156.928-105.301-266.496-256-266.496s-256 109.653-256 266.667c0 183.040 187.477 349.995 255.957 404.907z" fill="currentColor" />
  </g>
</svg>
