<?xml version="1.0" encoding="utf-8"?>
<svg xmlns="http://www.w3.org/2000/svg" viewBox="0 0 1024 1024" width="24" height="24">
  <g transform="scale(1, -1) translate(0, -960)">
    <path d="M512 874.965c-235.264-0.043-426.667-191.445-426.667-426.709 0-235.221 191.403-426.624 426.667-426.667 235.264 0 426.667 191.403 426.667 426.667s-191.36 426.667-426.667 426.709zM512 106.923c-188.203 0.043-341.333 153.173-341.333 341.333 0 188.203 153.131 341.333 341.333 341.376 188.203-0.043 341.333-153.173 341.333-341.376s-153.131-341.333-341.333-341.333zM554.667 618.667h-85.333v-170.667h-128.384l170.88-170.88 170.837 170.88h-128z" fill="currentColor" />
  </g>
</svg>
