<?xml version="1.0" encoding="utf-8"?>
<svg xmlns="http://www.w3.org/2000/svg" viewBox="0 0 1024 1024" width="24" height="24">
  <g transform="scale(1, -1) translate(0, -960)">
    <path d="M256 746.667v-597.333h128v256h256v-256h128v597.333h-128v-256h-256v256zM128 320c0-23.564 19.103-42.667 42.667-42.667v0h42.667v341.333h-42.667c-23.564 0-42.667-19.103-42.667-42.667v0-85.333h-42.667v-85.333h42.667v-85.333zM896 576c0 23.564-19.103 42.667-42.667 42.667v0h-42.667v-341.333h42.667c23.564 0 42.667 19.103 42.667 42.667v0 85.333h42.667v85.333h-42.667v85.333z" fill="currentColor" />
  </g>
</svg>
