<?xml version="1.0" encoding="utf-8"?>
<svg xmlns="http://www.w3.org/2000/svg" viewBox="0 0 1024 1024" width="24" height="24">
  <g transform="scale(1, -1) translate(0, -960)">
    <path d="M469.333 533.333h-85.333v-128h-128v-85.333h128v-128h85.333v128h128v85.333h-128zM170.667 21.333h512c47.061 0 85.333 38.272 85.333 85.333v512c0 47.061-38.272 85.333-85.333 85.333h-512c-47.061 0-85.333-38.272-85.333-85.333v-512c0-47.061 38.272-85.333 85.333-85.333zM170.667 618.667h512l0.085-512h-512.085v512zM853.333 874.667h-512v-85.333h512v-512h85.333v512c0 47.061-38.272 85.333-85.333 85.333z" fill="currentColor" />
  </g>
</svg>
