<?xml version="1.0" encoding="utf-8"?>
<svg xmlns="http://www.w3.org/2000/svg" viewBox="0 0 1024 1024" width="24" height="24">
  <g transform="scale(1, -1) translate(0, -960)">
    <path d="M888.832 765.653c4.494 6.653 7.174 14.854 7.174 23.68 0 23.564-19.103 42.667-42.667 42.667-0.002 0-0.005 0-0.007 0h-682.666c-23.555-0.013-42.645-19.11-42.645-42.667 0-8.808 2.669-16.993 7.243-23.79l-0.097 0.153 334.165-501.291v-157.739h-128v-85.333h341.333v85.333h-128v157.739l334.165 501.248zM512 354.261l-147.84 221.739h295.68l-147.84-221.739zM773.632 746.667l-56.875-85.333h-409.515l-56.875 85.333h523.264z" fill="currentColor" />
  </g>
</svg>
