<?xml version="1.0" encoding="utf-8"?>
<svg xmlns="http://www.w3.org/2000/svg" viewBox="0 0 1024 1024" width="24" height="24">
  <g transform="scale(1, -1) translate(0, -960)">
    <path d="M673.877 486.827c14.165 11.221 27.648 23.125 40.405 35.84l5.803 6.059c12.075 12.501 23.552 25.515 34.176 39.211l2.645 3.2c10.88 14.293 20.736 29.355 29.952 44.757l5.461 9.387c8.747 15.531 16.853 31.445 23.851 47.915 0.853 2.005 1.493 4.053 2.347 6.059 6.272 15.403 11.691 31.189 16.341 47.317 0.896 2.987 1.877 5.973 2.688 9.003 4.565 17.152 8.064 34.688 10.709 52.437 0.555 3.712 0.896 7.467 1.365 11.221 2.176 18.432 3.712 37.077 3.712 55.936v19.499h-85.333v-19.499c0-7.851-1.323-15.403-1.792-23.168h-509.269c-0.427 7.723-0.939 15.36-0.939 23.168v19.499h-85.333v-19.499c0-208.043 139.477-393.301 339.285-450.944l1.195-0.384c122.923-35.115 215.723-134.229 246.144-254.507h-490.581l34.091 85.333h324.565c-23.796 34.051-53.063 62.462-86.818 84.593l-1.203 0.74h-170.667c18.987 18.091 40.789 33.024 63.616 46.507-33.929 12.023-63.234 26.629-90.39 44.265l1.644-1.001c-104.747-81.749-170.88-208.341-170.88-346.411v-84.693h85.333v84.693l0.043 0.64h511.915l0.043-0.64v-84.693h85.333v84.693c0 163.413-92.117 311.595-232.235 386.987 17.619 10.586 32.545 20.849 46.822 31.911l-1.083-0.807c2.347 1.792 4.693 3.499 7.040 5.376zM623.104 555.264c-28.486-23.019-61.248-42.385-96.633-56.604l-2.567-0.911c-3.925-1.536-7.893-2.901-11.861-4.352-52.491 18.893-97.496 47.022-135.212 82.765l0.172-0.162h268.459c-7.296-6.869-14.165-14.208-22.059-20.48l-0.299-0.256zM751.744 746.667c-0.213-0.683-0.299-1.408-0.512-2.091l-1.877-6.443c-6.877-21.009-14.287-38.675-22.905-55.623l1.017 2.204c-4.096-8.107-9.088-15.573-13.696-23.381h-404.48c-14.679 24.497-27.313 52.779-36.441 82.593l-0.722 2.74h479.616z" fill="currentColor" />
  </g>
</svg>
