<?xml version="1.0" encoding="utf-8"?>
<svg xmlns="http://www.w3.org/2000/svg" viewBox="0 0 1024 1024" width="24" height="24">
  <g transform="scale(1, -1) translate(0, -960)">
    <path d="M574.464 704c61.013 0 118.571-26.155 162.091-73.643l62.933 57.685c-59.904 65.323-139.819 101.291-225.024 101.291-85.248 0-165.12-35.968-224.939-101.333-28.855-31.465-52.046-68.677-67.609-109.645l-0.785-2.355h-110.464v-85.333h90.197c-1.621-14.080-2.731-28.288-2.731-42.667s1.109-28.587 2.731-42.667h-90.197v-85.333h110.464c15.445-41.387 38.443-79.403 68.395-112.043 59.819-65.323 139.691-101.291 224.939-101.291 85.205 0 165.12 35.968 224.981 101.291l-62.933 57.685c-43.477-47.488-101.035-73.643-162.048-73.643s-118.528 26.112-162.048 73.643c-14.073 15.779-26.359 33.637-36.242 52.929l-0.665 1.428h179.157v85.333h-207.403c-2.133 13.995-3.797 28.16-3.797 42.667s1.664 28.672 3.797 42.667h207.403v85.333h-179.157c10.24 19.499 22.016 38.101 36.907 54.357 43.52 47.488 101.035 73.643 162.048 73.643z" fill="currentColor" />
  </g>
</svg>
