<?xml version="1.0" encoding="utf-8"?>
<svg xmlns="http://www.w3.org/2000/svg" viewBox="0 0 1024 1024" width="24" height="24">
  <g transform="scale(1, -1) translate(0, -960)">
    <path d="M469.376 533.333h85.333v-213.333h-85.333zM469.333 277.333h85.333v-85.333h-85.333zM587.435 780.8c-14.848 27.947-43.776 45.312-75.435 45.312s-60.587-17.365-75.435-45.355l-313.088-591.488c-6.308-11.566-10.017-25.332-10.017-39.965 0-16.267 4.584-31.464 12.531-44.369l-0.21 0.367c15.038-24.906 41.959-41.302 72.709-41.302 0.133 0 0.266 0 0.399 0.001h626.24c30.208 0 57.557 15.445 73.131 41.301 7.725 12.543 12.302 27.74 12.302 44.007 0 14.629-3.702 28.394-10.22 40.409l0.222-0.447-313.131 591.531zM198.869 149.333l313.131 591.488 313.344-591.488h-626.475z" fill="currentColor" />
  </g>
</svg>
