<?xml version="1.0" encoding="utf-8"?>
<svg xmlns="http://www.w3.org/2000/svg" viewBox="0 0 1024 1024" width="24" height="24">
  <g transform="scale(1, -1) translate(0, -960)">
    <path d="M110.336 302.592l183.424-183.424c7.696-7.723 18.342-12.501 30.104-12.501 0.022 0 0.043 0 0.065 0h512.040v85.333h-296.875l308.139 308.139c33.28 33.237 33.28 87.424 0 120.661l-211.243 211.2c-15.455 15.406-36.781 24.932-60.331 24.932s-44.875-9.525-60.333-24.934l-202.665-202.622-202.837-206.635c-15.062-15.42-24.354-36.532-24.354-59.815 0-23.539 9.498-44.86 24.87-60.34l-0.005 0.005zM575.659 771.669l211.2-211.2-110.336-110.336-211.2 211.2 110.336 110.336zM373.291 569.344l31.701 31.659 211.2-211.2-194.432-194.432c-1.004-1.036-1.967-2.135-2.874-3.28l-0.070-0.091h-77.227l-170.88 170.965 202.581 206.379z" fill="currentColor" />
  </g>
</svg>
