<?xml version="1.0" encoding="utf-8"?>
<svg xmlns="http://www.w3.org/2000/svg" viewBox="0 0 1024 1024" width="24" height="24">
  <g transform="scale(1, -1) translate(0, -960)">
    <path d="M919.68 611.499l-384 256c-6.649 4.486-14.841 7.16-23.659 7.16s-17.010-2.675-23.811-7.257l0.152 0.097-384-256c-11.533-7.754-19.021-20.751-19.029-35.497v-469.334c0-47.061 38.272-85.333 85.333-85.333h682.667c47.061 0 85.333 38.272 85.333 85.333v469.333c0 14.251-7.125 27.563-18.987 35.499zM512 780.715l307.072-204.715-307.072-204.715-307.072 204.715 307.072 204.715zM170.667 106.667v389.589l317.653-211.755c6.653-4.494 14.854-7.174 23.68-7.174s17.027 2.68 23.832 7.271l-0.152-0.096 317.653 211.755-0.128-389.589h-682.539z" fill="currentColor" />
  </g>
</svg>
