<?xml version="1.0" encoding="utf-8"?>
<svg xmlns="http://www.w3.org/2000/svg" viewBox="0 0 1024 1024" width="24" height="24">
  <g transform="scale(1, -1) translate(0, -960)">
    <path d="M853.333 789.333h-682.667c-47.061 0-85.333-38.272-85.333-85.333v-512c0-47.061 38.272-85.333 85.333-85.333h682.667c47.061 0 85.333 38.272 85.333 85.333v512c0 47.061-38.272 85.333-85.333 85.333zM853.333 704v-21.803l-341.333-265.515-341.333 265.472v21.845h682.667zM170.667 192v382.123l315.136-245.12c7.137-5.647 16.269-9.059 26.197-9.059s19.060 3.412 26.286 9.126l-0.089-0.068 315.136 245.12 0.085-382.123h-682.752z" fill="currentColor" />
  </g>
</svg>
