<?xml version="1.0" encoding="utf-8"?>
<svg xmlns="http://www.w3.org/2000/svg" viewBox="0 0 1024 1024" width="24" height="24">
  <g transform="scale(1, -1) translate(0, -960)">
    <path d="M812.587 644.224c16.128 16.128 25.003 37.547 25.003 60.331s-8.875 44.203-25.003 60.331l-67.669 67.669c-16.128 16.128-37.547 25.003-60.331 25.003s-44.203-8.875-60.288-24.96l-453.632-452.224v-188.373h188.288l453.632 452.224zM684.587 772.224l67.712-67.627-67.84-67.584-67.669 67.627 67.797 67.584zM256 277.333v67.627l300.373 299.435 67.669-67.669-300.331-299.392h-67.712zM170.667 106.667h682.667v-85.333h-682.667z" fill="currentColor" />
  </g>
</svg>
