<?xml version="1.0" encoding="utf-8"?>
<svg xmlns="http://www.w3.org/2000/svg" viewBox="0 0 1024 1024" width="24" height="24">
  <g transform="scale(1, -1) translate(0, -960)">
    <path d="M298.667 234.112l188.288 0.64 410.965 407.040c16.128 16.128 25.003 37.547 25.003 60.331s-8.875 44.203-25.003 60.331l-67.669 67.669c-32.256 32.256-88.533 32.085-120.533 0.128l-411.051-407.125v-189.013zM769.92 769.792l67.797-67.541-68.139-67.499-67.669 67.627 68.011 67.413zM384 387.541l257.28 254.848 67.669-67.669-257.237-254.763-67.712-0.213v67.797zM213.333 64h597.333c47.061 0 85.333 38.272 85.333 85.333v369.835l-85.333-85.333v-284.501h-462.592c-1.109 0-2.261-0.427-3.371-0.427-1.408 0-2.816 0.384-4.267 0.427h-127.104v597.333h292.139l85.333 85.333h-377.472c-47.061 0-85.333-38.272-85.333-85.333v-597.333c0-47.061 38.272-85.333 85.333-85.333z" fill="currentColor" />
  </g>
</svg>
