<?xml version="1.0" encoding="utf-8"?>
<svg xmlns="http://www.w3.org/2000/svg" viewBox="0 0 1024 1024" width="24" height="24">
  <g transform="scale(1, -1) translate(0, -960)">
    <path d="M254.379 205.909c44.288-70.699 44.288-123.435 44.288-184.576h85.333c0 64.896 0 138.411-57.301 229.931l-72.32-45.355zM704.171 815.488c-107.819 63.019-382.037 105.003-521.515-39.168-143.701-148.523-95.957-387.072 0.043-486.059 5.035-5.205 10.411-9.771 15.744-14.208 3.072-2.603 6.229-4.949 8.747-7.851l63.744 56.747c-5.522 5.954-11.359 11.413-17.563 16.437l-0.314 0.246c-3.072 2.56-6.229 5.077-9.131 8.021-70.827 73.003-106.923 256.725 0.043 367.275 107.733 111.403 344.235 67.371 417.152 24.789 114.816-66.944 174.805-183.808 175.317-184.875l76.331 38.187c-2.773 5.76-71.168 140.331-208.597 220.459zM398.507 412.928c-43.947 53.76-76.245 98.859-59.392 149.589 11.221 33.493 34.688 56.533 69.845 68.437 52.224 17.493 124.587 6.827 172.373-25.643l47.915 70.571c-70.315 47.787-169.899 62.165-247.637 35.883-60.075-20.309-103.893-63.787-123.392-122.283-33.109-99.328 34.091-181.504 74.24-230.613 6.357-7.808 12.373-15.104 17.451-21.845 119.424-158.805 119.424-235.008 119.424-315.691h85.333c0 86.869 0 185.387-136.576 366.976-7.723 10.091-14.138 18.103-20.695 25.994l1.111-1.375zM645.589 555.605c78.293-75.264 129.451-189.739 165.931-371.243l83.669 16.853c-40.064 199.595-98.816 327.893-190.421 415.915l-59.179-61.525zM493.056 568.789l-47.573-70.827c1.152-0.811 115.669-80.213 162.176-244.224l82.091 23.253c-55.424 195.499-190.976 287.957-196.693 291.797zM626.688 172.416c8.96-49.835 13.312-99.243 13.312-151.083h85.333c0 56.96-4.779 111.275-14.635 166.187l-84.011-15.104z" fill="currentColor" />
  </g>
</svg>
