<?xml version="1.0" encoding="utf-8"?>
<svg xmlns="http://www.w3.org/2000/svg" viewBox="0 0 1024 1024" width="24" height="24">
  <g transform="scale(1, -1) translate(0, -960)">
    <path d="M810.667 832h-597.333c-47.061 0-85.333-38.272-85.333-85.333v-597.333c0-47.061 38.272-85.333 85.333-85.333h597.333c47.061 0 85.333 38.272 85.333 85.333v597.333c0 47.061-38.272 85.333-85.333 85.333zM384 490.667v256h256v-256h-256zM640 405.333v-256h-256v256h256zM213.333 746.667h85.333v-85.333h-85.333v85.333zM213.333 576h85.333v-85.333h-85.333v85.333zM213.333 405.333h85.333v-85.333h-85.333v85.333zM213.333 234.667h85.333v-85.333h-85.333v85.333zM810.752 149.333h-85.419v85.333h85.419v-85.333zM810.709 320h-85.376v85.333h85.376v-85.333zM810.709 490.667h-85.376v85.333h85.376v-85.333zM725.333 661.333v85.333h85.333v-85.333h-85.333z" fill="currentColor" />
  </g>
</svg>
