<?xml version="1.0" encoding="utf-8"?>
<svg xmlns="http://www.w3.org/2000/svg" viewBox="0 0 1024 1024" width="24" height="24">
  <g transform="scale(1, -1) translate(0, -960)">
    <path d="M92.373 125.824c7.936-11.947 21.291-19.157 35.627-19.157h640c17.067 0 32.512 10.155 39.211 25.856l128 298.667c2.209 4.979 3.496 10.787 3.496 16.896 0 23.517-19.064 42.581-42.581 42.581-0.044 0-0.088 0-0.132 0h-42.66v170.667c0 47.061-38.272 85.333-85.333 85.333h-260.267l-97.451 76.245c-7.16 5.665-16.32 9.088-26.279 9.088-0.001 0-0.003 0-0.004 0h-213.333c-47.061 0-85.333-38.272-85.333-85.333v-597.333h0.299c-0.002-0.145-0.003-0.316-0.003-0.487 0-8.55 2.515-16.512 6.845-23.188l-0.101 0.166zM739.883 192h-547.157l91.435 213.333h547.157l-91.435-213.333zM768 661.333v-170.667h-512c-17.067 0-32.512-10.155-39.211-25.856l-46.123-107.648v304.171h597.333z" fill="currentColor" />
  </g>
</svg>
