<?xml version="1.0" encoding="utf-8"?>
<svg xmlns="http://www.w3.org/2000/svg" viewBox="0 0 1024 1024" width="24" height="24">
  <g transform="scale(1, -1) translate(0, -960)">
    <path d="M597.333 789.333c0-47.128-38.205-85.333-85.333-85.333s-85.333 38.205-85.333 85.333c0 47.128 38.205 85.333 85.333 85.333s85.333-38.205 85.333-85.333zM637.781 632.149c-5.777 17.095-21.671 29.184-40.388 29.184-0.021 0-0.042 0-0.063 0h-170.664c-0.009 0-0.019 0-0.029 0-18.725 0-34.627-12.087-40.33-28.884l-0.088-0.3-85.333-256 75.733-25.301-35.285-158.848h85.333v-170.667h170.667v170.667h85.333l-35.285 158.891 75.733 25.301-85.333 255.957z" fill="currentColor" />
  </g>
</svg>
