<?xml version="1.0" encoding="utf-8"?>
<svg xmlns="http://www.w3.org/2000/svg" viewBox="0 0 1024 1024" width="24" height="24">
  <g transform="scale(1, -1) translate(0, -960)">
    <path d="M853.333 704h-128v85.333c0 47.061-38.272 85.333-85.333 85.333h-256c-47.061 0-85.333-38.272-85.333-85.333v-85.333h-128c-47.061 0-85.333-38.272-85.333-85.333v-426.667c0-47.061 38.272-85.333 85.333-85.333h682.667c47.061 0 85.333 38.272 85.333 85.333v426.667c0 47.061-38.272 85.333-85.333 85.333zM384 789.333h256v-85.333h-256v85.333zM170.667 192v426.667h682.667l0.043-426.667h-682.709zM554.667 576h-85.333v-128h-128v-85.333h128v-128h85.333v128h128v85.333h-128z" fill="currentColor" />
  </g>
</svg>
