<?xml version="1.0" encoding="utf-8"?>
<svg xmlns="http://www.w3.org/2000/svg" viewBox="0 0 1024 1024" width="24" height="24">
  <g transform="scale(1, -1) translate(0, -960)">
    <path d="M813.696 749.696c-76.833 77.426-183.295 125.355-300.951 125.355-0.247 0-0.494 0-0.741-0.001h0.039c-0.197 0-0.43 0.001-0.664 0.001-117.695 0-224.196-47.928-301.051-125.331l-0.024-0.025c-166.357-166.315-166.357-437.035 0-603.392 76.859-77.427 183.343-125.355 301.022-125.355 0.267 0 0.534 0 0.801 0.001h-0.041c0.221 0 0.483-0.001 0.745-0.001 117.635 0 224.079 47.912 300.883 125.287l0.025 0.026c166.357 166.315 166.357 437.035-0.043 603.435zM519.723 789.333h-15.317c2.603 0.043 5.077 0.384 7.68 0.384s5.035-0.341 7.637-0.384zM778.368 234.667h-95.701l-53.675-107.349c-34.752-13.241-74.938-20.947-116.912-21.035h-0.037c-42.088 0.079-82.348 7.802-119.499 21.853l2.337-0.776-53.547 106.88h-95.36c-33.879 41.842-58.219 92.782-68.909 148.572l-0.339 2.127 79.275 105.728-51.883 103.808c17.459 36.655 39.749 68.016 66.529 94.902l-0.011-0.011c37.404 37.531 83.483 66.393 134.975 83.324l2.411 0.686 103.979-69.376 104.021 69.333c53.893-17.631 99.966-46.475 137.381-83.963l0.005-0.005c26.74-26.843 49.013-58.16 65.595-92.726l0.88-2.036-51.883-103.936 79.275-105.728c-10.98-57.737-35.198-108.53-69.412-150.919l0.505 0.647zM362.667 490.667l64-170.667h170.667l64 170.667-149.333 106.667z" fill="currentColor" />
  </g>
</svg>
