<?xml version="1.0" encoding="utf-8"?>
<svg xmlns="http://www.w3.org/2000/svg" viewBox="0 0 1024 1024" width="24" height="24">
  <g transform="scale(1, -1) translate(0, -960)">
    <path d="M512 874.667c-141.184 0-256-114.816-256-256 0-126.592 92.459-231.765 213.333-252.16v-131.84h-128v-85.333h128v-127.488h85.333v127.488h128v85.333h-128v131.84c120.875 20.437 213.333 125.568 213.333 252.16 0 141.184-114.816 256-256 256zM512 448c-94.123 0-170.667 76.544-170.667 170.667s76.544 170.667 170.667 170.667 170.667-76.544 170.667-170.667-76.544-170.667-170.667-170.667z" fill="currentColor" />
  </g>
</svg>
