<?xml version="1.0" encoding="utf-8"?>
<svg xmlns="http://www.w3.org/2000/svg" viewBox="0 0 1024 1024" width="24" height="24">
  <g transform="scale(1, -1) translate(0, -960)">
    <path d="M512 874.667c-235.264 0-426.667-191.403-426.667-426.667s191.403-426.667 426.667-426.667 426.667 191.403 426.667 426.667-191.403 426.667-426.667 426.667zM512 789.333c137.088 0 255.232-81.408 309.504-198.315-14.972 7.125-27.484 14.201-39.461 22.029l1.274-0.781c-17.451 11.008-37.248 23.509-62.293 32.939-28.544 10.88-59.733 16.128-95.317 16.128s-66.773-5.248-95.317-16.085c-25.045-9.515-44.843-22.016-62.805-33.323-16.128-10.112-29.995-18.901-47.061-25.344-19.029-7.211-39.68-10.581-65.109-10.581-25.387 0-46.037 3.371-65.024 10.581-17.067 6.443-31.061 15.275-47.189 25.515-6.869 4.309-14.507 8.875-22.187 13.355 60.032 98.091 167.808 163.883 290.987 163.883zM512 106.667c-188.203 0-341.333 153.131-341.333 341.333 0 34.56 5.248 67.84 14.848 99.285 4.011-2.475 7.893-4.693 12.075-7.381 17.536-11.093 37.376-23.637 62.549-33.109 28.544-10.88 59.691-16.128 95.275-16.128 35.541 0 66.731 5.248 95.36 16.085 25.045 9.515 44.843 22.016 62.805 33.323 16.128 10.112 29.995 18.901 47.061 25.387 18.987 7.168 39.637 10.539 65.067 10.539s46.080-3.371 65.067-10.581c17.024-6.4 30.933-15.189 47.531-25.685 17.451-11.008 37.248-23.509 62.293-32.981 15.488-5.888 31.915-9.771 49.195-12.416 2.091-15.232 3.541-30.592 3.541-46.336 0-188.203-153.131-341.333-341.333-341.333zM426.667 384c0-35.346-28.654-64-64-64s-64 28.654-64 64c0 35.346 28.654 64 64 64s64-28.654 64-64zM725.333 384c0-35.346-28.654-64-64-64s-64 28.654-64 64c0 35.346 28.654 64 64 64s64-28.654 64-64z" fill="currentColor" />
  </g>
</svg>
