<?xml version="1.0" encoding="utf-8"?>
<svg xmlns="http://www.w3.org/2000/svg" viewBox="0 0 1024 1024" width="24" height="24">
  <g transform="scale(1, -1) translate(0, -960)">
    <path d="M836.949 683.52l0.597 0.725-170.667 138.24-53.76-66.304 88.192-71.424c-37.021-22.77-61.335-63.060-61.335-109.030 0-7.576 0.66-14.998 1.927-22.211l-0.111 0.766c6.357-38.357 32.683-71.509 66.773-90.112 38.272-20.907 71.893-19.029 101.717-8.405l-0.64-263.765c0.001-0.092 0.001-0.201 0.001-0.31 0-23.47-19.026-42.496-42.496-42.496-6.077 0-11.856 1.276-17.084 3.574l0.273-0.107c-5.28 2.292-9.784 5.415-13.563 9.253l-0.005 0.005c-7.672 7.687-12.416 18.299-12.416 30.018 0 0.022 0 0.043 0 0.065v-0.003l0.981 85.333c0 0.097 0 0.211 0 0.326 0 35.199-14.303 67.058-37.415 90.081l-0.004 0.004c-23.167 23.216-55.196 37.582-90.58 37.589h-42.668v341.333c0 47.061-38.272 85.333-85.333 85.333h-298.667c-47.061 0-85.333-38.272-85.333-85.333v-597.333c0-47.061 38.272-85.333 85.333-85.333h298.667c47.061 0 85.333 38.272 85.333 85.333v170.667h42.667c5.803 0 11.392-1.152 16.683-3.328 10.188-4.537 18.155-12.532 22.545-22.461l0.111-0.28c2.104-4.861 3.328-10.522 3.328-16.469 0-0.045 0-0.090 0-0.135v0.007l-1.024-85.333c0-17.323 3.371-34.091 10.069-49.835 6.443-15.317 15.701-29.013 27.349-40.576 22.978-23.215 54.849-37.59 90.077-37.59 0.177 0 0.355 0 0.532 0.001h-0.027c17.323 0 34.048 3.328 49.835 10.069 15.275 6.4 29.013 15.659 40.576 27.349 23.218 23.063 37.59 55.007 37.59 90.307 0 0.096 0 0.193 0 0.289v-0.015l1.024 384c-0.092 44.975-23.388 84.489-58.549 107.216l-0.502 0.304zM170.667 746.667h298.667l0.043-170.667h-298.709v170.667zM170.667 149.333v341.333h298.709l0.043-341.333h-298.752zM768 533.333c-23.564 0-42.667 19.103-42.667 42.667s19.103 42.667 42.667 42.667v0c23.564 0 42.667-19.103 42.667-42.667s-19.103-42.667-42.667-42.667v0z" fill="currentColor" />
  </g>
</svg>
