<?xml version="1.0" encoding="utf-8"?>
<svg xmlns="http://www.w3.org/2000/svg" viewBox="0 0 1024 1024" width="24" height="24">
  <g transform="scale(1, -1) translate(0, -960)">
    <path d="M937.685 371.925l-85.333 384c-4.422 19.25-21.4 33.392-41.684 33.408h-128.002v-85.333h93.781l41.003-184.576c-20.937 8.712-45.252 13.814-70.746 13.909h-0.038c-83.328 0-153.728-53.675-180.224-128h-108.928c-26.496 74.325-96.896 128-180.224 128-25.045 0-48.853-5.163-70.784-13.909l41.045 184.576h93.781v85.333h-128c-20.28-0.004-37.253-14.155-41.588-33.122l-0.055-0.286-85.333-384 2.005-0.469c-1.691-8.914-2.782-19.301-3.025-29.898l-0.004-0.224c0-105.856 86.144-192 192-192 98.56 0 179.072 74.923 189.824 170.667h89.685c10.752-95.744 91.264-170.667 189.824-170.667 105.856 0 192 86.144 192 192 0 10.325-1.451 20.267-3.029 30.123l2.048 0.469zM277.333 234.667c-58.795 0-106.667 47.872-106.667 106.667s47.872 106.667 106.667 106.667 106.667-47.872 106.667-106.667-47.872-106.667-106.667-106.667zM746.667 234.667c-58.837 0-106.667 47.872-106.667 106.667s47.829 106.667 106.667 106.667 106.667-47.872 106.667-106.667-47.829-106.667-106.667-106.667z" fill="currentColor" />
  </g>
</svg>
