<?xml version="1.0" encoding="utf-8"?>
<svg xmlns="http://www.w3.org/2000/svg" viewBox="0 0 1024 1024" width="24" height="24">
  <g transform="scale(1, -1) translate(0, -960)">
    <path d="M811.093 313.045v305.749c-0.213 68.523-45.952 170.539-171.093 170.539v85.333l-170.667-128 170.667-128v85.333c78.037 0 85.376-65.664 85.76-85.333v-305.621c-61.44-18.517-106.667-74.965-106.667-142.379 0-82.347 66.987-149.333 149.333-149.333s149.333 66.987 149.333 149.333c0 67.413-45.227 123.861-106.667 142.379zM768.427 106.667c-35.285 0-64 28.715-64 64s28.715 64 64 64 64-28.715 64-64-28.715-64-64-64zM405.333 725.333c0 82.347-66.987 149.333-149.333 149.333s-149.333-66.987-149.333-149.333c0-67.413 45.227-123.861 106.667-142.379v-269.909c-61.44-18.517-106.667-74.965-106.667-142.379 0-82.347 66.987-149.333 149.333-149.333s149.333 66.987 149.333 149.333c0 67.413-45.227 123.861-106.667 142.379v269.909c61.44 18.517 106.667 74.965 106.667 142.379zM192 725.333c0 35.285 28.715 64 64 64s64-28.715 64-64-28.715-64-64-64-64 28.715-64 64zM320 170.667c0-35.285-28.715-64-64-64s-64 28.715-64 64 28.715 64 64 64 64-28.715 64-64z" fill="currentColor" />
  </g>
</svg>
