<?xml version="1.0" encoding="utf-8"?>
<svg xmlns="http://www.w3.org/2000/svg" viewBox="0 0 1024 1024" width="24" height="24">
  <g transform="scale(1, -1) translate(0, -960)">
    <path d="M936.448 461.483l-85.333 256c-5.777 17.095-21.671 29.184-40.388 29.184-0.021 0-0.042 0-0.063 0h-127.997v-85.333h97.237l56.917-170.667h-196.821c-47.061 0-85.333-38.272-85.333-85.333h-85.333c0 47.061-38.272 85.333-85.333 85.333h-196.821l56.917 170.667h97.237v85.333h-128c-0.009 0-0.019 0-0.029 0-18.725 0-34.627-12.087-40.33-28.884l-0.088-0.3-85.333-256 0.512-0.171c-1.593-3.932-2.582-8.486-2.729-13.252l-0.001-0.060v-170.667c0-70.571 57.429-128 128-128h128c70.571 0 128 57.429 128 128v42.667h85.333v-42.667c0-70.571 57.429-128 128-128h128c70.571 0 128 57.429 128 128v170.667c-0.161 4.84-1.133 9.408-2.784 13.635l0.096-0.28 0.469 0.128zM384 277.333c0-23.509-19.115-42.667-42.667-42.667h-128c-23.552 0-42.667 19.157-42.667 42.667v128h213.333v-128zM853.333 277.333c0-23.509-19.115-42.667-42.667-42.667h-128c-23.552 0-42.667 19.157-42.667 42.667v128h213.333v-128z" fill="currentColor" />
  </g>
</svg>
