<?xml version="1.0" encoding="utf-8"?>
<svg xmlns="http://www.w3.org/2000/svg" viewBox="0 0 1024 1024" width="24" height="24">
  <g transform="scale(1, -1) translate(0, -960)">
    <path d="M469.333 158.251v-51.584h-85.333v-85.333h256v85.333h-85.333v78.72c50.852 22.32 94.291 52.27 131.038 88.926l-0.009-0.009c166.315 166.315 166.315 437.035 0 603.435l-60.331-60.331c133.077-133.12 133.077-349.653 0-482.731-133.077-133.035-349.653-133.12-482.731 0l-60.331-60.331c77.003-77.079 183.421-124.758 300.976-124.758 0.253 0 0.506 0 0.759 0.001h-0.039c30.212 0.008 59.683 3.162 88.11 9.151l-2.776-0.49zM128 576c0-141.184 114.816-256 256-256s256 114.816 256 256-114.816 256-256 256-256-114.816-256-256zM554.667 576c0-94.123-76.544-170.667-170.667-170.667s-170.667 76.544-170.667 170.667 76.544 170.667 170.667 170.667 170.667-76.544 170.667-170.667z" fill="currentColor" />
  </g>
</svg>
