<?xml version="1.0" encoding="utf-8"?>
<svg xmlns="http://www.w3.org/2000/svg" viewBox="0 0 1024 1024" width="24" height="24">
  <g transform="scale(1, -1) translate(0, -960)">
    <path d="M512 874.667c-211.755 0-384-172.288-384-384v-341.333h2.176c10.453-72.149 72.107-128 147.157-128 50.091 0 88.491 17.792 114.005 50.091 30.831-30.953 73.49-50.106 120.621-50.106 47.427 0 90.325 19.394 121.195 50.685l0.019 0.019c25.643-32.512 64.171-50.688 113.493-50.688 82.347 0 149.333 66.987 149.333 149.333v320c0 211.712-172.245 384-384 384zM810.667 170.667c0-35.285-28.715-64-64-64-19.157 0-64 0-64 85.333v42.667h-85.333v-42.667c0-47.061-38.272-85.333-85.333-85.333s-85.333 38.272-85.333 85.333v42.667h-85.333v-42.667c0-78.72-33.024-85.333-64-85.333-35.285 0-64 28.715-64 64v320c0 164.693 134.016 298.667 298.667 298.667s298.667-133.973 298.667-298.667v-320zM469.333 533.333c0-47.128-38.205-85.333-85.333-85.333s-85.333 38.205-85.333 85.333c0 47.128 38.205 85.333 85.333 85.333s85.333-38.205 85.333-85.333zM725.333 533.333c0-47.128-38.205-85.333-85.333-85.333s-85.333 38.205-85.333 85.333c0 47.128 38.205 85.333 85.333 85.333s85.333-38.205 85.333-85.333z" fill="currentColor" />
  </g>
</svg>
