<?xml version="1.0" encoding="utf-8"?>
<svg xmlns="http://www.w3.org/2000/svg" viewBox="0 0 1024 1024" width="24" height="24">
  <g transform="scale(1, -1) translate(0, -960)">
    <path d="M893.312 638.72c-72.96 145.536-219.051 235.947-381.312 235.947-235.264 0-426.667-191.403-426.667-426.667s191.403-426.667 426.667-426.667c162.261 0 308.352 90.411 381.312 235.947 2.853 5.57 4.526 12.152 4.526 19.124 0 15.763-8.548 29.529-21.26 36.916l-0.204 0.109-235.648 134.571 235.605 134.528c19.669 11.264 27.136 35.925 16.981 56.192zM533.504 485.035c-12.949-7.479-21.523-21.255-21.523-37.035s8.574-29.556 21.318-36.925l0.205-0.11 263.381-150.4c-61.453-93.225-165.686-153.9-284.090-153.9-0.28 0-0.559 0-0.838 0.001h0.043c-188.203 0-341.333 153.131-341.333 341.333s153.131 341.333 341.333 341.333c0.237 0.001 0.519 0.001 0.8 0.001 118.393 0 222.619-60.656 283.298-152.587l0.787-1.269-263.381-150.443zM554.667 640c0-35.346-28.654-64-64-64s-64 28.654-64 64c0 35.346 28.654 64 64 64s64-28.654 64-64z" fill="currentColor" />
  </g>
</svg>
