<?xml version="1.0" encoding="utf-8"?>
<svg xmlns="http://www.w3.org/2000/svg" viewBox="0 0 1024 1024" width="24" height="24">
  <g transform="scale(1, -1) translate(0, -960)">
    <path d="M640 832h-427.349c-47.061 0-85.333-38.272-85.333-85.333v-598.016c0-47.061 38.272-85.333 85.333-85.333h598.016c47.061 0 85.333 38.272 85.333 85.333v598.016c0 47.061-38.272 85.333-85.333 85.333h-170.667zM810.667 618.667h-128v128h128v-128zM212.651 533.333h128v-171.349h-128v171.349zM425.984 533.333h171.349v-171.349h-171.349v171.349zM682.667 533.333h128v-171.349h-128v171.349zM597.333 746.667v-128h-171.349v128h171.349zM340.651 746.667v-128h-128v128h128zM212.651 276.651h128v-128h-128v128zM425.984 148.651v128h171.349v-128h-171.349zM682.667 148.651v128h128.043v-128h-128.043z" fill="currentColor" />
  </g>
</svg>
