<?xml version="1.0" encoding="utf-8"?>
<svg xmlns="http://www.w3.org/2000/svg" viewBox="0 0 1024 1024" width="24" height="24">
  <g transform="scale(1, -1) translate(0, -960)">
    <path d="M512 149.333c40.363 0 77.227 4.395 110.848 11.989l-74.965 74.965c-11.648-0.896-23.467-1.621-35.883-1.621-228.309 0-316.757 164.096-338.176 213.333 17.093 37.646 38.663 69.992 64.59 98.28l-0.248-0.275-59.648 59.648c-65.621-71.125-90.496-142.763-90.965-144.171-1.399-4.029-2.207-8.672-2.207-13.504s0.808-9.475 2.297-13.802l-0.089 0.298c0.896-2.816 98.773-285.141 424.448-285.141zM512 746.667c-78.379 0-142.763-16.896-196.437-41.856l-157.397 157.355-60.331-60.331 768-768 60.331 60.331-141.611 141.611c111.531 83.243 151.339 196.907 151.936 198.699 1.399 4.029 2.207 8.672 2.207 13.504s-0.808 9.475-2.297 13.802l0.089-0.298c-0.939 2.859-98.816 285.184-424.491 285.184zM724.139 296.192l-97.28 97.28c8.107 16.64 13.141 34.944 13.141 54.528 0 70.016-57.984 128-128 128-19.584 0-37.888-5.035-54.485-13.184l-77.141 77.141c38.228 13.557 82.318 21.391 128.238 21.391 1.191 0 2.382-0.005 3.57-0.016l-0.182 0.001c228.309 0 316.757-164.096 338.176-213.333-12.885-29.525-49.749-99.925-126.037-151.808z" fill="currentColor" />
  </g>
</svg>
