<?xml version="1.0" encoding="utf-8"?>
<svg xmlns="http://www.w3.org/2000/svg" viewBox="0 0 1024 1024" width="24" height="24">
  <g transform="scale(1, -1) translate(0, -960)">
    <path d="M853.333 448v72.832c0 189.525-148.437 348.203-330.88 353.707-94.037 2.176-181.376-31.403-248.149-96.256-63.935-61.66-103.639-148.072-103.639-243.757 0-0.419 0.001-0.838 0.002-1.257v0.065-85.333c-47.061 0-85.333-38.272-85.333-85.333v-170.667c0-47.061 38.272-85.333 85.333-85.333h85.333v426.667c-0.001 0.277-0.002 0.604-0.002 0.931 0 71.75 29.766 136.548 77.622 182.719l0.076 0.073c45.893 44.709 108.668 72.284 177.883 72.284 2.909 0 5.806-0.049 8.692-0.145l-0.42 0.011c136.875-4.096 248.149-124.501 248.149-268.373v-414.165h85.333c47.061 0 85.333 38.272 85.333 85.333v170.667c0 47.061-38.272 85.333-85.333 85.333zM298.667 448h85.333v-341.333h-85.333zM640 448h85.333v-341.333h-85.333z" fill="currentColor" />
  </g>
</svg>
