<?xml version="1.0" encoding="utf-8"?>
<svg xmlns="http://www.w3.org/2000/svg" viewBox="0 0 1024 1024" width="24" height="24">
  <g transform="scale(1, -1) translate(0, -960)">
    <path d="M937.941 370.304l-78.976 434.347c-7.475 40.080-42.179 70.016-83.876 70.016-0.017 0-0.035 0-0.052 0h-526.077c-0.002 0-0.003 0-0.005 0-41.744 0-76.487-29.974-83.881-69.573l-0.082-0.528-78.933-434.261 0.811-0.128c-0.512-2.56-1.536-4.864-1.536-7.509v-213.333c0-47.061 38.272-85.333 85.333-85.333h682.667c47.061 0 85.333 38.272 85.333 85.333v213.333c0 2.688-1.024 4.949-1.493 7.509l0.768 0.128zM248.96 789.333h526.123l69.845-384h-665.813l69.845 384zM170.667 149.333v170.667h682.667l0.085-170.667h-682.752zM725.333 277.333h85.333v-85.333h-85.333zM597.333 277.333h85.333v-85.333h-85.333z" fill="currentColor" />
  </g>
</svg>
