<?xml version="1.0" encoding="utf-8"?>
<svg xmlns="http://www.w3.org/2000/svg" viewBox="0 0 1024 1024" width="24" height="24">
  <g transform="scale(1, -1) translate(0, -960)">
    <path d="M891.52 637.739l-85.333 170.667c-7.17 14.1-21.57 23.592-38.186 23.595h-213.334c-16.171 0-30.933-9.131-38.187-23.595l-73.515-147.072h-186.965c-16.171 0-30.933-9.131-38.187-23.595l-85.333-170.667c-2.844-5.562-4.511-12.133-4.511-19.093s1.667-13.531 4.622-19.335l-0.112 0.242 85.333-170.667c7.253-14.421 22.016-23.552 38.187-23.552h186.965l73.557-147.072c7.137-14.098 21.516-23.595 38.114-23.595 0.011 0 0.021 0 0.032 0h213.332c16.171 0 30.933 9.131 38.187 23.595l85.333 170.667c2.844 5.562 4.511 12.133 4.511 19.093s-1.667 13.531-4.622 19.335l0.112-0.242-75.819 151.552 75.776 151.595c2.851 5.568 4.521 12.146 4.521 19.115 0 6.935-1.655 13.484-4.59 19.272l0.112-0.243zM581.035 746.667h160.597l64-128-64-128h-160.597l-64 128 64 128zM218.368 448l64 128h160.597l64-128-64-128h-160.597l-64 128zM741.632 149.333h-160.597l-64 128 64 128h160.597l64-128-64-128z" fill="currentColor" />
  </g>
</svg>
