<?xml version="1.0" encoding="utf-8"?>
<svg xmlns="http://www.w3.org/2000/svg" viewBox="0 0 1024 1024" width="24" height="24">
  <g transform="scale(1, -1) translate(0, -960)">
    <path d="M521.515 463.317l-9.515-9.387-9.557 9.387c-17.128 16.916-40.677 27.364-66.667 27.364s-49.539-10.448-66.676-27.374l0.010 0.010c-17.194-16.559-27.874-39.779-27.874-65.493s10.68-48.934 27.845-65.466l0.029-0.027 142.891-140.331 142.891 140.331c17.194 16.559 27.874 39.779 27.874 65.493s-10.68 48.934-27.845 65.466l-0.029 0.027c-17.135 16.918-40.691 27.368-66.688 27.368s-49.553-10.45-66.698-27.378l0.010 0.010zM926.165 478.165l-384 384c-7.716 7.729-18.382 12.51-30.165 12.51s-22.449-4.781-30.165-12.509l-384.001-384.001c-7.718-7.721-12.492-18.386-12.492-30.165 0-23.561 19.097-42.661 42.657-42.667h42.667v-298.667c0-47.061 38.272-85.333 85.333-85.333h512c47.061 0 85.333 38.272 85.333 85.333v298.667h42.667c23.56 0.005 42.658 19.106 42.658 42.667 0 11.78-4.774 22.445-12.492 30.165v0zM768.043 106.667h-512.043v408.96l256 256 256-256v-195.627l0.043-213.333z" fill="currentColor" />
  </g>
</svg>
