<?xml version="1.0" encoding="utf-8"?>
<svg xmlns="http://www.w3.org/2000/svg" viewBox="0 0 1024 1024" width="24" height="24">
  <g transform="scale(1, -1) translate(0, -960)">
    <path d="M426.667 469.333c0-58.91-47.756-106.667-106.667-106.667s-106.667 47.756-106.667 106.667c0 58.91 47.756 106.667 106.667 106.667s106.667-47.756 106.667-106.667zM734.080 661.333h-222.080c-23.564 0-42.667-19.103-42.667-42.667v0-298.667h-298.667v384h-85.333v-597.333h85.333v128h682.667v-128h85.333v350.080c-0.121 112.941-91.646 204.465-204.575 204.587h-0.011zM554.667 320v256h179.413c65.832-0.073 119.181-53.421 119.253-119.246v-136.754h-298.667z" fill="currentColor" />
  </g>
</svg>
