<?xml version="1.0" encoding="utf-8"?>
<svg xmlns="http://www.w3.org/2000/svg" viewBox="0 0 1024 1024" width="24" height="24">
  <g transform="scale(1, -1) translate(0, -960)">
    <path d="M512 192c170.667 0 213.333 170.667 213.333 170.667h-426.667s42.667-170.667 213.333-170.667zM512 21.333c235.264 0 426.667 191.403 426.667 426.667s-191.403 426.667-426.667 426.667-426.667-191.403-426.667-426.667 191.403-426.667 426.667-426.667zM512 789.333c188.203 0 341.333-153.131 341.333-341.333s-153.131-341.333-341.333-341.333-341.333 153.131-341.333 341.333 153.131 341.333 341.333 341.333zM364.16 420.949l87.467 88.875c11.468 11.466 18.562 27.308 18.562 44.807 0 17.877-7.404 34.025-19.312 45.545l-0.018 0.017c-11.49 11.418-27.325 18.475-44.808 18.475-16.747 0-31.982-6.476-43.337-17.060l0.038 0.035c-11.217 10.179-26.178 16.409-42.595 16.409-17.885 0-34.042-7.395-45.581-19.294l-0.016-0.016c-25.003-25.6-24.704-65.28 0.811-90.325l88.789-87.467zM662.827 420.949l87.467 88.875c11.468 11.466 18.562 27.308 18.562 44.807 0 17.877-7.404 34.025-19.312 45.545l-0.018 0.017c-11.49 11.418-27.325 18.475-44.808 18.475-16.747 0-31.982-6.476-43.337-17.060l0.038 0.035c-11.223 10.203-26.202 16.45-42.64 16.45-17.884 0-34.040-7.394-45.579-19.292l-0.016-0.016c-25.003-25.6-24.704-65.28 0.811-90.325l88.832-87.509z" fill="currentColor" />
  </g>
</svg>
