<?xml version="1.0" encoding="utf-8"?>
<svg xmlns="http://www.w3.org/2000/svg" viewBox="0 0 1024 1024" width="24" height="24">
  <g transform="scale(1, -1) translate(0, -960)">
    <path d="M469.333 789.333c0-47.128-38.205-85.333-85.333-85.333s-85.333 38.205-85.333 85.333c0 47.128 38.205 85.333 85.333 85.333s85.333-38.205 85.333-85.333zM724.48 328.363c-4.039 19.69-21.219 34.291-41.812 34.304h-176.343l-18.304 128h194.645v85.333h-206.805l-6.955 48.725c-3.070 20.814-20.808 36.608-42.234 36.608-0.002 0-0.004 0-0.006 0h-42.666c-23.574-0.081-42.653-19.209-42.653-42.794 0-2.092 0.15-4.149 0.44-6.161l-0.027 0.23 37.419-262.059c6.296-41.55 41.685-73.051 84.463-73.216h184.038l35.797-179.029c4.011-19.925 21.504-34.304 41.856-34.304h128v85.333h-93.056l-35.797 179.029zM533.76 213.333c-31.531-62.976-96-106.667-171.093-106.667-105.99 0.121-191.879 86.010-192 191.989v0.011c0.155 80.042 49.232 148.583 118.915 177.325l1.277 0.467-12.331 86.4c-111.915-35.712-193.195-140.629-193.195-264.192 0-152.917 124.416-277.333 277.333-277.333 99.781 0.143 187.188 52.983 235.899 132.174l0.688 1.202-11.691 58.624h-53.803z" fill="currentColor" />
  </g>
</svg>
