<?xml version="1.0" encoding="utf-8"?>
<svg xmlns="http://www.w3.org/2000/svg" viewBox="0 0 1024 1024" width="24" height="24">
  <g transform="scale(1, -1) translate(0, -960)">
    <path d="M542.293 862.293c-7.733 7.795-18.45 12.621-30.293 12.621s-22.56-4.826-30.291-12.618l-384.003-384.003c-7.795-7.733-12.621-18.45-12.621-30.293s4.826-22.56 12.618-30.291l0.003-0.003c7.709-7.648 18.326-12.374 30.047-12.374 0.087 0 0.173 0 0.26 0.001h42.654v-298.667c0-47.128 38.205-85.333 85.333-85.333v0h512c47.128 0 85.333 38.205 85.333 85.333v0 298.667h42.667c23.564 0 42.667 19.103 42.667 42.667v0c0 0.073 0.001 0.16 0.001 0.247 0 11.721-4.726 22.338-12.377 30.049l0.003-0.003zM256 106.667v409.173l256 256 256-256v-409.173z" fill="currentColor" />
  </g>
</svg>
