<?xml version="1.0" encoding="utf-8"?>
<svg xmlns="http://www.w3.org/2000/svg" viewBox="0 0 1024 1024" width="24" height="24">
  <g transform="scale(1, -1) translate(0, -960)">
    <path d="M128 405.333h42.667v-298.667c0-47.061 38.272-85.333 85.333-85.333h512c47.061 0 85.333 38.272 85.333 85.333v298.667h42.667c23.56 0.005 42.658 19.106 42.658 42.667 0 11.78-4.774 22.445-12.492 30.165l-384 384c-7.716 7.729-18.382 12.51-30.165 12.51s-22.449-4.781-30.165-12.509l-384.001-384.001c-7.718-7.721-12.492-18.386-12.492-30.165 0-23.561 19.097-42.661 42.657-42.667h0.001zM512 771.669l256-256v-195.669l0.043-213.333h-512.043v408.96l256 256.043zM512 234.667c94.123 0 170.667 76.544 170.667 170.667s-76.544 170.667-170.667 170.667-170.667-76.544-170.667-170.667 76.544-170.667 170.667-170.667zM512 490.667c47.061 0 85.333-38.272 85.333-85.333s-38.272-85.333-85.333-85.333-85.333 38.272-85.333 85.333 38.272 85.333 85.333 85.333z" fill="currentColor" />
  </g>
</svg>
