<?xml version="1.0" encoding="utf-8"?>
<svg xmlns="http://www.w3.org/2000/svg" viewBox="0 0 1024 1024" width="24" height="24">
  <g transform="scale(1, -1) translate(0, -960)">
    <path d="M883.499 711.424l-150.827 150.741c-7.716 7.729-18.383 12.511-30.166 12.511-11.656 0-22.219-4.678-29.914-12.26l0.005 0.005-369.835-364.075c-5.601-5.546-9.687-12.611-11.588-20.528l-0.060-0.294-43.691-189.312-76.757-96.213h120.661l48.725 48.171 153.088 35.328c7.68 1.792 14.72 5.675 20.352 11.179l369.792 364.16c7.859 7.743 12.728 18.503 12.728 30.399 0 11.791-4.783 22.465-12.514 30.187v0zM483.755 377.216l-90.496 90.453 309.035 304.256 90.453-90.453-308.992-304.256zM170.667 106.667h682.667v-85.333h-682.667z" fill="currentColor" />
  </g>
</svg>
