<?xml version="1.0" encoding="utf-8"?>
<svg xmlns="http://www.w3.org/2000/svg" viewBox="0 0 1024 1024" width="24" height="24">
  <g transform="scale(1, -1) translate(0, -960)">
    <path d="M128 405.333h42.667v-298.667c0-47.061 38.272-85.333 85.333-85.333h512c47.061 0 85.333 38.272 85.333 85.333v298.667h42.667c23.56 0.005 42.658 19.106 42.658 42.667 0 11.78-4.774 22.445-12.492 30.165l-384 384c-7.716 7.729-18.382 12.51-30.165 12.51s-22.449-4.781-30.165-12.509l-384.001-384.001c-7.718-7.721-12.492-18.386-12.492-30.165 0-23.561 19.097-42.661 42.657-42.667h0.001zM512 771.669l256-256v-195.669l0.043-213.333h-512.043v409.003l256 256zM512 192c157.995 0 209.109 150.997 211.2 157.397l-81.067 26.496c-0.341-0.981-33.323-98.56-130.133-98.56-95.488 0-128.853 94.763-130.176 98.816l-81.024-26.752c2.091-6.4 53.205-157.397 211.2-157.397z" fill="currentColor" />
  </g>
</svg>
