<?xml version="1.0" encoding="utf-8"?>
<svg xmlns="http://www.w3.org/2000/svg" viewBox="0 0 1024 1024" width="24" height="24">
  <g transform="scale(1, -1) translate(0, -960)">
    <path d="M896 320c0 0.101 0 0.221 0 0.341 0 27.212-2.796 53.771-8.117 79.406l0.437-2.52c-5.636 27.43-13.439 51.552-23.53 74.437l0.917-2.33c-10.439 24.493-22.296 45.535-36.135 65.074l0.722-1.074c-14.391 21.242-29.834 39.801-46.906 56.719l-0.028 0.027c-17.243 17.754-36.238 33.631-56.759 47.411l-1.268 0.802c-18.818 13.186-40.295 25.058-63.006 34.568l-2.274 0.845-20.053 8.107v64.853c0 23.564-19.103 42.667-42.667 42.667v0h-170.667c-23.564 0-42.667-19.103-42.667-42.667v0-64.853l-21.333-8.107c-24.493-10.439-45.535-22.296-65.074-36.135l1.074 0.722c-21.29-14.256-39.86-29.71-56.69-46.875l-0.057-0.058c-17.754-17.243-33.631-36.238-47.411-56.759l-0.802-1.268c-13.186-18.818-25.058-40.295-34.568-63.006l-0.845-2.274c-9.009-20.464-16.803-44.574-22.161-69.587l-0.452-2.52c-4.819-22.803-7.613-49.029-7.68-75.895v-128.051h-42.667v-85.333h853.333v85.333h-42.667zM213.333 320c0.048 21.315 2.22 42.094 6.316 62.173l-0.343-2.013c4.367 21.267 10.403 39.965 18.206 57.71l-0.713-1.817c8.302 19.518 17.442 36.205 27.996 51.859l-0.69-1.086c22.002 32.126 48.94 59.065 80.029 80.394l1.038 0.673c10.981 7.354 23.705 14.603 36.945 20.948l1.882 0.812v-269.653h85.333v384h85.333v-384h85.333v269.653c15.241-7.337 27.959-14.581 40.144-22.571l-1.318 0.811c15.878-11.342 29.826-23.394 42.582-36.605l0.085-0.088c13.283-12.747 25.211-26.707 35.672-41.763l0.594-0.904c10.438-14.651 19.74-31.362 27.109-49.079l0.625-1.694c6.922-15.832 12.949-34.518 17.131-53.891l0.362-2.002c4.37-18.384 7.139-39.656 7.673-61.483l0.007-0.383v-128h-597.333z" fill="currentColor" />
  </g>
</svg>
