<?xml version="1.0" encoding="utf-8"?>
<svg xmlns="http://www.w3.org/2000/svg" viewBox="0 0 1024 1024" width="24" height="24">
  <g transform="scale(1, -1) translate(0, -960)">
    <path d="M512 618.667v-213.333h213.333v85.333h-128v128zM908.459 597.461c-20.315 47.478-48.074 88.009-82.254 122.104l-0.008 0.008c-51.537 51.537-117.649 88.499-191.623 104.173l-2.511 0.445c-23.255 4.955-49.973 7.792-77.355 7.792s-54.1-2.837-79.877-8.234l2.523 0.442c-76.548-16.016-142.714-53.015-194.21-104.653l-0.009-0.009c-34.098-34.13-61.842-74.616-81.298-119.528l-0.964-2.499c-19.098-43.962-30.208-95.169-30.208-148.97 0-0.188 0-0.375 0-0.562v0.029l0.043-1.067h-85.376l128-169.6 128 169.6h-85.291l-0.043 1.067c0 0.182-0.001 0.397-0.001 0.613 0 62.082 19.059 119.713 51.645 167.36l-0.658-1.018c21.855 32.024 48.673 58.857 79.651 80.058l1.032 0.667c30.47 20.79 66.28 36.406 104.829 44.62l1.965 0.351c18.090 3.893 38.872 6.122 60.175 6.122 143.653 0 263.629-101.376 292.289-236.489l0.347-1.953c3.838-18.112 6.036-38.922 6.036-60.245s-2.198-42.134-6.379-62.216l0.343 1.971c-8.448-40.523-24.078-76.35-45.625-107.806l0.654 1.011c-10.667-15.829-22.912-30.72-36.437-44.203-26.56-26.528-58.054-48.124-92.986-63.29l-1.947-0.753c-15.903-6.954-34.641-12.957-54.077-17.064l-1.944-0.344c-18.105-3.836-38.908-6.032-60.224-6.032s-42.119 2.196-62.195 6.375l1.971-0.343c-40.488 8.471-76.282 24.083-107.728 45.586l1.019-0.658c-16.542 11.259-31.007 23.259-44.248 36.483l0.003-0.003-60.331-60.331c69.393-69.485 165.308-112.469 271.262-112.469 0.079 0 0.159 0 0.238 0h-0.012c53.968 0.023 105.339 11.113 151.975 31.125l-2.514-0.959c69.831 30.040 127.203 77.824 168.062 137.763l0.856 1.33c41.094 60.075 65.622 134.309 65.622 214.271 0 0.165 0 0.331 0 0.496v-0.025c0.001 0.236 0.001 0.514 0.001 0.793 0 53.698-11.111 104.801-31.159 151.136l0.951-2.468z" fill="currentColor" />
  </g>
</svg>
