<?xml version="1.0" encoding="utf-8"?>
<svg xmlns="http://www.w3.org/2000/svg" viewBox="0 0 1024 1024" width="24" height="24">
  <g transform="scale(1, -1) translate(0, -960)">
    <path d="M512 192c170.667 0 213.333 170.667 213.333 170.667h-426.667s42.667-170.667 213.333-170.667zM512 874.667c-235.264 0-426.667-191.403-426.667-426.667s191.403-426.667 426.667-426.667 426.667 191.403 426.667 426.667-191.403 426.667-426.667 426.667zM512 106.667c-188.203 0-341.333 153.131-341.333 341.333s153.131 341.333 341.333 341.333 341.333-153.131 341.333-341.333-153.131-341.333-341.333-341.333zM554.667 448l85.333-0.512c0.512 19.712 8.277 43.179 42.667 43.179s42.155-23.467 42.667-42.667h85.333c0 51.456-34.091 128-128 128s-128-76.544-128-128zM341.333 490.667c34.389 0 42.155-23.467 42.667-42.667h85.333c0 51.456-34.091 128-128 128s-128-76.544-128-128l85.333-0.512c0.512 19.712 8.277 43.179 42.667 43.179z" fill="currentColor" />
  </g>
</svg>
