<?xml version="1.0" encoding="utf-8"?>
<svg xmlns="http://www.w3.org/2000/svg" viewBox="0 0 1024 1024" width="24" height="24">
  <g transform="scale(1, -1) translate(0, -960)">
    <path d="M511.915 234.667l178.603 178.603c21.515 21.246 34.84 50.742 34.84 83.349s-13.326 62.103-34.828 83.338l-0.012 0.012c-21.251 21.504-50.745 34.822-83.349 34.822s-62.098-13.318-83.338-34.811l-0.011-0.011-11.861-11.904-11.904 11.904c-21.251 21.504-50.745 34.822-83.349 34.822s-62.098-13.318-83.338-34.811l-0.011-0.011c-21.504-21.251-34.822-50.745-34.822-83.349s13.318-62.098 34.811-83.338l178.571-178.614zM896 789.333c0 23.564-19.103 42.667-42.667 42.667v0h-682.667c-23.564 0-42.667-19.103-42.667-42.667v0-682.667c0-23.564 19.103-42.667 42.667-42.667v0h682.667c23.564 0 42.667 19.103 42.667 42.667v0 682.667zM810.667 149.333h-597.333v597.333h597.333v-597.333z" fill="currentColor" />
  </g>
</svg>
