<?xml version="1.0" encoding="utf-8"?>
<svg xmlns="http://www.w3.org/2000/svg" viewBox="0 0 1024 1024" width="24" height="24">
  <g transform="scale(1, -1) translate(0, -960)">
    <path d="M213.333 21.333h597.333c47.128 0 85.333 38.205 85.333 85.333v0 384c0 0.073 0.001 0.16 0.001 0.247 0 11.721-4.726 22.338-12.377 30.049l-341.33 341.33c-7.712 7.668-18.343 12.407-30.080 12.407s-22.368-4.74-30.082-12.409l-341.331-341.331c-7.861-7.709-12.749-18.426-12.8-30.284v-384.010c0-47.128 38.205-85.333 85.333-85.333v0zM426.667 106.667v213.333h170.667v-213.333zM213.333 473.173l298.667 298.667 298.667-298.667v-366.507h-128v213.333c0 47.128-38.205 85.333-85.333 85.333v0h-170.667c-47.128 0-85.333-38.205-85.333-85.333v0-213.333h-128z" fill="currentColor" />
  </g>
</svg>
