<?xml version="1.0" encoding="utf-8"?>
<svg xmlns="http://www.w3.org/2000/svg" viewBox="0 0 1024 1024" width="24" height="24">
  <g transform="scale(1, -1) translate(0, -960)">
    <path d="M512 704c-92.653-0.121-167.729-75.198-167.851-167.839v-0.012h85.333c0 45.525 37.035 82.517 82.517 82.517s82.517-36.992 82.517-82.517c0-25.515-20.523-44.032-51.883-69.376-10.833-8.521-20.44-16.884-29.62-25.688l0.137 0.131c-42.581-42.539-43.819-87.723-43.819-92.757v-28.459h85.333l-0.043 27.008c0.043 0.683 1.408 16.469 18.816 33.835 6.4 6.4 14.464 12.8 22.827 19.541 33.237 26.923 83.541 67.584 83.541 135.765-0.073 92.657-75.154 167.754-167.799 167.851h-0.009zM469.333 277.333h85.333v-85.333h-85.333zM512 874.667c-235.264 0-426.667-191.403-426.667-426.667s191.403-426.667 426.667-426.667 426.667 191.403 426.667 426.667-191.403 426.667-426.667 426.667zM512 106.667c-188.203 0-341.333 153.131-341.333 341.333s153.131 341.333 341.333 341.333 341.333-153.131 341.333-341.333-153.131-341.333-341.333-341.333z" fill="currentColor" />
  </g>
</svg>
