<?xml version="1.0" encoding="utf-8"?>
<svg xmlns="http://www.w3.org/2000/svg" viewBox="0 0 1024 1024" width="24" height="24">
  <g transform="scale(1, -1) translate(0, -960)">
    <path d="M853.333 874.667h-512c-47.061 0-85.333-38.272-85.333-85.333v-512c0-47.061 38.272-85.333 85.333-85.333h512c47.061 0 85.333 38.272 85.333 85.333v512c0 47.061-38.272 85.333-85.333 85.333zM341.333 277.333v512h512l0.085-512h-512.085zM170.667 618.667h-85.333v-512c0-47.061 38.272-85.333 85.333-85.333h512v85.333h-512v512zM512 448l-42.667 42.667-85.333-128h426.667l-170.667 256z" fill="currentColor" />
  </g>
</svg>
