<?xml version="1.0" encoding="utf-8"?>
<svg xmlns="http://www.w3.org/2000/svg" viewBox="0 0 1024 1024" width="24" height="24">
  <g transform="scale(1, -1) translate(0, -960)">
    <path d="M213.333 277.333h128v-128c0-47.061 38.272-85.333 85.333-85.333h384c47.061 0 85.333 38.272 85.333 85.333v384c0 47.061-38.272 85.333-85.333 85.333h-128v128c0 47.061-38.272 85.333-85.333 85.333h-384c-47.061 0-85.333-38.272-85.333-85.333v-384c0-47.061 38.272-85.333 85.333-85.333zM597.376 362.667l-0.043 170.667h0.043v-170.667zM810.667 533.333l0.043-384h-384.043v128h170.667c47.061 0 85.333 38.272 85.333 85.333v170.667h128zM213.333 746.667h384v-128h-170.667c-47.061 0-85.333-38.272-85.333-85.333v-170.667h-128v384z" fill="currentColor" />
  </g>
</svg>
