<?xml version="1.0" encoding="utf-8"?>
<svg xmlns="http://www.w3.org/2000/svg" viewBox="0 0 1024 1024" width="24" height="24">
  <g transform="scale(1, -1) translate(0, -960)">
    <path d="M889.173 644.267l60.16 59.733-181.333 181.333-59.733-60.16 59.733-60.587-59.733-60.587-90.88 90.88-60.16 60.587-60.16-60.587 29.867-30.293-398.933-398.507c-15.495-15.451-25.082-36.82-25.082-60.428 0-16.297 4.568-31.527 12.494-44.479l-0.212 0.374 55.467-93.44-96-97.28 60.16-60.16 97.28 96 93.44-55.893c12.201-7.359 26.9-11.778 42.619-11.946h0.048c0.398-0.007 0.867-0.010 1.337-0.010 23.659 0 45.068 9.628 60.525 25.18l398.511 398.511 30.293-29.867 60.587 60.16-151.467 151.467 60.587 59.733zM768 523.52l-398.507-398.933-113.493 67.413-67.413 113.493 36.693 37.12 120.747-120.747 60.587 60.16-120.747 120.747 60.16 60.16 120.747-120.32 60.16 60.16-120.747 120.747 60.587 60.16 120.747-120.747 60.16 60.587-120.747 120.747 60.587 59.733z" fill="currentColor" />
  </g>
</svg>
