<?xml version="1.0" encoding="utf-8"?>
<svg xmlns="http://www.w3.org/2000/svg" viewBox="0 0 1024 1024" width="24" height="24">
  <g transform="scale(1, -1) translate(0, -960)">
    <path d="M725.333 661.333c-89.344 0-154.069-66.859-213.376-142.763-59.307 75.904-123.989 142.763-213.291 142.763-117.632 0-213.333-95.701-213.333-213.333 0-0.155-0.001-0.338-0.001-0.521 0-58.683 23.79-111.81 62.251-150.263v0c38.326-38.634 91.438-62.55 150.135-62.55 0.183 0 0.366 0 0.549 0.001h0.483c89.131 0.213 153.813 67.072 213.163 142.976 59.349-76.032 124.075-142.976 213.419-142.976 117.632 0 213.333 95.701 213.333 213.333s-95.701 213.333-213.333 213.333zM298.581 320l-0.341-42.667v42.667c-34.091 0-66.133 13.312-90.197 37.461-23.038 23.168-37.279 55.105-37.279 90.368 0 70.693 57.231 128.018 127.888 128.17h0.015c56.747 0 109.227-61.355 159.829-127.915-50.688-66.517-103.168-127.957-159.915-128.085zM725.333 320c-56.747 0-109.269 61.44-159.957 128.085 50.645 66.56 103.125 127.915 159.957 127.915 70.571 0 128-57.429 128-128s-57.429-128-128-128z" fill="currentColor" />
  </g>
</svg>
