<?xml version="1.0" encoding="utf-8"?>
<svg xmlns="http://www.w3.org/2000/svg" viewBox="0 0 1024 1024" width="24" height="24">
  <g transform="scale(1, -1) translate(0, -960)">
    <path d="M853.333 661.333h-128v128c0 47.061-38.272 85.333-85.333 85.333h-256c-47.061 0-85.333-38.272-85.333-85.333v-128h-128c-47.061 0-85.333-38.272-85.333-85.333v-256c0-47.061 38.272-85.333 85.333-85.333h128v-128c0-47.061 38.272-85.333 85.333-85.333h256c47.061 0 85.333 38.272 85.333 85.333v128h128c47.061 0 85.333 38.272 85.333 85.333v256c0 47.061-38.272 85.333-85.333 85.333zM853.333 320h-213.333v-170.667h0.043v-42.667h-256.043v213.333h-213.333v256h213.333v213.333h256v-213.333h213.333v-256zM341.333 362.667v170.667l-128-85.333zM682.667 362.667l128 85.333-128 85.333zM426.667 618.667h170.667l-85.333 128zM512 149.333l85.333 128h-170.667zM597.333 448c0-47.128-38.205-85.333-85.333-85.333s-85.333 38.205-85.333 85.333c0 47.128 38.205 85.333 85.333 85.333s85.333-38.205 85.333-85.333z" fill="currentColor" />
  </g>
</svg>
