<?xml version="1.0" encoding="utf-8"?>
<svg xmlns="http://www.w3.org/2000/svg" viewBox="0 0 1024 1024" width="24" height="24">
  <g transform="scale(1, -1) translate(0, -960)">
    <path d="M682.667 405.333c0-23.564-19.103-42.667-42.667-42.667s-42.667 19.103-42.667 42.667c0 23.564 19.103 42.667 42.667 42.667s42.667-19.103 42.667-42.667zM768 490.667c0-23.564-19.103-42.667-42.667-42.667s-42.667 19.103-42.667 42.667c0 23.564 19.103 42.667 42.667 42.667s42.667-19.103 42.667-42.667zM426.667 576h-85.333v-85.333h-85.333v-85.333h85.333v-85.333h85.333v85.333h85.333v85.333h-85.333zM640 746.667h-256c-164.949 0-298.667-133.718-298.667-298.667v0c0-164.949 133.718-298.667 298.667-298.667v0h256c164.949 0 298.667 133.718 298.667 298.667v0c0 164.949-133.718 298.667-298.667 298.667v0zM640 234.667h-256c-117.821 0-213.333 95.513-213.333 213.333s95.513 213.333 213.333 213.333v0h256c117.821 0 213.333-95.513 213.333-213.333s-95.513-213.333-213.333-213.333v0z" fill="currentColor" />
  </g>
</svg>
