<?xml version="1.0" encoding="utf-8"?>
<svg xmlns="http://www.w3.org/2000/svg" viewBox="0 0 1024 1024" width="24" height="24">
  <g transform="scale(1, -1) translate(0, -960)">
    <path d="M938.667 590.933c-8.040 111.217-100.244 198.401-212.81 198.401-0.184 0-0.368 0-0.552-0.001h-426.639c-0.086 0-0.187 0-0.289 0-113.919 0-206.982-89.291-213.022-201.703l-0.023-0.537c-0.115-1.659-0.18-3.595-0.18-5.547s0.066-3.888 0.194-5.807l-0.014 0.26v-320c-0.002-0.254-0.002-0.555-0.002-0.856 0-82.003 66.477-148.48 148.48-148.48 0.301 0 0.602 0.001 0.902 0.003h-0.046c61.013 0 98.987 45.227 136.107 89.173 13.653 15.787 27.733 32.427 42.667 46.933 18.736 13.863 40.62 24.82 64.258 31.642l1.449 0.358c9.861 1.222 21.276 1.92 32.853 1.92s22.992-0.698 34.204-2.053l-1.35 0.133c25.086-7.18 46.97-18.137 66.267-32.395l-0.56 0.395c14.933-14.507 29.013-31.147 42.667-46.933 37.12-42.667 75.093-89.173 136.107-89.173 0.254-0.002 0.555-0.002 0.856-0.002 82.003 0 148.48 66.477 148.48 148.48 0 0.301-0.001 0.602-0.003 0.902v-0.046 320c0.11 1.658 0.173 3.595 0.173 5.547s-0.063 3.888-0.186 5.808l0.013-0.262zM853.333 256c0-35.346-28.654-64-64-64v0c-21.333 0-42.667 27.307-70.827 58.88-14.507 16.64-30.72 36.267-49.067 53.76-29.517 23.939-64.62 42.305-102.959 52.863l-2.001 0.47c-15.779 2.986-33.93 4.695-52.48 4.695s-36.701-1.708-54.305-4.976l1.825 0.281c-40.34-11.028-75.443-29.394-105.492-53.751l0.532 0.418c-18.347-17.493-34.56-37.12-49.067-53.76-26.453-31.573-49.493-58.88-70.827-58.88-35.346 0-64 28.654-64 64v0 320c0.099 0.959 0.156 2.073 0.156 3.2s-0.057 2.241-0.168 3.338l0.011-0.138c3.503 67.884 59.399 121.6 127.84 121.6 0.056 0 0.112 0 0.169 0h426.658c0.166 0.001 0.362 0.001 0.559 0.001 66.486 0 121.133-50.691 127.401-115.533l0.041-0.522v-5.12c-0.101-1.023-0.159-2.211-0.159-3.413s0.058-2.39 0.171-3.562l-0.012 0.149zM725.333 448c0-23.564-19.103-42.667-42.667-42.667s-42.667 19.103-42.667 42.667c0 23.564 19.103 42.667 42.667 42.667s42.667-19.103 42.667-42.667zM810.667 533.333c0-23.564-19.103-42.667-42.667-42.667s-42.667 19.103-42.667 42.667c0 23.564 19.103 42.667 42.667 42.667s42.667-19.103 42.667-42.667zM725.333 618.667c0-23.564-19.103-42.667-42.667-42.667s-42.667 19.103-42.667 42.667c0 23.564 19.103 42.667 42.667 42.667s42.667-19.103 42.667-42.667zM640 533.333c0-23.564-19.103-42.667-42.667-42.667s-42.667 19.103-42.667 42.667c0 23.564 19.103 42.667 42.667 42.667s42.667-19.103 42.667-42.667zM426.667 533.333c0-47.128-38.205-85.333-85.333-85.333s-85.333 38.205-85.333 85.333c0 47.128 38.205 85.333 85.333 85.333s85.333-38.205 85.333-85.333z" fill="currentColor" />
  </g>
</svg>
