<?xml version="1.0" encoding="utf-8"?>
<svg xmlns="http://www.w3.org/2000/svg" viewBox="0 0 1024 1024" width="24" height="24">
  <g transform="scale(1, -1) translate(0, -960)">
    <path d="M298.667 234.667c102.658 0.142 188.335 72.67 208.735 169.272l0.246 1.394h89.685v-85.333h85.333v85.333h85.333v-128h85.333v128h42.667v85.333h-388.352c-20.647 97.997-106.324 170.525-208.966 170.667h-0.016c-117.632 0-213.333-95.701-213.333-213.333s95.701-213.333 213.333-213.333zM298.667 576c70.571 0 128-57.429 128-128s-57.429-128-128-128-128 57.429-128 128 57.429 128 128 128z" fill="currentColor" />
  </g>
</svg>
