<?xml version="1.0" encoding="utf-8"?>
<svg xmlns="http://www.w3.org/2000/svg" viewBox="0 0 1024 1024" width="24" height="24">
  <g transform="scale(1, -1) translate(0, -960)">
    <path d="M512 874.667c-235.264 0-426.667-191.403-426.667-426.667s191.403-426.667 426.667-426.667 426.667 191.403 426.667 426.667-191.403 426.667-426.667 426.667zM512 106.667c-188.203 0-341.333 153.131-341.333 341.333s153.131 341.333 341.333 341.333 341.333-153.131 341.333-341.333-153.131-341.333-341.333-341.333zM512 192c170.667 0 213.333 170.667 213.333 170.667h-426.667s42.667-170.667 213.333-170.667zM749.013 583.168l-47.317 70.997-128-85.333c-11.504-7.773-18.967-20.766-18.967-35.502 0-16.612 9.484-31.009 23.333-38.071l0.242-0.112 170.667-85.333 38.187 76.331-104.917 52.437 66.773 44.587zM469.248 530.688c0.053 0.793 0.083 1.72 0.083 2.654 0 14.737-7.471 27.728-18.832 35.394l-0.152 0.096-128 85.333-47.36-70.997 66.816-44.544-104.917-52.437 38.187-76.331 170.667 85.333c13.328 6.748 22.524 19.946 23.503 35.375l0.006 0.124z" fill="currentColor" />
  </g>
</svg>
