<?xml version="1.0" encoding="utf-8"?>
<svg xmlns="http://www.w3.org/2000/svg" viewBox="0 0 1024 1024" width="24" height="24">
  <g transform="scale(1, -1) translate(0, -960)">
    <path d="M180.139 116.139c38.485-38.539 91.68-62.379 150.444-62.379 0.135 0 0.269 0 0.403 0h-0.021c0.11 0 0.241 0 0.372 0 58.78 0 111.992 23.839 150.495 62.377l120.663 120.706-60.331 60.331-120.661-120.704c-23.197-23.096-55.19-37.375-90.517-37.375s-67.32 14.278-90.522 37.379l0.005-0.005c-23.117 23.188-37.41 55.183-37.41 90.517s14.293 67.33 37.413 90.521l120.701 120.658-60.331 60.331-120.704-120.661c-38.543-38.634-62.377-91.958-62.377-150.848s23.833-112.214 62.381-150.852l-0.004 0.004zM843.861 478.165c38.523 38.643 62.341 91.964 62.341 150.848s-23.819 112.205-62.347 150.853l0.005-0.005c-38.634 38.543-91.958 62.377-150.848 62.377s-112.214-23.833-150.852-62.381l-120.657-120.7 60.331-60.331 120.661 120.704c23.197 23.096 55.19 37.375 90.517 37.375s67.32-14.278 90.522-37.379l-0.005 0.005c23.117-23.188 37.41-55.183 37.41-90.517s-14.293-67.33-37.413-90.521l-120.701-120.658 60.331-60.331 120.704 120.661zM361.131 236.8l-60.373 60.331 362.112 362.069 60.331-60.373z" fill="currentColor" />
  </g>
</svg>
