<?xml version="1.0" encoding="utf-8"?>
<svg xmlns="http://www.w3.org/2000/svg" viewBox="0 0 1024 1024" width="24" height="24">
  <g transform="scale(1, -1) translate(0, -960)">
    <path d="M916.651 485.333l-384.939 213.333c-5.964 3.368-13.095 5.352-20.689 5.352-7.564 0-14.667-1.968-20.827-5.42l0.215 0.111-383.061-211.627c-13.237-7.416-22.036-21.354-22.036-37.347 0-15.942 8.743-29.842 21.696-37.166l0.213-0.111 384.939-215.040c5.985-3.423 13.154-5.442 20.795-5.442 7.61 0 14.753 2.002 20.93 5.509l-0.21-0.11 383.061 213.333c13.177 7.432 21.93 21.338 21.93 37.288 0 15.985-8.79 29.916-21.8 37.225l-0.215 0.111zM512.981 283.52l-297.131 165.973 295.125 163.072 297.131-164.651-295.125-164.395zM512 21.333c0.008 0 0.017 0 0.027 0 7.59 0 14.714 1.994 20.877 5.486l-0.211-0.11 384 213.333-41.429 74.581-363.264-201.813-363.307 201.813-41.429-74.581 384-213.333c5.974-3.383 13.121-5.376 20.733-5.376 0.001 0 0.002 0 0.003 0v0zM853.333 874.667h-85.333v-85.333h-85.333v-85.333h85.333v-85.333h85.333v85.333h85.333v85.333h-85.333z" fill="currentColor" />
  </g>
</svg>
