<?xml version="1.0" encoding="utf-8"?>
<svg xmlns="http://www.w3.org/2000/svg" viewBox="0 0 1024 1024" width="24" height="24">
  <g transform="scale(1, -1) translate(0, -960)">
    <path d="M487.253 29.227c6.883-4.923 15.47-7.871 24.747-7.871s17.864 2.948 24.877 7.959l-0.13-0.088c12.971 9.259 317.824 229.333 316.587 504.107 0 188.203-153.131 341.333-341.333 341.333s-341.333-153.131-341.333-341.163c-1.237-274.944 303.616-495.019 316.587-504.277zM512 789.333c141.184 0 256-114.816 256-256.171 0.896-189.355-187.221-359.381-256-415.189-68.736 55.808-256.896 225.835-256 415.36 0 141.184 114.816 256 256 256zM469.333 362.667h85.333v128h128v85.333h-128v128h-85.333v-128h-128v-85.333h128z" fill="currentColor" />
  </g>
</svg>
