<?xml version="1.0" encoding="utf-8"?>
<svg xmlns="http://www.w3.org/2000/svg" viewBox="0 0 1024 1024" width="24" height="24">
  <g transform="scale(1, -1) translate(0, -960)">
    <path d="M512 874.667c-117.632 0-213.333-95.701-213.333-213.333v-128h-42.667c-47.061 0-85.333-38.272-85.333-85.333v-341.333c0-47.061 38.272-85.333 85.333-85.333h512c47.061 0 85.333 38.272 85.333 85.333v341.333c0 47.061-38.272 85.333-85.333 85.333h-42.667v128c0 117.632-95.701 213.333-213.333 213.333zM768 448l0.085-341.333h-512.085v341.333h512zM384 533.333v128c0 70.571 57.429 128 128 128s128-57.429 128-128v-128h-256z" fill="currentColor" />
  </g>
</svg>
