<?xml version="1.0" encoding="utf-8"?>
<svg xmlns="http://www.w3.org/2000/svg" viewBox="0 0 1024 1024" width="24" height="24">
  <g transform="scale(1, -1) translate(0, -960)">
    <path d="M85.333 448l213.333-170.667v128h384v85.333h-384v128zM554.709 832.043c-0.314 0.001-0.686 0.001-1.057 0.001-105.714 0-201.381-43.014-270.455-112.495l-0.018-0.018 60.331-60.331c56.405 56.405 131.413 87.509 211.2 87.509s154.795-31.104 211.2-87.509 87.509-131.413 87.509-211.2-31.104-154.795-87.509-211.2-131.413-87.509-211.2-87.509-154.795 31.104-211.2 87.509l-60.331-60.331c72.491-72.533 168.917-112.512 271.531-112.512s199.040 39.979 271.531 112.512c72.533 72.491 112.512 168.917 112.512 271.531s-39.979 199.040-112.512 271.531c-69.092 69.499-164.759 112.513-270.473 112.513-0.372 0-0.744-0.001-1.115-0.002h0.058z" fill="currentColor" />
  </g>
</svg>
