<?xml version="1.0" encoding="utf-8"?>
<svg xmlns="http://www.w3.org/2000/svg" viewBox="0 0 1024 1024" width="24" height="24">
  <g transform="scale(1, -1) translate(0, -960)">
    <path d="M512 746.752c-78.336 0-143.189-16.597-196.992-41.429l-156.843 156.843-60.331-60.331 141.44-141.483c-111.488-83.285-151.168-197.035-151.765-198.827l-4.48-13.483 4.48-13.483c0.939-2.859 98.816-285.227 424.491-285.227 78.293 0 143.104 16.597 196.907 41.429l156.928-156.928 60.331 60.331-141.525 141.525c111.531 83.285 151.253 197.035 151.851 198.827l4.48 13.483-4.48 13.483c-0.939 2.901-98.816 285.269-424.491 285.269zM173.824 448c4.395 10.069 11.691 25.003 22.229 42.197l250.325-250.325c-179.755 27.648-253.397 163.968-272.555 208.128zM568.363 238.635l-319.147 319.189c15.174 15.179 31.744 28.959 49.504 41.132l1.184 0.767 343.68-343.637c-21.641-7.723-47.060-13.838-73.328-17.25l-1.893-0.201zM724.011 296.32l-65.749 65.749c15.104 25.429 24.405 54.613 24.405 85.973 0 20.224-4.224 39.424-10.88 57.557-7.681-9.083-19.052-14.839-31.77-14.933h-0.016c-23.564 0-42.667 19.103-42.667 42.667v0c0 18.731 12.288 34.219 29.099 39.936-29.921 27.929-70.137 45.164-114.377 45.44h-0.055c-31.36 0-60.544-9.301-85.973-24.405l-45.653 45.653c38.367 13.608 82.617 21.472 128.703 21.472 1.028 0 2.055-0.004 3.081-0.012l-0.158 0.001c228.309 0 316.8-164.139 338.176-213.333-28.295-62.303-71.401-113.626-124.974-150.979l-1.191-0.787z" fill="currentColor" />
  </g>
</svg>
