<?xml version="1.0" encoding="utf-8"?>
<svg xmlns="http://www.w3.org/2000/svg" viewBox="0 0 1024 1024" width="24" height="24">
  <g transform="scale(1, -1) translate(0, -960)">
    <path d="M512 21.333c-0.228 0-0.497-0.001-0.766-0.001-49.563 0-97.118 8.597-141.255 24.381l2.929-0.914c-7.939 2.391-17.062 3.767-26.507 3.767-16.891 0-32.755-4.402-46.506-12.121l0.479 0.247c-19.323-9.742-42.116-15.446-66.242-15.446-13.925 0-27.406 1.901-40.198 5.456l1.053-0.25c-50.723 14.673-89.86 53.811-104.267 103.464l-0.266 1.070c-3.119 11.413-4.912 24.517-4.912 38.040 0 23.89 5.594 46.474 15.543 66.512l-0.392-0.872c7.472 13.272 11.873 29.135 11.873 46.027 0 9.445-1.376 18.568-3.939 27.18l0.172-0.673c-14.71 41.53-23.211 89.425-23.211 139.307s8.5 97.777 24.131 142.317l-0.92-3.011c42.5 125.301 138.836 222.337 260.726 264.915l2.954 0.898c41.53 14.71 89.425 23.211 139.307 23.211s97.777-8.5 142.317-24.131l-3.011 0.92c8.408-2.695 18.079-4.248 28.114-4.248 16.931 0 32.83 4.422 46.603 12.175l-0.477-0.247c19.323 9.742 42.116 15.446 66.242 15.446 13.925 0 27.406-1.901 40.198-5.456l-1.053 0.25c50.723-14.673 89.86-53.811 104.267-103.464l0.266-1.070c2.754-10.741 4.335-23.072 4.335-35.771 0-24.781-6.019-48.156-16.675-68.744l0.393 0.835c-7.472-13.272-11.873-29.135-11.873-46.027 0-9.445 1.376-18.568 3.939-27.18l-0.172 0.673c14.71-41.53 23.211-89.425 23.211-139.307s-8.5-97.777-24.131-142.317l0.92 3.011c-43.024-124.686-139.42-221.082-261.148-263.216l-2.958-0.891c-41.332-14.965-89.038-23.967-138.741-24.742l-0.352-0.004zM348.16 133.973c18.779-0.022 36.822-3.144 53.655-8.881l-1.175 0.348c33.312-11.929 71.744-18.824 111.787-18.824s78.475 6.895 114.174 19.563l-2.387-0.739c99.554 34.034 176.543 110.884 210.068 207.996l0.706 2.351c11.929 33.312 18.824 71.744 18.824 111.787s-6.895 78.475-19.563 114.174l0.739-2.387c-5.329 16.187-8.403 34.817-8.403 54.166 0 30.605 7.691 59.414 21.245 84.6l-0.468-0.952c4.015 8.223 6.362 17.892 6.362 28.11 0 6.401-0.921 12.587-2.638 18.432l0.116-0.462c-6.286 20.534-22.133 36.381-42.216 42.548l-0.45 0.119c-5.384 1.601-11.569 2.522-17.97 2.522-10.217 0-19.887-2.347-28.498-6.532l0.388 0.17c-24.234-13.086-53.042-20.777-83.648-20.777-19.349 0-37.979 3.074-55.43 8.76l1.264-0.356c-33.312 11.929-71.744 18.824-111.787 18.824s-78.475-6.895-114.174-19.563l2.387 0.739c-99.911-33.532-177.348-110.129-211.338-207.148l-0.716-2.345c-11.929-33.312-18.824-71.744-18.824-111.787s6.895-78.475 19.563-114.174l-0.739 2.387c5.329-16.187 8.403-34.817 8.403-54.166 0-30.605-7.691-59.414-21.245-84.6l0.468 0.952c-4.015-8.223-6.362-17.892-6.362-28.11 0-6.401 0.921-12.587 2.638-18.432l-0.116 0.462c6.286-20.534 22.133-36.381 42.216-42.548l0.45-0.119c5.384-1.601 11.569-2.522 17.97-2.522 10.217 0 19.887 2.347 28.498 6.532l-0.388-0.17c24.81 12.648 54.11 20.059 85.141 20.059 0.518 0 1.035-0.002 1.552-0.006h-0.079zM341.333 448h-85.333c0 141.385 114.615 256 256 256v0-85.333c-94.257 0-170.667-76.41-170.667-170.667v0z" fill="currentColor" />
  </g>
</svg>
