<?xml version="1.0" encoding="utf-8"?>
<svg xmlns="http://www.w3.org/2000/svg" viewBox="0 0 1024 1024" width="24" height="24">
  <g transform="scale(1, -1) translate(0, -960)">
    <path d="M225.365 445.269c-18.261-13.995-30.72-25.984-37.333-36.309-6.613-10.24-10.624-21.248-11.904-32.768h114.304v31.915h-59.477c3.456 3.456 6.485 6.443 9.045 8.576 2.645 2.133 7.765 6.059 15.403 11.52 12.928 9.301 21.803 17.92 26.709 25.771 4.949 7.936 7.381 16 7.381 24.661 0.003 0.171 0.004 0.372 0.004 0.574 0 7.929-2.408 15.295-6.533 21.407l0.086-0.136c-4.246 6.485-10.246 11.509-17.327 14.456l-0.252 0.093c-7.424 3.243-17.877 4.736-31.275 4.736-12.8 0-22.912-1.621-30.123-4.864-7.052-3.11-12.808-8.071-16.806-14.272l-0.090-0.15c-4.011-6.101-6.784-14.763-8.277-25.771l38.144-3.243c1.067 8.021 3.157 13.525 6.272 16.811 2.889 2.857 6.863 4.621 11.248 4.621 0.231 0 0.46-0.005 0.688-0.015l-0.033 0.001c4.693 0 8.533-1.493 11.605-4.608 2.842-2.683 4.612-6.476 4.612-10.682 0-0.115-0.001-0.229-0.004-0.343v0.017c-0.284-4.802-1.97-9.162-4.651-12.732l0.043 0.060c-3.157-4.352-10.283-10.837-21.461-19.328zM227.712 172.8c-0.158-0.005-0.344-0.008-0.53-0.008-4.443 0-8.487 1.706-11.513 4.499l0.012-0.011c-3.157 2.987-5.461 8.32-6.912 16.128l-38.101-5.035c2.517-8.704 6.059-15.872 10.709-21.589 4.651-5.675 10.581-10.027 17.792-13.056 7.168-2.944 17.024-4.395 29.525-4.395 12.8 0 23.083 2.005 30.933 5.973 7.673 3.888 13.849 9.777 17.981 16.986l0.11 0.208c4.181 7.467 6.229 15.104 6.229 23.211 0.008 0.281 0.013 0.612 0.013 0.944 0 5.771-1.392 11.218-3.86 16.021l0.092-0.197c-2.576 4.608-6.171 8.367-10.496 11.062l-0.128 0.074c-3.517 2.047-7.593 3.665-11.913 4.639l-0.289 0.055c5.975 3.074 10.918 7.389 14.636 12.632l0.084 0.125c3.022 4.476 4.824 9.993 4.824 15.931 0 0.144-0.001 0.289-0.003 0.433v-0.022c0.003 0.154 0.004 0.335 0.004 0.516 0 10.056-4.657 19.023-11.931 24.865l-0.062 0.048c-7.979 6.784-20.907 10.155-38.784 10.155-15.573 0-27.648-3.072-36.139-9.344-8.533-6.101-14.251-15.061-17.237-26.709l36.011-6.443c0.981 6.912 2.859 11.691 5.675 14.421s6.443 4.181 10.965 4.181c0.194 0.010 0.42 0.015 0.648 0.015 3.731 0 7.122-1.451 9.642-3.819l-0.007 0.007c2.517-2.56 3.712-5.931 3.712-10.155 0-4.437-1.621-8.235-4.992-11.52s-7.552-4.779-12.501-4.779c-1.796 0.056-3.503 0.224-5.174 0.5l0.225-0.031-1.92-27.691c3.63 1.256 7.832 2.109 12.192 2.382l0.139 0.007c5.632 0 10.112-1.749 13.355-5.376 3.285-3.499 4.907-8.491 4.907-15.019 0-6.229-1.707-11.349-5.077-15.104-3.096-3.514-7.607-5.719-12.632-5.719-0.074 0-0.148 0-0.222 0.001h0.011zM268.16 603.008v143.659h-31.531c-4.023-8.85-9.711-16.301-16.719-22.239l-0.091-0.075c-7.168-6.059-17.237-11.179-30.208-15.573v-32.171c15.362 4.317 28.72 11.358 40.186 20.643l-0.208-0.163v-94.123h38.571zM384 704h469.333v-85.333h-469.333zM384 490.667h469.333v-85.333h-469.333zM384 277.333h469.333v-85.333h-469.333z" fill="currentColor" />
  </g>
</svg>
