<?xml version="1.0" encoding="utf-8"?>
<svg xmlns="http://www.w3.org/2000/svg" viewBox="0 0 1024 1024" width="24" height="24">
  <g transform="scale(1, -1) translate(0, -960)">
    <path d="M933.547 868.267l-51.2-17.067c-57.747-20.727-124.376-32.709-193.803-32.709-28.105 0-55.751 1.963-82.808 5.76l3.118-0.359c-23.344 3.812-50.251 5.991-77.666 5.991-75.11 0-146.401-16.35-210.508-45.686l3.16 1.296c-95.089-41.232-164.329-126.277-182.761-228.954l-0.279-1.873c-3.895-20.129-6.123-43.278-6.123-66.947 0-80.544 25.801-155.062 69.589-215.74l-0.746 1.087c-2.56-8.96-5.12-17.92-7.253-26.88-16.274-66.313-25.609-142.442-25.609-220.752 0-1.442 0.003-2.883 0.009-4.324l-0.001 0.223h85.333c4.511 68.343 13.462 131.443 26.732 192.937l-1.559-8.617c54.213-29.84 118.818-47.396 187.523-47.396 1.874 0 3.746 0.013 5.614 0.039l-0.283-0.003c65.964 0.047 128.728 13.695 185.656 38.29l-3.043-1.17c324.693 138.667 282.027 599.893 282.027 619.093zM623.36 273.92c-111.36-47.36-244.48-39.253-319.147 19.2 14.033 46.337 31.576 86.489 53.143 124.037l-1.516-2.864c17.781 28.838 37.366 53.851 59.398 76.468l-0.092-0.095c22.55 22.903 47.893 42.952 75.505 59.622l1.722 0.965c54.662 33.235 118.869 56.966 187.509 67.077l2.784 0.337v42.667c-5.030 0.186-10.939 0.292-16.872 0.292-75.38 0-146.766-17.102-210.488-47.638l2.933 1.266c-72.658-35.977-132.122-89.011-174.76-154.065l-1.026-1.668c-14.375-22.399-28.619-48.574-41.023-75.765l-1.643-4.022c-12.973 32.233-20.498 69.607-20.498 108.738 0 17.809 1.559 35.253 4.547 52.205l-0.262-1.796c12.734 77.39 63.712 140.525 132.52 170.111l1.454 0.556c47.275 22.627 102.762 35.844 161.335 35.844 0.581 0 1.161-0.001 1.741-0.004h-0.089c26.453 0 52.48-2.56 79.787-4.693 26.563-3.617 57.264-5.682 88.447-5.682 59.504 0 117.251 7.519 172.345 21.659l-4.792-1.043c-2.987-117.76-24.32-392.96-232.96-481.707z" fill="currentColor" />
  </g>
</svg>
