<?xml version="1.0" encoding="utf-8"?>
<svg xmlns="http://www.w3.org/2000/svg" viewBox="0 0 1024 1024" width="24" height="24">
  <g transform="scale(1, -1) translate(0, -960)">
    <path d="M512.256 874.368c-0.441 0.002-0.963 0.003-1.486 0.003-117.306 0-223.477-47.674-300.196-124.703l-0.014-0.014c-166.315-166.315-166.315-436.992 0-603.392 80.427-80.427 187.563-124.715 301.696-124.715s221.312 44.288 301.696 124.715c166.315 166.357 166.315 437.035 0 603.392-76.739 77.044-182.916 124.717-300.228 124.717-0.516 0-1.032-0.001-1.548-0.003h0.079zM753.621 206.635c-64.299-64.299-150.016-99.712-241.365-99.712s-177.067 35.413-241.365 99.712c-133.035 133.077-133.035 349.611 0 482.688 64.299 64.299 150.059 99.712 241.365 99.712s177.067-35.413 241.365-99.712c133.035-133.077 133.035-349.611 0-482.688zM612.096 608.128l-137.173-137.173-90.667 90.667v-241.621h241.621l-90.624 90.624 137.173 137.173z" fill="currentColor" />
  </g>
</svg>
