<?xml version="1.0" encoding="utf-8"?>
<svg xmlns="http://www.w3.org/2000/svg" viewBox="0 0 1024 1024" width="24" height="24">
  <g transform="scale(1, -1) translate(0, -960)">
    <path d="M511.701 874.368c-0.464 0.002-1.014 0.003-1.564 0.003-117.274 0-223.417-47.657-300.119-124.661l-0.013-0.013c-166.357-166.357-166.357-437.035 0-603.435 76.739-77.044 182.916-124.717 300.228-124.717 0.516 0 1.032 0.001 1.548 0.003h-0.079c0.452-0.002 0.986-0.003 1.521-0.003 117.295 0 223.455 47.674 300.16 124.703l0.014 0.015c166.357 166.357 166.357 437.035 0 603.435-76.709 77.017-182.846 124.675-300.115 124.675-0.556 0-1.112-0.001-1.667-0.003h0.086zM753.067 206.635c-61.387-61.6-146.305-99.714-240.126-99.714-0.436 0-0.871 0.001-1.306 0.002h0.067c-91.349 0-177.067 35.413-241.365 99.712-133.077 133.077-133.077 349.653 0 482.731 61.389 61.574 146.296 99.672 240.102 99.672 0.444 0 0.889-0.001 1.333-0.003h-0.069c91.392 0 177.067-35.371 241.365-99.669 133.12-133.077 133.12-349.653 0-482.731zM625.365 576h-241.664v-241.621l90.667 90.624 137.173-137.131 60.331 60.331-137.173 137.131z" fill="currentColor" />
  </g>
</svg>
