<?xml version="1.0" encoding="utf-8"?>
<svg xmlns="http://www.w3.org/2000/svg" viewBox="0 0 1024 1024" width="24" height="24">
  <g transform="scale(1, -1) translate(0, -960)">
    <path d="M787.797 869.803c-5.746 3.083-12.572 4.894-19.821 4.894-9.073 0-17.483-2.837-24.391-7.673l0.137 0.091-554.667-384c-11.125-7.836-18.303-20.626-18.303-35.093s7.178-27.257 18.168-35.003l0.135-0.090 554.667-384c6.779-4.744 15.197-7.58 24.277-7.58 23.559 0 42.658 19.094 42.667 42.652v768.001c0 0.002 0 0.005 0 0.007 0 16.326-9.169 30.51-22.639 37.684l-0.23 0.112zM725.333 145.451l-437.035 302.549 437.035 302.549v-605.099z" fill="currentColor" />
  </g>
</svg>
