<?xml version="1.0" encoding="utf-8"?>
<svg xmlns="http://www.w3.org/2000/svg" viewBox="0 0 1024 1024" width="24" height="24">
  <g transform="scale(1, -1) translate(0, -960)">
    <path d="M298.667 874.667h-85.333v-128h-128v-85.333h128v-128h85.333v128h128v85.333h-128v128zM597.333 746.667h341.333v-85.333h-341.333v85.333zM597.333 320h341.333v-85.333h-341.333v85.333zM597.333 149.333h341.333v-85.333h-341.333v85.333zM353.707 350.293l-97.707-98.133-97.707 98.133-60.587-60.587 98.133-97.707-98.133-97.707 60.587-60.587 97.707 98.133 97.707-98.133 60.587 60.587-98.133 97.707 98.133 97.707-60.587 60.587z" fill="currentColor" />
  </g>
</svg>
