<?xml version="1.0" encoding="utf-8"?>
<svg xmlns="http://www.w3.org/2000/svg" viewBox="0 0 1024 1024" width="24" height="24">
  <g transform="scale(1, -1) translate(0, -960)">
    <path d="M853.333 789.333h-597.333c-47.061 0-85.333-38.272-85.333-85.333v-213.333h85.333v128l273.067-204.8c7.044-5.321 15.948-8.523 25.6-8.523s18.556 3.202 25.708 8.601l-0.108-0.078 273.067 204.8v-384h-341.333v-85.333h341.333c47.061 0 85.333 38.272 85.333 85.333v469.333c0 47.061-38.272 85.333-85.333 85.333zM554.667 501.333l-270.251 202.667h540.501l-270.251-202.667zM85.333 448h298.667v-85.333h-298.667zM170.667 320h256v-85.333h-256zM298.667 192h170.667v-85.333h-170.667z" fill="currentColor" />
  </g>
</svg>
