<?xml version="1.0" encoding="utf-8"?>
<svg xmlns="http://www.w3.org/2000/svg" viewBox="0 0 1024 1024" width="24" height="24">
  <g transform="scale(1, -1) translate(0, -960)">
    <path d="M682.667 874.667h-341.333c-47.061 0-85.333-38.272-85.333-85.333v-682.667c0-47.061 38.272-85.333 85.333-85.333h341.333c47.061 0 85.333 38.272 85.333 85.333v682.667c0 47.061-38.272 85.333-85.333 85.333zM341.333 106.667v682.667h341.333l0.043-682.667h-341.376zM128 661.333h85.333v85.333h-85.333v-21.333h-42.667v-42.667h42.667zM896 746.667h-85.333v-85.333h85.333v21.333h42.667v42.667h-42.667zM128 490.667h85.333v85.333h-85.333v-21.333h-42.667v-42.667h42.667zM896 576h-85.333v-85.333h85.333v21.333h42.667v42.667h-42.667zM128 320h85.333v85.333h-85.333v-21.333h-42.667v-42.667h42.667zM896 405.333h-85.333v-85.333h85.333v21.333h42.667v42.667h-42.667zM128 149.333h85.333v85.333h-85.333v-21.333h-42.667v-42.667h42.667zM896 234.667h-85.333v-85.333h85.333v21.333h42.667v42.667h-42.667z" fill="currentColor" />
  </g>
</svg>
