<?xml version="1.0" encoding="utf-8"?>
<svg xmlns="http://www.w3.org/2000/svg" viewBox="0 0 1024 1024" width="24" height="24">
  <g transform="scale(1, -1) translate(0, -960)">
    <path d="M366.336 192l145.664-145.664 145.664 145.664h153.003c47.061 0 85.333 38.272 85.333 85.333v512c0 47.061-38.272 85.333-85.333 85.333h-597.333c-47.061 0-85.333-38.272-85.333-85.333v-512c0-47.061 38.272-85.333 85.333-85.333h153.003zM213.333 789.333h597.333v-512h-188.331l-110.336-110.336-110.336 110.336h-188.331v512zM532.437 651.989l-212.352-212.011v-76.757h76.8l212.267 212.011zM627.115 746.709l76.8-76.8-58.453-58.453-76.8 76.757z" fill="currentColor" />
  </g>
</svg>
