<?xml version="1.0" encoding="utf-8"?>
<svg xmlns="http://www.w3.org/2000/svg" viewBox="0 0 1024 1024" width="24" height="24">
  <g transform="scale(1, -1) translate(0, -960)">
    <path d="M512 320c-78.507 0-85.333 36.693-85.333 42.667h-85.333c0-39.253 28.16-108.8 128-124.587v-46.080h85.333v46.080c85.333 14.507 128 69.547 128 124.587 0 47.787-22.187 128-170.667 128-85.333 0-85.333 26.88-85.333 42.667s29.867 42.667 85.333 42.667 59.307-27.307 59.733-42.667h85.333c-1.24 60.583-44.385 110.74-101.567 122.734l-0.833 0.146v47.787h-85.333v-46.507c-85.333-14.080-128-69.12-128-124.16 0-47.787 22.187-128 170.667-128 85.333 0 85.333-29.013 85.333-42.667s-26.453-42.667-85.333-42.667zM213.333 874.667h-128v-85.333h85.333v-725.333c0-23.564 19.103-42.667 42.667-42.667v0h597.333c23.564 0 42.667 19.103 42.667 42.667v0 725.333h85.333v85.333h-725.333zM768 106.667h-512v682.667h512z" fill="currentColor" />
  </g>
</svg>
