<?xml version="1.0" encoding="utf-8"?>
<svg xmlns="http://www.w3.org/2000/svg" viewBox="0 0 1024 1024" width="24" height="24">
  <g transform="scale(1, -1) translate(0, -960)">
    <path d="M839.851 711.637l-384 139.605c-8.704 3.282-18.765 5.182-29.269 5.182-47.081 0-85.248-38.167-85.248-85.248 0-0.037 0-0.074 0-0.111v0.006-261.504c-24.385 14.763-53.811 23.573-85.28 23.765h-0.054c-94.123 0-170.667-76.544-170.667-170.667s76.544-170.667 170.667-170.667 170.667 76.544 170.667 170.667v408.405l384-139.605v-292.523c-24.393 14.732-53.816 23.525-85.278 23.722h-0.056c-94.123 0-170.667-76.544-170.667-170.667s76.544-170.667 170.667-170.667 170.667 76.544 170.667 170.667v439.467c0 35.755-22.571 68.011-56.149 80.171zM256 277.333c-47.061 0-85.333 38.272-85.333 85.333s38.272 85.333 85.333 85.333 85.333-38.272 85.333-85.333-38.272-85.333-85.333-85.333zM725.333 106.667c-47.061 0-85.333 38.272-85.333 85.333s38.272 85.333 85.333 85.333 85.333-38.272 85.333-85.333-38.272-85.333-85.333-85.333z" fill="currentColor" />
  </g>
</svg>
