<?xml version="1.0" encoding="utf-8"?>
<svg xmlns="http://www.w3.org/2000/svg" viewBox="0 0 1024 1024" width="24" height="24">
  <g transform="scale(1, -1) translate(0, -960)">
    <path d="M853.333 874.667h-682.667c-47.061 0-85.333-38.272-85.333-85.333v-512c0-47.061 38.272-85.333 85.333-85.333h128v-160.725l267.819 160.725h286.848c47.061 0 85.333 38.272 85.333 85.333v512c0 47.061-38.272 85.333-85.333 85.333zM853.333 277.333h-310.485l-158.848-95.275v95.275h-213.333v512h682.667v-512zM588.928 567.936l-59.691 59.648-165.077-164.864v-59.691h59.691zM602.88 701.184l59.648-59.691-45.483-45.483-59.691 59.648z" fill="currentColor" />
  </g>
</svg>
