<?xml version="1.0" encoding="utf-8"?>
<svg xmlns="http://www.w3.org/2000/svg" viewBox="0 0 1024 1024" width="24" height="24">
  <g transform="scale(1, -1) translate(0, -960)">
    <path d="M810.667 832h-128c-47.061 0-85.333-38.272-85.333-85.333v-341.333c0-47.061-38.272-85.333-85.333-85.333s-85.333 38.272-85.333 85.333v341.333c0 47.061-38.272 85.333-85.333 85.333h-128c-47.061 0-85.333-38.272-85.333-85.333v-341.333c0-211.755 172.245-384 384-384s384 172.245 384 384v341.333c0 47.061-38.272 85.333-85.333 85.333zM682.667 746.667h128v-128h-128v128zM213.333 746.667h128v-128h-128v128zM512 106.667c-164.651 0-298.667 134.016-298.667 298.667v128h128v-128c0-94.123 76.544-170.667 170.667-170.667s170.667 76.544 170.667 170.667v128h128v-128c0-164.651-134.016-298.667-298.667-298.667z" fill="currentColor" />
  </g>
</svg>
