<?xml version="1.0" encoding="utf-8"?>
<svg xmlns="http://www.w3.org/2000/svg" viewBox="0 0 1024 1024" width="24" height="24">
  <g transform="scale(1, -1) translate(0, -960)">
    <path d="M341.333 789.333c0-47.128-38.205-85.333-85.333-85.333s-85.333 38.205-85.333 85.333c0 47.128 38.205 85.333 85.333 85.333s85.333-38.205 85.333-85.333zM384 661.333h-256c-23.564 0-42.667-19.103-42.667-42.667v0-298.667h85.333v-298.667h170.667v298.667h85.333v298.667c0 23.564-19.103 42.667-42.667 42.667v0zM810.667 789.333c0-47.128-38.205-85.333-85.333-85.333s-85.333 38.205-85.333 85.333c0 47.128 38.205 85.333 85.333 85.333s85.333-38.205 85.333-85.333zM862.293 630.187c-5.19 18.13-21.617 31.176-41.090 31.176-0.554 0-1.106-0.011-1.656-0.032l0.079 0.002h-192c-0.47 0.019-1.022 0.029-1.576 0.029-19.473 0-35.9-13.046-41.016-30.875l-0.074-0.301-72.96-267.52h85.333l-42.667-170.667h85.333v-170.667h170.667v170.667h85.333l-42.667 170.667h85.333z" fill="currentColor" />
  </g>
</svg>
