<?xml version="1.0" encoding="utf-8"?>
<svg xmlns="http://www.w3.org/2000/svg" viewBox="0 0 1024 1024" width="24" height="24">
  <g transform="scale(1, -1) translate(0, -960)">
    <path d="M853.333 874.667h-682.667c-47.061 0-85.333-38.272-85.333-85.333v-512c0-47.061 38.272-85.333 85.333-85.333h128v-160.725l267.819 160.725h286.848c47.061 0 85.333 38.272 85.333 85.333v512c0 47.061-38.272 85.333-85.333 85.333zM853.333 277.333h-310.485l-158.848-95.275v95.275h-213.333v512h682.667v-512zM734.165 652.501l-60.331 60.331-204.501-204.501-97.835 97.835-60.331-60.331 158.165-158.165z" fill="currentColor" />
  </g>
</svg>
