<?xml version="1.0" encoding="utf-8"?>
<svg xmlns="http://www.w3.org/2000/svg" viewBox="0 0 1024 1024" width="24" height="24">
  <g transform="scale(1, -1) translate(0, -960)">
    <path d="M853.333 490.667v298.667h-298.667l119.168-119.168-184.405-184.405c-41.099 29.74-92.515 47.571-148.095 47.573h-0.001c-141.184 0-256-114.816-256-256s114.816-256 256-256 256 114.816 256 256c0 55.211-17.749 106.24-47.573 148.096l184.405 184.405 119.168-119.168zM341.333 106.667c-94.123 0-170.667 76.544-170.667 170.667s76.544 170.667 170.667 170.667 170.667-76.544 170.667-170.667-76.544-170.667-170.667-170.667z" fill="currentColor" />
  </g>
</svg>
