<?xml version="1.0" encoding="utf-8"?>
<svg xmlns="http://www.w3.org/2000/svg" viewBox="0 0 1024 1024" width="24" height="24">
  <g transform="scale(1, -1) translate(0, -960)">
    <path d="M554.667 874.667h-85.333c-141.184 0-256-114.816-256-256v-341.333c0-141.184 114.816-256 256-256h85.333c141.184 0 256 114.816 256 256v341.333c0 141.184-114.816 256-256 256zM469.333 789.333v-256h-170.667v85.333c0 94.123 76.544 170.667 170.667 170.667zM725.333 277.333c0-94.123-76.544-170.667-170.667-170.667h-85.333c-94.123 0-170.667 76.544-170.667 170.667v170.667h426.667v-170.667zM554.667 533.333v256c94.123 0 170.667-76.544 170.667-170.667v-85.333h-170.667z" fill="currentColor" />
  </g>
</svg>
