<?xml version="1.0" encoding="utf-8"?>
<svg xmlns="http://www.w3.org/2000/svg" viewBox="0 0 1024 1024" width="24" height="24">
  <g transform="scale(1, -1) translate(0, -960)">
    <path d="M915.072 699.52l-256 128c-5.562 2.844-12.133 4.511-19.093 4.511s-13.531-1.667-19.335-4.622l0.242 0.112-236.885-118.485-236.928 118.485c-5.557 2.837-12.12 4.5-19.072 4.5-23.564 0-42.667-19.103-42.667-42.667 0-0.007 0-0.014 0-0.021v0.001-554.667c0-16.171 9.131-30.933 23.595-38.187l256-128c5.562-2.844 12.133-4.511 19.093-4.511s13.531 1.667 19.335 4.622l-0.242-0.112 236.885 118.485 236.928-118.443c5.56-2.873 12.136-4.558 19.106-4.558 8.285 0 16.015 2.381 22.541 6.495l-0.175-0.103c12.587 7.808 20.267 21.504 20.267 36.309v554.667c0 16.171-9.131 30.933-23.595 38.187zM426.667 634.965l170.667 85.333v-459.264l-170.667-85.333v459.264zM170.667 720.299l170.667-85.333v-459.264l-170.667 85.333v459.264zM853.333 175.701l-170.667 85.333v459.264l170.667-85.333v-459.264z" fill="currentColor" />
  </g>
</svg>
