<?xml version="1.0" encoding="utf-8"?>
<svg xmlns="http://www.w3.org/2000/svg" viewBox="0 0 1024 1024" width="24" height="24">
  <g transform="scale(1, -1) translate(0, -960)">
    <path d="M512 362.667c94.123 0 170.667 76.544 170.667 170.667s-76.544 170.667-170.667 170.667-170.667-76.544-170.667-170.667 76.544-170.667 170.667-170.667zM512 618.667c47.061 0 85.333-38.272 85.333-85.333s-38.272-85.333-85.333-85.333-85.333 38.272-85.333 85.333 38.272 85.333 85.333 85.333zM487.253 29.269c6.872-4.958 15.462-7.929 24.747-7.929s17.875 2.972 24.873 8.016l-0.126-0.086c12.971 9.173 317.824 229.291 316.587 504.064 0 188.203-153.131 341.333-341.333 341.333s-341.333-153.131-341.333-341.12c-1.237-274.987 303.616-495.104 316.587-504.277zM512 789.333c141.184 0 256-114.816 256-256.213 0.896-189.355-187.221-359.381-256-415.147-68.736 55.808-256.896 225.877-256 415.36 0 141.184 114.816 256 256 256z" fill="currentColor" />
  </g>
</svg>
