<?xml version="1.0" encoding="utf-8"?>
<svg xmlns="http://www.w3.org/2000/svg" viewBox="0 0 1024 1024" width="24" height="24">
  <g transform="scale(1, -1) translate(0, -960)">
    <path d="M510.933 21.333h1.067c164.651 0 298.667 133.973 298.667 298.667v256c0 163.883-133.419 297.557-297.856 298.667h-2.56c-163.84-0.939-296.917-134.699-296.917-298.667v-256c0-164.693 133.504-298.667 297.6-298.667zM298.667 576c0.168 117.528 95.216 212.801 212.642 213.333h0.051c117.973-0.256 213.973-95.957 213.973-213.333v-256c0-117.632-95.701-213.333-213.333-213.333h-1.067c-118.997 0-212.267 93.696-212.267 213.333v256zM469.333 704h85.333v-256h-85.333z" fill="currentColor" />
  </g>
</svg>
