<?xml version="1.0" encoding="utf-8"?>
<svg xmlns="http://www.w3.org/2000/svg" viewBox="0 0 1024 1024" width="24" height="24">
  <g transform="scale(1, -1) translate(0, -960)">
    <path d="M810.667 704h-597.333c-70.571 0-128-57.429-128-128v-213.333c0-94.123 76.544-170.667 170.667-170.667h69.845c49.749 0 97.28 23.765 127.189 63.616 28.16 37.504 89.771 37.547 117.931-0.043 29.391-38.691 75.386-63.452 127.169-63.573h69.865c94.123 0 170.667 76.544 170.667 170.667v213.333c0 70.571-57.429 128-128 128zM853.333 362.667c0-47.061-38.272-85.333-85.333-85.333h-69.845c-23.040 0-45.099 11.051-58.965 29.44-30.293 40.448-76.672 63.659-127.189 63.659s-96.896-23.211-127.189-63.616c-13.646-17.915-34.956-29.387-58.95-29.483h-69.861c-47.061 0-85.333 38.272-85.333 85.333v213.333c0 23.509 19.115 42.667 42.667 42.667h597.333c23.552 0 42.667-19.157 42.667-42.667v-213.333zM426.667 469.333c0-35.346-47.756-64-106.667-64s-106.667 28.654-106.667 64c0 35.346 47.756 64 106.667 64s106.667-28.654 106.667-64zM810.667 469.333c0-35.346-47.756-64-106.667-64s-106.667 28.654-106.667 64c0 35.346 47.756 64 106.667 64s106.667-28.654 106.667-64z" fill="currentColor" />
  </g>
</svg>
