<?xml version="1.0" encoding="utf-8"?>
<svg xmlns="http://www.w3.org/2000/svg" viewBox="0 0 1024 1024" width="24" height="24">
  <g transform="scale(1, -1) translate(0, -960)">
    <path d="M512 21.333c164.651 0 298.667 134.016 298.667 298.667s-134.016 298.667-298.667 298.667c-164.693 0-298.667-134.016-298.667-298.667s133.973-298.667 298.667-298.667zM512 533.333c117.632 0 213.333-95.701 213.333-213.333s-95.701-213.333-213.333-213.333-213.333 95.701-213.333 213.333 95.701 213.333 213.333 213.333zM469.333 874.667h-170.667v-235.435c48.326 32.748 106.327 54.977 168.915 62.089l1.752 0.162v173.184zM725.333 874.667h-170.667v-173.184c64.34-7.274 122.341-29.503 172.015-63.111l-1.348 0.86v235.435zM427.477 285.397l-19.968-116.309 104.491 54.912 104.491-54.912-19.968 116.309 84.565 82.432-116.821 16.981-52.267 105.856-52.267-105.856-116.821-16.981z" fill="currentColor" />
  </g>
</svg>
