<?xml version="1.0" encoding="utf-8"?>
<svg xmlns="http://www.w3.org/2000/svg" viewBox="0 0 1024 1024" width="24" height="24">
  <g transform="scale(1, -1) translate(0, -960)">
    <path d="M926.165 94.165l-144.555 144.555c44.701 56.854 71.7 129.464 71.723 208.379v0.005h-85.333c-0.032-55.331-17.761-106.514-47.831-148.205l0.514 0.749-61.952 61.952c14.848 25.216 23.936 54.187 23.936 85.504v256c0 94.592-76.16 171.563-169.771 171.563-2.987 0-5.973-0.384-8.917-1.067-90.699-4.511-162.543-79.097-162.645-170.486v-24.117l-183.168 183.168-60.331-60.331 768-768 60.331 60.331zM426.667 703.104c0 47.061 38.272 85.333 85.333 85.333 2.476 0.004 4.895 0.236 7.241 0.678l-0.243-0.038c43.691-3.157 78.336-40.533 78.336-85.973v-256c0-7.339-1.237-14.293-3.029-21.077l-167.637 167.637v109.44zM256 447.104h-85.333c0-173.739 130.56-317.269 298.667-338.389v-88.277h85.333v88.32c35.164 4.491 67.104 13.652 96.798 26.934l-2.163-0.865-66.475 66.475c-21.198-6.416-45.566-10.138-70.795-10.197h-0.032c-141.184 0-256 114.859-256 256zM341.803 442.368c2.668-90.265 75.154-162.751 165.169-165.413l0.25-0.006-165.419 165.419z" fill="currentColor" />
  </g>
</svg>
