<?xml version="1.0" encoding="utf-8"?>
<svg xmlns="http://www.w3.org/2000/svg" viewBox="0 0 1024 1024" width="24" height="24">
  <g transform="scale(1, -1) translate(0, -960)">
    <path d="M682.667 874.667h-341.333c-141.184 0-256-114.816-256-256v-554.667c0-23.564 19.103-42.667 42.667-42.667v0h554.667c141.184 0 256 114.816 256 256v341.333c0 141.184-114.816 256-256 256zM853.333 277.333c0-94.123-76.544-170.667-170.667-170.667h-512v512c0 94.123 76.544 170.667 170.667 170.667h341.333c94.123 0 170.667-76.544 170.667-170.667v-341.333zM298.667 576h426.667v-85.333h-426.667zM298.667 405.333h298.667v-85.333h-298.667z" fill="currentColor" />
  </g>
</svg>
