<?xml version="1.0" encoding="utf-8"?>
<svg xmlns="http://www.w3.org/2000/svg" viewBox="0 0 1024 1024" width="24" height="24">
  <g transform="scale(1, -1) translate(0, -960)">
    <path d="M405.333 21.333c85.461 0 165.845 33.28 226.688 94.165l294.571 302.763c7.467 7.676 12.072 18.17 12.072 29.739 0 23.563-19.101 42.665-42.663 42.667h-140.843l178.133 320.597c3.332 5.942 5.295 13.040 5.295 20.597 0 23.588-19.122 42.709-42.709 42.709-7.546 0-14.634-1.957-20.786-5.391l0.217 0.111-303.36-168.533 24.576 122.837c0.524 2.51 0.824 5.393 0.824 8.347 0 23.564-19.103 42.667-42.667 42.667-10.582 0-20.264-3.852-27.72-10.23l0.058 0.049-347.989-296.832c-124.757-124.757-124.757-327.765 0-452.523 57.598-57.904 137.333-93.74 225.438-93.74 0.304 0 0.609 0 0.913 0.001h-0.047zM236.885 504.96l251.819 214.656-18.517-92.587v-0.043l-18.091-90.411 334.080 185.6-176-316.843h184.789l-223.701-229.931c-44.331-44.331-103.253-68.736-165.931-68.736s-121.643 24.405-165.973 68.736c-91.435 91.477-91.435 240.384-2.475 329.557zM405.333 192c0.164-0.001 0.358-0.001 0.552-0.001 82.286 0 148.992 66.706 148.992 148.992 0 59.507-34.886 110.866-85.321 134.741l-0.906 0.386c0.213-2.261 0.683-4.48 0.683-6.784 0-35.346-28.654-64-64-64s-64 28.654-64 64v0c0 2.304 0.469 4.523 0.683 6.784-51.341-24.261-86.227-75.619-86.227-135.126 0-82.286 66.706-148.992 148.992-148.992 0.194 0 0.388 0 0.582 0.001h-0.030z" fill="currentColor" />
  </g>
</svg>
