<?xml version="1.0" encoding="utf-8"?>
<svg xmlns="http://www.w3.org/2000/svg" viewBox="0 0 1024 1024" width="24" height="24">
  <g transform="scale(1, -1) translate(0, -960)">
    <path d="M213.333 874.667c-47.061 0-85.333-38.272-85.333-85.333v-512c0-47.061 38.272-85.333 85.333-85.333h153.003l145.664-145.664 145.664 145.664h153.003c47.061 0 85.333 38.272 85.333 85.333v512c0 47.061-38.272 85.333-85.333 85.333h-597.333zM810.667 277.333h-188.331l-110.336-110.336-110.336 110.336h-188.331v512h597.333v-512zM469.333 704h85.333v-256h-85.333zM469.333 405.333h85.333v-85.333h-85.333z" fill="currentColor" />
  </g>
</svg>
