<?xml version="1.0" encoding="utf-8"?>
<svg xmlns="http://www.w3.org/2000/svg" viewBox="0 0 1024 1024" width="24" height="24">
  <g transform="scale(1, -1) translate(0, -960)">
    <path d="M662.827 840.192c-32.256 32.256-88.405 32.256-120.661 0l-422.357-422.357c-15.427-15.446-24.967-36.774-24.967-60.331s9.54-44.885 24.968-60.332l241.364-241.364c16.128-16.128 37.547-25.003 60.331-25.003s44.203 8.875 60.331 25.003l422.357 422.357c16.128 16.128 25.003 37.547 25.003 60.331s-8.875 44.203-25.003 60.331l-241.365 241.365zM421.504 116.139v0l-241.365 241.365 422.357 422.357 241.365-241.365-422.357-422.357zM426.667 320c0-23.564-19.103-42.667-42.667-42.667s-42.667 19.103-42.667 42.667c0 23.564 19.103 42.667 42.667 42.667s42.667-19.103 42.667-42.667zM670.165 33.835l-60.331 60.331 256 256 60.331-60.373zM353.835 862.165l60.331-60.331-256-256-60.331 60.373z" fill="currentColor" />
  </g>
</svg>
