<?xml version="1.0" encoding="utf-8"?>
<svg xmlns="http://www.w3.org/2000/svg" viewBox="0 0 1024 1024" width="24" height="24">
  <g transform="scale(1, -1) translate(0, -960)">
    <path d="M170.667 789.333v-682.667c0-47.061 38.272-85.333 85.333-85.333h512c47.061 0 85.333 38.272 85.333 85.333v512c0 0.013 0 0.028 0 0.044 0 11.768-4.778 22.419-12.5 30.12l-213.334 213.334c-7.696 7.723-18.342 12.501-30.104 12.501-0.022 0-0.043 0-0.065 0h-341.33c-47.061 0-85.333-38.272-85.333-85.333zM768 601.003l0.043-494.336h-512.043v682.667h323.669l188.331-188.331zM341.333 704h85.333v-170.667h-85.333zM512 704h85.333v-170.667h-85.333z" fill="currentColor" />
  </g>
</svg>
