<?xml version="1.0" encoding="utf-8"?>
<svg xmlns="http://www.w3.org/2000/svg" viewBox="0 0 1024 1024" width="24" height="24">
  <g transform="scale(1, -1) translate(0, -960)">
    <path d="M512 234.667l42.667 85.333v219.392c73.429 19.072 128 85.333 128 164.608 0 94.123-76.544 170.667-170.667 170.667s-170.667-76.544-170.667-170.667c0-79.275 54.571-145.536 128-164.608v-219.392l42.667-85.333zM426.667 704c0 47.061 38.272 85.333 85.333 85.333s85.333-38.272 85.333-85.333-38.272-85.333-85.333-85.333-85.333 38.272-85.333 85.333zM694.059 509.312l-22.741-82.261c110.549-30.549 182.016-89.301 182.016-149.717 0-80.725-140.16-170.667-341.333-170.667s-341.333 89.941-341.333 170.667c0 60.416 71.467 119.168 182.059 149.76l-22.741 82.261c-150.912-41.728-244.651-130.603-244.651-232.021 0-143.531 187.435-256 426.667-256s426.667 112.469 426.667 256c0 101.419-93.739 190.293-244.608 231.979z" fill="currentColor" />
  </g>
</svg>
