<?xml version="1.0" encoding="utf-8"?>
<svg xmlns="http://www.w3.org/2000/svg" viewBox="0 0 1024 1024" width="24" height="24">
  <g transform="scale(1, -1) translate(0, -960)">
    <path d="M512 874.667c-235.264 0-426.667-153.131-426.667-341.333 0-124.075 80.981-235.307 213.333-295.851v-216.149l227.84 170.88c228.565 6.101 412.16 156.8 412.16 341.12 0 188.203-191.403 341.333-426.667 341.333zM512 277.333h-14.208l-113.792-85.333v103.125l-27.349 10.539c-114.731 44.16-185.984 131.413-185.984 227.669 0 141.184 153.131 256 341.333 256s341.333-114.816 341.333-256-153.131-256-341.333-256zM362.795 465.536v-59.648h59.648l165.12 164.864-59.691 59.648zM615.68 598.869l-59.648 59.648 45.525 45.525 59.648-59.648z" fill="currentColor" />
  </g>
</svg>
