<?xml version="1.0" encoding="utf-8"?>
<svg xmlns="http://www.w3.org/2000/svg" viewBox="0 0 1024 1024" width="24" height="24">
  <g transform="scale(1, -1) translate(0, -960)">
    <path d="M128 277.333c0-47.061 38.272-85.333 85.333-85.333h153.003l145.664-145.664 145.664 145.664h153.003c47.061 0 85.333 38.272 85.333 85.333v512c0 47.061-38.272 85.333-85.333 85.333h-597.333c-47.061 0-85.333-38.272-85.333-85.333v-512zM213.333 789.333h597.333v-512h-188.331l-110.336-110.336-110.336 110.336h-188.331v512zM469.333 362.667h85.333v128h128v85.333h-128v128h-85.333v-128h-128v-85.333h128z" fill="currentColor" />
  </g>
</svg>
