<?xml version="1.0" encoding="utf-8"?>
<svg xmlns="http://www.w3.org/2000/svg" viewBox="0 0 1024 1024" width="24" height="24">
  <g transform="scale(1, -1) translate(0, -960)">
    <path d="M714.667 874.667h-426.667c-47.061 0-85.333-38.272-85.333-85.333v-682.667c0-47.061 38.272-85.333 85.333-85.333h426.667c47.061 0 85.333 38.272 85.333 85.333v682.667c0 47.061-38.272 85.333-85.333 85.333zM288 106.667v682.667h426.667l0.085-682.667h-426.752zM544 192c0-23.564-19.103-42.667-42.667-42.667s-42.667 19.103-42.667 42.667c0 23.564 19.103 42.667 42.667 42.667s42.667-19.103 42.667-42.667z" fill="currentColor" />
  </g>
</svg>
