<?xml version="1.0" encoding="utf-8"?>
<svg xmlns="http://www.w3.org/2000/svg" viewBox="0 0 1024 1024" width="24" height="24">
  <g transform="scale(1, -1) translate(0, -960)">
    <path d="M810.667 789.333h-128v85.333h-85.333v-85.333h-170.667v85.333h-85.333v-85.333h-128c-47.061 0-85.333-38.272-85.333-85.333v-597.333c0-47.061 38.272-85.333 85.333-85.333h597.333c47.061 0 85.333 38.272 85.333 85.333v597.333c0 47.061-38.272 85.333-85.333 85.333zM213.333 106.667v554.667h597.333v42.667l0.085-597.333h-597.419zM298.667 576h426.667v-85.333h-426.667zM298.667 405.333h213.333v-85.333h-213.333z" fill="currentColor" />
  </g>
</svg>
