<?xml version="1.0" encoding="utf-8"?>
<svg xmlns="http://www.w3.org/2000/svg" viewBox="0 0 1024 1024" width="24" height="24">
  <g transform="scale(1, -1) translate(0, -960)">
    <path d="M926.293 94.037l-76.203 76.203c1.92 6.955 3.243 14.165 3.243 21.76v298.667h-85.333v-238.336l-451.669 451.669h238.336v85.333h-298.667c-7.595 0-14.805-1.323-21.76-3.243l-75.947 75.947-60.331-60.331 768-768 60.331 60.331zM170.667 613.504v-421.504c0-47.061 38.272-85.333 85.333-85.333h421.504l-85.333 85.333h-336.171v336.171l-85.333 85.333zM896 704c0-70.692-57.308-128-128-128s-128 57.308-128 128c0 70.692 57.308 128 128 128s128-57.308 128-128z" fill="currentColor" />
  </g>
</svg>
