<?xml version="1.0" encoding="utf-8"?>
<svg xmlns="http://www.w3.org/2000/svg" viewBox="0 0 1024 1024" width="24" height="24">
  <g transform="scale(1, -1) translate(0, -960)">
    <path d="M85.419 549.12c-0.981-17.536 8.832-33.877 24.789-41.216l320.171-146.859 146.859-320.128c6.997-15.189 22.187-24.875 38.784-24.875l2.432 0.085c17.816 1.029 32.623 12.843 38.056 28.968l0.088 0.301 238.72 726.699c4.992 15.275 0.981 32.128-10.368 43.52s-28.16 15.275-43.52 10.368l-726.741-238.72c-16.426-5.521-28.241-20.328-29.264-38.030l-0.005-0.114zM787.883 718.549l-178.432-543.147-108.117 235.605c-4.339 9.325-11.667 16.653-20.73 20.882l-0.262 0.11-235.691 108.117 543.232 178.432z" fill="currentColor" />
  </g>
</svg>
