<?xml version="1.0" encoding="utf-8"?>
<svg xmlns="http://www.w3.org/2000/svg" viewBox="0 0 1024 1024" width="24" height="24">
  <g transform="scale(1, -1) translate(0, -960)">
    <path d="M810.667 832h-597.333c-47.061 0-85.333-38.272-85.333-85.333v-597.333c0-47.061 38.272-85.333 85.333-85.333h341.333c0.018 0 0.040 0 0.062 0 11.762 0 22.408 4.779 30.102 12.5l298.668 298.668c3.41 3.532 6.222 7.67 8.255 12.231l0.108 0.27c0.597 1.28 0.939 2.603 1.408 3.968 1.147 3.253 1.924 7.019 2.17 10.929l0.006 0.122c0.085 0.896 0.555 1.749 0.555 2.645v341.333c0 47.061-38.272 85.333-85.333 85.333zM213.333 746.667h597.333v-298.667h-256c-23.564 0-42.667-19.103-42.667-42.667v0-256h-298.667v597.333zM597.333 209.664v153.003h153.003l-153.003-153.003z" fill="currentColor" />
  </g>
</svg>
