<?xml version="1.0" encoding="utf-8"?>
<svg xmlns="http://www.w3.org/2000/svg" viewBox="0 0 1024 1024" width="24" height="24">
  <g transform="scale(1, -1) translate(0, -960)">
    <path d="M853.333 874.667h85.333v-853.333h-85.333v853.333zM768 362.667c0 23.564-19.103 42.667-42.667 42.667v0h-597.333c-23.564 0-42.667-19.103-42.667-42.667v0-213.333c0-23.564 19.103-42.667 42.667-42.667v0h597.333c23.564 0 42.667 19.103 42.667 42.667v0zM682.667 192h-512v128h512zM298.667 490.667h426.667c23.564 0 42.667 19.103 42.667 42.667v0 213.333c0 23.564-19.103 42.667-42.667 42.667v0h-426.667c-23.564 0-42.667-19.103-42.667-42.667v0-213.333c0-23.564 19.103-42.667 42.667-42.667v0zM341.333 704h341.333v-128h-341.333z" fill="currentColor" />
  </g>
</svg>
