<?xml version="1.0" encoding="utf-8"?>
<svg xmlns="http://www.w3.org/2000/svg" viewBox="0 0 1024 1024" width="24" height="24">
  <g transform="scale(1, -1) translate(0, -960)">
    <path d="M213.333 106.667h256v-85.333h85.333v85.333h256c23.564 0 42.667 19.103 42.667 42.667v0 213.333c0 23.564-19.103 42.667-42.667 42.667v0h-256v85.333h170.667c23.564 0 42.667 19.103 42.667 42.667v0 213.333c0 23.564-19.103 42.667-42.667 42.667v0h-170.667v85.333h-85.333v-85.333h-170.667c-23.564 0-42.667-19.103-42.667-42.667v0-213.333c0-23.564 19.103-42.667 42.667-42.667v0h170.667v-85.333h-256c-23.564 0-42.667-19.103-42.667-42.667v0-213.333c0-23.564 19.103-42.667 42.667-42.667v0zM341.333 704h341.333v-128h-341.333zM256 320h512v-128h-512z" fill="currentColor" />
  </g>
</svg>
