<?xml version="1.0" encoding="utf-8"?>
<svg xmlns="http://www.w3.org/2000/svg" viewBox="0 0 1024 1024" width="24" height="24">
  <g transform="scale(1, -1) translate(0, -960)">
    <path d="M85.333 874.667h853.333v-85.333h-853.333v85.333zM469.333 64v597.333c0 23.564-19.103 42.667-42.667 42.667v0h-213.333c-23.564 0-42.667-19.103-42.667-42.667v0-597.333c0-23.564 19.103-42.667 42.667-42.667v0h213.333c23.564 0 42.667 19.103 42.667 42.667v0zM384 106.667h-128v512h128zM810.667 704h-213.333c-23.564 0-42.667-19.103-42.667-42.667v0-426.667c0-23.564 19.103-42.667 42.667-42.667v0h213.333c23.564 0 42.667 19.103 42.667 42.667v0 426.667c0 23.564-19.103 42.667-42.667 42.667v0zM768 277.333h-128v341.333h128z" fill="currentColor" />
  </g>
</svg>
