<?xml version="1.0" encoding="utf-8"?>
<svg xmlns="http://www.w3.org/2000/svg" viewBox="0 0 1024 1024" width="24" height="24">
  <g transform="scale(1, -1) translate(0, -960)">
    <path d="M768 874.667h-469.333c-47.061 0-85.333-38.272-85.333-85.333v-128c0-47.061 38.272-85.333 85.333-85.333h469.333c47.061 0 85.333 38.272 85.333 85.333v128c0 47.061-38.272 85.333-85.333 85.333zM298.667 661.333v128h469.333l0.085-128h-469.419zM554.667 320v85.333c0 47.061-38.272 85.333-85.333 85.333h-298.667v256c-47.061 0-85.333-38.272-85.333-85.333v-170.667c0-47.061 38.272-85.333 85.333-85.333h298.667v-85.333c-23.564 0-42.667-19.103-42.667-42.667v0-213.333c0-23.564 19.103-42.667 42.667-42.667v0h85.333c23.564 0 42.667 19.103 42.667 42.667v0 213.333c0 23.564-19.103 42.667-42.667 42.667v0z" fill="currentColor" />
  </g>
</svg>
