<?xml version="1.0" encoding="utf-8"?>
<svg xmlns="http://www.w3.org/2000/svg" viewBox="0 0 1024 1024" width="24" height="24">
  <g transform="scale(1, -1) translate(0, -960)">
    <path d="M512 21.333l42.667 85.333v128h213.333c23.564 0 42.667 19.103 42.667 42.667v0 67.669c0 22.443-9.131 44.459-25.003 60.331l-60.331 60.331v153.003c23.564 0 42.667 19.103 42.667 42.667v0 128c0 47.061-38.272 85.333-85.333 85.333h-341.333c-47.061 0-85.333-38.272-85.333-85.333v-128c0-23.564 19.103-42.667 42.667-42.667v0-153.003l-60.331-60.331c-15.406-15.463-24.947-36.777-25.003-60.32v-67.68c0-23.564 19.103-42.667 42.667-42.667v0h213.333v-128l42.667-85.333zM341.333 789.333h341.333v-85.333h-341.333v85.333zM298.667 345.003l72.832 72.832c7.723 7.696 12.501 18.342 12.501 30.104 0 0.022 0 0.043 0 0.065v-0.003 170.667h256v-170.667c0-11.349 4.48-22.187 12.501-30.165l72.832-72.832v-25.003h-426.667v25.003z" fill="currentColor" />
  </g>
</svg>
