<?xml version="1.0" encoding="utf-8"?>
<svg xmlns="http://www.w3.org/2000/svg" viewBox="0 0 1024 1024" width="24" height="24">
  <g transform="scale(1, -1) translate(0, -960)">
    <path d="M706.987 21.333c0.146-0.001 0.32-0.001 0.493-0.001 23.654 0 45.060 9.624 60.516 25.171l115.631 115.631c7.668 7.712 12.407 18.343 12.407 30.080s-4.74 22.368-12.409 30.082l-170.665 170.665c-7.712 7.668-18.343 12.407-30.080 12.407s-22.368-4.74-30.082-12.409l-68.265-67.838c-49.528 13.466-92.459 36.901-128.39 68.172l0.39-0.332c-30.849 35.585-54.268 78.496-67.302 125.716l-0.538 2.284 67.84 68.267c7.668 7.712 12.407 18.343 12.407 30.080s-4.74 22.368-12.409 30.082l-170.665 170.665c-7.712 7.668-18.343 12.407-30.080 12.407s-22.368-4.74-30.082-12.409l0.002 0.002-115.2-116.053c-15.55-15.46-25.175-36.866-25.175-60.52 0-0.173 0.001-0.347 0.002-0.52v0.027c4.157-170.759 73.344-324.594 183.629-438.355l-0.163 0.168c113.593-110.123 267.427-179.31 437.389-183.451l0.798-0.015zM256 729.173l110.507-110.507-55.040-55.040c-8.317-7.805-13.498-18.867-13.498-31.139 0-2.718 0.254-5.376 0.74-7.953l-0.042 0.265c17.038-74.528 51.328-139.344 98.518-192.441l-0.385 0.441c52.623-46.87 117.455-81.172 189.111-97.577l2.889-0.557c2.625-0.574 5.639-0.903 8.731-0.903 11.745 0 22.382 4.746 30.097 12.425l-0.002-0.002 55.040 56.32 110.507-110.507-85.333-85.333c-147.396 3.912-280.152 63.525-378.626 158.459l0.173-0.165c-95.016 98.35-154.797 231.275-158.704 378.127l-0.016 0.753zM853.333 490.667h85.333c0.057 2.44 0.089 5.314 0.089 8.196 0 207.6-168.293 375.893-375.893 375.893-2.882 0-5.756-0.032-8.623-0.097l0.427 0.008v-85.333c2.977 0.11 6.474 0.173 9.986 0.173 159.529 0 288.853-129.324 288.853-288.853 0-3.512-0.063-7.009-0.187-10.49l0.014 0.504zM554.667 618.667c89.6 0 128-38.4 128-128h85.333c0 137.387-75.947 213.333-213.333 213.333z" fill="currentColor" />
  </g>
</svg>
