<?xml version="1.0" encoding="utf-8"?>
<svg xmlns="http://www.w3.org/2000/svg" viewBox="0 0 1024 1024" width="24" height="24">
  <g transform="scale(1, -1) translate(0, -960)">
    <path d="M236.928 144.853l32.597-78.635c50.389 16.768 132.48 40.448 157.141 40.448 35.755 0 62.379-8.875 93.184-19.115 33.067-11.051 70.571-23.552 120.149-23.552 50.219 0 131.328 39.296 147.072 47.147l-38.187 76.331c-30.763-15.36-86.656-38.144-108.885-38.144-35.755 0-62.379 8.875-93.184 19.115-33.067 11.051-70.571 23.552-120.149 23.552-9.771 0-22.443-1.579-36.565-4.224 23.851 49.024 36.565 108.288 36.565 174.891h128v85.333h-143.957c-1.792 4.565-3.584 9.216-5.333 13.525-11.008 26.923-21.376 52.395-21.376 114.475 0 58.411 22.229 128 128 128 94.891 0 128.896-95.019 130.219-98.816l80.896 27.008c-2.133 6.4-54.144 157.141-211.115 157.141-157.312 0-213.333-110.208-213.333-213.333 0-63.616 9.984-100.267 20.395-128h-105.728v-85.333h128c0-105.259-38.059-184.661-104.405-217.813z" fill="currentColor" />
  </g>
</svg>
