<?xml version="1.0" encoding="utf-8"?>
<svg xmlns="http://www.w3.org/2000/svg" viewBox="0 0 1024 1024" width="24" height="24">
  <g transform="scale(1, -1) translate(0, -960)">
    <path d="M768 605.44c-15.36 17.493-31.147 34.987-47.787 51.627l-12.373 11.52 5.973 5.12c28.762 24.793 46.859 61.273 46.859 101.98 0 16.854-3.102 32.984-8.767 47.849l0.309-0.922c-27.518 56.519-84.525 94.778-150.467 94.778-1.552 0-3.099-0.021-4.641-0.063l0.227 0.005v-85.333c0.353 0.005 0.77 0.008 1.188 0.008 31.422 0 58.878-16.984 73.688-42.272l0.218-0.403c7.253-17.067 0-35.84-20.053-55.893-2.987-3.413-6.4-5.547-9.387-8.533-128 102.827-268.373 160.853-337.067 92.16-7.004-7.155-12.862-15.469-17.254-24.62l-0.239-0.554v-4.267l-7.68-22.613-188.16-558.933c-4.668-13.362-7.365-28.766-7.365-44.8 0-77.29 62.656-139.947 139.947-139.947 0.039 0 0.078 0 0.117 0h-0.006c15.316 0.154 29.964 2.797 43.628 7.544l-0.961-0.291 585.387 194.133c7.392 2.801 13.584 7.345 18.284 13.147l0.063 0.080 8.96 7.68c61.013 61.44 21.76 179.627-60.16 294.4 40.846 24.239 90.043 38.564 142.586 38.564 6.427 0 12.805-0.214 19.125-0.636l-0.857 0.046v85.333c-5.911 0.346-12.824 0.544-19.783 0.544-71.845 0-138.776-21.040-194.968-57.294l1.418 0.857zM243.2 109.653c-5.162-1.767-11.109-2.788-17.294-2.788-30.398 0-55.040 24.642-55.040 55.040 0 6.185 1.020 12.132 2.902 17.682l-0.114-0.388 58.027 174.933c42.267-79.492 104.772-143.367 180.75-186.122l2.29-1.184zM541.867 209.067c-131.465 35.638-232.957 136.989-268.181 265.719l-0.619 2.655 42.667 128 2.56-3.84c4.693-9.387 10.667-19.2 16.64-29.013s6.827-12.373 11.093-18.773 14.080-20.48 21.76-31.147 8.107-11.947 12.8-17.92 18.347-23.467 28.16-34.987l12.373-14.933c14.507-16.64 29.867-32.853 46.080-49.493s29.013-27.307 42.667-42.667l14.080-11.947 33.28-26.88 15.787-11.947c11.947-8.533 23.467-17.067 35.413-24.747l13.227-8.533c15.36-9.387 30.72-18.347 45.653-26.027h2.133zM819.627 304.213h-2.56c-29.44-16.213-151.893 24.32-289.707 162.56-14.507 14.507-28.16 28.587-40.533 42.667l-34.987 42.24-12.373 17.067c-5.547 8.107-11.52 15.787-16.64 23.467l-11.093 17.92-12.373 20.053c-3.413 5.973-5.973 11.52-8.96 17.067s-6.4 11.093-8.96 17.067c-1.936 4.060-3.96 9.144-5.687 14.362l-0.286 0.998c-2.133 5.547-4.693 11.093-6.4 16.213s-2.133 8.107-3.413 13.227-2.133 9.387-2.987 13.653c-0.102 1.658-0.16 3.595-0.16 5.547s0.058 3.889 0.172 5.812l-0.013-0.265c-0.196 1.537-0.308 3.315-0.308 5.12s0.112 3.583 0.329 5.328l-0.021-0.208 4.693 13.227c15.36 15.36 95.147 0 201.813-81.067-16.701-7.738-36.097-13.049-56.494-14.884l-0.68-0.049v-85.333c47.697 2.822 91.472 17.374 129.172 40.785l-1.172-0.678 20.48-19.627c17.92-17.92 34.56-36.267 50.347-54.613-17.84-31.673-28.349-69.532-28.349-109.846 0-12.434 1-24.634 2.923-36.525l-0.174 1.304 85.333 16.64c-1.2 7.182-1.886 15.458-1.886 23.893s0.686 16.711 2.005 24.774l-0.119-0.881c11.767-17.538 23.285-37.818 33.311-58.943l1.249-2.924c23.893-56.32 22.187-87.893 14.507-95.147z" fill="currentColor" />
  </g>
</svg>
