<?xml version="1.0" encoding="utf-8"?>
<svg xmlns="http://www.w3.org/2000/svg" viewBox="0 0 1024 1024" width="24" height="24">
  <g transform="scale(1, -1) translate(0, -960)">
    <path d="M640 874.667c-0.518 0.003-1.131 0.005-1.745 0.005-81.405 0-155.204-32.568-209.077-85.386l0.049 0.048-331.947-333.653c-7.668-7.712-12.407-18.343-12.407-30.080s4.74-22.368 12.409-30.082l151.038-151.038-151.040-150.613 60.587-60.587 150.613 151.040 151.040-151.040c7.712-7.668 18.343-12.407 30.080-12.407s22.368 4.74 30.082 12.409l-0.002-0.002 333.653 331.947c53.803 54.007 87.067 128.508 87.067 210.778 0 164.949-133.718 298.667-298.667 298.667-0.61 0-1.219-0.002-1.828-0.005h0.094zM791.040 424.96l-301.653-301.227-120.32 120.747-181.333 181.333 301.653 301.653c38.655 38.655 92.055 62.563 151.040 62.563 117.97 0 213.603-95.633 213.603-213.603 0-58.985-23.908-112.385-62.563-151.040v0z" fill="currentColor" />
  </g>
</svg>
