<?xml version="1.0" encoding="utf-8"?>
<svg xmlns="http://www.w3.org/2000/svg" viewBox="0 0 1024 1024" width="24" height="24">
  <g transform="scale(1, -1) translate(0, -960)">
    <path d="M430.507 426.667c-17.3 27.002-31.816 58.129-41.955 91.171l-0.712 2.696 67.84 67.84c7.795 7.733 12.621 18.45 12.621 30.293s-4.826 22.56-12.618 30.291l-170.67 170.67c-7.712 7.668-18.343 12.407-30.080 12.407s-22.368-4.74-30.082-12.409l0.002 0.002-114.347-115.627c-15.553-15.46-25.178-36.868-25.178-60.524 0-0.322 0.002-0.644 0.005-0.965v0.049c3.958-156.187 61.678-298.171 155.255-408.867l-0.802 0.973-141.653-140.373 60.16-60.587 768 768-60.16 60.587zM298.667 296.533c-77.055 93.976-124.833 214.558-127.987 346.193l-0.013 0.687 85.333 85.333 110.507-110.080-55.040-55.040c-7.722-7.721-12.498-18.388-12.498-30.171 0-3.218 0.356-6.353 1.031-9.367l-0.054 0.285c14.027-60.448 37.916-113.685 70.158-160.75l-1.038 1.604zM712.96 392.96c-7.712 7.668-18.343 12.407-30.080 12.407s-22.368-4.74-30.082-12.409l-68.265-68.265-14.507 5.12-66.56-66.133c23.919-10.655 52.374-20.315 81.818-27.441l3.515-0.719c2.625-0.574 5.639-0.903 8.731-0.903 11.745 0 22.382 4.746 30.097 12.425l55.465 55.465 110.080-110.507-85.333-85.333c-104.116 2.789-200.72 32.559-283.794 82.529l2.621-1.462-61.013-61.867c96.714-62.598 214.196-101.096 340.433-104.514l0.901-0.019c0.272-0.003 0.594-0.005 0.916-0.005 23.444 0 44.679 9.454 60.102 24.757l115.622 115.622c7.795 7.733 12.621 18.45 12.621 30.293s-4.826 22.56-12.618 30.291l-0.003 0.003z" fill="currentColor" />
  </g>
</svg>
