<?xml version="1.0" encoding="utf-8"?>
<svg xmlns="http://www.w3.org/2000/svg" viewBox="0 0 1024 1024" width="24" height="24">
  <g transform="scale(1, -1) translate(0, -960)">
    <path d="M713.045 393.045c-7.716 7.729-18.382 12.51-30.165 12.51s-22.449-4.781-30.165-12.509l-68.14-68.097c-35.157 10.453-92.416 32.896-127.573 68.096-37.291 37.291-58.624 96.128-68.011 127.659l68.011 68.011c7.729 7.716 12.51 18.382 12.51 30.165s-4.781 22.449-12.509 30.165l-170.668 170.668c-7.852 7.424-18.476 11.988-30.165 11.988s-22.313-4.564-30.186-12.007l0.021 0.019-115.584-115.627c-16.299-16.213-25.472-38.571-25.088-61.312 0.939-60.715 16.896-271.659 183.339-438.101 166.315-166.272 377.387-182.357 438.144-183.339h1.195c22.528 0 43.819 8.875 59.947 25.003l115.712 115.712c7.729 7.716 12.51 18.382 12.51 30.165s-4.781 22.449-12.509 30.165l-170.625 170.668zM707.627 106.667c-53.248 0.896-235.435 15.189-378.624 158.379-143.701 143.701-157.525 326.485-158.336 378.624l85.504 85.547 110.336-110.336-55.168-55.168c-10.155-10.155-14.507-24.832-11.563-38.912 1.024-4.907 26.069-121.259 96.896-192.085s187.179-95.872 192.085-96.896c2.66-0.593 5.715-0.933 8.849-0.933 11.748 0 22.381 4.777 30.061 12.494l55.17 55.17 110.336-110.336-85.547-85.547zM673.92 670.251l-119.040 119.083v-298.453h298.453l-119.083 119.040 192.128 192.128-60.331 60.331z" fill="currentColor" />
  </g>
</svg>
