<?xml version="1.0" encoding="utf-8"?>
<svg xmlns="http://www.w3.org/2000/svg" viewBox="0 0 1024 1024" width="24" height="24">
  <g transform="scale(1, -1) translate(0, -960)">
    <path d="M584.832 819.499c-7.696 7.723-18.342 12.501-30.104 12.501-0.022 0-0.043 0-0.065 0h-383.997c-23.564 0-42.667-19.103-42.667-42.667v0-384c0-11.349 4.48-22.187 12.501-30.165l341.333-341.333c7.706-7.749 18.376-12.545 30.165-12.545s22.459 4.796 30.163 12.544l384.002 384.002c7.729 7.716 12.51 18.382 12.51 30.165s-4.781 22.449-12.509 30.165l-341.334 341.334zM512 124.331l-298.667 298.667v323.669h323.669l298.667-298.667-323.669-323.669zM426.709 597.547c0-35.464-28.749-64.213-64.213-64.213s-64.213 28.749-64.213 64.213c0 35.464 28.749 64.213 64.213 64.213s64.213-28.749 64.213-64.213z" fill="currentColor" />
  </g>
</svg>
