<?xml version="1.0" encoding="utf-8"?>
<svg xmlns="http://www.w3.org/2000/svg" viewBox="0 0 1024 1024" width="24" height="24">
  <g transform="scale(1, -1) translate(0, -960)">
    <path d="M571.733 870.571c-17.522 2.529-37.754 3.973-58.323 3.973-128.467 0-243.778-56.326-322.585-145.63l-0.403-0.466c-65.267-74.856-105.060-173.403-105.060-281.243 0-20.788 1.479-41.23 4.337-61.228l-0.268 2.29c22.613-166.144 147.541-307.499 310.827-351.829 33.475-9.525 71.931-15.035 111.662-15.104h0.039l6.059 0.043c45.212 0.601 84.703 24.543 107.035 60.303l0.314 0.539c12.070 19.128 19.233 42.401 19.233 67.347 0 20.185-4.689 39.274-13.038 56.239l0.333-0.749-8.491 17.749c-5.667 10.844-8.992 23.686-8.992 37.305 0 16.447 4.849 31.761 13.196 44.591l-0.193-0.317c15.309 24.57 42.18 40.68 72.813 40.68 13.491 0 26.253-3.125 37.6-8.69l-0.504 0.223 17.579-8.405c17.579-8.448 36.267-12.757 55.509-12.757 70.102 0.371 126.943 56.629 128.254 126.469l0.002 0.123c0.024 1.675 0.037 3.652 0.037 5.633 0 39.898-5.512 78.509-15.817 115.113l0.718-2.985c-44.373 163.243-185.728 288.171-351.872 310.784zM791.808 405.12l-17.579 8.405c-77.995 37.461-173.653 8.448-219.093-63.744-31.488-50.176-34.688-109.909-8.704-163.925l8.491-17.749c2.732-5.415 4.332-11.802 4.332-18.563 0-8.325-2.425-16.083-6.608-22.607l0.1 0.167c-7.507-12.272-20.806-20.357-35.999-20.437h-4.791c-31.835 0.091-62.605 4.493-91.806 12.652l2.419-0.577c-130.688 35.456-230.528 148.437-248.576 281.003-13.696 100.48 15.019 197.248 80.768 272.597 62.922 71.909 154.868 117.073 257.363 117.073 16.979 0 33.668-1.239 49.982-3.633l-1.853 0.223c132.565-18.048 245.547-117.931 281.003-248.576 8.448-31.147 12.501-62.891 12.032-94.165-0.512-34.432-36.053-50.475-61.483-38.144zM384 341.333c0-35.346-28.654-64-64-64s-64 28.654-64 64c0 35.346 28.654 64 64 64s64-28.654 64-64zM384 512c0-35.346-28.654-64-64-64s-64 28.654-64 64c0 35.346 28.654 64 64 64s64-28.654 64-64zM512 640c0-35.346-28.654-64-64-64s-64 28.654-64 64c0 35.346 28.654 64 64 64s64-28.654 64-64zM682.667 640c0-35.346-28.654-64-64-64s-64 28.654-64 64c0 35.346 28.654 64 64 64s64-28.654 64-64z" fill="currentColor" />
  </g>
</svg>
