<?xml version="1.0" encoding="utf-8"?>
<svg xmlns="http://www.w3.org/2000/svg" viewBox="0 0 1024 1024" width="24" height="24">
  <g transform="scale(1, -1) translate(0, -960)">
    <path d="M713.045 393.045c-7.716 7.729-18.382 12.51-30.165 12.51s-22.449-4.781-30.165-12.509l-68.012-68.012c-31.531 9.387-90.368 30.72-127.659 68.011s-58.624 96.128-68.011 127.659l68.011 68.011c7.729 7.716 12.51 18.382 12.51 30.165s-4.781 22.449-12.509 30.165l-170.668 170.668c-7.716 7.729-18.382 12.51-30.165 12.51s-22.449-4.781-30.165-12.509l-115.713-115.713c-16.213-16.213-25.344-38.485-25.003-61.227 0.981-60.757 17.067-271.787 183.381-438.101s377.344-182.357 438.101-183.339h1.195c22.528 0 43.819 8.875 59.947 25.003l115.712 115.712c7.729 7.716 12.51 18.382 12.51 30.165s-4.781 22.449-12.509 30.165l-170.625 170.668zM707.627 106.667c-53.248 0.896-235.435 15.189-378.581 158.379-143.616 143.616-157.525 326.443-158.379 378.624l85.547 85.547 110.336-110.336-55.168-55.168c-7.728-7.722-12.508-18.394-12.508-30.181 0-3.092 0.329-6.106 0.953-9.011l-0.051 0.28c1.024-4.907 26.069-121.259 96.896-192.085s187.179-95.872 192.085-96.896c2.664-0.596 5.724-0.937 8.863-0.937 11.745 0 22.373 4.779 30.047 12.498l55.17 55.17 110.336-110.336-85.547-85.547zM716.587 712.917l-191.872-191.872 60.331-60.331 191.872 191.872 119.296-119.253v298.88h-298.88z" fill="currentColor" />
  </g>
</svg>
