<?xml version="1.0" encoding="utf-8"?>
<svg xmlns="http://www.w3.org/2000/svg" viewBox="0 0 1024 1024" width="24" height="24">
  <g transform="scale(1, -1) translate(0, -960)">
    <path d="M810.667 661.333h-42.667v213.333h-512v-213.333h-42.667c-70.571 0-128-57.429-128-128v-298.667c0-47.061 38.272-85.333 85.333-85.333h85.333v-128h512v128h85.333c47.061 0 85.333 38.272 85.333 85.333v298.667c0 70.571-57.429 128-128 128zM341.333 789.333h341.333v-128h-341.333v128zM682.667 106.667h-341.333v170.667h341.333v-170.667zM853.333 234.667h-85.333v128h-512v-128h-85.333v298.667c0 23.509 19.157 42.667 42.667 42.667h597.333c23.552 0 42.667-19.157 42.667-42.667v-298.667zM597.333 533.333h170.667v-85.333h-170.667z" fill="currentColor" />
  </g>
</svg>
