<?xml version="1.0" encoding="utf-8"?>
<svg xmlns="http://www.w3.org/2000/svg" viewBox="0 0 1024 1024" width="24" height="24">
  <g transform="scale(1, -1) translate(0, -960)">
    <path d="M724.053 757.035c-4.765 18.724-21.475 32.351-41.368 32.351-18.753 0-34.677-12.11-40.379-28.936l-0.088-0.3-135.936-407.637-125.952 283.477c-6.853 15.012-21.734 25.256-39.008 25.256-17.828 0-33.107-10.913-39.523-26.423l-0.104-0.284-74.581-186.539h-141.781v-85.333h141.781c35.115 0 66.219 21.077 79.189 53.632l37.077 92.672 129.579-291.627c6.912-15.488 22.229-25.344 39.040-25.344l2.048 0.043c17.899 0.876 32.826 12.679 38.312 28.841l0.088 0.3 124.331 372.992 41.771-166.869c9.503-37.409 42.881-64.64 82.62-64.64 0.054 0 0.108 0 0.162 0h137.336v85.333h-137.387l-77.227 309.035z" fill="currentColor" />
  </g>
</svg>
