<?xml version="1.0" encoding="utf-8"?>
<svg xmlns="http://www.w3.org/2000/svg" viewBox="0 0 1024 1024" width="24" height="24">
  <g transform="scale(1, -1) translate(0, -960)">
    <path d="M785.237 832.085c-32.299 32.171-88.619 32.043-120.661-0.213l-76.117-76.416-94.123-94.123h-195.669c-0.009 0-0.019 0-0.030 0-18.312 0-33.925-11.56-39.938-27.78l-0.096-0.295-170.667-469.333c-5.675-15.573-1.792-33.024 9.899-44.757l85.333-85.333c7.702-7.721 18.352-12.497 30.117-12.497 5.255 0 10.287 0.953 14.933 2.695l-0.293-0.096 469.333 170.667c16.515 6.109 28.075 21.722 28.075 40.034 0 0.011 0 0.021 0 0.032v-0.002 195.669l94.208 94.208 76.459 76.672c16.128 16.128 25.003 37.589 24.96 60.373 0 22.827-8.917 44.288-25.088 60.373l-110.635 110.123zM652.501 478.165c-7.723-7.696-12.501-18.342-12.501-30.104 0-0.022 0-0.043 0-0.065v0.003-183.467l-394.624-143.488 199.296 199.296c1.109-0.043 2.219-0.341 3.328-0.341 35.346 0 64 28.654 64 64s-28.654 64-64 64c-35.346 0-64-28.654-64-64v0c0-1.109 0.299-2.219 0.341-3.328l-199.296-199.296 143.488 394.624h183.467c11.349 0 22.187 4.48 30.165 12.501l76.501 76.501 110.336-110.336-76.501-76.501zM789.291 615.040l-110.336 110.336 46.037 46.251 110.635-110.123-46.336-46.464z" fill="currentColor" />
  </g>
</svg>
