<?xml version="1.0" encoding="utf-8"?>
<svg xmlns="http://www.w3.org/2000/svg" viewBox="0 0 1024 1024" width="24" height="24">
  <g transform="scale(1, -1) translate(0, -960)">
    <path d="M725.504 746.667h-341.504c-78.421 0-153.003-31.445-210.091-88.576-57.131-57.131-88.576-131.712-88.576-210.091 0-78.421 31.445-153.003 88.576-210.091 57.088-57.131 131.669-88.576 210.091-88.576h341.333v85.333h-341.333c-55.595 0-108.8 22.571-149.76 63.573-41.003 40.96-63.573 94.165-63.573 149.76 0 55.552 22.571 108.757 63.573 149.76 40.96 41.003 94.165 63.573 149.76 63.573h341.333v42.667l0.043-42.667h0.128c33.707 0 65.664-13.397 89.984-37.803 24.363-24.363 37.803-56.405 37.845-90.283-0.030-35.231-14.452-67.087-37.703-90.012l-0.015-0.014c-23.030-23.303-54.955-37.771-90.26-37.888h-341.355c-11.69 0.146-22.214 5.019-29.772 12.79l-0.009 0.010c-7.829 7.578-12.734 18.135-12.885 29.839v0.028c0 10.752 4.693 21.632 12.843 29.781 7.558 7.834 18.104 12.742 29.797 12.885h341.36v85.333h-341.333c-33.707 0-65.749-13.44-90.197-37.931-24.405-24.405-37.803-56.405-37.803-90.069s13.397-65.707 37.888-90.197c22.968-23.286 54.846-37.732 90.099-37.803h341.389c58.868 0.043 112.117 24.068 150.511 62.831l0.017 0.017c38.729 38.413 62.706 91.649 62.706 150.486 0 58.857-23.994 112.111-62.733 150.513l-0.015 0.015c-38.311 38.784-91.491 62.805-150.281 62.805-0.027 0-0.053 0-0.080 0h0.004z" fill="currentColor" />
  </g>
</svg>
