<?xml version="1.0" encoding="utf-8"?>
<svg xmlns="http://www.w3.org/2000/svg" viewBox="0 0 1024 1024" width="24" height="24">
  <g transform="scale(1, -1) translate(0, -960)">
    <path d="M512 64c188.203 0 341.333 153.131 341.333 341.333 0 142.933-88.405 265.429-213.333 316.203v-94.848c76.962-45.029 127.868-127.232 128-221.336v-0.019c0-141.184-114.816-256-256-256s-256 114.816-256 256c0.123 94.125 51.032 176.332 126.792 220.701l1.208 0.654v94.848c-124.928-50.773-213.333-173.269-213.333-316.203 0-188.203 153.131-341.333 341.333-341.333zM469.333 874.667h85.333v-426.667h-85.333z" fill="currentColor" />
  </g>
</svg>
