<?xml version="1.0" encoding="utf-8"?>
<svg xmlns="http://www.w3.org/2000/svg" viewBox="0 0 1024 1024" width="24" height="24">
  <g transform="scale(1, -1) translate(0, -960)">
    <path d="M301.269 21.333c64.981 0 121.173 23.168 166.827 68.821 47.915 47.915 72.832 121.771 66.176 191.744l365.397 365.397c24.055 24.103 38.93 57.376 38.93 94.123 0 36.789-14.909 70.096-39.015 94.208v0c-50.261 50.347-137.984 50.347-188.245 0l-379.051-379.051c-81.621-7.211-162.432-64.896-162.432-167.211 0-12.928 0.896-25.088 1.792-36.693 3.413-43.989 4.651-60.501-62.763-94.208-14.082-7.177-23.558-21.57-23.558-38.175 0-14.475 7.201-27.268 18.216-34.993l0.137-0.091c3.84-2.56 93.568-63.872 197.589-63.872-0.043 0-0.043 0 0 0zM771.669 775.339c8.755 8.409 20.668 13.587 33.79 13.587 13.166 0 25.114-5.212 33.893-13.686l-0.014 0.014c8.649-8.648 13.998-20.595 13.998-33.792s-5.349-25.144-13.998-33.792l-327.339-327.339-67.669 67.669 327.339 327.339zM256.768 259.285c-0.768 9.557-1.579 19.541-1.579 30.123 0 65.92 61.653 83.328 94.293 83.328 15.189 0 29.824-3.115 41.131-8.789 40.32-20.267 53.76-55.168 57.899-80.896 7.552-46.507-9.259-101.035-40.789-132.565-29.483-29.483-64.299-43.819-106.453-43.819h-0.043c-32 0-63.104 8.363-88.491 18.219 46.165 41.515 47.829 84.864 44.032 134.4z" fill="currentColor" />
  </g>
</svg>
