<?xml version="1.0" encoding="utf-8"?>
<svg xmlns="http://www.w3.org/2000/svg" viewBox="0 0 1024 1024" width="24" height="24">
  <g transform="scale(1, -1) translate(0, -960)">
    <path d="M499.499 862.165c-7.702 7.723-18.354 12.501-30.121 12.501-0.015 0-0.031 0-0.046 0h-213.331c-0.013 0-0.028 0-0.044 0-11.768 0-22.419-4.778-30.12-12.5l-128.001-128.001c-7.723-7.696-12.501-18.342-12.501-30.104 0-0.022 0-0.043 0-0.065v0.003-213.333c0-11.349 4.48-22.187 12.501-30.165l426.667-426.667c7.706-7.749 18.376-12.545 30.165-12.545s22.459 4.796 30.163 12.544l341.335 341.335c7.729 7.716 12.51 18.382 12.51 30.165s-4.781 22.449-12.509 30.165l-426.668 426.668zM554.667 124.331l-384 384v178.005l102.997 102.997h178.005l384-384-281.003-281.003zM426.667 603.605c0-38.81-31.462-70.272-70.272-70.272s-70.272 31.462-70.272 70.272c0 38.81 31.462 70.272 70.272 70.272s70.272-31.462 70.272-70.272z" fill="currentColor" />
  </g>
</svg>
