<?xml version="1.0" encoding="utf-8"?>
<svg xmlns="http://www.w3.org/2000/svg" viewBox="0 0 1024 1024" width="24" height="24">
  <g transform="scale(1, -1) translate(0, -960)">
    <path d="M597.76 448c0-47.128-38.205-85.333-85.333-85.333s-85.333 38.205-85.333 85.333c0 47.128 38.205 85.333 85.333 85.333s85.333-38.205 85.333-85.333zM469.76 21.333h85.333l21.333 298.667h-128l21.333-298.667zM512 874.667c-234.56-1.424-424.156-191.9-424.156-426.659 0-197.599 134.325-363.825 316.644-412.346l2.979-0.674-6.4 90.453c-135.089 47.524-230.187 174.021-230.187 322.73 0 188.513 152.82 341.333 341.333 341.333s341.333-152.82 341.333-341.333c0-148.709-95.098-275.206-227.796-321.996l-2.39-0.735-6.4-90.453c185.294 49.199 319.614 215.423 319.614 413.018 0 234.906-189.834 425.473-424.461 426.661h-0.114zM653.653 549.973c5.938-8.37 11.233-17.919 15.429-28.040l0.358-0.973c3.986-9.116 7.376-19.828 9.635-30.95l0.178-1.050c2.441-10.212 3.84-21.936 3.84-33.987 0-0.052 0-0.103 0-0.155v0.008c0-0.042 0-0.092 0-0.142 0-12.201-1.399-24.076-4.046-35.472l0.206 1.054c-2.438-12.172-5.827-22.884-10.221-33.060l0.407 1.060c-4.553-11.094-9.849-20.643-16.095-29.472l0.308 0.459c-4.945-6.831-9.843-12.812-15.064-18.49l0.13 0.144-8.107-111.787c9.792 4.501 17.906 8.913 25.704 13.784l-0.957-0.557c27.89 18.498 51.18 41.516 69.417 68.256l0.556 0.864c8.626 12.296 16.481 26.321 22.874 41.125l0.592 1.541c6.010 13.71 11.162 29.841 14.649 46.582l0.284 1.631c2.75 14.156 4.323 30.436 4.323 47.083 0 1.898-0.020 3.79-0.061 5.678l0.005-0.281c-0.171 18.374-2.183 36.179-5.859 53.367l0.312-1.741c-6.978 34.56-19.884 65.191-37.725 92.285l0.605-0.978c-9.676 14.186-19.919 26.596-31.176 38.003l0.029-0.029c-11.312 11.384-23.735 21.638-37.1 30.596l-0.873 0.551c-12.263 8.539-26.267 16.517-40.981 23.207l-1.685 0.686c-14.23 5.516-31.018 10.115-48.381 13.014l-1.539 0.212c-15.457 3.256-33.217 5.12-51.413 5.12s-35.957-1.864-53.101-5.412l1.688 0.292c-18.312-3.777-34.437-9.077-49.696-15.958l1.483 0.598c-16.345-6.985-30.37-14.84-43.435-23.975l0.768 0.509c-14.238-9.508-26.661-19.763-37.961-31.134l-0.012-0.012c-12.106-11.003-23.018-22.863-32.809-35.628l-0.471-0.639c-17.68-26.072-31.005-56.676-38.092-89.598l-0.308-1.708c-2.734-14.291-4.298-30.729-4.298-47.532 0-1.44 0.011-2.877 0.034-4.311l-0.003 0.216c0-0.126 0-0.275 0-0.425 0-18.122 1.864-35.808 5.412-52.878l-0.291 1.676c3.771-18.372 8.923-34.503 15.56-49.841l-0.627 1.628c6.985-16.345 14.84-30.37 23.975-43.435l-0.509 0.768c18.871-27.301 41.819-50.249 68.236-68.541l0.884-0.579c6.841-4.314 14.955-8.726 23.348-12.641l1.399-0.586-9.387 110.933c-5.091 5.535-9.988 11.516-14.533 17.769l-0.4 0.578c-5.938 8.37-11.233 17.919-15.429 28.040l-0.358 0.973c-3.986 9.116-7.376 19.828-9.635 30.95l-0.178 1.050c-1.48 8.062-2.326 17.34-2.326 26.815 0 2.724 0.070 5.432 0.208 8.121l-0.015-0.377c-0.009 0.609-0.014 1.329-0.014 2.049 0 11.366 1.248 22.441 3.616 33.094l-0.188-1.010c2.438 12.172 5.827 22.884 10.221 33.060l-0.407-1.060c4.553 11.094 9.849 20.643 16.095 29.472l-0.308-0.459c6.546 9.748 13.567 18.26 21.333 26.027v0c7.508 7.45 15.74 14.191 24.575 20.103l0.598 0.377c8.37 5.938 17.919 11.233 28.040 15.429l0.973 0.358c9.106 4.109 19.802 7.637 30.915 10.043l1.085 0.197c10.327 2.034 22.201 3.198 34.347 3.198s24.020-1.164 35.517-3.387l-1.17 0.188c12.198-2.603 22.894-6.131 33.047-10.657l-1.047 0.417c21.226-8.484 39.29-20.794 54.141-36.218l0.046-0.048c7.744-7.689 14.641-16.214 20.55-25.432l0.357-0.595z" fill="currentColor" />
  </g>
</svg>
