<?xml version="1.0" encoding="utf-8"?>
<svg xmlns="http://www.w3.org/2000/svg" viewBox="0 0 1024 1024" width="24" height="24">
  <g transform="scale(1, -1) translate(0, -960)">
    <path d="M512 874.667c-0.334 0.001-0.73 0.001-1.126 0.001-117.466 0-223.774-47.775-300.552-124.954l-0.018-0.018c-80.597-80.597-124.971-187.776-124.971-301.696s44.373-221.099 124.971-301.696c80.597-80.597 187.776-124.971 301.696-124.971s221.099 44.373 301.696 124.971c80.597 80.597 124.971 187.776 124.971 301.696s-44.373 221.099-124.971 301.696c-76.796 77.197-183.104 124.972-300.57 124.972-0.396 0-0.792-0.001-1.187-0.002h0.062zM753.365 206.635c-64.469-64.469-150.187-99.968-241.365-99.968s-176.896 35.499-241.365 99.968c-64.469 64.469-99.968 150.187-99.968 241.365s35.499 176.896 99.968 241.365c51.819 52.006 120.444 87.237 197.037 96.854l1.661 0.17v-338.389c0-23.564 19.103-42.667 42.667-42.667v0h338.389c-9.787-78.255-45.018-146.879-97.014-198.689l-0.010-0.010zM554.667 490.667v296.021c78.273-9.935 146.881-45.253 198.685-97.309l0.013-0.013c52.099-51.799 87.425-120.417 97.149-197.024l0.173-1.675h-296.021z" fill="currentColor" />
  </g>
</svg>
