<?xml version="1.0" encoding="utf-8"?>
<svg xmlns="http://www.w3.org/2000/svg" viewBox="0 0 1024 1024" width="24" height="24">
  <g transform="scale(1, -1) translate(0, -960)">
    <path d="M128 618.667h85.333v-213.333c0-94.123 76.544-170.667 170.667-170.667h85.333v-213.333h85.333v213.333h85.333c94.123 0 170.667 76.544 170.667 170.667v213.333h85.333v85.333h-768v-85.333zM298.667 618.667h426.667v-213.333c0-47.061-38.272-85.333-85.333-85.333h-256c-47.061 0-85.333 38.272-85.333 85.333v213.333zM298.667 874.667h85.333v-128h-85.333zM640 874.667h85.333v-128h-85.333z" fill="currentColor" />
  </g>
</svg>
