<?xml version="1.0" encoding="utf-8"?>
<svg xmlns="http://www.w3.org/2000/svg" viewBox="0 0 1024 1024" width="24" height="24">
  <g transform="scale(1, -1) translate(0, -960)">
    <path d="M470.357 467.797l-43.691 65.536-85.333-128h384l-149.333 213.333zM469.589 640.128c0-35.417-28.711-64.128-64.128-64.128s-64.128 28.711-64.128 64.128c0 35.417 28.711 64.128 64.128 64.128s64.128-28.711 64.128-64.128zM810.667 874.667h-554.667c-51.456 0-128-34.091-128-128v-597.333c0-93.909 76.544-128 128-128h640v85.333h-639.488c-19.712 0.512-43.179 8.277-43.179 42.667s23.467 42.155 43.179 42.667h639.488v597.333c0 47.061-38.272 85.333-85.333 85.333zM810.667 277.333h-597.333v469.333c0 34.389 23.467 42.155 42.667 42.667h554.667v-512z" fill="currentColor" />
  </g>
</svg>
