<?xml version="1.0" encoding="utf-8"?>
<svg xmlns="http://www.w3.org/2000/svg" viewBox="0 0 1024 1024" width="24" height="24">
  <g transform="scale(1, -1) translate(0, -960)">
    <path d="M853.333 490.667v256c0 47.061-38.272 85.333-85.333 85.333h-128c0 23.564-19.103 42.667-42.667 42.667v0h-256c-23.564 0-42.667-19.103-42.667-42.667v0h-128c-47.061 0-85.333-38.272-85.333-85.333v-554.667c0-47.061 38.272-85.333 85.333-85.333h298.667c0-47.061 38.272-85.333 85.333-85.333h298.667c47.061 0 85.333 38.272 85.333 85.333v298.667c0 47.061-38.272 85.333-85.333 85.333zM469.333 405.333v-213.333h-298.667v554.667h128v-85.333h341.333v85.333h128v-256h-213.333c-47.061 0-85.333-38.272-85.333-85.333zM554.667 106.667v298.667h298.667l0.043-298.667h-298.709z" fill="currentColor" />
  </g>
</svg>
