<?xml version="1.0" encoding="utf-8"?>
<svg xmlns="http://www.w3.org/2000/svg" viewBox="0 0 1024 1024" width="24" height="24">
  <g transform="scale(1, -1) translate(0, -960)">
    <path d="M170.667 789.333h171.093v85.333h-256.427v-256h85.333v170.667zM170.667 277.333h-85.333v-256h256.427v85.333h-171.093v170.667zM853.333 106.667h-170.667v-85.333h256v256h-85.333v-170.667zM682.667 789.333h170.667v-170.667h85.333v256h-256v-85.333zM213.333 490.667h256v256h-256zM298.667 661.333h85.333v-85.333h-85.333zM213.333 149.333h256v256h-256zM298.667 320h85.333v-85.333h-85.333zM810.667 746.667h-256v-256h256zM725.333 576h-85.333v85.333h85.333zM555.093 405.333h85.333v-85.333h-85.333zM640.427 320h85.333v-85.333h-85.333zM725.76 234.667h85.333v-85.333h-85.333zM725.76 405.333h85.333v-85.333h-85.333z" fill="currentColor" />
  </g>
</svg>
