<?xml version="1.0" encoding="utf-8"?>
<svg xmlns="http://www.w3.org/2000/svg" viewBox="0 0 1024 1024" width="24" height="24">
  <g transform="scale(1, -1) translate(0, -960)">
    <path d="M512 789.333c-117.632 0-213.333-95.701-213.333-213.333h85.333c0 70.571 57.429 128 128 128s128-57.429 128-128c0-45.611-19.371-62.507-63.189-96.213-16.299-12.544-34.688-26.709-52.309-44.288-55.979-55.936-55.381-111.104-55.168-115.499v-85.333h85.333v85.717c0 1.024 0.981 25.643 30.165 54.784 13.653 13.653 29.099 25.515 43.989 36.992 45.227 34.816 96.512 74.24 96.512 163.84 0 117.632-95.701 213.333-213.333 213.333zM469.333 192h85.333v-85.333h-85.333z" fill="currentColor" />
  </g>
</svg>
