<?xml version="1.0" encoding="utf-8"?>
<svg xmlns="http://www.w3.org/2000/svg" viewBox="0 0 1024 1024" width="24" height="24">
  <g transform="scale(1, -1) translate(0, -960)">
    <path d="M128 490.667h341.333v341.333h-341.333zM213.333 746.667h170.667v-170.667h-170.667zM128 64h341.333v341.333h-341.333zM213.333 320h170.667v-170.667h-170.667zM554.667 832v-341.333h341.333v341.333zM810.667 576h-170.667v170.667h170.667zM555.093 405.333h85.333v-85.333h-85.333zM640.427 320h85.333v-85.333h-85.333zM555.093 234.667h85.333v-85.333h-85.333zM725.76 234.667h85.333v-85.333h-85.333zM811.093 149.333h85.333v-85.333h-85.333zM640.427 149.333h85.333v-85.333h-85.333zM725.76 405.333h85.333v-85.333h-85.333zM811.093 320h85.333v-85.333h-85.333z" fill="currentColor" />
  </g>
</svg>
