<?xml version="1.0" encoding="utf-8"?>
<svg xmlns="http://www.w3.org/2000/svg" viewBox="0 0 1024 1024" width="24" height="24">
  <g transform="scale(1, -1) translate(0, -960)">
    <path d="M288.341 586.325l-60.331 60.331c-33.667-33.695-60.368-74.356-77.756-119.634l-0.793-2.35 79.915-29.909c13.658 35.748 33.701 66.266 58.968 91.566l-0.003-0.003zM810.667 405.376c0.001 0.307 0.002 0.671 0.002 1.035 0 93.913-38.237 178.895-99.993 240.226l-0.019 0.019c-51.787 52.041-120.405 87.292-196.998 96.897l-1.658 0.17v130.944l-213.333-170.667 213.333-170.667v124.203c54.525-9.228 101.947-34.706 138.318-71.203l0.007-0.007c46.332-46.044 75.009-109.807 75.009-180.268 0-0.254 0-0.509-0.001-0.763v0.039-0.085c0-14.080-1.408-27.947-3.669-41.685-0.299-1.835-0.469-3.755-0.811-5.589-8.145-41.403-25.146-77.882-49-108.804l0.446 0.601c-6.827-8.917-14.123-17.579-22.016-25.472-9.394-9.293-19.535-17.878-30.309-25.639l-0.752-0.516c-27.462-20.305-60.095-35.374-95.494-43.007l-1.658-0.3c-6.059-1.28-12.16-2.133-18.347-2.944-2.645-0.384-5.205-0.896-7.851-1.152-7.963-0.864-17.199-1.357-26.55-1.357-19.28 0-38.070 2.095-56.156 6.070l1.725-0.318-18.091-83.413c21.738-4.873 46.704-7.664 72.322-7.664 12.608 0 25.059 0.676 37.317 1.994l-1.521-0.133c2.944 0.299 5.888 0.896 8.832 1.28 8.747 1.109 17.451 2.389 26.027 4.181l2.261 0.384-0.043 0.213c34.408 7.504 64.857 19.208 92.847 34.795l-1.711-0.875 0.043-0.043 1.195 0.811c16.455 9.248 30.54 18.705 43.822 29.138l-0.729-0.551c11.52 8.917 22.699 18.347 33.152 28.8 10.581 10.539 20.053 21.888 29.056 33.493 0.896 1.195 2.091 2.261 2.987 3.456l-0.256 0.171c18.627 24.508 34.357 52.658 45.861 82.891l0.773 2.315 0.341-0.128c1.237 3.328 2.133 6.741 3.243 10.112 1.579 4.693 3.2 9.429 4.565 14.208 1.707 5.973 3.115 11.989 4.48 18.048 0.939 4.224 2.048 8.32 2.816 12.587 1.365 7.296 2.389 14.677 3.243 22.016 0.427 3.243 0.981 6.4 1.28 9.685 0.981 10.624 1.579 21.333 1.579 32.128 0.085 0.085 0.085 0.171 0.085 0.341zM264.405 251.861l-68.267-51.243c29.412-38.883 65.939-70.724 107.86-94.040l1.751-0.894 41.003 74.837c-32.828 18.163-60.275 42.096-81.878 70.691l-0.469 0.648zM213.333 405.333c0 6.187 0.213 12.245 0.64 18.304l-85.077 6.101c-0.576-7.419-0.904-16.066-0.904-24.79 0-42.774 7.89-83.704 22.295-121.416l-0.783 2.334 79.915 29.909c-10.186 26.478-16.086 57.111-16.086 89.122 0 0.153 0 0.306 0 0.459v-0.024z" fill="currentColor" />
  </g>
</svg>
