<?xml version="1.0" encoding="utf-8"?>
<svg xmlns="http://www.w3.org/2000/svg" viewBox="0 0 1024 1024" width="24" height="24">
  <g transform="scale(1, -1) translate(0, -960)">
    <path d="M810.667 789.333c0-47.128-38.205-85.333-85.333-85.333s-85.333 38.205-85.333 85.333c0 47.128 38.205 85.333 85.333 85.333s85.333-38.205 85.333-85.333zM673.152 491.989c15.593-22.999 41.607-37.914 71.104-37.914 7.294 0 14.375 0.912 21.136 2.628l-0.592-0.127 141.483 35.371-20.608 82.773-141.483-35.371-58.837 88.192c-12.461 18.482-31.511 31.704-53.715 36.34l-0.557 0.097-164.096 32.853c-5.043 1.060-10.838 1.667-16.774 1.667-33.211 0-61.986-18.991-76.059-46.707l-0.224-0.485-70.741-141.483 76.331-38.187 70.741 141.525 83.925-16.811-217.003-361.685h-189.184v-85.333h189.184c29.781 0 57.813 15.872 73.173 41.429l81.835 136.363 220.544-44.117 77.483-232.491 80.896 27.008-77.44 232.448c-9.878 28.88-33.965 50.476-63.701 56.65l-0.555 0.096-129.664 25.899 75.605 126.037 17.792-26.667z" fill="currentColor" />
  </g>
</svg>
