<?xml version="1.0" encoding="utf-8"?>
<svg xmlns="http://www.w3.org/2000/svg" viewBox="0 0 1024 1024" width="24" height="24">
  <g transform="scale(1, -1) translate(0, -960)">
    <path d="M512.256 874.368c-0.47 0.002-1.025 0.003-1.581 0.003-117.268 0-223.406-47.657-300.101-124.661l-0.014-0.014c-166.315-166.357-166.315-437.035 0-603.392 80.427-80.427 187.563-124.715 301.696-124.715s221.312 44.288 301.696 124.715c166.315 166.315 166.315 436.992 0 603.392-76.715 77.018-182.858 124.675-300.132 124.675-0.55 0-1.099-0.001-1.649-0.003h0.085zM753.621 206.677c-64.299-64.299-150.059-99.712-241.365-99.712s-177.067 35.413-241.365 99.712c-133.035 133.077-133.035 349.611 0 482.688 64.299 64.299 150.016 99.669 241.365 99.669s177.067-35.371 241.365-99.669c133.035-133.077 133.035-349.611 0-482.688zM489.259 485.333l-137.131-137.131 60.331-60.331 137.131 137.131 90.667-90.624v241.621h-241.621z" fill="currentColor" />
  </g>
</svg>
