<?xml version="1.0" encoding="utf-8"?>
<svg xmlns="http://www.w3.org/2000/svg" viewBox="0 0 1024 1024" width="24" height="24">
  <g transform="scale(1, -1) translate(0, -960)">
    <path d="M511.957 874.965c-235.264-0.043-426.667-191.445-426.667-426.709s191.403-426.667 426.709-426.667c235.221 0 426.624 191.403 426.667 426.667 0 235.264-191.403 426.667-426.709 426.709zM512 106.923c-188.245 0-341.376 153.131-341.376 341.333s153.131 341.333 341.333 341.376c188.245-0.043 341.376-153.173 341.376-341.376-0.043-188.203-153.173-341.333-341.333-341.333zM512 490.923h-170.667v-85.333h170.667v-128.256l170.88 170.88-170.88 170.837z" fill="currentColor" />
  </g>
</svg>
