<?xml version="1.0" encoding="utf-8"?>
<svg xmlns="http://www.w3.org/2000/svg" viewBox="0 0 1024 1024" width="24" height="24">
  <g transform="scale(1, -1) translate(0, -960)">
    <path d="M692.992 224.341c-16.888-16.891-36.109-31.448-57.139-43.148l-1.314-0.671 41.003-74.837c43.655 24.234 80.177 56.071 108.987 94.076l0.623 0.858-68.267 51.243c-7.639-10.142-15.47-19.122-23.887-27.514l-0.006-0.006zM767.36 423.637c0.434-5.575 0.682-12.073 0.682-18.629 0-32.052-5.915-62.723-16.714-90.981l0.587 1.748 79.915-29.909c13.62 35.375 21.509 76.304 21.509 119.075 0 8.711-0.327 17.346-0.97 25.892l0.069-1.138-85.077-6.059zM831.872 524.672c-18.181 47.629-44.883 88.289-78.552 121.987l0.003-0.003-60.331-60.331c25.24-25.311 45.278-55.825 58.365-89.791l0.6-1.772 79.915 29.909zM485.077 150.784c-2.005 0.213-4.011 0.64-6.016 0.896-8.295 1.028-15.092 2.152-21.803 3.51l1.835-0.31c-39.591 8.483-74.352 25.179-103.848 48.288l0.552-0.416c-9.149 6.989-17.262 14.060-24.898 21.612l0.023-0.023c-7.666 7.791-14.877 16.098-21.551 24.837l-0.465 0.635c-15.546 19.974-28.409 43.054-37.459 67.963l-0.557 1.754c-3.992 10.657-7.634 23.563-10.266 36.834l-0.273 1.651c-0.341 1.835-0.512 3.755-0.811 5.589-2.145 12.449-3.428 26.852-3.541 41.535l-0.001 0.108v0.085c0 68.395 26.624 132.651 75.008 180.992 36.379 36.505 83.8 61.983 136.828 71l1.497 0.21v-124.203l213.333 170.667-213.333 170.667v-130.944c-78.251-9.775-146.869-45.025-198.642-97.053l-0.014-0.014c-61.775-61.357-100.012-146.345-100.012-240.263 0-0.358 0.001-0.715 0.002-1.072v0.055-0.384c0-10.795 0.597-21.504 1.579-32.128 0.299-3.243 0.896-6.4 1.28-9.685 0.896-7.339 1.877-14.72 3.243-22.016 0.811-4.267 1.877-8.363 2.816-12.587 1.365-6.059 2.773-12.075 4.48-18.048 1.365-4.779 2.987-9.515 4.565-14.208 1.109-3.371 2.005-6.784 3.243-10.112l0.341 0.128c12.34-32.53 28.095-60.661 47.332-86.003l-0.612 0.841-0.299-0.213c0.896-1.195 2.091-2.261 2.987-3.456 9.003-11.605 18.475-22.955 29.056-33.493 12.489-12.318 25.943-23.74 40.206-34.116l1.010-0.7c11.307-8.192 22.912-15.872 35.029-22.571l1.195-0.811 0.043 0.043c26.279-14.712 56.728-26.416 88.907-33.508l2.229-0.412-0.043-0.213 2.261-0.384c8.576-1.792 17.28-3.029 26.027-4.181 2.944-0.384 5.888-0.981 8.832-1.28 10.714-1.188 23.137-1.865 35.719-1.865 25.617 0 50.579 2.809 74.593 8.135l-2.279-0.425-18.091 83.413c-16.35-3.648-35.128-5.738-54.394-5.738-9.455 0-18.792 0.503-27.987 1.485l1.143-0.099z" fill="currentColor" />
  </g>
</svg>
