<?xml version="1.0" encoding="utf-8"?>
<svg xmlns="http://www.w3.org/2000/svg" viewBox="0 0 1024 1024" width="24" height="24">
  <g transform="scale(1, -1) translate(0, -960)">
    <path d="M848.64 528.853c-10.222 23.868-21.487 44.281-34.493 63.416l0.829-1.293-70.741-47.744c19.454-28.552 34.075-62.098 41.782-98.206l0.33-1.847c3.607-16.983 5.673-36.496 5.673-56.491s-2.065-39.508-5.995-58.336l0.322 1.845c-4.179-20.037-9.828-37.603-17.076-54.315l0.692 1.792c-7.728-18.204-16.342-33.8-26.332-48.378l0.604 0.933c-20.545-30.032-45.729-55.202-74.804-75.105l-0.972-0.628c-28.528-19.444-62.044-34.064-98.119-41.781l-1.849-0.331c-16.97-3.561-36.471-5.6-56.448-5.6s-39.477 2.039-58.305 5.92l1.857-0.32c-55.769 11.721-103.974 38.681-141.522 76.285l-0.003 0.003c-24.902 24.916-45.162 54.474-59.371 87.264l-0.704 1.824c-6.487 14.883-12.106 32.435-15.971 50.635l-0.328 1.845c-3.588 16.898-5.643 36.314-5.643 56.209 0 39.423 8.068 76.961 22.643 111.054l-0.701-1.844c14.853 34.599 35.106 64.137 60.027 88.997l0.005 0.005c24.907 24.858 54.432 45.099 87.175 59.325l1.827 0.707c16.853 7.125 34.56 12.629 52.48 16.299 4.565 0.939 9.216 1.365 13.824 2.091v-129.749l213.333 170.667-213.333 170.667v-125.355c-12.408-1.379-22.952-3.046-33.34-5.141l2.407 0.405c-49.587-10.37-93.426-29.496-131.932-55.844l1.244 0.804c-97.747-66.605-161.093-177.399-161.093-302.989 0-51.302 10.57-100.135 29.651-144.44l-0.91 2.374c19.346-45.185 45.764-83.76 78.288-116.218l0.006-0.006c32.476-32.415 70.994-58.791 113.716-77.291l2.38-0.917c41.947-18.228 90.806-28.832 142.143-28.832 26.126 0 51.61 2.746 76.179 7.966l-2.386-0.425c119.342 25.286 215.63 106.014 262 213.351l0.912 2.372c9.387 22.187 16.597 45.269 21.333 68.608 4.718 22.126 7.419 47.548 7.419 73.6s-2.702 51.474-7.84 75.999l0.421-2.399c-5.492 26.199-12.831 49.129-22.211 70.976l0.921-2.411z" fill="currentColor" />
  </g>
</svg>
