<?xml version="1.0" encoding="utf-8"?>
<svg xmlns="http://www.w3.org/2000/svg" viewBox="0 0 1024 1024" width="24" height="24">
  <g transform="scale(1, -1) translate(0, -960)">
    <path d="M512 874.368c-0.464 0.002-1.014 0.003-1.564 0.003-117.274 0-223.417-47.657-300.119-124.661l-0.013-0.013c-166.357-166.357-166.357-437.035 0-603.435 76.732-77.043 182.904-124.717 300.21-124.717 0.522 0 1.044 0.001 1.566 0.003h-0.080c0.441-0.002 0.963-0.003 1.486-0.003 117.306 0 223.477 47.674 300.196 124.703l0.014 0.014c166.357 166.357 166.357 437.035 0 603.435-76.715 77.018-182.858 124.675-300.132 124.675-0.55 0-1.099-0.001-1.649-0.003h0.085zM753.365 206.635c-61.393-61.6-146.317-99.714-240.144-99.714-0.429 0-0.859 0.001-1.288 0.002h0.066c-91.349 0-177.067 35.413-241.365 99.712-133.077 133.077-133.077 349.653 0 482.731 61.376 61.574 146.272 99.672 240.066 99.672 0.457 0 0.913-0.001 1.37-0.003h-0.071c91.349 0 177.067-35.371 241.365-99.669 133.077-133.077 133.077-349.653 0-482.731zM412.203 608.128l-60.331-60.331 137.131-137.131-90.667-90.667h241.664v241.621l-90.667-90.624z" fill="currentColor" />
  </g>
</svg>
