<?xml version="1.0" encoding="utf-8"?>
<svg xmlns="http://www.w3.org/2000/svg" viewBox="0 0 1024 1024" width="24" height="24">
  <g transform="scale(1, -1) translate(0, -960)">
    <path d="M236.203 26.197c5.737-3.045 12.543-4.834 19.767-4.834 9.088 0 17.515 2.83 24.447 7.657l-0.14-0.092 554.667 384c11.16 7.805 18.369 20.597 18.369 35.072s-7.208 27.267-18.231 34.981l-0.138 0.091-554.667 384c-6.794 4.792-15.243 7.658-24.363 7.658-23.517 0-42.581-19.064-42.581-42.581 0-0.052 0-0.105 0-0.157v0.008-768c0-0.002 0-0.005 0-0.007 0-16.326 9.169-30.51 22.639-37.684l0.23-0.112zM298.667 750.549l437.035-302.549-437.035-302.549v605.099z" fill="currentColor" />
  </g>
</svg>
