<?xml version="1.0" encoding="utf-8"?>
<svg xmlns="http://www.w3.org/2000/svg" viewBox="0 0 1024 1024" width="24" height="24">
  <g transform="scale(1, -1) translate(0, -960)">
    <path d="M517.973 874.667c-235.641 0-426.667-191.025-426.667-426.667s191.025-426.667 426.667-426.667c235.641 0 426.667 191.025 426.667 426.667v0c0 235.641-191.025 426.667-426.667 426.667v0zM517.973 106.667c-188.513 0-341.333 152.82-341.333 341.333s152.82 341.333 341.333 341.333c188.513 0 341.333-152.82 341.333-341.333v0c0-188.513-152.82-341.333-341.333-341.333v0zM688.64 533.333c0 70.692-57.308 128-128 128v0h-213.333v-426.667h85.333v170.667h62.293l113.92-170.667h102.4l-117.333 175.787c54.766 15.1 94.381 64.317 94.72 122.841v0.039zM560.64 490.667h-128v85.333h128c23.564 0 42.667-19.103 42.667-42.667s-19.103-42.667-42.667-42.667v0z" fill="currentColor" />
  </g>
</svg>
