<?xml version="1.0" encoding="utf-8"?>
<svg xmlns="http://www.w3.org/2000/svg" viewBox="0 0 1024 1024" width="24" height="24">
  <g transform="scale(1, -1) translate(0, -960)">
    <path d="M890.667 661.333h-757.333c-50.005 0-90.667-38.272-90.667-85.333v-256c0-47.061 40.661-85.333 90.667-85.333h757.333c50.005 0 90.667 38.272 90.667 85.333v256c0 47.061-40.661 85.333-90.667 85.333zM890.667 320h-757.333c-2.432 0-4.096 0.683-4.821 0.683-0.299 0-0.469-0.085-0.512-0.341l-0.512 253.696c0.299 0.427 2.219 1.963 5.845 1.963h80v-128h85.333v128h85.333v-170.667h85.333v170.667h85.333v-128h85.333v128h85.333v-170.667h85.333v170.667h80c3.371-0.043 5.205-1.195 5.333-0.341l0.512-253.696c-0.299-0.427-2.219-1.963-5.845-1.963z" fill="currentColor" />
  </g>
</svg>
