<?xml version="1.0" encoding="utf-8"?>
<svg xmlns="http://www.w3.org/2000/svg" viewBox="0 0 1024 1024" width="24" height="24">
  <g transform="scale(1, -1) translate(0, -960)">
    <path d="M896 490.667h-128v298.667c0 23.564-19.103 42.667-42.667 42.667v0h-597.333c-23.564 0-42.667-19.103-42.667-42.667v0-597.333c0-70.571 57.429-128 128-128h597.333c70.571 0 128 57.429 128 128v256c0 23.564-19.103 42.667-42.667 42.667v0zM213.333 149.333c-23.564 0-42.667 19.103-42.667 42.667v0 554.667h512v-554.667c0-14.976 2.603-29.355 7.296-42.667h-476.629zM853.333 192c0-23.564-19.103-42.667-42.667-42.667s-42.667 19.103-42.667 42.667v0 213.333h85.333v-213.333zM256 661.333h341.333v-85.333h-341.333zM256 490.667h341.333v-85.333h-341.333zM469.333 320h128v-85.333h-128z" fill="currentColor" />
  </g>
</svg>
