<?xml version="1.0" encoding="utf-8"?>
<svg xmlns="http://www.w3.org/2000/svg" viewBox="0 0 1024 1024" width="24" height="24">
  <g transform="scale(1, -1) translate(0, -960)">
    <path d="M905.557 296.832l-34.688 62.464-74.581-41.472 34.645-62.336c2.048-3.627 3.499-7.381 4.437-11.264 0.662-2.849 1.041-6.121 1.041-9.481 0-4.22-0.598-8.301-1.715-12.161l0.076 0.309c-1.14-3.818-2.65-7.143-4.542-10.208l0.104 0.182c-3.669-6.209-8.662-11.27-14.618-14.912l-0.187-0.106c-6.090-3.675-13.444-5.849-21.306-5.849-0.205 0-0.409 0.001-0.613 0.004h-196.278v85.333l-170.667-128 170.667-128v85.333h196.309c11.861 0 23.552 1.579 34.603 4.651 22.179 6.244 41.174 17.741 56.26 33.091l0.018 0.018c7.595 7.637 14.165 16.213 19.456 25.301 11.179 18.59 17.791 41.026 17.791 65.007 0 10.467-1.26 20.639-3.636 30.374l0.18-0.874c-3.113 12.37-7.486 23.222-13.108 33.281l0.351-0.684zM250.112 489.003l-98.56-197.12c-4.759-9.282-8.605-20.053-10.986-31.362l-0.15-0.851c-1.566-7.508-2.463-16.137-2.463-24.974 0-35.962 14.845-68.457 38.742-91.69l0.030-0.029c7.595-7.424 16.043-13.909 25.387-19.328 18.371-10.678 40.428-16.981 63.957-16.981h75.264v85.333h-75.264c-0.035 0-0.076 0-0.117 0-7.795 0-15.109 2.057-21.43 5.659l0.214-0.112c-6.263 3.647-11.35 8.68-14.956 14.702l-0.105 0.189c-3.591 5.689-5.896 12.517-6.351 19.846l-0.006 0.122c-0.044 0.698-0.069 1.514-0.069 2.335 0 2.874 0.305 5.678 0.883 8.379l-0.047-0.261c0.768 3.712 2.048 7.381 3.797 10.923l96.256 192.512 68.224-39.381-25.515 211.755-196.181-83.797 79.445-45.867zM793.515 406.869l25.515 211.797-69.888-40.32-121.301 218.325c-17.15 31.014-46.163 53.692-80.761 62.075l-0.86 0.176c-9.337 2.259-20.058 3.554-31.081 3.554-0.653 0-1.305-0.005-1.957-0.014l0.099 0.001c-23.68-0.458-45.677-7.27-64.474-18.793l0.559 0.319c-20.592-12.643-36.938-30.4-47.54-51.537l-0.332-0.73-31.232-62.464 76.331-38.187 31.232 62.507c1.92 3.84 4.309 7.296 7.083 10.325 4.971 5.413 11.38 9.431 18.621 11.453l0.28 0.067c3.659 1.073 7.862 1.691 12.209 1.691 3.692 0 7.279-0.445 10.712-1.285l-0.308 0.064c11.727-2.818 21.305-10.372 26.772-20.476l0.108-0.217 121.941-219.563-77.909-44.971 196.181-83.797z" fill="currentColor" />
  </g>
</svg>
