<?xml version="1.0" encoding="utf-8"?>
<svg xmlns="http://www.w3.org/2000/svg" viewBox="0 0 1024 1024" width="24" height="24">
  <g transform="scale(1, -1) translate(0, -960)">
    <path d="M810.667 106.624c0 352.939-287.104 640.043-640 640.043v-85.333c305.835 0 554.667-248.832 554.667-554.709h85.333zM512 106.624h85.333c0 235.307-191.403 426.709-426.667 426.709v-85.333c188.203 0 341.333-153.131 341.333-341.376zM341.333 192c0-47.128-38.205-85.333-85.333-85.333s-85.333 38.205-85.333 85.333c0 47.128 38.205 85.333 85.333 85.333s85.333-38.205 85.333-85.333z" fill="currentColor" />
  </g>
</svg>
