<?xml version="1.0" encoding="utf-8"?>
<svg xmlns="http://www.w3.org/2000/svg" viewBox="0 0 1024 1024" width="24" height="24">
  <g transform="scale(1, -1) translate(0, -960)">
    <path d="M512 874.667c-231.296 0-426.667-195.413-426.667-426.667s195.371-426.667 426.667-426.667 426.667 195.413 426.667 426.667-195.371 426.667-426.667 426.667zM512 106.667c-185.045 0-341.333 156.331-341.333 341.333 0 170.581 132.907 316.459 298.667 338.219v-86.059c-120.875-20.437-213.333-125.568-213.333-252.16 0-141.184 114.816-256 256-256 68.053 0 132.267 26.709 180.779 75.221l-60.331 60.373c-30.716-31.040-73.323-50.261-120.42-50.261-0.010 0-0.020 0-0.029 0h0.001c-94.123 0-170.667 76.544-170.667 170.667 0 79.275 54.571 145.536 128 164.608v-91.563c-25.173-15.061-42.667-42.368-42.667-73.045 0-46.123 39.211-85.333 85.333-85.333s85.333 39.211 85.333 85.333c0 30.677-17.493 57.984-42.667 73.045v265.173c165.76-21.76 298.667-167.637 298.667-338.219 0-185.003-156.288-341.333-341.333-341.333z" fill="currentColor" />
  </g>
</svg>
