<?xml version="1.0" encoding="utf-8"?>
<svg xmlns="http://www.w3.org/2000/svg" viewBox="0 0 1024 1024" width="24" height="24">
  <g transform="scale(1, -1) translate(0, -960)">
    <path d="M170.667 21.333h682.667c23.564 0 42.667 19.103 42.667 42.667v0 341.333h-85.333v-298.667h-597.333v682.667h213.333v85.333h-256c-23.564 0-42.667-19.103-42.667-42.667v0-768c0-23.564 19.103-42.667 42.667-42.667v0zM554.667 490.667c0-23.564-19.103-42.667-42.667-42.667s-42.667 19.103-42.667 42.667c0 23.564 19.103 42.667 42.667 42.667s42.667-19.103 42.667-42.667zM640 490.667h85.333c0 117.821-95.513 213.333-213.333 213.333v0-85.333c70.692 0 128-57.308 128-128v0zM810.667 490.667h85.333c0 212.077-171.923 384-384 384v0-85.333c164.949 0 298.667-133.718 298.667-298.667v0zM411.733 291.413c-0.002 8.029-2.222 15.54-6.081 21.953l0.107-0.193c-3.806 6.029-9.381 10.64-15.991 13.152l-0.223 0.074c-8.245 2.502-17.721 3.942-27.533 3.942-1.571 0-3.133-0.037-4.686-0.11l0.22 0.008h-58.88v-138.24h27.733v57.6h5.973c2.114 0.283 4.558 0.445 7.040 0.445s4.926-0.162 7.322-0.475l-0.282 0.030c3.181-1.481 5.877-3.493 8.087-5.951l0.020-0.023c5.040-6.028 9.956-12.709 14.454-19.685l0.48-0.795 20.053-29.867h33.28l-16.64 26.88c-5.054 8.55-10.41 15.944-16.371 22.798l0.157-0.185c-4.194 4.618-9.133 8.468-14.643 11.38l-0.29 0.14c10.769 0.856 20.293 5.591 27.297 12.79l0.009 0.010c5.82 6.35 9.387 14.849 9.387 24.181 0 0.049 0 0.097 0 0.146v-0.008zM380.16 277.333c-1.92-2.664-4.528-4.722-7.565-5.933l-0.115-0.041c-3.78-0.503-8.15-0.79-12.587-0.79s-8.807 0.287-13.092 0.843l0.506-0.054h-20.907v34.987h42.667c4.263-0.526 7.974-2.555 10.653-5.531l0.014-0.015c2.4-2.698 3.867-6.273 3.867-10.19 0-0.318-0.010-0.633-0.029-0.947l0.002 0.043c0.045-0.484 0.071-1.047 0.071-1.616 0-4.042-1.307-7.778-3.521-10.809l0.036 0.052zM465.92 250.88h58.027v23.040h-58.027v32.853h66.987v23.467h-94.72v-138.24h27.733v58.88zM555.093 330.24h27.733v-138.24h-27.733v138.24zM686.933 327.68c-7.013 1.656-15.065 2.606-23.338 2.606-1.095 0-2.187-0.017-3.274-0.050l0.159 0.004h-51.2v-138.24h52.907c0.934-0.042 2.029-0.065 3.129-0.065 7.553 0 14.846 1.115 21.722 3.19l-0.532-0.138c7.677 2.125 14.285 5.97 19.643 11.108l-0.016-0.015c6.76 6.557 11.909 14.737 14.822 23.912l0.112 0.408c2.732 7.991 4.308 17.197 4.308 26.772 0 0.938-0.015 1.873-0.045 2.804l0.003-0.136c0.013 0.608 0.021 1.325 0.021 2.044 0 10.853-1.724 21.304-4.914 31.092l0.2-0.709c-2.746 8.827-7.295 16.408-13.247 22.635l0.020-0.021c-5.456 5.85-12.363 10.277-20.151 12.711l-0.329 0.089zM693.76 234.667c-1.4-5.149-3.912-9.597-7.274-13.249l0.020 0.022c-3.151-2.746-7.058-4.703-11.368-5.523l-0.152-0.024c-2.496-0.289-5.389-0.455-8.32-0.455s-5.824 0.165-8.669 0.487l0.349-0.032h-20.907v90.88h12.373c3.452 0.324 7.464 0.509 11.52 0.509s8.068-0.185 12.029-0.547l-0.509 0.038c4.944-1.157 9.254-3.385 12.843-6.436l-0.043 0.036c3.605-3.753 6.387-8.324 8.037-13.406l0.070-0.248c1.661-6.372 2.615-13.688 2.615-21.227 0-1.088-0.020-2.171-0.059-3.249l0.005 0.156c0.063-1.344 0.099-2.919 0.099-4.502 0-8.239-0.969-16.252-2.799-23.93l0.141 0.699z" fill="currentColor" />
  </g>
</svg>
