<?xml version="1.0" encoding="utf-8"?>
<svg xmlns="http://www.w3.org/2000/svg" viewBox="0 0 1024 1024" width="24" height="24">
  <g transform="scale(1, -1) translate(0, -960)">
    <path d="M864 745.6l-336.981 126.379-29.995-79.915 120.96-45.397h-447.317c-47.061 0-85.333-38.272-85.333-85.333v-512c0-47.061 38.272-85.333 85.333-85.333h682.667c47.061 0 85.333 38.272 85.333 85.333v512c0 43.435-32.725 78.933-74.667 84.267zM170.667 149.333v298.667h682.667v85.333h-682.667v128h682.667l0.043-512h-682.709zM810.667 298.667c0-58.91-47.756-106.667-106.667-106.667s-106.667 47.756-106.667 106.667c0 58.91 47.756 106.667 106.667 106.667s106.667-47.756 106.667-106.667zM256 320h213.291v-85.333h-213.291z" fill="currentColor" />
  </g>
</svg>
