<?xml version="1.0" encoding="utf-8"?>
<svg xmlns="http://www.w3.org/2000/svg" viewBox="0 0 1024 1024" width="24" height="24">
  <g transform="scale(1, -1) translate(0, -960)">
    <path d="M512 746.667c-164.651 0-298.667-134.016-298.667-298.667s134.016-298.667 298.667-298.667 298.667 134.016 298.667 298.667-134.016 298.667-298.667 298.667zM512 234.667c-117.632 0-213.333 95.701-213.333 213.333s95.701 213.333 213.333 213.333 213.333-95.701 213.333-213.333-95.701-213.333-213.333-213.333zM512 576c-69.419 0-128-58.581-128-128s58.581-128 128-128 128 58.581 128 128-58.581 128-128 128z" fill="currentColor" />
  </g>
</svg>
