<?xml version="1.0" encoding="utf-8"?>
<svg xmlns="http://www.w3.org/2000/svg" viewBox="0 0 1024 1024" width="24" height="24">
  <g transform="scale(1, -1) translate(0, -960)">
    <path d="M810.667 362.667h-85.333v-128h-128v-85.333h128v-128h85.333v128h128v85.333h-128zM170.667 149.333h128v85.333h-85.333v85.333h-85.333v-128c0-23.564 19.103-42.667 42.667-42.667v0zM810.667 789.333c0 23.564-19.103 42.667-42.667 42.667v0h-128v-85.333h85.333v-85.333h85.333v128zM213.333 746.667h85.333v85.333h-128c-23.564 0-42.667-19.103-42.667-42.667v0-128h85.333v85.333zM128 576h85.333v-170.667h-85.333zM725.333 576h85.333v-128h-85.333zM384 832h170.667v-85.333h-170.667zM384 234.667h128v-85.333h-128z" fill="currentColor" />
  </g>
</svg>
