<?xml version="1.0" encoding="utf-8"?>
<svg xmlns="http://www.w3.org/2000/svg" viewBox="0 0 1024 1024" width="24" height="24">
  <g transform="scale(1, -1) translate(0, -960)">
    <path d="M234.667 320c38.926 0.228 74.296 15.272 100.793 39.771l-0.1-0.091 267.093-152.747c-3.25-10.844-5.12-23.306-5.12-36.204 0-0.022 0-0.044 0-0.066v0.003c-0.003-0.354-0.005-0.773-0.005-1.192 0-83.181 67.432-150.613 150.613-150.613s150.613 67.432 150.613 150.613c0 83.181-67.432 150.613-150.613 150.613-39.383 0-75.236-15.116-102.073-39.862l0.104 0.095-267.093 152.747c3.073 9.664 4.931 20.794 5.119 32.33l0.001 0.097 262.4 150.187c26.3-23.837 61.365-38.428 99.838-38.428 82.239 0 148.907 66.668 148.907 148.907s-66.668 148.907-148.907 148.907c-82.239 0-148.907-66.668-148.907-148.907 0-0.29 0.001-0.58 0.002-0.87v0.045c0.157-12.966 2.016-25.432 5.363-37.274l-0.243 1.007-242.773-138.667c-27.014 41.334-73.068 68.266-125.414 68.266-82.475 0-149.333-66.859-149.333-149.333s66.859-149.333 149.333-149.333c0.141 0 0.281 0 0.422 0.001h-0.022zM746.667 234.667c35.346 0 64-28.654 64-64s-28.654-64-64-64c-35.346 0-64 28.654-64 64v0c0 35.346 28.654 64 64 64v0zM746.667 789.333c35.346 0 64-28.654 64-64s-28.654-64-64-64c-35.346 0-64 28.654-64 64v0c0 35.346 28.654 64 64 64v0zM234.667 533.333c35.346 0 64-28.654 64-64s-28.654-64-64-64c-35.346 0-64 28.654-64 64v0c0 35.346 28.654 64 64 64v0z" fill="currentColor" />
  </g>
</svg>
