<?xml version="1.0" encoding="utf-8"?>
<svg xmlns="http://www.w3.org/2000/svg" viewBox="0 0 1024 1024" width="24" height="24">
  <g transform="scale(1, -1) translate(0, -960)">
    <path d="M896 177.92c-8.512 54.773-31.282 103.124-64.364 142.525l0.364-0.445c-32.813-38.909-55.603-87.285-63.797-140.476l-0.203-1.604c-0.272-2.222-0.427-4.794-0.427-7.402 0-35.582 28.845-64.427 64.427-64.427s64.427 28.845 64.427 64.427c0 2.608-0.155 5.181-0.456 7.708l0.030-0.306zM469.333 92.587c-8.512 54.773-31.282 103.124-64.364 142.525l0.364-0.445c-32.813-38.909-55.603-87.285-63.797-140.476l-0.203-1.604c-0.058-1.050-0.091-2.28-0.091-3.517 0-36.148 28.273-65.693 63.911-67.728l0.18-0.008c35.819 2.043 64.091 31.588 64.091 67.736 0 1.237-0.033 2.467-0.099 3.687l0.007-0.17zM618.667 21.333c35.819 2.043 64.091 31.588 64.091 67.736 0 1.237-0.033 2.467-0.099 3.687l0.007-0.17c-8.512 54.773-31.282 103.124-64.364 142.525l0.364-0.445c-32.813-38.909-55.603-87.285-63.797-140.476l-0.203-1.604c-0.058-1.050-0.091-2.28-0.091-3.517 0-36.148 28.273-65.693 63.911-67.728l0.18-0.008zM128 177.92c-0.058-1.050-0.091-2.28-0.091-3.517 0-36.148 28.273-65.693 63.911-67.728l0.18-0.008c35.819 2.043 64.091 31.588 64.091 67.736 0 1.237-0.033 2.467-0.099 3.687l0.007-0.17c-8.512 54.773-31.282 103.124-64.364 142.525l0.364-0.445c-32.813-38.909-55.603-87.285-63.797-140.476l-0.203-1.604zM554.667 786.347v88.32h-85.333v-88.32c-169.154-21.922-298.504-165.004-298.667-338.329v-0.017h-85.333v-85.333h853.333v85.333h-85.333c-0.162 173.343-129.512 316.425-296.952 338.165l-1.714 0.182zM256 448c0 141.385 114.615 256 256 256s256-114.615 256-256v0z" fill="currentColor" />
  </g>
</svg>
