<?xml version="1.0" encoding="utf-8"?>
<svg xmlns="http://www.w3.org/2000/svg" viewBox="0 0 1024 1024" width="24" height="24">
  <g transform="scale(1, -1) translate(0, -960)">
    <path d="M895.787 665.472c-1.47 14.932-10.466 27.474-23.097 33.894l-0.242 0.112-340.181 170.667c-5.582 2.88-12.183 4.569-19.178 4.569-6.928 0-13.47-1.656-19.25-4.595l0.242 0.112-342.485-170.667c-12.672-6.4-21.419-18.645-23.211-32.725-0.555-4.139-48.853-415.616 364.416-640.341 5.87-3.263 12.875-5.183 20.328-5.183 7.73 0 14.978 2.066 21.221 5.676l-0.205-0.109c397.099 224.384 363.264 621.781 361.643 638.592zM512.768 113.195c-292.693 171.093-304.64 441.685-301.355 520.747l301.696 150.315 298.581-149.803c0.213-79.787-20.523-351.701-298.923-521.259z" fill="currentColor" />
  </g>
</svg>
