<?xml version="1.0" encoding="utf-8"?>
<svg xmlns="http://www.w3.org/2000/svg" viewBox="0 0 1024 1024" width="24" height="24">
  <g transform="scale(1, -1) translate(0, -960)">
    <path d="M914.688 742.869c-5.762 3.086-12.605 4.899-19.872 4.899-7.737 0-14.993-2.055-21.254-5.649l0.208 0.11c-29.184-16.597-57.813-24.619-87.595-24.619-86.827 0-168.619 69.504-244.139 144.64-16 15.915-45.355 15.915-61.355 0-71.424-71.168-156.501-143.872-245.589-143.872-29.44 0-57.643 7.851-86.101 23.936-12.715 7.083-28.075 7.296-40.96 0.512s-21.376-19.669-22.528-34.176c-0.469-5.504-40.277-549.205 413.141-684.416 3.643-1.137 7.831-1.792 12.173-1.792 0.010 0 0.021 0 0.031 0h1.15c4.139 0 8.192 0.597 12.16 1.749 454.699 135.253 413.653 679.083 413.184 684.544-1.306 14.85-10.042 27.401-22.427 34.022l-0.229 0.112zM511.403 109.611c-297.771 96.213-338.517 401.579-341.931 532.352 21.547-5.973 43.477-8.917 65.579-8.917 106.325 0 198.4 66.859 276.309 140.075 80.768-76.288 169.941-140.843 274.859-140.843 22.613 0 45.099 3.157 67.2 9.387-3.157-130.773-43.563-435.925-342.016-532.053z" fill="currentColor" />
  </g>
</svg>
