<?xml version="1.0" encoding="utf-8"?>
<svg xmlns="http://www.w3.org/2000/svg" viewBox="0 0 1024 1024" width="24" height="24">
  <g transform="scale(1, -1) translate(0, -960)">
    <path d="M469.419 874.667h-170.667c-23.564 0-42.667-19.103-42.667-42.667v0-162.645c-76.974-45.017-127.887-127.227-128-221.338v-42.171l-0.085-0.512 0.085-3.072v-338.261c0-23.564 19.103-42.667 42.667-42.667v0h426.667c23.564 0 42.667 19.103 42.667 42.667v0 384c-0.123 94.125-51.032 176.332-126.792 220.701l-1.208 0.654v162.645c0 23.564-19.103 42.667-42.667 42.667v0zM341.419 704v85.333h85.333v-85.333h-85.333zM554.795 106.667h-341.333v256h341.333v-256zM213.419 448c0 94.123 76.544 170.667 170.667 170.667s170.667-76.544 170.667-170.667h-341.333zM554.795 832h85.333v-85.333h-85.333zM682.667 832h85.333v-85.333h-85.333zM682.667 704h85.333v-85.333h-85.333zM810.667 832h85.333v-85.333h-85.333zM810.667 704h85.333v-85.333h-85.333zM810.667 576h85.333v-85.333h-85.333z" fill="currentColor" />
  </g>
</svg>
