<?xml version="1.0" encoding="utf-8"?>
<svg xmlns="http://www.w3.org/2000/svg" viewBox="0 0 1024 1024" width="24" height="24">
  <g transform="scale(1, -1) translate(0, -960)">
    <path d="M725.333 234.667h-66.517l-413.867 455.381c-7.833 8.586-19.069 13.952-31.558 13.952-0.005 0-0.011 0-0.016 0h-128.042v-85.333h109.184l174.507-192-174.507-192.043h-109.184v-85.333h128.043c0.005 0 0.010 0 0.015 0 12.489 0 23.725 5.366 31.528 13.919l181.747 200.012 181.717-199.936c7.833-8.586 19.069-13.952 31.558-13.952 0.005 0 0.011 0 0.016 0h85.375v-128l213.333 170.667-213.333 170.667v-128zM658.816 618.667h66.517v-128l213.333 168.021-213.333 173.312v-128h-85.376c-0.005 0-0.010 0-0.015 0-12.489 0-23.725-5.366-31.528-13.919l-143.731-158.198 63.147-57.429 130.987 144.213z" fill="currentColor" />
  </g>
</svg>
