<?xml version="1.0" encoding="utf-8"?>
<svg xmlns="http://www.w3.org/2000/svg" viewBox="0 0 1024 1024" width="24" height="24">
  <g transform="scale(1, -1) translate(0, -960)">
    <path d="M853.333 576c23.564 0 42.667 19.103 42.667 42.667v0 170.667c0 23.564-19.103 42.667-42.667 42.667v0h-170.667c-23.564 0-42.667-19.103-42.667-42.667v0-42.667h-256v42.667c0 23.564-19.103 42.667-42.667 42.667v0h-170.667c-23.564 0-42.667-19.103-42.667-42.667v0-170.667c0-23.564 19.103-42.667 42.667-42.667v0h42.667v-256h-42.667c-23.564 0-42.667-19.103-42.667-42.667v0-170.667c0-23.564 19.103-42.667 42.667-42.667v0h170.667c23.564 0 42.667 19.103 42.667 42.667v0 42.667h256v-42.667c0-23.564 19.103-42.667 42.667-42.667v0h170.667c23.564 0 42.667 19.103 42.667 42.667v0 170.667c0 23.564-19.103 42.667-42.667 42.667v0h-42.667v256h42.667zM725.333 746.667h85.333v-85.333h-85.333v85.333zM213.333 746.667h85.333v-85.333h-85.333v85.333zM298.667 149.333h-85.333v85.333h85.333v-85.333zM810.667 149.333h-85.333v85.333h85.333v-85.333zM725.333 320h-42.667c-23.564 0-42.667-19.103-42.667-42.667v0-42.667h-256v42.667c0 23.564-19.103 42.667-42.667 42.667v0h-42.667v256h42.667c23.564 0 42.667 19.103 42.667 42.667v0 42.667h256v-42.667c0-23.564 19.103-42.667 42.667-42.667v0h42.667v-256z" fill="currentColor" />
  </g>
</svg>
