<?xml version="1.0" encoding="utf-8"?>
<svg xmlns="http://www.w3.org/2000/svg" viewBox="0 0 1024 1024" width="24" height="24">
  <g transform="scale(1, -1) translate(0, -960)">
    <path d="M512 874.667c-235.264 0-426.667-191.403-426.667-426.667s191.403-426.667 426.667-426.667 426.667 191.403 426.667 426.667-191.403 426.667-426.667 426.667zM512 106.667c-188.203 0-341.333 153.131-341.333 341.333s153.131 341.333 341.333 341.333 341.333-153.131 341.333-341.333-153.131-341.333-341.333-341.333zM632.704 327.339c-15.195-15.147-33.196-27.488-53.155-36.175l-1.117-0.433c-19.601-8.5-42.429-13.444-66.412-13.444-58.696 0-110.474 29.616-141.208 74.719l-0.38 0.592-70.741-47.744c18.744-27.416 41.732-50.39 68.276-68.547l0.887-0.573c26.132-17.895 56.877-31.286 89.991-38.237l1.657-0.291c15.488-3.307 33.283-5.201 51.52-5.201s36.032 1.894 53.198 5.495l-1.678-0.295c34.77 7.253 65.514 20.642 92.525 39.093l-0.877-0.565c13.355 9.045 26.112 19.541 37.803 31.189 11.605 11.563 22.187 24.363 31.317 37.931l-70.741 47.744c-6.434-9.444-13.297-17.702-20.862-25.257l-0.002-0.002zM426.667 512c0-35.346-28.654-64-64-64s-64 28.654-64 64c0 35.346 28.654 64 64 64s64-28.654 64-64zM724.736 512.299c0-35.181-28.52-63.701-63.701-63.701s-63.701 28.52-63.701 63.701c0 35.181 28.52 63.701 63.701 63.701s63.701-28.52 63.701-63.701z" fill="currentColor" />
  </g>
</svg>
