<?xml version="1.0" encoding="utf-8"?>
<svg xmlns="http://www.w3.org/2000/svg" viewBox="0 0 1024 1024" width="24" height="24">
  <g transform="scale(1, -1) translate(0, -960)">
    <path d="M298.368 448c0-117.803 95.829-213.632 213.632-213.632s213.632 95.829 213.632 213.632-95.829 213.632-213.632 213.632-213.632-95.829-213.632-213.632zM512 576.299c70.741 0 128.299-57.557 128.299-128.299s-57.557-128.299-128.299-128.299-128.299 57.557-128.299 128.299 57.557 128.299 128.299 128.299zM469.248 149.333h85.333v-128h-85.333zM469.248 874.667h85.333v-128h-85.333zM85.248 490.667h128v-85.333h-128zM810.581 490.667h128v-85.333h-128zM180.011 176.512l90.453 90.539 60.373-60.331-90.453-90.539zM692.907 689.323l90.539 90.539 60.331-60.331-90.539-90.539zM270.592 628.949l-90.539 90.539 60.373 60.331 90.453-90.539zM843.776 176.469l-60.331-60.331-90.539 90.539 60.331 60.331z" fill="currentColor" />
  </g>
</svg>
