<?xml version="1.0" encoding="utf-8"?>
<svg xmlns="http://www.w3.org/2000/svg" viewBox="0 0 1024 1024" width="24" height="24">
  <g transform="scale(1, -1) translate(0, -960)">
    <path d="M597.333 789.333c0-47.128-38.205-85.333-85.333-85.333s-85.333 38.205-85.333 85.333c0 47.128 38.205 85.333 85.333 85.333s85.333-38.205 85.333-85.333zM512 192h85.333v213.333h85.333v170.667c0 47.061-38.272 85.333-85.333 85.333h-170.667c-47.061 0-85.333-38.272-85.333-85.333v-170.667h85.333v-213.333h85.333zM787.029 474.197l-38.101-76.331c66.347-33.067 104.405-77.013 104.405-120.533 0-80.725-140.16-170.667-341.333-170.667s-341.333 89.941-341.333 170.667c0 43.52 38.059 87.467 104.363 120.533l-38.101 76.331c-96.341-48.043-151.595-119.765-151.595-196.864 0-143.531 187.435-256 426.667-256s426.667 112.469 426.667 256c0 77.099-55.253 148.821-151.637 196.864z" fill="currentColor" />
  </g>
</svg>
