<?xml version="1.0" encoding="utf-8"?>
<svg xmlns="http://www.w3.org/2000/svg" viewBox="0 0 1024 1024" width="24" height="24">
  <g transform="scale(1, -1) translate(0, -960)">
    <path d="M469.333 659.2v130.133c0 23.564-19.103 42.667-42.667 42.667v0c-11.656-0.051-22.2-4.767-29.869-12.376l-298.664-298.664c-7.795-7.733-12.621-18.45-12.621-30.293s4.826-22.56 12.618-30.291l298.67-298.67c7.69-7.542 18.235-12.197 29.867-12.197 23.502 0 42.566 19.002 42.666 42.481v132.277h36.267c2.061 0.033 4.493 0.052 6.929 0.052 139.228 0 264.153-61.237 349.312-158.246l0.452-0.526c7.868-10.395 20.215-17.041 34.114-17.041 4.735 0 9.291 0.771 13.547 2.195l-0.301-0.087c17.017 5.868 29.024 21.745 29.024 40.427 0 0.338-0.004 0.674-0.012 1.010l0.001-0.050c0 389.12-344.747 455.68-469.333 467.2zM505.6 410.453c-0.585 0.002-1.276 0.003-1.968 0.003-29.397 0-58.324-2.017-86.648-5.92l3.283 0.37c-20.651-3.22-36.267-20.879-36.267-42.184 0-0.020 0-0.039 0-0.059v0.003-67.84l-195.413 195.84 195.413 195.84v-67.84c0-23.564 19.103-42.667 42.667-42.667v0c38.827 0 346.027-8.533 412.587-274.347-91.337 67.965-206.364 108.807-330.929 108.807-0.958 0-1.915-0.002-2.872-0.007l0.147 0.001z" fill="currentColor" />
  </g>
</svg>
