<?xml version="1.0" encoding="utf-8"?>
<svg xmlns="http://www.w3.org/2000/svg" viewBox="0 0 1024 1024" width="24" height="24">
  <g transform="scale(1, -1) translate(0, -960)">
    <path d="M597.333 448c0-47.128-38.205-85.333-85.333-85.333s-85.333 38.205-85.333 85.333c0 47.128 38.205 85.333 85.333 85.333s85.333-38.205 85.333-85.333zM331.008 266.965l60.331 60.373c-30.914 30.696-50.049 73.218-50.049 120.21 0 0.204 0 0.407 0.001 0.611v-0.031c0 45.568 17.792 88.363 50.048 120.533l-60.331 60.416c-46.383-46.059-75.094-109.862-75.094-180.37 0-0.189 0-0.377 0.001-0.566v0.030c0-68.437 26.667-132.779 75.093-181.205zM692.992 266.965c46.333 46.070 75.009 109.856 75.009 180.339 0 0.245 0 0.489-0.001 0.734v-0.038c0.001 0.207 0.001 0.451 0.001 0.696 0 70.483-28.676 134.269-74.997 180.328l-0.012 0.012-60.331-60.331c32.256-32.256 50.005-75.136 50.005-120.704s-17.749-88.448-50.005-120.704l60.331-60.331zM270.677 206.635c-61.805 61.472-100.054 146.572-100.054 240.607 0 0.297 0 0.593 0.001 0.89v-0.046c0 91.179 35.541 176.853 100.053 241.237l-60.331 60.373c-80.64-80.469-125.056-187.605-125.056-301.611s44.416-221.141 125.056-301.781l60.331 60.331zM753.365 689.365c61.753-61.431 99.969-146.469 99.969-240.433 0-0.328 0-0.655-0.001-0.982v0.050c0.001-0.277 0.001-0.604 0.001-0.932 0-93.964-38.217-179.002-99.955-240.419l-0.014-0.014 60.331-60.331c77.196 76.771 124.972 183.056 124.972 300.499 0 0.421-0.001 0.841-0.002 1.262v-0.065c0.001 0.345 0.002 0.753 0.002 1.161 0 117.455-47.775 223.751-124.954 300.516l-0.019 0.019-60.331-60.331z" fill="currentColor" />
  </g>
</svg>
