<?xml version="1.0" encoding="utf-8"?>
<svg xmlns="http://www.w3.org/2000/svg" viewBox="0 0 1024 1024" width="24" height="24">
  <g transform="scale(1, -1) translate(0, -960)">
    <path d="M896 704c0 70.571-57.429 128-128 128-55.198-0.161-102.143-35.318-119.827-84.443l-0.28-0.89h-271.787c-17.963 50.015-64.909 85.172-120.087 85.333h-0.019c-70.571 0-128-57.429-128-128 0-55.552 35.797-102.443 85.333-120.107v-271.744c-49.998-18.011-85.137-64.951-85.333-120.125v-0.024c0-70.571 57.429-128 128-128 55.198 0.161 102.143 35.318 119.827 84.443l0.28 0.89h271.744c17.974-50.007 64.913-85.159 120.085-85.333h0.021c70.571 0 128 57.429 128 128-0.196 55.198-35.336 102.139-84.442 119.868l-0.891 0.281v271.701c50.023 17.986 85.187 64.937 85.376 120.126v0.023zM768 746.667c0.013 0 0.028 0 0.043 0 23.588 0 42.709-19.122 42.709-42.709s-19.122-42.709-42.709-42.709c-23.588 0-42.709 19.122-42.709 42.709 0 0.015 0 0.030 0 0.045v-0.002c0 23.509 19.115 42.667 42.667 42.667zM647.893 234.667h-271.787c-13.14 36.253-41.196 64.323-76.553 77.2l-0.887 0.282v271.701c36.244 13.159 64.3 41.229 77.158 76.595l0.282 0.887h271.744c13.159-36.244 41.229-64.3 76.595-77.158l0.887-0.282v-271.744c-36.244-13.159-64.3-41.229-77.158-76.595l-0.282-0.887zM256 746.667c0.013 0 0.028 0 0.043 0 23.588 0 42.709-19.122 42.709-42.709s-19.122-42.709-42.709-42.709c-23.588 0-42.709 19.122-42.709 42.709 0 0.015 0 0.030 0 0.045v-0.002c0 23.509 19.115 42.667 42.667 42.667zM256 149.333c-22.752 1.049-40.801 19.75-40.801 42.667s18.049 41.617 40.707 42.663l0.094 0.003c22.752-1.049 40.801-19.75 40.801-42.667s-18.049-41.617-40.707-42.663l-0.094-0.003zM768 149.333c-22.752 1.049-40.801 19.75-40.801 42.667s18.049 41.617 40.707 42.663l0.094 0.003c22.752-1.049 40.801-19.75 40.801-42.667s-18.049-41.617-40.707-42.663l-0.094-0.003z" fill="currentColor" />
  </g>
</svg>
