<?xml version="1.0" encoding="utf-8"?>
<svg xmlns="http://www.w3.org/2000/svg" viewBox="0 0 1024 1024" width="24" height="24">
  <g transform="scale(1, -1) translate(0, -960)">
    <path d="M886.912 575.019c-5.333-1.152-76.928-17.835-168.661-75.691-13.781 66.859-54.571 192.043-175.275 319.36l-30.976 32.683-30.976-32.725c-121.131-127.787-161.749-253.312-175.403-320.597-92.075 58.837-163.115 75.733-168.32 76.928l-51.968 11.605v-53.248c0-311.040 167.467-512 426.667-512 255.189 0 426.667 205.739 426.667 512v52.992l-51.755-11.307zM383.957 446.379c0.085 1.408 6.485 132.267 128.043 278.699 120.064-145.067 127.957-277.077 128-277.077v-5.333c-47.938-40.017-90.13-84.158-126.978-132.586l-1.448-1.985c-38.37 49.498-80.255 93.034-126.319 131.76l-1.297 1.061v5.461zM512 106.667c-226.816 0-322.091 179.029-338.645 365.397 70.613-30.635 196.949-103.509 303.232-261.248l35.883-53.291 35.2 53.76c103.509 158.208 231.467 230.869 302.763 261.205-16.981-180.395-112.128-365.824-338.432-365.824z" fill="currentColor" />
  </g>
</svg>
