<?xml version="1.0" encoding="utf-8"?>
<svg xmlns="http://www.w3.org/2000/svg" viewBox="0 0 1024 1024" width="24" height="24">
  <g transform="scale(1, -1) translate(0, -960)">
    <path d="M840.832 332.501c7.718 7.721 12.492 18.386 12.492 30.165 0 23.561-19.097 42.661-42.657 42.667h-298.667v-85.333h195.669l-183.168-183.168c-7.718-7.721-12.492-18.386-12.492-30.165 0-23.561 19.097-42.661 42.657-42.667h298.667v85.333h-195.669l183.168 183.168zM298.667 789.76h-85.333v-512h-128l170.667-170.667 170.667 170.667h-128zM725.333 832h-85.333c-17.792 0-33.707-11.051-39.979-27.691l-117.333-312.875h91.179l31.701 84.565h154.155l31.701-84.523h91.179l-117.333 312.875c-6.252 16.293-21.768 27.648-39.936 27.648v0zM637.568 661.333l32 85.333h26.155l32-85.333h-90.155z" fill="currentColor" />
  </g>
</svg>
