<?xml version="1.0" encoding="utf-8"?>
<svg xmlns="http://www.w3.org/2000/svg" viewBox="0 0 1024 1024" width="24" height="24">
  <g transform="scale(1, -1) translate(0, -960)">
    <path d="M853.333 832h-682.667c-47.128 0-85.333-38.205-85.333-85.333v0-170.667c0-47.128 38.205-85.333 85.333-85.333v0h682.667c47.128 0 85.333 38.205 85.333 85.333v0 170.667c0 47.128-38.205 85.333-85.333 85.333v0zM170.667 576v170.667h682.667v-170.667zM853.333 405.333h-682.667c-47.128 0-85.333-38.205-85.333-85.333v0-170.667c0-47.128 38.205-85.333 85.333-85.333v0h682.667c47.128 0 85.333 38.205 85.333 85.333v0 170.667c0 47.128-38.205 85.333-85.333 85.333v0zM170.667 149.333v170.667h682.667v-170.667zM725.333 704h85.333v-85.333h-85.333zM597.333 704h85.333v-85.333h-85.333zM725.333 277.333h85.333v-85.333h-85.333zM597.333 277.333h85.333v-85.333h-85.333z" fill="currentColor" />
  </g>
</svg>
