<?xml version="1.0" encoding="utf-8"?>
<svg xmlns="http://www.w3.org/2000/svg" viewBox="0 0 1024 1024" width="24" height="24">
  <g transform="scale(1, -1) translate(0, -960)">
    <path d="M768 320c-7.808 0-15.275-0.939-22.699-2.304l-363.605 363.605c1.365 7.381 2.304 14.933 2.304 22.699 0 70.571-57.429 128-128 128s-128-57.429-128-128c0-55.552 35.797-102.443 85.333-120.107v-271.744c-49.998-18.011-85.137-64.951-85.333-120.125v-0.024c0-70.571 57.429-128 128-128 55.198 0.161 102.143 35.318 119.827 84.443l0.28 0.89h271.744c17.974-50.007 64.913-85.159 120.085-85.333h0.021c70.571 0 128 57.429 128 128s-57.387 128-127.957 128zM298.667 312.149v271.701c14.037 5.035 26.837 12.416 38.144 21.675l332.757-332.757c-9.030-10.849-16.376-23.498-21.395-37.266l-0.28-0.878h-271.787c-13.13 36.271-41.188 64.357-76.553 77.243l-0.887 0.283zM256 746.667c0.013 0 0.028 0 0.043 0 23.588 0 42.709-19.122 42.709-42.709s-19.122-42.709-42.709-42.709c-23.588 0-42.709 19.122-42.709 42.709 0 0.015 0 0.030 0 0.045v-0.002c0 23.509 19.115 42.667 42.667 42.667zM256 149.333c-22.752 1.049-40.801 19.75-40.801 42.667s18.049 41.617 40.707 42.663l0.094 0.003c22.752-1.049 40.801-19.75 40.801-42.667s-18.049-41.617-40.707-42.663l-0.094-0.003zM768 149.333c-22.752 1.049-40.801 19.75-40.801 42.667s18.049 41.617 40.707 42.663l0.094 0.003c22.752-1.049 40.801-19.75 40.801-42.667s-18.049-41.617-40.707-42.663l-0.094-0.003z" fill="currentColor" />
  </g>
</svg>
