<?xml version="1.0" encoding="utf-8"?>
<svg xmlns="http://www.w3.org/2000/svg" viewBox="0 0 1024 1024" width="24" height="24">
  <g transform="scale(1, -1) translate(0, -960)">
    <path d="M811.648 235.648c-20.046 19.222-39.063 38.469-57.552 58.216l-0.774 0.835c-15.872 16.128-25.429 27.861-25.429 27.861l-119.467 57.045c46.082 52.071 74.225 120.945 74.24 196.392v0.003c0 164.651-133.973 298.667-298.667 298.667s-298.667-134.016-298.667-298.667 133.973-298.667 298.667-298.667c75.221 0 143.787 28.16 196.395 74.197l57.045-119.467s11.733-9.557 27.861-25.429c16.512-15.488 38.229-36.437 59.051-58.325l57.941-59.392 25.771-27.563 90.496 90.496-27.563 25.771c-16.171 15.872-37.76 36.949-59.349 58.027zM384 362.667c-117.632 0-213.333 95.701-213.333 213.333s95.701 213.333 213.333 213.333 213.333-95.701 213.333-213.333-95.701-213.333-213.333-213.333z" fill="currentColor" />
  </g>
</svg>
