<?xml version="1.0" encoding="utf-8"?>
<svg xmlns="http://www.w3.org/2000/svg" viewBox="0 0 1024 1024" width="24" height="24">
  <g transform="scale(1, -1) translate(0, -960)">
    <path d="M896 746.667c0 47.061-38.272 85.333-85.333 85.333h-597.333c-47.061 0-85.333-38.272-85.333-85.333v-597.333c0-47.061 38.272-85.333 85.333-85.333h597.333c47.061 0 85.333 38.272 85.333 85.333v597.333zM213.333 149.333v597.333h597.333l0.085-597.333h-597.419zM298.667 661.333h85.248v-85.333h-85.248zM469.333 661.333h256v-85.333h-256zM298.667 490.667h85.248v-85.333h-85.248zM469.333 490.667h256v-85.333h-256zM298.667 320h85.248v-85.333h-85.248zM469.333 320h256v-85.333h-256z" fill="currentColor" />
  </g>
</svg>
