<?xml version="1.0" encoding="utf-8"?>
<svg xmlns="http://www.w3.org/2000/svg" viewBox="0 0 1024 1024" width="24" height="24">
  <g transform="scale(1, -1) translate(0, -960)">
    <path d="M896.213 703.915c0-47.175-38.243-85.419-85.419-85.419s-85.419 38.243-85.419 85.419c0 47.175 38.243 85.419 85.419 85.419s85.419-38.243 85.419-85.419zM805.333 395.989c-24.192-19.328-41.728-33.323-80.128-33.323-38.357 0-54.955 13.269-80.043 33.323-29.013 23.168-65.067 52.011-133.419 52.011-68.309 0-104.32-28.843-133.291-52.011-25.088-20.053-41.6-33.323-80-33.323-38.315 0-54.869 13.269-79.915 33.28-28.971 23.211-64.939 52.053-133.205 52.053v-85.333c38.272 0 54.827-13.269 79.872-33.28 28.971-23.211 64.981-52.053 133.248-52.053s104.363 28.843 133.333 52.053c25.045 20.053 41.643 33.28 79.957 33.28 38.4 0 55.936-13.995 80.128-33.323 28.971-23.168 65.024-52.011 133.333-52.011 68.352 0 104.405 28.843 133.419 52.011 25.088 20.053 41.685 33.323 80.043 33.323v85.333c-68.309 0-104.363-28.843-133.333-52.011zM725.205 149.333c-38.357 0-54.955 13.269-80.043 33.323-29.013 23.168-65.067 52.011-133.419 52.011-68.309 0-104.32-28.843-133.291-52.011-25.088-20.053-41.6-33.323-80-33.323-38.315 0-54.869 13.269-79.915 33.28-28.971 23.211-64.939 52.053-133.205 52.053v-85.333c38.272 0 54.827-13.269 79.872-33.28 28.971-23.211 64.981-52.053 133.248-52.053s104.363 28.843 133.333 52.053c25.045 20.053 41.643 33.28 79.957 33.28 38.4 0 55.936-13.995 80.128-33.323 28.971-23.168 65.024-52.011 133.333-52.011 68.352 0 104.405 28.843 133.419 52.011 25.088 20.053 41.685 33.323 80.043 33.323v85.333c-68.309 0-104.363-28.843-133.333-52.011-24.192-19.328-41.728-33.323-80.128-33.323zM469.333 728.789l89.771-89.771-87.765-109.653c12.203 2.389 25.429 3.968 40.405 3.968 68.352 0 104.405-28.843 133.419-52.011 25.088-20.053 41.685-33.323 80.043-33.323 38.4 0 55.936 13.995 80.128 33.323 5.632 4.48 11.691 9.259 18.048 13.909l-89.429 89.173 0.213 0.213-234.667 234.667c-7.716 7.729-18.382 12.51-30.165 12.51s-22.449-4.781-30.165-12.509l-170.668-170.668 60.331-60.331 140.501 140.501z" fill="currentColor" />
  </g>
</svg>
