<?xml version="1.0" encoding="utf-8"?>
<svg xmlns="http://www.w3.org/2000/svg" viewBox="0 0 1024 1024" width="24" height="24">
  <g transform="scale(1, -1) translate(0, -960)">
    <path d="M853.333 448c-10.805-0.080-21.103-2.155-30.574-5.875l0.579 0.2-102.315 83.755c2.517 9.131 4.309 18.603 4.309 28.587 0 59.136-47.531 106.667-106.667 106.667s-106.667-47.531-106.667-106.667c0-16.896 4.267-32.64 11.179-46.805l-124.117-146.688c-4.493 0.883-9.691 1.424-15.002 1.493l-0.059 0.001c-7.637 0-14.848-1.28-21.845-3.157l-109.355 109.355c1.92 6.955 3.2 14.165 3.2 21.803 0 47.275-38.059 85.333-85.333 85.333s-85.333-38.059-85.333-85.333 38.059-85.333 85.333-85.333c7.637 0 14.848 1.28 21.845 3.157l109.355-109.355c-1.957-6.513-3.121-14.007-3.2-21.76v-0.043c0-47.275 38.059-85.333 85.333-85.333s85.333 38.059 85.333 85.333c0 10.112-2.048 19.627-5.248 28.629l124.288 146.859c9.685-2.816 19.712-4.821 30.293-4.821 17.685 0.101 34.315 4.525 48.915 12.267l-0.574-0.278 102.357-83.755c-0.757-4.011-1.249-8.689-1.363-13.461l-0.002-0.107c0-47.275 38.059-85.333 85.333-85.333s85.333 38.059 85.333 85.333-38.059 85.333-85.333 85.333z" fill="currentColor" />
  </g>
</svg>
