<?xml version="1.0" encoding="utf-8"?>
<svg xmlns="http://www.w3.org/2000/svg" viewBox="0 0 1024 1024" width="24" height="24">
  <g transform="scale(1, -1) translate(0, -960)">
    <path d="M938.667 746.667c0 70.571-57.429 128-128 128h-597.333c-70.571 0-128-57.429-128-128v-120.789c0-44.928 16.299-85.76 42.667-117.163v-359.381c0-47.061 38.272-85.333 85.333-85.333h597.333c47.061 0 85.333 38.272 85.333 85.333v359.424c26.368 31.36 42.667 72.192 42.667 117.163v120.747zM853.333 746.667v-120.789c0-48.64-36.224-90.112-80.683-92.459l-4.651-0.085c-47.061 0-85.333 38.272-85.333 85.333v170.667h128c23.552 0 42.667-19.157 42.667-42.667zM426.667 789.333h170.667v-170.667c0-47.061-38.272-85.333-85.333-85.333s-85.333 38.272-85.333 85.333v170.667zM170.667 746.667c0 23.509 19.115 42.667 42.667 42.667h128v-170.667c0-47.061-38.272-85.333-85.333-85.333l-4.651 0.128c-44.459 2.304-80.683 43.776-80.683 92.416v120.789zM426.667 149.333v128h170.667v-128h-170.667zM682.667 149.333v128c0 47.061-38.272 85.333-85.333 85.333h-170.667c-47.061 0-85.333-38.272-85.333-85.333v-128h-128v304.256c10.837-2.859 22.059-4.736 33.579-5.333 2.755-0.159 5.978-0.25 9.221-0.25 50.869 0 96.525 22.322 127.705 57.706l0.161 0.187c31.275-35.499 77.099-57.899 128-57.899s96.725 22.4 128 57.899c31.342-35.57 76.997-57.893 127.867-57.893 3.244 0 6.466 0.091 9.665 0.27l-0.444-0.020c11.563 0.597 22.741 2.475 33.579 5.333v-304.256h-128z" fill="currentColor" />
  </g>
</svg>
