<?xml version="1.0" encoding="utf-8"?>
<svg xmlns="http://www.w3.org/2000/svg" viewBox="0 0 1024 1024" width="24" height="24">
  <g transform="scale(1, -1) translate(0, -960)">
    <path d="M320 341.333c-67.413 0-123.861-45.227-142.379-106.667h-92.288v-85.333h92.288c18.517-61.44 74.965-106.667 142.379-106.667s123.861 45.227 142.379 106.667h476.288v85.333h-476.288c-18.517 61.44-74.965 106.667-142.379 106.667zM320 128c-35.285 0-64 28.715-64 64s28.715 64 64 64 64-28.715 64-64-28.715-64-64-64zM704 597.333c-67.413 0-123.861-45.227-142.379-106.667h-476.288v-85.333h476.288c18.517-61.44 74.965-106.667 142.379-106.667s123.861 45.227 142.379 106.667h92.288v85.333h-92.288c-18.517 61.44-74.965 106.667-142.379 106.667zM704 384c-35.285 0-64 28.715-64 64s28.715 64 64 64 64-28.715 64-64-28.715-64-64-64zM547.712 746.667c-18.517 61.44-74.965 106.667-142.379 106.667s-123.861-45.227-142.379-106.667h-177.621v-85.333h177.621c18.517-61.44 74.965-106.667 142.379-106.667s123.861 45.227 142.379 106.667h396.288v85.333h-396.288zM405.333 640c-35.285 0-64 28.715-64 64s28.715 64 64 64 64-28.715 64-64-28.715-64-64-64z" fill="currentColor" />
  </g>
</svg>
