<?xml version="1.0" encoding="utf-8"?>
<svg xmlns="http://www.w3.org/2000/svg" viewBox="0 0 1024 1024" width="24" height="24">
  <g transform="scale(1, -1) translate(0, -960)">
    <path d="M597.333 448c-46.72 0-85.333 38.613-85.333 85.333 0 15.104 4.395 29.141 11.435 41.515-3.84 0.299-7.509 1.152-11.435 1.152-70.498-0.48-127.52-57.502-128-127.954v-0.046c0-70.059 57.941-128 128-128 70.016 0 128 57.941 128 128 0 3.925-0.853 7.595-1.152 11.435-12.373-7.040-26.411-11.435-41.515-11.435zM512 746.667c-325.675 0-423.552-282.325-424.448-285.184l-4.523-13.483 4.48-13.483c0.939-2.859 98.816-285.184 424.491-285.184s423.552 282.325 424.448 285.184l4.523 13.483-4.48 13.483c-0.939 2.859-98.816 285.184-424.491 285.184zM512 234.667c-228.309 0-316.757 164.096-338.176 213.333 21.504 49.408 109.995 213.333 338.176 213.333 228.309 0 316.757-164.096 338.176-213.333-21.504-49.408-109.995-213.333-338.176-213.333z" fill="currentColor" />
  </g>
</svg>
