<?xml version="1.0" encoding="utf-8"?>
<svg xmlns="http://www.w3.org/2000/svg" viewBox="0 0 1024 1024" width="24" height="24">
  <g transform="scale(1, -1) translate(0, -960)">
    <path d="M929.963 534.101c-40.405 197.333-216.192 340.565-417.963 340.565-235.264 0-426.667-191.403-426.667-426.667 0-201.771 143.232-377.557 340.565-417.963 2.632-0.585 5.655-0.919 8.757-0.919 11.729 0 22.339 4.79 29.981 12.521l453.679 453.679c10.155 10.155 14.507 24.661 11.648 38.784zM469.333 192c-0.001 0.29-0.001 0.632-0.001 0.975 0 70.842 21.772 136.599 58.99 190.945l-0.748-1.157c12.904 18.911 26.628 35.453 41.738 50.613l-0.010-0.010c15.13 15.075 31.643 28.783 49.324 40.912l1.193 0.773c16.667 11.389 35.734 21.925 55.784 30.622l2.243 0.866c20.523 8.661 42.069 15.36 64.043 19.883 20.274 4.218 43.571 6.633 67.433 6.633 8.852 0 17.626-0.332 26.31-0.985l-1.157 0.070-363.904-363.904c-0.555 7.893-1.237 15.787-1.237 23.765zM170.667 448c0 188.203 153.131 341.333 341.333 341.333 124.117 0 235.861-67.797 295.637-170.88-29.404-0.111-58.025-3.181-85.666-8.929l2.764 0.481c-27.435-5.632-54.357-13.995-80.171-24.875-27.848-11.96-51.667-25.137-73.991-40.346l1.501 0.965c-22.741-15.403-43.947-32.896-63.104-52.053s-36.608-40.32-52.096-63.147c-15.317-22.741-28.587-47.104-39.339-72.448-21.203-48.976-33.536-106.008-33.536-165.922 0-0.063 0-0.127 0-0.19v0.011c0-20.949 2.048-41.771 5.077-62.336-129.28 50.048-218.411 176-218.411 318.336z" fill="currentColor" />
  </g>
</svg>
