<?xml version="1.0" encoding="utf-8"?>
<svg xmlns="http://www.w3.org/2000/svg" viewBox="0 0 1024 1024" width="24" height="24">
  <g transform="scale(1, -1) translate(0, -960)">
    <path d="M853.333 832h-682.667c-47.061 0-85.333-38.272-85.333-85.333v-597.333c0-47.061 38.272-85.333 85.333-85.333h682.667c47.061 0 85.333 38.272 85.333 85.333v597.333c0 47.061-38.272 85.333-85.333 85.333zM170.667 149.333v512h256v-512h-256zM512 149.333v512h341.333v85.333l0.085-597.333h-341.419zM256 533.333h85.333v-85.333h-85.333zM256 362.667h85.333v-85.333h-85.333z" fill="currentColor" />
  </g>
</svg>
