<?xml version="1.0" encoding="utf-8"?>
<svg xmlns="http://www.w3.org/2000/svg" viewBox="0 0 1024 1024" width="24" height="24">
  <g transform="scale(1, -1) translate(0, -960)">
    <path d="M870.827 699.307l-341.333 170.667c-5.492 3.009-12.033 4.779-18.987 4.779s-13.495-1.77-19.196-4.884l-341.124-170.562c-12.316-6.763-20.838-19.109-22.174-33.538l-0.013-0.168c0-4.693-42.667-459.52 366.507-640 5.106-2.535 11.098-4.091 17.435-4.265l0.058-0.001c0.011 0 0.024 0 0.037 0 6.188 0 12.046 1.417 17.266 3.943l-0.237-0.103c406.187 180.907 366.933 636.16 366.933 640.427-1.972 15.151-11.645 27.659-24.903 33.598l-0.27 0.108zM512 110.933c-290.133 139.52-303.787 437.76-301.653 523.52l298.667 149.76 298.667-149.76c5.547-85.76-8.107-384-295.68-523.52zM341.333 490.667h341.333v-85.333h-341.333v85.333z" fill="currentColor" />
  </g>
</svg>
