<?xml version="1.0" encoding="utf-8"?>
<svg xmlns="http://www.w3.org/2000/svg" viewBox="0 0 1024 1024" width="24" height="24">
  <g transform="scale(1, -1) translate(0, -960)">
    <path d="M816.981 833.237c-15.224 24.932-42.251 41.342-73.118 41.429h-463.714c-29.781 0-57.813-15.872-73.131-41.429l-115.584-192.597c-3.832-6.254-6.101-13.826-6.101-21.928 0-0.016 0-0.032 0-0.048v0.002c0.183-42.962 16.333-82.117 42.816-111.872l-0.149 0.171v-357.632c0-47.061 38.272-85.333 85.333-85.333h597.333c47.061 0 85.333 38.272 85.333 85.333v357.632c26.334 29.584 42.483 68.739 42.667 111.664v0.038c0 0.014 0 0.030 0 0.046 0 8.102-2.269 15.673-6.207 22.114l0.106-0.186-115.584 192.597zM852.651 607.957c-5.558-42.264-41.323-74.561-84.644-74.624h-0.007c-47.061 0-85.333 38.272-85.333 85.333 0 2.901-1.067 5.461-1.664 8.192l0.853 0.171-32.469 162.304h94.464l108.8-181.376zM461.611 789.333h100.736l34.688-173.44c-1.493-45.739-38.955-82.56-85.035-82.56s-83.541 36.821-85.035 82.56l34.645 173.44zM280.149 789.333h94.464l-32.427-162.304 0.853-0.171c-0.64-2.731-1.707-5.291-1.707-8.192 0-47.061-38.272-85.333-85.333-85.333-43.328 0.063-79.093 32.36-84.604 74.191l-0.047 0.433 108.8 181.376zM426.667 149.333v128h170.667v-128h-170.667zM682.667 149.333v128c0 47.061-38.272 85.333-85.333 85.333h-170.667c-47.061 0-85.333-38.272-85.333-85.333v-128h-128v304.725c13.696-3.541 27.819-6.059 42.667-6.059 0.027 0 0.058 0 0.090 0 50.884 0 96.554 22.324 127.75 57.713l0.161 0.186c31.275-35.499 77.099-57.899 128-57.899s96.725 22.4 128 57.899c31.357-35.575 77.027-57.899 127.91-57.899 0.031 0 0.063 0 0.094 0h-0.005c14.848 0 28.971 2.517 42.667 6.059v-304.725h-128z" fill="currentColor" />
  </g>
</svg>
