<?xml version="1.0" encoding="utf-8"?>
<svg xmlns="http://www.w3.org/2000/svg" viewBox="0 0 1024 1024" width="24" height="24">
  <g transform="scale(1, -1) translate(0, -960)">
    <path d="M554.667 657.024l0.427-0.043c42.479-8.905 79.194-29.446 107.771-58.107l0.005-0.005c28.64-28.635 49.184-65.366 57.907-106.465l0.248-1.396c2.737-12.898 4.305-27.717 4.305-42.903 0-15.261-1.583-30.152-4.594-44.518l0.246 1.405c-8.904-42.5-29.462-79.232-58.148-107.812l-0.007-0.007 60.331-60.331c40.084 40.107 68.841 91.539 81.060 149.083l0.348 1.957c3.901 18.079 6.135 38.848 6.135 60.139s-2.234 42.060-6.481 62.086l0.346-1.947c-12.417 59.522-41.188 110.972-81.356 150.988l-0.009 0.009c-26.492 26.583-57.971 48.176-92.919 63.259l-1.929 0.741c-15.942 6.98-34.71 12.985-54.184 17.071l-1.922 0.337c-5.845 1.195-11.733 1.835-17.579 2.688v131.413l-170.667-170.667 170.667-170.667v123.691zM236.8 331.776c7.424-17.579 16.725-34.645 27.563-50.773 10.624-15.787 22.912-30.635 36.437-44.117 26.537-26.544 58.020-48.142 92.949-63.293l1.942-0.75c18.133-7.68 37.035-13.525 56.107-17.408 7.125-1.451 14.421-2.389 21.675-3.328v-125.611l170.667 170.667-170.667 170.667v-129.28c-1.493 0.256-3.072 0.128-4.565 0.469-42.479 8.905-79.194 29.446-107.771 58.107l-0.005 0.005c-38.654 38.575-62.567 91.908-62.567 150.827 0 58.94 23.931 112.29 62.606 150.865l0.004 0.004-60.331 60.373c-26.551-26.525-48.139-58.012-63.254-92.953l-0.746-1.938c-14.863-34.21-23.51-74.057-23.51-115.923 0-0.136 0-0.272 0-0.407v0.021c0-0.061 0-0.132 0-0.203 0-41.896 8.63-81.776 24.21-117.96l-0.743 1.94z" fill="currentColor" />
  </g>
</svg>
