<?xml version="1.0" encoding="utf-8"?>
<svg xmlns="http://www.w3.org/2000/svg" viewBox="0 0 1024 1024" width="24" height="24">
  <g transform="scale(1, -1) translate(0, -960)">
    <path d="M128 789.333v-213.333h85.333v170.667h170.667v85.333h-213.333c-23.564 0-42.667-19.103-42.667-42.667v0zM896 576v213.333c0 23.564-19.103 42.667-42.667 42.667v0h-213.333v-85.333h170.667v-170.667h85.333zM810.667 149.333h-170.667v-85.333h213.333c23.564 0 42.667 19.103 42.667 42.667v0 213.333h-85.333v-170.667zM384 64v85.333h-170.667v170.667h-85.333v-213.333c0-23.564 19.103-42.667 42.667-42.667v0h213.333zM85.333 490.667h853.333v-85.333h-853.333z" fill="currentColor" />
  </g>
</svg>
