<?xml version="1.0" encoding="utf-8"?>
<svg xmlns="http://www.w3.org/2000/svg" viewBox="0 0 1024 1024" width="24" height="24">
  <g transform="scale(1, -1) translate(0, -960)">
    <path d="M873.813 699.52l-341.333 170.667c-5.562 2.844-12.133 4.511-19.093 4.511s-13.531-1.667-19.335-4.622l0.242 0.112-341.333-170.667c-12.825-6.548-21.799-19.036-23.323-33.736l-0.015-0.184c-0.469-4.565-41.003-459.392 366.464-640.597 5.091-2.347 11.047-3.715 17.323-3.715s12.232 1.369 17.586 3.824l-0.263-0.108c407.467 181.205 366.933 635.989 366.464 640.597-1.541 14.895-10.534 27.388-23.139 33.808l-0.242 0.112zM513.408 111.061c-288.768 139.605-302.464 437.547-300.117 523.179l300.117 150.059 299.904-149.973c1.621-84.864-13.995-384.768-299.904-523.264zM609.835 606.165l-97.835-97.835-97.835 97.835-60.331-60.331 97.835-97.835-97.835-97.835 60.331-60.331 97.835 97.835 97.835-97.835 60.331 60.331-97.835 97.835 97.835 97.835z" fill="currentColor" />
  </g>
</svg>
