<?xml version="1.0" encoding="utf-8"?>
<svg xmlns="http://www.w3.org/2000/svg" viewBox="0 0 1024 1024" width="24" height="24">
  <g transform="scale(1, -1) translate(0, -960)">
    <path d="M914.176 486.613l-725.333 341.333c-5.336 2.584-11.606 4.095-18.229 4.095-23.541 0-42.624-19.083-42.624-42.624 0-3.697 0.471-7.285 1.356-10.705l-0.065 0.296 82.731-331.008-82.731-331.008c-0.833-3.148-1.312-6.761-1.312-10.487 0-23.517 19.064-42.581 42.581-42.581 6.648 0 12.94 1.523 18.546 4.24l-0.254-0.111 725.333 341.333c14.606 6.983 24.516 21.641 24.516 38.613s-9.91 31.63-24.259 38.503l-0.257 0.111zM233.856 183.595l35.797 143.232 242.347 121.173-242.347 121.173-35.797 143.232 561.92-264.405-561.92-264.405z" fill="currentColor" />
  </g>
</svg>
