<?xml version="1.0" encoding="utf-8"?>
<svg xmlns="http://www.w3.org/2000/svg" viewBox="0 0 1024 1024" width="24" height="24">
  <g transform="scale(1, -1) translate(0, -960)">
    <path d="M853.333 490.667h-341.333c-170.667 0-170.667 77.483-170.667 106.667 0 26.368 0 106.667 170.667 106.667 119.467 0 127.573-71.595 128-85.931l42.667 0.597h42.667c0 59.051-44.587 170.667-213.333 170.667-231.083 0-256-134.272-256-192 0-31.061 6.315-71.125 31.403-106.667h-116.736v-85.333h682.667v85.333zM512 192c-161.835 0-170.24 77.44-170.667 85.333h-85.333c0-1.707 2.944-170.667 256-170.667 222.763 0 256 120.277 256 192 0 6.229-0.384 13.525-1.195 21.333h-85.589c1.365-8.533 1.451-16.043 1.451-21.333 0-29.184 0-106.667-170.667-106.667z" fill="currentColor" />
  </g>
</svg>
