<?xml version="1.0" encoding="utf-8"?>
<svg xmlns="http://www.w3.org/2000/svg" viewBox="0 0 1024 1024" width="24" height="24">
  <g transform="scale(1, -1) translate(0, -960)">
    <path d="M213.333 64h597.333c47.128 0 85.333 38.205 85.333 85.333v0 469.333c0 0.073 0.001 0.16 0.001 0.247 0 11.721-4.726 22.338-12.377 30.049l-170.664 170.664c-7.709 7.648-18.326 12.374-30.047 12.374-0.087 0-0.173 0-0.26-0.001h-469.32c-47.128 0-85.333-38.205-85.333-85.333v0-597.333c0-47.128 38.205-85.333 85.333-85.333v0zM640 149.333h-256v213.333h256zM554.667 661.333h-85.333v85.333h85.333zM213.333 746.667h85.333v-170.667h341.333v170.667h25.173l145.493-145.493v-451.84h-85.333v213.333c0 47.128-38.205 85.333-85.333 85.333v0h-256c-47.128 0-85.333-38.205-85.333-85.333v0-213.333h-85.333z" fill="currentColor" />
  </g>
</svg>
