<?xml version="1.0" encoding="utf-8"?>
<svg xmlns="http://www.w3.org/2000/svg" viewBox="0 0 1024 1024" width="24" height="24">
  <g transform="scale(1, -1) translate(0, -960)">
    <path d="M512 874.667c-191.573 0-341.333-93.867-341.333-213.333v-426.667c0-119.467 149.76-213.333 341.333-213.333s341.333 93.867 341.333 213.333v426.667c0 119.467-149.76 213.333-341.333 213.333zM512 106.667c-151.040 0-256 67.413-256 128v284.587c68.653-44.797 152.696-71.443 242.962-71.443 4.585 0 9.154 0.069 13.706 0.205l-0.668-0.016c3.885-0.121 8.453-0.189 13.038-0.189 90.267 0 174.31 26.646 244.693 72.5l-1.731-1.058v-284.587c0-60.587-104.96-128-256-128zM512 533.333c-151.040 0-256 67.413-256 128s104.96 128 256 128 256-67.413 256-128-104.96-128-256-128zM640 661.333c0-40.295-57.308-72.96-128-72.96s-128 32.665-128 72.96c0 40.295 57.308 72.96 128 72.96s128-32.665 128-72.96z" fill="currentColor" />
  </g>
</svg>
