<?xml version="1.0" encoding="utf-8"?>
<svg xmlns="http://www.w3.org/2000/svg" viewBox="0 0 1024 1024" width="24" height="24">
  <g transform="scale(1, -1) translate(0, -960)">
    <path d="M867.925 599.595l47.147 23.595c14.116 7.131 23.627 21.52 23.627 38.13 0 9.663-3.219 18.574-8.642 25.72l0.077-0.106-128 170.667c-7.867 10.41-20.223 17.067-34.133 17.067v0h-512c-13.911 0-26.267-6.657-34.056-16.959l-0.078-0.107-128-170.667c-5.327-7.042-8.533-15.946-8.533-25.599 0-16.595 9.474-30.978 23.309-38.033l0.242-0.112 47.147-23.595-48.256-96.512c-14.092-27.802-22.375-60.606-22.443-95.338v-25.238c0.367-108.988 68.466-201.977 164.388-239.104l1.756-0.598 146.389-54.869c32.826-12.452 60.842-30.853 84.004-54.095l0.006-0.006c7.704-7.737 18.365-12.524 30.144-12.524s22.44 4.787 30.143 12.523l0.001 0.001c23.17 23.234 51.185 41.622 82.404 53.521l1.607 0.538 146.432 54.912c97.628 37.771 165.681 130.741 166.059 239.654v25.263c0 32.896-7.808 65.92-22.485 95.403l-48.256 96.469zM853.333 382.507c-0.255-72.652-45.651-134.636-109.592-159.388l-1.171-0.399-146.389-54.912c-32.203-12.201-60.042-28.053-84.93-47.507l0.706 0.531c-24.184 18.929-52.022 34.793-82.026 46.279l-2.198 0.739-146.304 54.869c-65.112 25.151-110.508 87.135-110.763 159.755v25.248c0 19.755 4.651 39.595 13.483 57.259l48.256 96.469c5.658 11.109 8.973 24.227 8.973 38.12 0 33.235-18.971 62.039-46.675 76.173l-0.484 0.224-1.408 0.64 84.523 112.725h469.333l84.523-112.725-1.451-0.725c-28.181-14.373-47.145-43.18-47.145-76.417 0-13.884 3.309-26.996 9.182-38.589l-0.224 0.488 48.256-96.427c8.875-17.664 13.525-37.461 13.525-57.216v-25.216z" fill="currentColor" />
  </g>
</svg>
