<?xml version="1.0" encoding="utf-8"?>
<svg xmlns="http://www.w3.org/2000/svg" viewBox="0 0 1024 1024" width="24" height="24">
  <g transform="scale(1, -1) translate(0, -960)">
    <path d="M512 874.667c-235.264 0-426.667-191.403-426.667-426.667s191.403-426.667 426.667-426.667 426.667 191.403 426.667 426.667-191.403 426.667-426.667 426.667zM512 106.667c-188.203 0-341.333 153.131-341.333 341.333s153.131 341.333 341.333 341.333 341.333-153.131 341.333-341.333-153.131-341.333-341.333-341.333zM640 298.667c0-58.91-57.308-106.667-128-106.667s-128 47.756-128 106.667c0 58.91 57.308 106.667 128 106.667s128-47.756 128-106.667zM426.667 661.333c-123.947 0-169.941-101.803-170.667-170.24l85.333-0.896c0.085 8.832 3.243 85.803 85.333 85.803v85.333zM597.333 661.333v-85.333c77.909 0 84.992-65.579 85.333-85.632l42.667 0.299h42.667c0 68.608-45.44 170.667-170.667 170.667z" fill="currentColor" />
  </g>
</svg>
