<?xml version="1.0" encoding="utf-8"?>
<svg xmlns="http://www.w3.org/2000/svg" viewBox="0 0 1024 1024" width="24" height="24">
  <g transform="scale(1, -1) translate(0, -960)">
    <path d="M496.213 25.173c4.609-2.288 10.017-3.689 15.736-3.839l0.050-0.001c6.348 0.030 12.358 1.442 17.757 3.95l-0.263-0.11c409.173 180.907 366.507 636.16 366.507 640.427-1.623 14.829-10.634 27.239-23.222 33.595l-0.244 0.112-341.333 170.667c-5.59 2.877-12.198 4.564-19.2 4.564s-13.61-1.687-19.44-4.676l0.24 0.112-341.333-170.667c-12.833-6.468-21.843-18.878-23.45-33.516l-0.017-0.191c0-4.267-39.253-459.52 368.213-640.427zM213.333 634.453l298.667 149.76 298.667-149.76c2.133-85.333-11.52-384-298.667-523.52-287.573 139.52-301.227 437.76-298.667 523.52zM471.893 277.333h85.333v128h128.427v85.333h-128.427v128h-85.333v-128h-128v-85.333h128v-128z" fill="currentColor" />
  </g>
</svg>
