<?xml version="1.0" encoding="utf-8"?>
<svg xmlns="http://www.w3.org/2000/svg" viewBox="0 0 1024 1024" width="24" height="24">
  <g transform="scale(1, -1) translate(0, -960)">
    <path d="M512 746.667c-188.203 0-341.333-153.131-341.333-341.333s153.131-341.333 341.333-341.333 341.333 153.131 341.333 341.333-153.131 341.333-341.333 341.333zM512 149.333c-141.184 0-256 114.816-256 256s114.816 256 256 256 256-114.816 256-256-114.816-256-256-256zM469.333 576h85.333v-213.333h-85.333zM384 874.667h256v-85.333h-256zM823.168 631.168l-85.333 85.333 60.331 60.331 85.333-85.333z" fill="currentColor" />
  </g>
</svg>
