<?xml version="1.0" encoding="utf-8"?>
<svg xmlns="http://www.w3.org/2000/svg" viewBox="0 0 1024 1024" width="24" height="24">
  <g transform="scale(1, -1) translate(0, -960)">
    <path d="M725.333 874.667h-426.667c-117.632 0-213.333-95.701-213.333-213.333v-426.667c0-117.632 95.701-213.333 213.333-213.333h426.667c117.632 0 213.333 95.701 213.333 213.333v426.667c0 117.632-95.701 213.333-213.333 213.333zM853.333 234.667c0-70.571-57.429-128-128-128h-426.667c-70.571 0-128 57.429-128 128v426.667c0 70.571 57.429 128 128 128h426.667c70.571 0 128-57.429 128-128v-426.667z" fill="currentColor" />
  </g>
</svg>
