<?xml version="1.0" encoding="utf-8"?>
<svg xmlns="http://www.w3.org/2000/svg" viewBox="0 0 1024 1024" width="24" height="24">
  <g transform="scale(1, -1) translate(0, -960)">
    <path d="M341.333 576c-69.461 0-128-58.539-128-128s58.539-128 128-128 128 58.539 128 128-58.539 128-128 128zM682.667 704h-341.333c-140.8 0-255.531-114.731-256-256v-0.683c0.629-140.994 114.952-255.076 255.977-255.317h341.356c141.197 0.242 255.612 114.567 256 255.707v0.293c-0.384 141.184-115.157 256-256 256zM682.667 277.333h-341.333c-94.049 0.145-170.279 76.226-170.667 170.203v0.037c0.171 94.336 76.715 171.093 170.667 171.093h341.333c93.952 0 170.496-76.757 170.667-170.923-0.315-94.078-76.568-170.241-170.65-170.411h-0.016zM853.333 447.317l18.901 0.171 23.765-0.171h-42.667z" fill="currentColor" />
  </g>
</svg>
