<?xml version="1.0" encoding="utf-8"?>
<svg xmlns="http://www.w3.org/2000/svg" viewBox="0 0 1024 1024" width="24" height="24">
  <g transform="scale(1, -1) translate(0, -960)">
    <path d="M210.304 145.877c80.853-80.853 187.947-125.355 301.696-125.355s220.885 44.501 301.696 125.355c166.357 166.357 166.357 437.035 0 603.435-80.811 80.811-187.989 125.355-301.696 125.355s-220.885-44.544-301.696-125.355c-166.357-166.357-166.357-437.077 0-603.435zM753.365 206.208c-43.438-43.555-98.606-75.389-160.365-90.362l-2.323-0.476c-0.384 68.352 25.003 134.229 72.149 181.376 49.621 49.621 116.565 77.995 182.485 78.976-14.457-66.781-46.89-124.46-91.947-169.515v0zM852.565 460.715c-90.624 0.896-182.784-36.395-250.069-103.637-65.365-65.365-99.285-157.013-96.555-250.923-92.125 1.45-175.107 39.423-235.332 100.035l-0.018 0.018c-60.3 60.33-98.044 143.21-99.495 234.903l-0.003 0.275c3.285-0.085 6.571-0.597 9.856-0.597 90.24 0 177.493 34.304 240.512 97.28 67.413 67.413 104.832 159.531 103.68 250.581 89.472-3.311 169.595-40.794 228.21-99.698l0.014-0.014c58.687-58.719 95.981-138.827 99.183-227.626l0.017-0.598zM270.635 688.939c45.031 45.235 102.697 77.857 167.258 92.125l2.257 0.419c-0.768-66.347-29.227-133.291-78.976-183.083-47.104-47.061-112.725-72.363-180.821-72.149 15.195 64.062 46.862 119.251 90.284 162.689l-0.001-0.001z" fill="currentColor" />
  </g>
</svg>
