<?xml version="1.0" encoding="utf-8"?>
<svg xmlns="http://www.w3.org/2000/svg" viewBox="0 0 1024 1024" width="24" height="24">
  <g transform="scale(1, -1) translate(0, -960)">
    <path d="M640 448c0-70.692-57.308-128-128-128s-128 57.308-128 128c0 70.692 57.308 128 128 128s128-57.308 128-128zM554.667 786.389v88.277h-85.333v-88.277c-154.488-20.255-275.468-141.235-295.537-293.993l-0.186-1.73h-88.277v-85.333h88.277c20.24-154.495 141.228-275.483 293.995-295.537l1.728-0.185v-88.277h85.333v88.277c154.495 20.24 275.483 141.228 295.537 293.995l0.185 1.728h88.277v85.333h-88.277c-20.255 154.488-141.235 275.468-293.993 295.537l-1.73 0.186zM512 192c-141.184 0-256 114.816-256 256s114.816 256 256 256 256-114.816 256-256-114.816-256-256-256z" fill="currentColor" />
  </g>
</svg>
