<?xml version="1.0" encoding="utf-8"?>
<svg xmlns="http://www.w3.org/2000/svg" viewBox="0 0 1024 1024" width="24" height="24">
  <g transform="scale(1, -1) translate(0, -960)">
    <path d="M213.333 21.333h597.333c47.061 0 85.333 38.272 85.333 85.333v640c0 47.061-38.272 85.333-85.333 85.333h-85.333c0 23.564-19.103 42.667-42.667 42.667v0h-341.333c-23.564 0-42.667-19.103-42.667-42.667v0h-85.333c-47.061 0-85.333-38.272-85.333-85.333v-640c0-47.061 38.272-85.333 85.333-85.333zM213.333 746.667h85.333v-85.333h426.667v85.333h85.333v-640h-597.333v640zM469.333 380.331l-76.501 76.501-60.331-60.331 136.832-136.832 222.165 222.165-60.331 60.331z" fill="currentColor" />
  </g>
</svg>
