<?xml version="1.0" encoding="utf-8"?>
<svg xmlns="http://www.w3.org/2000/svg" viewBox="0 0 1024 1024" width="24" height="24">
  <g transform="scale(1, -1) translate(0, -960)">
    <path d="M213.333 106.667c0-47.128 38.205-85.333 85.333-85.333v0h426.667c47.128 0 85.333 38.205 85.333 85.333v0 512h85.333v85.333h-170.667v85.333c0 47.128-38.205 85.333-85.333 85.333v0h-256c-47.128 0-85.333-38.205-85.333-85.333v0-85.333h-170.667v-85.333h85.333zM384 789.333h256v-85.333h-256zM341.333 618.667h384v-512h-426.667v512zM384 533.333h85.333v-341.333h-85.333zM554.667 533.333h85.333v-341.333h-85.333z" fill="currentColor" />
  </g>
</svg>
