<?xml version="1.0" encoding="utf-8"?>
<svg xmlns="http://www.w3.org/2000/svg" viewBox="0 0 1024 1024" width="24" height="24">
  <g transform="scale(1, -1) translate(0, -960)">
    <path d="M853.333 789.333h-490.027c-28.515-0.012-53.758-14.008-69.246-35.502l-0.173-0.253-200.576-280.789c-4.982-6.878-7.97-15.485-7.97-24.789s2.987-17.911 8.055-24.913l-0.086 0.124 200.576-280.789c15.66-21.747 40.904-35.743 69.417-35.755h490.029c47.061 0 85.333 38.272 85.333 85.333v512c0 47.061-38.272 85.333-85.333 85.333zM853.333 192h-490.027l-182.869 256 182.869 256h490.027v-512z" fill="currentColor" />
  </g>
</svg>
