<?xml version="1.0" encoding="utf-8"?>
<svg xmlns="http://www.w3.org/2000/svg" viewBox="0 0 1024 1024" width="24" height="24">
  <g transform="scale(1, -1) translate(0, -960)">
    <path d="M850.091 516.992c2.054 4.824 3.248 10.436 3.248 16.327 0 11.787-4.779 22.457-12.506 30.179l-213.334 213.334-60.331-60.331 140.501-140.501h-537.003v-85.333h640c0.003 0 0.007 0 0.011 0 17.668 0 32.828 10.739 39.308 26.046l0.105 0.28zM173.909 379.008c-2.054-4.824-3.248-10.436-3.248-16.327 0-11.787 4.779-22.457 12.506-30.179l213.334-213.334 60.331 60.331-140.501 140.501h537.003v85.333h-640c-0.012 0-0.025 0-0.039 0-17.66 0-32.812-10.74-39.28-26.046l-0.105-0.28z" fill="currentColor" />
  </g>
</svg>
