<?xml version="1.0" encoding="utf-8"?>
<svg xmlns="http://www.w3.org/2000/svg" viewBox="0 0 1024 1024" width="24" height="24">
  <g transform="scale(1, -1) translate(0, -960)">
    <path d="M170.667 64h678.101c47.061 0 85.333 38.272 85.333 85.333v597.333c0 47.061-38.272 85.333-85.333 85.333h-678.101c-47.061 0-85.333-38.272-85.333-85.333v-597.333c0-47.061 38.272-85.333 85.333-85.333zM170.667 149.333v213.333h170.667v-213.333h-170.667zM597.333 661.333v-213.333h-170.667v213.333h170.667zM341.333 661.333v-213.333h-170.667v213.333h170.667zM426.667 149.333v213.333h170.667v-213.333h-170.667zM682.667 149.333v213.333h166.144v-213.333h-166.144zM848.768 448h-166.101v213.333h166.101v-213.333z" fill="currentColor" />
  </g>
</svg>
