<?xml version="1.0" encoding="utf-8"?>
<svg xmlns="http://www.w3.org/2000/svg" viewBox="0 0 1024 1024" width="24" height="24">
  <g transform="scale(1, -1) translate(0, -960)">
    <path d="M426.667 341.333c0-35.346-28.654-64-64-64s-64 28.654-64 64c0 35.346 28.654 64 64 64s64-28.654 64-64zM725.333 341.333c0-35.346-28.654-64-64-64s-64 28.654-64 64c0 35.346 28.654 64 64 64s64-28.654 64-64zM805.12 817.493c-25.403 32.027-63.005 53.425-105.671 57.133l-0.569 0.040h-373.76c-43.575-3.295-81.503-24.993-106.412-57.256l-0.255-0.344c-27.393-29.959-45.057-69.222-47.76-112.539l-0.026-0.528v-512c0-23.564 19.103-42.667 42.667-42.667v0h85.333l-85.333-128h98.987l29.013 42.667h341.333l29.013-42.667h98.987l-85.333 128h85.333c23.564 0 42.667 19.103 42.667 42.667v0 512c-2.097 44.168-20.069 83.773-48.29 113.575l0.076-0.081zM325.12 789.333h372.053c17.542-4.354 32.279-14.374 42.528-27.968l0.139-0.192c3.622-4.283 7.133-9.015 10.338-13.965l0.329-0.542h-477.867c3.311 5.648 6.836 10.532 10.768 15.053l-0.102-0.119c9.95 13.795 24.486 23.744 41.339 27.641l0.474 0.092zM256 618.667v42.667h512v-128h-512zM768 234.667h-512v213.333h512z" fill="currentColor" />
  </g>
</svg>
