<?xml version="1.0" encoding="utf-8"?>
<svg xmlns="http://www.w3.org/2000/svg" viewBox="0 0 1024 1024" width="24" height="24">
  <g transform="scale(1, -1) translate(0, -960)">
    <path d="M859.52 607.147l66.688 66.688-60.331 60.331-72.875-72.832c-44.8 26.88-97.024 42.667-153.003 42.667-164.651 0-298.667-133.973-298.667-298.667s134.016-298.667 298.667-298.667 298.667 133.973 298.667 298.667c-0.037 78.016-30.126 148.998-79.319 202.001l0.172-0.188zM640 192c-117.632 0-213.333 95.701-213.333 213.333s95.701 213.333 213.333 213.333 213.333-95.701 213.333-213.333-95.701-213.333-213.333-213.333zM597.333 533.333h85.333v-170.667h-85.333zM554.667 832h170.667v-85.333h-170.667zM128 618.667h170.667v-85.333h-170.667zM128 277.333h170.667v-85.333h-170.667zM85.333 448h170.24v-85.333h-170.24z" fill="currentColor" />
  </g>
</svg>
