<?xml version="1.0" encoding="utf-8"?>
<svg xmlns="http://www.w3.org/2000/svg" viewBox="0 0 1024 1024" width="24" height="24">
  <g transform="scale(1, -1) translate(0, -960)">
    <path d="M682.667 576c-69.461 0-128-58.539-128-128s58.539-128 128-128 128 58.539 128 128-58.539 128-128 128zM682.667 704h-341.333c-140.629 0-255.232-114.432-256-255.403v-1.792c0.918-140.774 115.131-254.566 255.977-254.805h341.356c141.184 0 256 114.816 256 256s-114.816 256-256 256zM682.667 277.333h-341.333c-94.049 0.145-170.279 76.226-170.667 170.203v0.037c0.171 94.336 76.715 171.093 170.667 171.093h341.333c94.123 0 170.667-76.544 170.667-170.667s-76.544-170.667-170.667-170.667z" fill="currentColor" />
  </g>
</svg>
