<?xml version="1.0" encoding="utf-8"?>
<svg xmlns="http://www.w3.org/2000/svg" viewBox="0 0 1024 1024" width="24" height="24">
  <g transform="scale(1, -1) translate(0, -960)">
    <path d="M594.901 846.208c-6.030 16.721-21.76 28.459-40.232 28.459-0.001 0-0.002 0-0.003 0h-85.333c-0.001 0-0.002 0-0.003 0-18.471 0-34.201-11.738-40.138-28.161l-0.094-0.297-245.973-696.875h-97.792v-85.333h853.333v85.333h-97.792l-245.973 696.875zM660.053 405.333h-296.107l45.227 128h205.653l45.227-128zM499.499 789.333h25.003l60.245-170.667h-145.493l60.245 170.667zM333.867 320h356.267l60.245-170.667h-476.757l60.245 170.667z" fill="currentColor" />
  </g>
</svg>
