<?xml version="1.0" encoding="utf-8"?>
<svg xmlns="http://www.w3.org/2000/svg" viewBox="0 0 1024 1024" width="24" height="24">
  <g transform="scale(1, -1) translate(0, -960)">
    <path d="M341.333 448c97.28 0 170.667 73.387 170.667 170.667s-73.387 170.667-170.667 170.667-170.667-73.387-170.667-170.667 73.387-170.667 170.667-170.667zM341.333 704c50.261 0 85.333-35.072 85.333-85.333s-35.072-85.333-85.333-85.333-85.333 35.072-85.333 85.333 35.072 85.333 85.333 85.333zM384 405.333h-85.333c-117.632 0-213.333-95.701-213.333-213.333v-42.667h85.333v42.667c0 70.571 57.429 128 128 128h85.333c70.571 0 128-57.429 128-128v-42.667h85.333v42.667c0 117.632-95.701 213.333-213.333 213.333zM783.531 847.531l-60.331-60.331c56.363-56.448 87.467-131.456 87.467-211.2s-31.104-154.752-87.467-211.2l60.331-60.331c72.533 72.576 112.469 169.003 112.469 271.531s-39.936 198.955-112.469 271.531zM662.827 726.869l-60.331-60.416c24.192-24.107 37.504-56.235 37.504-90.453s-13.312-66.347-37.504-90.453l60.331-60.416c40.277 40.277 62.507 93.824 62.507 150.869s-22.229 110.592-62.507 150.869z" fill="currentColor" />
  </g>
</svg>
