<?xml version="1.0" encoding="utf-8"?>
<svg xmlns="http://www.w3.org/2000/svg" viewBox="0 0 1024 1024" width="24" height="24">
  <g transform="scale(1, -1) translate(0, -960)">
    <path d="M512 533.333c49.109 0 85.333 36.181 85.333 85.333s-36.224 85.333-85.333 85.333c-49.067 0-85.333-36.181-85.333-85.333s36.267-85.333 85.333-85.333zM512 490.667c-94.251 0-170.667-68.779-170.667-153.6v-16.469h341.333v16.469c0 84.821-76.416 153.6-170.667 153.6zM810.667 874.667h-597.333c-47.061 0-85.333-38.272-85.333-85.333v-554.667c0-47.061 38.272-85.333 85.333-85.333h170.667l128-128 128 128h170.667c47.061 0 85.333 38.272 85.333 85.333v554.667c0 47.061-38.272 85.333-85.333 85.333zM597.333 234.667l-85.333-85.333-85.333 85.333h-213.333v554.667h597.333l0.085-554.667h-213.419z" fill="currentColor" />
  </g>
</svg>
