<?xml version="1.0" encoding="utf-8"?>
<svg xmlns="http://www.w3.org/2000/svg" viewBox="0 0 1024 1024" width="24" height="24">
  <g transform="scale(1, -1) translate(0, -960)">
    <path d="M682.667 533.333h42.667v-85.333h-170.667v256h85.333l-128 170.667-128-170.667h85.333v-341.333h-170.667v97.152c25.429 14.805 42.667 42.027 42.667 73.515 0 47.128-38.205 85.333-85.333 85.333s-85.333-38.205-85.333-85.333v0c0-31.488 17.237-58.709 42.667-73.515v-97.152c0-47.061 38.272-85.333 85.333-85.333h170.667v-97.152c-25.638-14.902-42.614-42.22-42.667-73.507v-0.008c0-47.128 38.205-85.333 85.333-85.333s85.333 38.205 85.333 85.333v0c0 31.488-17.237 58.709-42.667 73.515v182.485h170.667c47.061 0 85.333 38.272 85.333 85.333v85.333h42.667v170.667h-170.667v-170.667z" fill="currentColor" />
  </g>
</svg>
