<?xml version="1.0" encoding="utf-8"?>
<svg xmlns="http://www.w3.org/2000/svg" viewBox="0 0 1024 1024" width="24" height="24">
  <g transform="scale(1, -1) translate(0, -960)">
    <path d="M597.333 490.667h341.333v-85.333h-341.333zM341.333 789.333c-1.157 0.029-2.519 0.045-3.885 0.045-92.136 0-166.827-74.691-166.827-166.827 0-1.366 0.016-2.729 0.049-4.087l-0.004 0.202c-0.029-1.157-0.045-2.519-0.045-3.885 0-92.136 74.691-166.827 166.827-166.827 1.366 0 2.729 0.016 4.087 0.049l-0.202-0.004c1.157-0.029 2.519-0.045 3.885-0.045 92.136 0 166.827 74.691 166.827 166.827 0 1.366-0.016 2.729-0.049 4.087l0.004-0.202c0.029 1.157 0.045 2.519 0.045 3.885 0 92.136-74.691 166.827-166.827 166.827-1.366 0-2.729-0.016-4.087-0.049l0.202 0.004zM341.333 533.333c-1.175-0.061-2.551-0.095-3.935-0.095-45.008 0-81.493 36.486-81.493 81.493 0 1.384 0.035 2.76 0.103 4.127l-0.008-0.192c-0.061 1.175-0.095 2.551-0.095 3.935 0 45.008 36.486 81.493 81.493 81.493 1.384 0 2.76-0.035 4.127-0.103l-0.192 0.008c1.175 0.061 2.551 0.095 3.935 0.095 45.008 0 81.493-36.486 81.493-81.493 0-1.384-0.035-2.76-0.103-4.127l0.008 0.192c0.061-1.175 0.095-2.551 0.095-3.935 0-45.008-36.486-81.493-81.493-81.493-1.384 0-2.76 0.035-4.127 0.103l0.192-0.008zM170.667 192c0 70.692 57.308 128 128 128v0h85.333c70.692 0 128-57.308 128-128v0-42.667h85.333v42.667c0 117.821-95.513 213.333-213.333 213.333v0h-85.333c-117.821 0-213.333-95.513-213.333-213.333v0-42.667h85.333z" fill="currentColor" />
  </g>
</svg>
