<?xml version="1.0" encoding="utf-8"?>
<svg xmlns="http://www.w3.org/2000/svg" viewBox="0 0 1024 1024" width="24" height="24">
  <g transform="scale(1, -1) translate(0, -960)">
    <path d="M723.157 357.504l90.539 90.496c38.523 38.643 62.341 91.964 62.341 150.848s-23.819 112.205-62.347 150.853l0.005-0.005c-38.634 38.543-91.958 62.377-150.848 62.377s-112.214-23.833-150.852-62.381l-30.161-30.161 60.331-60.331 30.165 30.165c23.197 23.096 55.19 37.375 90.517 37.375s67.32-14.278 90.522-37.379l-0.005 0.005c23.117-23.188 37.41-55.183 37.41-90.517s-14.293-67.33-37.413-90.521l-90.536-90.493c-10.098-10.033-22.037-18.227-35.264-24.028l-0.746-0.292-54.485 54.485 60.331 60.331-30.165 30.165c-38.381 38.611-91.526 62.507-150.253 62.507-0.202 0-0.403 0-0.605-0.001h0.031c-10.027 0-19.797-1.365-29.483-2.816l-264.021 263.979-60.331-60.331 768-768 60.331 60.331-236.203 236.203c11.819 7.851 22.955 16.896 33.195 27.136zM451.669 206.635c-23.197-23.096-55.19-37.375-90.517-37.375s-67.32 14.278-90.522 37.379l0.005-0.005c-23.117 23.188-37.41 55.183-37.41 90.517s14.293 67.33 37.413 90.521l62.973 62.93-60.331 60.331-62.976-62.933c-38.523-38.643-62.341-91.964-62.341-150.848s23.819-112.205 62.347-150.853l-0.005 0.005c38.485-38.539 91.68-62.379 150.444-62.379 0.135 0 0.269 0 0.403 0h-0.021c0.131 0 0.287 0 0.443 0 58.758 0 111.948 23.841 150.424 62.376l30.168 30.168-60.331 60.331-30.165-30.165z" fill="currentColor" />
  </g>
</svg>
