<?xml version="1.0" encoding="utf-8"?>
<svg xmlns="http://www.w3.org/2000/svg" viewBox="0 0 1024 1024" width="24" height="24">
  <g transform="scale(1, -1) translate(0, -960)">
    <path d="M512 874.667c-235.264 0-426.667-191.403-426.667-426.667s191.403-426.667 426.667-426.667 426.667 191.403 426.667 426.667-191.403 426.667-426.667 426.667zM512 106.667c-188.203 0-341.333 153.131-341.333 341.333s153.131 341.333 341.333 341.333 341.333-153.131 341.333-341.333-153.131-341.333-341.333-341.333zM632.704 568.661c7.723-7.723 14.763-16.213 20.821-25.259l70.741 47.744c-18.744 27.416-41.732 50.39-68.276 68.547l-0.887 0.573c-26.132 17.895-56.877 31.286-89.991 38.237l-1.657 0.291c-15.534 3.359-33.38 5.283-51.674 5.283-70.619 0-134.542-28.666-180.769-74.996l-0.005-0.005c-11.351-11.342-21.639-23.744-30.705-37.046l-0.569-0.885 70.699-47.744c24.763 36.27 62.28 62.263 105.969 71.607l1.124 0.201c10.396 2.257 22.338 3.55 34.582 3.55 47.123 0 89.773-19.151 120.591-50.094l0.006-0.006zM725.333 384c0-35.346-28.654-64-64-64s-64 28.654-64 64c0 35.346 28.654 64 64 64s64-28.654 64-64zM426.667 383.701c0-35.181-28.52-63.701-63.701-63.701s-63.701 28.52-63.701 63.701c0 35.181 28.52 63.701 63.701 63.701s63.701-28.52 63.701-63.701z" fill="currentColor" />
  </g>
</svg>
