<?xml version="1.0" encoding="utf-8"?>
<svg xmlns="http://www.w3.org/2000/svg" viewBox="0 0 1024 1024" width="24" height="24">
  <g transform="scale(1, -1) translate(0, -960)">
    <path d="M512 874.667c-117.821 0-213.333-95.513-213.333-213.333s95.513-213.333 213.333-213.333c117.821 0 213.333 95.513 213.333 213.333v0c0 117.821-95.513 213.333-213.333 213.333v0zM512 533.333c-70.692 0-128 57.308-128 128s57.308 128 128 128c70.692 0 128-57.308 128-128v0c0-70.692-57.308-128-128-128v0zM896 64v42.667c0 164.949-133.718 298.667-298.667 298.667v0h-170.667c-164.949 0-298.667-133.718-298.667-298.667v0-42.667h85.333v42.667c0 117.821 95.513 213.333 213.333 213.333v0h170.667c117.821 0 213.333-95.513 213.333-213.333v0-42.667z" fill="currentColor" />
  </g>
</svg>
