<?xml version="1.0" encoding="utf-8"?>
<svg xmlns="http://www.w3.org/2000/svg" viewBox="0 0 1024 1024" width="24" height="24">
  <g transform="scale(1, -1) translate(0, -960)">
    <path d="M512.043 874.965c-235.307-0.043-426.709-191.445-426.709-426.709 0.043-235.264 191.445-426.667 426.667-426.667 235.307 0 426.709 191.403 426.709 426.667s-191.403 426.667-426.667 426.709zM512 106.923c-188.16 0-341.291 153.131-341.333 341.333 0 188.203 153.131 341.333 341.376 341.376 188.203-0.043 341.333-153.173 341.333-341.376s-153.131-341.333-341.376-341.333zM512.043 618.624l-170.88-170.88h128.213v-170.411h85.333v170.411h128.171z" fill="currentColor" />
  </g>
</svg>
