<?xml version="1.0" encoding="utf-8"?>
<svg xmlns="http://www.w3.org/2000/svg" viewBox="0 0 1024 1024" width="24" height="24">
  <g transform="scale(1, -1) translate(0, -960)">
    <path d="M545.323 858.667c-16.256 20.267-50.389 20.267-66.645 0l-341.333-426.667c-5.803-7.23-9.314-16.517-9.314-26.624 0-23.562 19.080-42.668 42.633-42.709h170.671v-298.667c0-23.564 19.103-42.667 42.667-42.667v0h256c23.564 0 42.667 19.103 42.667 42.667v0 298.667h170.667c23.556 0.041 42.637 19.147 42.637 42.709 0 10.107-3.511 19.394-9.379 26.708l0.065-0.084-341.333 426.667zM640 448h-42.667v-341.333h-170.667v341.333h-167.211l252.544 315.691 252.544-315.691h-124.544z" fill="currentColor" />
  </g>
</svg>
