<?xml version="1.0" encoding="utf-8"?>
<svg xmlns="http://www.w3.org/2000/svg" viewBox="0 0 1024 1024" width="24" height="24">
  <g transform="scale(1, -1) translate(0, -960)">
    <path d="M640 277.333c23.564 0 42.667 19.103 42.667 42.667v0 256c0 23.564-19.103 42.667-42.667 42.667v0h-256c-23.564 0-42.667-19.103-42.667-42.667v0-256c0-23.564 19.103-42.667 42.667-42.667v0h256zM213.333 277.333h42.667v341.333c0 47.128 38.205 85.333 85.333 85.333v0h341.333v42.667c0 47.128-38.205 85.333-85.333 85.333v0h-384c-47.128 0-85.333-38.205-85.333-85.333v0-384c0-47.128 38.205-85.333 85.333-85.333v0zM341.333 149.333c0-47.128 38.205-85.333 85.333-85.333v0h384c47.128 0 85.333 38.205 85.333 85.333v0 384c0 47.128-38.205 85.333-85.333 85.333v0h-42.667v-341.333c0-47.128-38.205-85.333-85.333-85.333v0h-341.333v-42.667z" fill="currentColor" />
  </g>
</svg>
