<?xml version="1.0" encoding="utf-8"?>
<svg xmlns="http://www.w3.org/2000/svg" viewBox="0 0 1024 1024" width="24" height="24">
  <g transform="scale(1, -1) translate(0, -960)">
    <path d="M768 661.333c0 47.061-38.272 85.333-85.333 85.333h-409.003l-115.499 115.499-60.331-60.331 768-768 60.331 60.331-158.165 158.165v124.544l170.667-142.208v426.667l-170.667-142.208v142.208zM682.667 337.664l-323.669 323.669h323.669v-323.669zM170.667 149.333h464.171l-85.333 85.333h-378.837v378.837l-79.147 79.189c-3.87-9.274-6.138-20.046-6.187-31.341v-426.686c0-47.061 38.272-85.333 85.333-85.333z" fill="currentColor" />
  </g>
</svg>
