<?xml version="1.0" encoding="utf-8"?>
<svg xmlns="http://www.w3.org/2000/svg" viewBox="0 0 1024 1024" width="24" height="24">
  <g transform="scale(1, -1) translate(0, -960)">
    <path d="M746.667 618.667c-105.99-0.121-191.879-86.010-192-191.989v-0.011c0-39.467 11.989-76.117 32.512-106.667h-150.315c20.48 30.549 32.469 67.2 32.469 106.667 0 105.856-86.144 192-192 192s-192-86.144-192-192 86.144-192 192-192c7.296 0 14.251 1.365 21.333 2.176v-2.176h469.333v2.176c95.744 10.752 170.667 91.264 170.667 189.824 0 105.856-86.144 192-192 192zM170.667 426.667c0 58.837 47.829 106.667 106.667 106.667s106.667-47.829 106.667-106.667-47.829-106.667-106.667-106.667-106.667 47.829-106.667 106.667zM746.667 320c-58.837 0-106.667 47.829-106.667 106.667s47.829 106.667 106.667 106.667 106.667-47.829 106.667-106.667-47.829-106.667-106.667-106.667z" fill="currentColor" />
  </g>
</svg>
