<?xml version="1.0" encoding="utf-8"?>
<svg xmlns="http://www.w3.org/2000/svg" viewBox="0 0 1024 1024" width="24" height="24">
  <g transform="scale(1, -1) translate(0, -960)">
    <path d="M509.867 807.936l30.208-30.165-392.235-392.235c-40.277-40.277-62.507-93.867-62.507-150.869s22.229-110.592 62.507-150.827c40.235-40.277 93.824-62.507 150.827-62.507s110.592 22.229 150.827 62.507l392.235 392.235 30.165-30.208 60.331 60.331-362.027 362.069-60.331-60.331zM389.163 144.171c-48.341-48.341-132.651-48.341-180.992 0-24.149 24.149-37.504 56.277-37.504 90.496s13.355 66.347 37.504 90.496l37.504 37.504h361.984l-218.496-218.496zM692.992 448h-361.984l269.397 269.397 180.992-180.992-88.405-88.405z" fill="currentColor" />
  </g>
</svg>
