<?xml version="1.0" encoding="utf-8"?>
<svg xmlns="http://www.w3.org/2000/svg" viewBox="0 0 1024 1024" width="24" height="24">
  <g transform="scale(1, -1) translate(0, -960)">
    <path d="M469.333 618.667h-85.333v-128h-128v-85.333h128v-128h85.333v128h128v85.333h-128zM768 661.333c0 47.061-38.272 85.333-85.333 85.333h-512c-47.061 0-85.333-38.272-85.333-85.333v-426.667c0-47.061 38.272-85.333 85.333-85.333h512c47.061 0 85.333 38.272 85.333 85.333v142.208l170.667-142.208v426.667l-170.667-142.208v142.208zM682.709 234.667h-512.043v426.667h512v-213.333l0.043-213.333z" fill="currentColor" />
  </g>
</svg>
