<?xml version="1.0" encoding="utf-8"?>
<svg xmlns="http://www.w3.org/2000/svg" viewBox="0 0 1024 1024" width="24" height="24">
  <g transform="scale(1, -1) translate(0, -960)">
    <path d="M170.667 234.667h115.072l245.248-163.499c6.664-4.481 14.869-7.152 23.699-7.152 7.364 0 14.294 1.858 20.347 5.131l-0.227-0.112c13.511 7.341 22.528 21.425 22.528 37.615 0 0.006 0 0.012 0 0.018v-0.001 682.667c-0.013 23.555-19.11 42.645-42.667 42.645-8.808 0-16.993-2.669-23.79-7.243l0.153 0.097-245.291-163.499h-115.072c-47.061 0-85.333-38.272-85.333-85.333v-256c0-47.061 38.272-85.333 85.333-85.333zM170.667 576h128c1.408 0 2.603 0.683 3.968 0.811 6.011 0.636 11.49 2.394 16.401 5.064l-0.23-0.115c1.109 0.597 2.432 0.725 3.499 1.408l189.696 126.464v-523.264l-189.653 126.464c-1.067 0.768-2.389 0.853-3.499 1.408-4.71 2.627-10.245 4.395-16.135 4.937l-0.164 0.012c-1.365 0.128-2.517 0.811-3.883 0.811h-128v256zM682.667 661.333v-426.667c52.267 46.933 85.333 137.771 85.333 213.333s-33.067 166.4-85.333 213.333z" fill="currentColor" />
  </g>
</svg>
