<?xml version="1.0" encoding="utf-8"?>
<svg xmlns="http://www.w3.org/2000/svg" viewBox="0 0 1024 1024" width="24" height="24">
  <g transform="scale(1, -1) translate(0, -960)">
    <path d="M926.165 94.165l-86.315 86.315c61.382 71.017 98.775 164.252 98.775 266.221 0 0.457-0.001 0.913-0.002 1.369v-0.070c0 174.549-105.472 317.995-255.957 384v-85.333c101.845-59.136 170.624-172.672 170.624-298.667-0.202-79.244-27-152.191-71.936-210.426l0.597 0.805-54.827 54.827c25.685 46.592 40.875 104.021 40.875 154.795 0 75.563-33.067 166.4-85.333 213.333v-323.669l-85.333 85.333v366.336c-0.013 23.555-19.11 42.645-42.667 42.645-8.808 0-16.993-2.669-23.79-7.243l0.153 0.097-201.344-134.187-171.52 171.52-60.331-60.331 768-768 60.331 60.331zM512 709.632v-201.301l-120.789 120.789 120.789 80.512zM170.667 234.667h115.072l245.248-163.499c6.664-4.481 14.869-7.152 23.699-7.152 7.364 0 14.294 1.858 20.347 5.131l-0.227-0.112c13.511 7.341 22.528 21.425 22.528 37.615 0 0.006 0 0.012 0 0.018v-0.001 80.171l-85.333 85.333v-85.803l-189.653 126.464c-1.067 0.725-2.389 0.853-3.499 1.408-4.712 2.617-10.245 4.383-16.131 4.937l-0.168 0.013c-1.365 0.128-2.517 0.811-3.883 0.811h-128v256h37.504l-75.819 75.819c-28.015-14.248-46.899-42.814-47.019-75.802v-256.016c0-47.061 38.272-85.333 85.333-85.333z" fill="currentColor" />
  </g>
</svg>
