<?xml version="1.0" encoding="utf-8"?>
<svg xmlns="http://www.w3.org/2000/svg" viewBox="0 0 1024 1024" width="24" height="24">
  <g transform="scale(1, -1) translate(0, -960)">
    <path d="M682.667 448h85.333v-170.667h-85.333zM853.333 661.333v85.333c0 47.061-38.272 85.333-85.333 85.333h-554.667c-70.571 0-128-57.429-128-128v-512c0-93.909 76.544-128 128-128h640c47.061 0 85.333 38.272 85.333 85.333v426.667c0 47.061-38.272 85.333-85.333 85.333zM213.333 746.667h554.667v-85.333h-554.667c-22.752 1.049-40.801 19.75-40.801 42.667s18.049 41.617 40.707 42.663l0.094 0.003zM853.333 149.333h-639.488c-19.712 0.512-43.179 8.32-43.179 42.667v391.893c13.397-4.821 27.605-7.893 42.667-7.893h640v-426.667z" fill="currentColor" />
  </g>
</svg>
