<?xml version="1.0" encoding="utf-8"?>
<svg xmlns="http://www.w3.org/2000/svg" viewBox="0 0 1024 1024" width="24" height="24">
  <g transform="scale(1, -1) translate(0, -960)">
    <path d="M682.667 661.333h-512c-47.061 0-85.333-38.272-85.333-85.333v-426.667c0-47.061 38.272-85.333 85.333-85.333h512c47.061 0 85.333 38.272 85.333 85.333v426.667c0 47.061-38.272 85.333-85.333 85.333zM170.667 149.333v341.333h512v85.333l0.085-426.667h-512.085zM938.667 746.667c0 47.061-38.272 85.333-85.333 85.333h-554.667c-47.061 0-85.333-38.272-85.333-85.333h554.709c46.976 0 85.163-38.187 85.291-85.077l0.085-341.589h-0.085v-85.333c47.061 0 85.333 38.272 85.333 85.333v298.368l0.043 0.299v85.333l-0.043 0.427v42.24z" fill="currentColor" />
  </g>
</svg>
