<?xml version="1.0" encoding="utf-8"?>
<svg xmlns="http://www.w3.org/2000/svg" viewBox="0 0 1024 1024" width="24" height="24">
  <g transform="scale(1, -1) translate(0, -960)">
    <path d="M640 789.333c0-47.128-38.205-85.333-85.333-85.333s-85.333 38.205-85.333 85.333c0 47.128 38.205 85.333 85.333 85.333s85.333-38.205 85.333-85.333zM596.395 436.48c10.453-15.701 26.069-27.605 43.989-33.579l114.133-38.059 27.008 80.896-114.133 38.059-70.955 106.453c-8.308 12.284-19.364 22.111-32.325 28.745l-0.485 0.226-61.184 30.592c-11.056 5.648-24.116 8.957-37.949 8.957-7.405 0-14.589-0.948-21.436-2.731l0.59 0.13-136.235-34.005c-24.574-6.266-44.493-22.554-55.499-44.145l-0.224-0.484-76.544-153.131 76.331-38.187 76.544 153.131 94.848 23.723-76.971-356.096-156.757-107.819 48.341-70.315 156.8 107.861c17.963 12.373 30.421 30.933 34.987 52.267l22.059 101.888 107.392-80.555 39.467-197.333 83.669 16.768-39.467 197.419c-4.369 21.168-16.079 39.061-32.296 51.3l-0.216 0.156-92.629 69.461 27.605 165.76 51.541-77.355z" fill="currentColor" />
  </g>
</svg>
