<?xml version="1.0" encoding="utf-8"?>
<svg xmlns="http://www.w3.org/2000/svg" viewBox="0 0 1024 1024" width="24" height="24">
  <g transform="scale(1, -1) translate(0, -960)">
    <path d="M512 704c150.912 0 291.712-57.728 396.501-162.517l60.331 60.331c-120.875 120.917-283.136 187.52-456.832 187.52-173.696-0.043-335.957-66.603-456.832-187.52l60.331-60.331c104.789 104.789 245.589 162.517 396.501 162.517zM753.963 349.568c-131.157 131.157-352.768 131.157-483.925 0l60.331-60.331c98.432 98.432 264.832 98.432 363.264 0l60.331 60.331zM871.979 478.165c-195.072 195.157-524.843 195.157-719.915 0l60.331-60.331c162.432 162.432 436.821 162.432 599.253 0l60.331 60.331zM597.333 192c0-47.128-38.205-85.333-85.333-85.333s-85.333 38.205-85.333 85.333c0 47.128 38.205 85.333 85.333 85.333s85.333-38.205 85.333-85.333z" fill="currentColor" />
  </g>
</svg>
