<?xml version="1.0" encoding="utf-8"?>
<svg xmlns="http://www.w3.org/2000/svg" viewBox="0 0 1024 1024" width="24" height="24">
  <g transform="scale(1, -1) translate(0, -960)">
    <path d="M928.341 746.667h-88.661l-36.011-128h-208.768l-38.357 128h-89.088l-38.357-128h-208.768l-36.011 128h-88.661l36.011-128h-46.336v-85.333h70.315l24.021-85.333h-94.336v-85.333h118.315l72.021-256h88.875l76.8 256h141.355l76.8-256h88.875l72.021 256h118.272v85.333h-94.336l24.021 85.333h70.315v85.333h-46.336l36.011 128zM244.352 533.333h159.104l-25.6-85.333h-109.525l-23.979 85.333zM321.323 259.541l-28.971 103.125h59.904l-30.933-103.125zM466.944 448l25.6 85.333h38.912l25.6-85.333h-90.112zM702.677 259.541l-30.933 103.125h59.904l-28.971-103.125zM755.669 448h-109.525l-25.6 85.333h159.104l-23.979-85.333z" fill="currentColor" />
  </g>
</svg>
