<?xml version="1.0" encoding="utf-8"?>
<svg xmlns="http://www.w3.org/2000/svg" viewBox="0 0 1024 1024" width="24" height="24">
  <g transform="scale(1, -1) translate(0, -960)">
    <path d="M512 874.667c-235.264 0-426.667-191.403-426.667-426.667s191.403-426.667 426.667-426.667 426.667 191.403 426.667 426.667-191.403 426.667-426.667 426.667zM170.667 448c0 38.357 6.656 75.179 18.389 109.611l152.277-152.277v-85.333l128-128v-82.389c-168.064 21.12-298.667 164.651-298.667 338.389zM782.080 240.085c-27.861 22.443-70.101 37.248-99.413 37.248v42.667c0 47.128-38.205 85.333-85.333 85.333v0h-170.667v128c47.128 0 85.333 38.205 85.333 85.333v0 42.667h42.667c47.128 0 85.333 38.205 85.333 85.333v0 17.536c124.928-50.731 213.333-173.269 213.333-316.203-0.008-78.697-26.825-151.128-71.816-208.661l0.562 0.747z" fill="currentColor" />
  </g>
</svg>
