<?xml version="1.0" encoding="utf-8"?>
<svg xmlns="http://www.w3.org/2000/svg" viewBox="0 0 1024 1024" width="24" height="24">
  <g transform="scale(1, -1) translate(0, -960)">
    <path d="M554.667 725.333c0 82.347-66.987 149.333-149.333 149.333-86.784 0-138.667-65.067-138.667-128h85.333c0 17.707 16.555 42.667 53.333 42.667 35.285 0 64-28.715 64-64s-28.715-64-64-64h-320v-85.333h320c82.347 0 149.333 66.987 149.333 149.333zM661.333 320h-320v-85.333h320c35.285 0 64-28.715 64-64s-28.715-64-64-64c-36.779 0-53.333 24.96-53.333 42.667h-85.333c0-62.933 51.883-128 138.667-128 82.347 0 149.333 66.987 149.333 149.333s-66.987 149.333-149.333 149.333zM768 746.667c-94.123 0-170.667-76.544-170.667-170.667h85.333c0 47.061 38.272 85.333 85.333 85.333s85.333-38.272 85.333-85.333-38.272-85.333-85.333-85.333h-682.667v-85.333h682.667c94.123 0 170.667 76.544 170.667 170.667s-76.544 170.667-170.667 170.667zM85.333 320h170.667v-85.333h-170.667z" fill="currentColor" />
  </g>
</svg>
