<?xml version="1.0" encoding="utf-8"?>
<svg xmlns="http://www.w3.org/2000/svg" viewBox="0 0 1024 1024" width="24" height="24">
  <g transform="scale(1, -1) translate(0, -960)">
    <path d="M512 874.667c-235.264 0-426.667-191.403-426.667-426.667s191.403-426.667 426.667-426.667 426.667 191.403 426.667 426.667-191.403 426.667-426.667 426.667zM512 106.667c-188.203 0-341.333 153.131-341.333 341.333s153.131 341.333 341.333 341.333 341.333-153.131 341.333-341.333-153.131-341.333-341.333-341.333zM632.661 327.339c-22.863-22.922-52.219-39.357-85.075-46.31l-1.112-0.197c-10.365-2.177-22.274-3.424-34.475-3.424s-24.11 1.247-35.608 3.619l1.134-0.196c-12.222 2.57-22.91 5.982-33.1 10.332l1.143-0.434c-11.142 4.803-20.659 10.056-29.597 16.101l0.626-0.399c-18.267 12.564-33.602 27.898-45.781 45.575l-0.385 0.591-70.741-47.659c9.173-13.611 19.712-26.411 31.275-37.931 46.288-46.442 110.316-75.177 181.056-75.177 70.697 0 134.691 28.701 180.966 75.087l0.005 0.005c11.605 11.563 22.187 24.363 31.317 38.016l-70.741 47.659c-6.101-9.003-13.099-17.493-20.907-25.259zM426.667 512c0-35.346-28.654-64-64-64s-64 28.654-64 64c0 35.346 28.654 64 64 64s64-28.654 64-64zM661.333 533.333c-85.333 0-106.667-85.333-106.667-85.333h213.333s-21.376 85.333-106.667 85.333z" fill="currentColor" />
  </g>
</svg>
