<?xml version="1.0" encoding="utf-8"?>
<svg xmlns="http://www.w3.org/2000/svg" viewBox="0 0 1024 1024" width="24" height="24">
  <g transform="scale(1, -1) translate(0, -960)">
    <path d="M853.333 832h-640c-70.571 0-128-57.429-128-128v-512c0-70.571 57.429-128 128-128h640c47.061 0 85.333 38.272 85.333 85.333v597.333c0 47.061-38.272 85.333-85.333 85.333zM213.333 149.333c-23.552 0-42.667 19.157-42.667 42.667v512c0 23.509 19.115 42.667 42.667 42.667h640v-128h-256c-47.061 0-85.333-38.272-85.333-85.333v-170.667c0-47.061 38.272-85.333 85.333-85.333h256.043v-128h-640.043zM853.333 533.333v-170.667h-256v170.667h256z" fill="currentColor" />
  </g>
</svg>
