<?xml version="1.0" encoding="utf-8"?>
<svg xmlns="http://www.w3.org/2000/svg" viewBox="0 0 1024 1024" width="24" height="24">
  <g transform="scale(1, -1) translate(0, -960)">
    <path d="M255.829 576c60.288 0 92.16 31.872 115.413 55.168 20.907 20.907 31.189 30.165 55.125 30.165s34.219-9.259 55.125-30.165c23.253-23.296 55.125-55.168 115.456-55.168 60.373 0 92.288 31.872 115.627 55.168 20.949 20.907 31.232 30.165 55.253 30.165s34.304-9.259 55.253-30.165c23.296-23.296 55.211-55.168 115.584-55.168v85.333c-24.021 0-34.304 9.259-55.253 30.165-23.296 23.296-55.211 55.168-115.584 55.168s-92.245-31.872-115.584-55.125c-20.949-20.949-31.189-30.208-55.296-30.208-23.979 0-34.219 9.259-55.125 30.165-23.253 23.296-55.125 55.168-115.456 55.168s-92.203-31.872-115.456-55.168c-20.907-20.907-31.147-30.165-55.083-30.165s-34.176 9.259-55.083 30.165c-23.253 23.296-55.125 55.168-115.413 55.168v-85.333c23.936 0 34.176-9.259 55.083-30.165 23.253-23.296 55.125-55.168 115.413-55.168zM255.829 362.667c60.288 0 92.16 31.872 115.413 55.168 20.907 20.907 31.189 30.165 55.125 30.165s34.219-9.259 55.125-30.165c23.253-23.296 55.125-55.168 115.456-55.168 60.373 0 92.288 31.872 115.627 55.168 20.949 20.907 31.232 30.165 55.253 30.165s34.304-9.259 55.253-30.165c23.296-23.296 55.211-55.168 115.584-55.168v85.333c-24.021 0-34.304 9.259-55.253 30.165-23.296 23.296-55.211 55.168-115.584 55.168s-92.245-31.872-115.584-55.125c-20.949-20.949-31.189-30.208-55.296-30.208-23.979 0-34.219 9.259-55.125 30.165-23.253 23.296-55.125 55.168-115.456 55.168s-92.203-31.872-115.456-55.168c-20.907-20.907-31.147-30.165-55.083-30.165s-34.176 9.259-55.083 30.165c-23.253 23.296-55.125 55.168-115.413 55.168v-85.333c23.936 0 34.176-9.259 55.083-30.165 23.253-23.296 55.125-55.168 115.413-55.168zM255.829 149.333c60.288 0 92.16 31.872 115.413 55.168 20.907 20.907 31.189 30.165 55.125 30.165s34.219-9.259 55.125-30.165c23.253-23.296 55.125-55.168 115.456-55.168 60.373 0 92.288 31.872 115.627 55.168 20.949 20.907 31.232 30.165 55.253 30.165s34.304-9.259 55.253-30.165c23.296-23.296 55.211-55.168 115.584-55.168v85.333c-24.021 0-34.304 9.259-55.253 30.165-23.296 23.296-55.211 55.168-115.584 55.168s-92.245-31.872-115.584-55.125c-20.949-20.949-31.189-30.208-55.296-30.208-23.979 0-34.219 9.259-55.125 30.165-23.253 23.296-55.125 55.168-115.456 55.168s-92.203-31.872-115.456-55.168c-20.907-20.907-31.147-30.165-55.083-30.165s-34.176 9.259-55.083 30.165c-23.253 23.296-55.125 55.168-115.413 55.168v-85.333c23.936 0 34.176-9.259 55.083-30.165 23.253-23.296 55.125-55.168 115.413-55.168z" fill="currentColor" />
  </g>
</svg>
