<?xml version="1.0" encoding="utf-8"?>
<svg xmlns="http://www.w3.org/2000/svg" viewBox="0 0 1024 1024" width="24" height="24">
  <g transform="scale(1, -1) translate(0, -960)">
    <path d="M55.168 601.813l60.331-60.331c21.504 21.504 44.885 40.533 69.205 57.984l-60.971 60.971c-23.893-18.005-47.104-37.12-68.565-58.624zM276.224 744.107l-118.059 118.059-60.331-60.331 768-768 60.331 60.331-213.845 213.845 41.643 41.6c-46.332 45.983-106.049 78.54-172.792 91.314l-2.099 0.334-97.195 97.195c118.997 8.149 241.024-31.915 329.771-120.619l60.331 60.331c-123.648 123.691-301.269 167.936-464.555 134.741l-65.067 65.067c50.705 16.44 109.050 25.953 169.606 26.027h0.037c150.912 0 291.712-57.728 396.501-162.517l60.331 60.331c-120.875 120.917-283.136 187.52-456.832 187.52-84.948-0.292-165.941-16.873-240.132-46.778l4.356 1.551zM152.021 478.165l60.331-60.331c25.492 25.274 54.337 47.228 85.793 65.121l2.015 1.055-62.251 62.251c-30.592-19.243-59.52-41.771-85.888-68.096zM270.037 349.568l60.331-60.331c29.525 29.525 65.493 49.109 103.637 60.928l-66.432 66.432c-37.759-17.208-70.043-39.728-97.555-67.048l0.019 0.019zM596.864 187.307l-89.6 89.6c-45.031-2.489-80.603-39.61-80.603-85.041 0-47.034 38.129-85.163 85.163-85.163 45.43 0 82.552 35.573 85.031 80.383l0.010 0.22z" fill="currentColor" />
  </g>
</svg>
