<?xml version="1.0" encoding="utf-8"?>
<svg xmlns="http://www.w3.org/2000/svg" viewBox="0 0 1024 1024" width="24" height="24">
  <g transform="scale(1, -1) translate(0, -960)">
    <path d="M841.088 442.752c11.264 40.619 13.312 86.613 6.101 136.789l-36.949 258.517c-3.070 20.814-20.808 36.608-42.234 36.608-0.002 0-0.004 0-0.006 0h-512c-0.002 0-0.004 0-0.006 0-21.427 0-39.165-15.794-42.206-36.375l-0.028-0.233-36.907-258.475c-7.211-50.219-5.163-96.213 6.059-136.789 36.864-133.717 151.509-230.059 286.421-247.211v-88.917h-85.333v-85.333h256v85.333h-85.333v88.917c134.912 17.152 249.557 113.493 286.421 247.168zM731.008 789.333l24.32-170.667h-486.699l24.363 170.667h438.016zM265.173 465.493c-5.632 20.224-7.723 43.051-6.784 67.84h507.264c0.896-24.789-1.195-47.616-6.784-67.883-31.053-109.16-129.734-187.812-246.834-188.117h-0.035c-117.138 0.3-215.818 78.98-246.386 186.349l-0.441 1.811z" fill="currentColor" />
  </g>
</svg>
