<?xml version="1.0" encoding="utf-8"?>
<svg xmlns="http://www.w3.org/2000/svg" viewBox="0 0 1024 1024" width="24" height="24">
  <g transform="scale(1, -1) translate(0, -960)">
    <path d="M661.333 576c-85.333 0-106.667-85.333-106.667-85.333h213.333s-21.376 85.333-106.667 85.333zM512 874.667c-235.264 0-426.667-191.403-426.667-426.667s191.403-426.667 426.667-426.667 426.667 191.403 426.667 426.667-191.403 426.667-426.667 426.667zM426.667 192v128h170.667v-128c0-47.061-38.272-85.333-85.333-85.333s-85.333 38.272-85.333 85.333zM676.523 149.12c3.627 13.781 6.144 27.989 6.144 42.88v63.957c67.797 62.848 85.333 149.376 85.333 149.376h-512s17.579-86.528 85.333-149.376v-63.957c0-14.891 2.517-29.099 6.144-42.88-106.099 59.255-176.69 170.81-176.811 298.863v0.017c0 188.203 153.131 341.333 341.333 341.333s341.333-153.131 341.333-341.333c-0.121-128.070-70.711-239.625-175.082-297.992l-1.729-0.888zM426.667 554.667c0-35.346-28.654-64-64-64s-64 28.654-64 64c0 35.346 28.654 64 64 64s64-28.654 64-64z" fill="currentColor" />
  </g>
</svg>
