<?xml version="1.0" encoding="utf-8"?>
<svg xmlns="http://www.w3.org/2000/svg" viewBox="0 0 1024 1024" width="24" height="24">
  <g transform="scale(1, -1) translate(0, -960)">
    <path d="M469.333 704h-85.333v-128h-128v-85.333h128v-128h85.333v128h128v85.333h-128zM426.667 874.667c-188.203 0-341.333-153.131-341.333-341.333s153.131-341.333 341.333-341.333c79.148 0.017 151.959 27.132 209.664 72.572l-0.725-0.55 187.563-187.563 60.331 60.331-187.563 187.563c44.913 56.987 72.044 129.814 72.064 208.977v0.005c0 188.203-153.131 341.333-341.333 341.333zM426.667 277.333c-141.184 0-256 114.816-256 256s114.816 256 256 256 256-114.816 256-256-114.816-256-256-256z" fill="currentColor" />
  </g>
</svg>
