<?xml version="1.0" encoding="utf-8"?>
<svg xmlns="http://www.w3.org/2000/svg" viewBox="0 0 1024 1024" width="24" height="24">
  <g transform="scale(1, -1) translate(0, -960)">
    <path d="M458.24 410.027v4.693c2.56 6.4 5.12 12.373 8.107 18.347 13.324 27.512 21.112 59.837 21.112 93.98 0 23.419-3.664 45.983-10.449 67.149l0.431-1.556c-1.828 15.539-13.136 27.999-27.91 31.523l-0.25 0.050c-2.766 0.205-5.991 0.321-9.244 0.321-29.957 0-57.602-9.895-79.846-26.595l0.343 0.247v-7.68c1.025-11.812 1.61-25.557 1.61-39.439 0-22.351-1.515-44.347-4.449-65.893l0.279 2.506c-0.791-4.751-1.243-10.225-1.243-15.805 0-26.955 10.547-51.446 27.738-69.573l-0.042 0.045c15.343-16.294 36.949-26.542 60.952-26.879l0.062-0.001c4.4 14.159 8.745 25.614 13.665 36.757l-0.865-2.197zM426.667 593.92c-2.311 2.608-3.751 6.035-3.84 9.795v0.018c0.546 2.203 1.938 4.013 3.801 5.099l0.039 0.021c4.222 2.237 9.23 3.55 14.545 3.55 2.099 0 4.151-0.205 6.136-0.596l-0.2 0.033c10.667 0 21.333-6.827 20.48-14.507-3.192-8.302-11.102-14.087-20.362-14.087-0.191 0-0.382 0.002-0.573 0.007l0.028-0.001h-2.56c-7.221 1.169-13.363 5.073-17.442 10.593l-0.052 0.073zM336.213 490.667c2.363 18.913 3.711 40.802 3.711 63.005 0 12.36-0.418 24.622-1.24 36.773l0.089-1.645v11.947c-0.054 2.122-0.085 4.622-0.085 7.128 0 71.048 24.808 136.302 66.235 187.572l-0.443-0.566c-42.667 13.653-145.067 42.667-207.787-4.267-38.4-27.307-56.32-78.507-52.48-151.467 9.596-70.841 24.52-134.261 44.829-195.219l-2.162 7.486c29.013-94.72 61.867-154.453 90.027-164.267 4.267 0 17.493-5.547 36.693 17.493 27.307 32.427 52.48 60.16 64 72.533l-8.107 8.107c-21.547 22.177-34.832 52.481-34.832 85.888 0 6.885 0.564 13.638 1.649 20.215l-0.097-0.716zM485.547 345.6c-6.827 2.56-10.24 4.267-17.92-4.693-4.455-4.483-8.523-9.363-12.14-14.578l-0.233-0.355c-14.933-18.347-21.333-24.747-64.427-33.707-6.45-1.087-12.185-2.718-17.642-4.896l0.576 0.203c4.486-3.179 9.784-5.551 15.507-6.776l0.28-0.050c9.011-3.151 19.399-4.971 30.211-4.971 31.348 0 59.123 15.297 76.268 38.834l0.187 0.27c1.056 2.186 1.674 4.754 1.674 7.467s-0.617 5.28-1.719 7.572l0.045-0.105c-1.418 6.62-5.281 12.156-10.577 15.73l-0.089 0.057zM753.92 593.92c1.863 9.941 3.092 21.56 3.407 33.407l0.006 0.3c-28.16 3.413-60.587 2.987-73.387-15.36-24.747-35.413 23.893-122.88 42.667-160 3.637-5.687 7.336-12.401 10.615-19.351l0.479-1.129c1.903-5.094 4.057-9.454 6.589-13.556l-0.189 0.329c6.661 16.862 10.522 36.394 10.522 56.829 0 12.066-1.346 23.818-3.897 35.113l0.202-1.061c-1.902 13.117-2.989 28.263-2.989 43.662 0 0.4 0.001 0.8 0.002 1.2v-0.062c1.066 14.702 3.186 28.259 6.323 41.421l-0.35-1.741zM730.027 600.747c-3.588-3.657-8.26-6.239-13.494-7.228l-0.159-0.025h-2.56c-0.023 0-0.050 0-0.078 0-8.466 0-15.706 5.246-18.648 12.665l-0.047 0.136c0 5.973 8.533 10.24 18.773 11.947s20.48 0 21.333-6.4c-0.209-4.39-2.132-8.293-5.111-11.085l-0.009-0.008zM725.333 751.787c27.191-30.141 47.484-67.043 58.058-107.857l0.395-1.796c0.108-0.96 0.169-2.073 0.169-3.2s-0.062-2.24-0.182-3.335l0.012 0.135c0.007-0.665 0.010-1.45 0.010-2.237 0-15.196-1.401-30.064-4.081-44.483l0.231 1.494c-1.868-10.575-3.241-23.205-3.817-36.042l-0.023-0.651c-0.003-0.504-0.005-1.1-0.005-1.696 0-14.456 1.088-28.658 3.186-42.529l-0.194 1.559c2.537-11.027 3.991-23.69 3.991-36.692 0-28.852-7.159-56.032-19.799-79.86l0.448 0.925 2.987-3.413c94.72 148.907 128 321.707 97.707 359.68-37.608 46.99-94.958 76.826-159.277 76.826-1.154 0-2.306-0.010-3.456-0.029l0.173 0.002c-1.3 0.019-2.834 0.030-4.37 0.030-23.084 0-45.585-2.498-67.247-7.237l2.071 0.38c36.857-16.799 67.9-40.463 92.705-69.601l0.309-0.372zM923.733 362.667c-2.987 8.533-15.787 36.267-62.72 26.453-12.439-2.784-27.072-4.766-42.028-5.521l-0.639-0.026c36.083 59.896 66.104 129.085 86.486 202.29l1.408 5.923c15.787 61.867 28.16 144.64-4.693 186.88-46.59 58.724-117.949 96.051-198.027 96.051-1.781 0-3.559-0.018-5.331-0.055l0.265 0.004c-0.686 0.005-1.497 0.007-2.309 0.007-36.599 0-71.924-5.46-105.203-15.61l2.551 0.669c-18.352 3.396-39.702 5.551-61.478 5.967l-0.389 0.006c-1.252 0.028-2.728 0.043-4.208 0.043-37.035 0-71.775-9.831-101.751-27.025l0.999 0.528c-20.91 7.223-46.317 13.739-72.39 18.318l-3.13 0.455c-17.212 4.57-36.971 7.195-57.344 7.195-45.636 0-88.195-13.17-124.085-35.917l0.949 0.562c-52.907-37.12-77.227-101.973-72.96-192.853 9.177-74.877 24.143-142.318 44.855-207.192l-2.188 7.939c13.59-45.422 29.684-84.45 49.125-121.446l-1.765 3.686c14.212-34.907 40.601-62.403 73.77-77.709l0.897-0.371c6.747-2.274 14.517-3.586 22.593-3.586 19.134 0 36.548 7.366 49.561 19.417l-0.048-0.044c11.153-12.107 25.676-20.951 42.079-25.049l0.588-0.124c12.402-3.552 26.646-5.595 41.367-5.595 21.237 0 41.482 4.251 59.929 11.949l-1.029-0.381v-34.56c-0.013-1.131-0.020-2.466-0.020-3.804 0-34.489 4.837-67.848 13.87-99.436l-0.623 2.547c0.057-0.829 0.090-1.798 0.090-2.773s-0.033-1.944-0.097-2.903l0.007 0.13c6.048-20.664 16.506-38.435 30.343-52.959l-0.049 0.052c15.822-14.832 37.163-23.942 60.633-23.942 1.034 0 2.064 0.018 3.090 0.053l-0.149-0.004c0.148-0.001 0.324-0.001 0.5-0.001 10.418 0 20.545 1.245 30.241 3.593l-0.875-0.179c38.671 4.84 71.905 24.88 94.046 53.85l0.247 0.337c24.78 43.817 39.381 96.222 39.381 152.038 0 6.554-0.201 13.061-0.598 19.515l0.044-0.886v11.093h7.253c4.622-0.34 10.013-0.534 15.449-0.534 31.4 0 61.288 6.473 88.403 18.158l-1.452-0.557c19.2 9.813 81.493 42.667 66.56 85.333zM846.507 299.947c-22.17-9.183-47.915-14.516-74.907-14.516-0.666 0-1.33 0.003-1.995 0.010l0.101-0.001c-0.887-0.025-1.931-0.040-2.978-0.040-10.945 0-21.522 1.573-31.519 4.505l0.79-0.199c-4.267-40.107-13.653-114.773-19.2-145.92-3.493-52.006-44.231-93.481-95.594-98.104l-0.406-0.030c-8.453-1.872-18.172-2.958-28.139-2.987h-0.021c-38.735 0.932-71.007 27.536-80.506 63.405l-0.134 0.595c-8.232 40.733-12.943 87.556-12.943 135.479 0 13.278 0.362 26.471 1.076 39.57l-0.079-1.823c-19.293-17.489-45.016-28.194-73.24-28.194-0.952 0-1.901 0.012-2.846 0.036l0.14-0.003c-14.36 0.247-28.141 2.256-41.284 5.819l1.177-0.272c-3.84 0-37.12 9.813-36.693 31.147s28.16 25.173 38.4 27.307c36.693 7.68 39.253 10.667 50.773 25.173 2.724 3.84 5.385 7.178 8.213 10.362l-0.106-0.122c-17.439 0.673-33.649 5.332-47.935 13.086l0.575-0.286c-9.813-10.667-36.693-39.68-65.707-74.24-10.512-15.476-27.626-25.789-47.202-26.873l-0.158-0.007c-2.244-0.34-4.832-0.534-7.467-0.534s-5.223 0.194-7.753 0.569l0.286-0.035c-37.547 14.507-72.96 76.373-105.387 185.173-18.42 55.207-33.369 120.569-42.095 187.883l-0.571 5.397c-4.267 81.92 17.067 139.947 62.72 170.667 81.92 58.027 213.333 13.227 243.2 2.56 26.51 17.78 59.136 28.376 94.237 28.376 3.021 0 6.025-0.079 9.007-0.234l-0.417 0.017c21.24-0.023 41.816-2.824 61.397-8.058l-1.663 0.378c30.783 10.829 66.278 17.085 103.233 17.085 1.207 0 2.413-0.007 3.617-0.020l-0.183 0.002c1.869 0.055 4.068 0.086 6.274 0.086 71.803 0 135.862-33.152 177.706-84.985l0.34-0.435c29.44-37.547 9.813-128 0-165.973-23.844-87.705-59.049-164.522-104.698-233.852l1.871 3.026c6.827-4.693 27.733-13.227 85.333 0 19.627 4.267 31.147 0 34.987-10.667 9.387-23.467-29.867-48.213-51.627-58.453zM743.68 380.16c-10.444 12.27-19.315 26.338-26.024 41.573l-0.43 1.094c0 2.987-5.12 10.24-9.813 18.347-24.747 42.667-76.373 137.387-42.667 185.173 16.85 17.887 40.693 29.025 67.137 29.025 8.288 0 16.32-1.094 23.961-3.145l-0.645 0.147c-11.724 31.847-28.062 59.306-48.514 83.131l0.3-0.358c-42.037 51.496-105.191 84.38-176.054 85.332l-0.16 0.002c-2.681 0.18-5.811 0.282-8.965 0.282-38.891 0-74.143-15.579-99.856-40.836l0.021 0.021c-35.005-41.038-56.946-94.157-58.869-152.342l-0.011-0.404 6.4 3.413c16.54 9.103 35.885 15.45 56.435 17.85l0.738 0.070c4.194 1.014 9.009 1.596 13.96 1.596 30.815 0 56.369-22.53 61.087-52.016l0.047-0.353c6.706-21.274 10.569-45.739 10.569-71.107 0-37.537-8.459-73.097-23.576-104.88l0.633 1.48c-2.404-4.518-4.849-10.007-6.939-15.668l-0.314-0.972v-4.693c-4.267-11.52-8.107-22.187-10.667-31.147 2.257 0.451 4.851 0.708 7.505 0.708 6.101 0 11.883-1.362 17.060-3.799l-0.245 0.104c12.89-6.235 22.505-17.524 26.369-31.225l0.084-0.349v-6.827c0.099-0.577 0.155-1.242 0.155-1.92s-0.056-1.343-0.165-1.99l0.010 0.070c-1.304-18.625-2.047-40.361-2.047-62.27 0-51.821 4.158-102.672 12.158-152.236l-0.724 5.439c6.366-29.165 31.97-50.681 62.599-50.681 8.172 0 15.986 1.532 23.171 4.323l-0.436-0.149c41.988 2.918 75.109 37.076 76.37 79.238l0.003 0.122c6.4 37.547 19.2 142.933 20.907 165.547 0 45.227 22.187 54.187 35.84 58.027zM768 348.587l-3.413 2.56h-5.12c-11.093-2.987-21.333-5.973-20.053-34.133 8.855-3.615 19.129-5.713 29.893-5.713 3.449 0 6.848 0.215 10.184 0.634l-0.398-0.041c21.407 0.926 41.513 5.385 60.115 12.808l-1.235-0.435c12.943 5.917 24.065 13.351 33.802 22.273l-0.096-0.086c-14.592-5.284-31.433-8.339-48.987-8.339-19.696 0-38.494 3.846-55.684 10.828l0.991-0.356z" fill="currentColor" />
  </g>
</svg>
