<?xml version="1.0" encoding="utf-8"?>
<svg xmlns="http://www.w3.org/2000/svg" viewBox="0 0 1024 1024" width="24" height="24">
  <g transform="scale(1, -1) translate(0, -960)">
    <path d="M632.32 778.24c-7.317-12.734-14.897-28.165-21.554-44.077l-1.060-2.856c-29.37 4.886-63.212 7.678-97.707 7.678s-68.337-2.792-101.314-8.163l3.607 0.485c-7.716 18.768-15.296 34.199-23.733 49.080l1.12-2.146c-66.126-11.508-125.265-30.792-180.31-57.24l4.097 1.774c-82.384-117.572-131.649-263.601-131.649-421.135 0-25.84 1.325-51.37 3.912-76.526l-0.263 3.155c61.745-46.844 133.624-84.505 211.303-109.134l5.017-1.373c16.474 21.538 32.174 45.824 45.92 71.318l1.44 2.922c-28.067 10.454-52.117 22.377-74.708 36.426l1.748-1.013c6.707 4.492 12.557 9.123 18.017 14.169l-0.097-0.089c63.107-31.097 137.376-49.286 215.893-49.286s152.787 18.19 218.824 50.585l-2.93-1.299q8.96-7.68 17.92-14.080c-20.71-12.8-44.731-24.84-69.826-34.749l-3.134-1.091c14.603-29.14 29.919-54.013 47.112-77.42l-1.032 1.473c82.554 25.902 154.304 63.573 217.614 111.763l-1.721-1.256c2.42 22.381 3.8 48.342 3.8 74.625 0 157.142-49.333 302.762-133.357 422.216l1.557-2.335c-50.374 25.16-108.835 45.121-170.201 56.911l-4.306 0.689zM370.347 328.107c-43.092 3.187-76.846 38.932-76.846 82.561 0 0.975 0.017 1.946 0.050 2.913l-0.004-0.14c-0.039 0.945-0.061 2.055-0.061 3.17 0 43.549 33.805 79.202 76.605 82.15l0.256 0.014c43.056-2.962 76.861-38.615 76.861-82.164 0-1.115-0.022-2.224-0.066-3.328l0.005 0.159c0.039-0.945 0.061-2.055 0.061-3.17 0-43.549-33.805-79.202-76.605-82.15l-0.256-0.014zM653.653 328.107c-43.092 3.187-76.846 38.932-76.846 82.561 0 0.975 0.017 1.946 0.050 2.913l-0.004-0.14c-0.039 0.945-0.061 2.055-0.061 3.17 0 43.549 33.805 79.202 76.605 82.15l0.256 0.014c43.021-2.734 76.878-38.295 76.878-81.765 0-1.255-0.028-2.504-0.084-3.745l0.006 0.176c0.050-1.065 0.078-2.314 0.078-3.569 0-43.469-33.857-79.031-76.639-81.753l-0.238-0.012z" fill="currentColor" />
  </g>
</svg>
