<?xml version="1.0" encoding="utf-8"?>
<svg xmlns="http://www.w3.org/2000/svg" viewBox="0 0 1024 1024" width="24" height="24">
  <g transform="scale(1, -1) translate(0, -960)">
    <path d="M458.325 872.96c-59.904-7.808-130.56-34.475-182.656-69.376-43.093-28.331-102.272-86.187-98.517-96.043 8.235-21.376 139.947-241.408 142.080-237.312 1.621 2.859 4.053 11.904 5.248 20.907 10.667 59.093 60.8 115.371 123.605 138.795 24.235 9.429 29.141 9.429 234.453 11.52l209.792 2.005-16.853 27.563c-59.093 96.427-150.272 162.944-264.405 192.512-31.189 8.235-119.893 13.568-152.747 9.387zM136.533 652.075c-19.328-34.091-41.941-103.040-47.232-143.275-25.088-182.315 66.901-358.4 229.504-440.107 38.144-19.285 92.757-37.76 116.565-39.808l15.189-1.237 71.424 121.088c39.040 66.517 70.613 121.557 69.803 122.368-0.853 0.811-9.856-1.664-20.523-5.333-66.944-22.613-144.512-3.669-194.987 47.616-18.091 18.091-42.752 57.899-121.173 193.792-54.144 93.995-99.712 171.179-101.376 171.179-1.195 0-9.003-11.904-17.195-26.283zM646.4 584.363c52.139-52.992 70.613-128.128 47.616-195.84-3.669-11.093-51.712-96.896-106.709-191.36-55.040-93.995-100.224-171.989-100.224-173.227 0-4.907 56.661-2.432 92.8 3.712 184.32 31.573 323.115 170.752 352.64 353.109 11.093 66.475 6.997 124.8-13.099 192.128l-10.667 35.712h-286.165l23.765-24.235zM452.608 594.645c-43.093-18.091-72.661-48.512-88.661-91.605-7.381-19.328-8.619-30.421-7.381-60.757 1.28-32 2.901-41.088 14.805-64.469 15.616-32 41.045-56.704 74.709-72.661 19.712-9.429 27.904-10.667 65.707-10.667 38.187 0 45.952 1.237 66.517 11.093 30.379 13.909 62.379 45.952 76.373 76.373 9.813 20.48 11.051 28.288 11.051 66.475 0 37.803-1.237 45.995-10.667 65.707-16 33.621-40.619 59.136-72.661 74.667-24.235 11.947-31.659 13.568-66.56 14.848-33.621 0.811-42.24-0.427-63.147-9.045z" fill="currentColor" />
  </g>
</svg>
