<?xml version="1.0" encoding="utf-8"?>
<svg xmlns="http://www.w3.org/2000/svg" viewBox="0 0 1024 1024" width="24" height="24">
  <g transform="scale(1, -1) translate(0, -960)">
    <path d="M921.301 652.672c-10.138 36.753-38.458 65.129-74.426 75.17l-0.752 0.179c-66.816 18.347-334.123 18.645-334.123 18.645s-267.264 0.299-334.123-17.237c-36.669-10.677-64.916-39.093-75.162-75.091l-0.187-0.77c-17.621-66.816-17.792-205.397-17.792-205.397s-0.171-139.264 17.323-205.397c9.813-36.565 38.613-65.451 75.221-75.307 67.499-18.347 334.080-18.645 334.080-18.645s267.307-0.299 334.123 17.195c36.741 10.204 65.106 38.513 75.211 74.466l0.181 0.756c17.664 66.773 17.792 205.312 17.792 205.312s0.853 139.307-17.365 206.123zM426.496 319.787l0.213 256 222.165-128.213-222.379-127.787z" fill="currentColor" />
  </g>
</svg>
