<?xml version="1.0" encoding="utf-8"?>
<svg xmlns="http://www.w3.org/2000/svg" viewBox="0 0 1024 1024" width="24" height="24">
  <g transform="scale(1, -1) translate(0, -960)">
    <path d="M835.413 474.667c0.341 4.992 0.768 9.856 0.768 14.933 0 138.368-113.835 250.496-254.251 250.496-0.229 0.001-0.5 0.001-0.772 0.001-99.926 0-186.405-57.579-228.066-141.369l-0.666-1.48c-19.464 15.117-44.243 24.235-71.152 24.235-0.096 0-0.191 0-0.287 0h0.015c-64.896 0-117.419-51.627-117.419-115.371 0-12.075 1.835-23.637 5.333-34.475-50.74-29.657-84.322-83.806-84.48-145.812v-0.023c0-92.715 75.648-168.021 169.6-169.472h507.648c3.157 0 6.4-0.512 9.685-0.512 92.928 0 168.235 74.197 168.235 166.101-0.44 68.798-42.725 127.611-102.663 152.302l-1.103 0.402h-0.427v0.043zM313.813 284.075c-16.173 14.326-27.597 33.687-31.815 55.611l-0.1 0.623c-1.425 6.972-2.248 14.991-2.261 23.2v0.010c0 31.573 11.52 57.472 34.517 77.952 22.912 20.48 52.096 30.805 87.424 30.805 36.437 0 70.571-13.653 100.821-40.832 7.509-6.741 15.019-14.421 21.931-22.869l38.912-45.696c6.741-9.259 13.824-17.024 21.333-23.893 20.096-18.005 41.685-26.965 60.075-26.965 15.573 0 28.587 4.779 38.912 14.336 8.917 8.107 14.336 19.2 15.488 31.147l0.341 5.248c0.002 0.137 0.002 0.299 0.002 0.461 0 5.133-0.86 10.065-2.444 14.66l0.095-0.316c-7.828 21.054-27.752 35.781-51.115 35.781-0.6 0-1.198-0.010-1.793-0.029l0.087 0.002c-19.328 0-38.485-6.528-59.563-26.923l-34.432 40.533-3.755 4.608c30.421 29.483 60.331 40.533 100.992 40.533 35.755 0 65.067-10.112 86.912-30.379l0.597-0.597c22.997-20.224 34.176-46.464 34.176-78.592 0.003-0.317 0.005-0.692 0.005-1.067 0-7.594-0.763-15.009-2.216-22.174l0.121 0.712c-4.54-22.186-15.782-41.229-31.486-55.431l-0.088-0.078c-16.348-15.009-37.197-25.357-60.3-28.808l-0.628-0.077c-7.483-1.032-16.129-1.621-24.914-1.621-0.061 0-0.123 0-0.184 0h0.010c-36.821 0-71.509 13.355-100.907 40.021-8.249 7.541-15.751 15.571-22.588 24.154l-0.324 0.422-38.997 45.44c-6.322 8.983-13.168 16.845-20.739 23.944l-0.083 0.077c-19.755 18.133-41.685 26.709-60.928 26.709-5.504 0-11.093-0.768-16.597-2.176-8.722-2.283-16.246-6.57-22.337-12.352l0.022 0.021c-9.899-9.216-15.573-22.187-15.573-35.797 0-13.824 4.821-25.6 15.019-35.2l0.597-0.555c10.667-9.685 24.021-14.421 39.509-14.421 19.755 0 38.997 6.912 59.733 27.264l34.176-40.021 3.755-4.224c-30.933-29.995-60.928-41.173-99.925-41.173-35.755 0-65.067 10.155-87.509 30.421l-1.963-2.432z" fill="currentColor" />
  </g>
</svg>
