<?xml version="1.0" encoding="utf-8"?>
<svg xmlns="http://www.w3.org/2000/svg" viewBox="0 0 1024 1024" width="24" height="24">
  <g transform="scale(1, -1) translate(0, -960)">
    <path d="M864.427 627.2c-34.152 59.572-95.774 100.019-167.135 104.082l-0.545 0.025c-42.271-1.922-80.149-19.293-108.424-46.555l0.051 0.049c-23.974-21.764-45.295-45.658-63.932-71.61l-0.922-1.35c-20.945 27.352-43.775 51.4-68.896 72.844l-0.651 0.542c-32.681 28.588-75.739 46.038-122.871 46.080h-0.009c-75.144-5.503-138.974-49.167-172.668-111.51l-0.559-1.13c-45.426-72.838-72.408-161.255-72.533-255.965v-0.035c-0.007-0.781-0.012-1.705-0.012-2.629 0-23.883 2.803-47.112 8.099-69.375l-0.407 2.030c4.677-21.911 12.5-41.323 23.089-58.877l-0.476 0.851c24.318-41.284 68.547-68.552 119.144-68.552 3.116 0 6.207 0.103 9.272 0.307l-0.416-0.022c53.333 0 93.44 23.893 140.8 85.333 32.757 44.333 64.067 94.61 91.337 147.316l2.956 6.284 26.88 47.787c2.56 3.84 4.693 7.68 6.827 11.52l6.4-10.667 76.373-128c25.905-44.797 54.861-83.534 87.769-118.511l-0.302 0.324c26.152-26.434 62.432-42.803 102.535-42.803 2.203 0 4.395 0.049 6.575 0.147l-0.31-0.011c1.478-0.061 3.213-0.096 4.956-0.096 42.334 0 79.868 20.551 103.169 52.222l0.249 0.354c2.643 3.462 5.187 7.368 7.435 11.46l0.245 0.487c4.692 7.616 9.134 16.464 12.812 25.699l0.415 1.181 5.12 14.933c5.19 13.756 9.634 30.107 12.561 46.978l0.239 1.662c0.378 6.375 0.593 13.829 0.593 21.333s-0.215 14.959-0.64 22.357l0.047-1.024c0.057 2.737 0.089 5.963 0.089 9.197 0 94.764-27.708 183.057-75.463 257.218l1.135-1.882zM432.64 475.307c-27.307-42.667-66.987-107.093-101.12-154.027-42.667-58.453-64.427-64.427-88.32-64.427-0.307-0.006-0.669-0.010-1.031-0.010-20.528 0-38.431 11.238-47.893 27.897l-0.142 0.272c-10.555 19.274-16.764 42.227-16.764 66.631 0 2.076 0.045 4.141 0.134 6.196l-0.010-0.293c-0.020 1.534-0.032 3.346-0.032 5.16 0 78.75 21.904 152.385 59.953 215.142l-1.041-1.849c18.633 34.49 52.831 58.498 92.925 62.677l0.515 0.043c39.703-1.91 74.439-21.632 96.614-51.291l0.24-0.335c14.352-16.589 28.373-34.812 41.331-53.817l1.336-2.076zM791.893 256.853c-20.48 0-36.267 8.107-58.88 35.413-33.39 44.64-66.695 95.509-96.849 148.408l-3.845 7.325-22.187 36.693c-15.36 26.027-30.293 49.493-42.667 70.4 2.433 4.46 4.835 8.225 7.46 11.817l-0.207-0.297c40.107 59.307 75.52 92.587 119.467 92.587 46.256-4.191 85.314-31.481 105.891-70.109l0.349-0.718c36.819-62.417 58.571-137.526 58.571-217.716 0-3.56-0.043-7.11-0.128-10.649l0.010 0.524c-1.707-55.893-14.507-103.68-66.987-103.68z" fill="currentColor" />
  </g>
</svg>
