<?xml version="1.0" encoding="utf-8"?>
<svg xmlns="http://www.w3.org/2000/svg" viewBox="0 0 1024 1024" width="24" height="24">
  <g transform="scale(1, -1) translate(0, -960)">
    <path d="M837.675 618.795c0.555-7.467 0.555-14.891 0.555-22.315 0-227.2-172.928-489.003-488.96-489.003-97.365 0-187.819 28.203-263.936 77.184 13.824-1.579 27.136-2.133 41.515-2.133 0.247-0.001 0.539-0.001 0.832-0.001 80.541 0 154.623 27.653 213.27 73.983l-0.725-0.553c-74.895 1.398-137.984 50.4-160.376 117.952l-0.349 1.216c10.624-1.579 21.291-2.645 32.469-2.645 15.403 0 30.891 2.133 45.269 5.845-79.164 16.404-137.814 85.563-137.814 168.42 0 0.085 0 0.17 0 0.254v-0.013 2.133c22.912-12.757 49.493-20.736 77.653-21.803-46.462 31.197-76.629 83.539-76.629 142.926 0 0.062 0 0.125 0 0.187v-0.010c0 31.915 8.491 61.184 23.381 86.699 85.188-104.205 211.15-172.31 353.18-179.789l1.209-0.051c-2.645 12.8-4.267 26.069-4.267 39.381 0 0.025 0 0.055 0 0.085 0 94.869 76.907 171.776 171.776 171.776 0.030 0 0.060 0 0.090 0h-0.004c49.493 0 94.165-20.736 125.568-54.272 41.117 8.11 77.67 22.526 110.582 42.368l-1.526-0.854c-13.316-40.405-40.035-73.336-74.791-94.289l-0.771-0.431c36.67 4.276 70.112 13.66 101.132 27.496l-2.188-0.872c-23.955-34.629-52.485-64.027-85.139-88.165l-1.005-0.709z" fill="currentColor" />
  </g>
</svg>
