<?xml version="1.0" encoding="utf-8"?>
<svg xmlns="http://www.w3.org/2000/svg" viewBox="0 0 1024 1024" width="24" height="24">
  <g transform="scale(1, -1) translate(0, -960)">
    <path d="M893.227 420.437c-9.374 27.719-35.148 47.319-65.499 47.319-7.419 0-14.564-1.171-21.261-3.338l0.488 0.137-69.632-22.699c-15.147 46.891-31.36 96.768-46.592 143.573l0.256 0.085-0.171 0.341 68.821 22.315c27.735 9.411 47.338 35.216 47.338 65.598 0 7.398-1.162 14.524-3.314 21.206l0.136-0.489c-9.416 27.727-35.216 47.323-65.593 47.323-7.431 0-14.588-1.173-21.296-3.343l0.489 0.137-69.163-22.485-22.144 68.437c-9.402 27.725-35.193 47.322-65.562 47.322-7.427 0-14.58-1.172-21.284-3.341l0.489 0.137c-27.708-9.395-47.294-35.171-47.294-65.522 0-7.442 1.177-14.608 3.356-21.324l-0.137 0.488 22.272-68.651-143.701-46.592-22.357 68.736c-9.391 27.716-35.171 47.308-65.527 47.308-7.408 0-14.544-1.167-21.234-3.327l0.489 0.136c-27.726-9.37-47.331-35.147-47.331-65.503 0-7.433 1.175-14.591 3.351-21.299l-0.137 0.488 22.357-68.949-70.912-23.083c-26.398-9.865-44.853-34.87-44.853-64.185 0-6.775 0.986-13.319 2.821-19.498l-0.123 0.484c10.667-36.523 49.152-58.581 84.437-46.592 0.256 0 28.075 8.917 71.040 22.869l46.891-144.469h-0.085v-0.085l-71.253-23.253c-26.381-9.83-44.831-34.804-44.831-64.088 0-6.795 0.993-13.358 2.843-19.552l-0.124 0.483c10.667-36.565 49.067-58.624 84.437-46.635 0.299 0 28.117 9.003 71.040 22.955l0.128-0.213c0.125 0.009 0.241 0.040 0.348 0.088l-0.006-0.003 22.997-70.699c9.825-26.419 34.826-44.899 64.143-44.899 6.775 0 13.32 0.987 19.498 2.825l-0.483-0.123c36.565 10.667 58.581 49.109 46.677 84.437 0 0.256-8.917 27.904-22.741 70.571l-0.128 0.384c47.104 15.275 97.109 31.531 144.043 46.848l23.168-71.168c9.858-26.412 34.87-44.88 64.196-44.88 6.755 0 13.282 0.98 19.445 2.806l-0.484-0.123c36.523 10.709 58.624 49.152 46.592 84.437 0 0.299-8.917 28.117-22.827 70.955l0.811 0.256-0.128 0.299 68.651 22.272c27.741 9.408 47.35 35.215 47.35 65.602 0 7.412-1.167 14.551-3.326 21.245l0.136-0.489zM463.36 352.512l-46.805 144.085c0.078 0.006 0.151 0.021 0.219 0.044l-0.006-0.002v0.256c46.848 15.189 96.768 31.36 143.488 46.592l46.848-144.085-143.744-46.891z" fill="currentColor" />
  </g>
</svg>
