<?xml version="1.0" encoding="utf-8"?>
<svg xmlns="http://www.w3.org/2000/svg" viewBox="0 0 1024 1024" width="24" height="24">
  <g transform="scale(1, -1) translate(0, -960)">
    <path d="M853.333 832h-682.667c-23.564 0-42.667-19.103-42.667-42.667v0-682.667c0-23.564 19.103-42.667 42.667-42.667v0h682.667c23.564 0 42.667 19.103 42.667 42.667v0 682.667c0 23.564-19.103 42.667-42.667 42.667v0zM766.037 650.027l-41.216-39.467c-2.87-2.205-4.702-5.638-4.702-9.499 0-0.729 0.065-1.443 0.19-2.136l-0.011 0.073v-290.176c-0.114-0.62-0.18-1.334-0.18-2.063 0-3.861 1.832-7.295 4.674-9.479l0.028-0.021 40.192-39.509v-8.704h-202.283v8.704l41.685 40.448c4.139 4.096 4.139 5.333 4.139 11.563v234.581l-115.883-294.229h-15.701l-134.869 294.229v-197.205c-0.146-1.064-0.229-2.293-0.229-3.541 0-7.433 2.951-14.176 7.745-19.122l-0.007 0.007 54.229-65.749v-8.661h-153.771v8.661l54.229 65.749c4.557 4.732 7.363 11.178 7.363 18.278 0 1.546-0.133 3.062-0.389 4.535l0.023-0.157v228.011c0.066 0.609 0.103 1.315 0.103 2.030 0 5.873-2.536 11.154-6.572 14.808l-0.017 0.015-48.213 58.027v8.661h149.589l115.627-253.568 101.632 253.568h142.635v-8.661z" fill="currentColor" />
  </g>
</svg>
