<?xml version="1.0" encoding="utf-8"?>
<svg xmlns="http://www.w3.org/2000/svg" viewBox="0 0 1024 1024" width="24" height="24">
  <g transform="scale(1, -1) translate(0, -960)">
    <path d="M826.069 831.659h-628.181c-38.443 0-69.547-31.104-69.547-69.547v-628.224c0-38.4 31.104-69.589 69.547-69.589h628.224c38.4 0 69.589 31.147 69.589 69.589v628.224c0 38.41-31.137 69.547-69.547 69.547-0.030 0-0.060 0-0.090 0h0.005zM384.768 682.453c25.472 0 46.848-20.139 46.848-45.995 0-26.283-21.376-46.080-46.848-46.080v-0.939c-25.771 0-46.507 20.736-46.507 46.421 0 25.813 20.736 46.592 46.507 46.592zM698.539 240.768c-47.445 0-70.443 28.245-70.443 66.816 0 11.093 1.408 22.741 4.864 34.645l22.528 81.323c2.901 8.875 3.669 17.28 3.669 24.789 0 26.24-16 41.984-41.429 41.984-32.469 0-53.76-23.168-64.853-68.181l-44.075-176.896h-77.269l13.952 55.595c-22.784-37.248-54.229-60.245-93.141-60.245-47.019 0-68.992 26.965-68.992 67.584 0.205 12.369 1.686 24.282 4.319 35.756l-0.223-1.153 35.243 143.616h-54.528l16.555 61.013h131.2l-51.883-204.971c-3.413-13.184-4.693-23.851-4.693-31.488 0-13.099 6.315-16.896 16.427-19.285 6.229-1.28 55.253-0.469 81.835 58.709l34.048 136.021h-55.211l16.683 59.904h118.912l-15.317-68.992c20.651 38.357 61.952 75.179 102.656 75.179 43.179 0 79.147-31.061 79.147-90.069 0-17.067-2.688-33.963-7.68-50.347l-22.187-79.275c-1.723-6.199-2.87-13.387-3.193-20.788l-0.007-0.204c0-13.909 5.803-20.651 15.701-20.651 10.155 0 23.595 7.723 38.357 50.005l30.208-11.605c-17.664-62.848-50.432-88.789-91.179-88.789z" fill="currentColor" />
  </g>
</svg>
