<?xml version="1.0" encoding="utf-8"?>
<svg xmlns="http://www.w3.org/2000/svg" viewBox="0 0 1024 1024" width="24" height="24">
  <g transform="scale(1, -1) translate(0, -960)">
    <path d="M939.264 449.109c-0.768 235.179-191.701 425.557-426.923 425.557-235.307 0-426.197-190.379-426.965-425.557l-0.043 1.109v-4.779l0.043 0.981c0.725-235.221 191.616-425.685 426.965-425.685 235.264 0 426.155 190.379 426.923 425.557l0.043-1.109v5.035l-0.043-1.109zM395.989 253.568c-107.051 0-194.048 86.997-194.048 194.091s86.997 194.091 194.048 194.091c52.48 0 96.341-19.243 129.963-50.688l-55.253-53.547c-13.867 13.184-38.357 28.715-74.709 28.715-64.213 0-116.608-53.376-116.608-118.827 0-65.408 52.437-118.784 116.608-118.784 74.325 0 101.717 51.456 106.752 81.92h-106.837v72.448h181.547c2.816-12.203 4.907-23.637 4.907-39.765 0-110.805-74.325-189.653-186.368-189.653zM842.197 428.288h-77.611v-77.611h-58.197v77.611h-77.653v58.197h77.653v77.653h58.197v-77.653h77.611v-58.197z" fill="currentColor" />
  </g>
</svg>
