<?xml version="1.0" encoding="utf-8"?>
<svg xmlns="http://www.w3.org/2000/svg" viewBox="0 0 1024 1024" width="24" height="24">
  <g transform="scale(1, -1) translate(0, -960)">
    <path d="M515.456 408.235c-33.28-68.736-78.891-161.792-101.504-203.776-21.888-38.229-40.107-33.109-54.528-1.024-50.005 118.187-152.747 325.333-201.045 441.472-8.917 21.419-15.659 35.115-22.016 40.533-6.443 5.333-19.712 8.533-39.936 9.685-7.424 0.811-11.093 2.603-11.093 5.589v16.171l1.835 1.621c32.896 0.171 192.128 0 192.128 0l1.792-1.621v-15.445c0-4.267-2.688-6.272-8.021-6.272l-20.053-1.024c-17.195-1.109-25.813-5.845-25.813-15.573 0-4.779 1.877-11.733 5.931-21.376 38.485-94.123 171.392-374.272 171.392-374.272l4.864-1.664 85.76 171.179-17.152 37.973-59.008 116.096s-11.307 23.253-15.232 31.019c-25.899 51.328-25.301 53.973-51.456 57.472-7.381 0.853-11.136 1.792-11.136 5.333v16.64l2.133 1.579h152.661l4.053-1.28v-16.043c0-3.755-2.688-5.333-8.064-5.333l-10.965-1.664c-28.16-2.176-23.509-13.568-4.821-50.603l56.277-115.712 62.507 124.672c10.411 22.741 8.277 28.501 3.968 33.664-2.475 2.987-10.88 7.893-28.885 8.533l-7.168 0.768c-0.003 0-0.007 0-0.011 0-1.961 0-3.76 0.692-5.166 1.846l0.014-0.011c-1.449 0.969-2.391 2.598-2.391 4.448 0 0.041 0 0.082 0.001 0.123v-0.006 15.232l2.176 1.579c44.373 0.299 143.829 0 143.829 0l2.133-1.579v-15.531c0-4.309-2.133-6.315-6.869-6.315-22.997-1.024-27.819-3.371-36.437-15.616-4.267-6.571-13.355-20.907-22.955-36.907l-81.877-152.021-2.304-4.779 99.328-203.221 6.059-1.749 156.373 371.371c5.504 15.019 4.565 25.685-2.261 31.829-7.040 6.144-12.331 9.728-30.549 10.496l-14.933 0.597c-0.095-0.004-0.206-0.006-0.318-0.006-1.907 0-3.675 0.593-5.13 1.604l0.030-0.019c-1.453 0.916-2.435 2.465-2.559 4.25l-0.001 0.017v15.403l2.091 1.621h176.512l1.451-1.621v-15.531c0-4.267-2.645-6.4-7.424-6.4-23.083-1.024-40.107-6.4-51.328-14.976-11.221-9.088-19.84-21.931-26.197-37.973 0 0-143.829-329.387-193.024-438.997-18.688-35.84-37.461-32.64-53.461 1.109-20.352 41.685-63.061 134.656-94.123 203.136l1.92 1.28z" fill="currentColor" />
  </g>
</svg>
