<?xml version="1.0" encoding="utf-8"?>
<svg xmlns="http://www.w3.org/2000/svg" viewBox="0 0 1024 1024" width="24" height="24">
  <g transform="scale(1, -1) translate(0, -960)">
    <path d="M85.547 523.179v-72.107l426.752-266.837 426.155 266.837v72.107l-426.155-265.771zM680.021 427.989l62.507 40.021c-49.536 72.576-134.528 122.709-230.229 122.709-96.299 0-180.736-48.427-229.163-123.307 3.968 3.968 6.229 6.229 10.155 9.003 119.936 99.669 292.693 77.141 386.731-48.427zM386.176 402.645c20.857 15.46 47.099 24.747 75.51 24.747 0.153 0 0.307 0 0.46-0.001h-0.024c46.208 0 87.339-23.637 114.859-63.573l59.691 37.163c-25.899 41.088-72.021 66.432-124.416 66.432-52.309 0-98.517-26.453-126.080-64.768zM224 575.488c175.659 138.496 423.979 100.779 556.245-83.328l1.109-1.109 64.725 40.021c-72.19 109.458-194.598 180.693-333.645 180.693-0.048 0-0.096 0-0.144 0h0.008c-139.104-0.028-261.568-71.248-332.942-179.206l-0.924-1.488c12.971 14.592 29.269 32.043 45.568 44.416z" fill="currentColor" />
  </g>
</svg>
