<?xml version="1.0" encoding="utf-8"?>
<svg xmlns="http://www.w3.org/2000/svg" viewBox="0 0 1024 1024" width="24" height="24">
  <g transform="scale(1, -1) translate(0, -960)">
    <path d="M832.469 545.195c-18.002 64.884-53.174 120.024-100.316 162.011l-0.334 0.293-1.493-1.493 0.213 1.792c-58.438 51.743-135.752 83.339-220.445 83.339-152.985 0-281.891-103.094-321.035-243.598l-0.557-2.343c1.323 0.555 2.816 0.555 4.224 0.981-64.924-43.807-107.052-117.095-107.052-200.223 0-77.478 36.596-146.409 93.445-190.449l0.551-0.411 0.256 0.256-0.256-1.024c39.644-30.201 89.862-48.386 144.328-48.386 0.365 0 0.729 0.001 1.094 0.002h184.307l1.024-1.024h185.216c0.572-0.005 1.249-0.008 1.926-0.008 132.996 0 240.811 107.815 240.811 240.811 0 82.648-41.636 155.572-105.077 198.941l-0.827 0.534zM695.68 253.141h-185.216l-0.256-0.256v1.323h-185.173c-13.141 0-26.069 2.816-38.059 8.235l0.085 0.043c-32.414 14.88-54.519 47.058-54.519 84.399 0 51.134 41.452 92.587 92.587 92.587 37.329 0 69.499-22.091 84.148-53.914l0.237-0.575 107.435 107.435c-35.181 45.508-85.529 77.802-143.363 89.345l-1.533 0.255c0.768 0.384 1.493 1.024 2.133 0.896 33.945 37.181 82.622 60.417 136.727 60.417 44.236 0 84.843-15.533 116.667-41.441l-0.338 0.266h1.963c40.766-34.156 66.505-85.088 66.505-142.031 0-1.172-0.011-2.342-0.033-3.509l0.003 0.175v-18.475c51.134 0 92.587-41.452 92.587-92.587s-41.452-92.587-92.587-92.587v0z" fill="currentColor" />
  </g>
</svg>
