<?xml version="1.0" encoding="utf-8"?>
<svg xmlns="http://www.w3.org/2000/svg" viewBox="0 0 1024 1024" width="24" height="24">
  <g transform="scale(1, -1) translate(0, -960)">
    <path d="M853.333 832h-682.667c-23.564 0-42.667-19.103-42.667-42.667v0-682.667c0-23.564 19.103-42.667 42.667-42.667v0h682.667c23.564 0 42.667 19.103 42.667 42.667v0 682.667c0 23.564-19.103 42.667-42.667 42.667v0zM355.797 177.621h-114.005v366.507h114.005v-366.507zM298.795 594.176c-36.477 0-66.048 29.571-66.048 66.048s29.571 66.048 66.048 66.048v0c36.477 0 66.048-29.571 66.048-66.048s-29.571-66.048-66.048-66.048v0zM782.421 177.621h-113.877v178.219c0 42.496-0.768 97.152-59.221 97.152-59.307 0-68.309-46.336-68.309-94.165v-181.248h-113.792v366.507h109.227v-50.091h1.579c15.147 28.8 52.352 59.179 107.691 59.179 115.371 0 136.661-75.861 136.661-174.592v-200.96z" fill="currentColor" />
  </g>
</svg>
