<?xml version="1.0" encoding="utf-8"?>
<svg xmlns="http://www.w3.org/2000/svg" viewBox="0 0 1024 1024" width="24" height="24">
  <g transform="scale(1, -1) translate(0, -960)">
    <path d="M803.157 248.533c-4.48-30.976-67.712-111.317-96.811-122.965-9.899-3.968-19.499-2.987-27.179 2.901-4.949 3.84-10.027 11.605-78.208 122.283l-20.267 32.981c-7.808 11.819-6.315 27.392 3.328 39.253 9.515 11.52 23.424 15.787 35.499 11.179 0.683-0.341 50.987-16.939 50.987-16.939 114.688-37.675 118.4-39.125 123.349-42.752 7.253-5.931 10.624-15.189 9.131-25.941h0.171zM573.355 416.896c-8.107 12.331-7.979 26.88 0.427 36.907l31.829 43.477c70.059 95.36 73.899 100.395 78.635 103.723 4.168 2.739 9.277 4.369 14.766 4.369 4.788 0 9.286-1.24 13.19-3.416l-0.138 0.071c27.776-13.483 83.883-96.811 87.253-128.811v-1.067c0.133-0.998 0.209-2.152 0.209-3.324 0-8.939-4.412-16.847-11.178-21.666l-0.081-0.055c-5.248-3.371-10.027-5.333-140.416-36.949-20.608-5.248-32.085-8.107-38.827-10.539l0.896 0.981c-12.885-3.883-27.307 2.347-35.456 15.232l-1.109 1.067zM493.355 466.347c-6.229-1.963-25.216-7.893-48.597 29.952 0 0-157.611 248.021-161.28 255.659-2.261 8.576 0.469 18.304 8.107 26.155 23.467 24.277 150.784 59.947 184.107 51.84 10.88-2.816 18.347-9.685 20.949-19.328 1.92-10.667 17.408-240.896 19.627-292.437 2.176-44.117-16.725-49.963-22.912-51.84zM514.133 214.059c-0.341-120.619-0.64-124.672-2.603-130.389-3.371-9.003-11.093-15.019-21.76-16.981-30.72-5.205-126.805 30.293-146.816 54.059-3.514 4.346-5.913 9.731-6.682 15.628l-0.017 0.159c-0.555 3.84 0 7.68 1.408 11.051 2.432 6.229 5.76 11.051 92.075 112.213l25.344 30.123c8.661 11.093 24.021 14.421 38.357 8.704 13.867-5.291 22.528-17.28 21.589-30.208v-53.717l-0.896-0.64zM252.587 291.2c-9.472 0.256-17.92 5.973-22.827 15.275-3.541 6.912-6.059 18.261-7.68 32.085-4.352 41.557 0.981 104.277 13.397 124.203 5.888 9.131 14.421 13.952 23.851 13.611 6.229 0 11.776-1.963 135.125-52.736l36.181-14.379c12.885-4.736 20.864-18.219 20.139-33.579-0.939-14.848-9.557-26.283-22.229-29.696l-51.285-16.299c-114.731-36.864-118.528-37.888-124.544-37.419l-0.128-1.067zM731.307 64.128h-0.171l-0.128-0.128 0.299 0.128z" fill="currentColor" />
  </g>
</svg>
