<?xml version="1.0" encoding="utf-8"?>
<svg xmlns="http://www.w3.org/2000/svg" viewBox="0 0 1024 1024" width="24" height="24">
  <g transform="scale(1, -1) translate(0, -960)">
    <path d="M860.587 541.013c-0.333 0.002-0.726 0.003-1.12 0.003-12.268 0-24.281-1.088-35.95-3.172l1.23 0.182c-6.575 38.743-29.108 71.224-60.463 90.983l-0.551 0.324-11.947 6.827-8.107-11.52c-9.681-14.548-17.185-31.511-21.543-49.698l-0.217-1.075c-2.56-9.298-4.031-19.974-4.031-30.993 0-23.594 6.743-45.612 18.407-64.234l-0.296 0.507c-18.131-8.295-39.218-13.667-61.408-14.913l-0.459-0.021h-561.92c-0.001 0-0.002 0-0.003 0-14.695 0-26.636-11.793-26.876-26.431v-0.023c-0.015-1.296-0.023-2.828-0.023-4.362 0-50.34 9.081-98.559 25.695-143.108l-0.925 2.83c15.777-46.448 45.691-84.641 84.546-110.442l0.787-0.492c49.778-25.805 108.672-40.938 171.1-40.938 6.15 0 12.266 0.147 18.344 0.437l-0.858-0.033c2.917-0.054 6.358-0.085 9.806-0.085 33.007 0 65.354 2.824 96.813 8.245l-3.365-0.48c51.172 9.347 96.846 26.427 138.202 50.176l-2.096-1.109c35.752 21.899 66.291 48.093 92.146 78.404l0.441 0.53c37.95 44.424 68.744 96.364 89.737 153.060l1.143 3.527h8.107c1.448-0.057 3.148-0.090 4.856-0.090 34.998 0 66.8 13.681 90.35 35.986l-0.060-0.056c10.83 10.115 19.392 22.513 24.935 36.44l0.239 0.68 3.413 9.387-8.533 6.827c-17.521 11.394-38.956 18.17-61.974 18.17-2.665 0-5.308-0.091-7.927-0.269l0.354 0.019zM239.36 561.067h-75.093c-0.004 0-0.009 0-0.013 0-3.62 0-6.582-2.818-6.812-6.38l-0.001-0.020v-67.413c0.231-3.582 3.193-6.4 6.813-6.4 0.005 0 0.009 0 0.014 0h75.092c0.004 0 0.009 0 0.013 0 3.62 0 6.582 2.818 6.812 6.38l0.001 0.020v67.413c-0.231 3.582-3.193 6.4-6.813 6.4-0.005 0-0.009 0-0.014 0h0.001zM343.467 561.067h-75.52c-0.004 0-0.009 0-0.013 0-3.62 0-6.582-2.818-6.812-6.38l-0.001-0.020v-67.413c0.231-3.582 3.193-6.4 6.813-6.4 0.005 0 0.009 0 0.014 0h75.519c3.535 0 6.4 2.865 6.4 6.4v67.413c0 3.535-2.865 6.4-6.4 6.4v0zM448.853 561.067h-75.52c-3.535 0-6.4-2.865-6.4-6.4v0-67.413c0-3.535 2.865-6.4 6.4-6.4v0h75.52c3.535 0 6.4 2.865 6.4 6.4v67.413c0 3.535-2.865 6.4-6.4 6.4v0zM477.44 561.067c-0.513 0.148-1.102 0.233-1.711 0.233-3.535 0-6.4-2.865-6.4-6.4 0-0.082 0.002-0.163 0.005-0.245v0.012-67.413c0-3.535 2.865-6.4 6.4-6.4v0h78.933c3.535 0 6.4 2.865 6.4 6.4v67.413c0 3.535-2.865 6.4-6.4 6.4v0zM267.947 657.493h73.387c3.77 0 6.827-3.056 6.827-6.827v0-66.56c0.077-0.385 0.121-0.828 0.121-1.281 0-3.77-3.056-6.827-6.827-6.827-0.043 0-0.085 0-0.128 0.001h-73.381c-3.535 0-6.4 2.865-6.4 6.4v68.693c0 3.535 2.865 6.4 6.4 6.4v0zM373.333 657.493h75.52c3.535 0 6.4-2.865 6.4-6.4v0-66.987c0-3.77-3.056-6.827-6.827-6.827v0h-75.093c-3.535 0-6.4 2.865-6.4 6.4v0 67.413c0 3.535 2.865 6.4 6.4 6.4v0zM477.44 657.493h77.227c3.535 0 6.4-2.865 6.4-6.4v0-66.987c0.148-0.513 0.233-1.102 0.233-1.711 0-3.535-2.865-6.4-6.4-6.4-0.082 0-0.163 0.002-0.245 0.005h-77.215c-0.43-0.097-0.925-0.152-1.432-0.152-3.77 0-6.827 3.056-6.827 6.827 0 0.507 0.055 1.001 0.16 1.477l-0.008-0.045v66.987c-0.003 0.069-0.004 0.151-0.004 0.233 0 3.535 2.865 6.4 6.4 6.4 0.609 0 1.198-0.085 1.756-0.244l-0.045 0.011zM477.44 754.347h75.52c3.535 0 6.4-2.865 6.4-6.4v-67.413c0-3.535-2.865-6.4-6.4-6.4h-75.52c-3.535 0-6.4 2.865-6.4 6.4v67.413c0 3.535 2.865 6.4 6.4 6.4zM582.4 561.067c-3.535 0-6.4-2.865-6.4-6.4v0-67.413c0-3.535 2.865-6.4 6.4-6.4v0h75.52c3.535 0 6.4 2.865 6.4 6.4v0 67.413c0 3.535-2.865 6.4-6.4 6.4v0z" fill="currentColor" />
  </g>
</svg>
