<?xml version="1.0" encoding="utf-8"?>
<svg xmlns="http://www.w3.org/2000/svg" viewBox="0 0 1024 1024" width="24" height="24">
  <g transform="scale(1, -1) translate(0, -960)">
    <path d="M512.043 874.581c-235.605 0-426.624-191.019-426.624-426.624 0-212.907 155.989-389.376 359.979-421.504v298.155h-108.373v123.349h108.373v93.995c0 107.008 63.701 166.016 161.109 166.016 46.677 0 95.573-8.32 95.573-8.32v-104.917h-53.931c-52.907 0-69.461-32.939-69.461-66.688v-80h118.229l-18.901-123.349h-99.328v-298.155c203.989 31.957 359.979 208.469 359.979 421.419 0 235.605-191.019 426.624-426.624 426.624z" fill="currentColor" />
  </g>
</svg>
