<?xml version="1.0" encoding="utf-8"?>
<svg xmlns="http://www.w3.org/2000/svg" viewBox="0 0 1024 1024" width="24" height="24">
  <g transform="scale(1, -1) translate(0, -960)">
    <path d="M789.333 554.24c-32.905 11.546-60.496 31.297-81.231 56.84l-0.262 0.334c-45.494 56.654-114.754 92.611-192.412 92.611-1.205 0-2.409-0.009-3.61-0.026l0.182 0.002c-4.257 0.32-9.22 0.503-14.227 0.503-100.558 0-183.903-73.702-198.961-170.035l-0.146-1.135c24.497 40.476 68.286 67.114 118.297 67.114 11.007 0 21.712-1.29 31.973-3.728l-0.936 0.188c32.849-11.877 60.395-31.727 81.23-57.267l0.263-0.333c45.496-55.916 114.308-91.347 191.396-91.347 1.563 0 3.122 0.015 4.677 0.044l-0.233-0.003c4.257-0.32 9.22-0.503 14.227-0.503 100.558 0 183.903 73.702 198.961 170.035l0.146 1.135c-24.076-40.974-67.933-68.044-118.113-68.044-11.075 0-21.842 1.319-32.153 3.808l0.932-0.19zM234.667 341.76c32.905-11.546 60.496-31.297 81.231-56.84l0.262-0.334c45.494-56.654 114.754-92.611 192.412-92.611 1.205 0 2.409 0.009 3.61 0.026l-0.182-0.002c4.257-0.32 9.22-0.503 14.227-0.503 100.558 0 183.903 73.702 198.961 170.035l0.146 1.135c-24.497-40.476-68.286-67.114-118.297-67.114-11.007 0-21.712 1.29-31.973 3.728l0.936-0.188c-32.849 11.877-60.395 31.727-81.23 57.267l-0.263 0.333c-45.731 55.923-114.729 91.336-191.998 91.336-1.351 0-2.7-0.011-4.046-0.032l0.203 0.003c-4.257 0.32-9.22 0.503-14.227 0.503-100.558 0-183.903-73.702-198.961-170.035l-0.146-1.135c24.076 40.974 67.933 68.044 118.113 68.044 11.075 0 21.842-1.319 32.153-3.808l-0.932 0.19z" fill="currentColor" />
  </g>
</svg>
