<?xml version="1.0" encoding="utf-8"?>
<svg xmlns="http://www.w3.org/2000/svg" viewBox="0 0 1024 1024" width="24" height="24">
  <g transform="scale(1, -1) translate(0, -960)">
    <path d="M91.733 244.053h66.987c0.018 0 0.040 0 0.061 0 2.998 0 5.48 2.209 5.908 5.088l0.004 0.033 14.933 77.653h52.053c1.551-0.042 3.377-0.065 5.209-0.065 21.112 0 41.49 3.142 60.692 8.984l-1.475-0.386c17.646 5.941 32.769 15.287 45.262 27.341l-0.036-0.034c11.353 10.236 20.884 22.215 28.233 35.565l0.354 0.702c6.887 12.316 12.213 26.607 15.207 41.737l0.153 0.93c2.596 8.637 4.091 18.562 4.091 28.837 0 23.95-8.121 46.004-21.76 63.558l0.175-0.234c-20.445 20.765-48.862 33.631-80.283 33.631-3.129 0-6.228-0.128-9.292-0.378l0.402 0.026h-128c-3.191-0.148-5.8-2.465-6.393-5.504l-0.007-0.043-58.88-309.76c-0.31-0.825-0.489-1.778-0.489-2.773s0.179-1.948 0.507-2.829l-0.018 0.056c1.322-1.374 3.177-2.228 5.231-2.228 0.413 0 0.818 0.035 1.212 0.101l-0.043-0.006zM213.333 506.88h42.667c2.474 0.351 5.332 0.551 8.237 0.551 14.317 0 27.498-4.863 37.982-13.028l-0.139 0.104c7.253-7.68 8.533-22.187 4.693-42.667-2.28-19.017-11.171-35.62-24.269-47.74l-0.051-0.047c-14.030-9.009-31.155-14.362-49.529-14.362-2.54 0-5.056 0.102-7.545 0.303l0.328-0.021h-34.133zM631.467 547.413c-18.844 13.983-42.559 22.384-68.237 22.384-4.219 0-8.384-0.227-12.485-0.669l0.509 0.044h-50.773l14.080 75.093c0.399 0.811 0.632 1.765 0.632 2.773s-0.233 1.963-0.649 2.811l0.017-0.038c-0.698 0.263-1.504 0.416-2.347 0.416s-1.649-0.153-2.394-0.431l0.047 0.015h-66.987c-0.018 0-0.040 0-0.061 0-2.998 0-5.48-2.209-5.908-5.088l-0.004-0.033-58.88-310.187c-0.394-0.743-0.626-1.624-0.626-2.56s0.232-1.817 0.641-2.59l-0.015 0.030c1.001-1.549 2.719-2.56 4.674-2.56 0.007 0 0.014 0 0.020 0h65.706c0.005 0 0.010 0 0.015 0 3.149 0 5.729 2.436 5.957 5.527l0.001 0.020 32.853 173.653h47.36c19.2 0 26.027-4.267 28.16-6.827 1.664-3.908 2.631-8.455 2.631-13.227s-0.967-9.318-2.716-13.453l0.085 0.227-26.027-138.24c-0.394-0.743-0.626-1.624-0.626-2.56s0.232-1.817 0.641-2.59l-0.015 0.030c1.054-1.501 2.751-2.489 4.683-2.56h66.571c3.191 0.148 5.8 2.465 6.393 5.504l0.007 0.043 27.307 145.067c3.007 7.663 4.75 16.536 4.75 25.816 0 16.692-5.638 32.067-15.114 44.324l0.124-0.167zM824.32 569.173h-133.547c-0.132 0.010-0.286 0.016-0.441 0.016-3.155 0-5.738-2.445-5.958-5.544l-0.001-0.019-62.293-311.893c-0.372-0.816-0.589-1.769-0.589-2.773s0.217-1.958 0.606-2.816l-0.017 0.043c1.103-1.309 2.743-2.134 4.576-2.134 0.041 0 0.082 0 0.123 0.001h69.541c0.145-0.013 0.314-0.020 0.485-0.020 3.005 0 5.492 2.219 5.911 5.108l0.004 0.032 15.787 77.653h54.187c1.474-0.035 3.211-0.054 4.952-0.054 21.941 0 43.149 3.137 63.2 8.986l-1.592-0.398c19.507 5.532 36.381 14.947 50.482 27.424l-0.135-0.118c11.771 10.253 21.705 22.226 29.505 35.596l0.361 0.671c7.015 12.307 12.479 26.584 15.621 41.712l0.166 0.955c2.663 8.649 4.197 18.592 4.197 28.893 0 24.015-8.336 46.082-22.272 63.467l0.155-0.2c-21.749 22.021-51.941 35.661-85.318 35.661-2.707 0-5.394-0.090-8.056-0.266l0.361 0.019zM850.773 450.987c-2.714-19.145-12.026-35.734-25.52-47.717l-0.080-0.070c-14.481-9.024-32.062-14.374-50.892-14.374-2.661 0-5.297 0.107-7.904 0.316l0.343-0.022h-34.133l23.040 117.76h42.667c2.493 0.323 5.378 0.507 8.305 0.507 14.987 0 28.845-4.829 40.105-13.016l-0.196 0.136c6.827-7.68 6.827-22.187 4.267-43.52z" fill="currentColor" />
  </g>
</svg>
