<?xml version="1.0" encoding="utf-8"?>
<svg xmlns="http://www.w3.org/2000/svg" viewBox="0 0 1024 1024" width="24" height="24">
  <g transform="scale(1, -1) translate(0, -960)">
    <path d="M505.899 216.875c-125.739 0-183.211 65.024-183.211 112.683 0 11.349 4.608 22.229 12.715 30.080 7.251 7.008 17.14 11.327 28.037 11.327 0.794 0 1.582-0.023 2.364-0.068l-0.108 0.005c53.803 0 39.723-81.92 140.203-81.92 51.328 0 81.493 31.403 81.493 60.8 0 17.707-9.984 37.931-43.861 46.037l-112.171 28.715c-90.069 23.253-105.771 74.112-105.771 121.259 0 97.835 88.235 133.291 172.203 133.291 77.397 0 169.387-43.349 169.387-102.016 0-25.259-20.821-38.827-45.013-38.827-45.995 0-38.272 65.536-130.688 65.536-45.952 0-70.187-21.888-70.187-52.48s35.797-40.96 67.157-47.915l82.816-18.987c90.709-20.736 114.816-74.709 114.816-126.421 0-79.573-60.715-141.013-180.309-141.013zM853.035 385.152c3.669 20.907 5.461 42.069 5.461 63.232 0.004 0.596 0.006 1.301 0.006 2.007 0 109.449-48.644 207.537-125.491 273.823l-0.467 0.394c-60.925 52.575-140.87 84.599-228.296 84.599-21.673 0-42.887-1.968-63.472-5.735l2.146 0.326c-29.756 17.725-65.615 28.203-103.923 28.203-0.155 0-0.31 0-0.464-0.001h0.024c-77.82-0.719-145.514-43.382-181.642-106.445l-0.545-1.033c-17.844-30.893-28.372-67.952-28.372-107.469 0-39.059 10.285-75.716 28.295-107.411l-0.563 1.077c-3.673-19.392-5.774-41.699-5.774-64.497 0-98.66 39.35-188.13 103.211-253.571l-0.072 0.074c63.832-65.374 152.846-105.916 251.328-105.916 21.752 0 43.042 1.978 63.7 5.763l-2.153-0.328c29.792-17.752 65.697-28.245 104.053-28.245 0.064 0 0.128 0 0.192 0h-0.010c77.795 0.726 145.468 43.368 181.599 106.403l0.545 1.032c17.873 30.884 28.42 67.942 28.42 107.463 0 39.033-10.287 75.663-28.299 107.327l0.562-1.073z" fill="currentColor" />
  </g>
</svg>
