<?xml version="1.0" encoding="utf-8"?>
<svg xmlns="http://www.w3.org/2000/svg" viewBox="0 0 1024 1024" width="24" height="24">
  <g transform="scale(1, -1) translate(0, -960)">
    <path d="M853.333 832h-682.667c-23.564 0-42.667-19.103-42.667-42.667v0-682.667c0-23.564 19.103-42.667 42.667-42.667v0h367.573v296.96h-99.755v116.267h99.755v85.333c0 99.2 60.587 153.259 149.333 153.259 29.824 0.085 59.691-1.451 89.387-4.565v-103.253h-61.227c-48.128 0-57.515-22.955-57.515-56.533v-74.027h115.072l-14.933-116.267h-100.181v-297.173h195.157c23.564 0 42.667 19.103 42.667 42.667v0 682.667c0 23.564-19.103 42.667-42.667 42.667v0z" fill="currentColor" />
  </g>
</svg>
