<?xml version="1.0" encoding="utf-8"?>
<svg xmlns="http://www.w3.org/2000/svg" viewBox="0 0 1024 1024" width="24" height="24">
  <g transform="scale(1, -1) translate(0, -960)">
    <path d="M920.704 667.52c5.973 19.84 0 34.389-28.245 34.389h-93.568c-23.808 0-34.688-12.587-40.661-26.411 0 0-47.573-116.011-114.987-191.232-21.76-21.888-31.701-28.8-43.563-28.8-5.931 0-14.549 6.912-14.549 26.752v185.301c0 23.808-6.869 34.389-26.709 34.389h-147.029c-14.848 0-23.808-11.008-23.808-21.504 0-22.528 33.707-27.733 37.163-91.221v-137.728c0-30.165-5.419-35.669-17.365-35.669-31.701 0-108.843 116.437-154.624 249.728-8.917 25.899-17.92 36.352-41.813 36.352h-93.525c-26.752 0-32.085-12.587-32.085-26.411 0-24.832 31.701-147.712 147.669-310.229 77.312-110.976 186.155-171.136 285.312-171.136 59.435 0 66.773 13.355 66.773 36.395v83.883c0 26.709 5.675 32.085 24.491 32.085 13.824 0 37.632-6.997 93.141-60.459 63.403-63.403 73.899-91.861 109.525-91.861h93.525c26.709 0 40.064 13.355 32.384 39.723-8.405 26.24-38.699 64.427-78.891 109.611-21.845 25.771-54.485 53.504-64.427 67.371-13.867 17.877-9.856 25.771 0 41.643 0.043-0.043 114.005 160.469 125.867 215.040z" fill="currentColor" />
  </g>
</svg>
