<?xml version="1.0" encoding="utf-8"?>
<svg xmlns="http://www.w3.org/2000/svg" viewBox="0 0 1024 1024" width="24" height="24">
  <g transform="scale(1, -1) translate(0, -960)">
    <path d="M530.219 404.864c1.579 28.459 15.488 53.504 36.523 71.296 20.951 17.522 48.182 28.162 77.897 28.162 0.274 0 0.548-0.001 0.822-0.003h-0.042c30.293 0 58.027-10.667 78.72-28.16 20.992-17.792 34.944-42.88 36.523-71.296 1.621-29.269-10.112-56.448-30.763-76.587-21.623-20.657-50.987-33.37-83.321-33.37-0.393 0-0.785 0.002-1.177 0.006h0.060c-0.352-0.004-0.768-0.006-1.184-0.006-32.339 0-61.71 12.714-83.385 33.415l0.047-0.044c-20.608 20.139-32.384 47.317-30.72 76.587zM346.624 347.264c0.213-11.093 3.797-32.725 9.088-49.664 12.27-38.087 31.679-70.865 56.836-98.284l-0.175 0.193c27.186-29.841 60.181-53.871 97.26-70.388l1.854-0.738c37.833-17.121 82.030-27.097 128.558-27.097 0.554 0 1.108 0.001 1.661 0.004h-0.086c0.116 0 0.254 0 0.392 0 46.987 0 91.607 10.134 131.795 28.335l-2.011-0.815c38.876 17.458 71.827 41.582 98.817 71.23l0.213 0.237c24.923 27.3 44.299 60.129 56.052 96.391l0.524 1.87c5.266 16.026 9.050 34.676 10.61 53.955l0.057 0.872c0.449 5.653 0.704 12.24 0.704 18.886 0 49.83-14.376 96.302-39.207 135.496l0.614-1.038c-17.947 28.413-39.855 52.466-65.288 72.19l-0.632 0.471 0.043 0.043-267.307 205.355c-17.536 13.397-46.976 13.355-66.176-0.085-19.499-13.611-21.675-36.096-4.437-50.347l-0.043-0.043 111.189-90.496-339.413-0.384c-27.989 0-54.912-18.432-60.245-41.643-5.461-23.68 13.568-43.307 42.709-43.392l-0.043-0.128 171.819 0.341-307.84-236.245c-28.885-22.144-38.229-58.965-20.053-82.304 18.517-23.723 57.771-23.723 87.040-0.085l167.339 136.917c0.043 0-2.389-18.475-2.219-29.611zM776.619 285.397c-34.475-35.157-82.688-55.083-134.955-55.168-52.309-0.085-100.523 19.669-135.040 54.741-15.888 15.904-28.436 35.147-36.501 56.586l-0.363 1.1c-5.747 15.25-9.073 32.878-9.073 51.283 0 4.642 0.212 9.235 0.626 13.769l-0.043-0.583c1.877 21.547 8.235 42.112 18.517 60.672 10.069 18.304 23.979 34.773 41.045 48.811 32.445 26.26 74.217 42.158 119.702 42.158 0.397 0 0.794-0.001 1.191-0.004h-0.061c0.457 0.004 0.997 0.006 1.537 0.006 45.3 0 86.917-15.765 119.665-42.108l-0.37 0.288c17.024-13.909 30.933-30.336 41.003-48.597 10.24-18.603 16.64-39.083 18.517-60.629 0.369-3.95 0.58-8.542 0.58-13.184 0-18.402-3.31-36.031-9.366-52.324l0.338 1.038c-8.516-22.58-21.083-41.867-36.959-57.866l0.010 0.010z" fill="currentColor" />
  </g>
</svg>
