<?xml version="1.0" encoding="utf-8"?>
<svg xmlns="http://www.w3.org/2000/svg" viewBox="0 0 1024 1024" width="24" height="24">
  <g transform="scale(1, -1) translate(0, -960)">
    <path d="M488.704 233.771c2.048-1.749 4.267-3.499 6.443-5.205-40.962-27.534-91.396-43.947-145.665-43.947-0.090 0-0.18 0-0.27 0h0.014c-0.063 0-0.138 0-0.213 0-145.391 0-263.253 117.863-263.253 263.253 0 0.045 0 0.090 0 0.135v-0.007c0 0.007 0 0.016 0 0.025 0 145.509 117.958 263.467 263.467 263.467 54.32 0 104.8-16.439 146.738-44.613l-0.946 0.598c-2.133-1.835-4.267-3.499-5.888-5.376-60.172-52.167-98.016-128.712-98.048-214.096v-0.006c0-82.133 35.541-160.213 97.621-214.229zM674.773 711.424c-0.151 0-0.33 0-0.509 0-54.128 0-104.421-16.416-146.174-44.54l0.934 0.593c2.091-1.835 4.224-3.499 5.845-5.376 62.379-53.888 98.091-132.011 98.091-214.101s-35.627-160.128-97.621-214.229c-2.091-1.749-4.309-3.499-6.443-5.205 40.914-27.533 91.302-43.947 145.523-43.947 0.11 0 0.219 0 0.329 0h-0.017c1.003-0.014 2.188-0.022 3.374-0.022 145.485 0 263.424 117.939 263.424 263.424s-117.939 263.424-263.424 263.424c-1.171 0-2.341-0.008-3.509-0.023l0.177 0.002zM512 654.933c-61.443-48.492-100.523-122.962-100.523-206.559 0-0.132 0-0.263 0-0.395v0.021c0-0.161-0.001-0.352-0.001-0.543 0-83.585 39.081-158.042 99.968-206.095l0.555-0.422c61.47 48.532 100.566 123.048 100.566 206.697 0 0.128 0 0.257 0 0.385v-0.020c0 0.114 0 0.248 0 0.382 0 83.604-39.099 158.076-100.010 206.128l-0.556 0.423z" fill="currentColor" />
  </g>
</svg>
