<?xml version="1.0" encoding="utf-8"?>
<svg xmlns="http://www.w3.org/2000/svg" viewBox="0 0 1024 1024" width="24" height="24">
  <g transform="scale(1, -1) translate(0, -960)">
    <path d="M332.928 715.477c25.131 0 47.744-2.176 68.48-6.613 20.608-4.395 38.187-11.648 53.035-21.675 14.635-10.027 26.069-23.339 34.304-40.064 7.979-16.512 11.947-37.163 11.947-61.568 0-26.453-5.973-48.555-17.963-66.176-12.075-17.664-29.867-32.128-53.589-43.307 32.299-9.344 56.235-25.685 72.107-48.896 15.957-23.424 23.765-51.456 23.765-84.309 0-26.667-5.077-49.579-15.275-68.821-10.121-19.263-24.154-35.207-41.145-47.253l-0.412-0.277c-17.053-12.015-36.968-21.403-58.409-27.021l-1.282-0.285c-20.434-5.582-43.895-8.79-68.106-8.79-0.191 0-0.383 0-0.574 0.001h-254.477v525.056h247.595zM317.952 503.339c20.48 0 37.461 4.864 50.859 14.72 13.312 9.728 19.755 25.771 19.755 47.744 0 12.203-2.176 22.272-6.443 30.165-4.242 7.649-10.282 13.839-17.57 18.14l-0.222 0.121c-7.325 4.419-15.902 7.635-25.059 9.118l-0.413 0.055c-8.488 1.66-18.249 2.61-28.231 2.61-0.53 0-1.059-0.003-1.588-0.008l0.081 0.001h-108.16v-122.667h116.992zM324.395 279.808c11.392 0 22.229 0.981 32.427 3.285 10.283 2.219 19.413 5.803 27.179 11.136 7.765 5.12 14.165 12.075 18.773 20.949 4.651 8.789 6.912 20.267 6.912 34.048 0 27.051-7.637 46.293-22.741 57.941-15.147 11.52-35.456 17.237-60.331 17.237h-125.653v-144.64h123.435zM689.835 281.557c15.659-15.275 38.229-22.955 67.584-22.955 21.035 0 39.211 5.333 54.528 15.915 15.104 10.624 24.32 21.973 27.861 33.707h91.947c-14.763-45.739-37.163-78.421-67.797-98.091-30.251-19.755-67.072-29.568-110.080-29.568-29.952 0-56.917 4.821-81.067 14.379-24.051 9.519-44.522 23.4-61.349 40.825l-0.048 0.050c-16.463 17.717-29.585 38.799-38.195 62.069l-0.418 1.291c-8.658 23.336-13.668 50.294-13.668 78.421 0 0.915 0.005 1.829 0.016 2.742l-0.001-0.139c0 28.416 4.736 54.997 14.037 79.531 9.363 24.746 22.894 45.943 39.919 63.774l-0.069-0.072c17.28 17.92 37.76 32.043 61.611 42.411 22.628 9.777 48.976 15.463 76.651 15.463 0.922 0 1.843-0.006 2.763-0.019l-0.139 0.002c32.171 0 60.288-6.229 84.437-18.773 23.857-12.365 43.704-29.374 58.983-49.976l0.323-0.456c15.488-21.035 26.539-45.141 33.408-72.149 6.869-26.965 9.259-55.125 7.296-84.608h-274.389c0.043-30.037 10.155-58.496 25.856-73.771zM809.813 481.28c-12.416 13.739-33.408 21.163-59.093 21.163-16.683 0-30.464-2.773-41.557-8.491-10.413-5.329-19.203-12.361-26.351-20.824l-0.103-0.125c-6.177-7.549-10.978-16.493-13.859-26.26l-0.135-0.535c-2.294-7.298-3.973-15.819-4.707-24.608l-0.029-0.438h169.899c-2.475 26.624-11.605 46.293-24.064 60.117zM642.645 680.235h212.864v-51.84h-212.864z" fill="currentColor" />
  </g>
</svg>
