<?xml version="1.0" encoding="utf-8"?>
<svg xmlns="http://www.w3.org/2000/svg" viewBox="0 0 1024 1024" width="24" height="24">
  <g transform="scale(1, -1) translate(0, -960)">
    <path d="M705.664 568.064c-18.051 6.786-38.914 10.713-60.694 10.713-0.427 0-0.854-0.002-1.281-0.005h0.066c-68.267 0-116.48-34.389-116.821-83.755-0.427-36.267 34.261-56.704 60.501-68.821 26.923-12.459 35.925-20.309 35.84-31.445-0.171-16.939-21.504-24.619-41.344-24.619-27.264 0-42.155 3.797-65.067 13.312l-8.491 3.968-9.685-56.832c16.597-6.912 46.507-12.843 77.397-13.355 72.576 0 120.021 34.176 120.576 86.699 0.597 28.971-18.176 50.859-57.685 68.949-24.021 11.733-38.912 19.584-38.912 31.488 0 10.539 12.757 21.803 39.424 21.803 0.907 0.023 1.974 0.037 3.044 0.037 17.585 0 34.329-3.606 49.53-10.12l-0.82 0.312 6.4-2.859 9.685 54.912-1.664-0.384zM882.816 574.165h-53.333c-16.597 0-29.099-4.565-36.352-21.035l-102.571-232.363h72.576l14.507 38.101 88.576-0.085c2.091-8.917 8.491-38.016 8.491-38.016h64l-55.893 253.397zM428.757 576.299h69.163l-43.264-253.525h-69.077l43.179 253.611v-0.085zM253.184 436.565l7.168-35.2 67.584 172.8h73.259l-108.843-253.056h-73.088l-59.733 214.272c-1.009 3.606-3.281 6.571-6.296 8.455l-0.061 0.035c-19.507 10.324-42.144 18.951-65.899 24.715l-2.026 0.415 0.939 5.333h111.317c15.104-0.597 27.264-5.333 31.317-21.461l24.32-116.437v0.128zM797.483 410.709l27.563 70.912c-0.341-0.768 5.675 14.635 9.173 24.149l4.736-21.888 16-73.131-57.472-0.043z" fill="currentColor" />
  </g>
</svg>
