<?xml version="1.0" encoding="utf-8"?>
<svg xmlns="http://www.w3.org/2000/svg" viewBox="0 0 1024 1024" width="24" height="24">
  <g transform="scale(1, -1) translate(0, -960)">
    <path d="M427.221 373.845l-96.171-16.512c14.49-39.765 40.56-72.42 74.094-94.751l0.7-0.439 36.907 89.387c1.009 1.677 1.605 3.702 1.605 5.866 0 1.385-0.244 2.712-0.692 3.942l0.026-0.080c-0.939 7.68-8.704 12.587-16.469 12.587zM464.128 498.176c8.747 0 16.512 6.784 16.512 15.531l4.864 97.152-19.456-3.883c-35.467-8.524-66.067-25.876-90.408-49.617l0.040 0.039 80.64-57.301c2.944-0.939 4.907-1.92 7.808-1.92zM421.376 435.029c2.382 2.727 3.834 6.318 3.834 10.249 0 4.872-2.231 9.222-5.727 12.086l-0.028 0.022-71.893 64.128c-18.022-29.868-28.684-65.936-28.684-104.494 0-4.938 0.175-9.836 0.519-14.686l-0.037 0.652 94.251 27.179c3.883 0.981 5.845 1.963 7.765 4.864zM483.541 401.024l26.283-12.629 26.197 12.629 6.827 28.203-18.475 23.296h-29.141l-18.475-23.296zM540.885 504.96c4.864-6.784 14.549-7.765 21.333-3.883l79.659 56.32c-28.589 28.572-66.594 47.725-108.959 52.406l-0.822 0.074 5.845-98.133c0-0.015 0-0.032 0-0.050 0-2.659 1.131-5.053 2.938-6.729l0.006-0.005zM936.277 358.272l-73.813 317.696c-4.821 15.531-16.512 28.16-31.104 35.925l-296.277 141.867c-7.765 3.883-16.512 4.864-24.277 4.864s-16.512 0-24.277-1.92l-296.363-142.848c-14.651-6.814-25.435-19.827-29.073-35.575l-0.068-0.351-72.875-319.659c-2.901-16.512 0.981-33.024 10.667-46.635l205.013-253.568c11.648-11.648 28.16-19.456 44.672-20.437h326.443c17.493-1.92 34.005 5.845 44.715 20.437l205.013 253.568c9.685 13.611 13.568 30.123 11.605 46.635zM814.891 336.896c-1.963 0-2.901 0-4.864 0.981-0.939 0.981-0.939 0.981-1.92 0.981-1.963 0-2.901 0.939-3.925 0.939-3.883 0.981-6.784 2.901-10.667 4.864-2.184 0.203-4.172 0.89-5.905 1.954l0.059-0.034h-0.939c-8.838 3.568-19.276 6.599-30.078 8.59l-1.026 0.157h-0.939c-0.084 0.002-0.182 0.004-0.281 0.004-2.888 0-5.519-1.104-7.492-2.912l0.008 0.007s0-0.981-0.981-0.981l-7.808 1.024c-18.536-56.271-55.63-102.176-103.898-131.538l-1.062-0.6 2.901-7.765s-0.939 0-0.939-0.939c-1.024-1.664-1.631-3.681-1.631-5.839 0-1.396 0.254-2.733 0.718-3.967l-0.026 0.078c3.883-9.728 8.747-19.413 15.531-28.16v-1.92c1.563-1.354 2.861-2.965 3.838-4.774l0.044-0.090c2.733-2.755 5.007-5.97 6.694-9.519l0.090-0.209c0.981-0.939 1.963-1.92 1.963-2.901 0 0 0.939 0 0.939-0.939 1.041-2.637 1.645-5.692 1.645-8.888 0-2.023-0.242-3.99-0.699-5.873l0.035 0.17c-1.227-4.746-4.427-8.575-8.65-10.624l-0.096-0.042c-2.901-0.939-4.864-1.92-7.808-1.92-8.008 0.313-14.876 4.9-18.418 11.531l-0.057 0.117c-0.939 0-0.939 0.939-0.939 0.939-0.939 0.981-0.939 1.92-1.963 2.901-1.92 2.901-2.901 6.784-3.883 10.667l-1.963 5.845v0.939c-3.578 11.58-7.864 21.555-13.054 30.962l0.425-0.84c-1.865 2.718-4.533 4.765-7.659 5.814l-0.106 0.031c0 0.981 0 0.981-0.981 0.981l-3.883 6.784c-9.728-2.901-20.437-6.784-31.104-8.747-17.493-4.864-34.987-6.784-52.437-6.784-0.477-0.004-1.041-0.006-1.605-0.006-29.831 0-58.33 5.703-84.466 16.079l1.549-0.542-3.883-7.765c0-0.981 0-0.981-0.981-0.981-3.237-1.071-5.907-3.121-7.732-5.794l-0.033-0.051c-4.864-9.728-9.728-19.413-12.629-30.123l-1.92-5.845c-0.981-3.883-2.901-6.784-3.883-10.667-0.939-0.981-1.92-1.92-1.92-2.901-0.981 0-0.981-0.939-0.981-0.939-3.579-6.766-10.459-11.363-18.437-11.647l-0.038-0.001c-2.509 0.217-4.812 0.903-6.888 1.969l0.104-0.049c-5.96 3.539-9.892 9.942-9.892 17.264 0 3.273 0.786 6.362 2.179 9.090l-0.052-0.113c0.981 0 0.981 0.981 0.981 0.981 0.939 0.981 0.939 1.92 1.92 2.901 2.901 3.883 4.864 7.765 6.784 9.728s2.901 2.901 3.883 4.864v0.981c5.69 8.114 10.886 17.369 15.133 27.132l0.398 1.028c0.418 1.139 0.659 2.455 0.659 3.827 0 2.18-0.61 4.218-1.669 5.952l0.029-0.050s-0.939 0-0.939 0.939l4.864 6.827c-9.973 5.299-18.569 11.103-26.488 17.694l0.248-0.2c-36.78 28.67-64.505 67.378-79.187 112.008l-0.472 1.656-8.747-0.939s0 0.939-0.981 0.939c-1.942 1.801-4.552 2.907-7.42 2.907-0.122 0-0.243-0.002-0.363-0.006h-0.921c-12.164-2.111-22.928-5.146-33.21-9.146l1.167 0.4h-1.024c-1.92 0-3.883-0.981-5.845-1.963-2.901-0.939-6.784-2.901-10.667-3.883-0.939 0-3.883 0.939-3.883 0 0-0.981 0-0.981-0.981-0.981-1.92-0.981-2.901-0.981-4.864-0.981-0.571-0.064-1.233-0.1-1.903-0.1-8.436 0-15.523 5.774-17.525 13.586l-0.027 0.125c-0.222 1.090-0.35 2.344-0.35 3.627 0 9.389 6.815 17.186 15.768 18.715l0.112 0.016c0.981 0.981 0.981 0.981 1.963 0.981 1.92 0 2.901 0.939 3.883 0.939 3.883 0 7.765 0.981 11.648 0.981 1.92 0.939 3.883 0.939 5.845 0.939 12.213 1.018 23.458 3.088 34.287 6.15l-1.263-0.305c2.901 1.963 5.845 3.883 6.827 6.827 0 0 0.939 0 0.939 0.939l7.765 1.963c-8.747 55.381 3.883 111.701 34.005 159.317 0.939 1.92 1.92 2.901 2.901 4.864l-5.589 5.632c-0.036-0.304-0.096-0.579-0.179-0.843l0.009 0.032v0.981l0.171-0.171c0.427 2.773-1.323 6.187-3.072 7.936-7.765 7.765-17.493 13.611-27.221 19.413l-5.803 2.944c-4.28 2.029-7.789 3.962-11.175 6.074l0.466-0.271c-0.939 0-2.901 1.92-2.901 1.92s0 0.981-0.939 0.981c-4.481 3.857-7.301 9.536-7.301 15.873 0 4.235 1.259 8.177 3.424 11.47l-0.049-0.079c2.901 4.864 7.765 6.784 13.611 6.784 5.167-0.129 9.888-1.939 13.661-4.902l-0.050 0.038 0.981-0.981c0.939-0.939 1.92-0.939 2.901-1.92 2.901-2.944 4.864-5.845 7.765-8.747 0.981-0.939 2.901-1.92 3.883-3.883 6.784-7.765 15.531-15.531 24.277-22.357 1.92-0.939 3.883-1.92 5.845-1.92 1.92 0 2.901 0.981 3.883 0.981h0.981l5.845-3.883c31.226 33.329 72.005 57.357 117.962 67.717l1.547 0.293c11.648 1.963 22.315 3.883 33.024 4.864l0.981 7.765v1.92c2.901 1.92 3.883 4.864 4.864 7.765 0 11.648 0 22.357-1.92 33.024v0.981c0 1.92 0 3.883-0.981 5.845-1.055 3.447-1.744 7.432-1.917 11.551l-0.003 0.097v4.821c0 4.864 1.92 9.728 5.845 13.611 4.864 4.864 10.667 7.765 16.512 6.784 9.408-1.342 16.561-9.345 16.561-19.018 0-0.485-0.018-0.965-0.053-1.44l0.004 0.063v-5.845c-0.981-3.883-0.981-7.765-1.92-11.648 0-1.92-0.981-3.883-0.981-5.803v-0.981c-2.048-11.648-2.048-22.357-2.048-33.024 0.981-2.901 1.92-5.803 4.864-7.765v0.981l0.981-7.765c48.192-5.166 91.354-23.357 126.857-50.939l-0.564 0.421c7.808-7.765 16.512-15.531 24.277-23.296l7.808 4.864h0.939c0.939-0.981 2.901-0.981 3.883-0.981 1.963 0 3.883 0.981 5.845 1.92 8.747 5.845 17.493 13.611 24.277 21.376 0.939 0.981 2.901 1.963 3.883 3.883 1.963 2.901 4.864 5.845 7.808 8.747 0.939 0 1.92 0.939 2.901 1.92l0.939 0.981c3.719 2.901 8.418 4.706 13.533 4.863l0.035 0.001c4.864 0 10.709-2.901 13.611-6.827 6.784-8.747 4.821-20.395-3.883-27.179 0-0.981 0.939-0.981 0-1.963-0.981-0.939-1.963-0.939-2.901-1.92-3.925-1.92-6.827-3.883-10.709-5.845l-5.845-2.901c-10.298-6-19.203-12.418-27.43-19.592l0.209 0.178c-1.92-1.963-2.901-5.845-2.901-8.747v-0.981l-5.803-5.845c15.531-24.277 27.221-51.499 34.005-79.659 5.845-28.16 7.765-57.301 3.883-85.461l7.765-1.963c1.241-3.132 3.684-5.562 6.746-6.756l0.081-0.028c10.667-2.901 22.315-4.864 32.981-5.845h0.981c1.44-0.617 3.116-0.976 4.876-0.976 0.341 0 0.679 0.013 1.013 0.040l-0.044-0.003c3.883 0 7.765 0 11.605-0.981 1.963 0 3.925 0 3.925-0.981 0-0.939 0.939-0.939 1.92-0.939 9.551-2.348 16.664-10.458 17.488-20.354l0.006-0.083c-3.002-7.953-10.498-13.531-19.313-13.653h-0.015zM515.627 332.032c-2.15 1.259-4.734 2.002-7.492 2.002-4.842 0-9.149-2.292-11.896-5.85l-0.026-0.035-47.616-86.485c19.456-5.803 40.832-9.728 61.227-9.728 14.549 0 28.16 1.92 41.771 4.864 6.784 1.92 12.629 2.901 18.475 3.883l-46.635 84.523c-2.944 2.944-4.907 4.907-7.808 6.827zM671.104 521.515l-72.875-66.048c-1.81-1.845-3.159-4.148-3.858-6.719l-0.025-0.108c-1.963-8.747 2.901-17.493 11.648-19.413l92.288-26.24c0.607 5.648 0.952 12.2 0.952 18.833 0 15.037-1.778 29.658-5.135 43.666l0.257-1.272c-5.13 21.689-13.136 40.811-23.746 58.168l0.492-0.867zM582.656 372.864c-5.518-2.553-9.277-8.042-9.277-14.41 0-1.445 0.194-2.846 0.557-4.176l-0.026 0.111 37.931-91.349c23.685 15.082 43.201 34.598 57.835 57.532l0.448 0.751c7.765 10.667 13.568 23.339 18.475 36.907l-97.152 16.512c-3.198-0.143-6.199-0.82-8.971-1.942l0.181 0.065z" fill="currentColor" />
  </g>
</svg>
