<?xml version="1.0" encoding="utf-8"?>
<svg xmlns="http://www.w3.org/2000/svg" viewBox="0 0 1024 1024" width="24" height="24">
  <g transform="scale(1, -1) translate(0, -960)">
    <path d="M516.352 64c59.989 0 298.027 270.037 298.027 451.029 0 173.269-135.339 316.971-298.027 316.971-171.392 0-306.688-143.616-306.688-316.971-0.043-180.949 237.995-451.029 306.688-451.029zM468.437 708.907c14.528 3.768 31.206 5.931 48.389 5.931 0.133 0 0.266 0 0.399 0h-0.021c96 0 178.603-81.621 178.603-187.648 0-95.488-82.603-177.109-179.029-177.109-107.051 0-189.611 81.621-189.611 177.109 0 44.672 14.421 84.48 39.339 116.181v-0.939c0-39.851 32.213-71.509 72.021-71.509 39.808-0.085 73.472 32.597 73.472 72.405-0.089 29.329-17.779 54.505-43.058 65.527l-0.462 0.18-0.043-0.128z" fill="currentColor" />
  </g>
</svg>
