<?xml version="1.0" encoding="utf-8"?>
<svg xmlns="http://www.w3.org/2000/svg" viewBox="0 0 1024 1024" width="24" height="24">
  <g transform="scale(1, -1) translate(0, -960)">
    <path d="M435.115 570.581l141.184 204.757c26.795 38.485 61.184 57.771 103.552 57.771 34.389 0 64.256-12.245 89.472-36.736 25.173-24.491 37.76-53.76 37.76-87.851 0-25.173-6.613-47.488-20.011-66.688l-127.275-185.173 155.691-197.419c15.488-19.669 23.339-42.667 23.339-68.992 0-34.816-12.203-64.768-36.693-89.813-21.903-23.126-52.827-37.518-87.113-37.518-0.634 0-1.268 0.005-1.9 0.015l0.095-0.001c-38.187 0-67.285 12.416-87.339 37.248l-190.677 237.995v-131.157c0-37.504-6.485-66.603-19.499-87.424-23.68-37.76-57.856-56.661-103.125-56.661-41.088 0-73.003 13.995-95.573 41.685-21.163 25.685-31.744 59.563-31.744 101.845v486.528c0 39.936 10.795 72.917 32.213 98.901 22.4 27.435 53.547 41.173 93.269 41.173 37.845 0 69.291-13.739 94.549-41.173 14.037-15.232 22.912-30.592 26.667-46.165 2.261-9.685 3.371-27.563 3.371-54.016v-121.173h-0.213z" fill="currentColor" />
  </g>
</svg>
