<?xml version="1.0" encoding="utf-8"?>
<svg xmlns="http://www.w3.org/2000/svg" viewBox="0 0 1024 1024" width="24" height="24">
  <g transform="scale(1, -1) translate(0, -960)">
    <path d="M512 874.667c235.605 0 426.667-191.061 426.667-426.667s-191.061-426.667-426.667-426.667-426.667 191.061-426.667 426.667 191.061 426.667 426.667 426.667zM427.221 305.835c6.229-22.912 5.547-44.331-0.896-63.701l-2.304-6.4c-5.725-13.508-13.296-25.101-22.557-35.108l0.072 0.079c-24.832-27.008-59.477-37.205-74.325-28.629-16 9.344-8.021 47.445 20.779 77.867 30.976 32.64 75.349 53.675 75.349 53.675v0.085l3.883 2.133zM779.563 692.011c-19.285 75.819-144.939 100.779-263.893 58.496-70.656-25.131-147.328-64.64-202.368-116.181-65.536-61.184-75.947-114.517-71.68-136.789 15.147-78.635 122.923-130.048 167.253-168.192v-0.213c-13.099-6.357-108.715-54.357-131.072-104.021-24.021-52.267 3.755-89.643 21.888-94.379 56.021-15.488 113.579 12.8 144.555 58.624 29.824 44.843 27.221 102.4 14.379 130.688 17.621 4.779 38.357 6.912 65.024 3.669 74.709-8.491 89.643-55.467 86.357-74.667-3.157-19.157-18.603-30.336-23.936-33.536-5.376-3.243-6.955-4.309-6.443-6.443 0.555-3.157 3.243-3.157 7.467-2.688 5.888 1.067 38.997 16 40.576 52.352 1.579 45.824-42.155 96.981-120.021 96-32-0.597-52.309-3.243-66.688-9.131-0.986 1.514-2.241 2.768-3.706 3.725l-0.048 0.030c-48 51.755-137.088 88.021-133.333 156.8 1.067 25.088 10.112 91.179 170.667 171.179 131.755 65.621 236.843 47.445 255.019 7.467 26.027-57.003-56.064-163.2-193.109-178.645-52.267-5.888-79.445 14.379-86.443 21.888-7.424 8.021-8.448 8.533-11.136 6.869-4.309-2.133-1.621-9.045 0-13.355 4.267-10.624 20.779-29.355 49.621-38.912 25.045-8.021 86.357-12.757 160 16 82.645 31.957 147.157 121.088 128.512 195.755l2.56-2.389z" fill="currentColor" />
  </g>
</svg>
