<?xml version="1.0" encoding="utf-8"?>
<svg xmlns="http://www.w3.org/2000/svg" viewBox="0 0 1024 1024" width="24" height="24">
  <g transform="scale(1, -1) translate(0, -960)">
    <path d="M569.045 576h-121.088v-128h121.088c0.697-0.027 1.515-0.043 2.337-0.043 35.37 0 64.043 28.673 64.043 64.043s-28.673 64.043-64.043 64.043c-0.822 0-1.64-0.015-2.455-0.046l0.117 0.004zM512 874.667c-235.648 0-426.667-191.019-426.667-426.667s191.019-426.667 426.667-426.667 426.667 191.019 426.667 426.667-191.019 426.667-426.667 426.667zM569.045 362.667h-121.088v-128h-85.248v426.667h206.379c0.013 0 0.028 0 0.043 0 82.427 0 149.248-66.821 149.248-149.248 0-0.015 0-0.030 0-0.045v0.002c0-0.025 0-0.055 0-0.085 0-82.451-66.84-149.291-149.291-149.291-0.015 0-0.030 0-0.045 0h0.002z" fill="currentColor" />
  </g>
</svg>
