<?xml version="1.0" encoding="utf-8"?>
<svg xmlns="http://www.w3.org/2000/svg" viewBox="0 0 1024 1024" width="24" height="24">
  <g transform="scale(1, -1) translate(0, -960)">
    <path d="M730.88 546.987s0 0 0 0 0 0 0 0v0l207.787-90.453v4.693c-2.987 10.24-11.947 19.2-29.867 37.12l-85.333 85.333-88.32-37.12zM520.533 651.093c3.361-5.78 5.764-12.546 6.792-19.755l0.035-0.298s0 0 0 0v0l128-55.040c3.557 2.441 7.659 4.471 12.038 5.88l0.335 0.093s0 0 0 0v0 0l20.48 128-85.333 85.333-83.2-140.8s0-2.133 0.853-3.413zM452.693 661.333c7.985 6.49 18.278 10.421 29.489 10.421 4.696 0 9.232-0.69 13.51-1.974l-0.332 0.086h2.133l92.16 142.507-28.16 28.16c-17.92 17.92-26.88 26.88-37.12 29.867-4.011 1.377-8.633 2.172-13.44 2.172s-9.429-0.795-13.741-2.261l0.301 0.089c-10.24-2.987-19.2-11.947-37.12-29.867l-128-128c13.227-5.973 106.667-45.227 118.613-50.773zM319.573 435.627v0h11.52c1.855 0.197 4.008 0.31 6.187 0.31s4.331-0.113 6.452-0.332l-0.265 0.022 101.547 157.013s0 0 0 2.56c-7.865 7.744-12.738 18.508-12.738 30.41 0 3.594 0.444 7.084 1.281 10.418l-0.063-0.294s0 0 0 0l-49.493 25.6-72.533 31.147-98.133-99.84 107.093-156.16zM644.693 539.733v3.413c-0.113 0.897-0.178 1.934-0.178 2.987s0.065 2.090 0.19 3.109l-0.012-0.122s0 0 0 0l-122.027 54.187h-2.133c-8.141-12.157-21.821-20.054-37.345-20.054-0.071 0-0.142 0-0.212 0h-7.242s-2.133 0-2.56-2.133v0l-100.693-154.453s0 0 0-2.133v0l270.080 115.2s2.133-0.853 2.133 0zM702.72 578.56v0c4.333-2.046 8.014-4.772 11.071-8.083l0.022-0.024 85.333 35.84-80.64 79.787-17.067-105.387zM605.013 342.187v0s0 0 0 0v0c6.682 12.287 19.495 20.488 34.223 20.488 0.269 0 0.537-0.003 0.804-0.008l-0.040 0.001s0 0 0 2.133v0l23.040 143.787-3.84 3.413-275.2-113.067c1.098-2.938 2.269-6.785 3.243-10.71l0.17-0.81zM85.333 450.133v0 0 0zM603.307 314.453s0 0 0 0v0l-222.72 48.213v-2.56l194.133-296.107 17.92 18.347c6.4 39.253 30.293 184.747 33.28 201.387s0 0 0 0c-12.255 5.518-20.98 16.938-22.596 30.538l-0.018 0.182zM673.707 300.8v0s0 0 0 0c-4.002-5.034-9.173-8.971-15.111-11.429l-0.249-0.091-27.307-168.107 155.307 156.16zM719.36 519.68c-0.375 0.182-0.815 0.288-1.28 0.288s-0.905-0.106-1.298-0.296l0.018 0.008c-6.299-7.854-15.438-13.204-25.836-14.487l-0.191-0.019s0 0 0-2.56v0l-23.467-145.067c8.094-6.27 13.524-15.645 14.496-26.307l0.011-0.146s0 0 2.56 0v0l125.867-26.027 97.28 97.28c10.345 9.342 19.476 19.691 27.346 30.986l0.388 0.588zM354.133 337.493v0c-5.459-2.027-11.766-3.2-18.347-3.2s-12.887 1.173-18.722 3.322l0.376-0.121s0 0 0 0v0l-52.053-81.067 200.107-199.68c10.051-12.48 22.41-22.658 36.487-29.993l0.633-0.3c4.011-1.377 8.633-2.172 13.44-2.172s9.429 0.795 13.741 2.261l-0.301-0.089c11.957 5.381 21.965 13.201 29.747 22.885l0.12 0.155-200.107 290.133zM555.093 46.507v0 0 0zM272.64 380.16s2.56 0 2.56 2.133 0 0-2.56 0v0l-176.64 36.693c7.060-8.281 14.168-15.795 21.642-22.928l0.118-0.112 58.027-58.027 96.853 42.667zM284.587 408.32v0 0c2.319 4.436 5.165 8.235 8.524 11.511l0.009 0.009s0 0 0 2.56c-32.853 51.2-66.987 100.693-101.12 150.613l-74.667-74.667c-17.92-17.92-26.88-26.88-29.867-37.12-1.377-3.438-2.175-7.424-2.175-11.596 0-0.574 0.015-1.144 0.045-1.71l-0.003 0.079 199.253-42.667zM291.84 351.573v0c-1.085 1.253-2.073 2.65-2.919 4.138l-0.067 0.129s0 0 0 0v0l-93.013-35.84 46.080-46.933 49.92 77.653s0.427 0.853 0 0.853z" fill="currentColor" />
  </g>
</svg>
