<?xml version="1.0" encoding="utf-8"?>
<svg xmlns="http://www.w3.org/2000/svg" viewBox="0 0 1024 1024" width="24" height="24">
  <g transform="scale(1, -1) translate(0, -960)">
    <path d="M475.264 360.192c-18.688 0-29.568 12.544-29.568 45.141v115.029l62.123-4.779 3.157 29.611-63.829-3.157v65.28h-18.688c-9.216-51.243-32.384-69.888-63.488-73.045v-15.531h37.077v-130.645c0-35.669 25.088-54.229 56.021-54.229 24.96 0 51.285 10.88 60.501 32.555l-9.259 10.88c-4.608-7.68-17.152-17.109-34.048-17.109zM326.187 394.453c-12.544-29.44-32.725-31.104-52.907-31.104h-65.28c-21.675 0-31.104 7.936-31.104 26.453v96.341s46.592 0 62.165-1.664c12.416-1.493 18.688-4.651 23.296-20.181l4.608-21.803h18.688l-1.664 55.851 3.157 54.528h-18.517l-6.272-24.96c-3.115-17.024-6.272-18.688-23.296-21.675-21.675-1.621-62.165-1.621-62.165-1.621v114.944c0 4.779 0 6.272 7.893 6.272h97.749c17.152 0 26.453-13.909 32.555-41.813l6.272-21.845h17.024c1.664 62.165 3.157 88.491 3.157 88.491s-41.856-4.48-66.645-4.48h-124.288l-65.28 1.323v-17.024l21.675-4.565c15.659-3.157 20.267-6.272 20.267-20.181 0 0 1.664-41.984 1.664-111.744 0-69.931-1.664-111.915-1.664-111.915 0-12.416-4.608-17.024-20.267-20.181l-21.675-4.821v-16.896l66.773 1.493h111.915c24.789 0 83.84-1.493 83.84-1.493 1.451 15.403 9.216 83.797 10.88 91.563h-15.701l-16.853-37.291zM583.893 506.325c0 20.224 18.645 27.947 37.333 27.947 15.36 0 27.861-6.272 31.104-13.867l10.88-31.104 15.403 1.493c0 15.531 1.621 35.755 4.736 51.243-13.995 6.272-41.941 9.429-60.629 9.429-41.984 0-74.539-18.816-74.539-59.179 0-71.424 104.107-55.893 104.107-108.757 0-17.024-10.923-31.104-37.376-31.104-24.789 0-35.712 12.544-40.32 24.96l-12.373 29.568h-15.744c1.707-20.309 3.157-40.448 0-58.965 0 0 32.725-12.544 65.323-12.544 43.605 0 79.275 21.632 79.275 62.165 0 71.424-107.179 60.629-107.179 108.715zM855.637 546.645v-15.531l11.051-3.157c10.752-2.987 15.36-7.595 15.36-15.488 0-4.608-1.451-6.144-3.115-12.416-4.608-12.416-34.219-85.461-49.579-118.059-8.909 19.574-24.703 61.228-39.649 103.284l-6.986 22.54c-1.493 3.115-1.493 4.608-1.493 6.229 0 6.315 4.48 12.459 15.403 13.909l14.037 3.157v15.531l-57.429-3.115-46.763 1.664v-15.701l7.979-2.944c10.709-3.157 12.245-4.693 20.011-21.845 29.568-65.28 62.165-150.571 73.216-177.067-24.917-43.477-51.371-55.851-71.552-55.851-12.416 0-17.024 6.272-18.56 14.037l-6.229 32.555-17.067-1.493c-3.115-20.352-6.272-41.984-10.88-59.008 12.245-7.765 26.283-12.544 44.928-12.501 29.483 0 71.467 7.765 111.915 99.499l68.309 159.872c6.187 12.501 7.765 14.037 23.296 20.309l7.808 6.144v15.445l-40.32-1.451-43.691 1.451z" fill="currentColor" />
  </g>
</svg>
