<?xml version="1.0" encoding="utf-8"?>
<svg xmlns="http://www.w3.org/2000/svg" viewBox="0 0 1024 1024" width="24" height="24">
  <g transform="scale(1, -1) translate(0, -960)">
    <path d="M161.707 526.080c-0.701 0.233-1.508 0.367-2.347 0.367s-1.646-0.134-2.401-0.383l0.054 0.015-8.533-11.52s0 0 0 0h150.187c1.761 0.257 3.264 1.199 4.254 2.542l0.012 0.018 7.253 11.093s0 2.133 0 2.133zM98.987 488.107c-0.692 0.304-1.499 0.48-2.347 0.48s-1.655-0.177-2.385-0.495l0.039 0.015-8.533-11.093s0-2.133 0-2.133h196.267c0.065-0.004 0.141-0.006 0.217-0.006 1.664 0 3.081 1.059 3.614 2.539l0.008 0.027 3.413 9.813cv2.56zM196.267 448c-1.798-0.14-3.341-1.117-4.253-2.538l-0.013-0.022-5.547-10.24s0-2.56 0-2.56h91.733c1.566 0.192 2.795 1.42 2.985 2.97l0.002 0.016v9.813s0 2.987-2.56 2.987zM878.507 578.987c-23.817 15.765-53.052 25.152-84.481 25.152-12.101 0-23.877-1.392-35.176-4.023l1.043 0.205c-47.881-7.017-88.737-32.602-115.718-69.073l-0.335-0.474c-12.153-15.287-21.89-33.154-28.245-52.553l-0.342-1.207h-133.973c-0.085 0.002-0.186 0.004-0.287 0.004-4.511 0-8.369-2.801-9.928-6.758l-0.025-0.072c-5.973-10.667-15.787-32.427-21.333-45.227s0-12.373 7.68-12.373h80.213c-3.554-5.807-7.213-10.823-11.231-15.525l0.137 0.165c-14.271-17.423-35.785-28.454-59.876-28.454-3.712 0-7.362 0.262-10.934 0.768l0.41-0.048c-31.994 4.557-56.323 31.769-56.323 64.663 0 0.217 0.001 0.434 0.003 0.65v-0.033c-0.039 0.981-0.061 2.134-0.061 3.291 0 31.934 16.948 59.909 42.34 75.422l0.388 0.22c11.897 8.77 26.846 14.036 43.025 14.036 11.841 0 23.024-2.821 32.912-7.827l-0.417 0.191c7.632-3.951 14.032-9.26 19.108-15.666l0.092-0.121c5.547-6.4 5.973-5.973 12.373-4.267l69.547 18.347c5.12 0 6.827 3.413 4.267 6.827-10.077 24.49-26.719 44.567-47.746 58.587l-0.468 0.293c-22.135 14.764-49.346 23.56-78.613 23.56-11.155 0-22.012-1.278-32.431-3.695l0.964 0.188c-48.047-8.151-88.941-33.954-116.575-70.37l-0.332-0.456c-22.512-27.669-36.148-63.344-36.148-102.204 0-6.836 0.422-13.573 1.241-20.187l-0.080 0.791c3.676-37.874 23.363-70.521 52.115-91.48l0.365-0.254c24.374-18.455 55.202-29.562 88.624-29.562 8.178 0 16.2 0.665 24.016 1.944l-0.853-0.115c49.529 6.033 91.981 32.189 119.552 69.91l0.341 0.49c6.266 8.513 12.092 18.166 17.013 28.338l0.481 1.102c7.291-26.778 22.292-49.387 42.445-65.956l0.222-0.177c27.081-22.824 62.36-36.695 100.879-36.695 0.235 0 0.469 0.001 0.704 0.002h-0.036c10.667 0 21.76 0 33.28 3.84 39.216 7.923 73.134 26.822 99.399 53.319l0.014 0.014c30.196 28.943 48.962 69.606 48.962 114.652 0 8.931-0.738 17.691-2.156 26.22l0.127-0.926c-5.298 39.366-27.825 72.583-59.612 92.271l-0.548 0.316zM802.56 377.173c-10.569-5.786-23.155-9.189-36.536-9.189-11.333 0-22.095 2.441-31.79 6.826l0.486-0.197c-23.957 11.076-40.281 34.903-40.281 62.542 0 5.665 0.686 11.17 1.979 16.436l-0.098-0.471c7.035 36.502 35.245 64.856 71.103 72.011l0.577 0.096c5.478 1.593 11.771 2.509 18.278 2.509 33.835 0 61.884-24.769 67.005-57.164l0.050-0.385c0.12-2.040 0.188-4.425 0.188-6.827s-0.068-4.787-0.203-7.155l0.015 0.328c-0.664-34.789-20.961-64.683-50.246-79.125l-0.528-0.235z" fill="currentColor" />
  </g>
</svg>
