<?xml version="1.0" encoding="utf-8"?>
<svg xmlns="http://www.w3.org/2000/svg" viewBox="0 0 1024 1024" width="24" height="24">
  <g transform="scale(1, -1) translate(0, -960)">
    <path d="M519.552 573.483c-84.297-0.146-152.576-68.515-152.576-152.832 0-0.030 0-0.060 0-0.090v0.005c0-0.013 0-0.028 0-0.043 0-84.334 68.269-152.723 152.557-152.917h0.019c84.258 0.073 152.534 68.394 152.534 152.661 0 0.105 0 0.21 0 0.315v-0.016c0 0.025 0 0.056 0 0.086 0 84.302-68.255 152.662-152.517 152.832h-0.016zM626.987 476.715l-100.949-52.437c-2.987-1.664-6.528 0.725-6.528 3.968v114.005h0.043c0 2.56 2.304 4.437 4.651 4.437 44.793-1.721 83.398-26.652 104.295-63.047l0.324-0.612c1.195-2.347 0.469-5.163-1.835-6.315zM792.661 832h-563.925c-55.645-0.049-100.736-45.169-100.736-100.821 0-0.045 0-0.090 0-0.135v0.007-566.485c0-0.038 0-0.083 0-0.128 0-55.695 45.065-100.864 100.72-101.034h563.941c55.666 0.145 100.736 45.305 100.736 100.992 0 0.075 0 0.15 0 0.225v-0.012 566.187c0 0.051 0 0.111 0 0.171 0 55.695-45.065 100.864-100.72 101.034h-0.016zM446.549 686.763c0 0.013 0 0.028 0 0.043 0 18.365 14.876 33.256 33.235 33.28h77.442c18.347 0 33.195-14.933 33.195-33.323v-26.368c0-0.013 0-0.027 0-0.042 0-2.498-2.025-4.523-4.523-4.523-0.379 0-0.746 0.047-1.098 0.134l0.031-0.007c-19.479 5.638-41.854 8.881-64.986 8.881-24.064 0-47.309-3.509-69.25-10.044l1.714 0.438c-2.987-0.683-5.803 1.408-5.803 4.437v27.093zM302.080 576.299c-6.009 6.020-9.724 14.331-9.724 23.509 0 9.2 3.733 17.528 9.767 23.552v0l15.915 15.915c5.991 5.986 14.264 9.688 23.403 9.688 9.181 0 17.489-3.737 23.486-9.772l0.002-0.002 13.227-13.269c1.835-2.133 1.621-5.419-0.725-6.784-21.406-15.676-39.675-33.999-54.804-54.758l-0.492-0.709c-1.877-2.091-4.864-2.56-6.955-0.469l-13.099 13.099zM519.552 203.52c-119.585 0.097-216.491 97.062-216.491 216.661 0 0.135 0 0.27 0 0.405v-0.021c0 120.021 96.939 217.259 216.491 217.259 0 0 0 0 0.001 0 119.564 0 216.491-96.926 216.491-216.491 0-0.18 0-0.36-0.001-0.54v0.028c0-120.107-96.939-217.301-216.491-217.301z" fill="currentColor" />
  </g>
</svg>
