<?xml version="1.0" encoding="utf-8"?>
<svg xmlns="http://www.w3.org/2000/svg" viewBox="0 0 1024 1024" width="24" height="24">
  <g transform="scale(1, -1) translate(0, -960)">
    <path d="M489.557 344.747c-74.51 0-134.912-60.402-134.912-134.912s60.402-134.912 134.912-134.912v0c74.51 0 134.912 60.402 134.912 134.912s-60.402 134.912-134.912 134.912v0zM657.493 370.603c39.952-41.582 64.555-98.17 64.555-160.503 0-0.108 0-0.216 0-0.324v0.017c0-0.033 0-0.073 0-0.113 0-78.623-39.085-148.118-98.885-190.114l-0.741-0.494c111.317 34.261 203.563 118.059 244.779 219.392 57.088 140.288 3.84 245.803-85.291 341.547 2.816-12.288 4.395-25.259 4.395-38.315-0.035-80.779-53.833-148.982-127.551-170.774l-1.26-0.319zM504.875 541.397c0-57.173 46.379-103.211 103.253-103.211s103.381 46.379 103.381 103.211c-0.024 56.945-46.181 103.101-103.123 103.125h-0.002c-0.013 0-0.028 0-0.043 0-57.023 0-103.272-46.129-103.466-103.107v-0.019zM311.595 60.032c-33.86 40.043-54.443 92.26-54.443 149.285 0 0.167 0 0.334 0.001 0.501v-0.026c0 0.062 0 0.135 0 0.209 0 118.574 88.897 216.385 203.68 230.421l1.12 0.112c-19.757 28.223-31.571 63.269-31.571 101.075 0 98.074 79.505 177.579 177.579 177.579 8.547 0 16.952-0.604 25.177-1.771l-0.944 0.11c-58.069 50.176-116.224 101.077-162.091 156.672 23.339-243.797-221.867-155.221-312.832-379.904-60.672-150.485-5.888-336.725 154.325-434.261z" fill="currentColor" />
  </g>
</svg>
