<?xml version="1.0" encoding="utf-8"?>
<svg xmlns="http://www.w3.org/2000/svg" viewBox="0 0 1024 1024" width="24" height="24">
  <g transform="scale(1, -1) translate(0, -960)">
    <path d="M515.285 832c-210.261 0-387.285-168.96-387.285-377.301v-390.699l387.2 0.427c210.261 0 380.8 175.36 380.8 383.701 0 208.384-170.667 383.872-380.715 383.872zM682.539 283.349c-42.493-40.347-100.072-65.163-163.448-65.163-35.094 0-68.412 7.61-98.391 21.269l1.487-0.607-153.387-34.347 42.709 136.192c-17.957 32.164-28.531 70.566-28.531 111.437 0 44.183 12.357 85.48 33.802 120.624l-0.579-1.020c42.218 68.951 117.132 114.261 202.629 114.261 0.058 0 0.117 0 0.175 0h-0.009v-0.043h0.256c0.126 0 0.275 0 0.425 0 98.149 0 182.308-59.896 217.92-145.129l0.578-1.559c10.757-25.805 17.005-55.784 17.005-87.222 0-66.391-27.864-126.274-72.537-168.593l-0.106-0.1z" fill="currentColor" />
  </g>
</svg>
