<?xml version="1.0" encoding="utf-8"?>
<svg xmlns="http://www.w3.org/2000/svg" viewBox="0 0 1024 1024" width="24" height="24">
  <g transform="scale(1, -1) translate(0, -960)">
    <path d="M865.408 518.144h-355.285v-147.243h204.459c-19.029-93.568-98.688-147.328-204.459-147.328-0.114 0-0.249 0-0.384 0-124.183 0-224.853 100.67-224.853 224.853 0 0.15 0 0.3 0 0.45v-0.023c0 0.114 0 0.249 0 0.384 0 124.183 100.67 224.853 224.853 224.853 0.135 0 0.27 0 0.406 0h-0.021c53.717 0 102.272-19.072 140.373-50.261l110.933 110.891c-67.584 58.923-154.24 95.275-251.307 95.275-0.33 0.001-0.72 0.002-1.111 0.002-209.909 0-380.075-170.165-380.075-380.075 0-0.391 0.001-0.781 0.002-1.172v0.061c-0.001-0.343-0.002-0.748-0.002-1.154 0-209.886 170.146-380.032 380.032-380.032 0.406 0 0.811 0.001 1.217 0.002h-0.063c190.592 0 363.904 138.624 363.904 381.184 0 22.528-3.456 46.805-8.619 69.333z" fill="currentColor" />
  </g>
</svg>
