<?xml version="1.0" encoding="utf-8"?>
<svg xmlns="http://www.w3.org/2000/svg" viewBox="0 0 1024 1024" width="24" height="24">
  <g transform="scale(1, -1) translate(0, -960)">
    <path d="M408.96 461.141h184.661s103.765-1.664 103.765 100.267v168.576s15.744 102.016-188.117 102.016c-195.157 0-182.997-84.608-182.997-84.608l0.256-87.68h186.155v-26.325h-260.096s-124.885 14.165-124.885-182.699 109.013-189.867 109.013-189.867h65.024v91.349s-3.541 108.971 107.221 108.971zM406.571 706.048c-18.498 0-33.493 14.995-33.493 33.493s14.995 33.493 33.493 33.493v0c18.498 0 33.493-14.995 33.493-33.493s-14.995-33.493-33.493-33.493v0zM787.285 638.635h-65.024v-91.349s3.541-108.971-107.221-108.971h-184.661s-103.765 1.707-103.765-100.267v-168.576s-15.744-102.016 188.117-102.016c195.115 0 182.955 84.608 182.955 84.608l-0.256 87.637h-186.155v26.325h260.139s124.885-14.165 124.885 182.699-109.013 189.909-109.013 189.909zM617.429 193.365c18.498 0 33.493-14.995 33.493-33.493s-14.995-33.493-33.493-33.493v0c-18.498 0-33.493 14.995-33.493 33.493s14.995 33.493 33.493 33.493v0z" fill="currentColor" />
  </g>
</svg>
