<?xml version="1.0" encoding="utf-8"?>
<svg xmlns="http://www.w3.org/2000/svg" viewBox="0 0 1024 1024" width="24" height="24">
  <g transform="scale(1, -1) translate(0, -960)">
    <path d="M668.203 296.576c28.552 2.869 50.657 26.774 50.657 55.841 0 1.159-0.035 2.31-0.104 3.452l0.008-0.157c-1.422 30.807-26.609 55.279-57.573 55.552h-2.075c-30.961-1.14-55.628-26.513-55.628-57.649 0-0.688 0.012-1.373 0.036-2.056l-0.003 0.099c1.024-16.171 7.637-29.312 16.683-38.869-35.285-68.651-88.32-119.211-168.704-161.621-54.016-28.288-111.104-38.912-166.613-31.317-46.464 6.528-82.773 27.307-105.088 60.629-33.28 50.56-36.352 105.045-8.576 159.573 17.478 33.121 41.313 60.679 70.089 81.929l0.653 0.46c-5.439 14.475-10.325 31.912-13.784 49.857l-0.339 2.111c-149.589-107.093-134.315-253.525-88.917-322.731 33.877-50.517 103.040-82.816 178.773-82.816 20.224 0 41.472 1.493 62.165 6.571 131.285 25.259 230.784 104.021 287.872 220.16l0.469 0.981zM848.512 422.869c-78.251 91.904-193.408 142.379-324.736 142.379h-17.195c-8.533 18.688-28.203 30.336-50.475 30.336h-1.536c-31.744 0-56.533-27.307-55.509-59.093 0.981-30.293 26.752-55.552 57.6-55.552h2.517c22.784 0.889 42.049 15.061 50.336 34.952l0.139 0.376h18.731c77.824 0 151.509-22.699 218.709-67.157 51.456-33.792 88.405-78.251 109.099-131.285 18.133-43.477 17.152-85.888-1.493-121.301-28.8-55.552-77.312-84.821-141.397-84.821-40.405 0-79.829 12.629-100.053 21.717-12.075-10.027-32.341-26.709-47.019-36.821 44.459-20.181 89.429-31.829 132.821-31.829 98.517 0 171.648 55.552 199.509 109.099 30.251 60.672 27.776 162.688-49.536 249.984l-0.512-0.981zM326.272 278.4c0.981-30.293 26.709-55.552 57.6-55.552h2.048c30.87 0.728 55.616 25.925 55.616 56.902 0 0.951-0.023 1.896-0.069 2.835l0.005-0.132c0 30.293-26.283 55.509-57.088 55.509h-2.048c-2.048 0-5.035 0-7.595-0.939-41.899 70.699-59.605 146.517-52.992 228.224 4.011 61.653 24.192 115.2 60.587 159.659 30.293 37.888 87.381 56.576 126.293 57.6 109.056 2.048 154.539-133.888 158.037-187.904l50.517-15.104c-11.648 165.632-114.645 252.501-213.163 252.501-92.416 0-177.749-67.157-212.096-165.717-47.019-131.285-16.171-257.536 41.429-358.571-5.035-6.571-8.064-18.176-7.083-29.312z" fill="currentColor" />
  </g>
</svg>
