<?xml version="1.0" encoding="utf-8"?>
<svg xmlns="http://www.w3.org/2000/svg" viewBox="0 0 1024 1024" width="24" height="24">
  <g transform="scale(1, -1) translate(0, -960)">
    <path d="M848.683 627.712c29.515-52.982 46.891-116.219 46.891-183.514 0-0.178 0-0.357 0-0.535v0.028c0-0.028 0-0.061 0-0.095 0-140.766-75.861-263.814-188.93-330.492l-1.79-0.976 117.163 338.731c21.888 54.699 29.184 98.517 29.184 137.344 0 0.106 0 0.231 0 0.357 0 13.804-0.915 27.394-2.687 40.713l0.17-1.56zM564.907 624c16.704 0.833 31.813 2.174 46.752 4.062l-2.976-0.307c20.693 2.688 18.261 33.067-2.389 31.957 0 0-62.421-4.779-102.4-4.779-37.845 0-101.333 5.333-101.333 5.333-20.779 1.024-23.467-30.421-2.603-31.488 0 0 19.157-2.219 40.021-3.2l59.691-163.755-84.267-251.691-139.691 414.891c17.049 0.866 32.2 2.131 47.213 3.854l-3.352-0.313c20.779 2.688 18.347 33.067-2.347 31.872 0 0-62.080-4.907-102.187-4.907-7.125 0-15.573 0.299-24.533 0.555 69.461 102.272 187.605 171.093 321.493 171.093 99.883 0 190.763-38.144 259.029-100.693-1.621 0.085-3.243 0.341-4.992 0.341-37.675 0-64.427-32.853-64.427-68.096 0-31.616 18.219-58.411 37.675-89.941 14.635-25.643 31.659-58.453 31.659-105.856 0-32.555-12.587-70.912-29.227-123.691l-38.229-127.445-138.667 412.8 0.085-0.597zM512 60.288c-0.111 0-0.242 0-0.374 0-38.494 0-75.662 5.675-110.714 16.233l2.714-0.702 115.072 334.421 117.888-323.072c0.896-1.877 1.792-3.627 2.773-5.291-37.919-13.734-81.683-21.675-127.303-21.675-0.020 0-0.040 0-0.060 0h0.003zM128.427 443.691c0 0.131 0 0.286 0 0.441 0 56.365 12.226 109.874 34.169 158.021l-0.975-2.388 182.912-501.291c-128.962 63.656-216.107 194.233-216.107 345.165 0 0.018 0 0.036 0 0.054v-0.003zM512 870.357c-235.221 0-426.667-191.445-426.667-426.667s191.445-426.667 426.667-426.667 426.667 191.445 426.667 426.667-191.445 426.667-426.667 426.667z" fill="currentColor" />
  </g>
</svg>
