<?xml version="1.0" encoding="utf-8"?>
<svg xmlns="http://www.w3.org/2000/svg" viewBox="0 0 1024 1024" width="24" height="24">
  <g transform="scale(1, -1) translate(0, -960)">
    <path d="M582.229 523.221c-2.432 1.365-6.827 2.048-13.355 2.048v-151.125c8.576 0 13.824 1.749 15.829 5.205s2.987 12.843 2.987 28.16v89.259c0 10.411-0.341 17.067-0.981 20.011-0.521 2.754-2.17 5.047-4.438 6.419l-0.042 0.024zM731.52 472.789c-3.499 0-5.845-1.323-6.912-3.883-1.067-2.603-1.579-9.131-1.579-19.627v-60.843c0-10.112 0.597-16.597 1.749-19.456 1.237-2.816 3.669-4.267 7.168-4.267 3.669 0 8.491 1.493 9.6 4.395 1.152 2.944 1.664 9.984 1.664 21.12v59.051c0 9.728-0.597 16.085-1.835 19.072-1.365 2.944-6.272 4.437-9.856 4.437zM853.333 832h-682.667c-23.564 0-42.667-19.103-42.667-42.667v0-682.667c0-23.564 19.103-42.667 42.667-42.667v0h682.667c23.564 0 42.667 19.103 42.667 42.667v0 682.667c0 23.564-19.103 42.667-42.667 42.667v0zM282.923 334.379h-59.819v230.272h59.819v-230.272zM488.661 334.379h-52.181l-0.256 155.435-20.907-155.435h-37.333l-22.059 152.021-0.171-152.021h-52.352v230.272h77.611c2.176-13.952 4.565-30.293 7.083-49.067l8.576-58.496 13.824 107.563h78.165v-230.272zM644.992 402.688c0-20.651-1.152-34.475-3.072-41.387-1.657-6.592-5.24-12.184-10.109-16.304l-0.046-0.038c-5.030-3.967-11.102-6.85-17.733-8.189l-0.272-0.046c-7.083-1.579-17.835-2.347-32.171-2.347h-72.491v230.272h44.672c28.928 0 45.653-1.323 55.851-3.968 10.24-2.645 18.005-6.997 23.253-13.056 5.333-6.059 8.661-12.8 9.984-20.267 1.323-7.424 2.176-22.016 2.176-43.776v-80.896zM800.896 387.243c0-13.824-0.981-24.107-2.816-30.848-2.29-7.391-6.945-13.484-13.065-17.547l-0.119-0.074c-6.496-4.651-14.603-7.438-23.361-7.438-0.367 0-0.734 0.005-1.099 0.015l0.054-0.001c-6.741 0-15.573 1.493-21.419 4.437-6.396 3.34-11.758 7.815-16.006 13.208l-0.079 0.104-3.755-14.677h-53.845v230.229h57.6v-74.88c4.325 5.16 9.66 9.321 15.719 12.21l0.281 0.121c5.845 2.731 14.677 4.096 21.504 4.096 7.936 0 14.848-1.237 20.651-3.712 9.817-4.015 16.976-12.715 18.748-23.245l0.025-0.179c0.683-4.267 0.981-13.355 0.981-27.221v-64.597z" fill="currentColor" />
  </g>
</svg>
