<?xml version="1.0" encoding="utf-8"?>
<svg xmlns="http://www.w3.org/2000/svg" viewBox="0 0 1024 1024" width="24" height="24">
  <g transform="scale(1, -1) translate(0, -960)">
    <path d="M857.6 338.773c-5.757 3.125-12.431 5.756-19.442 7.547l-0.612 0.133v203.093c7.723 1.61 14.575 4.267 20.82 7.86l-0.34-0.18c22.936 13.39 38.102 37.884 38.102 65.92 0 42.015-34.060 76.075-76.075 76.075-13.979 0-27.077-3.77-38.334-10.35l0.36 0.195c-6.744-3.74-12.513-8.285-17.453-13.609l-0.040-0.044-175.36 101.547c1.901 6.176 2.995 13.275 2.995 20.629 0 0.398-0.003 0.794-0.010 1.19l0.001-0.060c0 41.944-34.002 75.947-75.947 75.947s-75.947-34.002-75.947-75.947v0c-0.006-0.336-0.009-0.733-0.009-1.131 0-7.355 1.095-14.454 3.13-21.143l-0.134 0.514-175.36-101.12c-4.976 5.227-10.747 9.638-17.131 13.050l-0.362 0.177c-10.896 6.385-23.994 10.155-37.973 10.155-42.015 0-76.075-34.060-76.075-76.075 0-28.036 15.166-52.53 37.741-65.725l0.36-0.195c5.905-3.413 12.757-6.070 20.024-7.6l0.456-0.080v-203.093c-7.622-1.924-14.297-4.555-20.523-7.911l0.469 0.231c-22.936-13.39-38.102-37.884-38.102-65.92 0-42.015 34.060-76.075 76.075-76.075 13.979 0 27.077 3.77 38.334 10.35l-0.36-0.195c6.538 3.711 12.154 8.104 17.042 13.201l0.025 0.026 175.36-101.12c-1.901-6.176-2.995-13.275-2.995-20.629 0-0.398 0.003-0.794 0.010-1.19l-0.001 0.060c0-41.944 34.002-75.947 75.947-75.947s75.947 34.002 75.947 75.947v0c0.002 0.198 0.003 0.433 0.003 0.667 0 8.314-1.407 16.3-3.997 23.732l0.153-0.506 174.507 100.693c5.319-5.895 11.515-10.867 18.409-14.745l0.364-0.188c10.896-6.385 23.994-10.155 37.973-10.155 42.015 0 76.075 34.060 76.075 76.075 0 28.036-15.166 52.53-37.741 65.725l-0.36 0.195zM286.72 290.56c-1.86 7.595-4.645 14.279-8.292 20.389l0.186-0.336c-3.586 6.594-7.994 12.227-13.183 17.027l-0.043 0.040 229.547 398.080c6.391-1.897 13.735-2.988 21.333-2.988s14.942 1.091 21.882 3.126l-0.549-0.138 230.4-398.080c-5.233-4.84-9.641-10.473-13.056-16.725l-0.171-0.341c-3.462-5.774-6.247-12.458-8.001-19.549l-0.106-0.504zM746.667 644.267c-1.798-6.211-2.832-13.346-2.832-20.722 0-14.032 3.743-27.191 10.284-38.531l-0.199 0.373c10.248-17.835 27.171-30.854 47.276-35.735l0.51-0.105v-203.093h-2.987l-229.973 397.227 2.133 2.987zM461.653 746.667c-0.071-0.321-0.112-0.689-0.112-1.067s0.041-0.746 0.119-1.101l-0.006 0.034-227.84-398.933h-2.987v203.947c20.616 4.986 37.539 18.005 47.594 35.478l0.192 0.362c6.343 10.967 10.085 24.125 10.085 38.158 0 7.376-1.034 14.511-2.965 21.267l0.133-0.545zM572.587 149.333c-13.938 15.231-33.904 24.747-56.094 24.747-0.080 0-0.159 0-0.239 0h0.012c-0.199 0.002-0.433 0.003-0.668 0.003-21.196 0-40.329-8.832-53.92-23.016l-0.025-0.027-175.787 100.693s0 0 0 2.56h459.947v-4.693z" fill="currentColor" />
  </g>
</svg>
