<?xml version="1.0" encoding="utf-8"?>
<svg xmlns="http://www.w3.org/2000/svg" viewBox="0 0 1024 1024" width="24" height="24">
  <g transform="scale(1, -1) translate(0, -960)">
    <path d="M898.645 515.669c-86.869-185.557-296.491-438.059-428.971-438.059-130.56 0-149.376 278.485-220.715 463.744-35.115 91.221-57.771 70.229-123.563 24.192l-40.064 51.797c95.915 84.309 191.957 182.272 250.88 187.691 66.517 6.315 107.392-39.083 122.581-136.235 20.267-127.744 48.512-326.016 97.749-326.016 38.4 0 132.992 157.269 137.899 213.504 8.661 82.347-60.629 84.864-120.661 59.179 95.061 311.253 490.411 253.867 324.864-99.797z" fill="currentColor" />
  </g>
</svg>
