<?xml version="1.0" encoding="utf-8"?>
<svg xmlns="http://www.w3.org/2000/svg" viewBox="0 0 1024 1024" width="24" height="24">
  <g transform="scale(1, -1) translate(0, -960)">
    <path d="M511.403 433.451c-120.533 0-220.715 100.096-220.715 218.539 0 122.539 100.181 222.677 220.757 222.677 124.672 0 220.715-100.096 220.715-222.677-0.46-120.818-98.508-218.582-219.391-218.582-0.226 0-0.451 0-0.677 0.001h0.035l-0.725 0.043zM511.403 745.941c-51.029 0-89.856-42.88-89.856-93.995 0-51.029 38.827-89.856 89.899-89.856 53.12 0 89.899 38.827 89.899 89.856 0.043 51.157-36.779 93.995-89.941 93.995zM599.296 251.605l124.715-120.533c24.533-26.496 24.533-65.323 0-89.856-26.539-26.496-67.456-26.496-87.893 0l-124.672 122.581-120.576-122.581c-12.245-12.245-28.629-18.347-47.061-18.347-14.293 0-30.635 6.144-44.971 18.347-24.533 24.533-24.533 63.36 0 89.899l126.72 120.533c-49.815 14.955-93.142 34.387-133.276 58.578l2.588-1.447c-30.677 16.341-36.779 57.173-20.437 87.851 20.437 30.635 57.216 38.784 89.941 18.347 41.901-25.963 92.721-41.35 147.136-41.35s105.235 15.387 148.348 42.048l-1.212-0.698c32.725 20.437 71.509 12.288 89.899-18.347 18.432-30.677 10.197-71.467-18.432-87.851-38.784-24.533-83.755-42.923-130.773-57.216l-0.043 0.043z" fill="currentColor" />
  </g>
</svg>
