<?xml version="1.0" encoding="utf-8"?>
<svg xmlns="http://www.w3.org/2000/svg" viewBox="0 0 1024 1024" width="24" height="24">
  <g transform="scale(1, -1) translate(0, -960)">
    <path d="M824.619 790.059h-622.123c-40.405 0-74.069-30.976-74.069-71.381v-230.229c0-208.725 172.373-382.464 385.109-382.464 211.413 0 382.464 173.739 382.464 382.464v230.229c0 40.405-32.341 71.381-71.381 71.381zM731.691 504.576l-183.168-172.373c-9.429-10.795-24.192-14.848-34.987-14.848-13.44 0-26.923 4.053-37.717 14.848l-180.437 172.373c-18.816 20.181-21.504 53.845 0 75.435 20.267 18.816 53.888 21.504 74.069 0l144.085-138.709 146.773 138.709c18.816 21.504 52.48 18.816 71.381 0 18.859-21.589 18.859-55.253 0-75.435z" fill="currentColor" />
  </g>
</svg>
