<?xml version="1.0" encoding="utf-8"?>
<svg xmlns="http://www.w3.org/2000/svg" viewBox="0 0 1024 1024" width="24" height="24">
  <g transform="scale(1, -1) translate(0, -960)">
    <path d="M835.84 674.56c-86.66 19.543-151.886 91.704-160.783 180.471l-0.070 0.863v18.773h-147.2v-583.253c0-0.042 0-0.092 0-0.142 0-68.1-55.206-123.307-123.307-123.307-40.152 0-75.822 19.191-98.337 48.902l-0.223 0.308c-15.711 20.479-25.178 46.468-25.178 74.667 0 68.1 55.206 123.307 123.307 123.307 0.151 0 0.303 0 0.454-0.001h-0.023c0.213 0.001 0.464 0.002 0.715 0.002 13.145 0 25.816-2.029 37.717-5.79l-0.886 0.241v149.333c-10.77 1.409-23.225 2.213-35.868 2.213-2.39 0-4.774-0.029-7.151-0.086l0.352 0.007c-146.025-4.025-262.866-123.359-262.866-269.984 0-73.447 29.318-140.047 76.89-188.735l-0.050 0.052c49.104-49.901 117.368-80.82 192.854-80.82 149.16 0 270.123 120.726 270.506 269.796v298.704c56.19-40.55 126.442-64.855 202.37-64.855 0.404 0 0.808 0.001 1.212 0.002h-0.063v145.067c-0.254-0.001-0.553-0.002-0.854-0.002-14.803 0-29.243 1.554-43.166 4.509l1.353-0.24z" fill="currentColor" />
  </g>
</svg>
