<?xml version="1.0" encoding="utf-8"?>
<svg xmlns="http://www.w3.org/2000/svg" viewBox="0 0 1024 1024" width="24" height="24">
  <g transform="scale(1, -1) translate(0, -960)">
    <path d="M891.136 564.736c-64.085 64-168.149 64-233.6 0l-261.547-261.589c-7.444-7.552-12.040-17.927-12.040-29.376s4.597-21.824 12.045-29.381l-0.005 0.005c7.554-7.421 17.919-12.002 29.355-12.002s21.801 4.581 29.361 12.008l261.541 261.583c14.863 14.858 35.393 24.047 58.069 24.047 45.363 0 82.138-36.774 82.138-82.138 0-22.687-9.198-43.226-24.068-58.090l-257.579-257.494c32.043-32 84.096-32 116.181 0l198.827 198.827c65.323 65.451 65.323 169.515 1.323 233.6zM803.072 477.995c-7.554 7.421-17.919 12.002-29.355 12.002s-21.801-4.581-29.361-12.008l0.006 0.006-261.717-262.912c-32.043-32-84.053-32-116.053 0-16.043 16-42.752 16-58.752 0s-16-42.752 0-58.667c64.085-64.085 168.192-64.085 233.6 0l261.589 261.504c16 17.323 16 44.075 0.043 60.075zM716.245 739.499c-64.043 64.085-168.149 64.085-233.6 0l-261.589-261.504c-7.429-7.543-12.016-17.902-12.016-29.333s4.587-21.791 12.021-29.339l-0.005 0.005c7.547-7.454 17.924-12.058 29.376-12.058s21.829 4.604 29.38 12.062l-0.004-0.004 263.168 261.504c14.915 14.83 35.475 23.997 58.176 23.997s43.261-9.167 58.18-24.001l-0.004 0.004c7.554-7.421 17.919-12.002 29.355-12.002s21.801 4.581 29.361 12.008l-0.006-0.006c15.019 17.323 15.019 42.667-1.024 58.667h-0.768zM628.224 652.843c-7.536 7.461-17.907 12.071-29.355 12.071s-21.819-4.61-29.358-12.075l0.003 0.003-261.589-262.997c-14.902-14.79-35.429-23.929-58.091-23.929s-43.189 9.14-58.096 23.935l0.005-0.005c-14.851 14.874-24.035 35.41-24.035 58.091s9.184 43.217 24.036 58.092l257.578 257.663c-14.877 14.828-35.402 23.996-58.069 23.996s-43.193-9.168-58.072-23.998l0.002 0.002-200.149-198.955c-64.043-64.085-64.043-168.149 0-233.6 64.043-64.085 168.107-64.085 233.6 0l261.504 261.589c16.085 17.408 16.085 44.075 0 60.075h0.085z" fill="currentColor" />
  </g>
</svg>
