<?xml version="1.0" encoding="utf-8"?>
<svg xmlns="http://www.w3.org/2000/svg" viewBox="0 0 1024 1024" width="24" height="24">
  <g transform="scale(1, -1) translate(0, -960)">
    <path d="M587.947 179.627c0-5.12 6.4 0 0 0zM445.013 294.827c16.64-7.253-13.227 25.6 0 0zM230.4 282.88c6.4-11.093 0 5.12 0 0zM469.333 266.24c-11.52 17.92-8.533-2.56 0-13.653 20.48-20.053 7.68 11.093 0 13.653zM863.573 146.773c-22.613-26.88-42.667 2.987-69.547-5.547-46.933 0 3.84 21.333 2.56 42.667-24.747 19.2-52.907-26.027-69.12-38.4-42.79 7.522-81.016 19.825-116.725 36.597l2.805-1.184c-43.554 20.626-80.429 48.494-110.633 82.43l-0.3 0.344c-33.728 33.617-60.759 73.932-78.93 118.782l-0.856 2.391c-21.983 73.18-35.019 157.36-35.837 244.462l-0.003 0.445c2.987 55.467 61.44-5.973 85.333 14.080-8.96 28.587-55.040 37.547-80.64 49.493-24.747 0-33.707 23.467-59.733 25.173 0 31.147-48.213 14.080-66.56 35.84 17.92 46.080-58.453 0-52.48 38.827 24.747 51.2-75.947 42.667-34.133-2.56 40.533-23.040-39.68-39.68-16.213-55.040 1.759-3.347 2.791-7.314 2.791-11.521 0-13.903-11.27-25.173-25.173-25.173-0.081 0-0.162 0-0.244 0.001h0.012c-31.573-2.987-28.587-46.507 2.56-23.467 34.56 10.667 5.973-4.693-10.667-7.68-26.837-4.195-47.128-27.146-47.128-54.836 0-9.606 2.442-18.642 6.739-26.521l-0.145 0.29c13.703-37.117 28.349-85.87 40.528-135.591l2.139-10.329c28.269-79.030 67.314-147.352 116.195-207.341l-0.995 1.261c26.366-32.908 56.739-61.111 90.736-84.412l1.424-0.922c29.838-20.817 64.133-38.434 100.718-51.157l2.962-0.896c60.111-18.392 129.359-29.67 201.018-31.134l0.795-0.013c1.166-0.007 2.544-0.011 3.923-0.011 42.33 0 83.789 3.729 124.066 10.877l-4.256-0.626c37.12-3.84 63.573 27.733 96.427 11.093 20.48 17.92 49.493 9.813 69.547 23.040 13.653 52.053-52.053 11.52-72.96 36.267zM789.333 178.347c-9.387 0 2.133 14.507 0 0zM463.787 647.68c-4.267 0-3.413 5.12-6.827 6.4-34.133 15.787 16.64 9.813 6.827-8.107zM752.213 161.707c-14.933 3.413 11.947 10.667 0 0zM632.32 157.013c-9.813 0 7.68 5.973 0 0zM552.107 207.36c-5.547 0 0 5.547 0 0zM542.72 214.613c-15.36 0-3.84 9.813 0 0zM524.8 229.973c-14.080-3.413 0 14.507 0 0zM268.8 727.467c-22.613 11.947 4.693-14.080-14.507-13.653-10.24 0-29.44 22.187-23.040 33.28 12.8-6.827 35.413-8.96 39.253-21.333zM229.547 762.027h-4.693c-1.28 11.52 37.12 2.56 6.4-1.707zM186.027 795.733c-17.92 8.107 0 39.68 18.773 24.747 21.76-31.147-40.533 3.413-18.773-24.747zM206.933 766.293c-11.52-4.693 6.827 8.96 0 0zM227.413 727.040c25.6-19.627-14.507 0-30.72-12.373-26.027-2.56 28.16 14.507 30.72 12.373zM234.667 701.44c14.933 0 80.213 29.44 58.453 2.987 20.053-23.467 4.267-15.787-8.96 0 11.947-8.107 2.56-42.667-15.787-19.2s-21.333 7.68-7.253-8.96c-13.653 27.733-52.907 15.787-81.493 6.4-18.347 1.707 48.213 15.787 55.040 18.773zM152.747 639.573c-6.827-17.067 10.24-22.613 26.453-25.6 26.453 7.253-17.493 11.947 2.56 18.773 11.093 0-34.987 11.093 3.413 16.213s74.667 22.187 113.493 30.293c23.985 5.512 51.527 8.67 79.806 8.67 7.197 0 14.347-0.205 21.443-0.608l-0.983 0.045c12.8-14.933-9.813-40.107-32.853-42.667-24.998-8.353-54.037-14.266-84.088-16.564l-1.245-0.076c-34.133 4.267-58.453-26.027-93.44-29.867 9.387 17.067-7.68 5.973-25.173 6.827 8.96-34.987-62.72 8.96-20.48 17.493-31.573 11.093-32-22.187-28.587-42.667v0c-27.733 38.827 2.987 55.040 39.68 59.733zM232.96 593.493c-9.387 2.133 7.253 8.533 0 0zM202.24 555.947s-14.507 3.413-8.533 7.253c42.667-5.547-38.4 14.080 5.547 9.387 28.16 0.853 18.773-15.36 2.987-16.64zM216.32 548.693c-5.12-5.12 0 10.24 0 0zM186.027 548.693c-18.773 3.84 8.96 9.387 0 0zM183.467 487.68c-2.987-4.267-4.267 3.413 0 0zM170.667 494.933c-23.467 8.107 0 8.96 0 0zM165.547 440.32c-11.093 3.84-10.667 21.333-15.787 30.72-16.213 43.947 17.493-17.067 14.080-30.72zM175.36 503.893c-29.44 3.413-2.133 20.907 0 0zM175.36 518.4h-3.84c-32.427 14.933 19.2 7.253-0.853 0zM170.667 552.107c-26.027 13.227 24.747 15.36 0 0zM179.627 541.013c-14.507-2.56 2.133 13.653 0 0zM124.16 538.027c-5.12-3.413 0 9.813 0 0zM128 544c-6.827 0 0 11.52 0 0zM131.413 586.667c-17.067 4.267 14.080 10.667 0 0zM142.507 501.333c-18.773 4.267-5.12 27.733 0 0zM155.307 448c17.92-21.76 11.093-33.707 29.44-60.16-23.893 14.933-28.587 51.2-42.667 74.667-17.493 38.4 9.813 0.427 13.227-14.507zM329.813 175.787c-14.507 2.987-24.32 18.347-34.56 28.16-28.856 21.286-51.667 49.16-66.454 81.474l-0.533 1.3c-23.275 29.477-44.053 62.823-60.938 98.376l-1.355 3.17c-17.493 39.253 10.667-2.987 14.933-17.92 8.96-29.013 37.547-45.653 40.107-64.853 31.573-17.92 15.36-47.787 42.667-55.893 11.52 5.973 12.8-35.84 37.973-27.307-14.080-6.4 5.547-14.080 12.8-26.027 14.933 2.133 49.92-34.987 15.36-22.187zM197.12 448c-13.227 2.987 14.080 4.693 0 0zM205.653 427.947c-23.467 5.973 22.187 8.533 0 0zM264.96 407.893c17.067 7.253 6.827-33.28 23.467-38.4 32.427-42.667-22.613 0-42.667 2.987 2.56 0-16.213 5.12-8.107 6.827-5.973 6.4-19.2 28.16 11.093 13.653 25.6-10.24 27.733-2.56 16.213 16.64zM320.853 332.8c0-6.4-30.72-5.547-2.56-17.92-16.213 0-21.333 0 0-12.8-9.387-7.253 18.347-13.227 8.96-24.32 28.16-22.187-5.12-5.547-17.067 3.413s-36.267 14.933-32 21.333c34.56-17.92 8.96 0-6.4 12.8 27.733-6.827-21.76 20.48 4.267 13.227 8.107-2.133-11.52 16.213 14.080 2.987-23.040 22.187 20.053 5.12 30.72 2.987zM341.333 340.053c-26.027 5.973 0 14.507 0 0zM334.080 254.72c-26.027 11.093 16.64 0 0 0zM314.88 261.973c-30.293 9.813 22.187 0 0 0zM311.040 257.28c-9.387 0 0 7.253 0 0zM264.96 323.413c-30.72 12.8-8.533 14.080 0 0zM241.92 338.347c-24.747 14.080-3.413 14.080 0 0zM241.92 310.613c-24.32 18.773-2.987 10.667 0 0zM235.52 367.787c-14.933 0 5.547 8.533 0 0zM341.333 218.453c-21.76 6.4 0 5.973 0 0zM325.547 234.667h-6.827c-29.013 23.040 13.227 16.213 32 5.973 41.387-5.973-9.387-16.64-25.173-5.973zM440.747 164.267c-29.013 6.827 6.827 11.52 0 0zM433.493 186.453c-2.133 0-4.267 4.693 0 0zM396.8 243.627c-25.173 5.973 8.96 8.107 15.36 0 43.52-8.96-2.56-11.093-15.36 0zM405.76 192h-4.693l-5.547 2.56c-23.893 25.173 50.773-11.947 10.24-2.56zM393.813 162.56c-6.4-2.56 0 5.973 0 0zM406.187 213.333l-6.827 2.133c-28.16 19.2 35.84-3.84 6.827 0zM413.013 139.947c-17.067 6.827 11.093 10.667 0 0zM417.28 171.52c-24.747 5.973 15.36 5.547 0 0zM422.827 197.547c-18.773 2.56 2.133 8.96 0 0zM392.107 235.093c19.627-2.56 20.053-11.52 0-5.973-3.84 0-10.24 0-11.947 7.253-32.427 21.333 1.28 10.667 11.947 0.853zM389.547 149.76c-8.533-5.12 0 9.387 0 0zM376.32 171.52c-22.613 0 17.067 11.093 0 0zM371.2 156.587c-11.093 4.267 7.253 3.413 0 0zM384 194.56c-22.187 5.973 10.667 7.68 0 0zM377.173 218.88c-11.947 0-2.56 6.827 0 0zM354.133 259.413c-24.32 19.627 50.347-16.213 0 0zM351.573 251.307c0-2.56-4.693 3.84 0 0zM507.307 90.027c-41.020 7.458-77.648 20.055-111.499 37.319l2.272-1.052-14.080 8.533c-24.32 13.227-21.333 16.213 2.56 2.987 8.107-6.827 67.84-31.147 39.68-14.933-12.373 2.987-81.067 40.533-35.84 24.32 32.25-17.6 70.813-35.003 110.711-49.639l6.195-1.988c21.126-5.23 45.38-8.23 70.334-8.23 11.748 0 23.34 0.665 34.741 1.959l-1.396-0.129c27.733-14.080 56.747 3.413 85.333-8.96-19.999-2.546-43.137-3.999-66.615-3.999-43.696 0-86.217 5.033-127.014 14.552l3.763-0.74zM453.973 119.893c-21.76 3.84 6.827 9.813 0 0zM485.12 162.56c-24.747 4.693 25.6 9.813 0 0zM520.96 106.667c42.667-15.787-25.6-5.12-39.68 3.84-39.253 16.213 30.72-3.84 39.68-3.84zM475.733 153.6c-34.56 5.12 38.4 0 0 0zM540.587 117.333c-12.373-9.813 0 12.8 0 0zM552.96 115.2c-6.4-2.56 0 7.253 0 0zM564.48 131.413c-6.827-8.533 0 9.813 0 0zM577.707 131.413c-19.2-7.253 20.053 16.64 0 0zM583.68 131.413c20.907 17.92 21.76 9.387 21.333-5.547-18.347-20.48-7.253 8.533-18.773-2.56s-8.107 4.267-2.56 7.253zM619.093 112.213c-21.333 0 21.76 23.040 0 0zM619.093 104.533c-8.533-2.133 0 5.547 0 0zM612.267 119.467c-16.64 11.093 40.107 26.027 0 0zM636.587 115.627h-3.413c-1.28 9.813 23.040 11.52 3.413-0.853zM642.987 107.52c-12.8 3.413 20.053 17.067 0 0zM658.347 111.787c-21.76-7.68 20.48 17.067 0 0zM667.733 107.093l-5.12-3.413c-9.813 5.973 30.293 20.48 5.12 2.987zM649.387 129.707c-23.040 7.68-59.733 32.427-85.333 15.787-34.133-21.76 17.493 23.893-10.24 3.413-28.16-33.707-19.2 21.333-46.507 4.693 0 5.12-24.32 6.827-7.253 15.787-15.36 0-5.547 2.133 0 14.507-6.827 0-42.667 0-58.027 12.373-17.067 22.187 2.987 12.8 20.48 9.813-28.587-5.12 10.24-21.333 29.013-12.373-8.533 3.84-18.347 22.187-42.667 38.4-24.724 13.955-54.63 28.279-85.486 40.742l-5.394 1.925c-35.84 21.333 7.68 7.68 20.053-3.413 35.84-15.787 21.76 21.76 0 31.573-23.040 0-28.587 25.173-46.933 23.893 28.587-4.693 48.64 7.253 16.64 36.267s12.8-26.88-4.693-18.773c-8.107 10.667-2.133 25.6-27.733 31.147 0-9.813-3.413-24.747-8.96-4.267-7.253 0-15.36-8.96-21.333 11.947 5.547 24.32-23.893 29.867-28.587 45.227 25.6-16.213 37.12-3.413 19.2 14.080s-14.080 4.693-20.907 0c-25.173-25.6-2.56 42.667-13.653 23.893-11.093 0-4.693-12.373-4.267-27.733-36.693 8.96 8.533-19.2 19.2-34.56-16.64 17.067-13.653-13.227-27.733 0-4.693 12.8-5.12 32.853-28.587 36.267 26.453 9.387-15.36 27.733-11.947 28.587 14.933 13.653 17.067 32.427 34.987 2.987-22.613 0 0-37.547 5.12-25.6 0 20.053 9.387 42.667-25.173 50.773-10.24-13.653-27.733 26.88-7.68 18.347-2.56 26.88 31.573 11.093 29.44 22.613 17.92 7.68-21.333 32.853 0 42.667 16.213-10.24 58.027 15.36 29.867 18.773 17.92 0 32-7.68 33.707 10.24 14.080-2.987 52.907-15.36 17.92 3.84 14.189 5.94 30.634 9.777 47.86 10.652l0.353 0.014c33.707 26.027 26.88-42.667 19.2-61.867 12.8 8.96 10.24-40.107 5.973-58.453 6.827 9.387 9.813-15.36 0-32.853 0 2.987 17.067 5.547 5.12-14.933-9.387 20.053-13.227-42.667-7.253-13.653 15.787 26.027 11.947 0 16.64-10.24 3.413-23.467 13.653-45.227 17.067-66.56 14.933-14.933-6.4-4.693-6.4-25.173 4.693 5.973 24.747-8.107 24.32-29.013 0 33.28 3.84 7.68 20.053 0 11.523-23.297 25.78-43.278 42.713-60.634l-0.046 0.048c15.787-18.347 0-5.547 5.973-16.64 20.954-28.681 52.298-48.692 88.393-54.51l0.78-0.104c10.959-18.801 31.027-31.236 53.999-31.236 4.6 0 9.084 0.499 13.4 1.445l-0.412-0.076c-25.6-15.787 71.68-20.053 38.827-28.587-9.813-6.827-26.453 8.533-43.093 7.68zM371.2 282.027c-10.24 0 0 8.533 0 0zM387.413 272.64c-7.68 0-5.12 10.24 0 0zM276.053 428.373c-10.24 2.987 4.267 3.84 0 0zM250.88 428.373c-11.093 0 0 14.507 0 0zM238.080 431.787c-4.267-2.133 0 4.693 0 0zM707.413 79.787c-16.64 2.987 13.653 9.387 0 0zM738.56 124.587h-12.8c2.56 19.2 56.747 4.267 78.933 3.84-6.827-14.507-48.213-1.707-66.133-5.547zM823.893 124.587c-11.52 0 5.12 13.653 0 0zM866.56 128.427c-10.667-5.547 0 12.8 0 0zM887.040 123.733c-22.187 5.12 10.24 5.12 17.067 5.973 40.107-0.853 0-6.827-20.053-6.827zM277.76 656.64c42.667 8.533-16.213 14.080-29.44 0 7.68-5.547 17.493 8.96 29.44 0zM242.773 651.093c0-8.107 7.68 9.387 0 0zM354.56 671.573c28.587 4.693 4.693 17.493-3.84-4.267 2.987-5.973 4.693 2.133 3.84 4.267zM328.107 667.307c39.68-15.36-2.133 42.667 0 0zM203.52 627.627c0.329 0.018 0.714 0.028 1.101 0.028 4.889 0 9.402-1.613 13.036-4.335l-0.057 0.041c32-22.187-4.267 35.84-14.080 4.267zM205.227 642.987c6.827-5.547 12.373 8.96 0 0zM221.013 642.56l5.973-5.12c29.013-2.56-4.693 19.627-5.973 5.12zM456.107 277.333c3.84-12.8 0 16.64 0 0zM252.16 490.667c4.267-7.68 7.68 7.68 0 0zM256 464.64c8.107-14.507 0 21.76 0 0zM264.96 485.547c14.080-8.96-11.947 22.187 0 0zM247.467 520.533c2.987-6.4 10.24-6.827 15.787-8.533 56.32-26.027-40.533 42.667-15.787 8.533zM270.507 459.52c13.227-22.613 7.68 15.787 0 0zM290.987 466.347c15.787-39.253-9.813 5.12-12.8 18.347 0.396-15.759 4.781-30.412 12.177-43.094l-0.23 0.428c14.507-21.76 8.107 11.947 23.467-9.813-8.533 19.2 4.267 8.533 2.56 17.067s-42.667 49.92-25.173 17.067zM306.347 390.4c3.84-13.227 7.68 0 0 0zM249.6 576c2.56-5.973 4.693 0 0 0zM278.187 558.080c13.653-17.493 7.253 15.36 0 0zM240.213 509.44l5.973-6.4c42.24-12.373-44.8 40.533-5.973 6.4zM270.080 525.227c42.667-17.493-3.84 11.52-18.773 8.533 4.693-5.547 13.653-2.987 18.773-8.533zM262.4 544c7.68-7.68 34.987-21.76 13.227-2.56 13.653 2.56 0 6.827-10.24 13.653-18.773 28.587 2.987-2.56-2.987-11.093zM235.093 506.027c-22.613 18.773 6.827-8.96-2.56-8.533-23.467 17.067-13.653 4.693 0-8.533 14.080-21.333 25.6 12.8 2.56 17.067zM326.4 478.72v0c5.12-4.693-2.56 29.013 0 0zM369.92 628.053c0-5.12 2.987 4.267 0 0zM384 427.947c0-8.96 0 7.68 0 0zM371.627 480c3.413-19.627 4.267 33.28 0 0zM377.6 470.613v-4.267c8.96 21.76 1.707 33.707 0 4.267zM373.333 585.813c-5.973-29.867-11.52-17.493-3.413 4.693-2.133 28.587-19.2-17.493-11.52-30.72 12.373-20.053 25.6 49.493 14.933 26.027zM416.427 330.667c5.547-14.933 4.693 17.92 0 0zM358.827 513.28c0-8.533 0 5.973 0 0zM386.133 440.747c0-11.093 4.693 16.213 0 0zM405.333 362.667l2.987-4.693c5.973 20.907-15.36 33.707-2.987 4.693zM338.773 384.853c11.52-9.387-5.547 9.813 0 0zM391.253 421.12c3.413-12.373 0 17.92 0 0zM347.307 541.44c6.4-14.080-2.133 11.52 0 0zM354.133 523.52c10.24-14.507-11.093 27.307 0 0zM351.573 474.453c-5.547 42.667-17.92-19.2 0-29.44 5.547-14.507 10.667-8.533 12.8 8.107-13.653 0 3.413 26.453-12.8 21.333z" fill="currentColor" />
  </g>
</svg>
