<?xml version="1.0" encoding="utf-8"?>
<svg xmlns="http://www.w3.org/2000/svg" viewBox="0 0 1024 1024" width="24" height="24">
  <g transform="scale(1, -1) translate(0, -960)">
    <path d="M512.043 247.083c-43.221 54.229-68.651 101.803-77.141 142.507-8.405 32.811-5.12 59.093 9.301 78.848 15.232 22.699 37.973 33.749 67.797 33.749s52.523-11.051 67.797-33.963c14.293-19.541 17.877-45.867 9.173-78.848-9.301-41.557-34.688-89.045-77.141-142.549l0.213 0.256zM819.072 210.603c-5.973-39.851-33.067-72.875-70.4-88.96-71.979-31.317-143.317 18.645-204.331 86.443 100.907 126.336 119.595 224.768 76.245 288.341-25.429 36.48-61.824 54.229-108.544 54.229-94.123 0-145.877-79.659-125.525-172.117 11.776-50.048 43.221-106.923 93.269-170.496-31.36-34.688-61.099-59.349-87.339-74.581-20.395-11.008-39.851-17.835-58.453-19.456-85.675-12.757-152.832 70.272-122.325 155.989 4.267 11.051 12.672 31.317 27.051 62.763l0.811 1.664c46.805 101.632 103.68 217.088 169.003 345.173l1.664 4.267 18.56 35.669c14.421 26.283 20.352 38.059 43.264 52.523 11.008 6.699 24.576 10.027 39.851 10.027 30.507 0 54.229-17.835 64.469-32.128 5.035-7.68 11.051-17.877 18.603-30.549l17.877-34.773 2.56-5.077c65.28-128.043 122.155-243.285 168.747-345.131l0.853-0.811 17.109-39.040 10.112-24.448c7.808-19.584 9.429-39.040 6.827-59.435l0.043-0.085zM858.027 287.019c-5.931 18.688-16.128 40.661-28.8 66.944v0.939c-83.879 182.635-140.557 296.427-199.091 409.101l29.448-62.306-3.584 5.163c-37.931 77.824-65.109 124.544-144 124.544-77.952 0-111.104-54.187-144.939-124.672l-2.603-5.077c-53.376-103.509-109.397-218.795-169.6-346.88v-1.664l-17.835-38.997c-6.741-16.128-10.112-24.533-11.051-27.136-43.179-118.699 45.824-222.976 153.557-222.976 0.896 0 4.224 0 8.448 0.896h11.861c56.021 6.784 113.664 42.368 172.16 106.027 58.496-63.573 116.267-99.243 172.075-106.027h11.904c4.267-0.896 7.68-0.896 8.533-0.896 107.733-0.085 196.693 104.277 153.515 223.019z" fill="currentColor" />
  </g>
</svg>
