<?xml version="1.0" encoding="utf-8"?>
<svg xmlns="http://www.w3.org/2000/svg" viewBox="0 0 1024 1024" width="24" height="24">
  <g transform="scale(1, -1) translate(0, -960)">
    <path d="M126.763 439.979c-1.749 0-3.328-1.621-3.541-3.499l-8.277-76.672 8.277-74.923c0.213-2.091 1.792-3.499 3.541-3.499s3.2 1.408 3.584 3.499l9.003 74.923-9.6 76.672c0 1.963-1.579 3.499-3.157 3.499zM94.592 410.496c-2.176 0-3.243-1.28-3.755-3.371l-5.888-47.317 5.888-46.592c0-1.963 1.579-3.328 3.2-3.328 1.664 0 3.115 1.621 3.712 3.712l7.509 46.933-7.509 47.445c0 2.176-1.579 3.243-3.2 3.243zM159.659 454.955c-2.219 0-4.267-1.664-4.267-3.712l-7.509-91.264 8.021-87.509c0-2.091 1.579-4.267 4.224-4.267 2.219 0 3.797 2.176 4.352 4.267l9.003 88.064-9.003 90.709c-0.555 2.091-2.219 4.267-4.352 4.267zM193.835 458.709c-2.688 0-4.864-2.176-5.376-4.821l-6.869-93.909 7.552-90.581c0.512-2.688 2.603-4.864 5.205-4.864 2.731 0 4.821 2.176 5.333 5.291l8.576 90.155-8.576 93.312c0 0.025 0.001 0.055 0.001 0.086 0 2.592-2.101 4.693-4.693 4.693-0.015 0-0.031 0-0.046 0h0.002l-1.109 0.64zM234.88 445.867c-0.069 2.962-2.487 5.338-5.46 5.338-0.076 0-0.151-0.002-0.225-0.005h0.011c-0.042 0.001-0.091 0.002-0.141 0.002-3.023 0-5.498-2.346-5.704-5.317l-0.001-0.018-7.765-86.443 7.211-91.221c0-0.013 0-0.028 0-0.043 0-3.063 2.483-5.547 5.547-5.547 0.030 0 0.060 0 0.090 0.001h-0.005c2.645 0 5.248 2.347 5.248 5.632l8.064 91.264-8.064 86.869 1.195-0.512zM263.637 506.709c-3.46-0.138-6.224-2.932-6.314-6.391v-0.009l-7.509-140.8 6.656-91.264c0-3.285 2.816-5.845 6.4-5.845 3.328 0 6.187 3.157 6.4 6.4l7.424 91.179-7.381 141.355c-0.299 3.755-3.157 6.485-6.4 6.485zM297.045 540.331c-3.836-0.164-6.925-3.15-7.251-6.926l-0.002-0.028-6.4-173.355 5.888-90.667c0-4.267 3.2-7.424 6.955-7.424 3.669 0 6.869 3.157 7.424 7.424l6.912 90.667-6.869 172.885c-0.555 4.267-3.755 7.467-7.467 7.467zM331.477 556.245c-4.352 0-7.509-3.115-8.021-7.381l-5.931-187.733 5.931-89.685c0.512-4.267 3.669-8.021 8.021-8.021 4.364 0.139 7.864 3.653 7.978 8.011v0.011l6.955 89.685-6.997 187.733c0 4.267-3.712 8.021-8.021 8.021zM375.68 555.264c0.001 0.038 0.001 0.084 0.001 0.129 0 4.619-3.744 8.363-8.363 8.363-0.045 0-0.091 0-0.136-0.001h0.007c-4.669-0.092-8.436-3.829-8.576-8.478v-0.013l-5.333-193.621 5.291-89.131c0.64-4.736 4.309-8.491 9.131-8.491s8.576 3.755 8.576 8.491l5.803 89.131-5.803 194.133-0.597-0.512zM402.347 560c-4.821 0-9.088-4.267-9.088-9.003l-5.333-189.397 5.333-88.021c0-5.333 4.267-9.088 9.088-9.088 5.078 0.165 9.132 4.322 9.132 9.425 0 0.047 0 0.093-0.001 0.14v-0.007l5.333 88.064-5.973 188.928c0 5.205-4.267 9.6-9.6 9.6zM436.992 554.709c-0.013 0-0.028 0-0.043 0-5.561 0-10.069-4.508-10.069-10.069 0-0.015 0-0.030 0-0.045v0.002l-3.669-183.040 4.821-88.021c0-5.291 4.267-9.856 10.069-9.856 5.333 0 9.685 4.267 10.112 10.112l4.309 86.955-4.779 181.973c-0.427 5.845-4.821 10.155-10.112 10.155zM479.787 586.411c-1.667 0.992-3.676 1.579-5.822 1.579-0.038 0-0.077 0-0.115-0.001h0.006c-2.133 0-4.267-0.555-5.845-1.579-3.181-1.861-5.293-5.245-5.333-9.125v-2.139l-3.669-215.211 4.096-87.168v-0.299c0.256-2.133 1.024-4.779 2.56-6.4 2.133-2.176 5.12-3.669 8.363-3.669 2.899 0.161 5.497 1.332 7.474 3.164l-0.008-0.007c2.005 2.020 3.244 4.802 3.244 7.874 0 0.052 0 0.104-0.001 0.155v-0.008l0.555 8.576 4.139 78.421-4.821 216.533c-0.052 3.557-1.91 6.669-4.696 8.466l-0.040 0.024-0.085 0.811zM515.499 605.909c-1.217 1.369-2.983 2.227-4.95 2.227-0.12 0-0.239-0.003-0.357-0.009l0.017 0.001c-0.13 0.005-0.284 0.008-0.437 0.008-2.62 0-5.044-0.834-7.023-2.251l0.036 0.025c-2.542-2.033-4.18-5.105-4.266-8.562v-0.995l-4.864-235.221 2.688-43.264 2.219-42.155c0.143-6.347 5.323-11.437 11.691-11.437 6.458 0 11.693 5.235 11.693 11.693 0 0.090-0.001 0.18-0.003 0.269v-0.013l5.333 85.888-5.333 236.203c-0.101 4.211-2.421 7.858-5.832 9.826l-0.056 0.030zM834.005 473.771c-14.336 0-28.288-3.072-40.491-8.235-8.84 94.829-88.029 168.478-184.419 168.478-24.254 0-47.42-4.663-68.648-13.142l1.249 0.44c-8.021-3.2-9.685-6.443-10.155-12.843v-333.312c0.389-6.455 5.352-11.639 11.672-12.368l0.061-0.006h291.285c0.279-0.003 0.609-0.004 0.94-0.004 57.214 0 103.595 46.381 103.595 103.595 0 0.151 0 0.303-0.001 0.454v-0.023c0 0.076 0 0.166 0 0.256 0 57.792-46.765 104.662-104.518 104.832h-0.016z" fill="currentColor" />
  </g>
</svg>
