<?xml version="1.0" encoding="utf-8"?>
<svg xmlns="http://www.w3.org/2000/svg" viewBox="0 0 1024 1024" width="24" height="24">
  <g transform="scale(1, -1) translate(0, -960)">
    <path d="M182.827 649.856c0.1 0.937 0.157 2.025 0.157 3.125 0 9.235-4.003 17.535-10.368 23.26l-0.029 0.025-75.52 91.008v13.653h234.581l181.333-397.653 159.403 397.653h223.616v-13.611l-64.64-61.909c-4.523-3.546-7.402-9.011-7.402-15.147 0-1.054 0.085-2.089 0.248-3.097l-0.015 0.11v-455.083c-0.153-0.909-0.24-1.955-0.24-3.023 0-6.127 2.883-11.581 7.366-15.079l0.042-0.032 63.104-61.909v-13.611h-317.269v13.611l65.237 63.445c6.485 6.4 6.485 8.32 6.485 18.091v367.872l-181.717-461.525h-24.533l-211.541 461.525v-309.291c-1.749-13.013 2.56-26.112 11.733-35.541l84.992-103.125v-13.611h-240.981v13.611l84.992 103.125c7.14 7.432 11.537 17.545 11.537 28.685 0 2.422-0.208 4.795-0.607 7.103l0.035-0.247v357.589z" fill="currentColor" />
  </g>
</svg>
