<?xml version="1.0" encoding="utf-8"?>
<svg xmlns="http://www.w3.org/2000/svg" viewBox="0 0 1024 1024" width="24" height="24">
  <g transform="scale(1, -1) translate(0, -960)">
    <path d="M586.24 779.52c-35.84 42.667-66.987 85.333-72.96 94.72h-1.28c-5.973-8.96-37.12-52.053-72.96-94.72-307.2-392.107 48.64-656.64 48.64-656.64l2.987-2.133c2.56-40.533 9.387-99.413 9.387-99.413h26.453s6.4 58.453 8.96 99.413l2.987 2.56s354.987 264.107 47.787 656.213zM512 128.853c-7.545 6.227-14.253 12.935-20.279 20.229l-0.201 0.251 20.48 426.667 19.2-426.667c-5.907-7.556-12.2-14.255-19.046-20.346l-0.154-0.134z" fill="currentColor" />
  </g>
</svg>
