<?xml version="1.0" encoding="utf-8"?>
<svg xmlns="http://www.w3.org/2000/svg" viewBox="0 0 1024 1024" width="24" height="24">
  <g transform="scale(1, -1) translate(0, -960)">
    <path d="M511.573 874.667c-235.435 0-426.24-190.848-426.24-426.24 0-180.565 112.341-334.933 270.933-397.056-3.755 33.707-7.083 85.589 1.451 122.368 7.765 33.28 50.005 211.883 50.005 211.883s-12.757 25.557-12.757 63.317c0 59.221 34.347 103.467 77.141 103.467 36.395 0 53.931-27.307 53.931-60.032 0-36.608-23.296-91.264-35.285-141.952-10.027-42.411 21.291-77.013 63.104-77.013 75.733 0 134.016 79.872 134.016 195.2 0 102.059-73.344 173.397-178.048 173.397-121.301 0-192.512-90.965-192.512-184.96 0-36.608 14.123-75.904 31.744-97.28 2.124-2.279 3.428-5.346 3.428-8.718 0-1.241-0.177-2.441-0.506-3.575l0.022 0.090c-3.243-13.44-10.453-42.411-11.819-48.341-1.877-7.808-6.187-9.472-14.293-5.717-53.205 24.789-86.485 102.613-86.485 165.163 0 134.443 97.664 257.92 281.643 257.92 147.883 0 262.784-105.344 262.784-246.187 0-146.944-92.629-265.088-221.184-265.088-43.221 0-83.797 22.4-97.707 48.896l-26.581-101.291c-9.6-37.035-35.584-83.456-52.949-111.787 37.642-12.045 80.942-18.987 125.863-18.987 0.121 0 0.242 0 0.364 0h-0.019c235.392 0 426.24 190.848 426.24 426.24s-190.891 426.283-426.283 426.283z" fill="currentColor" />
  </g>
</svg>
