<?xml version="1.0" encoding="utf-8"?>
<svg xmlns="http://www.w3.org/2000/svg" viewBox="0 0 1024 1024" width="24" height="24">
  <g transform="scale(1, -1) translate(0, -960)">
    <path d="M509.995 583.723l-23.339-93.44c26.411-6.571 107.904-33.451 121.088 19.456 13.739 55.083-71.381 67.371-97.749 73.984zM474.923 443.093l-25.728-103.040c31.701-7.893 129.579-39.296 144.043 18.816 15.147 60.672-86.571 76.331-118.315 84.224zM615.296 861.909c-228.565 56.96-459.947-82.133-516.907-310.699-57.003-228.48 82.091-459.947 310.485-516.949 228.565-56.96 460.075 82.091 516.992 310.656 57.003 228.523-82.091 459.989-310.571 516.992zM700.245 508.843c-6.187-41.557-29.269-61.653-59.819-68.736 42.027-21.845 63.36-55.381 43.051-113.536-25.259-72.149-85.248-78.251-165.12-63.147l-19.371-77.653-46.763 11.648 19.072 76.544c-25.757 6.095-38.267 9.442-50.725 12.913l13.391-3.185-19.157-76.971-46.72 11.733 19.371 77.781c-10.965 2.816-22.059 5.803-33.365 8.619l-60.971 15.147 23.296 53.589s34.475-9.173 34.005-8.491c13.269-3.285 19.115 5.333 21.419 11.136l30.677 122.667 4.907-1.237c-1.321 0.556-2.942 1.096-4.609 1.523l-0.255 0.055 21.845 87.595c0.555 9.984-2.816 22.528-21.803 27.264 0.768 0.469-34.005 8.448-34.005 8.448l12.416 50.005 64.597-16.128-0.043-0.213c9.685-2.432 19.669-4.736 29.867-7.040l19.157 76.885 46.805-11.648-18.773-75.349c12.544-2.859 25.216-5.76 37.504-8.832l18.688 74.88 46.805-11.648-19.157-76.885c59.051-20.437 102.229-50.987 93.781-107.733z" fill="currentColor" />
  </g>
</svg>
