<?xml version="1.0" encoding="utf-8"?>
<svg xmlns="http://www.w3.org/2000/svg" viewBox="0 0 1024 1024" width="24" height="24">
  <g transform="scale(1, -1) translate(0, -960)">
    <path d="M894.037 504.875c-3.072 13.739-11.605 26.496-21.419 31.787-2.987 1.664-22.272 3.755-42.837 4.651-34.517 1.536-38.315 2.219-49.152 8.576-17.28 10.112-22.016 21.035-22.101 50.645-0.085 56.619-23.637 109.184-70.229 156.587-33.109 33.835-70.187 56.704-112.384 69.504-10.069 3.072-32.768 4.139-108.587 5.035-118.912 1.408-145.28-1.024-185.856-17.152-74.581-29.739-128.341-92.416-147.84-172.8-3.712-15.061-4.395-39.253-5.291-178.219-1.067-174.080 0.171-199.68 11.008-234.155 9.045-28.501 18.133-45.952 36.736-70.699 35.627-47.275 88.875-81.365 142.251-91.008 25.387-4.565 338.389-5.76 370.475-1.365 55.723 7.595 99.456 29.952 140.501 71.851 29.611 30.293 48.171 63.104 60.331 106.624 4.992 18.091 5.419 26.88 6.357 132.992 0.725 80.128 0.085 117.675-1.963 127.147zM341.632 614.059c13.355 13.483 17.024 14.037 100.864 14.037 75.264 0 77.739-0.171 88.789-5.717 16-8.064 22.955-19.456 22.955-37.547 0-16.384-6.528-27.861-21.035-37.077-7.851-4.907-12.501-5.248-86.229-5.675-45.525-0.299-81.749 0.555-87.168 2.048-28.544 7.851-39.168 48.768-18.176 69.931zM670.421 271.147l-25.472-4.181-132.864-1.493c-116.736-1.408-149.803 0.768-155.819 3.413-12.288 5.291-23.637 20.139-25.685 33.28-1.792 12.459 4.437 29.696 14.080 38.4 12.16 10.965 17.451 11.349 166.869 11.52 153.685 0.085 152.875 0.128 167.467-13.44 20.565-19.2 16.256-53.376-8.576-67.499z" fill="currentColor" />
  </g>
</svg>
