<?xml version="1.0" encoding="utf-8"?>
<svg xmlns="http://www.w3.org/2000/svg" viewBox="0 0 1024 1024" width="24" height="24">
  <g transform="scale(1, -1) translate(0, -960)">
    <path d="M662.997 360.149l-170.581-170.752c-30.817-30.748-73.353-49.762-120.331-49.762-14.617 0-28.805 1.841-42.343 5.303l1.18-0.256c-11.039-45.795-51.656-79.291-100.097-79.291-56.645 0-102.592 45.803-102.826 102.394v0.022c0 48.555 33.792 89.259 79.019 99.925-3.353 12.631-5.279 27.132-5.279 42.083 0 47.071 19.090 89.684 49.95 120.519l5.761 5.761 75.819-75.861-5.888-5.76c-11.414-11.425-18.473-27.203-18.473-44.629s7.059-33.204 18.474-44.63l-0.001 0.001c11.334-11.577 27.122-18.754 44.587-18.754s33.253 7.177 44.576 18.743l14.902 14.902 155.819 156.032 75.733-75.989zM692.565 147.328c-15.039-4.825-32.34-7.606-50.291-7.606-46.938 0-89.434 19.015-120.206 49.761l0.001-0.001-5.76 5.931 75.648 75.819 5.76-5.931c11.421-11.389 27.181-18.431 44.587-18.431s33.166 7.042 44.588 18.432l-0.001-0.001c11.374 11.38 18.409 27.098 18.409 44.459 0 17.403-7.069 33.156-18.492 44.542l-14.935 14.892-155.733 155.947 75.819 75.776 170.581-170.88c30.933-30.647 50.084-73.138 50.084-120.102 0-14.409-1.803-28.396-5.195-41.749l0.252 1.169c50.155-7.337 88.233-50.059 88.233-101.675 0-56.673-45.906-102.625-102.562-102.699h-0.007c-0.079 0-0.172 0-0.266 0-49.299 0-90.434 34.955-99.973 81.432l-0.113 0.659-0.427 0.256zM351.189 529.707l170.88 170.752c30.687 30.783 73.133 49.829 120.027 49.829 17.281 0 33.958-2.587 49.665-7.394l-1.201 0.316c7.136 50.392 49.982 88.725 101.781 88.725 56.742 0 102.741-45.999 102.741-102.741 0-52.026-38.67-95.020-88.835-101.808l-0.53-0.059c4.255-14.151 6.704-30.412 6.704-47.245 0-46.965-19.066-89.477-49.88-120.219l-0.003-0.003-5.845-5.931-75.819 75.819 5.931 5.888c11.38 11.385 18.418 27.111 18.418 44.48 0 34.749-28.17 62.919-62.919 62.919-17.38 0-33.114-7.047-44.501-18.439v0l-14.805-14.763-155.989-155.819-75.819 75.691zM266.283 445.056l-14.763 14.805c-30.782 30.765-49.822 73.275-49.822 120.232 0 17.455 2.631 34.295 7.518 50.146l-0.32-1.204c-46.099 10.849-79.899 51.602-79.957 100.26v0.007c0.073 56.705 46.033 102.65 102.737 102.699h0.005c51.072 0 93.44-37.333 101.461-86.144 11.716 2.878 25.167 4.528 39.004 4.528 46.978 0 89.512-19.029 120.315-49.799l-0.001 0.001 5.888-5.973-75.861-75.776-5.845 5.803c-11.421 11.353-27.163 18.371-44.544 18.371s-33.123-7.017-44.547-18.374l0.003 0.003c-11.455-11.438-18.541-27.249-18.541-44.715 0-17.381 7.017-33.123 18.373-44.547l-0.003 0.003 14.891-14.933 155.989-155.989-75.733-75.819-156.203 155.989v0.427h-0.043z" fill="currentColor" />
  </g>
</svg>
