<?xml version="1.0" encoding="utf-8"?>
<svg xmlns="http://www.w3.org/2000/svg" viewBox="0 0 1024 1024" width="24" height="24">
  <g transform="scale(1, -1) translate(0, -960)">
    <path d="M820.907 832h-617.813c-41.473 0-75.093-33.62-75.093-75.093v0-617.813c0-41.473 33.62-75.093 75.093-75.093v0h617.813c41.473 0 75.093 33.62 75.093 75.093v0 617.813c0 41.473-33.62 75.093-75.093 75.093v0zM573.44 405.333h-96v-274.773h-76.373v274.773h-96v62.293h268.373zM820.907 180.053c-6.345-13.285-16.15-24.050-28.262-31.39l-0.325-0.183c-12.254-7.664-26.56-13.446-41.85-16.504l-0.817-0.136c-15.071-3.257-32.384-5.122-50.133-5.122-0.375 0-0.75 0.001-1.125 0.002h0.058c-18.56 0.017-36.71 1.724-54.318 4.975l1.838-0.282c-16.157 3.36-30.423 8.218-43.837 14.579l1.17-0.499v72.96l-2.56 2.56h2.56v-2.987c12.186-9.583 26.333-17.4 41.646-22.731l1.021-0.309c13.789-5.41 29.757-8.545 46.457-8.545 0.617 0 1.234 0.004 1.849 0.013l-0.093-0.001c0.572-0.011 1.246-0.017 1.922-0.017 8.391 0 16.562 0.939 24.415 2.717l-0.737-0.14c6.783 1.615 12.762 4.111 18.199 7.41l-0.279-0.157c4.381 2.701 7.966 6.286 10.588 10.529l0.079 0.138c2.157 3.992 3.425 8.739 3.425 13.781 0 6.717-2.25 12.909-6.037 17.863l0.052-0.071c-4.050 5.632-9.013 10.324-14.719 13.952l-0.215 0.128c-6.522 4.645-13.947 8.921-21.775 12.461l-0.838 0.339-28.587 11.947c-23.286 9.746-42.871 24.266-58.27 42.445l-0.183 0.222c-12.231 14.663-19.657 33.706-19.657 54.483 0 0.796 0.011 1.59 0.033 2.381l-0.003-0.117c-0.029 0.869-0.046 1.891-0.046 2.917 0 15.455 3.804 30.022 10.528 42.815l-0.242-0.505c7.049 12.308 16.523 22.464 27.842 30.092l0.318 0.202c12.192 8.219 26.488 14.434 41.856 17.772l0.811 0.148c14.692 3.53 31.56 5.555 48.901 5.555 0.658 0 1.316-0.003 1.973-0.009l-0.101 0.001c1.24 0.019 2.704 0.029 4.171 0.029 14.935 0 29.615-1.096 43.962-3.213l-1.626 0.197c14.181-2.252 26.817-5.668 38.874-10.257l-1.327 0.444v-70.4c-5.175 3.734-11.059 7.154-17.272 9.977l-0.648 0.263c-5.72 2.559-12.672 5.035-19.835 7.002l-1.072 0.251c-5.936 1.821-13.019 3.318-20.29 4.205l-0.617 0.061c-2.942 0.294-6.358 0.462-9.813 0.462s-6.872-0.168-10.241-0.495l0.428 0.034c-0.481 0.009-1.048 0.013-1.617 0.013-7.902 0-15.585-0.938-22.943-2.709l0.666 0.135c-6.922-1.478-13.055-3.836-18.677-6.997l0.33 0.171c-4.521-2.695-8.242-6.28-11.015-10.538l-0.078-0.129c-2.413-3.952-3.841-8.732-3.841-13.847 0-0.082 0-0.164 0.001-0.246v0.013c-0.003-0.155-0.005-0.337-0.005-0.52 0-5.36 1.594-10.347 4.333-14.514l-0.062 0.1c3.546-4.865 7.785-8.97 12.623-12.26l0.177-0.113c5.684-4.559 12.138-8.552 19.054-11.712l0.573-0.235 26.88-11.947c14.061-5.849 25.84-11.852 37.104-18.625l-1.264 0.705c10.484-5.802 19.477-12.755 27.27-20.869l0.036-0.038c7.633-7.404 13.714-16.361 17.738-26.366l0.182-0.514c3.789-10.445 5.98-22.501 5.98-35.068 0-0.421-0.002-0.842-0.007-1.262l0.001 0.064c-0.331-16.787-4.229-32.584-10.963-46.774l0.296 0.694z" fill="currentColor" />
  </g>
</svg>
