<?xml version="1.0" encoding="utf-8"?>
<svg xmlns="http://www.w3.org/2000/svg" viewBox="0 0 1024 1024" width="24" height="24">
  <g transform="scale(1, -1) translate(0, -960)">
    <path d="M539.392 615.083c-15.531-8.064-33.707-17.92-52.992-17.92s-34.56 8.917-45.483 17.621c-5.547 4.309-9.984 8.619-13.355 11.776-5.845 4.608-5.12 11.051-2.731 10.837 4.011-0.512 4.608-5.803 7.168-8.149 3.413-3.2 7.68-7.339 12.885-11.477 10.368-8.192 24.192-16.213 41.515-16.213s37.461 10.155 49.792 17.067c6.955 3.925 15.829 10.923 23.083 16.256 5.547 4.053 5.333 8.96 9.899 8.448 4.565-0.555 1.195-5.419-5.205-11.008-7.215-6.295-15.262-12.003-23.853-16.861l-0.723-0.376zM838.357 201.813c-6.059 6.827-8.917 19.456-11.989 32.896s-6.528 27.904-17.536 37.291l-0.085 0.043c-3.836 3.387-8.318 6.155-13.22 8.086l-0.305 0.106c15.317 45.44 9.344 90.709-6.187 131.584-18.944 50.219-52.139 93.952-77.44 123.861-28.331 35.755-56.021 69.675-55.509 119.808 0.896 76.501 8.405 218.368-126.208 218.539-0.042 0-0.091 0-0.141 0-5.973 0-11.885-0.263-17.724-0.779l0.756 0.054c-150.443-12.075-110.507-171.008-112.768-224.213-2.731-38.912-10.624-69.589-37.419-107.648-31.403-37.376-75.691-97.92-96.683-160.896-9.899-29.739-14.592-60.032-10.283-88.747-1.365-1.251-2.63-2.489-3.855-3.768l-0.028-0.030c-9.216-9.856-16.043-21.803-23.68-29.824-7.083-7.125-17.195-9.771-28.331-13.781s-23.339-9.856-30.763-24.107l-0.043-0.085c-2.918-5.622-4.629-12.275-4.629-19.327 0-0.465 0.007-0.929 0.022-1.391l-0.002 0.067c0-6.571 0.981-13.269 1.963-19.669 2.048-13.355 4.139-25.984 1.365-34.56-8.789-24.064-9.899-40.704-3.712-52.779 6.229-12.117 18.944-17.451 33.408-20.437 28.843-6.016 67.925-4.523 98.731-20.864l2.645 4.992-2.603-5.035c32.981-17.237 66.432-23.339 93.099-17.28 19.371 4.437 35.029 15.957 43.136 33.664 20.864 0.085 43.733 8.917 80.427 10.923 24.875 2.005 55.979-8.832 91.691-6.827 1.027-4.272 2.477-8.026 4.349-11.52l-0.125 0.256c13.824-27.691 39.595-40.363 67.029-38.229s56.704 18.347 80.341 46.464l-4.352 3.627 4.352-3.584c22.485 27.307 59.861 38.613 84.651 53.547 12.373 7.467 22.4 16.853 23.211 30.421 0.768 13.568-7.211 28.8-25.557 49.152zM505.984 701.355c-0.128 9.984 1.536 18.56 5.376 27.264s8.576 14.976 15.275 20.053 13.312 7.424 21.077 7.509h0.384c7.637 0 14.165-2.261 20.864-7.125 6.784-4.949 11.691-11.136 15.616-19.755 3.798-7.917 6.016-17.211 6.016-27.024 0-0.040 0-0.079 0-0.119v0.006c0.085-10.027-1.621-18.56-5.419-27.264-2.086-4.877-4.663-9.082-7.753-12.849l0.073 0.092-3.157 1.408c-3.797 1.621-7.125 2.944-10.112 4.096s-5.291 1.877-7.723 2.731c1.749 2.091 5.205 4.608 6.443 7.723 1.865 4.368 2.986 9.445 3.072 14.772v0.033l0.085 0.683c0.014 0.393 0.021 0.854 0.021 1.318 0 4.675-0.789 9.166-2.241 13.346l0.086-0.285c-1.621 4.821-3.669 8.32-6.613 11.221s-5.931 4.224-9.515 4.309h-0.469c-3.581-0.033-6.831-1.422-9.268-3.678l0.009 0.008c-3.262-2.836-5.802-6.419-7.363-10.486l-0.061-0.181c-1.869-4.381-2.991-9.473-3.072-14.817v-0.031l-0.043-0.64c-0.013-0.395-0.021-0.86-0.021-1.326 0-2.546 0.225-5.040 0.656-7.463l-0.038 0.256c-6.179 2.95-13.401 5.46-20.929 7.162l-0.703 0.134c-0.331 2.388-0.547 5.195-0.596 8.043l-0.001 0.064v0.811zM414.507 699.136c-0.512 8.619 0.384 16.043 2.731 23.723s5.547 13.269 10.155 17.835c3.734 4.099 8.966 6.778 14.825 7.165l0.066 0.003h1.28c5.035 0 9.6-1.707 14.293-5.419 5.286-4.374 9.424-9.951 12.018-16.321l0.099-0.276c3.243-7.296 4.949-14.635 5.419-23.253v-0.085c0.107-1.393 0.168-3.017 0.168-4.655 0-2.011-0.092-4.001-0.272-5.965l0.019 0.252c-0.981-0.256-1.963-0.597-2.901-0.896-5.461-1.877-9.813-3.968-13.995-6.741 0.228 1.522 0.358 3.279 0.358 5.067 0 1.432-0.083 2.844-0.246 4.233l0.016-0.169v0.512c-0.417 4.311-1.444 8.273-3.001 11.957l0.1-0.266c-1.312 3.425-3.321 6.326-5.87 8.645l-0.018 0.016c-2.219 1.877-4.267 2.773-6.528 2.731l-0.725-0.043c-2.603-0.213-4.693-1.451-6.699-3.925-2.067-2.666-3.575-5.872-4.284-9.368l-0.025-0.147c-0.631-2.625-0.993-5.638-0.993-8.736 0-1.326 0.066-2.637 0.196-3.928l-0.013 0.163 0.043-0.512c0.427-4.395 1.323-8.064 2.859-11.733 1.526-3.86 3.955-7.085 7.035-9.521l0.047-0.036c-2.517-1.92-4.181-3.328-6.229-4.821l-4.693-3.456c-4.136 4.033-7.446 8.89-9.668 14.309l-0.103 0.283c-3.090 6.836-5.061 14.786-5.456 23.15l-0.006 0.146v0.085zM421.12 646.741c7.979 5.973 13.44 9.984 17.152 12.715 3.669 2.688 5.163 3.669 6.315 4.779h0.043c5.973 5.632 15.445 15.957 29.824 20.907 4.907 1.707 10.453 2.773 16.64 2.816 11.733 0.043 25.941-3.797 43.093-14.848 10.539-6.827 18.731-7.424 37.632-15.488h0.043c9.088-3.712 14.421-8.619 17.024-13.696 2.603-5.12 2.688-10.667 0.512-16.512-4.395-11.648-18.304-23.979-37.845-30.080h-0.043c-9.557-3.072-17.835-9.941-27.605-15.531-9.28-5.864-20.574-9.344-32.681-9.344-1.141 0-2.275 0.031-3.401 0.092l0.157-0.007c-5.815 0.264-11.261 1.541-16.267 3.658l0.309-0.116c-4.398 1.995-8.188 4.378-11.608 7.196l0.088-0.070c-6.869 5.589-12.928 12.587-21.76 17.749h-0.085c-14.208 8.107-21.973 17.408-24.448 25.515-2.432 8.064-0.128 14.976 6.912 20.267zM426.709 91.307v-0.043c-2.005-26.581-16.981-41.003-40.021-46.293-22.997-5.248-54.187 0-85.291 16.256h-0.043c-34.475 18.219-75.435 16.427-101.717 21.931-13.141 2.731-21.717 6.869-25.685 14.549-3.925 7.68-4.011 21.077 4.352 43.861l0.085 0.171c4.139 12.757 1.067 26.709-0.896 39.851-2.005 13.099-2.987 25.003 1.451 33.323l0.043 0.085c5.76 11.051 14.165 15.019 24.576 18.731 10.453 3.755 22.784 6.699 32.597 16.469l0.085 0.085c9.045 9.515 15.829 21.461 23.765 29.952 6.699 7.125 13.397 11.904 23.509 11.947h0.384c1.749 0 3.627-0.128 5.632-0.469 13.397-2.005 25.088-11.435 36.395-26.667l32.512-59.264h0.043c8.619-18.048 26.923-37.973 42.411-58.24 15.445-20.267 27.477-40.619 25.899-56.192l-0.085-0.043zM424.021 134.4c-5.073 7.81-9.749 14.332-14.684 20.642l0.476-0.631c-4.161 5.492-7.363 9.56-10.619 13.584l0.848-1.083c6.443 0 11.947 1.024 16.384 3.072 5.227 2.228 9.271 6.383 11.301 11.55l0.049 0.141c3.84 10.325 0 24.875-12.288 41.515-12.373 16.64-33.195 35.413-63.744 54.144-22.485 13.995-35.029 31.104-40.917 49.707s-5.077 38.699-0.555 58.581c8.704 38.144 31.104 75.179 45.355 98.475 3.84 2.816 1.365-5.248-14.464-34.603-14.165-26.837-40.661-88.789-4.395-137.131 1.414 37.265 9.721 72.229 23.674 104.161l-0.719-1.847c20.139 45.525 62.123 124.544 65.451 187.52 1.749-1.237 7.68-5.248 10.283-6.741 7.765-4.523 13.483-11.179 20.992-17.195 7.552-6.059 16.896-11.264 31.104-12.075l3.968-0.128c14.635 0 26.027 4.779 35.541 10.197 10.325 5.888 18.603 12.459 26.368 14.976h0.043c16.512 5.205 29.611 14.293 37.077 24.96 12.885-50.603 42.709-123.605 61.867-159.275 10.197-18.901 30.507-59.093 39.253-107.52 5.547 0.171 11.648-0.64 18.219-2.304 22.912 59.435-19.413 123.392-38.784 141.227-7.851 7.595-8.192 11.008-4.352 10.837 20.992-18.603 48.597-55.936 58.624-98.133 4.565-19.243 5.547-39.467 0.683-59.435 2.389-0.981 4.821-2.048 7.296-3.243 36.779-17.92 50.389-33.493 43.819-54.741-2.133 0.085-4.267 0.043-6.315 0h-0.597c5.333 16.853-6.443 29.312-37.931 43.52-32.597 14.336-58.581 12.928-62.976-16.171-0.259-1.202-0.514-2.786-0.701-4.392l-0.024-0.259c-2.432-0.853-4.864-1.92-7.339-3.243-15.275-8.405-23.68-23.595-28.331-42.24-4.608-18.645-5.973-41.131-7.253-66.475-0.811-12.715-6.016-29.952-11.349-48.171-53.291-38.272-127.403-54.741-190.336-11.776zM834.816 131.968c-22.357-13.525-62.123-25.301-87.467-56.021-22.059-26.24-48.896-40.619-72.533-42.496-23.68-1.877-44.075 7.936-56.107 32.085v0.043l-0.043 0.128c-7.467 14.208-4.352 36.608 1.92 60.245s15.317 47.915 16.555 67.627v0.043c1.28 25.259 2.688 47.36 6.955 64.384s10.923 28.544 22.741 35.029l1.664 0.853c1.323-21.888 12.16-44.203 31.317-49.024 20.949-5.504 51.157 12.459 63.915 27.136 2.56 0.085 5.035 0.256 7.467 0.299 11.179 0.256 20.523-0.384 30.165-8.747v-0.043h0.043c7.381-6.229 10.88-18.048 13.909-31.275s5.461-27.605 14.592-37.888h0.043c17.493-19.456 23.125-32.597 22.656-40.96-0.469-8.448-6.528-14.677-17.792-21.419zM500.821 671.488c0.64-2.048 3.968-1.707 5.888-2.688 1.707-0.853 3.029-2.773 4.949-2.816 1.792-0.043 4.565 0.64 4.821 2.432 0.341 2.389-3.115 3.883-5.376 4.736-2.859 1.109-6.528 1.664-9.216 0.171-0.597-0.341-1.28-1.152-1.067-1.835zM481.195 671.488c-0.683-2.048-4.011-1.707-5.931-2.688-1.664-0.853-3.029-2.773-4.907-2.816-1.792-0.043-4.608 0.64-4.864 2.432-0.299 2.389 3.157 3.883 5.376 4.736 2.859 1.109 6.528 1.664 9.259 0.171 0.64-0.341 1.28-1.152 1.067-1.835z" fill="currentColor" />
  </g>
</svg>
