<?xml version="1.0" encoding="utf-8"?>
<svg xmlns="http://www.w3.org/2000/svg" viewBox="0 0 1024 1024" width="24" height="24">
  <g transform="scale(1, -1) translate(0, -960)">
    <path d="M853.333 832h-682.667c-23.564 0-42.667-19.103-42.667-42.667v0-682.667c0-23.564 19.103-42.667 42.667-42.667v0h682.667c23.564 0 42.667 19.103 42.667 42.667v0 682.667c0 23.564-19.103 42.667-42.667 42.667v0zM373.205 330.837c-64.647 0.049-117.035 52.466-117.035 117.12 0 64.684 52.436 117.12 117.12 117.12 64.669 0 117.096-52.412 117.12-117.075v-0.002c0-0.025 0-0.055 0-0.085 0-64.66-52.417-117.077-117.077-117.077-0.045 0-0.090 0-0.135 0h0.007zM650.795 330.837c-0.006 0-0.014 0-0.021 0-64.719 0-117.184 52.465-117.184 117.184 0 64.711 52.453 117.172 117.162 117.184h0.001c0.006 0 0.014 0 0.021 0 64.719 0 117.184-52.465 117.184-117.184 0-64.711-52.453-117.172-117.162-117.184h-0.001z" fill="currentColor" />
  </g>
</svg>
