<?xml version="1.0" encoding="utf-8"?>
<svg xmlns="http://www.w3.org/2000/svg" viewBox="0 0 1024 1024" width="24" height="24">
  <g transform="scale(1, -1) translate(0, -960)">
    <path d="M552.704 464.384l126.165 126.165-407.509 229.035c-27.008 14.592-52.309 16.64-74.496 0.683l355.84-355.883zM700.373 316.672l131.157 73.771c25.6 14.336 39.637 34.645 39.637 57.173 0 22.485-14.037 42.837-39.595 57.173l-118.741 66.688-133.675-133.632 121.216-121.173zM174.933 789.248c-2.731-8.405-4.267-17.792-4.267-28.075v-627.413c0-16.256 3.584-30.251 10.069-41.387l345.472 345.515-351.275 351.36zM552.704 411.435l-343.552-343.595c6.571-2.517 13.653-3.84 21.12-3.84 13.312 0 27.179 3.925 41.301 11.776l394.88 221.739-113.749 113.92z" fill="currentColor" />
  </g>
</svg>
