<?xml version="1.0" encoding="utf-8"?>
<svg xmlns="http://www.w3.org/2000/svg" viewBox="0 0 1024 1024" width="24" height="24">
  <g transform="scale(1, -1) translate(0, -960)">
    <path d="M321.408 437.376c-0.469-84.693 61.653-135.168 160.768-112.213v224.469c-100.352 30.549-160.341-31.275-160.768-112.256zM485.205 874.197h136.491v-646.101c-130.816-21.376-256.171-34.944-345.771 15.147-115.413 64.555-124.715 269.611-33.365 360.96 46.293 46.293 139.563 78.933 239.616 57.643v203.221c-0.256 4.309-0.512 8.619 3.029 9.131zM843.136 731.605h-136.491v142.592h136.491v-142.592zM843.136 659.456c-0.128-100.523-0.128-172.715-0.128-294.869-5.803-120.021-4.437-215.552-48.427-272.981-8.661-11.349-27.051-27.819-42.453-39.424-12.928-9.728-37.589-29.483-51.541-30.336-14.123-0.896-50.347 19.584-66.731 27.307-21.547 10.112-41.429 23.595-63.701 30.293 51.968 32.171 101.205 56.32 121.344 121.344 17.493 56.576 15.147 138.539 15.147 218.411 0 78.891 0.384 170.581 0.384 240.213l136.107 0.043z" fill="currentColor" />
  </g>
</svg>
