<?xml version="1.0" encoding="utf-8"?>
<svg xmlns="http://www.w3.org/2000/svg" viewBox="0 0 1024 1024" width="24" height="24">
  <g transform="scale(1, -1) translate(0, -960)">
    <path d="M800 832h-576c-53.019 0-96-42.981-96-96v0-576c0-53.019 42.981-96 96-96v0h576c53.019 0 96 42.981 96 96v0 576c0 53.019-42.981 96-96 96v0zM462.080 250.24c0-25.449-20.631-46.080-46.080-46.080v0h-142.080c-25.449 0-46.080 20.631-46.080 46.080v0 435.84c0 25.472 20.608 46.080 46.080 46.080h142.080c25.429 0 46.080-20.608 46.080-46.080v-435.84zM796.16 442.24c0-25.449-20.631-46.080-46.080-46.080v0h-142.080c-25.449 0-46.080 20.631-46.080 46.080v0 243.84c0 25.472 20.651 46.080 46.080 46.080h142.080c25.472 0 46.080-20.608 46.080-46.080v-243.84z" fill="currentColor" />
  </g>
</svg>
