<?xml version="1.0" encoding="utf-8"?>
<svg xmlns="http://www.w3.org/2000/svg" viewBox="0 0 1024 1024" width="24" height="24">
  <g transform="scale(1, -1) translate(0, -960)">
    <path d="M264.277 335.189c0-49.493-40.235-89.899-89.728-89.899-49.565 0.145-89.698 40.323-89.771 89.892v0.007c0.097 49.557 40.22 89.711 89.757 89.856h89.742v-89.856zM309.547 335.189c0 49.493 40.277 89.856 89.771 89.856 49.532-0.17 89.631-40.314 89.728-89.847v-225.033c-0.097-49.542-40.196-89.686-89.712-89.856h-0.016c-49.57 0.097-89.722 40.279-89.771 89.851v225.029zM399.317 695.936c-49.493 0-89.771 40.448-89.771 89.899s40.277 89.856 89.771 89.856c49.532-0.17 89.631-40.314 89.728-89.847v-89.908h-89.728zM399.317 650.709c49.547-0.17 89.656-40.338 89.728-89.892v-0.007c-0.097-49.542-40.196-89.686-89.712-89.856h-224.741c-49.55 0.145-89.674 40.299-89.771 89.847v0.009c0.073 49.575 40.205 89.753 89.757 89.899h224.739zM759.723 560.811c0 49.493 40.235 89.899 89.728 89.899 49.565-0.145 89.698-40.323 89.771-89.892v-0.007c-0.097-49.557-40.22-89.711-89.757-89.856h-89.742v89.856zM714.453 560.811c0-49.493-40.277-89.856-89.771-89.856-49.532 0.17-89.631 40.314-89.728 89.847v225.033c0.097 49.542 40.196 89.686 89.712 89.856h0.016c49.493 0 89.771-40.363 89.771-89.856v-225.024zM624.683 200.064c49.493 0 89.771-40.448 89.771-89.899s-40.277-89.856-89.771-89.856c-49.532 0.17-89.631 40.314-89.728 89.847v89.908h89.728zM624.683 245.291c-49.547 0.17-89.656 40.338-89.728 89.892v0.007c0.097 49.542 40.196 89.686 89.712 89.856h224.784c49.55-0.145 89.674-40.299 89.771-89.847v-0.009c-0.073-49.575-40.205-89.753-89.757-89.899h-224.782z" fill="currentColor" />
  </g>
</svg>
