<?xml version="1.0" encoding="utf-8"?>
<svg xmlns="http://www.w3.org/2000/svg" viewBox="0 0 1024 1024" width="24" height="24">
  <g transform="scale(1, -1) translate(0, -960)">
    <path d="M936.832 672.853c0.289 0.463 0.46 1.026 0.46 1.629 0 1.026-0.496 1.937-1.262 2.504l-0.008 0.006c-0.171 0.171-0.341 0.341-0.512 0.427l-0.256 0.085-257.408 128.768c-3.651 1.727-7.923 2.772-12.428 2.858h-0.030c-0.056 0-0.122 0.001-0.188 0.001-10.361 0-19.476-5.337-24.745-13.412l-0.069-0.113-148.224-240.896 185.984-302.208 258.688 420.352zM891.435 95.019c26.069-13.056 47.232-3.925 47.232 20.395v482.645l-247.851-402.731 200.619-100.309zM410.539 609.579v-274.176l243.669-121.813zM108.971 201.771l221.44-110.72c4.623-2.498 10.095-4.028 15.91-4.18l0.047-0.001c13.781 0 23.424 10.667 23.424 28.544v558.677c0 0.002 0 0.004 0 0.006 0 1.078-0.597 2.017-1.479 2.504l-0.015 0.007-251.435 125.653c-3.705 2.022-8.096 3.257-12.765 3.37l-0.035 0.001c-11.008 0-18.731-8.491-18.731-22.784v-542.848c0-14.549 10.667-31.744 23.637-38.229z" fill="currentColor" />
  </g>
</svg>
