<?xml version="1.0" encoding="utf-8"?>
<svg xmlns="http://www.w3.org/2000/svg" viewBox="0 0 1024 1024" width="24" height="24">
  <g transform="scale(1, -1) translate(0, -960)">
    <path d="M833.92 318.933v103.296h103.339v77.44h-103.339v103.296h-77.44v-103.296h-103.296v-77.44h103.296v-103.296zM343.552 605.781c48.341 0 80.896-20.651 99.413-38.229l73.472 71.253c-44.715 41.813-103.040 67.413-172.885 67.413-142.421 0.043-258.219-115.669-258.219-258.219s115.797-258.261 258.219-258.261c149.035 0 247.979 104.832 247.979 252.288 0 21.461-2.731 36.693-6.528 52.907h-241.579v-96.256h142.165c-6.741-40.576-43.136-109.056-142.037-109.056-85.461 0-155.179 71.040-155.179 158.037 0 87.125 69.717 158.123 155.179 158.123z" fill="currentColor" />
  </g>
</svg>
