<?xml version="1.0" encoding="utf-8"?>
<svg xmlns="http://www.w3.org/2000/svg" viewBox="0 0 1024 1024" width="24" height="24">
  <g transform="scale(1, -1) translate(0, -960)">
    <path d="M745.387 701.013v0c-92.745-1.683-169.452-68.294-186.68-156.214l-0.2-1.226c-39.296 60.146-72.35 129.429-95.639 203.053l-1.641 6.014h-96.427v-256c0-50.427-40.879-91.307-91.307-91.307s-91.307 40.879-91.307 91.307v0 256l-96.853-2.133v-256c0.605-103.224 84.424-186.67 187.733-186.67 103.684 0 187.736 84.052 187.736 187.736 0 0.375-0.001 0.75-0.003 1.124v-0.058 42.667c22.764-44.332 46.138-82.034 72.137-117.7l-1.737 2.5-58.88-282.027h98.987l42.667 205.227c36.575-23.826 81.336-37.996 129.405-37.996 1.156 0 2.31 0.008 3.463 0.025l-0.174-0.002c107.688 0 194.987 87.299 194.987 194.987s-87.299 194.987-194.987 194.987v0zM745.387 409.6v0c-41.848 1.393-79.729 17.312-109.008 42.844l0.208-0.178 9.813 38.827v2.133c6.827 42.667 28.16 110.933 100.267 110.933 0.254 0.002 0.554 0.004 0.854 0.004 52.871 0 95.759-42.74 95.999-95.554v-0.023c-1.957-53.129-43.935-95.848-96.571-98.973l-0.282-0.013z" fill="currentColor" />
  </g>
</svg>
