<?xml version="1.0" encoding="utf-8"?>
<svg xmlns="http://www.w3.org/2000/svg" viewBox="0 0 1024 1024" width="24" height="24">
  <g transform="scale(1, -1) translate(0, -960)">
    <path d="M216.619 556.501c0 33.195 5.803 64.555 17.237 93.824 11.608 29.74 27.797 55.264 47.972 77.041l-0.143-0.156c20.325 21.704 43.379 40.481 68.707 55.892l1.437 0.812c24.581 15.132 53.005 27.464 83.18 35.503l2.239 0.507c27.862 7.614 59.854 11.99 92.867 11.99 0.126 0 0.253 0 0.379 0h-0.019c48.597 0 93.824-10.283 135.765-30.763 42.008-20.707 76.473-51.11 101.429-88.413l0.587-0.931c26.197-39.040 39.211-83.2 39.211-132.437 0-29.525-2.901-58.411-8.832-86.656-6.47-30.87-15.98-58.154-28.484-83.707l0.922 2.086c-12.653-26.419-28.080-49.144-46.367-69.217l0.202 0.225c-18.455-19.848-40.701-35.89-65.622-47.020l-1.279-0.51c-25.020-11.25-54.235-17.804-84.981-17.804-0.799 0-1.597 0.004-2.394 0.013l0.121-0.001c-20.864 0-41.685 4.907-62.251 14.763-20.565 9.813-35.328 23.296-44.203 40.576-3.115-11.989-7.381-29.312-13.056-51.968-5.461-22.613-9.131-37.205-10.752-43.819-1.707-6.571-4.864-17.536-9.472-32.725-3.595-12.823-7.681-23.719-12.559-34.17l0.57 1.36-14.677-28.757c-7.237-14.001-14.29-25.696-21.997-36.907l0.749 1.152c-7.723-11.179-17.28-24.533-28.672-39.893l-6.357-2.261-4.224 4.608c-4.565 48.341-6.912 77.269-6.912 86.827 0 28.288 3.371 60.032 10.027 95.275 6.528 35.2 16.853 79.445 30.72 132.651 13.867 53.163 21.803 84.437 23.936 93.696-9.771 19.925-14.72 45.952-14.72 77.952 0 25.557 7.979 49.493 23.979 72.021 16.043 22.443 36.309 33.664 60.885 33.664 18.816 0 33.408-6.229 43.861-18.731 10.496-12.459 15.616-28.16 15.616-47.317 0-20.309-6.741-49.707-20.309-88.149-13.568-38.485-20.309-67.2-20.309-86.272 0-19.328 6.912-35.499 20.736-48.171 12.757-11.881 29.925-19.173 48.796-19.173 0.53 0 1.059 0.006 1.587 0.017l-0.079-0.001c16.896 0 32.555 3.84 47.104 11.563 14.575 7.73 26.694 18.267 36.019 30.981l0.205 0.294c19.821 26.922 34.837 58.718 43.035 93.157l0.357 1.776c4.096 18.005 7.253 35.115 9.216 51.2 2.091 16.171 2.987 31.445 2.987 45.952 0 53.205-16.896 94.677-50.475 124.373-33.749 29.696-77.696 44.459-131.755 44.459-61.483 0-112.896-19.883-154.069-59.776-41.216-39.765-61.952-90.325-61.952-151.637 0-13.525 2.048-26.581 5.931-39.211 3.797-12.587 7.936-22.613 12.416-30.037 4.437-7.296 8.619-14.421 12.416-20.992 3.84-6.571 5.845-11.264 5.845-14.080 0-8.619-2.261-19.84-6.827-33.707-4.736-13.867-10.325-20.779-17.067-20.779-0.64 0-3.285 0.469-7.893 1.451-16.542 5.036-30.635 13.972-41.725 25.765l-0.045 0.049c-11.756 12.214-21.263 26.692-27.791 42.701l-0.326 0.904c-5.806 14-10.983 30.685-14.669 47.923l-0.35 1.955c-3.581 14.457-5.635 31.054-5.635 48.131 0 0.374 0.001 0.748 0.003 1.121v-0.058z" fill="currentColor" />
  </g>
</svg>
