<?xml version="1.0" encoding="utf-8"?>
<svg xmlns="http://www.w3.org/2000/svg" viewBox="0 0 1024 1024" width="24" height="24">
  <g transform="scale(1, -1) translate(0, -960)">
    <path d="M86.485 233.685c2.603 4.181 6.656 4.48 12.331 0.853 129.493-75.093 270.421-112.853 422.656-112.853 101.589 0 201.813 19.072 300.843 56.832l11.179 4.992c4.907 2.176 8.32 3.584 10.411 4.651 8.064 3.157 13.909 1.579 18.688-4.651 4.352-6.101 3.243-11.904-4.267-17.067-9.088-6.741-21.333-14.592-35.84-23.253-44.245-26.411-93.995-46.848-148.992-61.483-48.166-13.476-103.523-21.367-160.676-21.674l-0.177-0.001c-80.597 0-157.013 14.080-229.077 42.24-74.551 29.623-138.625 69.937-193.879 119.833l0.557-0.495c-3.584 2.603-5.333 5.248-5.333 7.851 0 1.664 0.683 3.157 1.749 4.651l-0.171-0.427zM320.256 455.083c0 35.84 8.832 66.347 26.411 91.819 17.664 25.259 41.685 44.416 72.661 57.429 28.416 11.989 62.507 20.48 103.68 25.685 13.909 1.579 36.736 3.669 68.267 6.187v13.227c0 32.981-3.584 55.424-10.581 66.731-10.752 15.317-27.733 23.083-51.328 23.083h-6.4c-17.067-1.664-31.829-6.912-44.331-16.341-12.263-9.479-20.947-23.069-23.998-38.675l-0.066-0.407c-2.091-10.667-7.339-16.512-15.403-18.176l-89.813 11.264c-8.917 2.176-13.269 6.4-13.269 13.909 0 1.579 0.256 3.157 0.768 5.248 8.917 45.995 30.507 80.256 64.853 102.571 34.731 21.931 74.752 34.731 120.661 37.333h19.243c58.837 0 105.344-15.403 138.411-45.909 4.907-5.248 9.685-10.667 14.507-16.981 4.267-5.931 8.021-11.264 9.984-16.085 2.688-4.736 5.419-11.733 6.997-20.267 2.176-9.088 3.755-15.019 4.821-18.176 0.981-3.669 2.176-10.667 2.731-21.931 0.256-11.179 0.683-17.493 0.683-19.669v-187.989c0-13.397 2.091-25.685 5.845-36.907 3.755-11.093 7.424-19.243 11.179-24.021l18.261-23.936c2.627-3.609 4.343-8.036 4.73-12.838l0.006-0.090c0-4.352-2.091-8.021-6.315-11.093-42.752-37.419-66.261-57.685-69.931-60.928-5.845-4.821-13.355-5.333-22.4-1.664-6.747 5.705-12.856 11.477-18.636 17.564l-0.094 0.1-11.008 12.416c-2.176 2.688-6.016 7.424-11.349 15.019l-10.667 15.488c-28.843-31.573-57.088-51.413-85.419-59.435-17.664-5.333-38.997-8.021-65.237-8.021-39.509 0-72.576 12.16-98.261 36.821-25.515 24.576-38.4 59.264-38.4 104.661l-1.835 2.688 0.043 0.299zM453.845 470.741c0-20.267 4.992-36.352 15.147-48.597 10.069-12.16 24.021-18.261 41.173-18.261 1.493 0 3.755 0.341 6.827 0.768 3.328 0.512 4.736 0.853 6.016 0.853 21.845 5.675 38.485 19.669 50.731 41.899 5.581 9.314 9.979 20.115 12.612 31.59l0.145 0.752c3.243 11.435 4.267 21.077 4.736 28.416 0.683 7.083 0.683 19.328 0.683 35.84v19.243c-29.995 0-52.907-2.091-68.437-6.315-45.355-12.928-68.437-41.685-68.437-86.571l-1.237 0.683v-0.299zM780.075 220.501c1.067 2.176 2.688 3.925 4.651 6.101 12.843 8.576 25.429 14.592 37.419 17.749 16.896 4.538 36.529 7.609 56.717 8.553l0.627 0.023c4.992 0.427 9.984 0 14.763-1.067 22.997-2.176 37.248-6.016 41.685-11.648 2.261-3.328 3.157-8.149 3.157-13.995v-5.333c0-18.176-4.992-39.509-14.848-64.085s-23.595-44.416-41.088-59.819c-2.603-2.091-4.907-3.157-6.997-3.157-1.067 0-2.176 0-3.157 0.427-3.243 1.579-3.84 4.267-2.347 8.576 19.243 44.843 28.672 76.245 28.672 93.909 0 5.419-1.067 9.685-3.157 12.331-5.077 5.845-19.499 9.259-43.52 9.259-11.202-0.172-21.981-0.772-32.639-1.789l1.621 0.125c-12.928-1.749-24.832-3.328-35.584-4.907-3.157 0-5.248 0.597-6.4 1.579-1.067 1.067-1.323 1.664-0.768 2.731 0 0.597 0.256 1.067 0.768 2.261v2.091l0.427 0.085z" fill="currentColor" />
  </g>
</svg>
