<?xml version="1.0" encoding="utf-8"?>
<svg xmlns="http://www.w3.org/2000/svg" viewBox="0 0 1024 1024" width="24" height="24">
  <g transform="scale(1, -1) translate(0, -960)">
    <path d="M305.963 746.283c0-51.558-41.796-93.355-93.355-93.355s-93.355 41.796-93.355 93.355c0 51.558 41.796 93.355 93.355 93.355s93.355-41.796 93.355-93.355zM394.112 582.187v-517.931h160.811v256.128c0 67.584 12.715 133.035 96.512 133.035 82.645 0 83.669-77.269 83.669-137.301v-251.904h160.896v284.032c0 139.52-30.037 246.741-193.109 246.741-78.293 0-130.773-42.965-152.235-83.627h-2.176v70.827h-154.368zM132.053 582.187h161.067v-517.931h-161.067z" fill="currentColor" />
  </g>
</svg>
