<?xml version="1.0" encoding="utf-8"?>
<svg xmlns="http://www.w3.org/2000/svg" viewBox="0 0 1024 1024" width="24" height="24">
  <g transform="scale(1, -1) translate(0, -960)">
    <path d="M409.301 491.904c-23.125 0-41.344-20.267-41.344-45.013 0-24.661 18.645-45.013 41.344-45.013 23.083 0 41.301 20.352 41.301 45.013 0.469 24.789-18.219 45.013-41.301 45.013zM557.269 491.904c-23.125 0-41.344-20.267-41.344-45.013 0-24.661 18.645-45.013 41.344-45.013 23.083 0 41.301 20.352 41.301 45.013-0.043 24.789-18.219 45.013-41.301 45.013zM754.261 832h-543.189c-45.906-0.121-83.072-37.363-83.072-83.285 0-0.075 0-0.15 0-0.225v0.012-548.011c0-46.208 37.291-83.499 83.072-83.499h459.648l-21.547 75.051 51.925-48.256 49.024-45.397 87.211-77.056v727.168c0 0.063 0 0.139 0 0.214 0 45.922-37.167 83.164-83.061 83.285h-0.011zM597.76 302.635s-14.592 17.408-26.709 32.896c53.077 15.019 73.344 48.213 73.344 48.213-16.64-10.923-32.427-18.688-46.635-23.979-32.488-13.97-70.304-22.094-110.018-22.094-19.007 0-37.58 1.861-55.545 5.41l1.809-0.298c-22.801 4.535-42.75 10.577-61.835 18.307l2.272-0.813c-11.654 4.453-21.393 9.058-30.73 14.295l1.162-0.599c-1.237 0.896-2.432 1.237-3.627 2.048-0.657 0.317-1.211 0.748-1.658 1.273l-0.006 0.007c-7.296 4.011-11.349 6.827-11.349 6.827s19.456-32.427 70.955-47.829c-12.16-15.36-27.179-33.664-27.179-33.664-89.557 2.859-123.563 61.611-123.563 61.611 0 130.517 58.368 236.288 58.368 236.288 58.368 43.819 113.877 42.581 113.877 42.581l4.053-4.864c-72.96-21.12-106.624-53.12-106.624-53.12s8.96 4.864 23.936 11.733c43.349 19.029 77.781 24.32 91.989 25.557 2.432 0.384 4.48 0.811 6.912 0.811 13.276 1.887 28.611 2.965 44.196 2.965 58.581 0 113.607-15.222 161.338-41.926l-1.673 0.86s-32.043 30.379-100.949 51.456l5.675 6.485s55.552 1.237 113.877-42.581c0 0 58.368-105.771 58.368-236.288 0 0.043-34.432-58.709-124.032-61.568z" fill="currentColor" />
  </g>
</svg>
