<?xml version="1.0" encoding="utf-8"?>
<svg xmlns="http://www.w3.org/2000/svg" viewBox="0 0 1024 1024" width="24" height="24">
  <g transform="scale(1, -1) translate(0, -960)">
    <path d="M799.147 729.173l-54.613-42.667-232.533-172.8-232.533 174.507-54.613 42.667c-14.648 12.186-33.657 19.582-54.393 19.582-47.128 0-85.333-38.205-85.333-85.333 0-2.086 0.075-4.155 0.222-6.204l-0.016 0.275v-494.507c0-32.047 25.979-58.027 58.027-58.027v0h136.107v329.387l232.533-174.507 232.533 174.507v-329.387h136.107c32.047 0 58.027 25.979 58.027 58.027v0 494.507c0.064 1.235 0.1 2.68 0.1 4.135 0 47.128-38.205 85.333-85.333 85.333-20.688 0-39.656-7.362-54.428-19.609l0.141 0.114z" fill="currentColor" />
  </g>
</svg>
