<?xml version="1.0" encoding="utf-8"?>
<svg xmlns="http://www.w3.org/2000/svg" viewBox="0 0 1024 1024" width="24" height="24">
  <g transform="scale(1, -1) translate(0, -960)">
    <path d="M859.904 596.736c36.267 86.997 38.656 159.488-4.821 202.965-48.341 48.299-164.352 33.792-287.445-24.107h-14.549c-86.912 0-171.52-31.488-234.325-86.997-53.077-48.341-91.733-111.147-108.672-181.163 12.075 14.379 79.744 94.165 157.013 137.643 2.475 0 21.76 12.075 21.76 12.075-2.432 0-38.613-36.267-45.824-43.52-169.173-173.909-268.16-437.248-190.848-514.517 50.688-50.731 142.507-38.656 248.789 19.285 45.867-21.76 96.64-31.36 152.107-31.36 72.491 0 140.16 19.328 198.101 57.984 60.416 38.656 103.936 98.944 130.517 169.045h-188.416c-24.149-45.867-79.744-77.312-137.685-77.312-82.176 0-149.845 67.669-152.235 144.939v7.211h492.843v7.253c0 12.075 2.432 26.581 2.432 36.181-0.043 58.112-14.549 113.664-38.741 164.395zM205.269 113.579c-38.656 38.656-26.496 113.579 19.328 202.923 21.76-60.416 57.984-113.579 103.893-152.192 14.549-12.032 31.36-24.107 48.341-33.792-77.397-41.088-140.16-48.341-171.563-16.939zM700.459 480.768h-294.699v2.432c4.821 74.923 74.837 140.16 157.056 140.16 77.312 0 140.117-60.416 144.939-140.16v-2.432h-7.296zM847.829 616.064c-15.689 25.92-34.117 48.177-55.343 67.402l-0.252 0.224c-32.578 30.389-71.082 54.928-113.524 71.643l-2.444 0.848c77.355 36.224 142.549 41.003 176.384 7.211 26.581-31.403 24.192-84.523-4.821-147.328 0-2.432 0-2.432 0 0 0-2.432 0-2.432 0 0z" fill="currentColor" />
  </g>
</svg>
