<?xml version="1.0" encoding="utf-8"?>
<svg xmlns="http://www.w3.org/2000/svg" viewBox="0 0 1024 1024" width="24" height="24">
  <g transform="scale(1, -1) translate(0, -960)">
    <path d="M923.051 484.779c-0.667 4.714-1.561 8.84-2.721 12.853l0.161-0.651-7.979-10.069c-1.537 19.999-4.99 38.516-10.211 56.275l0.483-1.917c-7.2 24.87-15.781 46.255-26.185 66.551l0.969-2.082c-6.962 15.013-14.647 27.895-23.48 39.879l0.44-0.626c-4.651 7.253-8.661 12.629-9.429 13.739-15.445 25.131-32.725 40.405-53.291 69.163-12.377 20.616-21.539 44.693-26.055 70.371l-0.185 1.267c-5.234-13.262-9.715-28.974-12.686-45.213l-0.242-1.592c-20.608 20.864-38.955 36.096-49.835 46.080-54.059 50.475-47.488 76.373-47.488 76.373s-100.864-112.427-57.259-229.419c15.754-40.789 41.67-74.71 74.702-99.73l0.562-0.408c42.197-34.688 87.552-61.952 111.317-132.309-19.525 37.307-48.115 67.539-82.925 88.487l-1.001 0.559c10.795-25.685 16.213-52.565 15.829-80.384-0.073-105.23-85.395-190.507-190.635-190.507-0.12 0-0.24 0-0.36 0h0.019c-0.316-0.002-0.689-0.003-1.063-0.003-14.526 0-28.656 1.696-42.203 4.901l1.24-0.247c-17.771 3.429-33.59 9.033-48.207 16.632l0.975-0.461c-22.705 13.634-41.664 31.124-56.537 51.755l-0.38 0.555v0.299c0.913-0.416 1.983-0.769 3.096-1.006l0.104-0.018c7.979-2.859 15.872-5.035 24.192-6.528 9.362-2.053 20.116-3.229 31.145-3.229 23.478 0 45.71 5.33 65.555 14.845l-0.913-0.394c30.208 16.896 48.597 29.227 63.317 24.491 14.848-4.651 25.941 9.387 15.915 24.107-14.599 18.775-37.19 30.739-62.575 30.739-4.876 0-9.65-0.441-14.282-1.287l0.484 0.073c-30.336-4.309-58.027-25.557-97.28-4.992-2.859 1.365-4.992 2.816-7.509 4.309-2.56 1.792 8.619-2.176 5.717-0.384-9.549 4.716-17.683 9.64-25.356 15.164l0.524-0.359c-0.384 0.384 6.187-1.835 5.376-1.408-10.331 7.066-18.963 15.78-25.725 25.854l-0.217 0.343c-3.558 6.517-5.651 14.274-5.651 22.521 0 6.868 1.452 13.398 4.065 19.298l-0.12-0.304c3.731 6.614 9.292 11.818 15.996 15.011l0.218 0.093 8.192-4.267s-2.517 4.267-3.627 6.443c0.427 0.341 0.811 0 1.493 0.341 4.352-1.792 14.037-6.784 19.413-10.069 3.661-1.945 6.693-4.622 8.992-7.857l0.053-0.079s1.835 0.725 0.384 4.608c-1.814 4.787-5.114 8.666-9.329 11.166l-0.101 0.055h0.768c3.968-2.176 7.595-4.352 11.136-7.125 3.243 7.936 5.077 15.701 4.779 24.021 0.035 0.59 0.055 1.28 0.055 1.975 0 4.074-0.692 7.987-1.965 11.626l0.075-0.247c-1.493 2.859 0.725 3.968 3.2 1.067-0.442 2.435-1.198 4.61-2.237 6.615l0.061-0.129s1.451 2.176 2.176 2.645c1.835 1.707 3.584 3.499 5.803 4.565 12.501 7.893 25.557 14.805 39.253 20.224 9.267 3.625 16.504 6.895 23.568 10.457l-1.595-0.729c2.859 1.792 5.419 3.584 7.936 5.803 9.387 7.893 15.531 18.688 17.621 30.635 0.427 1.707 0.427 3.157 0.427 4.565v2.944c-1.451 6.144-11.904 10.453-66.261 15.872-19.309 3.031-34.563 17.438-38.809 36.036l-0.061 0.316v-0.299c-0.607-1.445-1.347-3.512-2.009-5.614l-0.167-0.615c0.683 2.261 1.408 4.011 2.176 6.229v0.299c10.79 27.617 29.261 50.27 52.782 65.942l0.509 0.319c1.323 1.067-5.376-0.299-3.968 0.725 4.352 2.176 9.003 4.395 14.037 6.187 2.517 0.768-10.453 5.717-21.973 4.693-7.397-0.537-14.259-2.212-20.618-4.854l0.437 0.161c2.859 2.091 10.752 5.035 8.96 5.035-15.586-2.806-29.49-8.209-41.92-15.79l0.533 0.302c0 1.408 0.427 2.56 0.768 3.541-10.354-4.425-18.976-11.185-25.491-19.65l-0.109-0.148v4.779c-4.583-3.754-8.695-7.663-12.502-11.852l-0.085-0.095h-0.341c-17.908 7.14-38.662 11.28-60.383 11.28-11.929 0-23.567-1.249-34.789-3.623l1.092 0.193-0.341 0.384h0.341c-6.523 5.236-12.011 11.431-16.334 18.422l-0.178 0.308-0.427-0.299-0.64 0.683c-2.261 2.901-3.968 6.485-6.272 10.496-1.707 2.56-3.157 5.803-4.949 8.96 0 0 0 0.341-0.341 0.341-0.427 0-1.109-3.285-1.408-2.091-4.873 12.205-7.7 26.35-7.7 41.155 0 1.327 0.023 2.648 0.068 3.964l-0.005-0.191h-0.341c-8.924-5.956-15.636-14.615-19.018-24.793l-0.097-0.337c-1.749-3.669-2.859-5.461-3.925-7.637v1.195l1.024 5.333c-0.256-0.384-0.256-0.725-0.725-1.067-2.446-2.845-4.581-6.071-6.282-9.546l-0.118-0.267c-1.735-2.974-3.231-6.412-4.308-10.031l-0.086-0.337v1.792c0 1.451 0.384 3.627 0 2.859l-0.384-0.981c-11.024-23.686-18.684-51.188-21.507-80.107l-0.082-1.045c-0.683-5.035-0.683-9.728-0.683-14.379v-0.768c-7.932-8.63-15.168-18.16-21.465-28.333l-0.466-0.808c-19.708-32.663-35.563-70.474-45.564-110.601l-0.601-2.85c6.869 15.104 15.104 29.909 24.875 43.563-17.791-43.53-28.118-94.044-28.118-146.97 0-0.141 0-0.281 0-0.422v0.022c3.243 14.763 7.211 29.184 11.861 43.605-0.27-5.304-0.424-11.517-0.424-17.766 0-56.415 12.532-109.903 34.964-157.832l-0.961 2.286c34.401-76.034 89.321-137.694 157.724-179.437l1.764-1c26.589-18.434 57.282-33.641 90.111-44.049l2.433-0.666c4.352-1.408 9.088-3.157 13.355-4.651-1.451 0.768-2.517 1.493-3.925 1.792 35.978-11.126 77.344-17.561 120.204-17.621h0.031c144.512 0 192.043 55.125 196.693 60.501 6.827 6.443 12.928 14.123 16.896 23.083 2.901 1.024 5.419 2.133 8.32 3.584l1.749 0.683c2.176 1.109 3.2 1.451 3.2 1.451 23.374 11.072 43.515 23.825 61.886 38.678l-0.574-0.449c27.48 20.098 47.576 48.857 56.345 82.21l0.231 1.033c5.333 12.203 5.333 25.6 1.024 38.144 2.133 3.584 4.011 6.869 4.309 7.595 29.792 47.047 48.485 103.776 51.133 164.668l0.024 0.708v4.949c0.003 0.417 0.005 0.91 0.005 1.404 0 12.649-1.119 25.038-3.264 37.071l0.188-1.269z" fill="currentColor" />
  </g>
</svg>
