<?xml version="1.0" encoding="utf-8"?>
<svg xmlns="http://www.w3.org/2000/svg" viewBox="0 0 1024 1024" width="24" height="24">
  <g transform="scale(1, -1) translate(0, -960)">
    <path d="M573.611 607.744c-17.067-9.045-23.211-23.979-23.211-65.28 0 0 8.619 8.277 21.291 12.928 8.343 3.067 15.563 7.029 22.070 11.894l-0.225-0.161c14.421 10.539 16.427 23.979 16.427 46.763 0 0-23.595 0.683-36.352-6.144zM473.387 597.973c-13.653-12.203-17.835-31.531-17.835-31.531l-45.995-176.683-37.931 144.853c-3.712 15.147-10.496 34.475-21.12 47.232-13.227 16.128-40.277 17.109-43.307 17.109-2.901 0-30.251-0.981-43.776-17.365-10.496-12.928-17.323-32.043-21.035-47.275l-37.931-144.853-45.483 176.939s-3.925 19.584-17.835 31.531c-22.571 19.84-56.064 15.659-56.064 15.659l87.381-331.264s28.885-2.219 43.307 5.376c18.816 9.557 28.117 17.109 39.637 62.421 10.283 40.107 38.912 158.037 41.557 166.613 1.237 4.181 2.987 14.165 10.283 14.165 7.637 0 9.131-9.771 10.283-14.165 2.731-8.32 31.104-126.507 41.643-166.613 11.435-45.013 20.523-52.352 39.637-62.421 14.421-7.595 43.307-5.376 43.307-5.376l87.381 331.051c-0.085 0-33.664 4.224-56.107-15.403zM609.963 559.573s-5.504-8.32-17.92-15.659c-8.021-4.437-15.659-7.595-23.979-11.563-13.781-6.571-17.664-14.165-17.664-25.387v-224.683s22.272-2.688 36.437 4.437c18.603 9.472 22.741 18.56 23.083 59.904v212.949zM828.075 447.275l110.891 165.333s-46.763 8.064-70.016-13.184c-14.933-13.44-31.488-37.76-31.488-37.76l-40.619-59.136c-2.261-2.944-4.437-6.4-8.533-6.4-4.224 0-6.869 3.2-8.619 6.4l-41.045 58.965s-16.427 24.235-31.573 37.717c-23.040 21.291-70.016 13.227-70.016 13.227l111.061-164.907-111.061-164.608s48.896-6.357 72.021 14.933c14.933 13.44 29.355 35.712 29.355 35.712l40.533 59.008c2.261 2.901 4.437 6.272 8.533 6.272 4.267 0 6.869-3.2 8.619-6.272l40.619-59.008s15.147-21.76 29.867-35.712c22.955-21.291 71.125-14.933 71.125-14.933l-109.653 164.352z" fill="currentColor" />
  </g>
</svg>
