<?xml version="1.0" encoding="utf-8"?>
<svg xmlns="http://www.w3.org/2000/svg" viewBox="0 0 1024 1024" width="24" height="24">
  <g transform="scale(1, -1) translate(0, -960)">
    <path d="M768.085 832.128h-512.128c-70.667-0.218-127.892-57.458-128.085-128.11v-512.103c0.266-70.624 57.458-127.801 128.062-128.043h512.151c70.609 0.266 127.777 57.434 128.043 128.017v512.11c-0.217 70.646-57.404 127.862-128.017 128.128h-0.025zM698.112 292.523c-6.485-15.36-16.597-29.013-29.568-39.552-14.593-11.423-31.741-20.394-50.371-25.921l-1.085-0.276c-20.907-6.443-45.824-9.771-74.667-9.771h-205.867v448.213h217.728c40.235 0 72.533-9.088 96.725-27.563 24.277-18.603 36.437-46.165 36.437-83.541 0-22.528-5.547-41.941-16.597-57.899-11.051-15.915-26.88-28.331-47.403-37.035v-1.451c27.392-5.76 48.512-18.688 62.464-38.912 13.952-20.181 21.035-45.611 21.035-76.331 0-17.28-3.328-33.621-9.6-48.939l0.853-0.896v-0.128zM609.195 402.987c-13.184 12.032-31.531 17.877-55.339 17.877h-138.411v-139.776h138.795c23.637 0 42.283 6.144 55.381 18.56 13.141 12.331 19.797 29.909 19.797 52.437-0.213 22.101-6.656 39.211-19.797 50.901h-0.427zM589.952 493.397c12.757 10.709 18.944 26.155 18.944 46.251 0 22.443-5.589 38.485-16.939 47.616-11.264 9.131-27.563 13.909-48.896 13.909h-128.043v-123.648h128.043c18.603-0.043 34.56 5.419 46.891 15.872z" fill="currentColor" />
  </g>
</svg>
