<?xml version="1.0" encoding="utf-8"?>
<svg xmlns="http://www.w3.org/2000/svg" viewBox="0 0 1024 1024" width="24" height="24">
  <g transform="scale(1, -1) translate(0, -960)">
    <path d="M223.531 317.312l84.096 541.099c1.478 9.334 9.467 16.385 19.103 16.385 7.331 0 13.71-4.082 16.985-10.097l0.051-0.101 90.453-169.771-210.688-377.515zM820.907 186.027l-80.085 497.963c-1.632 9.185-9.556 16.069-19.087 16.069-5.299 0-10.101-2.128-13.598-5.575l0.002 0.002-505.045-508.459 279.467-157.483c17.536-9.813 38.912-9.813 56.448 0l281.899 157.483zM593.792 620.587l-64.725 123.861c-3.298 6.174-9.7 10.305-17.067 10.305s-13.768-4.13-17.016-10.201l-0.051-0.103-284.203-509.312 383.061 385.451z" fill="currentColor" />
  </g>
</svg>
