<?xml version="1.0" encoding="utf-8"?>
<svg xmlns="http://www.w3.org/2000/svg" viewBox="0 0 1024 1024" width="24" height="24">
  <g transform="scale(1, -1) translate(0, -960)">
    <path d="M560.256 64s-26.88 4.864-48.555 4.864c-19.499 0-48.725-4.864-48.725-4.864l6.101 326.229c-45.269 78.251-178.347 316.629-261.376 441.771 41.771-9.515 59.349-8.917 101.291 0l0.64-1.067c52.864-93.611 133.76-224.171 202.069-337.28 67.499 111.147 173.696 284.672 202.539 338.347 32.64-8.576 65.536-8.235 102.059 0-38.4-51.755-178.133-293.547-262.528-441.771l6.229-326.229h0.256z" fill="currentColor" />
  </g>
</svg>
