<?xml version="1.0" encoding="utf-8"?>
<svg xmlns="http://www.w3.org/2000/svg" viewBox="0 0 1024 1024" width="24" height="24">
  <g transform="scale(1, -1) translate(0, -960)">
    <path d="M273.92 538.88l238.080-465.493 238.080 465.493h-476.16zM251.733 788.907l-166.4-223.147h154.453l11.947 223.147zM512 814.080l-229.12-248.32h458.24l-229.12 248.32zM87.040 538.88l387.84-451.413-230.827 451.413h-157.013zM491.947 832h-6.4l-206.507-21.76c0.096-0.319 0.151-0.687 0.151-1.067s-0.055-0.747-0.158-1.094l0.007 0.027-11.52-219.733zM549.12 87.467l387.84 451.413h-157.013l-230.827-451.413zM744.533 807.253c-0.096 0.319-0.151 0.687-0.151 1.067s0.055 0.747 0.158 1.094l-0.007-0.027-213.333 22.613 224.427-243.627zM772.267 788.907l11.947-223.147h154.453l-94.72 127.147-71.68 96z" fill="currentColor" />
  </g>
</svg>
