<?xml version="1.0" encoding="utf-8"?>
<svg xmlns="http://www.w3.org/2000/svg" viewBox="0 0 1024 1024" width="24" height="24">
  <g transform="scale(1, -1) translate(0, -960)">
    <path d="M682.667 224.427c106.667 12.8 200.107 78.507 213.333 138.667 10.885 66.357 17.105 142.834 17.105 220.763 0 3.688-0.014 7.374-0.042 11.056l0.003-0.566c-2.987 185.173-124.587 237.653-124.587 237.653-74.748 27.305-161.044 43.097-251.030 43.097-8.95 0-17.863-0.156-26.738-0.466l1.287 0.036c-7.587 0.274-16.501 0.43-25.45 0.43-89.985 0-176.282-15.792-256.27-44.755l5.24 1.658s-121.173-52.48-121.173-237.653v-146.773c4.267-180.907 33.28-359.253 200.533-403.627 50.739-14.747 109.024-23.23 169.291-23.23 9.788 0 19.523 0.224 29.202 0.666l-1.372-0.050c55.013 1.501 106.721 14.078 153.485 35.567l-2.445-1.007-2.987 69.973c-40.699-12.282-87.472-19.352-135.895-19.352-4.275 0-8.537 0.055-12.786 0.165l0.627-0.013c-76.8 2.56-158.293 8.107-170.667 102.4-0.317 4.023-0.498 8.71-0.498 13.44s0.181 9.417 0.535 14.056l-0.038-0.616c50.064-11.926 108.578-20.17 168.518-22.96l2.148-0.080c5.285-0.1 11.518-0.157 17.765-0.157 53.968 0 106.945 4.246 158.614 12.421l-5.712-0.745zM403.627 642.56q-57.6 0-57.6-69.12v-217.6h-90.027v224.427c-0.147 2.578-0.231 5.595-0.231 8.631 0 38.192 13.275 73.283 35.462 100.911l-0.245-0.315c22.44 26.198 55.555 42.695 92.523 42.695 0.922 0 1.843-0.010 2.76-0.031l-0.137 0.002c1.831 0.105 3.973 0.164 6.13 0.164 40.237 0 75.62-20.783 96-52.199l0.271-0.445 22.187-37.12 22.187 37.12c20.651 31.862 56.033 52.644 96.27 52.644 2.156 0 4.298-0.060 6.425-0.177l-0.295 0.013c0.781 0.018 1.701 0.028 2.623 0.028 36.968 0 70.083-16.497 92.385-42.53l0.138-0.165c23.417-27.808 37.646-64.025 37.646-103.566 0-1.991-0.036-3.973-0.108-5.946l0.008 0.285v-224.427h-90.027v217.6q0 69.12-57.6 69.12c-42.667 0-64.427-27.307-64.427-81.92v-119.040h-86.613v119.040c0 54.613-23.040 81.92-65.707 81.92z" fill="currentColor" />
  </g>
</svg>
