<?xml version="1.0" encoding="utf-8"?>
<svg xmlns="http://www.w3.org/2000/svg" viewBox="0 0 1024 1024" width="24" height="24">
  <g transform="scale(1, -1) translate(0, -960)">
    <path d="M881.493 661.333c-5.636 10.131-13.591 18.359-23.179 24.158l-0.288 0.162-313.173 180.907c-9.536 5.057-20.848 8.026-32.853 8.026s-23.317-2.969-33.241-8.213l0.388 0.187-313.173-180.907c-18.961-12.315-31.632-32.93-32.846-56.573l-0.007-0.174v-361.813c0.335-12.011 3.781-23.151 9.555-32.728l-0.168 0.301c5.636-10.131 13.591-18.359 23.179-24.158l0.288-0.162 313.173-180.907c9.536-5.057 20.848-8.026 32.853-8.026s23.317 2.969 33.241 8.213l-0.388-0.187 313.173 180.907c9.876 5.961 17.831 14.189 23.299 23.993l0.168 0.327c5.606 9.276 9.052 20.415 9.385 32.333l0.002 0.093v361.813c-0.335 12.011-3.781 23.151-9.555 32.728l0.168-0.301zM512 195.413c-139.013 0.642-251.457 113.481-251.457 252.584 0 139.5 113.087 252.587 252.587 252.587 92.304 0 173.045-49.512 217.111-123.426l0.639-1.158-48.213-30.293-15.36-8.533-42.667-26.027c-22.076 40.343-64.227 67.245-112.662 67.245-70.692 0-128-57.308-128-128 0-0.841 0.008-1.68 0.024-2.517l-0.002 0.126c-0.001-0.199-0.002-0.434-0.002-0.669 0-23.044 6.343-44.606 17.379-63.036l-0.31 0.559c22.837-37.188 63.286-61.616 109.44-61.616s86.603 24.428 109.122 61.060l0.318 0.555 110.933-64.853c-44.909-75.091-125.795-124.587-218.24-124.587-0.225 0-0.45 0-0.674 0.001h0.035zM764.587 433.92h-28.16v-28.587h-27.733v28.16h-26.027v28.16h28.16v29.013h27.733v-28.16h28.16zM869.973 433.92h-28.16v-28.587h-28.16v28.16h-27.733v28.16h27.733v29.013h28.16v-28.16h28.16z" fill="currentColor" />
  </g>
</svg>
