<?xml version="1.0" encoding="utf-8"?>
<svg xmlns="http://www.w3.org/2000/svg" viewBox="0 0 1024 1024" width="24" height="24">
  <g transform="scale(1, -1) translate(0, -960)">
    <path d="M588.16 480.213c0-42.062-34.098-76.16-76.16-76.16s-76.16 34.098-76.16 76.16c0 42.062 34.098 76.16 76.16 76.16s76.16-34.098 76.16-76.16zM298.752 328.789l-16.853 4.309c-125.184 31.616-196.992 85.376-196.992 147.285 0 61.952 71.851 115.669 196.992 147.285l16.853 4.267 4.736-16.683c14.494-49.61 30.98-91.825 50.639-132.213l-2.169 4.938 3.627-7.595-3.627-7.595c-19.627-41.088-35.883-83.669-48.469-127.36l-4.736-16.64zM274.133 588.843c-95.104-26.795-153.515-67.669-153.515-108.459 0-40.704 58.368-81.621 153.515-108.373 11.648 37.035 25.728 73.259 42.027 108.373-14.231 29.395-28.485 65.313-40.327 102.31l-1.7 6.149zM725.205 328.789l-4.693 16.725c-14.54 49.652-31.040 91.88-50.695 132.29l2.183-4.972-3.627 7.552 3.627 7.637c19.627 41.003 35.797 83.627 48.512 127.317l4.693 16.64 16.853-4.267c125.227-31.616 196.992-85.333 196.992-147.328 0-61.952-71.808-115.669-196.992-147.285l-16.853-4.309zM707.712 480.384c17.067-36.949 31.275-73.301 42.112-108.373 95.147 26.752 153.557 67.669 153.557 108.373 0 40.789-58.368 81.621-153.557 108.459-13.644-43.224-27.924-79.137-44.398-113.805l2.286 5.347zM273.877 589.013l-4.693 16.64c-35.243 124.075-24.576 212.949 29.312 243.925 52.693 30.507 137.472-5.547 226.261-96.64l12.117-12.459-12.117-12.416c-30.574-31.76-58.89-66.225-84.374-102.809l-1.812-2.748-4.821-6.912-8.363-0.683c-50.019-4.005-95.964-11.7-140.489-22.958l5.791 1.241-16.811-4.181zM341.376 824.917c-9.557 0-18.005-2.091-25.131-6.187-35.328-20.352-41.557-91.221-17.237-186.88 38.016 8.405 76.373 14.421 115.029 17.792 23.933 33.757 47.92 63.296 73.653 91.201l-0.565-0.62c-55.595 54.059-108.075 84.693-145.749 84.693zM682.581 100.267c-50.688 0-115.797 38.229-183.381 107.605l-12.075 12.416 12.075 12.373c30.569 31.799 58.899 66.305 84.407 102.922l1.822 2.763 4.779 6.827 8.277 0.811c49.98 3.93 95.946 11.598 140.481 22.862l-5.74-1.23 16.853 4.267 4.736-16.683c35.072-123.989 24.448-212.992-29.355-243.968-11.965-6.903-26.316-10.975-41.617-10.975-0.444 0-0.887 0.003-1.33 0.010l0.067-0.001zM536.875 220.587c55.552-54.059 108.075-84.736 145.707-84.736 9.6 0 18.048 2.133 25.131 6.187 35.371 20.395 41.643 91.392 17.237 187.051-37.973-8.448-76.373-14.507-115.115-17.877-23.815-33.783-47.765-63.34-73.503-91.22l0.543 0.596zM750.080 589.013l-16.853 4.224c-38.784 10.057-84.745 17.754-131.814 21.528l-2.928 0.189-8.277 0.725-4.779 6.912c-27.273 39.337-55.605 73.804-86.471 105.809l0.242-0.252-12.075 12.416 12.075 12.373c88.747 91.051 173.483 127.104 226.261 96.64 53.845-31.019 64.555-119.893 29.355-243.925l-4.736-16.64zM609.835 649.643c40.704-3.627 79.275-9.728 115.115-17.792 24.363 95.659 18.133 166.528-17.237 186.923-35.157 20.352-101.333-10.795-170.837-78.549 26.283-28.587 50.688-58.795 72.96-90.581zM341.376 100.267c-0.359-0.005-0.783-0.009-1.208-0.009-15.32 0-29.689 4.072-42.084 11.192l0.412-0.218c-53.888 30.976-64.555 119.936-29.355 243.968l4.608 16.683 16.853-4.267c41.131-10.368 86.443-17.664 134.741-21.632l8.277-0.811 4.821-6.827c25.771-37.461 54.613-72.832 86.187-105.685l12.117-12.373-12.117-12.416c-67.541-69.419-132.651-107.605-183.253-107.605zM299.008 329.045c-24.32-95.659-18.091-166.656 17.237-187.051 35.2-20.053 101.163 10.88 170.88 78.592-25.151 27.285-49.138 56.823-71.216 87.815l-1.872 2.767c-43.448 3.902-82.684 10.22-120.969 19.028l5.94-1.15zM512 306.645c-29.312 0-59.392 1.237-89.6 3.755l-8.363 0.725-4.821 6.912c-14.48 20.432-30.357 45.065-45.249 70.349l-2.794 5.129c-11.945 20.079-25.758 46.075-38.543 72.658l-2.886 6.659-3.584 7.552 3.584 7.637c12.757 26.965 26.539 53.419 41.429 79.275 14.805 25.429 30.976 50.859 48.043 75.52l4.821 6.827 8.363 0.768c26.826 2.385 58.033 3.744 89.557 3.744s62.732-1.36 93.566-4.023l-4.008 0.279 8.277-0.811 4.821-6.827c31.384-44.452 61.227-95.192 86.813-148.367l2.787-6.428 3.541-7.637-3.541-7.552c-28.261-59.562-58.109-110.308-91.829-158.127l2.229 3.333-4.821-6.912-8.277-0.725c-30.123-2.432-60.245-3.712-89.515-3.712zM433.749 345.216c52.693-3.968 103.808-3.968 156.459 0 26.733 38.548 52.743 82.826 75.44 129.027l2.726 6.141c-25.282 52.273-51.297 96.557-80.383 138.553l2.218-3.385c-23.421 1.916-50.697 3.008-78.229 3.008s-54.81-1.092-81.791-3.236l3.562 0.228c-26.91-38.629-52.927-82.915-75.523-129.177l-2.642-5.991c25.509-52.387 51.517-96.662 80.489-138.738l-2.323 3.57z" fill="currentColor" />
  </g>
</svg>
