<?xml version="1.0" encoding="utf-8"?>
<svg xmlns="http://www.w3.org/2000/svg" viewBox="0 0 1024 1024" width="24" height="24">
  <g transform="scale(1, -1) translate(0, -960)">
    <path d="M314.837 328.917c0.171-0.427 4.181-11.477 6.443-16.896 13.282-30.933 31.39-57.341 53.67-79.568l0.005-0.005c45.276-45.426 107.904-73.532 177.096-73.532 35.234 0 68.765 7.288 99.169 20.438l-1.62-0.624c60.29 25.949 107.36 73.033 132.666 131.706l0.624 1.627c12.435 28.533 19.671 61.774 19.671 96.706 0 0.277 0 0.553-0.001 0.83v-0.043c0 33.835-6.528 66.688-19.669 97.579-13.277 30.913-31.37 57.306-53.629 79.527l-0.003 0.003c-45.261 45.339-107.831 73.387-176.951 73.387-0.071 0-0.141 0-0.212 0h0.011c-0.147 0-0.32 0-0.494 0-35.514 0-69.339-7.232-100.083-20.303l1.675 0.633c-24.32-10.283-65.536-36.779-89.685-61.696l-0.085-0.085v206.165h346.325c12.587 0.128 12.587 17.792 12.587 23.467 0 5.845 0 23.424-12.629 23.595h-374.485c-0.013 0-0.028 0-0.043 0-9.074 0-16.439-7.32-16.511-16.377v-290.183c0-9.429 11.648-16.171 22.485-18.517 21.163-4.437 26.027 2.261 31.232 9.472l0.64 0.896c7.979 11.733 32.725 36.608 32.896 36.821 36.894 36.983 87.91 59.864 144.271 59.864 0.37 0 0.74-0.001 1.109-0.003h-0.057c0.245 0.001 0.535 0.002 0.825 0.002 56.271 0 107.196-22.885 143.978-59.855l0.008-0.008c37.102-36.745 60.075-87.699 60.075-144.019 0-0.143 0-0.287 0-0.43v0.022c0-54.613-21.248-105.941-59.733-144.427-37.422-37.003-88.898-59.861-145.712-59.861-0.013 0-0.026 0-0.039 0h0.002c-0.215-0.001-0.47-0.001-0.725-0.001-37.878 0-73.28 10.601-103.401 28.998l0.873-0.495 0.171 176.512c0 23.552 10.155 49.109 27.307 68.437 18.482 21.048 45.446 34.262 75.496 34.262 0.128 0 0.257 0 0.385-0.001h-0.020c28.459 0 55.083-10.837 74.837-30.464 19.627-19.413 30.464-45.397 30.464-73.003 0.003-0.294 0.005-0.642 0.005-0.99 0-57.567-46.667-104.235-104.235-104.235-0.467 0-0.933 0.003-1.398 0.009l0.071-0.001c-11.435 0-32.128 4.992-32.981 5.248-11.989 3.584-17.067-13.013-18.731-18.56-6.443-20.992 3.285-25.173 5.205-25.771 19.115-5.888 31.616-6.997 47.957-6.997 83.667 0.097 151.461 67.921 151.509 151.59v0.005c0 82.901-67.925 150.443-151.381 150.443-0.204 0.001-0.445 0.002-0.686 0.002-41.905 0-79.879-16.827-107.535-44.094l0.018 0.018c-27.477-26.965-43.221-63.061-43.221-98.859v-0.896c-0.171-4.48-0.171-110.208-0.213-144.981l-0.213 0.256c-15.701 17.365-31.189 43.904-41.515 71.168-4.139 10.667-13.184 8.789-25.643 4.949-5.419-1.707-21.931-6.784-18.304-18.688l0.085-0.171zM492.843 370.389c0.085-5.035 4.736-9.515 7.467-12.203l0.896-0.811c4.736-4.693 9.259-6.997 13.44-6.997 3.456 0 5.547 1.579 6.315 2.304 2.133 1.963 25.771 25.941 28.075 28.245l26.368-26.368c2.475-2.731 5.12-4.139 8.192-4.181 4.267 0 8.832 2.475 13.653 7.424 11.392 11.605 5.717 17.92 2.944 20.907l-26.795 26.88 27.947 28.075c6.144 6.613 0.725 13.653-4.736 19.029-7.808 7.851-15.317 9.813-20.224 5.419l-27.733-27.819-28.032 28.075c-1.401 1.347-3.308 2.176-5.408 2.176-0.019 0-0.037 0-0.056 0h0.003c-3.712 0-8.149-2.56-13.141-7.552-8.619-8.576-10.496-14.549-6.016-19.328l28.032-27.989-27.861-27.947c-1.97-1.849-3.228-4.438-3.328-7.321v-0.018zM554.027 749.739c-44.928 0-92.629-9.003-127.659-24.149-3.65-1.357-6.242-4.725-6.442-8.724l-0.001-0.023c-0.469-3.968 0.555-9.216 3.243-16.085 2.176-5.589 7.979-20.395 19.157-16.043 33.106 13.037 71.432 20.794 111.513 21.246l0.189 0.002c40.96 0 80.725-8.021 118.101-23.808 29.696-12.629 57.771-30.763 88.235-57.216 1.825-1.761 4.3-2.859 7.032-2.901h0.008c5.888 0 11.563 5.845 16.469 11.349 8.149 9.131 13.696 16.725 5.76 24.277-28.307 26.785-61.596 48.662-98.279 64.050l-2.158 0.803c-39.646 17.211-85.824 27.222-134.34 27.222-0.291 0-0.582 0-0.873-0.001h0.045zM795.861 195.669c-5.419 5.376-10.027 8.491-14.080 9.728-0.97 0.336-2.088 0.53-3.25 0.53-2.851 0-5.43-1.165-7.287-3.046l-0.001-0.001-2.688-2.645c-54.632-54.849-130.221-88.79-213.738-88.79-0.128 0-0.255 0-0.383 0h0.019c-0.028 0-0.062 0-0.095 0-83.628 0-159.33 33.935-214.087 88.785l-0.004 0.004c-27.215 26.715-49.155 58.697-64.183 94.309l-0.713 1.904c-8.32 19.521-15.159 42.375-19.419 66.124l-0.293 1.972c-0.171 0.768-0.213 1.323-0.384 1.749-1.877 9.899-10.965 10.624-24.064 8.619-5.419-0.811-22.059-3.328-20.437-15.275l0.085-0.256c12.214-75.32 47.224-140.901 97.608-191.048l0.013-0.013c30.849-30.991 67.531-56.144 108.265-73.68l2.242-0.859c39.77-17.317 86.101-27.393 134.785-27.393 0.24 0 0.479 0 0.719 0.001h-0.037c0.214 0 0.468-0.001 0.722-0.001 48.631 0 94.904 10.092 136.841 28.295l-2.224-0.86c44.21 18.941 81.887 45.063 113.341 77.286l0.067 0.069c3.541 3.84 6.571 10.581-7.339 24.491z" fill="currentColor" />
  </g>
</svg>
