<?xml version="1.0" encoding="utf-8"?>
<svg xmlns="http://www.w3.org/2000/svg" viewBox="0 0 1024 1024" width="24" height="24">
  <g transform="scale(1, -1) translate(0, -960)">
    <path d="M654.165 590.165c76.682 2.374 137.942 65.105 137.942 142.144s-61.26 139.77-137.724 142.139l-0.218 0.005h-284.331c-76.682-2.374-137.942-65.105-137.942-142.144s61.26-139.77 137.724-142.139l0.218-0.005c-77.473-1.385-139.745-64.513-139.745-142.187s62.272-140.802 139.615-142.185l0.129-0.002c-77.026-1.947-138.725-64.851-138.725-142.165s61.698-140.219 138.545-142.162l0.18-0.004c78.511 0.049 142.141 63.694 142.165 142.206v426.498h142.165zM796.331 448c0-78.516-63.65-142.165-142.165-142.165s-142.165 63.65-142.165 142.165c0 78.516 63.65 142.165 142.165 142.165s142.165-63.65 142.165-142.165z" fill="currentColor" />
  </g>
</svg>
