<?xml version="1.0" encoding="utf-8"?>
<svg xmlns="http://www.w3.org/2000/svg" viewBox="0 0 1024 1024" width="24" height="24">
  <g transform="scale(1, -1) translate(0, -960)">
    <path d="M519.083 832c33.963 0 149.12-9.515 203.477-131.115 18.176-40.917 13.824-110.464 10.24-166.315l-0.085-2.005c-0.469-6.229-0.768-11.861-1.024-17.493 3.6-1.955 7.883-3.104 12.434-3.104 0.459 0 0.915 0.012 1.369 0.035l-0.064-0.003c10.283 0.555 22.613 4.096 35.456 10.283 4.472 2.263 9.749 3.589 15.336 3.589 0.204 0 0.407-0.002 0.61-0.005h-0.030c6.229 0 12.331-0.981 17.451-3.072 15.403-5.12 25.173-16.427 25.173-28.757 0.555-15.403-13.355-28.8-41.6-40.064-3.029-0.981-7.211-2.603-11.776-4.096-15.488-4.651-39.125-12.331-45.781-27.776-3.072-7.723-2.091-17.963 4.181-29.739l0.512-0.555c2.048-4.651 52.395-119.253 164.437-137.771 8.206-1.359 14.388-8.403 14.388-16.891 0-0.197-0.003-0.393-0.010-0.588l0.001 0.028c0-2.56-0.555-5.077-1.536-7.723-8.235-19.499-43.648-33.92-107.947-43.563-2.005-3.115-4.096-12.885-5.632-19.584-0.939-6.144-2.56-12.331-4.565-18.944-2.603-9.301-9.259-13.867-19.029-13.867h-1.024c-6.725 0.318-13.057 1.218-19.183 2.658l0.708-0.14c-12.984 2.93-27.895 4.609-43.198 4.609-0.173 0-0.347 0-0.52-0.001h0.027c-10.24 0-20.48-0.512-31.232-2.56-20.608-3.584-38.571-15.915-59.136-30.293-29.312-20.523-62.677-44.203-113.024-44.203-2.048 0-4.096 0.512-6.229 0.512h-5.077c-50.389 0-83.243 23.168-112.512 44.203-20.523 14.421-37.973 26.709-58.581 30.336-9.446 1.489-20.444 2.415-31.631 2.558l-0.156 0.002c-18.56 0-32.896-3.072-43.648-5.12-7.253-1.493-13.397-2.517-18.56-2.517-0.435-0.035-0.942-0.055-1.454-0.055-8.91 0-16.403 6.070-18.569 14.3l-0.030 0.134c-2.048 6.571-3.029 13.355-4.565 19.456-1.621 6.229-3.627 16.896-5.675 19.541-65.835 7.637-101.248 22.059-109.44 42.069-1.080 2.259-1.76 4.898-1.876 7.682l-0.001 0.040c-0.008 0.199-0.013 0.433-0.013 0.668 0 8.464 6.193 15.483 14.295 16.77l0.097 0.013c112 18.517 162.347 133.077 164.437 137.899l0.555 0.981c6.187 11.819 7.68 22.187 4.096 29.824-6.656 14.891-30.336 22.571-45.653 27.733-4.62 1.178-8.583 2.579-12.378 4.287l0.474-0.191c-37.973 14.933-43.136 31.915-41.045 43.691 3.072 16.384 23.083 27.179 40.064 27.179 4.992 0 9.259-0.981 13.141-2.56 14.379-6.613 27.093-10.283 37.888-10.283 0.346-0.014 0.753-0.021 1.161-0.021 5.396 0 10.477 1.35 14.923 3.731l-0.17-0.083-1.749 19.541c-3.413 55.765-7.765 125.227 10.539 165.931 52.736 121.003 167.637 130.304 201.557 130.304l14.293 0.469h2.091z" fill="currentColor" />
  </g>
</svg>
