<?xml version="1.0" encoding="utf-8"?>
<svg xmlns="http://www.w3.org/2000/svg" viewBox="0 0 1024 1024" width="24" height="24">
  <g transform="scale(1, -1) translate(0, -960)">
    <path d="M938.453 603.989c0-40.224-32.608-72.832-72.832-72.832s-72.832 32.608-72.832 72.832c0 40.224 32.608 72.832 72.832 72.832s72.832-32.608 72.832-72.832zM792.789 468.779h145.621v-155.989c0-40.192-32.64-72.789-72.832-72.789h-72.789v228.779zM85.589 780.8v-665.6l478.421-84.437v834.475l-478.421-84.437zM439.211 549.931l-83.2-2.091v-245.419h-62.421v241.28l-83.157-4.181v56.149l228.779 12.459v-58.197zM605.568 531.2v-353.621h83.2c34.475 0 62.421 27.947 62.421 62.379v291.243h-145.621zM667.989 739.2c-25.003 0-47.147-11.264-62.421-28.715v-109.013c15.232-17.451 37.419-28.715 62.421-28.715 45.962 0 83.221 37.259 83.221 83.221s-37.259 83.221-83.221 83.221v0z" fill="currentColor" />
  </g>
</svg>
