<?xml version="1.0" encoding="utf-8"?>
<svg xmlns="http://www.w3.org/2000/svg" viewBox="0 0 1024 1024" width="24" height="24">
  <g transform="scale(1, -1) translate(0, -960)">
    <path d="M513.835 664.533c-117.285-0.121-212.334-95.155-212.48-212.423v-0.014c-0.043-40.107 11.221-79.189 32.469-113.024l5.035-8.021-21.461-78.379 80.427 21.077 7.723-4.608c30.885-18.579 68.163-29.568 108.008-29.568 0.053 0 0.107 0 0.16 0h0.034c117.243 0.17 212.243 95.156 212.437 212.376v0.018c0.001 0.219 0.001 0.478 0.001 0.737 0 58.431-23.747 111.315-62.117 149.528l-0.007 0.007c-38.236 38.478-91.189 62.294-149.704 62.294-0.185 0-0.37 0-0.554-0.001h0.029zM638.763 360.832c-5.333-14.933-30.848-28.501-43.093-30.336-4.455-0.807-9.583-1.268-14.819-1.268-9.068 0-17.812 1.384-26.034 3.952l0.618-0.166c-14.921 4.625-26.984 9.187-38.722 14.354l2.327-0.914c-64.085 27.648-105.899 92.117-109.141 96.427-3.157 4.267-26.027 34.645-26.027 66.048 0 31.445 16.469 46.891 22.315 53.291 4.212 4.743 10.27 7.766 17.037 7.935l0.029 0.001c4.267 0 8.491-0.043 12.245-0.213 3.925-0.171 9.173 1.493 14.336-10.965 5.333-12.8 18.133-44.203 19.712-47.403 1.579-3.157 2.645-6.912 0.555-11.179-2.133-4.309-3.157-6.912-6.4-10.667-3.157-3.755-6.699-8.32-9.557-11.221-3.2-3.157-6.528-6.613-2.816-13.013 3.755-6.357 16.555-27.307 35.499-44.245 24.405-21.76 45.013-28.459 51.371-31.701 6.4-3.157 10.112-2.688 13.867 1.621 3.712 4.309 15.957 18.645 20.224 25.003 4.267 6.4 8.491 5.333 14.379 3.243 5.845-2.176 37.248-17.579 43.605-20.779 6.315-3.157 10.624-4.779 12.245-7.467 1.536-2.645 1.536-15.403-3.755-30.336zM853.333 832h-682.667c-23.564 0-42.667-19.103-42.667-42.667v0-682.667c0-23.564 19.103-42.667 42.667-42.667v0h682.667c23.564 0 42.667 19.103 42.667 42.667v0 682.667c0 23.564-19.103 42.667-42.667 42.667v0zM513.707 196.437h-0.085c-0.008 0-0.018 0-0.027 0-44.759 0-86.825 11.525-123.395 31.769l1.31-0.665-135.509-35.541 36.267 132.437c-21.477 36.627-34.16 80.662-34.16 127.659 0 141.167 114.434 255.607 255.599 255.616h0.001c0.208 0.001 0.455 0.001 0.702 0.001 70.406 0 134.119-28.661 180.106-74.953l0.014-0.014c46.153-45.976 74.711-109.586 74.711-179.865 0-0.321-0.001-0.642-0.002-0.963v0.050c-0.218-141.038-114.493-255.312-255.51-255.531h-0.021z" fill="currentColor" />
  </g>
</svg>
