<?xml version="1.0" encoding="utf-8"?>
<svg xmlns="http://www.w3.org/2000/svg" viewBox="0 0 1024 1024" width="24" height="24">
  <g transform="scale(1, -1) translate(0, -960)">
    <path d="M839.040 242.731c-13.009-30.022-27.582-55.778-44.492-79.769l0.93 1.39c-22.912-32.725-41.728-55.339-56.149-67.925-22.4-20.565-46.464-31.147-72.192-31.744-18.432 0-40.704 5.248-66.645 15.915-26.027 10.624-49.92 15.829-71.808 15.829-22.912 0-47.488-5.205-73.813-15.829-26.283-10.667-47.531-16.256-63.787-16.768-24.619-1.067-49.237 9.771-73.771 32.597-15.659 13.653-35.243 37.12-58.752 70.315-25.173 35.371-45.867 76.544-62.080 123.349-17.365 50.645-26.069 99.627-26.069 147.072 0 54.315 11.733 101.205 35.243 140.459 18.116 31.030 43.055 56.256 72.877 74.187l0.936 0.522c28.511 17.374 62.912 27.821 99.722 28.244l0.118 0.001c19.627 0 45.355-6.059 77.227-18.005s52.352-18.005 61.269-18.005c6.741 0 29.397 7.125 67.968 21.248 36.395 13.099 67.115 18.517 92.288 16.384 68.267-5.504 119.509-32.384 153.6-80.853-61.013-36.992-91.179-88.747-90.581-155.179 0.512-51.755 19.328-94.805 56.192-128.981 15.812-15.151 34.402-27.559 54.904-36.362l1.202-0.459c-4.523-13.099-9.301-25.6-14.336-37.632zM682.581 858.453c0-40.533-14.848-78.421-44.331-113.451-35.669-41.643-78.763-65.749-125.483-61.952-0.571 4.506-0.896 9.719-0.896 15.009 0 0.124 0 0.247 0.001 0.371v-0.019c0 38.955 16.896 80.597 47.061 114.688 15.019 17.237 34.133 31.616 57.301 43.051 23.125 11.264 44.971 17.493 65.536 18.56 0.555-5.461 0.811-10.88 0.811-16.256z" fill="currentColor" />
  </g>
</svg>
