<?xml version="1.0" encoding="utf-8"?>
<svg xmlns="http://www.w3.org/2000/svg" viewBox="0 0 1024 1024" width="24" height="24">
  <g transform="scale(1, -1) translate(0, -960)">
    <path d="M511.957 645.248c-108.961 0-197.291-88.33-197.291-197.291s88.33-197.291 197.291-197.291v0c108.961 0 197.291 88.33 197.291 197.291s-88.33 197.291-197.291 197.291v0zM511.957 319.829c-70.787 0-128.171 57.384-128.171 128.171s57.384 128.171 128.171 128.171v0c70.787 0 128.171-57.384 128.171-128.171s-57.384-128.171-128.171-128.171v0zM763.051 652.501c0-25.402-20.593-45.995-45.995-45.995s-45.995 20.593-45.995 45.995c0 25.402 20.593 45.995 45.995 45.995s45.995-20.593 45.995-45.995zM876.075 699.264c-20.413 51.727-60.604 91.905-111.011 111.835l-1.331 0.464c-27.629 10.696-59.584 17.207-92.967 17.915l-0.302 0.005c-41.088 1.792-54.101 2.304-158.293 2.304s-117.547 0-158.293-2.304c-33.65-0.676-65.581-7.191-95.096-18.568l1.912 0.648c-51.752-20.371-91.952-60.557-111.878-110.969l-0.463-1.329c-10.7-27.632-17.199-59.592-17.873-92.982l-0.005-0.288c-1.835-41.045-2.389-54.059-2.389-158.293 0-104.192 0-117.461 2.389-158.293 0.64-31.915 6.656-63.403 17.877-93.312 20.445-51.72 60.644-91.891 111.052-111.834l1.332-0.465c27.529-11.11 59.406-18.056 92.759-19.187l0.468-0.013c41.088-1.792 54.101-2.347 158.293-2.347s117.547 0 158.293 2.347c33.681 0.706 65.638 7.202 95.203 18.528l-1.934-0.651c51.721 20.44 91.901 60.62 111.876 111.010l0.465 1.332c11.221 29.867 17.237 61.355 17.877 93.269 1.835 41.045 2.389 54.059 2.389 158.293s0 117.461-2.389 158.293c-0.54 34.12-7.083 66.554-18.612 96.513l0.65-1.921zM824.107 292.565c-0.299-25.933-5.139-50.645-13.76-73.503l0.49 1.482c-13.243-33.648-39.387-59.779-72.181-72.703l-0.864-0.3c-21.138-8.091-45.58-12.928-71.107-13.268l-0.146-0.002c-40.533-1.877-51.968-2.347-155.904-2.347-104.021 0-114.645 0-155.947 2.347-25.656 0.324-50.085 5.162-72.664 13.755l1.453-0.486c-33.785 13.147-60.046 39.296-73.043 72.14l-0.301 0.862c-8.008 21.123-12.837 45.538-13.267 71.024l-0.002 0.187c-1.835 40.533-2.261 51.968-2.261 155.904 0 103.979 0 114.603 2.261 155.947 0.3 25.918 5.14 50.615 13.759 73.459l-0.49-1.48c13.013 33.664 39.68 60.16 73.344 73.045 21.125 8.065 45.548 12.9 71.052 13.268l0.158 0.002c40.576 1.835 51.968 2.347 155.947 2.347s114.645 0 155.904-2.347c25.67-0.318 50.115-5.158 72.707-13.755l-1.453 0.486c33.654-13.252 59.794-39.391 72.744-72.181l0.301-0.865c8.008-21.123 12.837-45.538 13.267-71.024l0.002-0.187c1.835-40.576 2.304-51.968 2.304-155.947 0-103.936 0-115.115-1.835-155.904h-0.469z" fill="currentColor" />
  </g>
</svg>
