<?xml version="1.0" encoding="utf-8"?>
<svg xmlns="http://www.w3.org/2000/svg" viewBox="0 0 1024 1024" width="24" height="24">
  <g transform="scale(1, -1) translate(0, -960)">
    <path d="M512.427 873.856c-234.453 0-426.283-191.829-426.283-426.283 0-234.411 191.829-426.24 426.283-426.24 234.411 0 426.24 191.829 426.24 426.24 0 234.453-189.696 426.283-426.24 426.283zM708.48 257.92c-8.491-12.757-23.424-17.067-36.267-8.576-100.224 61.867-225.963 74.667-375.168 40.576-14.848-4.352-27.648 6.315-31.915 19.157-4.309 14.933 6.357 27.648 19.2 31.957 161.92 36.267 302.635 21.291 413.44-46.933 14.933-6.357 17.067-23.381 10.709-36.181zM759.68 375.125c-10.709-14.891-29.867-21.291-44.843-10.624-115.072 70.229-289.792 91.648-424.064 48.981-16.981-4.309-36.267 4.267-40.491 21.248-4.309 17.152 4.267 36.352 21.291 40.619 155.563 46.848 347.435 23.381 479.531-57.643 12.8-6.357 19.2-27.648 8.576-42.581zM763.904 494.549c-136.405 80.939-364.459 89.472-494.507 48.896-3.319-0.993-7.134-1.565-11.081-1.565-17.501 0-32.379 11.234-37.815 26.884l-0.085 0.281c-1.023 3.365-1.612 7.233-1.612 11.238 0 17.495 11.238 32.365 26.889 37.786l0.281 0.085c151.339 44.757 400.725 36.267 558.464-57.643 19.157-10.624 25.557-36.224 14.891-55.381-10.667-14.933-36.224-21.248-55.424-10.581z" fill="currentColor" />
  </g>
</svg>
