<?xml version="1.0" encoding="utf-8"?>
<svg xmlns="http://www.w3.org/2000/svg" viewBox="0 0 1024 1024" width="24" height="24">
  <g transform="scale(1, -1) translate(0, -960)">
    <path d="M371.627 688.384c-47.189-55.637-77.739-138.069-79.872-230.357v-20.096c2.133-92.373 32.683-174.677 79.872-230.272 61.184-79.573 152.064-129.963 253.781-129.963 63.763 0.154 122.939 19.662 172 52.956l-1.078-0.69c-74.795-67.383-174.315-108.601-283.462-108.601-7.434 0-14.823 0.191-22.163 0.569l1.028-0.042c-226.735 11.004-406.4 197.511-406.4 425.982 0 0.046 0 0.092 0 0.137v-0.007c0 235.648 191.061 426.667 426.667 426.667h1.621c108.872-0.304 208.075-41.457 283.142-108.932l-0.39 0.345c-50.048 32.981-108.501 52.267-171.051 52.267-101.632 0-192.597-50.517-253.867-129.963h0.171zM938.667 448c0-0.164 0-0.358 0-0.552 0-126.034-54.806-239.268-141.885-317.169l-0.409-0.36c-109.397-53.333-211.371-16-245.205 7.339 107.52 23.595 188.672 153.6 188.672 310.741 0 157.269-81.109 287.147-188.672 310.741 33.792 23.253 135.808 60.587 245.205 7.339 87.488-78.26 142.294-191.494 142.294-317.528 0-0.194 0-0.387 0-0.581v0.030z" fill="currentColor" />
  </g>
</svg>
