<?xml version="1.0" encoding="utf-8"?>
<svg xmlns="http://www.w3.org/2000/svg" viewBox="0 0 1024 1024" width="24" height="24">
  <g transform="scale(1, -1) translate(0, -960)">
    <path d="M512.213 21.675v165.419c175.104 0 310.955 173.568 243.797 357.888-25.759 68.459-78.934 121.481-145.787 146.469l-1.711 0.561c-184.277 66.688-357.931-68.693-357.931-243.797h-164.907c0 279.083 269.867 496.725 562.517 405.291 127.616-40.107 229.675-141.696 269.355-269.355 91.349-292.608-126.293-562.475-405.333-562.475zM512.725 186.069h-164.907v164.949h164.907zM347.819 59.819h-126.251v126.251h126.251zM221.568 186.069h-105.899v105.941h105.899v-105.941z" fill="currentColor" />
  </g>
</svg>
