<?xml version="1.0" encoding="utf-8"?>
<svg xmlns="http://www.w3.org/2000/svg" viewBox="0 0 1024 1024" width="24" height="24">
  <g transform="scale(1, -1) translate(0, -960)">
    <path d="M922.453 486.059l-372.523 372.437c-9.967 9.923-23.712 16.057-38.891 16.057s-28.924-6.134-38.893-16.059l0.002 0.002-77.184-77.269 98.091-98.133c6.241 2.18 13.436 3.44 20.924 3.44 36.1 0 65.365-29.265 65.365-65.365 0-7.619-1.303-14.933-3.699-21.732l0.141 0.458 94.464-94.592c6.438 2.333 13.868 3.682 21.614 3.682 36.053 0 65.28-29.227 65.28-65.28 0-18.142-7.401-34.555-19.347-46.386l-0.005-0.005c-25.557-25.6-66.816-25.6-92.416 0-11.844 11.857-19.17 28.231-19.17 46.315 0 8.865 1.76 17.319 4.95 25.032l-0.159-0.435-88.491 88.021v-231.979c6.229-3.029 12.203-7.211 17.365-12.373 11.77-11.851 19.045-28.18 19.045-46.208s-7.275-34.357-19.049-46.212l0.004 0.004c-11.863-11.882-28.263-19.233-46.379-19.233s-34.515 7.351-46.378 19.232l-0.001 0.001c-11.837 11.804-19.161 28.13-19.161 46.165s7.324 34.361 19.159 46.164l0.002 0.002c6.485 6.4 13.739 11.264 21.504 14.464v234.24c-23.976 10.005-40.52 33.257-40.52 60.373 0 9.135 1.878 17.832 5.268 25.726l-0.162-0.424-96.427 96.896-255.445-255.232c-21.333-21.504-21.333-56.32 0-77.824l372.523-372.437c9.934-9.959 23.672-16.12 38.848-16.12s28.914 6.161 38.847 16.119l370.774 370.732c10.031 9.933 16.242 23.708 16.242 38.933 0 15.162-6.159 28.885-16.112 38.804l-0.002 0.002z" fill="currentColor" />
  </g>
</svg>
