<?xml version="1.0" encoding="utf-8"?>
<svg xmlns="http://www.w3.org/2000/svg" viewBox="0 0 1024 1024" width="24" height="24">
  <g transform="scale(1, -1) translate(0, -960)">
    <path d="M512 21.973c-11.733 0-22.699 3.157-32.939 8.619l-104.064 61.781c-15.573 8.661-7.765 11.819-3.072 13.397 21.163 7.040 25.088 8.576 46.976 21.035 2.389 1.579 5.504 0.853 7.893-0.725l79.787-47.787c3.157-1.536 7.083-1.536 9.429 0l312.277 180.779c3.157 1.536 4.693 4.693 4.693 8.619v360.875c0 3.883-1.536 7.040-4.693 8.576l-312.277 180.011c-3.115 1.579-7.040 1.579-9.429 0l-312.363-179.968c-3.115-1.536-4.693-5.504-4.693-8.576v-360.832c0-3.115 1.579-7.083 4.693-8.619l85.333-49.365c46.165-23.381 75.179 4.053 75.179 31.36v356.096c0 4.693 3.883 9.429 9.387 9.429h39.936c4.608 0 9.387-3.925 9.387-9.429v-356.139c0-61.824-33.621-97.877-92.331-97.877-18.005 0-32.085 0-72.021 19.627l-82.133 46.891c-19.811 11.67-32.896 32.893-32.896 57.173v0 360.875c0 23.467 12.501 45.397 32.896 57.131l312.149 180.779c9.533 5.198 20.879 8.255 32.939 8.255s23.406-3.057 33.306-8.437l-0.367 0.183 312.192-180.779c20.437-11.691 32.896-33.664 32.896-57.131v-360.875c0-23.424-12.501-45.355-32.896-57.173l-312.192-180.736c-10.283-4.693-22.016-7.040-32.981-7.040zM608.256 270.123c-136.96 0-165.12 62.635-165.12 115.797 0 4.693 3.925 9.429 9.387 9.429h40.704c4.693 0 8.576-3.115 8.576-7.851 6.272-41.429 24.235-61.824 107.264-61.824 65.707 0 93.952 14.933 93.952 50.133 0 20.352-7.893 35.2-110.379 45.355-85.291 8.533-138.496 27.435-138.496 95.488 0 63.36 53.205 100.949 142.464 100.949 100.139 0 149.461-34.517 155.691-109.568-0.081-2.653-0.964-5.084-2.415-7.076l0.025 0.036c-1.579-1.536-3.883-3.115-6.229-3.115h-40.661c-4.19 0.092-7.672 3.020-8.606 6.936l-0.012 0.062c-9.429 43.179-33.664 57.173-97.792 57.173-72.064 0-80.683-25.045-80.683-43.819 0-22.656 10.112-29.696 107.264-42.24 96.256-12.501 141.653-30.507 141.653-97.877-0.853-68.907-57.131-107.989-156.587-107.989z" fill="currentColor" />
  </g>
</svg>
