<?xml version="1.0" encoding="utf-8"?>
<svg xmlns="http://www.w3.org/2000/svg" viewBox="0 0 1024 1024" width="24" height="24">
  <g transform="scale(1, -1) translate(0, -960)">
    <path d="M876.928 185.6h-729.856c-33.955 0.024-61.477 27.531-61.525 61.478v401.84c0 33.92 27.605 61.483 61.525 61.483h729.813c33.92 0 61.525-27.563 61.525-61.483v-401.835c0-33.956-27.527-61.483-61.483-61.483v0zM290.603 308.565v159.915l82.005-102.485 82.005 102.485v-159.915h82.005v278.869h-82.005l-82.005-102.528-82.005 102.528h-82.005v-278.827h82.005zM840.021 448h-82.005v139.435h-82.048v-139.435h-82.005l123.051-143.531 123.008 143.531z" fill="currentColor" />
  </g>
</svg>
