<?xml version="1.0" encoding="utf-8"?>
<svg xmlns="http://www.w3.org/2000/svg" viewBox="0 0 1024 1024" width="24" height="24">
  <g transform="scale(1, -1) translate(0, -960)">
    <path d="M694.571 469.077c5.632 0.683 10.965 0.768 15.915 0 2.816 6.571 3.328 17.877 0.811 30.208-3.84 18.304-9.003 29.355-19.669 27.563-10.709-1.707-11.136-14.933-7.253-33.237 2.133-10.24 5.973-19.029 10.197-24.533zM602.88 454.613c7.68-3.328 12.373-5.504 14.123-3.669 1.237 1.195 0.896 3.584-0.939 6.571-4.934 7.004-11.652 12.446-19.501 15.72l-0.296 0.11c-6.105 2.612-13.209 4.131-20.667 4.131-11.932 0-22.956-3.887-31.875-10.465l0.148 0.104c-5.077-3.755-9.899-8.917-9.301-12.075 0.299-0.981 0.981-1.792 2.773-2.133 4.224-0.469 18.944 6.997 35.968 8.021 12.032 0.853 21.888-2.901 29.568-6.315zM587.477 445.867c-9.899-1.579-15.403-4.821-18.901-7.979-3.029-2.645-4.821-5.461-4.821-7.552l0.768-1.792 1.579-0.597c2.261 0 7.296 1.963 7.296 1.963 13.824 4.907 22.997 4.352 32.085 3.328 4.992-0.597 7.339-0.853 8.448 0.853 0.299 0.512 0.768 1.493-0.299 3.157-2.389 3.883-12.416 10.24-26.155 8.619zM663.595 413.611c6.784-3.328 14.208-1.963 16.64 2.944 2.517 4.907-1.024 11.605-7.808 14.891-6.741 3.371-14.208 2.091-16.64-2.816s1.109-11.691 7.808-15.019zM707.029 451.627c-5.461 0.085-9.984-5.888-10.155-13.483-0.128-7.552 4.267-13.696 9.771-13.739 5.504-0.085 10.027 5.931 10.155 13.44s-4.224 13.653-9.771 13.781zM338.219 315.819c-1.365 1.707-3.627 1.237-5.803 0.64-1.536-0.299-3.243-0.725-5.077-0.683-0.067-0.001-0.147-0.002-0.226-0.002-3.78 0-7.127 1.855-9.18 4.705l-0.023 0.033c-2.517 3.84-2.389 9.6 0.427 16.128l1.28 2.944c4.437 9.856 11.733 26.411 3.499 42.155-5.469 11.107-15.961 19.015-28.429 20.798l-0.201 0.024c-1.399 0.189-3.016 0.296-4.658 0.296-10.598 0-20.148-4.488-26.853-11.667l-0.020-0.021c-12.117-13.355-13.952-31.616-11.648-38.101 0.896-2.389 2.261-3.029 3.2-3.157 2.048-0.299 5.077 1.237 6.997 6.4l0.597 1.621c0.853 2.731 2.432 7.851 5.035 11.861 4.007 6.061 10.791 10.004 18.496 10.004 4.5 0 8.686-1.345 12.178-3.655l-0.082 0.051c8.533-5.589 11.733-16 8.107-25.941-1.877-5.163-4.907-14.976-4.267-23.040 1.365-16.341 11.52-22.912 20.48-23.723 8.789-0.299 14.933 4.608 16.512 8.235 0.896 2.261 0.128 3.584-0.341 4.096zM845.696 345.728c-0.384 1.237-2.603 9.216-5.547 18.773l-6.144 16.384c11.989 18.048 12.203 34.091 10.624 43.221-1.919 12.208-7.626 22.832-15.862 30.881l-0.010 0.010c-9.472 9.899-28.885 20.139-56.107 27.776l-14.293 3.968c-0.085 0.64-0.768 33.707-1.323 47.915-0.469 10.24-1.323 26.283-6.315 42.069-5.973 21.419-16.256 40.021-29.184 52.096 35.627 36.864 57.813 77.525 57.771 112.384-0.128 67.029-82.475 87.424-183.979 45.355l-21.461-9.131c-0.085 0.085-38.869 38.144-39.424 38.613-115.797 100.949-477.525-301.227-361.813-398.891l25.301-21.376c-4.976-12.928-7.858-27.886-7.858-43.516 0-4.887 0.282-9.708 0.83-14.449l-0.054 0.578c2.773-26.923 16.597-52.651 39.040-72.576 21.333-18.859 49.451-30.891 76.629-30.848 45.013-103.765 147.84-167.339 268.416-170.965 129.365-3.84 237.909 56.875 283.477 165.931 2.944 7.637 15.573 42.112 15.573 72.533-0.043 30.635-17.323 43.307-28.288 43.264zM316.416 264.149c-3.113-0.584-6.695-0.918-10.354-0.918-0.56 0-1.118 0.008-1.674 0.023l0.082-0.002c-39.083 1.109-81.28 36.267-85.461 77.952-4.651 46.080 18.901 81.579 60.629 89.941 4.949 1.067 11.008 1.621 17.493 1.323 23.381-1.365 57.771-19.285 65.664-70.187 6.997-45.013-4.096-90.965-46.379-98.133zM272.853 458.795c-26.082-4.941-48.096-19.517-62.645-39.809l-0.203-0.298c-8.405 6.997-23.979 20.48-26.709 25.771-22.357 42.411 24.363 124.928 57.045 171.52 80.597 115.115 206.976 202.197 265.515 186.496 9.472-2.731 40.96-39.296 40.96-39.296s-58.453-32.384-112.725-77.611c-73.003-56.32-128.256-138.069-161.237-226.773zM682.923 281.387c0.774 0.332 1.307 1.087 1.307 1.967 0 0.119-0.010 0.236-0.029 0.35l0.002-0.012c-0.104 1.090-1.015 1.937-2.124 1.937-0.093 0-0.185-0.006-0.276-0.018l0.011 0.001s-61.184-9.045-118.997 12.075c6.272 20.437 23.083 13.141 48.384 11.051 6.226-0.391 13.502-0.614 20.83-0.614 34.133 0 67.135 4.836 98.361 13.861l-2.497-0.618c26.155 7.552 60.544 22.357 87.253 43.435 9.045-19.84 12.203-41.6 12.203-41.6s6.955 1.237 12.8-2.347c5.547-3.413 9.557-10.453 6.827-28.629-5.675-34.048-20.096-61.653-44.459-87.083-14.91-16.144-32.555-29.495-52.244-39.375l-1.047-0.476c-9.725-5.265-21.204-10.258-33.126-14.291l-1.605-0.471c-91.691-29.909-185.557 2.987-215.808 73.685-2.15 4.606-4.214 10.161-5.855 15.894l-0.204 0.831c-12.885 46.592-1.963 102.4 32.213 137.643v0.043c2.176 2.219 4.352 4.821 4.352 8.149 0 2.731-1.792 5.675-3.285 7.808-11.947 17.323-53.461 46.891-45.099 104.107 5.931 41.131 41.899 70.059 75.435 68.352l8.533-0.512c14.507-0.853 27.179-2.688 39.125-3.243 20.053-0.811 38.016 2.091 59.349 19.84 7.211 6.059 12.971 11.221 22.699 12.843 1.024 0.256 3.584 1.067 8.661 0.896 5.467-0.227 10.494-1.93 14.745-4.719l-0.11 0.068c17.067-11.349 19.499-38.912 20.437-59.093 0.512-11.477 1.92-39.339 2.347-47.275 1.109-18.261 5.931-20.864 15.573-24.021 5.504-1.877 10.581-3.157 18.048-5.333 22.571-6.272 36.053-12.8 44.501-21.035 4.245-4.116 7.149-9.595 8.005-15.729l0.016-0.143c2.773-19.499-15.061-43.563-62.080-65.408-51.456-23.851-113.877-29.909-156.971-25.088l-15.104 1.707c-34.56 4.608-54.144-39.936-33.451-70.443 13.355-19.669 49.664-32.469 86.059-32.469 83.328-0.085 147.413 35.499 171.307 66.304l1.877 2.688c1.109 1.792 0.213 2.688-1.28 1.749-19.413-13.312-105.941-66.219-198.443-50.347 0 0-11.264 1.877-21.504 5.888-8.107 3.072-25.216 11.008-27.264 28.501 74.539-23.168 121.6-1.323 121.6-1.28zM421.803 616.405c28.672 33.109 63.957 61.952 95.616 78.080 1.067 0.597 2.219-0.64 1.621-1.621-3.625-6.232-6.658-13.437-8.727-21.039l-0.147-0.636c-0.256-1.152 0.981-2.091 1.963-1.365 19.712 13.397 53.931 27.776 83.968 29.568 0.065 0.012 0.141 0.019 0.217 0.019 0.707 0 1.28-0.573 1.28-1.28 0-0.455-0.238-0.855-0.596-1.082l-0.005-0.003c-5.016-3.871-9.368-8.237-13.103-13.101l-0.124-0.168c-0.597-0.853-0.043-2.091 1.024-2.091 21.077-0.128 50.816-7.467 70.144-18.347 1.28-0.768 0.341-3.285-1.067-2.944-29.355 6.699-77.269 11.819-127.104-0.341-44.544-10.837-78.507-27.563-103.211-45.611-1.28-0.853-2.773 0.811-1.749 1.963z" fill="currentColor" />
  </g>
</svg>
