<?xml version="1.0" encoding="utf-8"?>
<svg xmlns="http://www.w3.org/2000/svg" viewBox="0 0 1024 1024" width="24" height="24">
  <g transform="scale(1, -1) translate(0, -960)">
    <path d="M868.437 683.563c-70.541 104.981-184.131 176.361-314.904 188.838l-1.725 0.133c-132.608 12.544-257.323-32.896-346.581-126.421-54.485-57.045-90.069-120.576-110.933-198.272-9.259-34.347-10.539-47.104-10.411-102.229 0.085-55.168 1.451-68.224 10.88-103.765 41.671-154.693 162.286-273.621 314.894-312.186l3.016-0.646c13.44-3.328 29.952-6.827 36.651-7.765 29.696-4.139 101.589-2.389 133.589 3.2 131.755 22.955 248.832 107.989 308.907 224.341 70.144 135.723 60.843 308.139-23.381 434.773zM850.944 355.541c-34.475-127.573-139.221-224.939-271.403-252.245-206.123-42.539-406.955 113.408-419.797 326.016-8.277 137.259 74.88 275.029 202.453 335.488 48.341 22.869 87.253 31.275 146.133 31.488 56.619 0.171 88.064-5.632 137.515-25.429 99.157-39.723 176.896-129.707 205.483-237.781 11.989-45.227 11.776-132.395-0.384-177.536zM343.125 321.92c-39.040 13.824-68.949 54.4-74.24 100.693-7.808 68.565 18.005 121.856 70.571 145.707 28.544 12.928 80.299 12.629 111.061-0.683 18.688-8.107 53.803-39.808 53.803-48.597 0-1.408-12.117-8.576-26.923-15.872l-26.965-13.312-14.379 14.379c-7.979 8.021-20.267 15.488-27.691 16.896-18.475 3.499-40.619-4.736-50.645-18.773-16.597-23.296-17.707-84.139-2.048-108.075 8.149-12.416 21.845-21.077 34.688-22.101 27.093-2.133 33.963 0.256 50.005 17.109l16.171 16.981 20.821-11.477c11.477-6.315 22.485-13.013 24.533-14.805 6.997-6.315-25.259-39.253-51.157-52.224-22.059-11.051-28.971-12.501-57.941-12.203-18.133 0.256-40.491 3.157-49.664 6.357zM591.275 321.92c-38.443 13.653-67.883 52.949-74.197 99.2-9.173 66.944 17.877 123.221 70.571 147.2 30.592 13.824 82.517 12.8 113.536-2.389 19.2-9.429 51.243-38.869 51.243-47.104 0-1.451-12.587-8.661-27.904-16.085l-27.904-13.525-14.549 15.787c-12.971 14.165-16.427 15.744-34.219 15.744-24.576 0-40.32-9.6-48.853-29.781-7.68-18.048-8.576-62.336-1.835-82.517 13.824-41.003 64.213-50.688 92.8-17.877l12.971 14.763 24.747-12.544c13.653-6.869 24.832-13.611 24.832-15.019 0-9.344-32-39.168-53.589-49.92-22.059-11.051-28.971-12.501-57.941-12.245-18.133 0.213-40.491 3.115-49.707 6.315z" fill="currentColor" />
  </g>
</svg>
