<?xml version="1.0" encoding="utf-8"?>
<svg xmlns="http://www.w3.org/2000/svg" viewBox="0 0 1024 1024" width="24" height="24">
  <g transform="scale(1, -1) translate(0, -960)">
    <path d="M817.92 874.667h-611.84c-0.508 0.012-1.107 0.019-1.708 0.019-42.18 0-76.373-34.194-76.373-76.373 0-0.157 0-0.313 0.001-0.47v0.024-699.733c-0.001-0.132-0.001-0.289-0.001-0.446 0-42.18 34.194-76.373 76.373-76.373 0.601 0 1.2 0.007 1.797 0.021l-0.089-0.002h611.84c0.381-0.007 0.83-0.011 1.28-0.011 42.415 0 76.8 34.385 76.8 76.8 0 0.004 0 0.007 0 0.011v-0.001 699.733c0 0.003 0 0.007 0 0.011 0 42.415-34.385 76.8-76.8 76.8-0.45 0-0.899-0.004-1.347-0.012l0.067 0.001zM853.333 98.133c0-0.001 0-0.002 0-0.003 0-18.851-15.282-34.133-34.133-34.133-0.15 0-0.3 0.001-0.449 0.003h-612.67c-0.128-0.002-0.278-0.003-0.429-0.003-18.616 0-33.707 15.091-33.707 33.707 0 0.151 0.001 0.302 0.003 0.452v-0.023 699.733c-0.002 0.128-0.003 0.278-0.003 0.429 0 18.616 15.091 33.707 33.707 33.707 0.151 0 0.302-0.001 0.452-0.003h611.817c0.127 0.002 0.277 0.003 0.427 0.003 18.851 0 34.133-15.282 34.133-34.133 0-0.001 0-0.002 0-0.003v0zM321.28 149.333l96 85.333-96 85.333v-170.667zM564.053 533.333c-57.775-1.482-112.565-12.305-163.553-31.007l3.553 1.14v243.2h-85.333v-369.067l60.16 27.733c53.736 23.928 116.172 39.298 181.787 42.616l1.253 0.050c42.667 0 53.333-23.467 53.333-44.8v-256h85.333v258.133c0.172 2.346 0.269 5.084 0.269 7.844 0 32.027-13.167 60.978-34.382 81.736l-0.021 0.020c-24.988 23.854-58.915 38.535-96.269 38.535-2.156 0-4.301-0.049-6.433-0.146l0.303 0.011zM554.667 608h85.333c33.555 37.199 56.216 84.82 62.601 137.46l0.119 1.206h-85.333c-9.547-53.269-31.66-100.212-63.175-139.249l0.455 0.583z" fill="currentColor" />
  </g>
</svg>
