<?xml version="1.0" encoding="utf-8"?>
<svg xmlns="http://www.w3.org/2000/svg" viewBox="0 0 1024 1024" width="24" height="24">
  <g transform="scale(1, -1) translate(0, -960)">
    <path d="M735.573 132.309v204.971h68.267v-273.28h-616.917v273.28h68.181v-204.971h480.469zM323.499 200.533h343.68v68.437h-343.68v-68.437zM331.819 355.84l335.317-70.016 14.507 66.219-335.403 70.059-14.421-66.261zM375.253 517.717l310.656-144.981 28.928 62.421-310.656 145.024-28.928-62.037v-0.427zM462.165 670.848l263.083-219.392 43.435 51.883-262.912 219.307-43.349-51.755-0.256-0.043zM632.064 832.043l-55.936-41.344 204.928-275.371 56.021 41.429-205.013 275.285z" fill="currentColor" />
  </g>
</svg>
