<?xml version="1.0" encoding="utf-8"?>
<svg xmlns="http://www.w3.org/2000/svg" viewBox="0 0 1024 1024" width="24" height="24">
  <g transform="scale(1, -1) translate(0, -960)">
    <path d="M850.347 507.307c-10.99 11.045-24.199 19.87-38.904 25.753l-0.776 0.274c-12.724 5.173-27.485 8.175-42.948 8.175-1.402 0-2.797-0.025-4.187-0.074l0.201 0.006c-0.76 0.015-1.655 0.023-2.552 0.023-34.192 0-65.519-12.262-89.826-32.628l0.218 0.178v2.133c0 0.074 0 0.162 0 0.25 0 86.48-70.106 156.587-156.587 156.587-21.873 0-42.698-4.485-61.607-12.585l1.020 0.389c-32.478-13.419-58.676-36.588-75.551-65.816l-0.396-0.744c-26.92 46.864-76.234 78.192-132.957 79.357l-0.163 0.003c-0.75 0.013-1.636 0.020-2.523 0.020-27.504 0-53.383-6.958-75.972-19.211l0.841 0.418c-24.148-13.128-43.875-31.626-58.076-53.978l-0.377-0.635c-13.682-21.76-22.375-47.91-23.876-75.97l-0.017-0.403c-0.105-2.143-0.165-4.654-0.165-7.179 0-82.785 64.243-150.566 145.595-156.207l0.49-0.027-68.267-117.76h101.973l113.067 195.84c25.473-44.574 71.338-74.964 124.548-78.482l0.466-0.025-67.84-117.76h102.4l79.36 137.813c0.422-60.199 36.095-111.965 87.388-135.72l0.932-0.387c17.223-7.46 37.281-11.799 58.352-11.799 19.048 0 37.268 3.546 54.035 10.014l-1.026-0.348c15.364 7.726 28.198 18.376 38.212 31.32l0.188 0.253v-31.147h85.333v421.547h-90.027zM305.067 476.587v0 0c-12.781-21.346-35.784-35.414-62.073-35.414-0.078 0-0.155 0-0.233 0h0.012c-1.606-0.125-3.477-0.196-5.365-0.196-11.38 0-22.156 2.59-31.768 7.214l0.44-0.191c-10.982 6.544-19.91 15.471-26.264 26.112l-0.189 0.341c-5.649 10.363-8.971 22.698-8.971 35.808 0 0.461 0.004 0.922 0.012 1.381l-0.001-0.069c0 0.002 0 0.003 0 0.005 0 39.523 31.799 71.62 71.208 72.101h0.046c0.066 0 0.143 0 0.221 0 13.148 0 25.444-3.649 35.93-9.988l-0.311 0.175c11.15-6.149 20.139-15.002 26.28-25.698l0.174-0.328c6.15-10.112 9.796-22.335 9.813-35.408v-0.005c0.002-0.206 0.003-0.45 0.003-0.694 0-12.886-3.321-24.997-9.154-35.522l0.191 0.376zM577.28 476.587v0 0c-6.314-11.025-15.304-19.878-26.107-25.851l-0.347-0.176c-9.632-5.915-21.296-9.419-33.779-9.419-0.725 0-1.446 0.012-2.165 0.035l0.105-0.003c-13.167 0.132-25.498 3.595-36.225 9.584l0.385-0.198c-10.932 6.436-19.753 15.394-25.845 26.105l-0.182 0.348c-6.155 10.321-9.794 22.762-9.794 36.053s3.639 25.732 9.975 36.381l-0.181-0.328c6.562 10.836 15.488 19.625 26.104 25.838l0.349 0.189c10.175 6.165 22.471 9.814 35.619 9.814 0.078 0 0.155 0 0.233 0h-0.012c13.219-0.091 25.57-3.724 36.175-9.997l-0.335 0.183c21.62-12.719 35.901-35.871 35.901-62.358 0-12.818-3.344-24.854-9.208-35.284l0.187 0.362zM846.080 348.587c-12.559-23.469-36.906-39.163-64.918-39.163-7.274 0-14.301 1.058-20.934 3.029l0.519-0.132c-17.821 4.614-32.646 15.276-42.505 29.618l-0.161 0.248c-7.977 11.701-12.737 26.15-12.737 41.711 0 2.591 0.132 5.15 0.389 7.673l-0.026-0.317c1.914 17.963 9.867 33.779 21.759 45.652l0.001 0.001c13.504 13.465 32.139 21.79 52.718 21.79 18.123 0 34.739-6.457 47.671-17.196l-0.123 0.099c16.816-13.641 27.475-34.304 27.475-57.456 0-13.044-3.384-25.298-9.321-35.932l0.192 0.374z" fill="currentColor" />
  </g>
</svg>
