<?xml version="1.0" encoding="utf-8"?>
<svg xmlns="http://www.w3.org/2000/svg" viewBox="0 0 1024 1024" width="24" height="24">
  <g transform="scale(1, -1) translate(0, -960)">
    <path d="M868.224 376.149h-489.6c0-18.475 2.688-35.2 8.32-50.261 11.831-29.517 32.32-53.49 58.298-69.363l0.624-0.355c13.184-8.363 27.563-15.317 42.88-20.651 15.189-5.547 31.104-9.643 47.232-12.288 35.029-5.547 70.741-5.248 105.685 0.896 38.879 7.3 73.492 18.88 105.789 34.495l-2.493-1.087c16.768 7.68 33.707 16.043 51.243 25.344v-162.347c-32.994-16.533-71.514-30.831-111.714-40.89l-3.955-0.838c-19.499-4.779-39.253-8.363-59.563-10.496-20.736-2.304-41.6-3.371-62.464-3.371-0.19 0-0.415-0.001-0.64-0.001-29.305 0-57.767 3.61-84.966 10.408l2.406-0.509c-28.554 7.072-53.589 16.843-76.931 29.36l1.753-0.859c-24.524 13.093-45.675 28.146-64.662 45.525l0.235-0.213c-38.481 34.806-67.276 79.636-82.304 130.381l-0.512 2.013c-7.234 24.445-11.397 52.53-11.397 81.588 0 0.612 0.002 1.223 0.006 1.834v-0.094c0 31.445 4.309 61.397 12.928 90.027 17.658 57.927 51.409 106.555 96.020 142.147l0.578 0.445c22.674 18.043 48.681 33.343 76.697 44.726l2.108 0.757c-15.706-15.731-28.274-34.6-36.682-55.586l-0.396-1.118c-8.221-19.116-14.245-41.294-16.998-64.475l-0.111-1.147h272.683c0 27.563-2.688 51.499-8.363 72.064-5.589 20.651-14.592 37.76-27.179 51.243-12.904 13.874-29.167 24.452-47.502 30.452l-0.796 0.226c-19.712 6.827-43.563 10.283-71.467 10.283-32.896 0-65.835-4.736-98.731-14.677-35.788-10.705-66.909-24.565-95.779-41.805l1.912 1.058c-29.653-17.579-56.96-38.272-81.877-61.952-23.756-22.687-44.544-48.155-61.933-75.967l-0.958-1.643c3.584 31.659 10.539 62.891 20.693 93.013 10.767 31.62 23.926 58.947 39.88 84.34l-0.968-1.652c16.434 25.964 34.79 48.47 55.502 68.561l0.093 0.090c20.512 20.1 43.705 37.584 68.964 51.838l1.649 0.856c23.962 13.691 51.686 25.237 80.886 33.204l2.528 0.588c28.612 6.851 61.472 10.798 95.248 10.837h0.027c19.627 0 39.125-1.749 58.667-5.291 19.499-3.584 38.528-8.363 57.131-14.592 37.786-13.008 70.53-30.941 99.552-53.445l-0.779 0.581c28.327-22.185 52.481-47.994 72.246-77.030l0.757-1.178c19.755-29.525 34.688-62.251 45.013-97.792s15.573-72.576 15.573-111.019v-95.147h-0.085z" fill="currentColor" />
  </g>
</svg>
