<?xml version="1.0" encoding="utf-8"?>
<svg xmlns="http://www.w3.org/2000/svg" viewBox="0 0 1024 1024" width="24" height="24">
  <g transform="scale(1, -1) translate(0, -960)">
    <path d="M881.493 662.187c-37.897 64.882-90.455 117.426-153.346 154.224l-2.003 1.083c-65.408 38.101-136.789 57.173-214.144 57.173s-148.736-19.072-214.187-57.173c-65.408-38.101-117.205-89.899-155.307-155.307s-57.173-136.832-57.173-214.187 19.029-148.779 57.173-214.187c37.884-64.892 90.445-117.439 153.346-154.224l2.003-1.082c65.408-38.101 136.789-57.173 214.144-57.173s148.736 19.072 214.187 57.173c64.895 37.881 117.452 90.425 154.266 153.305l1.083 2.002c38.101 65.408 57.131 136.832 57.131 214.187s-19.029 148.779-57.173 214.187zM512 803.84c85.333 0 160.939-27.307 226.987-81.877-39.253-50.091-97.536-91.307-174.933-123.733-42.752 77.355-89.088 141.952-139.136 193.707 26.091 7.499 56.067 11.842 87.048 11.904h0.035zM235.093 669.867c31.092 39.243 69.66 71.116 113.727 93.811l1.942 0.909c51.712-51.243 99.2-115.2 142.507-192-85.333-25.6-175.531-38.4-270.549-38.4-24.448 0-42.923 0.555-55.467 1.707 14.033 51.473 37.395 96.277 68.383 134.669l-0.543-0.695zM156.16 448c0 2.304 0.128 5.12 0.427 8.533s0.427 6.229 0.427 8.533c10.837-0.597 27.349-0.853 49.536-0.853 113.749 0 219.563 15.659 317.397 46.933 7.979-15.915 16.256-33.835 24.747-53.76-56.32-12.501-114.091-42.923-173.269-91.307s-102.357-99.285-129.664-152.747c-59.733 67.712-89.6 145.92-89.6 234.667zM512 92.16c-80.811 0-153.344 25.045-217.643 75.051 25.643 50.645 65.024 99.072 118.229 145.109 53.163 46.080 105.941 74.795 158.293 86.187 30.722-81.898 54.114-177.417 65.977-276.479l0.583-5.975c-37.17-14.955-80.256-23.71-125.366-23.893h-0.074zM814.080 261.12c-28.441-45.337-65.306-82.76-108.702-110.989l-1.378-0.841c-10.24 88.747-29.867 175.232-58.837 259.456 39.765 2.816 75.307 4.267 106.667 4.267 34.091 0 71.936-1.451 113.451-4.267-6.030-55.391-24.296-105.519-52.032-149.022l0.832 1.396zM761.173 474.453c-49.493 0-95.275-2.005-137.387-5.973-11.746 31.011-21.518 53.806-31.989 76.208l2.975-7.088c88.149 38.656 150.699 85.589 187.691 140.8 51.2-60.331 79.104-129.152 83.627-206.507-34.645 1.707-69.632 2.56-104.917 2.56z" fill="currentColor" />
  </g>
</svg>
