<?xml version="1.0" encoding="utf-8"?>
<svg xmlns="http://www.w3.org/2000/svg" viewBox="0 0 1024 1024" width="24" height="24">
  <g transform="scale(1, -1) translate(0, -960)">
    <path d="M716.928 584.533v-290.176h136.533v-34.091h-136.533v-68.352h221.867v392.619h-221.867zM460.928 584.533v-290.176h136.491v-34.091h-136.491v-68.352h221.824v392.619h-221.824zM221.867 704.043v-119.509h-136.533v-290.176h221.909v409.685h-85.376zM426.709 584.533h-85.333v-290.176h85.333v290.176zM853.461 362.667h-51.2v153.643h51.2v-153.643zM221.867 362.667h-51.2v153.643h51.2v-153.643zM597.419 362.667h-51.2v153.643h51.2v-153.643zM426.709 704.043h-85.333v-85.333h85.333v85.333z" fill="currentColor" />
  </g>
</svg>
