<?xml version="1.0" encoding="utf-8"?>
<svg xmlns="http://www.w3.org/2000/svg" viewBox="0 0 1024 1024" width="24" height="24">
  <g transform="scale(1, -1) translate(0, -960)">
    <path d="M354.56 521.387c-58.91-0.001-106.666-47.757-106.666-106.667s47.756-106.667 106.667-106.667c58.91 0 106.667 47.756 106.667 106.667 0 0.15 0 0.3-0.001 0.45v-0.023c-0.242 58.727-47.905 106.24-106.666 106.24 0 0-0.001 0-0.001 0v0zM354.56 359.253c-1.462-0.136-3.161-0.213-4.879-0.213-30.869 0-55.893 25.024-55.893 55.893s25.024 55.893 55.893 55.893c1.718 0 3.417-0.077 5.095-0.229l-0.216 0.016c1.462 0.136 3.161 0.213 4.879 0.213 30.869 0 55.893-25.024 55.893-55.893s-25.024-55.893-55.893-55.893c-1.718 0-3.417 0.077-5.095 0.229l0.216-0.016zM669.44 521.387c-58.91-0.001-106.666-47.757-106.666-106.667s47.756-106.667 106.667-106.667c58.91 0 106.667 47.756 106.667 106.667 0 0.15 0 0.3-0.001 0.45v-0.023c-0.242 58.727-47.905 106.24-106.666 106.24 0 0-0.001 0-0.001 0v0zM725.333 415.147c0.001-0.127 0.002-0.277 0.002-0.427 0-30.869-25.024-55.893-55.893-55.893s-55.893 25.024-55.893 55.893c0 30.868 25.023 55.892 55.892 55.893v0c0 0 0.001 0 0.002 0 30.719 0 55.65-24.782 55.892-55.444v-0.023zM512 874.667c-235.641 0-426.667-191.025-426.667-426.667s191.025-426.667 426.667-426.667c235.641 0 426.667 191.025 426.667 426.667v0c0 235.641-191.025 426.667-426.667 426.667v0zM826.88 415.147c0-0.066 0-0.144 0-0.222 0-86.952-70.488-157.44-157.44-157.44-41.409 0-79.084 15.986-107.191 42.124l0.097-0.089-50.347-55.040-50.347 55.040c-27.971-25.772-65.474-41.573-106.667-41.573-87.055 0-157.627 70.572-157.627 157.627 0 45.862 19.586 87.149 50.85 115.953l0.11 0.1-51.2 55.467h114.347c56.164 38.889 125.742 62.123 200.747 62.123s144.583-23.234 201.93-62.897l-1.184 0.774h113.92l-51.2-55.893c31.398-28.915 51.046-70.174 51.2-116.025v-0.028zM630.187 573.867c-34.906 14.974-75.529 23.68-118.187 23.68s-83.281-8.706-120.191-24.439l2.004 0.759c66.677-22.732 114.476-83.198 118.17-155.315l0.017-0.418c3.956 72.447 51.649 132.799 116.963 155.366l1.223 0.368z" fill="currentColor" />
  </g>
</svg>
