<?xml version="1.0" encoding="utf-8"?>
<svg xmlns="http://www.w3.org/2000/svg" viewBox="0 0 1024 1024" width="24" height="24">
  <g transform="scale(1, -1) translate(0, -960)">
    <path d="M350.293 221.013l-51.627 22.187c15.108-30.454 45.988-51.019 81.672-51.019 50.192 0 90.88 40.688 90.88 90.88s-40.688 90.88-90.88 90.88c-11.404 0-22.318-2.101-32.376-5.936l0.624 0.209 54.613-22.613c24.571-10.461 41.485-34.402 41.485-62.293 0-37.286-30.226-67.512-67.512-67.512-9.394 0-18.34 1.919-26.468 5.386l0.441-0.167zM512 874.667c-0.276 0.001-0.603 0.001-0.93 0.001-225.734 0-410.524-175.299-425.664-397.191l-0.072-1.317 229.547-94.293c5.771 3.893 12.383 7.34 19.377 10.013l0.676 0.227c13.004 5.733 28.167 9.070 44.108 9.070 1.744 0 3.478-0.040 5.203-0.119l-0.244 0.009 104.107 151.893c0 89.544 72.59 162.133 162.133 162.133s162.133-72.59 162.133-162.133c0-89.544-72.59-162.133-162.133-162.133h-3.413l-149.76-106.667c0.020-0.819 0.032-1.784 0.032-2.752 0-65.273-52.914-118.187-118.187-118.187-55.962 0-102.839 38.894-115.074 91.125l-0.158 0.8-160.853 68.267c55.064-176.327 216.882-302.079 408.071-302.079 235.641 0 426.667 191.025 426.667 426.667 0 235.254-190.397 426.038-425.505 426.665h-0.060zM759.040 554.667c0.005 0.381 0.008 0.83 0.008 1.28 0 59.617-48.329 107.947-107.947 107.947s-107.947-48.329-107.947-107.947c0-59.615 48.325-107.942 107.939-107.947v0c59.076 0.233 106.989 47.697 107.946 106.577l0.001 0.090zM570.453 554.667c0.242 44.588 36.444 80.64 81.066 80.64 44.772 0 81.067-36.295 81.067-81.067s-36.294-81.066-81.065-81.067v0c-0.001 0-0.003 0-0.004 0-44.772 0-81.067 36.295-81.067 81.067 0 0.3 0.002 0.6 0.005 0.899v-0.046z" fill="currentColor" />
  </g>
</svg>
