<?xml version="1.0" encoding="utf-8"?>
<svg xmlns="http://www.w3.org/2000/svg" viewBox="0 0 1024 1024" width="24" height="24">
  <g transform="scale(1, -1) translate(0, -960)">
    <path d="M575.104 538.325c-69.376 25.771-107.179 45.525-107.179 76.928 0 26.539 21.803 41.685 60.715 41.685 71.125 0 144.171-27.392 194.475-52.053l28.416 175.403c-39.893 19.029-121.472 50.219-234.24 50.219-79.787 0-146.133-20.864-193.536-59.776-49.28-40.704-74.965-99.584-74.965-170.667 0-128.981 78.805-183.979 206.805-230.528 82.603-29.355 110.037-50.261 110.037-82.517 0-31.232-26.837-49.28-75.179-49.28-59.861 0-158.549 29.397-223.189 67.328l-28.757-177.365c55.637-31.232 158.080-63.488 264.405-63.488 84.309 0 154.624 19.925 202.027 57.856 53.12 41.685 80.64 103.339 80.64 182.997 0 131.883-80.597 186.88-210.56 233.301h0.085z" fill="currentColor" />
  </g>
</svg>
