<?xml version="1.0" encoding="utf-8"?>
<svg xmlns="http://www.w3.org/2000/svg" viewBox="0 0 1024 1024" width="24" height="24">
  <g transform="scale(1, -1) translate(0, -960)">
    <path d="M399.787 212.907c-131.84-36.693 79.787-112.64 247.467-42.667-18.192 7.135-33.641 14.872-48.282 23.804l1.348-0.764c-32.984-7.842-70.855-12.339-109.776-12.339-23.884 0-47.373 1.693-70.353 4.966l2.635-0.308c-55.893 6.4-23.040 27.307-23.040 27.307zM627.2 284.587c-44.338-10.080-95.254-15.856-147.52-15.856-28.606 0-56.808 1.73-84.506 5.092l3.333-0.33c-55.893 5.973-19.2 32.853-19.2 32.853-145.067-47.787 80.64-102.4 283.307-42.667-13.764 4.602-25.59 11.751-35.471 20.96l0.057-0.053zM704.853 699.733s-293.12-72.96-153.173-234.24c9.056-10.798 14.557-24.845 14.557-40.176 0-20.508-9.843-38.718-25.063-50.161l-0.161-0.116s104.96 54.187 56.747 122.027-79.36 94.72 107.093 202.667zM773.547 143.36s23.893-19.627-26.88-34.987c-96.853-29.44-402.347-38.4-487.253 0-30.72 13.227 26.453 31.573 42.667 35.413 8.128 2.184 17.459 3.439 27.084 3.439 0.828 0 1.655-0.009 2.478-0.028l-0.123 0.002c-34.133 23.893-219.733-46.933-94.293-67.413 343.467-58.453 624.64 23.893 536.32 63.573zM655.787 351.573c11.075 7.14 23.957 14.124 37.365 20.148l1.888 0.759s-64.427-11.52-128-17.067c-34.544-3.533-74.647-5.547-115.222-5.547-31.826 0-63.362 1.24-94.562 3.673l4.131-0.259c-101.547 13.227 54.187 52.053 54.187 52.053-0.669 0.006-1.459 0.009-2.251 0.009-48.404 0-94.043-11.836-134.182-32.771l1.606 0.763c-87.893-43.947 217.173-63.147 375.040-21.76zM694.613 247.467c-0.96-1.479-2.090-2.745-3.386-3.818l-0.028-0.022c213.333 56.32 135.68 198.4 33.28 162.56-5.778-2.165-10.567-5.854-14.020-10.581l-0.060-0.086s5.973 2.133 18.347 5.12c52.053 10.667 124.587-69.547-34.133-153.173zM512 405.333c-31.573 71.253-139.093 133.973 0 243.627 174.507 136.96 85.333 225.707 85.333 225.707 35.84-141.227-128-183.893-185.173-271.787-39.68-60.16 20.053-124.587 99.84-197.547zM700.16 50.347c-64.398-11.581-138.524-18.203-214.196-18.203-62.002 0-122.965 4.445-182.589 13.035l6.812-0.805s19.627-16.213 121.173-22.613c154.027-9.813 390.4 5.12 396.373 78.080 0 0-11.093-27.307-127.573-49.493z" fill="currentColor" />
  </g>
</svg>
