<?xml version="1.0" encoding="utf-8"?>
<svg xmlns="http://www.w3.org/2000/svg" viewBox="0 0 1024 1024" width="24" height="24">
  <g transform="scale(1, -1) translate(0, -960)">
    <path d="M535.68 233.6c-26.624 52.352-57.771 105.173-118.656 105.173-11.563 0-23.296-1.963-33.92-6.699l-20.651 41.259c25.173 21.717 65.877 38.869 118.187 38.869 81.408 0 123.264-39.339 156.459-89.344 19.584 42.709 28.928 100.437 28.928 171.947 0 178.688-55.808 270.336-186.283 270.336-128.597 0-184.235-91.648-184.235-270.336 0-177.664 55.68-268.416 184.235-268.416 20.395 0 38.955 2.176 55.936 7.211zM567.552 171.264c-26.334-7.371-56.583-11.635-87.819-11.691h-0.032c-171.264 0-338.816 136.619-338.816 335.275 0.043 200.491 167.552 337.152 338.816 337.152 174.123 0 340.139-135.637 340.139-337.195 0-112.128-52.309-203.221-128.299-262.101 24.405-36.736 49.365-61.269 84.821-61.269 38.357 0 53.803 29.312 56.661 52.736h49.792c2.987-31.147-12.843-160.171-152.491-160.171-84.864 0-129.493 48.896-163.072 106.496l0.299 0.768z" fill="currentColor" />
  </g>
</svg>
