<?xml version="1.0" encoding="utf-8"?>
<svg xmlns="http://www.w3.org/2000/svg" viewBox="0 0 1024 1024" width="24" height="24">
  <g transform="scale(1, -1) translate(0, -960)">
    <path d="M299.563 443.264v175.232h42.709v-107.733c21.035 25.003 49.92 32.256 78.421 32.256 47.701 0 100.736-32.171 100.736-101.675 0-8.32-0.597-16.256-2.176-23.851 8.533 34.005 45.355 46.507 103.168 47.915 18.176 0.683 38.997 0.683 55.552 0.683v4.736c0 31.488-19.797 44.331-54.443 44.331-25.685 0-44.373-10.667-46.507-28.843h-45.397c4.821 45.909 53.461 57.685 95.659 57.685 37.931 0 71.083-9.6 86.059-36.352l-15.573 29.952h50.219l73.216-146.901 73.216 146.987h44.245l-132.48-260.181h-47.957l38.144 72.661-82.987 155.989c4.608-9.088 7.125-19.84 7.125-33.152v-87.68c0-12.331 0.384-24.491 1.451-35.755h-39.723c-1.023 8.175-1.612 17.646-1.621 27.252v0.012c-21.461-26.155-47.061-34.261-82.645-34.261-52.736 0-80.939 27.819-80.939 60.416 0 5.333 0.555 10.069 1.323 14.421-10.709-44.416-48.427-74.24-98.56-74.24-31.019 0-60.331 11.179-78.379 33.067 0-8.576-0.555-17.579-1.408-26.069h-42.069c0.768 13.824 1.451 30.421 1.451 44.245v37.419h-172.032c2.304-38.997 29.141-61.909 66.005-61.909 25.557 0 48.256 10.667 55.851 33.067h44.16c-8.533-45.995-57.344-61.397-99.371-61.397-76.331-0.768-110.165 41.515-110.165 98.176 0 62.421 34.944 103.595 111.019 103.595 60.117 0 104.32-31.488 104.704-99.925v-0.171zM624.981 436.736c-39.040-1.152-63.104-8.235-63.104-33.835 0-16.597 12.843-34.517 46.507-34.517 44.885 0 68.907 24.491 68.907 64.597v4.651c-16.043 0-35.243-0.256-52.864-0.853h0.469l0.085-0.043zM409.131 370.005c39.552 0 66.816 28.672 66.816 71.936s-27.392 71.936-67.413 71.936c-39.595 0-67.328-28.672-67.328-71.936s27.264-71.936 66.773-71.936h1.152zM254.208 459.52c-1.579 40.064-30.464 55.083-61.44 55.083-33.621 0-60.331-16.853-64.683-55.083h126.123z" fill="currentColor" />
  </g>
</svg>
