<?xml version="1.0" encoding="utf-8"?>
<svg xmlns="http://www.w3.org/2000/svg" viewBox="0 0 1024 1024" width="24" height="24">
  <g transform="scale(1, -1) translate(0, -960)">
    <path d="M785.195 719.659c-68.952 69.392-164.443 112.343-269.966 112.343-0.34 0-0.68 0-1.020-0.001h0.053c-211.115 0-382.976-171.819-383.061-383.019 0-67.499 17.621-133.376 51.115-191.488l-54.315-198.443 203.051 53.291c52.87-29.329 115.934-46.604 183.031-46.635h0.18c211.072 0 382.933 171.819 383.019 383.019 0.001 0.326 0.002 0.711 0.002 1.097 0 105.435-42.845 200.864-112.075 269.824l-0.012 0.012zM514.261 130.347h-0.128c-0.010 0-0.022 0-0.033 0-59.776 0-115.697 16.509-163.45 45.216l1.436-0.8-11.605 6.912-120.491-31.616 32.128 117.461-7.552 12.032c-30.545 47.938-48.683 106.366-48.683 169.030 0 0.141 0 0.281 0 0.422v-0.022c0.085 175.531 142.891 318.336 318.507 318.336 0.209 0 0.456 0.001 0.703 0.001 87.696 0 167.057-35.691 224.348-93.34l0.016-0.016c57.54-57.332 93.143-136.646 93.143-224.277 0-0.338-0.001-0.675-0.002-1.013v0.052c-0.085-175.531-142.891-318.379-318.336-318.379zM688.896 368.811c9.515-4.779 15.957-7.211 18.347-11.221s2.389-23.168-5.589-45.525c-7.979-22.357-46.208-42.752-64.597-45.483-16.512-2.432-37.376-3.499-60.288 3.797-13.867 4.437-31.701 10.325-54.571 20.181-96 41.472-158.72 138.112-163.499 144.512s-39.083 51.925-39.083 99.029c0 47.104 24.704 70.229 33.493 79.829l0.033 0.038c6.264 7.091 15.337 11.641 25.525 11.909h-0.081c0.519 0.002 1.038 0.003 1.558 0.003 5.918 0 11.806-0.125 16.827-0.344 5.888-0.256 13.781 2.219 21.504-16.341 7.979-19.157 27.136-66.261 29.525-71.083 2.432-4.779 4.011-10.368 0.811-16.768s-4.779-10.368-9.557-15.957c-4.779-5.589-10.027-12.501-14.336-16.768-4.821-4.779-9.813-9.941-4.224-19.541s24.789-40.917 53.248-66.304c36.565-32.597 67.413-42.709 76.971-47.488s15.147-4.011 20.736 2.389c5.589 6.4 23.936 27.947 30.336 37.504s12.757 7.979 21.504 4.779c8.789-3.2 55.808-26.325 65.408-31.147z" fill="currentColor" />
  </g>
</svg>
