<?xml version="1.0" encoding="utf-8"?>
<svg xmlns="http://www.w3.org/2000/svg" viewBox="0 0 1024 1024" width="24" height="24">
  <g transform="scale(1, -1) translate(0, -960)">
    <path d="M512.085 874.453l-0.085 0.043c-235.52 0-426.496-190.933-426.496-426.453 0-235.563 191.019-426.581 426.496-426.581 235.563 0 426.496 190.933 426.496 426.539 0 235.52-190.933 426.453-426.411 426.453zM518.997 297.173c-1.974-1.733-4.573-2.797-7.42-2.816h-0.004v-0.043h-236.16c-6.278 0.048-11.349 5.149-11.349 11.434 0 0 0 0 0 0v0 285.355c0 6.315 5.077 11.435 11.349 11.435h110.464c68.779 0 109.909-37.12 109.909-99.285 0-41.344-20.736-73.771-54.272-86.997l78.592-102.955c1.736-2 2.794-4.629 2.794-7.505 0-3.43-1.505-6.509-3.89-8.612l-0.013-0.011zM676.651 294.272h-113.707c-6.278 0.048-11.349 5.149-11.349 11.434 0 0.015 0 0.030 0 0.045v-0.002 285.355c0 6.315 5.077 11.392 11.349 11.392h105.472c79.061 0 95.659-46.549 95.659-85.632 0-22.571-6.016-40.491-17.963-53.675 29.056-11.947 44.672-38.955 44.672-77.952 0-56.96-42.709-90.965-114.133-90.965z" fill="currentColor" />
  </g>
</svg>
