<?xml version="1.0" encoding="utf-8"?>
<svg xmlns="http://www.w3.org/2000/svg" viewBox="0 0 1024 1024" width="24" height="24">
  <g transform="scale(1, -1) translate(0, -960)">
    <path d="M834.304 555.179c5.163-24.021 4.523-53.163-1.707-87.509-24.832-127.061-105.685-190.549-242.475-190.549h-18.859c-0.051 0-0.112 0.001-0.172 0.001-7.21 0-13.792-2.685-18.802-7.11l0.031 0.027c-5.277-4.589-8.958-10.893-10.172-18.037l-0.025-0.181-1.749-8.064-23.595-148.437-0.896-6.443c-1.29-7.364-5.099-13.671-10.489-18.136l-0.050-0.040c-4.98-4.399-11.563-7.084-18.773-7.084-0.105 0-0.21 0.001-0.315 0.002h-107.632c-0.264-0.015-0.573-0.023-0.885-0.023-5.354 0-10.124 2.496-13.211 6.388l-0.027 0.035c-2.587 3.278-4.15 7.469-4.15 12.026 0 1.224 0.113 2.421 0.328 3.583l-0.019-0.12c2.603 15.915 6.315 40.021 11.392 72.064 4.992 32 8.789 56.064 11.392 72.064s6.4 40.021 11.605 71.893c5.163 31.915 9.045 55.893 11.563 71.893 1.408 10.581 7.637 15.829 18.475 15.829h56.149c38.101-0.555 71.765 2.432 101.333 9.003 50.005 11.179 91.051 31.744 123.136 61.824 29.227 27.179 51.328 62.379 66.56 105.515 6.912 20.053 11.819 39.125 15.019 57.088 0.256 1.749 0.597 2.816 1.067 3.157 0.341 0.469 0.939 0.597 1.493 0.469 1.015-0.457 1.883-0.956 2.697-1.528l-0.051 0.034c22.357-16.981 36.437-40.149 41.813-69.632zM760.576 676.181c0-30.592-6.571-64.341-19.84-101.291-22.912-66.645-66.005-111.701-129.579-135.168-32.341-11.477-68.352-17.408-108.16-18.133 0-0.256-12.843-0.299-38.571-0.299l-38.528 0.299c-28.672 0-45.525-13.653-50.645-41.131-0.555-2.261-12.715-78.080-36.48-227.371-0.341-2.816-2.048-4.352-5.163-4.352h-126.507c-0.126-0.003-0.275-0.004-0.424-0.004-6.116 0-11.597 2.721-15.298 7.018l-0.022 0.026c-3.205 3.535-5.167 8.248-5.167 13.42 0 1.137 0.095 2.252 0.277 3.337l-0.016-0.117 99.499 631.253c1.351 8.349 5.626 15.516 11.72 20.563l0.056 0.045c5.828 5.039 13.48 8.108 21.849 8.108 0.104 0 0.207 0 0.311-0.001h256.581c9.728 0 23.68-1.877 41.771-5.589 18.261-3.584 34.176-8.277 47.915-13.696 30.635-11.691 54.016-29.355 70.187-52.779 16.171-23.552 24.235-51.499 24.235-84.139z" fill="currentColor" />
  </g>
</svg>
