<?xml version="1.0" encoding="utf-8"?>
<svg xmlns="http://www.w3.org/2000/svg" viewBox="0 0 1024 1024" width="24" height="24">
  <g transform="scale(1, -1) translate(0, -960)">
    <path d="M748.757 722.901l-17.195-90.155c-2.091-9.771-14.379-20.053-25.813-20.053h-160.427c-18.133 0-31.104-12.629-31.104-30.464v-19.755c0-18.347 13.099-30.933 31.147-30.933h136.277c12.715 0 25.216-14.080 22.357-27.563l-17.237-88.875c-1.579-7.723-10.112-20.267-25.259-20.267h-111.317c-20.352 0-26.325-2.944-39.936-19.371-13.483-16.853-135.467-163.285-135.467-163.285-1.109-1.408-2.304-0.939-2.304 0.469v511.744c0 11.563 9.984 25.088 25.003 25.088h330.923c12.075 0 23.424-11.477 20.352-26.368v-0.213zM763.307 369.28c4.736 18.645 56.277 282.88 73.472 366.635zM773.248 834.517h-412.416c-56.747 0-73.515-42.752-73.515-69.76v-655.061c0-30.293 16.256-41.6 25.429-45.312 9.131-3.712 34.432-6.869 49.621 10.539 0 0 194.688 225.963 197.973 229.248 5.333 5.035 5.333 5.035 10.155 5.035h126.037c53.12 0 61.355 37.76 67.157 59.947 4.864 18.304 56.533 282.539 73.429 366.72 13.099 63.829-3.371 98.603-63.787 98.603h-0.085z" fill="currentColor" />
  </g>
</svg>
