<?xml version="1.0" encoding="utf-8"?>
<svg xmlns="http://www.w3.org/2000/svg" viewBox="0 0 1024 1024" width="24" height="24">
  <g transform="scale(1, -1) translate(0, -960)">
    <path d="M862.080 260.608c-105.344-140.331-330.283-92.971-474.539-99.755 0 0-25.557-1.451-51.243-5.675 0 0 9.728 4.139 22.144 8.448 101.291 35.029 149.163 42.069 210.731 73.685 115.627 59.221 230.741 188.288 254.165 322.347-44.032-128.939-177.92-239.915-299.819-284.971-83.413-30.805-234.325-60.757-234.368-60.757-3.263 1.641-5.261 2.72-7.24 3.828l1.138-0.586c-102.613 49.92-105.6 272.213 80.811 343.851 81.749 31.403 159.872 14.165 248.235 35.2 94.208 22.4 203.349 93.013 247.68 185.344 49.707-147.541 109.44-378.283 2.304-520.96zM863.872 827.221c-12.993-30.8-28.222-57.336-46.2-81.72l0.76 1.080c-77.495 79.803-185.798 129.323-305.667 129.323-0.044 0-0.088 0-0.132 0h0.007c-235.648 0-427.307-191.659-427.307-427.264 0-0.059 0-0.129 0-0.199 0-123.47 52.535-234.67 136.472-312.466l0.275-0.251 9.387-8.277c-6.597 6.607-10.676 15.729-10.676 25.804 0 20.171 16.352 36.523 36.523 36.523s36.523-16.352 36.523-36.523c0-20.171-16.352-36.523-36.523-36.523-10.075 0-19.197 4.079-25.805 10.676v0l6.357-5.632c73.506-62.455 169.5-100.438 274.365-100.438 0.143 0 0.287 0 0.43 0h-0.022c225.195 0 410.155 175.275 425.984 396.459 11.691 108.331-20.309 245.888-74.752 409.429z" fill="currentColor" />
  </g>
</svg>
