<?xml version="1.0" encoding="utf-8"?>
<svg xmlns="http://www.w3.org/2000/svg" viewBox="0 0 1024 1024" width="24" height="24">
  <g transform="scale(1, -1) translate(0, -960)">
    <path d="M128 832h768v-768h-768v768zM833.067 247.168c-5.589 35.029-28.416 64.469-96.085 91.947-23.552 11.051-49.707 18.688-57.557 36.437-2.901 10.581-3.328 16.299-1.451 22.571 4.821 20.651 29.312 26.837 48.512 21.12 12.501-3.84 24.021-13.44 31.232-28.843 33.067 21.632 33.067 21.632 56.149 36.011-8.661 13.397-12.971 19.243-18.731 25.003-20.181 22.528-47.061 34.048-90.709 33.067l-22.528-2.859c-21.632-5.291-42.283-16.853-54.741-32.171-36.48-41.301-25.941-113.28 18.219-143.104 43.648-32.64 107.563-39.808 115.712-70.528 7.68-37.461-27.819-49.451-62.933-45.141-25.899 5.803-40.32 18.731-56.149 42.752l-58.539-33.621c6.699-15.317 14.379-22.059 25.899-35.499 55.68-56.149 194.901-53.291 219.861 32.171 0.896 2.859 7.68 22.528 2.389 52.779l1.451-2.091zM545.621 479.019h-71.936c0-61.995-0.299-123.648-0.299-185.771 0-39.424 2.005-75.605-4.437-86.741-10.539-22.059-37.803-19.243-50.133-15.317-12.672 6.229-19.115 14.891-26.581 27.349-2.005 3.328-3.499 6.229-4.053 6.229l-58.368-36.011c9.771-20.181 24.021-37.504 42.411-48.512 27.349-16.341 64.085-21.632 102.571-13.013 25.088 7.253 46.72 22.144 57.941 45.184 16.384 29.739 12.885 66.261 12.757 107.051 0.341 65.749 0 131.541 0 197.76l0.128 1.792z" fill="currentColor" />
  </g>
</svg>
