<?xml version="1.0" encoding="utf-8"?>
<svg xmlns="http://www.w3.org/2000/svg" viewBox="0 0 1024 1024" width="24" height="24">
  <g transform="scale(1, -1) translate(0, -960)">
    <path d="M800 475.733c-11.991 0.11-23.624 1.347-34.886 3.611l1.179-0.198c-11.898 2.531-22.31 5.912-32.22 10.23l1.073-0.417-7.253 1.707h-5.12q-6.4 0-6.4-8.96v-14.080c-0.288-1.218-0.453-2.616-0.453-4.053s0.165-2.835 0.478-4.177l-0.024 0.124c2.164-3.503 5.21-6.276 8.834-8.051l0.126-0.056c9.353-4.796 20.203-8.633 31.604-10.953l0.823-0.14c12.794-3.191 27.497-5.054 42.624-5.12h0.042c1.144-0.037 2.489-0.058 3.84-0.058 13.87 0 27.225 2.206 39.733 6.286l-0.905-0.256c11.979 3.204 22.406 8.649 31.296 15.905l-0.149-0.118c8.577 6.672 15.593 14.914 20.705 24.339l0.202 0.407c4.581 9.517 7.257 20.693 7.257 32.494 0 0.276-0.001 0.552-0.004 0.828v-0.042c0.002 0.211 0.004 0.46 0.004 0.71 0 14.667-4.806 28.212-12.929 39.146l0.125-0.176c-11.161 12.637-25.612 22.123-42.017 27.136l-0.65 0.171-40.533 12.8c-11.943 3.15-22.361 8.445-31.33 15.499l0.183-0.139c-5.263 5.056-8.533 12.152-8.533 20.012 0 0.014 0 0.029 0 0.043v-0.002c-0.032 0.506-0.051 1.098-0.051 1.694 0 10.039 5.253 18.852 13.161 23.838l0.116 0.069c9.901 4.913 21.562 7.787 33.894 7.787 1.435 0 2.861-0.039 4.277-0.116l-0.197 0.009c0.891 0.023 1.94 0.036 2.992 0.036 18.562 0 36.165-4.101 51.954-11.447l-0.76 0.317c3.218-1.678 6.963-2.88 10.924-3.395l0.169-0.018c4.267 0 6.4 3.413 6.4 9.387v15.36c0.008 0.186 0.012 0.404 0.012 0.624 0 3.255-0.959 6.286-2.61 8.826l0.038-0.063c-2.268 2.873-5.122 5.18-8.391 6.764l-0.142 0.062c-3.395 1.914-7.348 3.649-11.479 4.989l-0.468 0.131c-4.257 1.585-9.678 3.198-15.22 4.497l-0.993 0.196-18.773 4.267c-3.128 0.24-6.775 0.377-10.453 0.377s-7.325-0.137-10.935-0.406l0.482 0.029c-0.617 0.011-1.345 0.018-2.074 0.018-11.877 0-23.353-1.721-34.19-4.927l0.851 0.216c-11.417-3.39-21.359-8.496-30.102-15.104l0.235 0.17c-8.29-6.096-15.034-13.794-19.874-22.68l-0.18-0.36c-4.842-8.793-7.69-19.273-7.69-30.418 0-0.406 0.004-0.812 0.011-1.216l-0.001 0.061c-0.006-0.337-0.009-0.734-0.009-1.132 0-15.699 5.299-30.161 14.207-41.693l-0.117 0.158c11.521-13.809 26.96-23.994 44.603-28.866l0.623-0.147 42.667-12.8c11.059-2.638 20.684-7.687 28.674-14.58l-0.087 0.073c4.762-5.032 7.689-11.843 7.689-19.337 0-0.252-0.003-0.503-0.010-0.753l0.001 0.037c0.003-0.156 0.004-0.34 0.004-0.524 0-11.139-5.928-20.893-14.801-26.279l-0.136-0.077c-10.217-5.25-22.293-8.328-35.087-8.328-2.067 0-4.115 0.080-6.141 0.238l0.268-0.017zM552.107 682.667c-0.702 4.354-2.688 8.155-5.551 11.098l0.005-0.005c-2.586 1.925-5.843 3.081-9.369 3.081-0.607 0-1.207-0.034-1.796-0.101l0.072 0.007h-23.467c-0.304 0.018-0.659 0.028-1.017 0.028-3.751 0-7.238-1.125-10.144-3.057l0.068 0.042c-3.016-2.836-5.046-6.69-5.539-11.011l-0.008-0.082-42.667-187.733-48.64 187.733c-0.825 4.396-2.955 8.197-5.966 11.087l-0.007 0.007s-5.547 2.987-11.093 2.987h-27.733c-4.693 0-6.827-2.56-6.827-7.253 0.46-4.273 1.362-8.175 2.672-11.884l-0.112 0.364 66.56-219.307c0.928-4.1 2.711-7.688 5.159-10.716l-0.039 0.049c2.771-1.642 6.107-2.613 9.67-2.613 0.501 0 0.997 0.019 1.489 0.057l-0.065-0.004h24.32c0.422-0.030 0.913-0.048 1.409-0.048 3.711 0 7.195 0.967 10.216 2.662l-0.105-0.054c2.591 3.181 4.407 7.093 5.101 11.38l0.019 0.14 42.667 182.613 42.667-183.040c0.379-4.354 2.263-8.208 5.121-11.095l-0.001 0.001c2.725-1.925 6.115-3.076 9.774-3.076 0.615 0 1.222 0.033 1.82 0.096l-0.074-0.006h24.32c0.257-0.013 0.557-0.021 0.859-0.021 3.661 0 7.058 1.124 9.867 3.047l-0.060-0.039c3.119 2.826 5.278 6.661 5.96 10.987l0.014 0.106 68.693 219.307c0.119 1.024 0.188 2.211 0.188 3.413s-0.068 2.389-0.201 3.556l0.013-0.143c0.079 0.704 0.124 1.52 0.124 2.347s-0.045 1.643-0.133 2.446l0.009-0.099c0.042 0.276 0.066 0.595 0.066 0.92 0 3.535-2.865 6.4-6.4 6.4-0.325 0-0.643-0.024-0.955-0.071l0.035 0.004h-26.453c-0.234 0.010-0.508 0.016-0.784 0.016-3.826 0-7.391-1.119-10.385-3.048l0.076 0.046c-2.528-3.111-4.444-6.828-5.502-10.892l-0.045-0.202-42.667-192.427zM246.187 591.787c-8.999 1.249-19.499 2.020-30.156 2.132l-0.137 0.001c-1.618 0.091-3.512 0.142-5.418 0.142-24.328 0-46.69-8.413-64.337-22.489l0.208 0.161c-15.742-13.54-25.65-33.482-25.65-55.739 0-0.955 0.018-1.905 0.054-2.851l-0.004 0.136c-0.056-1.068-0.088-2.318-0.088-3.575 0-19.905 8.018-37.937 21-51.043l-0.006 0.006c13.795-12.76 32.315-20.587 52.664-20.587 1.436 0 2.863 0.039 4.28 0.116l-0.197-0.009c0.906-0.028 1.972-0.044 3.041-0.044 33.149 0 62.738 15.243 82.139 39.103l0.153 0.194c2.89-6.598 5.742-12.060 8.909-17.311l-0.375 0.671c3.238-4.961 6.608-9.281 10.304-13.297l-0.064 0.071c2.012-2.037 4.805-3.299 7.893-3.299s5.881 1.262 7.892 3.298l0.001 0.001 17.92 11.947c2.966 1.858 5.036 4.912 5.539 8.47l0.007 0.063c0.328 1.021 0.517 2.195 0.517 3.413s-0.189 2.393-0.54 3.495l0.022-0.082c-3.044 5.53-6.062 12.142-8.611 18.983l-0.349 1.071c-1.93 6.768-3.040 14.542-3.040 22.575 0 1.064 0.019 2.123 0.058 3.177l-0.004-0.152v90.027c0.193 2.259 0.304 4.889 0.304 7.544 0 24.013-9.017 45.921-23.85 62.521l0.080-0.091c-17.826 15.066-41.069 24.224-66.45 24.224-4.4 0-8.735-0.275-12.99-0.809l0.507 0.052c-0.018 0-0.040 0-0.062 0-15.148 0-29.824-2.024-43.771-5.817l1.166 0.27c-13.628-3.214-25.576-7.609-36.8-13.236l0.96 0.436c-3.085-1.384-5.661-3.414-7.648-5.931l-0.032-0.042c-0.496-1.465-0.782-3.152-0.782-4.907s0.286-3.442 0.814-5.018l-0.032 0.111v-14.080c0-5.973 0-8.533 5.973-8.533 0.705-0.16 1.515-0.251 2.347-0.251s1.641 0.091 2.42 0.265l-0.074-0.014 9.813 3.413c7.459 3.778 16.36 7.396 25.574 10.31l1.306 0.356c9.212 2.406 19.795 3.805 30.698 3.84h0.022c2 0.222 4.319 0.348 6.668 0.348 14.928 0 28.663-5.111 39.549-13.679l-0.137 0.104c8.449-10.54 13.559-24.073 13.559-38.8 0-2.264-0.121-4.499-0.356-6.7l0.024 0.273v-20.907zM279.467 553.387v-11.52c0.001-0.119 0.001-0.26 0.001-0.401 0-8.645-1.090-17.036-3.139-25.043l0.151 0.697c-1.923-7.113-5.316-13.272-9.855-18.394l0.041 0.047c-6.999-8.192-16.096-14.397-26.464-17.802l-0.416-0.118c-8.626-3.135-18.583-5.001-28.96-5.12h-0.054c-0.891-0.070-1.929-0.111-2.976-0.111-10.363 0-19.807 3.93-26.925 10.381l0.034-0.030c-6.453 6.974-10.412 16.338-10.412 26.627 0 1.291 0.062 2.568 0.184 3.827l-0.013-0.16c-0.041 0.674-0.065 1.461-0.065 2.254 0 12.1 5.475 22.922 14.083 30.122l0.062 0.050c10.372 7.35 23.286 11.749 37.227 11.749 1.915 0 3.81-0.083 5.683-0.246l-0.243 0.017h26.453c10.347-2.166 18.93-4.521 27.308-7.322l-1.708 0.495zM843.093 320c-95.065-41.091-205.717-65.206-321.944-65.706l-0.19-0.001c-0.047 0-0.104 0-0.16 0-155.3 0-300.91 41.486-426.353 113.98l4.113-2.193c-10.24 6.4-18.347-4.267-9.387-12.373 110.637-100.311 258.163-161.713 420.030-161.713 0.983 0 1.966 0.002 2.948 0.007l-0.152-0.001c0.449-0.001 0.982-0.002 1.515-0.002 128.408 0 247.616 39.392 346.197 106.751l-2.112-1.363c14.507 13.227 1.28 30.72-14.507 22.613zM784.213 360.107c-8.107-5.973-6.827-14.080 2.133-12.8 30.293 3.84 97.28 11.52 109.227-3.84s-13.227-78.080-24.747-106.24c-3.413-8.533 4.267-11.947 11.947-5.547 33.061 30.507 53.697 74.054 53.697 122.421 0 7.079-0.442 14.055-1.3 20.902l0.083-0.816c-18.252 7.398-39.422 11.691-61.595 11.691-33.161 0-64.079-9.602-90.126-26.176l0.682 0.405z" fill="currentColor" />
  </g>
</svg>
