<?xml version="1.0" encoding="utf-8"?>
<svg xmlns="http://www.w3.org/2000/svg" viewBox="0 0 1024 1024" width="24" height="24">
  <g transform="scale(1, -1) translate(0, -960)">
    <path d="M213.333 704c-0.613 0.078-1.322 0.123-2.041 0.123-9.426 0-17.067-7.641-17.067-17.067 0-3.546 1.082-6.84 2.933-9.569l-0.038 0.060 85.333-144.213-130.56-230.4c-1.617-2.754-2.572-6.065-2.572-9.6s0.955-6.846 2.621-9.691l-0.049 0.091c3.34-4.933 8.917-8.132 15.24-8.132 0.342 0 0.682 0.009 1.020 0.028l-0.047-0.002h122.453c15.187 0.576 28.040 9.987 33.613 23.217l0.093 0.25s128 226.56 132.693 235.093l-85.333 147.627c-6.176 12.827-18.851 21.64-33.637 22.185l-0.070 0.002zM732.16 874.667c-15.038-0.34-27.761-9.892-32.772-23.22l-0.081-0.247-272.64-485.547 174.507-320.853c5.956-13.594 19.105-23.012 34.503-23.465l0.057-0.001h122.88c0.376-0.027 0.814-0.043 1.255-0.043 6.149 0 11.591 3.025 14.92 7.668l0.038 0.055c1.617 2.754 2.572 6.065 2.572 9.6s-0.955 6.846-2.621 9.691l0.049-0.091-173.653 317.013 271.36 482.56c1.617 2.754 2.572 6.065 2.572 9.6s-0.955 6.846-2.621 9.691l0.049-0.091c-3.454 4.696-8.958 7.709-15.167 7.709-0.368 0-0.734-0.011-1.097-0.032l0.050 0.002z" fill="currentColor" />
  </g>
</svg>
