<?xml version="1.0" encoding="utf-8"?>
<svg xmlns="http://www.w3.org/2000/svg" viewBox="0 0 1024 1024" width="24" height="24">
  <g transform="scale(1, -1) translate(0, -960)">
    <path d="M902.059 497.365c0 27.307 4.181 43.435 4.181 72.832 0 45.525-16.768 60.203-53.888 60.203h-27.349v-32.213h8.363c18.944 0 23.125-6.272 23.125-29.397 0-21.717-2.091-43.435-2.091-68.608 0-32.213 10.496-44.8 31.531-49.707v-2.091c-21.035-4.949-31.531-17.536-31.531-49.749 0-25.216 2.091-45.525 2.091-68.608 0-23.808-4.864-30.080-23.125-30.080v-0.725h-8.363v-33.621h27.349c37.12 0 53.888 14.677 53.888 60.203 0 30.123-4.181 45.525-4.181 72.832 0 14.72 9.088 30.123 36.437 31.531v36.395c-27.392 0.683-36.437 16.085-36.437 30.805zM761.301 454.656c-21.035 8.363-40.619 13.312-40.619 27.307 0 10.496 8.405 16.853 23.808 16.853s29.397-6.315 44.8-17.536l28.032 37.12c-17.451 13.355-41.301 27.349-73.557 27.349-47.573 0-79.829-27.349-79.829-65.877 0-34.304 30.123-51.797 55.381-61.568 21.675-8.363 42.709-15.403 42.709-29.397 0-10.496-8.405-17.493-27.349-17.493-17.493 0-35.029 6.997-53.888 21.717l-28.032-40.619c20.992-17.493 53.205-29.397 79.829-29.397 56.021 0 86.144 29.397 86.144 67.925-0.043 38.4-30.165 54.485-57.429 63.616zM283.008 375.552c-4.864 0-11.179 4.181-11.179 17.493v237.355h-99.499c-37.803 0-54.571-14.677-54.571-60.203 0-30.123 4.224-46.976 4.224-72.832 0-14.72-9.088-30.123-36.437-31.531v-36.395c27.349-0.725 36.437-16.128 36.437-30.848 0-25.856-4.224-41.301-4.224-71.424 0-45.525 16.811-60.203 53.931-60.203h27.307v32.213h-8.405c-17.536 0-23.125 6.997-23.125 30.123 0 23.083 2.091 42.709 2.091 68.565 0 32.256-10.453 44.8-31.488 49.707v2.176c21.035 4.864 31.488 17.451 31.488 49.707 0 25.173-2.091 45.483-2.091 68.565 0 23.125 4.864 29.397 23.125 29.397h18.859v-201.003c0-42.709 14.72-70.699 57.429-70.699 13.355 0 23.851 2.133 31.531 4.907l-7.040 45.483c-4.181-0.555-6.229-0.555-8.363-0.555zM591.829 454.656c-21.717 8.363-41.344 13.312-41.344 27.307 0 10.496 8.405 16.853 23.808 16.853s29.397-6.315 44.843-17.536l27.989 37.12c-17.493 13.355-41.301 27.349-73.515 27.349-47.616 0-79.872-27.349-79.872-65.877 0-34.304 30.165-51.797 55.339-61.568 21.76-8.363 42.752-15.403 42.752-29.397 0-10.496-8.405-17.493-27.349-17.493-17.493 0-34.987 6.997-53.931 21.717l-27.307-40.619c20.992-17.493 53.205-29.397 79.829-29.397 56.021 0 86.144 29.397 86.144 67.925 0.043 38.4-30.080 54.485-57.387 63.616zM385.237 546.389c-51.115 0-100.139-42.709-98.731-109.952 0-69.291 45.483-109.909 105.771-109.909 25.216 0 53.205 9.131 74.923 23.808l-20.992 37.12c-15.36-9.088-30.123-13.312-45.483-13.312-28.032 0-49.707 13.312-55.339 45.483h126.763c0.725 4.907 2.091 14.72 2.091 25.899 0.683 56.747-30.165 100.864-89.003 100.864zM345.344 458.155c4.224 27.947 20.992 41.344 40.576 41.344 25.259 0 35.029-17.536 35.029-41.344h-75.605z" fill="currentColor" />
  </g>
</svg>
