<?xml version="1.0" encoding="utf-8"?>
<svg xmlns="http://www.w3.org/2000/svg" viewBox="0 0 1024 1024" width="24" height="24">
  <g transform="scale(1, -1) translate(0, -960)">
    <path d="M908.373 785.067l-175.787 85.333c-6.044 2.531-13.056 4.082-20.407 4.265l-0.073 0.001h-3.413c-0.085 0.001-0.185 0.001-0.285 0.001-11.491 0-22.083-3.85-30.557-10.33l0.121 0.089-5.973-5.12-336.213-306.773-146.347 108.8c-5.895 4.546-13.386 7.286-21.517 7.286-0.536 0-1.069-0.012-1.599-0.035l0.075 0.003c-0.127 0.002-0.277 0.002-0.427 0.002-8.345 0-16.055-2.723-22.288-7.328l0.102 0.072-46.933-42.667c-7.082-6.284-11.523-15.409-11.523-25.571 0-0.16 0.001-0.32 0.003-0.48v0.024c0-0.038 0-0.083 0-0.127 0-10.396 4.426-19.758 11.497-26.304l0.023-0.021 128-115.627-128-116.053c-7.039-6.562-11.428-15.889-11.428-26.24s4.388-19.678 11.406-26.22l0.021-0.020 46.933-42.667c6.642-5.833 15.406-9.391 25.001-9.391 0.211 0 0.421 0.002 0.631 0.005h-0.032c7.579 0.585 14.446 3.216 20.171 7.334l-0.118-0.081 146.347 111.36 336.213-306.773c8.335-8.581 19.63-14.247 32.234-15.346l0.193-0.014h7.253c0.188-0.003 0.41-0.005 0.632-0.005 7.428 0 14.413 1.898 20.496 5.236l-0.222-0.111 175.787 85.333c17.725 8.627 29.826 26.313 30.292 46.872l0.001 0.061v573.013c-0.063 21.092-12.262 39.32-29.979 48.073l-0.315 0.141zM725.333 257.28l-256 193.28 256 193.28z" fill="currentColor" />
  </g>
</svg>
