<?xml version="1.0" encoding="utf-8"?>
<svg xmlns="http://www.w3.org/2000/svg" viewBox="0 0 1024 1024" width="24" height="24">
  <g transform="scale(1, -1) translate(0, -960)">
    <path d="M893.739 605.653c-0.468 34.089-6.985 66.519-18.523 96.454l0.646-1.905c-20.426 51.73-60.612 91.915-111.010 111.877l-1.331 0.465c-27.629 10.696-59.584 17.207-92.967 17.915l-0.302 0.005c-41.045 1.835-54.059 2.347-158.251 2.347s-117.547 0-158.293-2.347c-33.671-0.718-65.611-7.229-95.156-18.571l1.93 0.651c-51.739-20.412-91.929-60.603-111.877-111.010l-0.464-1.331c-10.721-27.619-17.222-59.568-17.873-92.95l-0.004-0.277c-1.835-41.088-2.389-54.101-2.389-158.293s0-117.504 2.389-158.293c0.64-31.915 6.656-63.403 17.877-93.312 20.445-51.72 60.644-91.891 111.052-111.834l1.332-0.465c27.529-11.11 59.406-18.056 92.759-19.187l0.468-0.013c41.088-1.835 54.101-2.389 158.293-2.389s117.547 0 158.293 2.389c33.678 0.683 65.637 7.182 95.194 18.527l-1.925-0.649c51.716 20.449 91.892 60.626 111.876 111.010l0.466 1.332c11.221 29.867 17.237 61.355 17.877 93.312 1.835 41.045 2.389 54.059 2.389 158.293-0.085 104.192-0.085 117.419-2.475 158.251zM511.744 251.648c-108.971 0-197.248 88.277-197.248 197.248s88.277 197.248 197.248 197.248c108.937 0 197.248-88.311 197.248-197.248s-88.311-197.248-197.248-197.248v0zM716.843 607.445c-0.013 0-0.028 0-0.043 0-25.379 0-45.952 20.573-45.952 45.952 0 0.015 0 0.030 0 0.045v-0.002c0 25.39 20.583 45.973 45.973 45.973s45.973-20.583 45.973-45.973v0c0-25.429-20.565-45.995-45.952-45.995zM639.872 448.896c0-70.763-57.365-128.128-128.128-128.128s-128.128 57.365-128.128 128.128c0 70.763 57.365 128.128 128.128 128.128s128.128-57.365 128.128-128.128z" fill="currentColor" />
  </g>
</svg>
