<?xml version="1.0" encoding="utf-8"?>
<svg xmlns="http://www.w3.org/2000/svg" viewBox="0 0 1024 1024" width="24" height="24">
  <g transform="scale(1, -1) translate(0, -960)">
    <path d="M265.259 427.264c83.797 18.005 72.235 118.272 69.845 140.245-4.096 33.621-43.861 92.672-97.749 87.936-67.755-6.016-77.696-104.107-77.696-104.107-9.216-45.227 21.973-142.080 105.6-124.075zM420.821 595.541c46.251 0 83.584 53.376 83.584 119.125 0 65.579-37.163 118.827-83.413 118.827-46.336 0-83.883-52.992-83.883-118.827s37.547-119.125 83.84-119.125zM620.245 587.605c62.037-8.32 101.547 57.813 109.568 107.947 8.021 49.749-32.171 107.861-75.776 117.888-43.989 10.112-98.261-60.203-103.723-105.984-5.803-56.235 8.021-112.085 69.717-120.021zM865.408 503.253c0 23.979-19.627 96.128-93.44 96.128-73.771 0-83.84-68.096-83.84-116.309 0-45.952 3.797-109.781 95.872-107.861 91.648 2.219 81.621 104.021 81.621 128.085zM772.267 293.291s-95.872 74.197-151.765 154.155c-75.776 118.101-183.637 69.973-219.477 10.197-36.053-60.501-91.861-98.389-99.797-108.544-8.021-9.899-115.584-68.096-91.605-174.037 24.021-105.941 107.861-104.064 107.861-104.064s61.696-6.059 133.675 9.984c71.936 16 133.547-3.883 133.547-3.883s167.253-56.192 213.547 51.712c45.739 108.245-26.027 164.139-26.027 164.139z" fill="currentColor" />
  </g>
</svg>
