<?xml version="1.0" encoding="utf-8"?>
<svg xmlns="http://www.w3.org/2000/svg" viewBox="0 0 1024 1024" width="24" height="24">
  <g transform="scale(1, -1) translate(0, -960)">
    <path d="M618.24 66.688l229.589 49.749s-82.816 560.555-83.499 564.267c-0.683 3.669-3.669 6.144-6.741 6.144s-61.397 4.309-61.397 4.309-40.491 40.491-45.397 44.8c-1.152 1.237-2.432 1.835-3.669 2.475l-28.885-671.744zM637.269 739.627c-0.683 0-1.835-0.597-2.432-0.597-0.683 0-9.259-2.517-22.741-6.741-13.568 39.211-37.504 75.435-79.829 75.435h-3.669c-12.331 15.403-27.008 22.144-39.936 22.144-98.816 0-146.176-123.392-160.853-185.984-38.059-11.733-65.621-20.309-68.821-21.547-21.504-6.741-22.059-7.339-24.491-27.648-2.432-14.677-58.325-447.531-58.325-447.531l431.659-81.024 29.44 673.493zM524.843 709.589v-4.352c-23.851-7.381-50.261-15.36-76.075-23.339 14.763 56.448 42.325 84.139 66.261 94.592 6.229-16 9.813-37.461 9.813-66.901zM485.589 803.456c4.267 0 8.576-1.195 12.928-4.352-31.232-14.677-65.664-52.139-79.829-127.061-2.12-1.481-22.181-7.778-42.348-13.83l-17.855-4.602c16.597 57.131 56.533 149.845 127.104 149.845zM502.741 470.144s-25.771 13.44-56.405 13.44c-46.080 0-47.915-28.843-47.915-36.224 0-39.296 103.168-54.613 103.168-147.328 0-73.045-46.080-119.723-108.672-119.723-74.923 0-112.981 46.677-112.981 46.677l20.267 66.304s39.339-33.792 72.405-33.792c0.356-0.015 0.775-0.024 1.195-0.024 16.293 0 29.509 13.179 29.568 29.458v0.006c0 51.584-84.736 54.101-84.736 138.752 0 71.211 50.987 140.587 154.752 140.587 39.936 0 59.52-11.605 59.52-11.605l-30.165-86.528zM542.080 780.8c22.101-2.56 36.267-27.648 45.397-55.936-11.008-3.712-23.339-7.381-36.821-11.648v7.979c0 23.936-3.072 43.605-8.576 59.605z" fill="currentColor" />
  </g>
</svg>
