<?xml version="1.0" encoding="utf-8"?>
<svg xmlns="http://www.w3.org/2000/svg" viewBox="0 0 1024 1024" width="24" height="24">
  <g transform="scale(1, -1) translate(0, -960)">
    <path d="M455.296 405.333c0-23.588-19.122-42.709-42.709-42.709s-42.709 19.122-42.709 42.709c0 23.588 19.122 42.709 42.709 42.709s42.709-19.122 42.709-42.709zM601.173 303.317c-22.621-16.375-50.923-26.194-81.519-26.194-2.693 0-5.368 0.076-8.023 0.226l0.368-0.017c-1.867-0.089-4.055-0.14-6.255-0.14-31.050 0-59.731 10.14-82.914 27.288l0.379-0.268c-1.951 1.567-4.457 2.515-7.184 2.515-6.362 0-11.52-5.158-11.52-11.52 0-2.738 0.955-5.253 2.551-7.23l-0.017 0.022c30.293-22.827 67.499-34.517 105.429-32.853 2.129-0.1 4.624-0.157 7.133-0.157 37.075 0 71.252 12.408 98.604 33.298l-0.394-0.289v-1.707c2.2 2.194 3.56 5.228 3.56 8.58 0 3.223-1.258 6.151-3.31 8.322l0.005-0.006c-2.168 2.201-5.181 3.564-8.512 3.564-3.267 0-6.229-1.312-8.385-3.437l0.001 0.001zM610.091 446.293c-23.564 0-42.667-19.103-42.667-42.667s19.103-42.667 42.667-42.667v0l-0.341-1.664c0.683-0.085 1.408 0 2.176 0 22.795 0.97 40.907 19.685 40.907 42.63 0 0.583-0.012 1.163-0.035 1.74l0.003-0.083c0 0.013 0 0.028 0 0.043 0 23.564-19.103 42.667-42.667 42.667-0.015 0-0.030 0-0.045 0h0.002zM512 874.667c-235.563 0-426.667-191.019-426.667-426.667 0-235.563 191.104-426.667 426.667-426.667s426.667 191.104 426.667 426.667c0 235.648-191.104 426.667-426.667 426.667zM761.984 391.253c0.512-6.229 0.512-12.501 0-18.731 0-95.573-111.317-173.312-248.747-173.312s-248.747 77.653-248.747 173.312c-0.245 2.805-0.384 6.069-0.384 9.365s0.139 6.56 0.413 9.786l-0.029-0.421c-21.611 10.088-36.318 31.636-36.318 56.619 0 16.525 6.434 31.547 16.935 42.697l-0.029-0.032c11.376 12.095 27.484 19.628 45.352 19.628 16.532 0 31.558-6.449 42.699-16.968l-0.030 0.028c46.668 32.015 104.143 51.49 166.109 52.477l0.249 0.003 31.701 148.053v0.171c1.407 5.983 6.7 10.369 13.017 10.369 0.996 0 1.967-0.109 2.901-0.316l-0.089 0.017 104.491-20.907c7.545 12.755 21.231 21.175 36.883 21.175 23.588 0 42.709-19.122 42.709-42.709s-19.122-42.709-42.709-42.709c-22.005 0-40.124 16.642-42.456 38.027l-0.017 0.19-91.221 19.2-27.691-133.12c61.49-1.368 118.183-20.79 165.298-53.149l-1.031 0.669c11.17 10.714 26.361 17.311 43.094 17.311 33.589 0 60.969-26.585 62.247-59.862l0.004-0.116c0.427-24.021-13.099-46.080-34.603-56.747z" fill="currentColor" />
  </g>
</svg>
