<?xml version="1.0" encoding="utf-8"?>
<svg xmlns="http://www.w3.org/2000/svg" viewBox="0 0 1024 1024" width="24" height="24">
  <g transform="scale(1, -1) translate(0, -960)">
    <path d="M891.392 538.069c-0.316 1.462-0.684 2.704-1.13 3.908l0.064-0.196-89.771 276.437c-4.946 14.263-18.268 24.321-33.938 24.321-0.069 0-0.137 0-0.206-0.001h0.011c-0.063 0-0.138 0.001-0.213 0.001-15.606 0-28.832-10.194-33.382-24.286l-0.069-0.248-85.589-263.467h-270.251l-85.675 263.509c-4.634 14.342-17.868 24.533-33.482 24.533-0.019 0-0.038 0-0.056 0h-0.253c-0.001 0-0.002 0-0.003 0-15.726 0-29.077-10.164-33.844-24.282l-0.074-0.252-89.856-276.821c0-0.213-0.213-0.427-0.299-0.683l-45.525-139.989c-1.606-4.738-2.533-10.196-2.533-15.87 0-16.928 8.25-31.929 20.948-41.203l0.145-0.101 393.685-286.123c7.125-5.163 16.768-5.12 23.808 0.128l393.771 285.995c12.824 9.419 21.055 24.441 21.055 41.385 0 5.643-0.913 11.073-2.599 16.15l0.104-0.362-44.843 137.515zM766.72 792.064l77.184-237.483h-154.411l77.227 237.483zM257.28 792.064l77.312-237.483h-154.197l76.885 237.483zM130.048 375.979c-2.739 1.983-4.5 5.171-4.5 8.77 0 1.197 0.195 2.348 0.554 3.424l-0.022-0.076 33.835 103.979 248.192-318.123-278.059 202.027zM194.005 514.176h153.643l109.781-337.749-263.424 337.749zM511.957 138.965l-121.856 375.381h243.968l-76.459-235.307-45.653-140.075zM566.656 176.384l105.259 323.755 4.523 14.037h153.771l-263.552-337.792zM893.952 375.979l-278.144-201.941 0.939 1.237 247.211 316.8 33.792-103.936c0.381-1.051 0.601-2.265 0.601-3.53 0-3.535-1.72-6.669-4.368-8.61l-0.030-0.021z" fill="currentColor" />
  </g>
</svg>
