<?xml version="1.0" encoding="utf-8"?>
<svg xmlns="http://www.w3.org/2000/svg" viewBox="0 0 1024 1024" width="24" height="24">
  <g transform="scale(1, -1) translate(0, -960)">
    <path d="M142.72 664.107c-74.923-107.648-65.621-247.723-8.363-362.112l4.181-8.107c0.896-1.707 1.749-3.499 2.688-5.163 0.512-1.024 1.109-2.005 1.664-2.944 3.557-6.599 6.359-11.396 9.275-16.116l-0.827 1.438 3.115-5.12c3.841-6.334 6.814-10.927 9.878-15.451l-0.876 1.371c4.007-6.049 7.11-10.483 10.293-14.855l-0.863 1.245 1.536-2.091c2.688-3.755 5.504-7.467 8.363-11.136l3.157-4.011 7.765-9.515 2.944-3.499c3.499-4.139 7.125-8.277 10.752-12.331l0.213-0.213c0.171-0.171 0.299-0.256 0.427-0.469 3.541-3.883 7.253-7.723 10.923-11.563l3.541-3.541 8.747-8.576 3.584-3.413c3.925-3.712 7.936-7.339 11.989-10.923l0.171-0.171 2.091-1.749c3.541-3.115 7.211-6.187 10.88-9.173l4.48-3.584c6.754-5.473 14.605-11.412 22.642-17.106l1.465-0.985c1.237-0.896 2.432-1.792 3.712-2.645l1.024-0.725c3.243-2.261 6.571-4.395 9.856-6.528 1.408-0.939 2.816-1.92 4.309-2.859 10.149-6.631 22.514-13.843 35.221-20.488l2.581-1.229c2.773-1.451 5.504-2.901 8.32-4.309l5.333-2.603c4.352-2.048 8.747-4.139 13.141-6.101l2.816-1.237c5.077-2.219 10.197-4.352 15.36-6.357l3.755-1.493c1.348-0.723 6.742-2.774 12.174-4.748l4.125-1.31c5.333-1.877 10.752-3.627 16.213-5.291l3.925-1.195c5.461-1.664 10.923-3.627 16.64-4.693 362.325-66.048 467.541 217.685 467.541 217.685-88.405-115.115-245.248-145.493-393.899-111.701-5.632 1.28-11.136 3.029-16.64 4.651l-4.139 1.237c-14.165 4.345-24.855 8.174-35.357 12.374l3.144-1.11-3.968 1.536c-5.12 2.005-10.197 4.139-15.189 6.315l-3.029 1.323c-7.431 3.246-11.651 5.246-15.839 7.303l2.996-1.329-3.712 1.792c-3.328 1.621-6.613 3.371-9.899 5.035-2.176 1.152-4.437 2.261-6.613 3.499-5.779 3.063-9.657 5.273-13.489 7.553l1.627-0.897-4.011 2.219c-7.338 4.285-12.393 7.431-17.385 10.667l1.897-1.152-4.181 2.773c-5.379 3.43-8.98 5.849-12.545 8.318l1.494-0.979-3.541 2.517c-3.499 2.475-6.997 4.949-10.411 7.509-5.897 4.417-10.451 7.983-14.943 11.624l0.948-0.744-4.224 3.371c-3.925 3.243-7.851 6.485-11.691 9.856-5.099 4.447-9.53 8.459-13.89 12.547l0.279-0.259c-1.195 1.109-2.347 2.176-3.456 3.328-3.11 2.93-6.002 5.754-8.842 8.628l-0.032 0.033-3.456 3.456c-3.514 3.593-7.049 7.331-10.522 11.127l-0.316 0.35-0.512 0.512c-3.309 3.619-6.905 7.688-10.435 11.815l-0.573 0.686-2.859 3.456c-3.103 3.641-6.651 7.988-10.117 12.402l-0.721 0.953c-2.226 2.807-5.236 6.78-8.188 10.797l-0.986 1.406c-82.517 112.555-112.128 267.819-46.208 395.307zM375.211 754.816c-54.187-77.952-51.2-182.315-8.96-264.747 7.083-13.824 15.061-27.264 23.936-40.021 8.149-11.648 17.109-25.472 27.904-34.816 3.925-4.309 7.979-8.491 12.117-12.587l3.243-3.157c4.011-3.925 8.107-7.765 12.416-11.563l0.469-0.427 0.128-0.085c4.736-4.139 9.557-8.107 14.507-11.989l3.328-2.56c4.196-3.299 9.281-7.055 14.468-10.676l1.148-0.759c2.261-1.579 4.608-3.072 6.869-4.565 1.109-0.725 2.176-1.493 3.328-2.176 2.956-1.979 7.149-4.576 11.407-7.073l1.435-0.778c3.243-1.877 6.613-3.712 9.941-5.547 1.109-0.64 2.347-1.237 3.499-1.835 2.347-1.195 4.608-2.432 6.955-3.541 2.692-1.466 7.809-3.909 12.982-6.248l2.591-1.048 3.157-1.323c3.968-1.664 7.936-3.285 11.989-4.821l4.992-1.877c3.669-1.365 7.296-2.56 10.923-3.797l4.992-1.579c5.163-1.621 10.368-3.627 15.787-4.565 279.723-46.336 344.235 169.003 344.235 169.003-58.197-83.797-170.923-123.819-291.2-92.587-13.122 3.393-23.689 6.78-34.014 10.661l2.313-0.763-5.035 1.835c-7.246 2.725-12.215 4.81-17.12 7.013l2.059-0.827c-7.265 3.121-12.090 5.394-16.857 7.765l2.179-0.981c-2.432 1.195-4.821 2.475-7.253 3.712l-4.224 2.176c-9.637 5.228-17.068 9.655-24.338 14.311l1.597-0.957-3.413 2.261c-9.887 6.464-18.26 12.571-26.318 19.052l0.633-0.492c-52.651 41.557-94.421 98.389-114.261 162.773-20.821 66.816-16.299 141.781 19.712 202.667zM570.837 822.571c-31.957-47.019-35.115-105.344-12.971-157.269 23.381-55.125 71.296-98.304 127.189-118.827 2.14-0.87 5.457-2.018 8.82-3.060l1.164-0.311c3.285-1.024 6.485-2.261 9.941-2.859 154.453-29.824 196.309 79.232 207.445 95.317-36.693-52.864-98.389-65.536-173.995-47.147-15.449 4.129-28.767 9.14-41.438 15.277l1.374-0.6c-14.589 7.106-27.109 14.846-38.762 23.671l0.575-0.417c-67.627 51.371-109.781 149.376-65.536 229.205z" fill="currentColor" />
  </g>
</svg>
