<?xml version="1.0" encoding="utf-8"?>
<svg xmlns="http://www.w3.org/2000/svg" viewBox="0 0 1024 1024" width="24" height="24">
  <g transform="scale(1, -1) translate(0, -960)">
    <path d="M578.176 469.973c-0.013 0-0.028 0-0.043 0-54.834 0-99.285-44.452-99.285-99.285 0-0.075 0-0.15 0-0.225v0.012c0-56.064 43.221-98.688 104.149-98.688l-0.512-0.085c50.859 0 93.568 41.941 93.568 97.28 0.043 57.557-42.709 100.992-97.877 100.992zM128 832v-768h768v768h-768zM790.187 166.187h-114.432v45.141c-35.2-34.56-71.125-47.061-118.869-47.061-48.725 0-90.624 15.829-125.739 47.531-46.336 40.789-70.315 95.019-70.315 157.909 0 57.643 22.357 109.269 64.299 149.589 37.461 36.651 83.029 55.381 133.931 55.381 48.64 0 86.101-16.427 112.939-50.859v175.147l118.187 24.448v-557.227z" fill="currentColor" />
  </g>
</svg>
