<?xml version="1.0" encoding="utf-8"?>
<svg xmlns="http://www.w3.org/2000/svg" viewBox="0 0 1024 1024" width="24" height="24">
  <g transform="scale(1, -1) translate(0, -960)">
    <path d="M213.333 874.667c-47.061 0-85.333-38.272-85.333-85.333v-512c0-47.061 38.272-85.333 85.333-85.333h149.333l149.333-170.667 149.333 170.667h149.333c47.061 0 85.333 38.272 85.333 85.333v512c0 47.061-38.272 85.333-85.333 85.333h-597.333zM396.885 363.221h-76.8v76.757l212.395 212.053 76.715-76.757-212.309-212.053zM645.333 611.413l-76.715 76.757 58.496 58.496 76.8-76.757-58.581-58.496z" fill="currentColor" />
  </g>
</svg>
