<?xml version="1.0" encoding="utf-8"?>
<svg xmlns="http://www.w3.org/2000/svg" viewBox="0 0 1024 1024" width="24" height="24">
  <g transform="scale(1, -1) translate(0, -960)">
    <path d="M938.368 620.8c-0.074 3.276-0.521 6.412-1.3 9.415l0.063-0.285c-0.299 1.067-0.896 2.091-1.28 3.157-0.896 2.432-1.707 4.821-2.987 7.040-0.683 1.152-1.621 2.091-2.432 3.2-1.365 1.92-2.688 3.883-4.352 5.547-0.981 0.939-2.261 1.707-3.328 2.603-1.664 1.365-3.2 2.859-5.12 4.011-0.171 0.128-0.384 0.128-0.597 0.256l-0.341 0.256-383.104 212.907c-5.976 3.375-13.122 5.363-20.732 5.363-7.579 0-14.698-1.972-20.87-5.432l0.216 0.111-384.896-212.907c-0.128-0.128-0.256-0.299-0.469-0.427l-0.427-0.171c-1.493-0.853-2.603-2.091-4.011-3.115-1.536-1.152-3.157-2.176-4.523-3.499-1.28-1.323-2.261-2.859-3.371-4.352-1.152-1.493-2.432-2.816-3.371-4.437-1.109-1.835-1.707-3.925-2.517-5.931-0.597-1.408-1.365-2.731-1.749-4.267-0.698-2.66-1.144-5.736-1.236-8.9l-0.001-0.060c-0.043-0.725-0.299-1.365-0.299-2.133v-341.419c0-15.488 8.405-29.781 21.973-37.291l384.043-213.333c1.835-1.024 3.84-1.579 5.76-2.304 1.365-0.555 2.688-1.28 4.139-1.664 3.239-0.87 6.959-1.37 10.795-1.37s7.555 0.5 11.096 1.438l-0.302-0.068c1.408 0.384 2.731 1.109 4.139 1.664 1.92 0.725 3.925 1.237 5.76 2.304l0.853 0.469 0.085 0.043 0.043 0.043 383.061 212.779c13.483 7.509 21.888 21.803 21.888 37.291v341.419c0 0.725-0.256 1.323-0.299 2.048zM510.805 453.461l-294.997 164.992 117.845 65.195 291.584-166.613-114.432-63.573zM512.853 782.805l295.296-164.139-95.744-53.205-291.413 166.528 91.861 50.816zM554.667 136.491l0.085 242.304 127.915 71.595v-130.389l85.333 42.667v135.467l85.333 47.744v-243.413l-298.667-165.973z" fill="currentColor" />
  </g>
</svg>
