<?xml version="1.0" encoding="utf-8"?>
<svg xmlns="http://www.w3.org/2000/svg" viewBox="0 0 1024 1024" width="24" height="24">
  <g transform="scale(1, -1) translate(0, -960)">
    <path d="M512 874.667c-235.264 0-426.667-191.403-426.667-426.667s191.403-426.667 426.667-426.667 426.667 191.403 426.667 426.667-191.403 426.667-426.667 426.667zM298.667 512c0.012 35.349 28.671 64 64.021 64 35.358 0 64.021-28.663 64.021-64.021 0-0.008 0-0.015 0-0.023v0.001c-0.012-35.349-28.671-64-64.021-64-35.358 0-64.021 28.663-64.021 64.021 0 0.008 0 0.015 0 0.023v-0.001zM512 192c-70.699 0-128 47.744-128 106.667s57.301 106.667 128 106.667 128-47.744 128-106.667-57.301-106.667-128-106.667zM661.035 448.597c-0.485-0.013-1.055-0.021-1.628-0.021-35.205 0-63.744 28.539-63.744 63.744s28.539 63.744 63.744 63.744c0.587 0 1.173-0.008 1.756-0.024l-0.086 0.002c34.479-0.932 62.074-29.105 62.074-63.722 0-34.633-27.619-62.814-62.032-63.721l-0.084-0.002z" fill="currentColor" />
  </g>
</svg>
