<?xml version="1.0" encoding="utf-8"?>
<svg xmlns="http://www.w3.org/2000/svg" viewBox="0 0 1024 1024" width="24" height="24">
  <g transform="scale(1, -1) translate(0, -960)">
    <path d="M914.176 486.613l-725.333 341.333c-5.32 2.563-11.568 4.060-18.166 4.060-23.564 0-42.667-19.103-42.667-42.667 0-3.669 0.463-7.23 1.334-10.628l-0.064 0.296 51.712-206.891 331.008-124.117-331.008-124.117-51.712-206.891c-0.833-3.148-1.312-6.761-1.312-10.487 0-23.517 19.064-42.581 42.581-42.581 6.648 0 12.94 1.523 18.546 4.24l-0.254-0.111 725.333 341.333c14.606 6.983 24.516 21.641 24.516 38.613s-9.91 31.63-24.259 38.503l-0.257 0.111z" fill="currentColor" />
  </g>
</svg>
