<?xml version="1.0" encoding="utf-8"?>
<svg xmlns="http://www.w3.org/2000/svg" viewBox="0 0 1024 1024" width="24" height="24">
  <g transform="scale(1, -1) translate(0, -960)">
    <path d="M896 789.333c0 47.061-38.272 85.333-85.333 85.333h-597.333c-47.061 0-85.333-38.272-85.333-85.333v-298.667h768v298.667zM682.667 618.667h-341.333v128h85.333v-42.667h170.667v42.667h85.333v-128zM213.333 21.333h597.333c47.061 0 85.333 38.272 85.333 85.333v298.667h-768v-298.667c0-47.061 38.272-85.333 85.333-85.333zM341.333 277.333h85.333v-42.667h170.667v42.667h85.333v-128h-341.333v128z" fill="currentColor" />
  </g>
</svg>
