<?xml version="1.0" encoding="utf-8"?>
<svg xmlns="http://www.w3.org/2000/svg" viewBox="0 0 1024 1024" width="24" height="24">
  <g transform="scale(1, -1) translate(0, -960)">
    <path d="M341.333 832h-128c-23.564 0-42.667-19.103-42.667-42.667v0-128h213.333v128c0 23.564-19.103 42.667-42.667 42.667v0zM640 789.333v-128h213.333v128c0 23.564-19.103 42.667-42.667 42.667v0h-128c-23.564 0-42.667-19.103-42.667-42.667v0zM640 362.667c0-70.692-57.308-128-128-128s-128 57.308-128 128v0 213.333h-213.333v-213.333c0-188.513 152.82-341.333 341.333-341.333s341.333 152.82 341.333 341.333v0 213.333h-213.333v-213.333z" fill="currentColor" />
  </g>
</svg>
