<?xml version="1.0" encoding="utf-8"?>
<svg xmlns="http://www.w3.org/2000/svg" viewBox="0 0 1024 1024" width="24" height="24">
  <g transform="scale(1, -1) translate(0, -960)">
    <path d="M151.595 153.813l170.667-85.333c5.557-2.834 12.121-4.495 19.072-4.495s13.515 1.661 19.315 4.607l-0.243-0.112 151.595 75.819 151.595-75.776c5.561-2.882 12.14-4.572 19.114-4.572 6.941 0 13.49 1.674 19.267 4.64l-0.238-0.111 170.667 85.333c14.464 7.253 23.595 22.016 23.595 38.187v213.333c0 16.171-9.131 30.933-23.595 38.187l-147.072 73.515v186.965c0 16.171-9.131 30.933-23.595 38.187l-170.667 85.333c-5.562 2.844-12.133 4.511-19.093 4.511s-13.531-1.667-19.335-4.622l0.242 0.112-170.667-85.333c-14.421-7.253-23.552-22.016-23.552-38.187v-186.965l-147.072-73.557c-14.098-7.137-23.595-21.516-23.595-38.114 0-0.011 0-0.021 0-0.032v0.002-213.333c0-16.171 9.131-30.933 23.595-38.187zM341.333 442.965l96.597-48.299-124.288-62.165-96.597 48.299 124.288 62.165zM512 549.632l128 64v-96.597l-128-64v96.597zM779.264 394.667l-122.965-61.483-96.597 48.299 122.965 61.483 96.597-48.299zM341.333 154.368l-2.645 1.323v93.909l130.645 65.365v-96.597l-128-64zM682.667 154.368v96.597l128 64v-96.597l-128-64zM512 741.632l96.597-48.299-122.965-61.483-96.597 48.299 122.965 61.483z" fill="currentColor" />
  </g>
</svg>
