<?xml version="1.0" encoding="utf-8"?>
<svg xmlns="http://www.w3.org/2000/svg" viewBox="0 0 1024 1024" width="24" height="24">
  <g transform="scale(1, -1) translate(0, -960)">
    <path d="M896 234.667h-85.333v341.333h85.333v85.333c0 0.018 0 0.040 0 0.061 0 17.277-10.29 32.151-25.076 38.828l-0.268 0.108-402.432 178.816-359.296-179.627c-14.101-7.16-23.595-21.554-23.595-38.167 0-0.007 0-0.014 0-0.021v0.001-85.333h85.333v-341.333h-85.333v-170.667h810.667v170.667zM682.667 576v-341.333h-128v341.333h128zM298.667 576h128v-341.333h-128v341.333z" fill="currentColor" />
  </g>
</svg>
