<?xml version="1.0" encoding="utf-8"?>
<svg xmlns="http://www.w3.org/2000/svg" viewBox="0 0 1024 1024" width="24" height="24">
  <g transform="scale(1, -1) translate(0, -960)">
    <path d="M853.333 704c0 92.501-156.288 170.667-341.333 170.667s-341.333-78.165-341.333-170.667v-85.333c0-92.501 156.288-170.667 341.333-170.667s341.333 78.165 341.333 170.667v85.333zM512 149.333c-185.045 0-341.333 78.165-341.333 170.667v-128c0-92.501 156.288-170.667 341.333-170.667s341.333 78.165 341.333 170.667v128c0-92.501-156.288-170.667-341.333-170.667zM853.333 533.333c0-92.501-156.288-170.667-341.333-170.667s-341.333 78.165-341.333 170.667v-128c0-92.501 156.288-170.667 341.333-170.667s341.333 78.165 341.333 170.667v128z" fill="currentColor" />
  </g>
</svg>
