<?xml version="1.0" encoding="utf-8"?>
<svg xmlns="http://www.w3.org/2000/svg" viewBox="0 0 1024 1024" width="24" height="24">
  <g transform="scale(1, -1) translate(0, -960)">
    <path d="M128 362.667h85.333v-298.667c0-23.564 19.103-42.667 42.667-42.667v0h512c23.564 0 42.667 19.103 42.667 42.667v0 298.667h85.333c0.011 0 0.024 0 0.037 0 17.261 0 32.123 10.27 38.809 25.034l0.109 0.268c2.344 5.112 3.711 11.089 3.711 17.386 0 10.989-4.163 21.006-10.997 28.559l0.033-0.037-384 426.667c-16.171 18.005-47.232 18.005-63.403 0l-384-426.667c-6.796-7.527-10.954-17.55-10.954-28.544 0-23.56 19.096-42.66 42.655-42.667h0.001zM381.824 376.149c1.323-4.053 34.688-98.816 130.176-98.816 96.811 0 129.792 97.579 130.133 98.603l81.067-26.496c-2.091-6.443-53.205-157.44-211.2-157.44s-209.109 150.997-211.2 157.397l81.024 26.752z" fill="currentColor" />
  </g>
</svg>
