<?xml version="1.0" encoding="utf-8"?>
<svg xmlns="http://www.w3.org/2000/svg" viewBox="0 0 1024 1024" width="24" height="24">
  <g transform="scale(1, -1) translate(0, -960)">
    <path d="M896 789.333h-810.667v-85.333h98.133l150.229-413.141c12.3-33.019 43.528-56.125 80.162-56.192h354.141v85.333h-354.133l-31.061 85.333h385.195c17.067 0 32.512 10.155 39.211 25.856l128 298.667c2.209 4.979 3.496 10.787 3.496 16.896 0 23.517-19.064 42.581-42.581 42.581-0.044 0-0.088 0-0.132 0h0.007zM512 128c0-35.346-28.654-64-64-64s-64 28.654-64 64c0 35.346 28.654 64 64 64s64-28.654 64-64zM768 128c0-35.346-28.654-64-64-64s-64 28.654-64 64c0 35.346 28.654 64 64 64s64-28.654 64-64z" fill="currentColor" />
  </g>
</svg>
