<?xml version="1.0" encoding="utf-8"?>
<svg xmlns="http://www.w3.org/2000/svg" viewBox="0 0 1024 1024" width="24" height="24">
  <g transform="scale(1, -1) translate(0, -960)">
    <path d="M768 490.667c0 40.917-29.013 75.136-67.456 83.371 15.36 25.643 24.789 55.296 24.789 87.296 0 94.123-76.544 170.667-170.667 170.667-64.683 0-120.405-36.565-149.333-89.771-28.928 53.205-84.651 89.771-149.333 89.771-94.123 0-170.667-76.544-170.667-170.667 0-38.485 13.312-73.643 34.859-102.229-21.178-15.606-34.785-40.425-34.859-68.426v-341.345c0-47.061 38.272-85.333 85.333-85.333h512c47.061 0 85.333 38.272 85.333 85.333v112.512l170.667-85.333v298.667l-170.667-85.333v100.821zM554.667 746.667c47.061 0 85.333-38.272 85.333-85.333s-38.272-85.333-85.333-85.333-85.333 38.272-85.333 85.333 38.272 85.333 85.333 85.333zM256 746.667c47.061 0 85.333-38.272 85.333-85.333s-38.272-85.333-85.333-85.333-85.333 38.272-85.333 85.333 38.272 85.333 85.333 85.333z" fill="currentColor" />
  </g>
</svg>
