<?xml version="1.0" encoding="utf-8"?>
<svg xmlns="http://www.w3.org/2000/svg" viewBox="0 0 1024 1024" width="24" height="24">
  <g transform="scale(1, -1) translate(0, -960)">
    <path d="M810.667 832h-597.333c-47.061 0-85.333-38.272-85.333-85.333v-597.333c0-47.061 38.272-85.333 85.333-85.333h597.333c47.061 0 85.333 38.272 85.333 85.333v597.333c0 47.061-38.272 85.333-85.333 85.333zM341.333 213.333c-35.349 0.012-64 28.671-64 64.021 0 35.358 28.663 64.021 64.021 64.021 0.008 0 0.015 0 0.023 0h-0.001c35.349-0.012 64-28.671 64-64.021 0-35.358-28.663-64.021-64.021-64.021-0.008 0-0.015 0-0.023 0h0.001zM341.333 554.667c-35.349 0.012-64 28.671-64 64.021 0 35.358 28.663 64.021 64.021 64.021 0.008 0 0.015 0 0.023 0h-0.001c35.349-0.012 64-28.671 64-64.021 0-35.358-28.663-64.021-64.021-64.021-0.008 0-0.015 0-0.023 0h0.001zM682.667 213.333c-35.349 0.012-64 28.671-64 64.021 0 35.358 28.663 64.021 64.021 64.021 0.008 0 0.015 0 0.023 0h-0.001c35.349-0.012 64-28.671 64-64.021 0-35.358-28.663-64.021-64.021-64.021-0.008 0-0.015 0-0.023 0h0.001zM682.667 554.667c-35.349 0.012-64 28.671-64 64.021 0 35.358 28.663 64.021 64.021 64.021 0.008 0 0.015 0 0.023 0h-0.001c35.349-0.012 64-28.671 64-64.021 0-35.358-28.663-64.021-64.021-64.021-0.008 0-0.015 0-0.023 0h0.001z" fill="currentColor" />
  </g>
</svg>
