<?xml version="1.0" encoding="utf-8"?>
<svg xmlns="http://www.w3.org/2000/svg" viewBox="0 0 1024 1024" width="24" height="24">
  <g transform="scale(1, -1) translate(0, -960)">
    <path d="M725.333 874.667h-170.667v-173.184c64.341-7.254 122.346-29.486 172.010-63.108l-1.344 0.858v235.435zM469.333 874.667h-170.667v-235.435c48.32 32.764 106.325 54.997 168.919 62.090l1.747 0.161v173.184zM512 21.333c164.949 0 298.667 133.718 298.667 298.667s-133.718 298.667-298.667 298.667v0c-164.949 0-298.667-133.718-298.667-298.667s133.718-298.667 298.667-298.667v0zM459.733 384.811l52.267 105.856 52.267-105.856 116.821-16.939-84.523-82.432 19.968-116.352-104.533 54.912-104.491-54.912 19.968 116.352-84.523 82.432 116.779 16.939z" fill="currentColor" />
  </g>
</svg>
