<?xml version="1.0" encoding="utf-8"?>
<svg xmlns="http://www.w3.org/2000/svg" viewBox="0 0 1024 1024" width="24" height="24">
  <g transform="scale(1, -1) translate(0, -960)">
    <path d="M352.725 333.653c-7.851 0-13.141-0.768-15.872-1.536v-50.261c3.243-0.768 7.296-0.981 12.885-0.981 20.437 0 33.024 10.325 33.024 27.776 0 15.616-10.837 25.003-30.037 25.003zM501.504 333.141c-8.533 0-14.080-0.768-17.365-1.536v-111.36c3.285-0.768 8.576-0.768 13.355-0.768 34.859-0.256 57.557 18.944 57.557 59.563 0.256 35.413-20.437 54.101-53.547 54.101zM597.333 874.667h-341.333c-47.128 0-85.333-38.205-85.333-85.333v0-682.667c0-47.128 38.205-85.333 85.333-85.333v0h512c47.128 0 85.333 38.205 85.333 85.333v0 512l-256 256zM405.248 269.227c-13.184-12.373-32.64-17.92-55.296-17.92-0.307-0.004-0.67-0.006-1.033-0.006-4.269 0-8.472 0.281-12.592 0.826l0.484-0.052v-60.843h-38.144v167.936c14.299 2.246 30.788 3.529 47.578 3.529 1.559 0 3.115-0.011 4.668-0.033l-0.235 0.003c23.765 0 40.661-4.523 52.053-13.611 10.837-8.619 18.176-22.741 18.176-39.381-0.043-16.725-5.589-30.848-15.659-40.448zM567.68 211.413c-17.92-14.891-45.184-21.973-78.507-21.973-19.968 0-34.091 1.28-43.691 2.56v167.125c14.716 2.263 31.693 3.555 48.971 3.555 1.069 0 2.137-0.005 3.203-0.015l-0.163 0.001c32.299 0 53.291-5.803 69.675-18.176 17.707-13.141 28.8-34.091 28.8-64.171 0-32.555-11.904-55.040-28.288-68.907zM725.333 329.813h-65.365v-38.869h61.099v-31.317h-61.099v-68.437h-38.656v170.197h104.021v-31.573zM597.333 576h-42.667v213.333l213.333-213.333h-170.667z" fill="currentColor" />
  </g>
</svg>
