<?xml version="1.0" encoding="utf-8"?>
<svg xmlns="http://www.w3.org/2000/svg" viewBox="0 0 1024 1024" width="24" height="24">
  <g transform="scale(1, -1) translate(0, -960)">
    <path d="M512 874.667c-211.755 0-384-172.245-384-384 0-141.995 77.653-265.899 192.555-332.373l-88.192-58.795c-11.52-7.761-18.996-20.757-18.996-35.499 0-23.553 19.084-42.648 42.632-42.667h512.002c0.003 0 0.006 0 0.010 0 23.564 0 42.667 19.103 42.667 42.667 0 14.742-7.476 27.738-18.844 35.402l-0.152 0.096-88.192 58.795c114.859 66.475 192.512 190.379 192.512 332.373 0 211.755-172.245 384-384 384zM512 192c-164.651 0-298.667 134.016-298.667 298.667s134.016 298.667 298.667 298.667 298.667-134.016 298.667-298.667-134.016-298.667-298.667-298.667zM512 704c-117.632 0-213.333-95.701-213.333-213.333s95.701-213.333 213.333-213.333 213.333 95.701 213.333 213.333-95.701 213.333-213.333 213.333zM448 490.667c-35.349 0.012-64 28.671-64 64.021 0 35.358 28.663 64.021 64.021 64.021 0.008 0 0.015 0 0.023 0h-0.001c35.349-0.012 64-28.671 64-64.021 0-35.358-28.663-64.021-64.021-64.021-0.008 0-0.015 0-0.023 0h0.001z" fill="currentColor" />
  </g>
</svg>
