<?xml version="1.0" encoding="utf-8"?>
<svg xmlns="http://www.w3.org/2000/svg" viewBox="0 0 1024 1024" width="24" height="24">
  <g transform="scale(1, -1) translate(0, -960)">
    <path d="M512 456.235c-69.474 69.5-112.443 165.5-112.443 271.536 0 52.998 10.734 103.488 30.147 149.416l-0.946-2.521c-86.106-17.348-160.617-58.693-218.444-116.684l-0.010-0.010c-166.613-166.613-166.613-436.779 0-603.392 166.656-166.656 436.779-166.613 603.435 0 57.985 57.831 99.327 132.324 116.232 215.686l0.461 2.724c-43.405-18.462-93.892-29.193-146.885-29.193-106.038 0-202.040 42.966-271.548 112.437l0.002-0.002z" fill="currentColor" />
  </g>
</svg>
