<?xml version="1.0" encoding="utf-8"?>
<svg xmlns="http://www.w3.org/2000/svg" viewBox="0 0 1024 1024" width="24" height="24">
  <g transform="scale(1, -1) translate(0, -960)">
    <path d="M554.667 872.491v-381.824h381.824c-20.053 201.259-180.565 361.771-381.824 381.824zM766.677 106.496c93.397 69.845 157.611 176.64 169.813 298.837h-349.141l179.328-298.837zM469.333 448v424.491c-215.296-21.504-384-203.648-384-424.491 0-235.264 191.403-426.667 426.667-426.667 65.997 0.089 128.429 15.254 184.069 42.234l-2.522-1.103s-224.128 380.373-224.171 385.323c-0.006 0.078-0.021 0.151-0.044 0.219l0.002-0.006z" fill="currentColor" />
  </g>
</svg>
