<?xml version="1.0" encoding="utf-8"?>
<svg xmlns="http://www.w3.org/2000/svg" viewBox="0 0 1024 1024" width="24" height="24">
  <g transform="scale(1, -1) translate(0, -960)">
    <path d="M256 21.333h512c47.128 0 85.333 38.205 85.333 85.333v0 682.667c0 47.128-38.205 85.333-85.333 85.333v0h-512c-47.128 0-85.333-38.205-85.333-85.333v0-682.667c0-47.128 38.205-85.333 85.333-85.333v0zM384 149.333h-85.333v85.333h85.333v-85.333zM384 320h-85.333v85.333h85.333v-85.333zM384 490.667h-85.333v85.333h85.333v-85.333zM554.667 149.333h-85.333v85.333h85.333v-85.333zM554.667 320h-85.333v85.333h85.333v-85.333zM554.667 490.667h-85.333v85.333h85.333v-85.333zM725.333 149.333h-85.333v256h85.333v-256zM725.333 490.667h-85.333v85.333h85.333v-85.333zM256 789.333h512v-128h-512v128z" fill="currentColor" />
  </g>
</svg>
