<?xml version="1.0" encoding="utf-8"?>
<svg xmlns="http://www.w3.org/2000/svg" viewBox="0 0 1024 1024" width="24" height="24">
  <g transform="scale(1, -1) translate(0, -960)">
    <path d="M768 618.667c0 38.784-26.155 71.253-61.653 81.579l-55.893 146.901c-6.281 16.213-21.745 27.504-39.849 27.52h-239.874c-18.105-0.016-33.569-11.307-39.751-27.229l-0.099-0.291-55.893-146.901c-35.806-10.525-61.525-43.031-61.653-81.564v-341.348c0-38.784 26.155-71.253 61.653-81.579l55.893-146.901c6.281-16.213 21.745-27.504 39.849-27.52h239.831c17.707 0 33.579 10.965 39.893 27.52l55.893 146.901c35.806 10.525 61.525 43.031 61.653 81.564v85.348h42.667v170.667h-42.667v85.333zM682.752 277.333h-384.085v341.333h384l0.085-341.333z" fill="currentColor" />
  </g>
</svg>
