<?xml version="1.0" encoding="utf-8"?>
<svg xmlns="http://www.w3.org/2000/svg" viewBox="0 0 1024 1024" width="24" height="24">
  <g transform="scale(1, -1) translate(0, -960)">
    <path d="M256 21.333h512c47.128 0 85.333 38.205 85.333 85.333v0 512l-256 256h-341.333c-47.128 0-85.333-38.205-85.333-85.333v0-682.667c0-47.128 38.205-85.333 85.333-85.333v0zM554.667 789.333l213.333-213.333h-213.333v213.333zM362.667 490.667c35.349-0.012 64-28.671 64-64.021 0-35.358-28.663-64.021-64.021-64.021-0.008 0-0.015 0-0.023 0h0.001c-35.349 0.012-64 28.671-64 64.021 0 35.358 28.663 64.021 64.021 64.021 0.008 0 0.015 0 0.023 0h-0.001zM384 277.333l68.139-58.155 102.528 186.155 170.667-256h-426.667l85.333 128z" fill="currentColor" />
  </g>
</svg>
