<?xml version="1.0" encoding="utf-8"?>
<svg xmlns="http://www.w3.org/2000/svg" viewBox="0 0 1024 1024" width="24" height="24">
  <g transform="scale(1, -1) translate(0, -960)">
    <path d="M512 277.333c94.123 0 170.667 76.544 170.667 170.667v256c0 94.592-76.16 171.563-169.771 171.563-3.173-0.020-6.245-0.407-9.189-1.123l0.272 0.056c-90.69-4.533-162.521-79.106-162.645-170.484v-256.012c0-94.123 76.544-170.667 170.667-170.667zM469.333 109.611v-88.277h85.333v88.277c168.064 21.12 298.667 164.608 298.667 338.389h-85.333c0-141.184-114.816-256-256-256s-256 114.816-256 256h-85.333c0-173.739 130.603-317.269 298.667-338.389z" fill="currentColor" />
  </g>
</svg>
