<?xml version="1.0" encoding="utf-8"?>
<svg xmlns="http://www.w3.org/2000/svg" viewBox="0 0 1024 1024" width="24" height="24">
  <g transform="scale(1, -1) translate(0, -960)">
    <path d="M298.667 21.333c0.17 0 0.372-0.001 0.574-0.001 58.727 0 111.872 23.897 150.243 62.497l392.245 392.245 30.165-30.208 60.331 60.331-362.027 362.069-60.331-60.331 30.208-30.165-392.235-392.235c-40.277-40.277-62.507-93.867-62.507-150.869s22.229-110.592 62.507-150.827c38.381-38.611 91.526-62.507 150.253-62.507 0.202 0 0.403 0 0.605 0.001h-0.031zM781.397 536.405l-131.072-131.072h-361.984l312.064 312.064 180.992-180.992z" fill="currentColor" />
  </g>
</svg>
