<?xml version="1.0" encoding="utf-8"?>
<svg xmlns="http://www.w3.org/2000/svg" viewBox="0 0 1024 1024" width="24" height="24">
  <g transform="scale(1, -1) translate(0, -960)">
    <path d="M298.667 362.624h85.333v-85.333h-85.333zM810.667 874.667h-341.333c-47.128 0-85.333-38.205-85.333-85.333v0-256h-170.667c-47.061 0-85.333-38.272-85.333-85.333v-384c0-23.564 19.103-42.667 42.667-42.667v0h682.667c23.564 0 42.667 19.103 42.667 42.667v0 725.333c0 47.128-38.205 85.333-85.333 85.333v0zM213.333 106.667v341.333h256v-341.333h-256zM597.333 618.667h-85.333v85.333h85.333v-85.333zM768 277.333h-85.333v85.333h85.333v-85.333zM768 448h-85.333v85.333h85.333v-85.333zM768 618.667h-85.333v85.333h85.333v-85.333z" fill="currentColor" />
  </g>
</svg>
