<?xml version="1.0" encoding="utf-8"?>
<svg xmlns="http://www.w3.org/2000/svg" viewBox="0 0 1024 1024" width="24" height="24">
  <g transform="scale(1, -1) translate(0, -960)">
    <path d="M512 874.667c-235.264 0-426.667-191.403-426.667-426.667s191.403-426.667 426.667-426.667 426.667 191.403 426.667 426.667-191.403 426.667-426.667 426.667zM686.72 266.923c-34.341-34.394-78.439-59.037-127.787-69.424l-1.664-0.293c-15.482-3.3-33.27-5.189-51.499-5.189s-36.016 1.89-53.178 5.483l1.679-0.294c-34.775 7.189-65.528 20.586-92.508 39.085l0.86-0.557c-27.426 18.765-50.412 41.765-68.589 68.318l-0.574 0.887 70.741 47.659c6.101-9.003 13.099-17.493 20.821-25.173 15.167-15.243 33.194-27.623 53.211-36.269l1.103-0.424c10.368-4.352 21.12-7.723 31.957-9.899 10.365-2.177 22.274-3.424 34.475-3.424s24.11 1.247 35.608 3.619l-1.134-0.196c10.795 2.219 21.547 5.589 32 9.941 9.984 4.267 19.797 9.557 28.971 15.701 8.875 6.059 17.365 13.056 25.216 20.864 7.808 7.765 14.805 16.256 20.864 25.259l70.741-47.659c-9.173-13.653-19.712-26.453-31.317-38.016zM810.667 533.333c0-47.128-38.205-85.333-85.333-85.333v0h-85.333c-47.128 0-85.333 38.205-85.333 85.333v0h-85.333c0-47.128-38.205-85.333-85.333-85.333v0h-85.333c-47.128 0-85.333 38.205-85.333 85.333v0 85.333h597.333v-85.333z" fill="currentColor" />
  </g>
</svg>
