<?xml version="1.0" encoding="utf-8"?>
<svg xmlns="http://www.w3.org/2000/svg" viewBox="0 0 1024 1024" width="24" height="24">
  <g transform="scale(1, -1) translate(0, -960)">
    <path d="M853.333 874.667h-682.667c-47.061 0-85.333-38.144-85.333-84.992v-512.725c0-46.805 38.272-84.949 85.333-84.949h128v-170.667l270.976 170.667h283.691c47.061 0 85.333 38.144 85.333 84.992v512.683c-0.146 46.971-38.256 84.992-85.248 84.992-0.030 0-0.060 0-0.090 0h0.005zM469.333 533.333c0-47.128-38.205-85.333-85.333-85.333s-85.333 38.205-85.333 85.333c0 47.128 38.205 85.333 85.333 85.333v0c3.669 0 7.125-0.64 10.667-1.067 3.499 0.597 6.997 1.067 10.667 1.067 35.346 0 64-28.654 64-64v0c0-3.669-0.512-7.168-1.067-10.667 0.427-3.541 1.067-7.040 1.067-10.667zM640 448c-47.128 0-85.333 38.205-85.333 85.333v0c0 3.669 0.64 7.125 1.067 10.667-0.601 3.161-0.985 6.84-1.065 10.593l-0.001 0.073c0 35.346 28.654 64 64 64v0c3.669 0 7.168-0.469 10.667-1.067 3.541 0.427 6.997 1.067 10.667 1.067 47.128 0 85.333-38.205 85.333-85.333s-38.205-85.333-85.333-85.333v0z" fill="currentColor" />
  </g>
</svg>
