<?xml version="1.0" encoding="utf-8"?>
<svg xmlns="http://www.w3.org/2000/svg" viewBox="0 0 1024 1024" width="24" height="24">
  <g transform="scale(1, -1) translate(0, -960)">
    <path d="M499.499 862.165c-7.696 7.723-18.342 12.501-30.104 12.501-0.022 0-0.043 0-0.065 0h-213.33c-0.018 0-0.040 0-0.062 0-11.762 0-22.408-4.779-30.102-12.5l-128.001-128.001c-7.723-7.696-12.501-18.342-12.501-30.104 0-0.022 0-0.043 0-0.065v0.003-213.333c0-11.349 4.48-22.187 12.501-30.165l426.667-426.667c7.706-7.749 18.376-12.545 30.165-12.545s22.459 4.796 30.163 12.544l341.335 341.335c7.729 7.716 12.51 18.382 12.51 30.165s-4.781 22.449-12.509 30.165l-426.668 426.668zM356.395 533.333c-0.522-0.014-1.136-0.022-1.753-0.022-38.81 0-70.272 31.462-70.272 70.272s31.462 70.272 70.272 70.272c0.601 0 1.201-0.008 1.799-0.023l-0.089 0.002c38.067-0.956 68.562-32.042 68.562-70.251 0-38.194-30.471-69.271-68.429-70.248l-0.091-0.002z" fill="currentColor" />
  </g>
</svg>
