<?xml version="1.0" encoding="utf-8"?>
<svg xmlns="http://www.w3.org/2000/svg" viewBox="0 0 1024 1024" width="24" height="24">
  <g transform="scale(1, -1) translate(0, -960)">
    <path d="M488.32 28.501c6.653-4.494 14.854-7.174 23.68-7.174s17.027 2.68 23.832 7.271l-0.152-0.096 384 256c11.536 7.74 19.027 20.732 19.027 35.473 0 9.668-3.222 18.583-8.65 25.731l0.077-0.105-384 512c-16.085 21.504-52.181 21.504-68.267 0l-384-512c-5.329-7.043-8.537-15.949-8.537-25.604 0-14.739 7.474-27.733 18.838-35.398l0.152-0.096 384-256zM834.773 330.496l-322.773-215.211v645.589l322.773-430.379z" fill="currentColor" />
  </g>
</svg>
