<?xml version="1.0" encoding="utf-8"?>
<svg xmlns="http://www.w3.org/2000/svg" viewBox="0 0 1024 1024" width="24" height="24">
  <g transform="scale(1, -1) translate(0, -960)">
    <path d="M512 874.667c-235.264 0-426.667-191.403-426.667-426.667s191.403-426.667 426.667-426.667 426.667 191.403 426.667 426.667-191.403 426.667-426.667 426.667zM690.603 416.427l-178.603-178.603-178.603 178.603c-21.515 21.246-34.84 50.742-34.84 83.349s13.326 62.103 34.828 83.338l0.012 0.012c21.244 21.502 50.731 34.818 83.328 34.818s62.084-13.317 83.317-34.807l0.011-0.012 11.947-11.904 11.904 11.904c21.244 21.502 50.731 34.818 83.328 34.818s62.084-13.317 83.317-34.807l0.011-0.012c21.527-21.248 34.861-50.752 34.861-83.37 0-32.597-13.317-62.084-34.807-83.317l-0.012-0.011z" fill="currentColor" />
  </g>
</svg>
