<?xml version="1.0" encoding="utf-8"?>
<svg xmlns="http://www.w3.org/2000/svg" viewBox="0 0 1024 1024" width="24" height="24">
  <g transform="scale(1, -1) translate(0, -960)">
    <path d="M597.333 149.333v170.667h-170.667v-170.667c0-47.061 38.272-85.333 85.333-85.333s85.333 38.272 85.333 85.333zM512 874.667c-235.264 0-426.667-191.403-426.667-426.667 0-189.184 123.861-349.781 294.656-405.547-23.89 28.824-38.453 66.132-38.656 106.836v106.668c-67.755 62.891-85.333 149.376-85.333 149.376h512s-17.536-86.485-85.333-149.376v-106.624c0-40.661-14.891-77.483-38.656-106.837 170.795 55.765 294.656 216.32 294.656 405.504 0 235.264-191.403 426.667-426.667 426.667zM362.667 490.667c-35.349 0.012-64 28.671-64 64.021 0 35.358 28.663 64.021 64.021 64.021 0.008 0 0.015 0 0.023 0h-0.001c35.349-0.012 64-28.671 64-64.021 0-35.358-28.663-64.021-64.021-64.021-0.008 0-0.015 0-0.023 0h0.001zM554.667 490.667s21.333 85.333 106.667 85.333c85.291 0 106.667-85.333 106.667-85.333h-213.333z" fill="currentColor" />
  </g>
</svg>
