<?xml version="1.0" encoding="utf-8"?>
<svg xmlns="http://www.w3.org/2000/svg" viewBox="0 0 1024 1024" width="24" height="24">
  <g transform="scale(1, -1) translate(0, -960)">
    <path d="M832 832c-58.891-0.049-106.618-47.776-106.667-106.662v-0.005c0-15.232 3.328-29.696 9.131-42.88l-83.413-93.824c-26.927 18.797-60.343 30.035-96.383 30.037h-0.001c-31.573 0-60.757-9.216-86.144-24.149l-97.024 96.981-0.981-0.981c8.363 16.981 13.483 35.883 13.483 56.149 0 70.692-57.308 128-128 128s-128-57.308-128-128c0-70.692 57.308-128 128-128v0c20.267 0 39.125 5.12 56.149 13.483l-0.981-0.981 97.024-96.981c-15.044-24.594-24.019-54.324-24.192-86.139v-0.048c0-42.539 16.213-81.024 42.027-110.976l-109.952-109.909c-11.465 4.722-24.771 7.49-38.717 7.552h-0.025c-58.795 0-106.667-47.829-106.667-106.667s47.872-106.667 106.667-106.667 106.667 47.829 106.667 106.667c0 13.696-2.816 26.709-7.552 38.784l121.088 121.088c17.963-6.4 36.992-10.539 57.131-10.539 94.123 0 170.667 76.544 170.667 170.667 0 27.136-6.955 52.437-18.261 75.264l90.325 101.675c10.923-3.755 22.443-6.272 34.603-6.272 58.837 0 106.667 47.829 106.667 106.667s-47.829 106.667-106.667 106.667zM554.667 362.667c-47.061 0-85.333 38.272-85.333 85.333s38.272 85.333 85.333 85.333 85.333-38.272 85.333-85.333-38.272-85.333-85.333-85.333z" fill="currentColor" />
  </g>
</svg>
