<?xml version="1.0" encoding="utf-8"?>
<svg xmlns="http://www.w3.org/2000/svg" viewBox="0 0 1024 1024" width="24" height="24">
  <g transform="scale(1, -1) translate(0, -960)">
    <path d="M384 106.667h256v-85.333h-256zM721.323 374.955c43.947 51.456 89.344 104.661 89.344 201.045 0 164.651-134.016 298.667-298.667 298.667s-298.667-134.016-298.667-298.667c0-97.493 45.525-150.528 89.643-201.813 15.275-17.835 31.104-36.309 46.251-57.557 6.144-8.789 16.213-42.496 25.216-81.963h-33.792v-85.333h342.699v85.333h-33.707c9.088 39.552 19.2 73.344 25.301 82.133 15.019 21.461 30.976 40.107 46.379 58.155z" fill="currentColor" />
  </g>
</svg>
