<?xml version="1.0" encoding="utf-8"?>
<svg xmlns="http://www.w3.org/2000/svg" viewBox="0 0 1024 1024" width="24" height="24">
  <g transform="scale(1, -1) translate(0, -960)">
    <path d="M494.379 661.376h-165.76c-0.008 0-0.017 0-0.026 0-36.656 0-67.914-23.112-79.995-55.559l-0.192-0.59-160.427-441.259c-5.675-15.573-1.792-33.024 9.899-44.757l12.501-12.501 274.005 274.005c-0.043 1.109-0.341 2.219-0.341 3.328 0 35.346 28.654 64 64 64s64-28.654 64-64c0-35.346-28.654-64-64-64v0c-1.109 0-2.219 0.299-3.328 0.341l-274.005-274.005 12.501-12.501c7.702-7.721 18.352-12.497 30.117-12.497 5.255 0 10.287 0.953 14.933 2.695l-0.293-0.096 441.259 160.469c33.037 12.274 56.149 43.532 56.149 80.188 0 0.009 0 0.018 0 0.027v-0.001 165.76l85.291 85.248-230.997 230.997-85.291-85.291zM850.773 573.397l-213.333 213.333 90.453 90.496 213.333-213.333z" fill="currentColor" />
  </g>
</svg>
