<?xml version="1.0" encoding="utf-8"?>
<svg xmlns="http://www.w3.org/2000/svg" viewBox="0 0 1024 1024" width="24" height="24">
  <g transform="scale(1, -1) translate(0, -960)">
    <path d="M662.827 840.192c-15.455 15.406-36.781 24.932-60.331 24.932s-44.875-9.525-60.333-24.934l-422.355-422.355c-15.427-15.446-24.967-36.774-24.967-60.331s9.54-44.885 24.968-60.332l241.364-241.364c16.64-16.64 38.485-24.96 60.331-24.96s43.691 8.32 60.331 24.96l422.357 422.357c33.28 33.237 33.28 87.424 0 120.661l-241.365 241.365zM371.499 247.168c-7.72-7.72-18.385-12.495-30.165-12.495-23.561 0-42.66 19.1-42.66 42.66 0 11.78 4.775 22.445 12.495 30.165v0c7.72 7.72 18.385 12.495 30.165 12.495 23.561 0 42.66-19.1 42.66-42.66 0-11.78-4.775-22.445-12.495-30.165v0zM670.165 33.835l-60.331 60.331 256 256 60.331-60.373zM353.835 862.165l60.331-60.331-256-256-60.331 60.373z" fill="currentColor" />
  </g>
</svg>
