<?xml version="1.0" encoding="utf-8"?>
<svg xmlns="http://www.w3.org/2000/svg" viewBox="0 0 1024 1024" width="24" height="24">
  <g transform="scale(1, -1) translate(0, -960)">
    <path d="M810.667 746.667h-42.667v42.667c0 23.564-19.103 42.667-42.667 42.667v0h-512c-23.564 0-42.667-19.103-42.667-42.667v0-384c0-94.257 76.41-170.667 170.667-170.667v0h256c79.275 0 145.536 54.571 164.608 128h48.725c70.692 0 128 57.308 128 128v0 128c0 70.692-57.308 128-128 128v0zM853.333 490.667c0-23.564-19.103-42.667-42.667-42.667v0h-42.667v213.333h42.667c23.564 0 42.667-19.103 42.667-42.667v0-128zM768 149.333h-640c0-70.571 57.429-128 128-128h469.333c70.571 0 128 57.429 128 128h-85.333z" fill="currentColor" />
  </g>
</svg>
