<?xml version="1.0" encoding="utf-8"?>
<svg xmlns="http://www.w3.org/2000/svg" viewBox="0 0 1024 1024" width="24" height="24">
  <g transform="scale(1, -1) translate(0, -960)">
    <path d="M426.667 832h-256c-23.564 0-42.667-19.103-42.667-42.667v0-256c0-23.564 19.103-42.667 42.667-42.667v0h256c23.564 0 42.667 19.103 42.667 42.667v0 256c0 23.564-19.103 42.667-42.667 42.667v0zM853.333 832h-256c-23.564 0-42.667-19.103-42.667-42.667v0-256c0-23.564 19.103-42.667 42.667-42.667v0h256c23.564 0 42.667 19.103 42.667 42.667v0 256c0 23.564-19.103 42.667-42.667 42.667v0zM426.667 405.333h-256c-23.564 0-42.667-19.103-42.667-42.667v0-256c0-23.564 19.103-42.667 42.667-42.667v0h256c23.564 0 42.667 19.103 42.667 42.667v0 256c0 23.564-19.103 42.667-42.667 42.667v0zM768 362.667h-85.333v-85.333h-85.333v-85.333h85.333v-85.333h85.333v85.333h85.333v85.333h-85.333z" fill="currentColor" />
  </g>
</svg>
