<?xml version="1.0" encoding="utf-8"?>
<svg xmlns="http://www.w3.org/2000/svg" viewBox="0 0 1024 1024" width="24" height="24">
  <g transform="scale(1, -1) translate(0, -960)">
    <path d="M896 874.667h-640c-47.128 0-85.333-38.205-85.333-85.333v0-128h-85.333v-85.333h85.333v-85.333h-85.333v-85.333h85.333v-85.333h-85.333v-85.333h85.333v-128c0-47.128 38.205-85.333 85.333-85.333v0h640c23.564 0 42.667 19.103 42.667 42.667v0 768c0 23.564-19.103 42.667-42.667 42.667v0zM554.667 746.709c70.315 0 128-57.643 128-128-0.266-70.594-57.409-127.753-127.972-128.043h-0.028c-70.272 0-128 57.728-128 128.043 0 70.357 57.728 128 128 128zM810.667 192h-512v32c0 94.677 115.413 192 256 192s256-97.323 256-192v-32z" fill="currentColor" />
  </g>
</svg>
