<?xml version="1.0" encoding="utf-8"?>
<svg xmlns="http://www.w3.org/2000/svg" viewBox="0 0 1024 1024" width="24" height="24">
  <g transform="scale(1, -1) translate(0, -960)">
    <path d="M512 874.667c-235.264 0-426.667-191.403-426.667-426.667s191.403-426.667 426.667-426.667 426.667 191.403 426.667 426.667-191.403 426.667-426.667 426.667zM554.667 238.293v-46.293h-85.333v46.080c-99.797 15.659-128 85.419-128 124.587h85.333c0.469-6.101 6.784-42.667 85.333-42.667 58.88 0 85.333 24.96 85.333 42.667 0 13.824 0 42.667-85.333 42.667-148.48 0-170.667 80.213-170.667 128 0 54.955 43.904 110.251 128 124.373v45.781h85.333v-47.317c73.984-17.493 102.4-79.061 102.4-122.837h-42.667l-42.667-0.768c-0.597 16.213-9.173 43.435-59.733 43.435-55.424 0-85.333-22.016-85.333-42.667 0-15.957 0-42.667 85.333-42.667 148.48 0 170.667-80.213 170.667-128 0-54.955-43.904-110.251-128-124.373z" fill="currentColor" />
  </g>
</svg>
