<?xml version="1.0" encoding="utf-8"?>
<svg xmlns="http://www.w3.org/2000/svg" viewBox="0 0 1024 1024" width="24" height="24">
  <g transform="scale(1, -1) translate(0, -960)">
    <path d="M128 490.667v-341.333h2.176c10.453-72.192 72.107-128 147.157-128 50.091 0 88.491 17.792 114.005 50.091 30.831-30.953 73.49-50.106 120.621-50.106 47.427 0 90.325 19.394 121.195 50.685l0.019 0.019c25.643-32.512 64.171-50.688 113.493-50.688 82.347 0 149.333 66.987 149.333 149.333v320c0 211.712-172.245 384-384 384s-384-172.288-384-384zM384 448c-47.061 0-85.333 38.272-85.333 85.333s38.272 85.333 85.333 85.333 85.333-38.272 85.333-85.333-38.272-85.333-85.333-85.333zM640 618.667c47.061 0 85.333-38.272 85.333-85.333s-38.272-85.333-85.333-85.333-85.333 38.272-85.333 85.333 38.272 85.333 85.333 85.333z" fill="currentColor" />
  </g>
</svg>
