<?xml version="1.0" encoding="utf-8"?>
<svg xmlns="http://www.w3.org/2000/svg" viewBox="0 0 1024 1024" width="24" height="24">
  <g transform="scale(1, -1) translate(0, -960)">
    <path d="M256 21.333h554.667c47.128 0 85.333 38.205 85.333 85.333v0 682.667c0 47.128-38.205 85.333-85.333 85.333v0h-597.333c-47.128 0-85.333-38.205-85.333-85.333v0-682.667c0-47.128 38.205-85.333 85.333-85.333v0h42.667zM512 746.709c70.272 0 128-57.643 128-128 0-70.315-57.728-128.043-128-128.043s-128 57.728-128 128.043c0 70.357 57.728 128 128 128zM256 224c0 94.677 115.413 192 256 192s256-97.323 256-192v-32h-512v32z" fill="currentColor" />
  </g>
</svg>
