<?xml version="1.0" encoding="utf-8"?>
<svg xmlns="http://www.w3.org/2000/svg" viewBox="0 0 1024 1024" width="24" height="24">
  <g transform="scale(1, -1) translate(0, -960)">
    <path d="M810.667 789.333v-42.667h-85.333v85.333h-426.667v-85.333h-85.333v85.333h-85.333v-768h85.333v85.333h85.333v-85.333h426.667v85.333h85.333v-85.333h85.333v768h-85.333v-42.667zM213.333 661.333h85.333v-85.333h-85.333v85.333zM213.333 490.667h85.333v-85.333h-85.333v85.333zM213.333 234.667v85.333h85.333v-85.333h-85.333zM725.333 234.667v85.333h85.333v-85.333h-85.333zM810.667 405.333h-85.333v85.333h85.333v-85.333zM725.333 576v85.333h85.333v-85.333h-85.333z" fill="currentColor" />
  </g>
</svg>
