<?xml version="1.0" encoding="utf-8"?>
<svg xmlns="http://www.w3.org/2000/svg" viewBox="0 0 1024 1024" width="24" height="24">
  <g transform="scale(1, -1) translate(0, -960)">
    <path d="M717.355 771.456c-7.807 10.876-20.416 17.877-34.661 17.877-0.010 0-0.019 0-0.029 0h-554.665c-23.548-0.022-42.628-19.116-42.628-42.667 0-9.3 2.976-17.906 8.027-24.916l-0.087 0.126 195.584-273.877-195.627-273.877c-4.965-6.884-7.94-15.489-7.94-24.789 0-23.564 19.103-42.667 42.667-42.667 0.001 0 0.003 0 0.004 0h554.666c0.008 0 0.018 0 0.027 0 14.244 0 26.853 7.001 34.574 17.75l0.087 0.127 213.333 298.667c4.982 6.878 7.97 15.485 7.97 24.789s-2.987 17.911-8.055 24.913l0.086-0.124-213.333 298.667z" fill="currentColor" />
  </g>
</svg>
