<?xml version="1.0" encoding="utf-8"?>
<svg xmlns="http://www.w3.org/2000/svg" viewBox="0 0 1024 1024" width="24" height="24">
  <g transform="scale(1, -1) translate(0, -960)">
    <path d="M853.333 789.333h-682.667c-47.128 0-85.333-38.205-85.333-85.333v0-512c0-47.128 38.205-85.333 85.333-85.333v0h682.667c47.128 0 85.333 38.205 85.333 85.333v0 512c0 47.128-38.205 85.333-85.333 85.333v0zM273.664 289.835l-60.331 60.331 97.835 97.835-97.835 97.835 60.331 60.331 158.165-158.165-158.165-158.165zM810.667 277.333h-298.667v85.333h298.667v-85.333z" fill="currentColor" />
  </g>
</svg>
