<?xml version="1.0" encoding="utf-8"?>
<svg xmlns="http://www.w3.org/2000/svg" viewBox="0 0 1024 1024" width="24" height="24">
  <g transform="scale(1, -1) translate(0, -960)">
    <path d="M375.637 233.813l-34.304-6.827v-120.32h42.667c118.741 0 209.323 32.896 269.184 97.792 80.512 87.381 72.405 199.595 72.149 200.875v341.333c0 23.564-19.103 42.667-42.667 42.667v0h-298.667c-47.061 0-85.333-38.272-85.333-85.333v-298.667c0-23.564 19.103-42.667 42.667-42.667v0h173.995c-0.975-22.171-7.659-42.596-18.606-60.079l0.302 0.517c-21.632-34.176-62.464-57.472-121.387-69.291z" fill="currentColor" />
  </g>
</svg>
