<?xml version="1.0" encoding="utf-8"?>
<svg xmlns="http://www.w3.org/2000/svg" viewBox="0 0 1024 1024" width="24" height="24">
  <g transform="scale(1, -1) translate(0, -960)">
    <path d="M916.651 656l-384.939 213.333c-5.957 3.343-13.074 5.312-20.651 5.312s-14.694-1.969-20.867-5.423l0.216 0.111-383.061-211.627c-13.215-7.422-21.998-21.348-21.998-37.326 0-15.926 8.726-29.815 21.658-37.145l0.212-0.11 384.939-215.040c5.985-3.423 13.154-5.442 20.795-5.442 7.61 0 14.753 2.002 20.93 5.509l-0.21-0.11 383.061 213.333c13.177 7.432 21.93 21.338 21.93 37.288 0 15.985-8.79 29.916-21.8 37.225l-0.215 0.111zM512 283.477l-363.307 201.813-41.429-74.581 384-213.333c5.97-3.376 13.11-5.366 20.715-5.366s14.745 1.99 20.928 5.477l-0.213-0.111 384 213.333-41.429 74.581-363.264-201.813zM512 112.811l-363.307 201.813-41.429-74.581 384-213.333c5.97-3.376 13.11-5.366 20.715-5.366s14.745 1.99 20.928 5.477l-0.213-0.111 384 213.333-41.429 74.581-363.264-201.813z" fill="currentColor" />
  </g>
</svg>
