<?xml version="1.0" encoding="utf-8"?>
<svg xmlns="http://www.w3.org/2000/svg" viewBox="0 0 1024 1024" width="24" height="24">
  <g transform="scale(1, -1) translate(0, -960)">
    <path d="M256.512 192h639.488v597.333c0 47.061-38.272 85.333-85.333 85.333h-554.667c-51.456 0-128-34.091-128-128v-597.333c0-93.909 76.544-128 128-128h640v85.333h-639.488c-19.712 0.512-43.179 8.277-43.179 42.667 0 4.309 0.384 8.149 1.024 11.648 4.779 24.576 24.917 30.592 42.155 31.019zM368.981 633.941c17.128 16.916 40.677 27.364 66.667 27.364s49.539-10.448 66.676-27.374l-0.010 0.010 9.557-9.344 9.515 9.344c17.135 16.918 40.691 27.368 66.688 27.368s49.553-10.45 66.698-27.378l-0.010 0.010c17.192-16.552 27.87-39.765 27.87-65.472s-10.679-48.92-27.842-65.445l-0.029-0.027-142.848-140.331-142.891 140.331c-17.216 16.549-27.911 39.772-27.911 65.492 0 25.7 10.678 48.906 27.839 65.424l0.029 0.028z" fill="currentColor" />
  </g>
</svg>
