<?xml version="1.0" encoding="utf-8"?>
<svg xmlns="http://www.w3.org/2000/svg" viewBox="0 0 1024 1024" width="24" height="24">
  <g transform="scale(1, -1) translate(0, -960)">
    <path d="M341.333 445.781c85.12 0 149.333 64.213 149.333 149.333s-64.213 149.333-149.333 149.333-149.333-64.213-149.333-149.333 64.213-149.333 149.333-149.333zM384 405.333h-85.333c-117.632 0-213.333-95.701-213.333-213.333v-42.667h512v42.667c0 117.632-95.701 213.333-213.333 213.333zM865.835 606.165l-97.835-97.835-97.835 97.835-60.331-60.331 97.792-97.792-97.835-97.835 60.331-60.331 97.835 97.835 97.877-97.877 60.331 60.331-97.835 97.835 97.835 97.835z" fill="currentColor" />
  </g>
</svg>
