<?xml version="1.0" encoding="utf-8"?>
<svg xmlns="http://www.w3.org/2000/svg" viewBox="0 0 1024 1024" width="24" height="24">
  <g transform="scale(1, -1) translate(0, -960)">
    <path d="M512 874.667c-235.264 0-426.667-191.403-426.667-426.667s191.403-426.667 426.667-426.667 426.667 191.403 426.667 426.667-191.403 426.667-426.667 426.667zM274.56 598.741c11.563 11.883 27.71 19.255 45.579 19.255 16.42 0 31.386-6.225 42.667-16.444l-0.054 0.048c11.32 10.561 26.563 17.045 43.321 17.045 17.472 0 33.298-7.048 44.789-18.457l-0.004 0.004c25.472-25.259 25.771-64.896 0.768-90.368l-87.467-88.875-88.832 87.467c-11.924 11.529-19.326 27.67-19.326 45.54 0 17.491 7.092 33.326 18.558 44.785v0zM512 192c-170.667 0-213.333 170.667-213.333 170.667h426.667s-42.667-170.667-213.333-170.667zM750.293 509.824l-87.467-88.875-88.832 87.467c-11.926 11.536-19.33 27.684-19.33 45.561 0 17.477 7.076 33.302 18.52 44.765l-0.001-0.001c11.565 11.895 27.72 19.275 45.599 19.275 16.431 0 31.406-6.233 42.689-16.464l-0.053 0.048c11.32 10.561 26.563 17.045 43.321 17.045 17.472 0 33.298-7.048 44.789-18.457l-0.004 0.004c25.472-25.216 25.813-64.896 0.768-90.368z" fill="currentColor" />
  </g>
</svg>
