<?xml version="1.0" encoding="utf-8"?>
<svg xmlns="http://www.w3.org/2000/svg" viewBox="0 0 1024 1024" width="24" height="24">
  <g transform="scale(1, -1) translate(0, -960)">
    <path d="M597.333 874.667h-341.333c-47.128 0-85.333-38.205-85.333-85.333v0-682.667c0-47.128 38.205-85.333 85.333-85.333v0h512c47.128 0 85.333 38.205 85.333 85.333v0 512l-256 256zM483.541 201.728c-17.129-5.868-36.876-9.403-57.402-9.726l-0.155-0.002c-31.445 0-54.229 7.936-70.144 23.296-15.829 14.848-24.533 37.333-24.277 62.677 0.256 57.344 41.941 90.069 98.517 90.069 22.229 0 39.424-4.395 47.829-8.448l-8.149-31.189c-9.472 4.096-21.248 7.424-40.149 7.424-32.512 0-57.088-18.432-57.088-55.808 0-35.541 22.272-56.533 54.229-56.533 8.96 0 16.128 1.024 19.2 2.603v36.096h-26.624v30.421h64.213v-90.88zM553.259 193.792h-39.168v172.459h39.168v-172.459zM692.437 334.251h-66.261v-39.381h61.909v-31.744h-61.909v-69.333h-39.168v172.459h105.429v-32zM597.333 576h-42.667v213.333l213.333-213.333h-170.667z" fill="currentColor" />
  </g>
</svg>
