<?xml version="1.0" encoding="utf-8"?>
<svg xmlns="http://www.w3.org/2000/svg" viewBox="0 0 1024 1024" width="24" height="24">
  <g transform="scale(1, -1) translate(0, -960)">
    <path d="M512 874.667c-235.264 0-426.667-191.403-426.667-426.667s191.403-426.667 426.667-426.667 426.667 191.403 426.667 426.667-191.403 426.667-426.667 426.667zM341.333 576c93.909 0 128-76.544 128-128h-85.333c-0.512 19.2-8.277 42.667-42.667 42.667s-42.155-23.467-42.667-43.179l-85.333 0.512c0 51.456 34.091 128 128 128zM512 192c-170.667 0-213.333 170.667-213.333 170.667h426.667s-42.667-170.667-213.333-170.667zM725.333 448c-0.512 19.2-8.277 42.667-42.667 42.667s-42.155-23.467-42.667-43.179l-85.333 0.512c0 51.456 34.091 128 128 128s128-76.544 128-128h-85.333z" fill="currentColor" />
  </g>
</svg>
