<?xml version="1.0" encoding="utf-8"?>
<svg xmlns="http://www.w3.org/2000/svg" viewBox="0 0 1024 1024" width="24" height="24">
  <g transform="scale(1, -1) translate(0, -960)">
    <path d="M896 106.667v597.333c0 47.061-38.272 85.333-85.333 85.333h-85.333v85.333h-85.333v-85.333h-256v85.333h-85.333v-85.333h-85.333c-47.061 0-85.333-38.272-85.333-85.333v-597.333c0-47.061 38.272-85.333 85.333-85.333h597.333c47.061 0 85.333 38.272 85.333 85.333zM384 192h-85.333v85.333h85.333v-85.333zM384 362.667h-85.333v85.333h85.333v-85.333zM554.667 192h-85.333v85.333h85.333v-85.333zM554.667 362.667h-85.333v85.333h85.333v-85.333zM725.333 192h-85.333v85.333h85.333v-85.333zM725.333 362.667h-85.333v85.333h85.333v-85.333zM810.667 576h-597.333v85.333h597.333v-85.333z" fill="currentColor" />
  </g>
</svg>
