<?xml version="1.0" encoding="utf-8"?>
<svg xmlns="http://www.w3.org/2000/svg" viewBox="0 0 1024 1024" width="24" height="24">
  <g transform="scale(1, -1) translate(0, -960)">
    <path d="M170.667 287.573l-42.667-170.667c-0.956-3.369-1.506-7.238-1.506-11.235 0-20.318 14.202-37.319 33.22-41.617l0.285-0.054c3.138-0.826 6.74-1.3 10.453-1.3s7.316 0.474 10.75 1.366l-0.297-0.065 170.667 42.667c7.879 1.914 14.67 5.796 20.059 11.099l-0.006-0.005 353.707 355.413 55.040-55.467 60.587 60.587-55.467 55.040 110.507 110.507c15.335 15.424 24.814 36.685 24.814 60.16s-9.479 44.736-24.818 60.164l-67.836 67.836c-15.424 15.335-36.685 24.814-60.16 24.814s-44.736-9.479-60.164-24.818l-110.503-110.503-55.467 55.467-60.587-60.587 55.467-55.040-353.707-353.707c-5.782-5.274-10.091-12.068-12.299-19.752l-0.074-0.301zM250.453 255.573l346.88 345.173 67.413-67.413-345.173-345.6-90.453-22.613z" fill="currentColor" />
  </g>
</svg>
