<?xml version="1.0" encoding="utf-8"?>
<svg xmlns="http://www.w3.org/2000/svg" viewBox="0 0 1024 1024" width="24" height="24">
  <g transform="scale(1, -1) translate(0, -960)">
    <path d="M512 874.667c-235.264 0-426.667-191.403-426.667-426.667s191.403-426.667 426.667-426.667 426.667 191.403 426.667 426.667-191.403 426.667-426.667 426.667zM661.035 618.667c0.485 0.013 1.055 0.021 1.628 0.021 35.205 0 63.744-28.539 63.744-63.744s-28.539-63.744-63.744-63.744c-0.587 0-1.173 0.008-1.756 0.024l0.086-0.002c-34.479 0.932-62.074 29.105-62.074 63.722 0 34.633 27.619 62.814 62.032 63.721l0.084 0.002zM362.667 618.667c35.349-0.012 64-28.671 64-64.021 0-35.358-28.663-64.021-64.021-64.021-0.008 0-0.015 0-0.023 0h0.001c-35.349 0.012-64 28.671-64 64.021 0 35.358 28.663 64.021 64.021 64.021 0.008 0 0.015 0 0.023 0h-0.001zM512 192c-213.333 0-256 213.333-256 213.333h512s-42.667-213.333-256-213.333z" fill="currentColor" />
  </g>
</svg>
