<?xml version="1.0" encoding="utf-8"?>
<svg xmlns="http://www.w3.org/2000/svg" viewBox="0 0 1024 1024" width="24" height="24">
  <g transform="scale(1, -1) translate(0, -960)">
    <path d="M896 661.333h-256c-23.564 0-42.667-19.103-42.667-42.667v0-128h-85.333v298.667c0 23.564-19.103 42.667-42.667 42.667v0h-341.333c-23.564 0-42.667-19.103-42.667-42.667v0-682.667c0-23.564 19.103-42.667 42.667-42.667v0h768c23.564 0 42.667 19.103 42.667 42.667v0 512c0 23.564-19.103 42.667-42.667 42.667v0zM341.333 704h85.333v-85.333h-85.333v85.333zM256 277.333h-85.333v85.333h85.333v-85.333zM256 448h-85.333v85.333h85.333v-85.333zM256 618.667h-85.333v85.333h85.333v-85.333zM426.667 277.333h-85.333v85.333h85.333v-85.333zM426.667 448h-85.333v85.333h85.333v-85.333zM810.667 277.333h-85.333v85.333h85.333v-85.333zM810.667 448h-85.333v85.333h85.333v-85.333z" fill="currentColor" />
  </g>
</svg>
