<?xml version="1.0" encoding="utf-8"?>
<svg xmlns="http://www.w3.org/2000/svg" viewBox="0 0 1024 1024" width="24" height="24">
  <g transform="scale(1, -1) translate(0, -960)">
    <path d="M512 874.667c-235.264 0-426.667-191.403-426.667-426.667s191.403-426.667 426.667-426.667 426.667 191.403 426.667 426.667-191.403 426.667-426.667 426.667zM277.333 448c-35.349 0.012-64 28.671-64 64.021 0 35.358 28.663 64.021 64.021 64.021 0.008 0 0.015 0 0.023 0h-0.001c35.349-0.012 64-28.671 64-64.021 0-35.358-28.663-64.021-64.021-64.021-0.008 0-0.015 0-0.023 0h0.001zM384 682.667c0.012 35.349 28.671 64 64.021 64 35.358 0 64.021-28.663 64.021-64.021 0-0.008 0-0.015 0-0.023v0.001c-0.012-35.349-28.671-64-64.021-64-35.358 0-64.021 28.663-64.021 64.021 0 0.008 0 0.015 0 0.023v-0.001zM490.667 405.333c-35.349 0.012-64 28.671-64 64.021 0 35.358 28.663 64.021 64.021 64.021 0.008 0 0.015 0 0.023 0h-0.001c35.349-0.012 64-28.671 64-64.021 0-35.358-28.663-64.021-64.021-64.021-0.008 0-0.015 0-0.023 0h0.001z" fill="currentColor" />
  </g>
</svg>
