<?xml version="1.0" encoding="utf-8"?>
<svg xmlns="http://www.w3.org/2000/svg" viewBox="0 0 1024 1024" width="24" height="24">
  <g transform="scale(1, -1) translate(0, -960)">
    <path d="M597.333 874.667h-341.333c-47.128 0-85.333-38.205-85.333-85.333v0-682.667c0-47.128 38.205-85.333 85.333-85.333v0h512c47.128 0 85.333 38.205 85.333 85.333v0 512l-256 256zM426.581 329.899h-47.061v-139.691h-39.125v139.691h-46.293v32.768h132.48v-32.768zM542.848 190.208l-15.573 31.189c-6.4 12.032-10.496 20.992-15.317 30.976h-0.555c-3.541-9.941-7.893-18.901-13.312-30.976l-14.293-31.189h-44.587l49.963 87.253-48.171 85.205h44.8l15.104-31.488c5.163-10.453 8.96-18.901 13.056-28.629h0.555c4.096 11.008 7.424 18.688 11.776 28.629l14.549 31.488h44.501l-48.597-84.181 51.115-88.277h-45.013zM729.899 329.899h-47.104v-139.691h-39.125v139.691h-46.293v32.768h132.48v-32.768zM597.333 576h-42.667v213.333l213.333-213.333h-170.667z" fill="currentColor" />
  </g>
</svg>
