<?xml version="1.0" encoding="utf-8"?>
<svg xmlns="http://www.w3.org/2000/svg" viewBox="0 0 1024 1024" width="24" height="24">
  <g transform="scale(1, -1) translate(0, -960)">
    <path d="M157.483 691.541c59.861 64.896 150.443 97.792 269.184 97.792h42.667v-120.277l-34.304-6.869c-58.453-11.691-99.115-34.688-120.875-68.437-10.89-17.186-17.72-37.912-18.679-60.16l-0.009-0.256h131.2c23.564 0 42.667-19.103 42.667-42.667v0-298.667c0-47.061-38.272-85.333-85.333-85.333h-256c-23.564 0-42.667 19.103-42.667 42.667v0 213.333l0.128 124.544c-0.384 4.736-8.491 116.949 72.021 204.331zM853.333 106.667h-256c-23.564 0-42.667 19.103-42.667 42.667v0 213.333l0.128 124.544c-0.384 4.736-8.491 116.949 72.021 204.331 59.861 64.896 150.443 97.792 269.184 97.792h42.667v-120.277l-34.304-6.869c-58.453-11.691-99.115-34.688-120.875-68.437-10.89-17.186-17.72-37.912-18.679-60.16l-0.009-0.256h131.2c23.564 0 42.667-19.103 42.667-42.667v0-298.667c0-47.061-38.272-85.333-85.333-85.333z" fill="currentColor" />
  </g>
</svg>
