<?xml version="1.0" encoding="utf-8"?>
<svg xmlns="http://www.w3.org/2000/svg" viewBox="0 0 1024 1024" width="24" height="24">
  <g transform="scale(1, -1) translate(0, -960)">
    <path d="M896 704h-85.333l-54.187 54.187c-18.919 18.938-44.949 30.769-73.742 31.146l-0.072 0.001h-106.667c-12.419 48.562-55.226 84.098-106.531 85.331l-0.136 0.003v-271.36c2.354-44.942 20.244-85.303 48.35-116.205l-0.136 0.152c46.062-44.332 107.4-73.082 175.366-77.608l0.848-0.045 147.2 58.88c34.925 14.283 61.635 42.526 73.547 77.605l0.266 0.902 23.893 65.28c0.309 1.987 0.486 4.28 0.486 6.613s-0.177 4.626-0.518 6.864l0.031-0.251v35.84c0 23.564-19.103 42.667-42.667 42.667v0zM682.667 618.667c-23.564 0-42.667 19.103-42.667 42.667s19.103 42.667 42.667 42.667c23.564 0 42.667-19.103 42.667-42.667v0c0-23.564-19.103-42.667-42.667-42.667v0zM485.547 459.093c-28.779 31.435-48.747 71.379-55.729 115.64l-0.165 1.266h-173.653c-1.584-0.111-3.432-0.175-5.295-0.175-44.301 0-80.213 35.913-80.213 80.213 0 1.863 0.064 3.711 0.188 5.543l-0.014-0.248c0 23.564-19.103 42.667-42.667 42.667s-42.667-19.103-42.667-42.667v0c0.465-31.151 7.976-60.44 21.004-86.49l-0.524 1.157c14.676-28.054 36.919-50.434 64.030-64.88l0.823-0.4v-489.387h128v213.333h256v-213.333h128v346.88c-77.447 6.274-146.050 39.811-197.12 90.88v0z" fill="currentColor" />
  </g>
</svg>
