<?xml version="1.0" encoding="utf-8"?>
<svg xmlns="http://www.w3.org/2000/svg" viewBox="0 0 1024 1024" width="24" height="24">
  <g transform="scale(1, -1) translate(0, -960)">
    <path d="M170.667 64h682.667c23.564 0 42.667 19.103 42.667 42.667v0 682.667c0 23.564-19.103 42.667-42.667 42.667v0h-682.667c-23.564 0-42.667-19.103-42.667-42.667v0-682.667c0-23.564 19.103-42.667 42.667-42.667v0zM333.312 579.968c21.251 21.504 50.745 34.822 83.349 34.822s62.098-13.318 83.338-34.811l11.915-11.915 11.861 11.904c21.251 21.504 50.745 34.822 83.349 34.822s62.098-13.318 83.338-34.811l0.011-0.011c21.515-21.246 34.84-50.742 34.84-83.349s-13.326-62.103-34.828-83.338l-178.572-178.615-178.645 178.603c-21.481 21.254-34.783 50.738-34.783 83.328 0 32.612 13.319 62.112 34.814 83.359l0.011 0.011z" fill="currentColor" />
  </g>
</svg>
