<?xml version="1.0" encoding="utf-8"?>
<svg xmlns="http://www.w3.org/2000/svg" viewBox="0 0 1024 1024" width="24" height="24">
  <g transform="scale(1, -1) translate(0, -960)">
    <path d="M863.957 745.6l-336.939 126.379-29.995-79.915 120.96-45.397h-447.317c-47.128 0-85.333-38.205-85.333-85.333v0-512c0-47.128 38.205-85.333 85.333-85.333v0h682.667c47.128 0 85.333 38.205 85.333 85.333v0 512c0 43.52-32.683 78.976-74.709 84.267zM426.667 234.667h-170.667v85.333h170.667v-85.333zM704 192c-58.91 0-106.667 47.756-106.667 106.667s47.756 106.667 106.667 106.667v0c58.91 0 106.667-47.756 106.667-106.667s-47.756-106.667-106.667-106.667v0zM853.333 490.667h-682.667v170.667h682.667v-170.667z" fill="currentColor" />
  </g>
</svg>
