<?xml version="1.0" encoding="utf-8"?>
<svg xmlns="http://www.w3.org/2000/svg" viewBox="0 0 1024 1024" width="24" height="24">
  <g transform="scale(1, -1) translate(0, -960)">
    <path d="M549.717 851.968c-14.763 27.904-60.672 27.904-75.435 0l-384-725.333c-3.142-5.795-4.989-12.687-4.989-20.011 0-23.541 19.083-42.624 42.624-42.624 0.029 0 0.058 0 0.087 0h767.995c0.026 0 0.057 0 0.088 0 23.517 0 42.581 19.064 42.581 42.581 0 7.324-1.849 14.217-5.106 20.236l0.111-0.225-383.957 725.376zM554.667 192h-85.333v85.333h85.333v-85.333zM469.333 362.667v213.333h85.333l0.043-213.333h-85.376z" fill="currentColor" />
  </g>
</svg>
