<?xml version="1.0" encoding="utf-8"?>
<svg xmlns="http://www.w3.org/2000/svg" viewBox="0 0 1024 1024" width="24" height="24">
  <g transform="scale(1, -1) translate(0, -960)">
    <path d="M213.333 576.043c0.106-98.666 48.108-186.099 122.004-240.313l0.833-0.583 0.043-0.043c23.037-17.061 49.613-31.214 78.168-41.139l2.088-0.632 2.176-0.811c14.043-4.788 30.787-8.824 48.016-11.368l1.606-0.195c13.061-2.199 28.178-3.513 43.58-3.626l0.11-0.001h0.043c14.933 0 29.44 1.451 43.819 3.584l7.765 1.195c14.336 2.517 28.331 5.931 41.856 10.368l1.792 0.683c118.101 39.936 203.435 151.509 203.435 282.88 0 164.651-133.973 298.624-298.667 298.624s-298.667-133.973-298.667-298.624zM512 789.333c117.589 0 213.333-95.659 213.333-213.291h-85.333c-0.097 70.645-57.352 127.885-127.993 127.957h-0.007v85.333zM320.896 243.413v-222.080l191.104 64 191.104-64 0.043 222.080c-54.798-32.306-120.733-51.391-191.125-51.391s-136.327 19.085-192.913 52.363l1.787-0.972z" fill="currentColor" />
  </g>
</svg>
