<?xml version="1.0" encoding="utf-8"?>
<svg xmlns="http://www.w3.org/2000/svg" viewBox="0 0 1024 1024" width="24" height="24">
  <g transform="scale(1, -1) translate(0, -960)">
    <path d="M810.667 661.333h-42.667v213.333h-512v-213.333h-42.667c-70.692 0-128-57.308-128-128v0-298.667c0-47.128 38.205-85.333 85.333-85.333v0h85.333v-128h512v128h85.333c47.128 0 85.333 38.205 85.333 85.333v0 298.667c0 70.692-57.308 128-128 128v0zM341.333 789.333h341.333v-128h-341.333v128zM341.333 106.667v170.667h341.333v-170.667h-341.333zM810.667 448h-170.667v85.333h170.667v-85.333z" fill="currentColor" />
  </g>
</svg>
