<?xml version="1.0" encoding="utf-8"?>
<svg xmlns="http://www.w3.org/2000/svg" viewBox="0 0 1024 1024" width="24" height="24">
  <g transform="scale(1, -1) translate(0, -960)">
    <path d="M112.384 195.499c6.213-26.34 25.626-47.026 50.709-54.938l0.533-0.145 7.68-33.749h-0.64v-85.333h682.667v85.333h-568.192c0.227 1.515 0.356 3.263 0.356 5.041 0 2.413-0.238 4.77-0.693 7.049l0.038-0.228-8.363 36.821 441.899 100.523 8.363-36.821c3.966-16.959 18.959-29.397 36.856-29.397 2.968 0 5.855 0.342 8.626 0.989l-0.256-0.050 36.821 8.405c16.961 3.946 29.405 18.932 29.405 36.824 0 2.979-0.345 5.878-0.997 8.658l0.051-0.256-10.709 47.061c19.029 17.749 28.587 44.629 22.4 71.808l-25.173 110.507c-6.401 27.224-26.969 48.43-53.319 55.642l-0.527 0.123-87.424 144.128c-21.135 34.294-58.486 56.81-101.096 56.81-9.266 0-18.283-1.065-26.935-3.078l0.799 0.157-335.701-76.373c-49.29-11.448-86.316-52.602-91.436-103.182l-0.041-0.498-16.512-167.765c-16.066-13.853-26.174-34.232-26.174-56.973 0-5.879 0.676-11.601 1.954-17.091l-0.099 0.507 25.131-110.507zM241.237 224.853c-3.782-0.9-8.124-1.416-12.587-1.416-31.286 0-56.648 25.362-56.648 56.648 0 26.823 18.643 49.292 43.678 55.156l0.383 0.076c3.782 0.9 8.124 1.416 12.587 1.416 31.286 0 56.648-25.362 56.648-56.648 0-26.823-18.643-49.292-43.678-55.156l-0.383-0.076zM720.043 333.739c-4.503-1.287-9.674-2.027-15.018-2.027-31.293 0-56.661 25.368-56.661 56.661 0 27.703 19.882 50.763 46.155 55.689l0.351 0.055c3.053 0.584 6.565 0.917 10.155 0.917 31.293 0 56.661-25.368 56.661-56.661 0-25.949-17.443-47.824-41.244-54.539l-0.399-0.096zM238.464 567.808l335.744 76.416c2.184 0.515 4.692 0.811 7.269 0.811 11.856 0 22.25-6.255 28.063-15.646l0.081-0.141 67.627-111.488-477.013-108.587 12.757 129.792c1.461 14.206 11.762 25.646 25.249 28.799l0.223 0.044zM785.28 789.333l-59.947 85.333-21.333-128 106.667-170.667 128-42.667-85.333 108.331 85.333 39.808-85.333 39.808 85.333 153.387z" fill="currentColor" />
  </g>
</svg>
