<?xml version="1.0" encoding="utf-8"?>
<svg xmlns="http://www.w3.org/2000/svg" viewBox="0 0 1024 1024" width="24" height="24">
  <g transform="scale(1, -1) translate(0, -960)">
    <path d="M214.4 73.6c-0.709-2.91-1.116-6.25-1.116-9.686 0-23.517 19.064-42.581 42.581-42.581 0.047 0 0.095 0 0.142 0h-0.007c0.003 0 0.006 0 0.010 0 8.822 0 17.019 2.678 23.822 7.264l-0.152-0.096 232.32 154.88 232.32-154.88c6.643-4.466 14.822-7.128 23.624-7.128 23.588 0 42.709 19.122 42.709 42.709 0 4.133-0.587 8.13-1.683 11.91l0.075-0.302-78.037 273.067 193.536 174.165c8.683 7.841 14.117 19.14 14.117 31.707 0 22.376-17.224 40.728-39.137 42.523l-0.153 0.010-243.243 19.371-105.259 233.003c-6.813 14.984-21.651 25.215-38.879 25.215-17.211 0-32.037-10.211-38.751-24.906l-0.109-0.266-105.259-233.045-243.243-19.328c-22.069-1.801-39.297-20.155-39.297-42.533 0-11.975 4.933-22.797 12.878-30.546l0.009-0.009 179.797-175.232-63.616-275.285zM512 728.363l87.125-192.896 194.603-15.445-159.36-143.445 7.296-25.472v-0.128l53.461-187.093-183.125 122.069v442.411z" fill="currentColor" />
  </g>
</svg>
