<?xml version="1.0" encoding="utf-8"?>
<svg xmlns="http://www.w3.org/2000/svg" viewBox="0 0 1024 1024" width="24" height="24">
  <g transform="scale(1, -1) translate(0, -960)">
    <path d="M932.565 597.973l-128 213.333c-7.564 12.481-21.074 20.693-36.501 20.693-0.023 0-0.045 0-0.068 0h-195.665l-30.165 30.165c-7.716 7.729-18.382 12.51-30.165 12.51s-22.449-4.781-30.165-12.509l-30.166-30.166h-195.669c-0.019 0-0.042 0-0.064 0-15.427 0-28.937-8.213-36.394-20.504l-0.107-0.189-128-213.333c-3.78-6.245-6.016-13.789-6.016-21.856 0-0.041 0-0.082 0-0.123v0.006h-0.085v-426.667c0-23.564 19.103-42.667 42.667-42.667v0h768c23.564 0 42.667 19.103 42.667 42.667v0 426.667h-0.085c0 7.595-1.963 15.189-6.016 21.973zM853.333 192h-256v170.667h-170.667v-170.667h-256v341.333h102.997l238.336 238.336 238.336-238.336h102.997v-341.333zM597.333 537.813c0-49.603-40.211-89.813-89.813-89.813s-89.813 40.211-89.813 89.813c0 49.603 40.211 89.813 89.813 89.813s89.813-40.211 89.813-89.813zM256 448h85.333v-128h-85.333zM682.667 448h85.333v-128h-85.333z" fill="currentColor" />
  </g>
</svg>
