<?xml version="1.0" encoding="utf-8"?>
<svg xmlns="http://www.w3.org/2000/svg" viewBox="0 0 1024 1024" width="24" height="24">
  <g transform="scale(1, -1) translate(0, -960)">
    <path d="M853.333 552.277v279.723h-85.333v-85.333h-512v85.333h-85.333v-279.765c-50.773-29.568-85.333-84.011-85.333-146.901v-170.667c0-23.564 19.103-42.667 42.667-42.667v0h42.667v-170.667h85.333v170.667h512v-170.667h85.333v170.667h42.667c23.564 0 42.667 19.103 42.667 42.667v0 170.667c0 62.891-34.603 117.333-85.333 146.944zM469.333 576h-213.333v85.333h213.333v-85.333zM768 576h-213.333v85.333h213.333v-85.333z" fill="currentColor" />
  </g>
</svg>
