<?xml version="1.0" encoding="utf-8"?>
<svg xmlns="http://www.w3.org/2000/svg" viewBox="0 0 1024 1024" width="24" height="24">
  <g transform="scale(1, -1) translate(0, -960)">
    <path d="M938.624 618.667c0 0.007 0 0.014 0 0.022 0 8.11-2.269 15.689-6.207 22.138l0.106-0.187-115.584 192.64c-15.245 24.903-42.263 41.291-73.117 41.387h-463.715c-29.781 0-57.813-15.872-73.131-41.429l-115.584-192.597c-3.832-6.262-6.101-13.842-6.101-21.951 0-0.008 0-0.016 0-0.023v0.001c0-42.88 16.469-81.664 42.667-111.701v-400.299c0-23.564 19.103-42.667 42.667-42.667v0h341.333c23.564 0 42.667 19.103 42.667 42.667v0 213.333h170.667v-213.333c0-23.564 19.103-42.667 42.667-42.667v0h85.333c23.564 0 42.667 19.103 42.667 42.667v0 400.299c26.197 30.037 42.667 68.821 42.667 111.701zM852.608 607.957c-5.54-42.274-41.316-74.58-84.646-74.624h-0.005c-47.061 0-85.333 38.272-85.333 85.333 0 2.901-1.067 5.461-1.664 8.192l0.853 0.171-32.469 162.304h94.464l108.8-181.376zM426.923 615.893l34.645 173.44h100.736l34.688-173.44c-1.493-45.781-38.955-82.56-85.035-82.56s-83.541 36.779-85.035 82.56zM280.107 789.333h94.464l-32.427-162.304 0.853-0.171c-0.64-2.731-1.707-5.291-1.707-8.192 0-47.061-38.272-85.333-85.333-85.333-43.335 0.044-79.111 32.35-84.604 74.192l-0.046 0.432 108.8 181.376zM426.624 277.333h-170.667v128h170.667v-128z" fill="currentColor" />
  </g>
</svg>
