<?xml version="1.0" encoding="utf-8"?>
<svg xmlns="http://www.w3.org/2000/svg" viewBox="0 0 1024 1024" width="24" height="24">
  <g transform="scale(1, -1) translate(0, -960)">
    <path d="M512 874.667c-231.296 0-426.667-195.413-426.667-426.667s195.371-426.667 426.667-426.667 426.667 195.413 426.667 426.667-195.371 426.667-426.667 426.667zM512 320c42.325 0 78.933 11.307 97.835 30.208l60.331-60.373c-48.043-48-119.723-55.168-158.165-55.168-117.632 0-213.333 95.701-213.333 213.333s95.701 213.333 213.333 213.333c38.443 0 110.165-7.168 158.165-55.168l-60.331-60.331c-18.859 18.901-55.467 30.165-97.835 30.165-69.376 0-128-58.624-128-128s58.624-128 128-128z" fill="currentColor" />
  </g>
</svg>
