<?xml version="1.0" encoding="utf-8"?>
<svg xmlns="http://www.w3.org/2000/svg" viewBox="0 0 1024 1024" width="24" height="24">
  <g transform="scale(1, -1) translate(0, -960)">
    <path d="M512 874.667c-235.264 0-426.667-191.403-426.667-426.667s191.403-426.667 426.667-426.667 426.667 191.403 426.667 426.667-191.403 426.667-426.667 426.667zM298.667 512l0.085 0.939-58.581 23.424 31.659 79.232 213.333-85.333-31.659-79.232-43.989 17.621c-0.597-0.597-0.981-1.323-1.579-1.877-11.583-11.626-27.607-18.82-45.312-18.82-35.323 0-63.957 28.635-63.957 63.957 0 0.032 0 0.063 0 0.095v-0.005zM341.333 234.667s42.667 128 170.667 128 170.667-128 170.667-128h-341.333zM724.736 512.299c0-17.579-7.125-33.493-18.688-45.056-11.505-11.587-27.443-18.759-45.056-18.759s-33.551 7.172-45.052 18.755l-0.004 0.004c-0.469 0.469-0.811 1.024-1.237 1.493l-44.245-17.707-31.659 79.232 213.333 85.333 31.659-79.232-59.136-23.637c0.046-0.126 0.077-0.271 0.085-0.423v-0.004z" fill="currentColor" />
  </g>
</svg>
