<?xml version="1.0" encoding="utf-8"?>
<svg xmlns="http://www.w3.org/2000/svg" viewBox="0 0 1024 1024" width="24" height="24">
  <g transform="scale(1, -1) translate(0, -960)">
    <path d="M915.2 587.093v0c-2.6 8.264-4.097 17.767-4.097 27.62 0 17.13 4.527 33.203 12.45 47.087l-0.246-0.468c9.742 19.323 15.446 42.116 15.446 66.242 0 13.925-1.901 27.406-5.456 40.198l0.25-1.053c-14.673 50.723-53.811 89.86-103.464 104.267l-1.070 0.266c-10.741 2.754-23.072 4.335-35.771 4.335-24.781 0-48.156-6.019-68.744-16.675l0.835 0.393c-13.272-7.472-29.135-11.873-46.027-11.873-9.445 0-18.568 1.376-27.18 3.939l0.673-0.172c-41.53 14.71-89.425 23.211-139.307 23.211s-97.777-8.5-142.317-24.131l3.011 0.92c-125.301-42.5-222.337-138.836-264.915-260.726l-0.898-2.954c-14.71-41.53-23.211-89.425-23.211-139.307s8.5-97.777 24.131-142.317l-0.92 3.011c2.695-8.408 4.248-18.079 4.248-28.114 0-16.931-4.422-32.83-12.175-46.603l0.247 0.477c-9.742-19.323-15.446-42.116-15.446-66.242 0-13.925 1.901-27.406 5.456-40.198l-0.25 1.053c14.673-50.723 53.811-89.86 103.464-104.267l1.070-0.266c10.741-2.754 23.072-4.335 35.771-4.335 24.781 0 48.156 6.019 68.744 16.675l-0.835-0.393c13.272 7.472 29.135 11.873 46.027 11.873 9.445 0 18.568-1.376 27.18-3.939l-0.673 0.172c41.214-14.874 88.775-23.474 138.345-23.474 0.863 0 1.725 0.003 2.587 0.008l-0.133-0.001c49.965 0.131 97.92 8.556 142.618 23.969l-3.098-0.929c124.686 43.024 221.082 139.42 263.216 261.148l0.891 2.958c14.576 41.352 22.998 89.035 22.998 138.684 0 50.113-8.579 98.222-24.349 142.938l0.925-3.009zM512 661.333c-117.821 0-213.333-95.513-213.333-213.333v0h-85.333c0 164.949 133.718 298.667 298.667 298.667v0z" fill="currentColor" />
  </g>
</svg>
