<?xml version="1.0" encoding="utf-8"?>
<svg xmlns="http://www.w3.org/2000/svg" viewBox="0 0 1024 1024" width="24" height="24">
  <g transform="scale(1, -1) translate(0, -960)">
    <path d="M896 704h-85.333v128h-85.333v-128h-426.667v128h-85.333v-128h-85.333c-23.564 0-42.667-19.103-42.667-42.667v0-298.667c0-23.564 19.103-42.667 42.667-42.667v0h85.333v-256h85.333v256h426.667v-256h85.333v256h85.333c23.564 0 42.667 19.103 42.667 42.667v0 298.667c0 23.564-19.103 42.667-42.667 42.667v0zM188.587 405.333l121.899 213.333h98.261l-121.899-213.333h-98.261zM523.819 618.667h98.261l-121.899-213.333h-98.261l121.899 213.333zM737.152 618.667h98.261l-121.899-213.333h-98.261l121.899 213.333z" fill="currentColor" />
  </g>
</svg>
