<?xml version="1.0" encoding="utf-8"?>
<svg xmlns="http://www.w3.org/2000/svg" viewBox="0 0 1024 1024" width="24" height="24">
  <g transform="scale(1, -1) translate(0, -960)">
    <path d="M85.333 618.667v-170.709h42.667v-255.957h-42.667v-128h853.333v128h-42.667v255.957h42.667v170.709l-426.667 256-426.667-256zM256 192v255.957h85.333v-255.957h-85.333zM469.333 192v255.957h85.333v-255.957h-85.333zM768 192h-85.333v255.957h85.333v-255.957zM597.333 618.667c-0.012-47.131-38.222-85.333-85.355-85.333-47.14 0-85.355 38.215-85.355 85.355 0 0.007 0 0.015 0 0.022v-0.001c0.012 47.131 38.222 85.333 85.355 85.333 47.14 0 85.355-38.215 85.355-85.355 0-0.007 0-0.015 0-0.022v0.001z" fill="currentColor" />
  </g>
</svg>
