<?xml version="1.0" encoding="utf-8"?>
<svg xmlns="http://www.w3.org/2000/svg" viewBox="0 0 1024 1024" width="24" height="24">
  <g transform="scale(1, -1) translate(0, -960)">
    <path d="M126.208 277.333l1.835-44.459c0.213-5.12 6.059-96.213 127.957-142.421v-47.787c0-11.782 9.551-21.333 21.333-21.333v0h469.333c11.782 0 21.333 9.551 21.333 21.333v0 47.787c121.899 46.208 127.744 137.301 127.957 142.421l1.877 44.459h-129.835v69.12c121.899 46.208 127.744 137.301 127.957 142.421l1.877 44.459h-129.835v69.12c121.899 46.208 127.744 137.301 127.957 142.421l1.877 44.459h-129.835v64c0 11.782-9.551 21.333-21.333 21.333v0h-469.333c-11.782 0-21.333-9.551-21.333-21.333v0-64h-129.792l1.835-44.459c0.213-5.12 6.059-96.213 127.957-142.421v-69.12h-129.792l1.835-44.459c0.213-5.12 6.059-96.213 127.957-142.421v-69.12h-129.792zM512 789.333c47.131-0.012 85.333-38.222 85.333-85.355 0-47.14-38.215-85.355-85.355-85.355-0.007 0-0.015 0-0.022 0h0.001c-47.131 0.012-85.333 38.222-85.333 85.355 0 47.14 38.215 85.355 85.355 85.355 0.007 0 0.015 0 0.022 0h-0.001zM512 533.333c47.131-0.012 85.333-38.222 85.333-85.355 0-47.14-38.215-85.355-85.355-85.355-0.007 0-0.015 0-0.022 0h0.001c-47.131 0.012-85.333 38.222-85.333 85.355 0 47.14 38.215 85.355 85.355 85.355 0.007 0 0.015 0 0.022 0h-0.001zM512 277.333c47.131-0.012 85.333-38.222 85.333-85.355 0-47.14-38.215-85.355-85.355-85.355-0.007 0-0.015 0-0.022 0h0.001c-47.131 0.012-85.333 38.222-85.333 85.355 0 47.14 38.215 85.355 85.355 85.355 0.007 0 0.015 0 0.022 0h-0.001z" fill="currentColor" />
  </g>
</svg>
