<?xml version="1.0" encoding="utf-8"?>
<svg xmlns="http://www.w3.org/2000/svg" viewBox="0 0 1024 1024" width="24" height="24">
  <g transform="scale(1, -1) translate(0, -960)">
    <path d="M890.667 661.333h-757.333c-50.005 0-90.667-38.272-90.667-85.333v-256c0-47.061 40.661-85.333 90.667-85.333h757.333c50.005 0 90.667 38.272 90.667 85.333v256c0 47.061-40.661 85.333-90.667 85.333zM298.667 448h-85.333v128h85.333v-128zM469.333 405.333h-85.333v170.667h85.333v-170.667zM640 448h-85.333v128h85.333v-128zM810.667 405.333h-85.333v170.667h85.333v-170.667z" fill="currentColor" />
  </g>
</svg>
