<?xml version="1.0" encoding="utf-8"?>
<svg xmlns="http://www.w3.org/2000/svg" viewBox="0 0 1024 1024" width="24" height="24">
  <g transform="scale(1, -1) translate(0, -960)">
    <path d="M512 720.64l-117.76-116.907 141.227-141.227-45.227-45.227-141.227 141.227-75.52-75.52 141.227-141.227-45.227-45.227-141.227 141.227-85.333-85.333c-16.020-15.531-25.962-37.251-25.962-61.293 0-15.423 4.092-29.891 11.249-42.377l-0.22 0.417 42.667-80.64-96-97.707 60.16-60.16 97.707 96 80.64-42.667c12.098-6.978 26.607-11.095 42.077-11.095 0.207 0 0.414 0.001 0.621 0.002h-0.032c0.020 0 0.044 0 0.068 0 23.653 0 45.059 9.624 60.515 25.169l0.004 0.004 368.213 369.92zM844.8 567.467l-76.373 76.8 60.587 60.16 60.16-60.16 60.16 60.16-180.907 180.907-60.16-60.16 60.16-60.587-60.16-60.16-76.8 76.373-74.24 74.667-60.16-60.587 43.947-43.947v-0.427l273.493-273.493h0.427l43.947-43.947 60.587 60.16-74.24 74.24h-0.427z" fill="currentColor" />
  </g>
</svg>
