<?xml version="1.0" encoding="utf-8"?>
<svg xmlns="http://www.w3.org/2000/svg" viewBox="0 0 1024 1024" width="24" height="24">
  <g transform="scale(1, -1) translate(0, -960)">
    <path d="M926.037 734.293l-127.872 127.872c-7.696 7.723-18.342 12.501-30.104 12.501-0.022 0-0.043 0-0.065 0h-511.997c-0.018 0-0.040 0-0.062 0-11.762 0-22.408-4.779-30.102-12.5l-127.873-127.873c-7.799-7.695-12.629-18.381-12.629-30.195 0-0.020 0-0.039 0-0.059v0.003-554.709c0-47.128 38.205-85.333 85.333-85.333v0h682.667c47.128 0 85.333 38.205 85.333 85.333v0 554.709c0 0.017 0 0.036 0 0.056 0 11.814-4.831 22.5-12.625 30.19l-0.005 0.005zM273.664 789.333h476.672l42.667-42.667h-562.005l42.667 42.667zM725.333 405.333v-42.667h-426.667v170.667h85.333v-85.333h256v85.333h85.333v-128z" fill="currentColor" />
  </g>
</svg>
