<?xml version="1.0" encoding="utf-8"?>
<svg xmlns="http://www.w3.org/2000/svg" viewBox="0 0 1024 1024" width="24" height="24">
  <g transform="scale(1, -1) translate(0, -960)">
    <path d="M933.035 469.163l-170.667 298.667c-7.489 12.935-21.261 21.499-37.034 21.504h-597.334c-23.558-0.008-42.653-19.107-42.653-42.667 0-7.786 2.085-15.084 5.728-21.367l-0.11 0.205 158.592-277.504-158.592-277.504c-3.533-6.079-5.618-13.377-5.618-21.163 0-23.559 19.095-42.659 42.652-42.667h597.334c15.773 0.005 29.545 8.569 36.925 21.299l0.11 0.205 170.667 298.667c3.541 6.077 5.631 13.376 5.631 21.163s-2.090 15.086-5.74 21.366l0.109-0.203z" fill="currentColor" />
  </g>
</svg>
