<?xml version="1.0" encoding="utf-8"?>
<svg xmlns="http://www.w3.org/2000/svg" viewBox="0 0 1024 1024" width="24" height="24">
  <g transform="scale(1, -1) translate(0, -960)">
    <path d="M896 832h-298.667c-32.941-0.115-62.911-12.739-85.429-33.366l0.095 0.086c-22.423 20.541-52.393 33.165-85.31 33.28h-298.69c-23.564 0-42.667-19.103-42.667-42.667v0-640c0-23.564 19.103-42.667 42.667-42.667v0h245.675c23.553-0.055 44.868-9.597 60.333-25.005l47.826-47.826c0.384-0.384 0.896-0.512 1.28-0.896 3.669-3.413 7.765-6.4 12.544-8.363h0.085c4.804-2.044 10.391-3.232 16.256-3.232s11.452 1.188 16.535 3.337l-0.279-0.105h0.085c4.779 1.963 8.875 4.992 12.544 8.363 0.384 0.384 0.896 0.512 1.28 0.896l47.829 47.829c15.463 15.406 36.777 24.947 60.32 25.003h245.686c23.564 0 42.667 19.103 42.667 42.667v0 640c0 23.564-19.103 42.667-42.667 42.667v0zM853.333 192h-203.008c-35.704-0.106-68.825-11.078-96.253-29.78l0.595 0.383v541.397c0 23.509 19.115 42.667 42.667 42.667h256v-554.667z" fill="currentColor" />
  </g>
</svg>
