<?xml version="1.0" encoding="utf-8"?>
<svg xmlns="http://www.w3.org/2000/svg" viewBox="0 0 1024 1024" width="24" height="24">
  <g transform="scale(1, -1) translate(0, -960)">
    <path d="M426.667 21.333v170.667c0 47.128 38.205 85.333 85.333 85.333s85.333-38.205 85.333-85.333v0-170.667h170.667v426.667c-0.003 15.445-8.212 28.972-20.505 36.459l-0.188 0.107-192.64 115.584v103.851h85.333v85.333h-85.333v85.333h-85.333v-85.333h-85.333v-85.333h85.333v-103.851l-192.64-115.584c-12.481-7.593-20.69-21.12-20.693-36.565v0-426.667h170.667zM128 21.333h85.333v346.368l-104.405-52.224c-14.098-7.137-23.595-21.516-23.595-38.114 0-0.011 0-0.021 0-0.032v0.002-213.333c0-23.564 19.103-42.667 42.667-42.667v0zM915.072 315.52l-104.405 52.181v-346.368h85.333c23.564 0 42.667 19.103 42.667 42.667v0 213.333c0 16.171-9.131 30.933-23.595 38.187z" fill="currentColor" />
  </g>
</svg>
