<?xml version="1.0" encoding="utf-8"?>
<svg xmlns="http://www.w3.org/2000/svg" viewBox="0 0 1024 1024" width="24" height="24">
  <g transform="scale(1, -1) translate(0, -960)">
    <path d="M853.333 746.667h-110.336l-115.499 115.499c-7.696 7.723-18.342 12.501-30.104 12.501-0.022 0-0.043 0-0.065 0h-170.664c-0.018 0-0.040 0-0.062 0-11.762 0-22.408-4.779-30.102-12.5l-115.5-115.5h-110.336c-47.061 0-85.333-38.272-85.333-85.333v-469.333c0-47.061 38.272-85.333 85.333-85.333h682.667c47.061 0 85.333 38.272 85.333 85.333v469.333c0 47.061-38.272 85.333-85.333 85.333zM512 234.667c-115.627 0-213.333 97.707-213.333 213.333 0 115.669 97.707 213.333 213.333 213.333s213.333-97.664 213.333-213.333c0-115.627-97.707-213.333-213.333-213.333zM554.667 576h-85.333v-85.333h-85.333v-85.333h85.333v-85.333h85.333v85.333h85.333v85.333h-85.333z" fill="currentColor" />
  </g>
</svg>
