<?xml version="1.0" encoding="utf-8"?>
<svg xmlns="http://www.w3.org/2000/svg" viewBox="0 0 1024 1024" width="24" height="24">
  <g transform="scale(1, -1) translate(0, -960)">
    <path d="M926.165 478.123l-383.061 384c-7.732 7.746-18.421 12.539-30.229 12.539-11.766 0-22.421-4.758-30.145-12.455l0.001 0.001-384.896-384c-7.744-7.725-12.535-18.407-12.535-30.208s4.791-22.483 12.534-30.207l384.897-384.001c16.64-16.597 43.776-16.555 60.373 0.085l383.061 384c7.714 7.707 12.485 18.358 12.485 30.123s-4.771 22.416-12.485 30.122v0zM640 277.333h-85.333v170.667h-128v-85.333l-128 128 128 128v-85.333h213.333v-256z" fill="currentColor" />
  </g>
</svg>
