<?xml version="1.0" encoding="utf-8"?>
<svg xmlns="http://www.w3.org/2000/svg" viewBox="0 0 1024 1024" width="24" height="24">
  <g transform="scale(1, -1) translate(0, -960)">
    <path d="M682.667 320c0 23.564-19.103 42.667-42.667 42.667v0h-256c-23.509 0-42.667-19.115-42.667-42.667v-85.333h341.333v85.333zM341.333 149.333h341.333v-128h-341.333zM896 448c0 126.592-92.459 231.765-213.333 252.16v46.507c0 70.571-57.429 128-128 128h-85.333c-70.571 0-128-57.429-128-128v-46.507c-120.875-20.395-213.333-125.568-213.333-252.16v-341.333c0-47.061 38.272-85.333 85.333-85.333h42.667v298.667c0 70.571 57.429 128 128 128h256c70.571 0 128-57.429 128-128v-298.667h42.667c47.061 0 85.333 38.272 85.333 85.333v341.333zM426.667 746.667c0 23.552 19.157 42.667 42.667 42.667h85.333c23.564 0 42.667-19.103 42.667-42.667v0-42.667h-170.667v42.667z" fill="currentColor" />
  </g>
</svg>
