<?xml version="1.0" encoding="utf-8"?>
<svg xmlns="http://www.w3.org/2000/svg" viewBox="0 0 1024 1024" width="24" height="24">
  <g transform="scale(1, -1) translate(0, -960)">
    <path d="M853.333 874.667h-512c-47.128 0-85.333-38.205-85.333-85.333v0-512c0-47.128 38.205-85.333 85.333-85.333v0h512c47.128 0 85.333 38.205 85.333 85.333v0 512c0 47.128-38.205 85.333-85.333 85.333v0zM597.333 768c58.91 0 106.667-47.756 106.667-106.667s-47.756-106.667-106.667-106.667v0c-58.91 0-106.667 47.756-106.667 106.667s47.756 106.667 106.667 106.667v0zM810.667 320h-426.667v10.667c0 78.891 96.171 160 213.333 160s213.333-81.109 213.333-160v-10.667zM170.667 618.667h-85.333v-512c0-47.061 38.272-85.333 85.333-85.333h512v85.333h-512v512z" fill="currentColor" />
  </g>
</svg>
