<?xml version="1.0" encoding="utf-8"?>
<svg xmlns="http://www.w3.org/2000/svg" viewBox="0 0 1024 1024" width="24" height="24">
  <g transform="scale(1, -1) translate(0, -960)">
    <path d="M896 874.667h-768c-23.564 0-42.667-19.103-42.667-42.667v0-768c0-23.564 19.103-42.667 42.667-42.667v0h768c23.564 0 42.667 19.103 42.667 42.667v0 768c0 23.564-19.103 42.667-42.667 42.667v0zM853.333 618.667h-170.667v-170.667h170.667v-170.667h-170.667v-170.667h-170.667v170.667h-170.667v-170.667h-170.667v170.667h170.667v170.667h-170.667v170.667h170.667v170.667h170.667v-170.667h170.667v170.667h170.667v-170.667zM341.333 618.667h170.667v-170.667h-170.667zM512 448h170.667v-170.667h-170.667z" fill="currentColor" />
  </g>
</svg>
