<?xml version="1.0" encoding="utf-8"?>
<svg xmlns="http://www.w3.org/2000/svg" viewBox="0 0 1024 1024" width="24" height="24">
  <g transform="scale(1, -1) translate(0, -960)">
    <path d="M170.667 21.333h682.667c23.564 0 42.667 19.103 42.667 42.667v0 682.667c0 70.571-57.429 128-128 128h-512c-70.571 0-128-57.429-128-128v-682.667c0-23.564 19.103-42.667 42.667-42.667v0zM768 792.576c23.564 0 42.667-19.103 42.667-42.667s-19.103-42.667-42.667-42.667v0c-23.564 0-42.667 19.103-42.667 42.667s19.103 42.667 42.667 42.667v0zM640 792.576c23.564 0 42.667-19.103 42.667-42.667s-19.103-42.667-42.667-42.667v0c-23.564 0-42.667 19.103-42.667 42.667s19.103 42.667 42.667 42.667v0zM512 661.333c141.184 0 256-114.816 256-256s-114.816-256-256-256-256 114.816-256 256 114.816 256 256 256zM544.683 237.696c59.691 11.136 109.696 56.107 128.981 113.707 5.709 15.996 9.008 34.449 9.008 53.672 0 25.331-5.729 49.324-15.963 70.754l0.426-0.992c-3.356 7.066-10.435 11.865-18.634 11.865-1.623 0-3.201-0.188-4.716-0.543l0.139 0.028c-25.771-6.357-43.477-19.115-64-34.176-33.536-24.619-75.307-55.211-153.259-55.211-34.688 0-61.867 6.229-84.651 15.104l-0.555-0.384c-0.067-1.789-0.105-3.891-0.105-6.001 0-94.398 76.525-170.923 170.923-170.923 11.462 0 22.661 1.128 33.492 3.28l-1.088-0.18z" fill="currentColor" />
  </g>
</svg>
