<?xml version="1.0" encoding="utf-8"?>
<svg xmlns="http://www.w3.org/2000/svg" viewBox="0 0 1024 1024" width="24" height="24">
  <g transform="scale(1, -1) translate(0, -960)">
    <path d="M810.667 789.333h-85.333v85.333h-85.333v-85.333h-256v85.333h-85.333v-85.333h-85.333c-47.061 0-85.333-38.272-85.333-85.333v-597.333c0-47.061 38.272-85.333 85.333-85.333h597.333c47.061 0 85.333 38.272 85.333 85.333v597.333c0 47.061-38.272 85.333-85.333 85.333zM614.912 149.333l-104.491 54.955-104.491-54.955 19.968 116.395-84.565 82.347 116.821 16.981 52.267 105.813 52.267-105.813 116.821-16.981-84.523-82.389 19.925-116.352zM810.667 576h-597.333v85.333h597.333v-85.333z" fill="currentColor" />
  </g>
</svg>
