<?xml version="1.0" encoding="utf-8"?>
<svg xmlns="http://www.w3.org/2000/svg" viewBox="0 0 1024 1024" width="24" height="24">
  <g transform="scale(1, -1) translate(0, -960)">
    <path d="M170.667 106.667h506.837l-131.541 131.541c-10.082-2.014-21.789-3.291-33.75-3.538l-0.213-0.003c-115.627 0-213.333 97.707-213.333 213.333 0 11.563 1.664 22.827 3.541 33.963l-210.731 210.731c-3.84-9.728-6.144-20.267-6.144-31.36v-469.333c0-47.061 38.272-85.333 85.333-85.333zM853.333 746.667h-110.336l-115.499 115.499c-7.696 7.723-18.342 12.501-30.104 12.501-0.022 0-0.043 0-0.065 0h-170.664c-0.018 0-0.040 0-0.062 0-11.762 0-22.408-4.779-30.102-12.5l-115.5-115.5h-7.339l-115.499 115.499-60.331-60.331 768-768 60.331 60.331-26.709 26.709c23.664 15.191 39.137 41.343 39.211 71.114v469.344c0 47.061-38.272 85.333-85.333 85.333zM626.688 393.643c8.231 15.806 13.132 34.489 13.312 54.3v0.058c0 69.376-58.624 128-128 128-19.456 0-37.717-5.12-54.357-13.312l-62.293 62.293c32.65 22.592 73.047 36.158 116.602 36.352h0.049c115.627 0 213.333-97.707 213.333-213.333-0.194-43.604-13.76-84.001-36.806-117.346l0.454 0.695-62.293 62.293z" fill="currentColor" />
  </g>
</svg>
