<?xml version="1.0" encoding="utf-8"?>
<svg xmlns="http://www.w3.org/2000/svg" viewBox="0 0 1024 1024" width="24" height="24">
  <g transform="scale(1, -1) translate(0, -960)">
    <path d="M512 874.667c-235.264 0-426.667-191.403-426.667-426.667s191.403-426.667 426.667-426.667 426.667 191.403 426.667 426.667-191.403 426.667-426.667 426.667zM362.965 320c-0.485-0.013-1.055-0.021-1.628-0.021-35.205 0-63.744 28.539-63.744 63.744s28.539 63.744 63.744 63.744c0.587 0 1.173-0.008 1.756-0.024l-0.086 0.002c34.479-0.932 62.074-29.105 62.074-63.722 0-34.633-27.619-62.814-62.032-63.721l-0.084-0.002zM546.475 615.211c-10.365 2.177-22.274 3.424-34.475 3.424s-24.11-1.247-35.608-3.619l1.134 0.196c-12.257-2.585-22.972-6.011-33.189-10.377l1.147 0.436c-9.984-4.267-19.755-9.557-28.928-15.701-18.258-12.54-33.57-27.878-45.696-45.572l-0.384-0.593-70.784 47.701c27.833 40.84 66.066 72.709 110.934 92.158l1.664 0.642c13.642 5.934 29.738 11.082 46.426 14.63l1.702 0.303c15.488 3.296 33.284 5.184 51.52 5.184s36.032-1.888 53.201-5.478l-1.681 0.294c34.775-7.189 65.528-20.586 92.508-39.085l-0.86 0.557c27.426-18.765 50.412-41.765 68.589-68.318l0.574-0.887-70.741-47.659c-6.417 9.412-13.266 17.642-20.817 25.169l-0.005 0.005c-22.866 22.961-52.238 39.425-85.117 46.395l-1.112 0.197zM661.333 320c-35.349 0.012-64 28.671-64 64.021 0 35.358 28.663 64.021 64.021 64.021 0.008 0 0.015 0 0.023 0h-0.001c35.349-0.012 64-28.671 64-64.021 0-35.358-28.663-64.021-64.021-64.021-0.008 0-0.015 0-0.023 0h0.001z" fill="currentColor" />
  </g>
</svg>
