<?xml version="1.0" encoding="utf-8"?>
<svg xmlns="http://www.w3.org/2000/svg" viewBox="0 0 1024 1024" width="24" height="24">
  <g transform="scale(1, -1) translate(0, -960)">
    <path d="M332.032 338.091c-7.936 0-13.312-0.768-16.085-1.536v-50.901c3.285-0.768 7.424-0.981 13.056-0.981 20.693 0 33.493 10.496 33.493 28.117 0 15.829-11.008 25.301-30.464 25.301zM597.333 874.667h-341.333c-47.128 0-85.333-38.205-85.333-85.333v0-682.667c0-47.128 38.205-85.333 85.333-85.333v0h512c47.128 0 85.333 38.205 85.333 85.333v0 512l-256 256zM385.28 272.853c-13.355-12.501-33.024-18.176-56.021-18.176-5.12 0-9.771 0.299-13.312 0.811v-61.653h-38.656v170.112c14.349 2.278 30.894 3.58 47.743 3.58 1.741 0 3.478-0.014 5.212-0.042l-0.262 0.003c24.021 0 41.216-4.565 52.693-13.781 11.008-8.704 18.432-23.040 18.432-39.936s-5.589-31.189-15.829-40.917zM568.832 193.792h-40.96l-36.821 66.56c-10.24 18.432-21.504 40.661-29.909 60.885l-0.811-0.256c1.024-22.784 1.536-47.104 1.536-75.221v-51.968h-35.84v172.459h45.525l35.84-63.189c10.24-18.176 20.437-39.68 28.117-59.093h0.811c-2.143 19.494-3.366 42.101-3.366 64.992 0 2.427 0.014 4.85 0.041 7.27l-0.003-0.369v50.432h35.84v-172.501zM746.709 201.728c-17.129-5.868-36.876-9.403-57.402-9.726l-0.155-0.002c-31.445 0-54.229 7.936-70.144 23.296-15.829 14.848-24.533 37.333-24.277 62.677 0.256 57.344 41.941 90.069 98.517 90.069 22.229 0 39.424-4.395 47.829-8.448l-8.149-31.189c-9.472 4.096-21.248 7.424-40.149 7.424-32.512 0-57.088-18.432-57.088-55.808 0-35.541 22.272-56.533 54.229-56.533 8.96 0 16.128 1.024 19.2 2.603v36.096h-26.624v30.421h64.213v-90.88zM597.333 576h-42.667v213.333l213.333-213.333h-170.667z" fill="currentColor" />
  </g>
</svg>
