<?xml version="1.0" encoding="utf-8"?>
<svg xmlns="http://www.w3.org/2000/svg" viewBox="0 0 1024 1024" width="24" height="24">
  <g transform="scale(1, -1) translate(0, -960)">
    <path d="M938.667 814.507l-5.12 53.76-51.2-17.067c-57.747-20.727-124.376-32.709-193.803-32.709-28.105 0-55.751 1.963-82.808 5.76l3.118-0.359c-23.344 3.812-50.251 5.991-77.666 5.991-75.11 0-146.401-16.35-210.508-45.686l3.16 1.296c-95.089-41.232-164.329-126.277-182.761-228.954l-0.279-1.873c-3.658-19.905-5.75-42.811-5.75-66.206 0-46.333 8.206-90.749 23.243-131.875l-0.853 2.667c16.298 36.536 33.112 67.339 52.032 96.655l-1.685-2.789c43.486 63.387 102.228 113.365 171.056 145.266l2.598 1.080c58.056 27.162 126.059 43.012 197.765 43.012 6.375 0 12.722-0.125 19.036-0.374l-0.908 0.028c-74.941-11.721-142.011-37.98-200.863-75.895l2.037 1.228c-30.098-19.082-56.139-40.647-79.172-65.079l-0.188-0.201c-21.68-23.998-41.291-50.673-58.068-79.215l-1.238-2.279c-29.803-55.959-53.032-120.853-66.278-189.308l-0.709-4.399c-12.986-61.289-21.007-132.174-22.175-204.725l-0.012-0.929h85.333c4.511 68.343 13.462 131.443 26.732 192.937l-1.559-8.617c54.213-29.84 118.818-47.396 187.523-47.396 1.874 0 3.746 0.013 5.614 0.039l-0.283-0.003c65.964 0.047 128.728 13.695 185.656 38.29l-3.043-1.17c324.693 138.667 282.027 599.893 282.027 619.093z" fill="currentColor" />
  </g>
</svg>
