<?xml version="1.0" encoding="utf-8"?>
<svg xmlns="http://www.w3.org/2000/svg" viewBox="0 0 1024 1024" width="24" height="24">
  <g transform="scale(1, -1) translate(0, -960)">
    <path d="M895.147 456.448c-3.325 16.203-15.526 28.874-31.195 32.833l-0.293 0.063-292.693 73.216 108.245 252.629c2.19 4.96 3.465 10.744 3.465 16.825 0 13.864-6.626 26.181-16.884 33.956l-0.106 0.077c-7.047 5.389-15.983 8.634-25.677 8.634-10.275 0-19.698-3.646-27.046-9.716l0.072 0.058-469.333-384c-9.586-7.884-15.652-19.746-15.652-33.025 0-19.879 13.595-36.583 31.996-41.321l0.296-0.065 286.677-71.723-142.72-249.771c-3.499-6.059-5.563-13.327-5.563-21.077 0-23.549 19.058-42.646 42.592-42.709h0.006c0.021 0 0.046 0 0.071 0 9.63 0 18.511 3.206 25.634 8.61l-0.105-0.077 512 384c10.405 7.867 17.059 20.22 17.059 34.128 0 2.992-0.308 5.912-0.894 8.73l0.048-0.277z" fill="currentColor" />
  </g>
</svg>
