<?xml version="1.0" encoding="utf-8"?>
<svg xmlns="http://www.w3.org/2000/svg" viewBox="0 0 1024 1024" width="24" height="24">
  <g transform="scale(1, -1) translate(0, -960)">
    <path d="M810.667 874.667h-597.333c-70.571 0-128-57.429-128-128v-120.789c0-44.928 16.299-85.76 42.667-117.163v-402.048c0-23.564 19.103-42.667 42.667-42.667v0h341.333c23.564 0 42.667 19.103 42.667 42.667v0 213.333h170.667v-213.333c0-23.564 19.103-42.667 42.667-42.667v0h85.333c23.564 0 42.667 19.103 42.667 42.667v0 402.091c26.368 31.36 42.667 72.192 42.667 117.163v120.747c0 70.571-57.429 128-128 128zM853.333 746.667v-120.789c0-48.64-36.224-90.112-80.683-92.459l-4.651-0.085c-47.061 0-85.333 38.272-85.333 85.333v170.667h128c23.552 0 42.667-19.157 42.667-42.667zM426.667 618.667v170.667h170.667v-170.667c0-47.061-38.272-85.333-85.333-85.333s-85.333 38.272-85.333 85.333zM170.667 746.667c0 23.509 19.115 42.667 42.667 42.667h128v-170.667c0-47.061-38.272-85.333-85.333-85.333l-4.651 0.128c-44.459 2.304-80.683 43.776-80.683 92.416v120.789zM426.667 277.333h-170.667v128h170.667v-128z" fill="currentColor" />
  </g>
</svg>
