<?xml version="1.0" encoding="utf-8"?>
<svg xmlns="http://www.w3.org/2000/svg" viewBox="0 0 1024 1024" width="24" height="24">
  <g transform="scale(1, -1) translate(0, -960)">
    <path d="M853.333 234.667c0-23.564-19.103-42.667-42.667-42.667s-42.667 19.103-42.667 42.667v0 512c0 23.564-19.103 42.667-42.667 42.667v0h-597.333c-23.564 0-42.667-19.103-42.667-42.667v0-554.667c0-47.128 38.205-85.333 85.333-85.333v0h640c70.571 0 128 57.429 128 128v426.667h-85.333v-426.667zM512 661.333h128v-85.333h-128v85.333zM512 490.667h128v-85.333h-128v85.333zM213.333 661.333h213.333v-256h-213.333v256zM213.333 234.667v85.333h426.667v-85.333h-426.667z" fill="currentColor" />
  </g>
</svg>
