<?xml version="1.0" encoding="utf-8"?>
<svg xmlns="http://www.w3.org/2000/svg" viewBox="0 0 1024 1024" width="24" height="24">
  <g transform="scale(1, -1) translate(0, -960)">
    <path d="M512 874.667c-235.264 0-426.667-191.403-426.667-426.667s191.403-426.667 426.667-426.667 426.667 191.403 426.667 426.667-191.403 426.667-426.667 426.667zM842.069 533.333h-134.827c-22.032 49.286-60.624 87.878-108.553 109.366l-1.356 0.543v134.869c120.070-32.022 212.735-124.701 244.193-242.389l0.543-2.39zM512 320c-70.571 0-128 57.429-128 128s57.429 128 128 128 128-57.429 128-128-57.429-128-128-128zM426.667 778.112v-134.869c-49.286-22.032-87.878-60.624-109.366-108.553l-0.543-1.356h-134.827c32.001 120.077 124.666 212.757 242.346 244.235l2.39 0.544zM181.931 362.667h134.827c22.032-49.286 60.624-87.878 108.553-109.366l1.356-0.543v-134.869c-120.070 32.022-212.735 124.701-244.193 242.389l-0.543 2.39zM597.333 117.888v134.869c49.286 22.032 87.878 60.624 109.366 108.553l0.543 1.356h134.827c-32.001-120.077-124.666-212.757-242.346-244.235l-2.39-0.544z" fill="currentColor" />
  </g>
</svg>
