<?xml version="1.0" encoding="utf-8"?>
<svg xmlns="http://www.w3.org/2000/svg" viewBox="0 0 1024 1024" width="24" height="24">
  <g transform="scale(1, -1) translate(0, -960)">
    <path d="M597.333 874.667h-341.333c-47.128 0-85.333-38.205-85.333-85.333v0-682.667c0-47.128 38.205-85.333 85.333-85.333v0h512c47.128 0 85.333 38.205 85.333 85.333v0 512l-256 256zM480.213 269.397c0-57.387-27.477-77.397-71.723-77.397-10.453 0-24.192 1.792-33.152 4.779l5.077 36.736c6.272-2.091 14.336-3.584 23.296-3.584 19.115 0 31.104 8.661 31.104 40.021v126.72h45.397v-127.275zM567.381 192.299c-22.997 0-45.696 6.016-57.045 12.245l9.259 37.675c12.245-6.272 31.104-12.544 50.517-12.544 20.949 0 31.957 8.661 31.957 21.803 0 12.587-9.557 19.755-33.749 28.416-33.451 11.605-55.253 30.165-55.253 59.477 0 34.389 28.672 60.672 76.203 60.672 22.741 0 39.467-4.779 51.413-10.155l-10.155-36.736c-8.064 3.883-22.4 9.557-42.112 9.557s-29.312-8.96-29.312-19.413c0-12.843 11.392-18.56 37.333-28.373 35.584-13.184 52.309-31.659 52.309-60.075-0.085-33.835-26.027-62.549-81.365-62.549zM597.333 576h-42.667v213.333l213.333-213.333h-170.667z" fill="currentColor" />
  </g>
</svg>
