<?xml version="1.0" encoding="utf-8"?>
<svg xmlns="http://www.w3.org/2000/svg" viewBox="0 0 1024 1024" width="24" height="24">
  <g transform="scale(1, -1) translate(0, -960)">
    <path d="M97.92 417.835l383.061-384c16.597-16.64 43.733-16.683 60.331-0.085l384.896 384c7.744 7.725 12.535 18.407 12.535 30.208s-4.791 22.483-12.534 30.207l-384.897 384.001c-7.712 7.703-18.361 12.467-30.123 12.467-11.804 0-22.488-4.798-30.206-12.551l-0.002-0.002-383.061-384c-7.714-7.707-12.485-18.358-12.485-30.123s4.771-22.416 12.485-30.122v0zM384.085 533.291h213.333v85.333l128-128-128-128v85.333h-128v-170.667h-85.333v256z" fill="currentColor" />
  </g>
</svg>
