<?xml version="1.0" encoding="utf-8"?>
<svg xmlns="http://www.w3.org/2000/svg" viewBox="0 0 1024 1024" width="24" height="24">
  <g transform="scale(1, -1) translate(0, -960)">
    <path d="M170.667 106.667h85.333v426.667c0 23.564 19.103 42.667 42.667 42.667v0h512v85.333c0 23.564-19.103 42.667-42.667 42.667v0h-130.176c-10.752 95.744-91.264 170.667-189.824 170.667s-179.072-74.923-189.824-170.667h-130.176c-23.564 0-42.667-19.103-42.667-42.667v0-469.333c0-47.128 38.205-85.333 85.333-85.333v0zM448 789.333c51.499 0 94.635-36.693 104.533-85.333h-209.067c9.899 48.64 53.035 85.333 104.533 85.333zM896 490.667h-512c-23.564 0-42.667-19.103-42.667-42.667v0-341.333c0-47.128 38.205-85.333 85.333-85.333v0h426.667c47.128 0 85.333 38.205 85.333 85.333v0 341.333c0 23.564-19.103 42.667-42.667 42.667v0zM640 192c-117.632 0-213.333 95.701-213.333 213.333h85.333c0-70.571 57.429-128 128-128s128 57.429 128 128h85.333c0-117.632-95.701-213.333-213.333-213.333z" fill="currentColor" />
  </g>
</svg>
