<?xml version="1.0" encoding="utf-8"?>
<svg xmlns="http://www.w3.org/2000/svg" viewBox="0 0 1024 1024" width="24" height="24">
  <g transform="scale(1, -1) translate(0, -960)">
    <path d="M794.368 641.621l-521.173 229.419c-5.079 2.285-11.010 3.616-17.251 3.616-5.614 0-10.976-1.077-15.892-3.035l0.29 0.102c-10.641-4.294-18.98-12.425-23.445-22.637l-0.107-0.275-128-298.667c-2.181-4.956-3.45-10.734-3.45-16.808 0-17.487 10.52-32.516 25.576-39.106l0.274-0.107 296.832-127.189-52.907-132.267h-184.448v128h-85.333v-341.333h85.333v128h184.448c35.115 0 66.219 21.077 79.189 53.675l52.139 130.304 145.877-62.507c4.966-2.191 10.757-3.466 16.846-3.466 17.378 0 32.33 10.39 38.982 25.297l0.108 0.271 128 292.565c2.261 5.036 3.578 10.916 3.578 17.103 0 17.339-10.343 32.263-25.196 38.938l-0.27 0.108zM850.347 261.461l-79.275 31.659 85.248 213.333 79.275-31.616z" fill="currentColor" />
  </g>
</svg>
