<?xml version="1.0" encoding="utf-8"?>
<svg xmlns="http://www.w3.org/2000/svg" viewBox="0 0 1024 1024" width="24" height="24">
  <g transform="scale(1, -1) translate(0, -960)">
    <path d="M512 746.667c-212.011 0-426.667-65.963-426.667-192s214.656-192 426.667-192c212.053 0 426.667 65.963 426.667 192s-214.613 192-426.667 192zM298.667 322.645v-128c52.779-12.757 111.147-20.565 170.667-23.083v128c-61.809 2.47-120.351 10.748-176.826 24.334l6.159-1.251zM554.667 299.605v-128c61.776 2.42 120.321 10.7 176.781 24.329l-6.114-1.246v128c-50.345-12.383-108.891-20.663-168.956-23.029l-1.71-0.054zM810.667 349.995v-128c76.843 32.213 128 79.232 128 140.672v128c0-61.44-51.157-108.459-128-140.672zM213.333 221.995v128c-76.8 32.213-128 79.275-128 140.672v-128c0-61.397 51.2-108.459 128-140.672z" fill="currentColor" />
  </g>
</svg>
