<?xml version="1.0" encoding="utf-8"?>
<svg xmlns="http://www.w3.org/2000/svg" viewBox="0 0 1024 1024" width="24" height="24">
  <g transform="scale(1, -1) translate(0, -960)">
    <path d="M512 21.333c218.923 0 384 82.56 384 192v448c0 2.176-1.024 4.139-1.408 6.229 0.683 4.992 1.408 9.984 1.408 15.104 0 109.44-165.077 192-384 192s-384-82.56-384-192v-469.333c0-109.44 165.077-192 384-192zM512 789.333c182.315 0 298.667-63.147 298.667-106.667-0.099-2.439-0.482-4.747-1.118-6.947l0.051 0.206c-0.171-0.427-0.512-0.768-0.64-1.152-11.691-36.181-97.707-84.48-234.496-96.128l-2.133-0.128c-19.157-1.621-39.253-2.517-60.331-2.517-182.315 0-298.667 63.147-298.667 106.667s116.352 106.667 298.667 106.667z" fill="currentColor" />
  </g>
</svg>
