<?xml version="1.0" encoding="utf-8"?>
<svg xmlns="http://www.w3.org/2000/svg" viewBox="0 0 1024 1024" width="24" height="24">
  <g transform="scale(1, -1) translate(0, -960)">
    <path d="M853.333 704h-682.667c-47.061 0-85.333-38.272-85.333-85.333v-426.667c0-47.061 38.272-85.333 85.333-85.333h682.667c47.061 0 85.333 38.272 85.333 85.333v426.667c0 47.061-38.272 85.333-85.333 85.333zM384 362.667h-213.333v85.333h213.333v-85.333zM853.333 362.667h-85.333v-85.333h-85.333v85.333h-85.333v85.333h85.333v85.333h85.333v-85.333h85.333v-85.333zM170.667 832h170.667v-85.333h-170.667zM682.667 832h170.667v-85.333h-170.667z" fill="currentColor" />
  </g>
</svg>
