<?xml version="1.0" encoding="utf-8"?>
<svg xmlns="http://www.w3.org/2000/svg" viewBox="0 0 1024 1024" width="24" height="24">
  <g transform="scale(1, -1) translate(0, -960)">
    <path d="M810.667 874.667h-597.333c-47.061 0-85.333-38.272-85.333-85.333v-512c0-47.061 38.272-85.333 85.333-85.333h149.333l149.333-170.667 149.333 170.667h149.333c47.061 0 85.333 38.272 85.333 85.333v512c0 47.061-38.272 85.333-85.333 85.333zM384 448c-47.131 0.012-85.333 38.222-85.333 85.355 0 47.14 38.215 85.355 85.355 85.355 0.007 0 0.015 0 0.022 0h-0.001c47.131-0.012 85.333-38.222 85.333-85.355 0-47.14-38.215-85.355-85.355-85.355-0.007 0-0.015 0-0.022 0h0.001zM640 448c-47.131 0.012-85.333 38.222-85.333 85.355 0 47.14 38.215 85.355 85.355 85.355 0.007 0 0.015 0 0.022 0h-0.001c47.131-0.012 85.333-38.222 85.333-85.355 0-47.14-38.215-85.355-85.355-85.355-0.007 0-0.015 0-0.022 0h0.001z" fill="currentColor" />
  </g>
</svg>
