<?xml version="1.0" encoding="utf-8"?>
<svg xmlns="http://www.w3.org/2000/svg" viewBox="0 0 1024 1024" width="24" height="24">
  <g transform="scale(1, -1) translate(0, -960)">
    <path d="M640 465.664v238.336h85.333v85.333c0 47.128-38.205 85.333-85.333 85.333v0h-256c-47.128 0-85.333-38.205-85.333-85.333v0-85.333h85.333v-238.336l-115.499-72.832c-7.723-7.696-12.501-18.342-12.501-30.104 0-0.022 0-0.043 0-0.065v0.003-85.333c0-23.564 19.103-42.667 42.667-42.667v0h170.667v-128l42.667-85.333 42.667 85.333v128h170.667c23.564 0 42.667 19.103 42.667 42.667v0 85.333c0 0.018 0 0.040 0 0.062 0 11.762-4.779 22.408-12.5 30.102l-0.001 0.001-115.499 72.832z" fill="currentColor" />
  </g>
</svg>
