<?xml version="1.0" encoding="utf-8"?>
<svg xmlns="http://www.w3.org/2000/svg" viewBox="0 0 1024 1024" width="24" height="24">
  <g transform="scale(1, -1) translate(0, -960)">
    <path d="M891.776 509.184c-7.064 14.4-21.615 24.14-38.441 24.149h-170.668v298.667c0 23.564-19.103 42.667-42.667 42.667v0h-256c-23.564 0-42.667-19.103-42.667-42.667v0-298.667h-170.667c-23.556-0.041-42.637-19.147-42.637-42.709 0-10.107 3.511-19.394 9.379-26.708l-0.065 0.084 341.333-426.667c7.885-9.801 19.877-16.020 33.323-16.020s25.438 6.219 33.258 15.938l0.064 0.082 341.333 426.667c10.24 12.843 12.203 30.379 5.12 45.184z" fill="currentColor" />
  </g>
</svg>
