<?xml version="1.0" encoding="utf-8"?>
<svg xmlns="http://www.w3.org/2000/svg" viewBox="0 0 1024 1024" width="24" height="24">
  <g transform="scale(1, -1) translate(0, -960)">
    <path d="M146.475 220.8l-15.104-105.6c-0.271-1.807-0.426-3.893-0.426-6.016 0-23.564 19.103-42.667 42.667-42.667 2.122 0 4.208 0.155 6.247 0.454l-0.231-0.028 105.6 15.104c16 2.261 56.107 109.952 56.107 109.952s20.139-17.28 28.373-19.883c17.579-5.547 34.688 11.691 40.448 29.184l16.512 75.605s24.619-12.459 33.536-14.293c11.349-2.347 22.357 4.651 30.165 12.501 4.565 4.551 8.092 10.141 10.196 16.385l0.087 0.297 11.349 70.443s28.8-7.979 38.656-9.131c11.221-1.28 22.144 4.437 30.165 12.501l48.555 48.512c21.613-7.249 46.501-11.432 72.365-11.432 64.707 0 123.299 26.18 165.763 68.525l-0.005-0.005c42.392 42.499 68.605 101.154 68.605 165.931s-26.213 123.432-68.61 165.936l0.005-0.005c-42.499 42.392-101.154 68.605-165.931 68.605s-123.432-26.213-165.936-68.61l0.005 0.005c-42.347-42.446-68.532-101.032-68.532-165.734 0-25.874 4.187-50.769 11.921-74.046l-0.477 1.657-320.043-320c-6.33-6.324-10.672-14.637-12.005-23.922l-0.027-0.227zM789.504 725.077c22.461-22.525 36.348-53.609 36.348-87.936s-13.888-65.411-36.351-87.939l0.003 0.003-175.872 175.872c22.525 22.461 53.609 36.348 87.936 36.348s65.411-13.888 87.939-36.351l-0.003 0.003z" fill="currentColor" />
  </g>
</svg>
