<?xml version="1.0" encoding="utf-8"?>
<svg xmlns="http://www.w3.org/2000/svg" viewBox="0 0 1024 1024" width="24" height="24">
  <g transform="scale(1, -1) translate(0, -960)">
    <path d="M512 272.469c-170.581 253.909-365.824 300.501-374.613 302.507l-52.053 11.691v-53.333c0-311.040 167.467-512 426.667-512 255.189 0 426.667 205.739 426.667 512v53.333l-52.053-11.691c-8.789-2.005-204.032-48.597-374.613-302.507zM481.024 799.275c-76.757-80.981-121.173-161.067-146.901-225.92 56.704-33.451 118.656-82.901 177.451-157.227 58.197 75.093 120.576 124.8 177.92 158.251-25.813 64.64-70.229 144.341-146.56 224.896l-30.933 32.725-30.976-32.725z" fill="currentColor" />
  </g>
</svg>
