<?xml version="1.0" encoding="utf-8"?>
<svg xmlns="http://www.w3.org/2000/svg" viewBox="0 0 1024 1024" width="24" height="24">
  <g transform="scale(1, -1) translate(0, -960)">
    <path d="M298.453 448c0-117.803 95.829-213.632 213.632-213.632s213.632 95.829 213.632 213.632-95.829 213.632-213.632 213.632-213.632-95.829-213.632-213.632zM469.333 149.333h85.333v-128h-85.333zM469.333 874.667h85.333v-128h-85.333zM85.333 490.667h128v-85.333h-128zM810.667 490.667h128v-85.333h-128zM240.512 116.139l-60.331 60.331 90.496 90.496 60.331-60.331zM692.992 689.323l90.539 90.539 60.331-60.331-90.539-90.539zM270.677 628.949l-90.496 90.539 60.373 60.331 90.453-90.539zM843.861 176.469l-60.331-60.331-90.539 90.539 60.331 60.331z" fill="currentColor" />
  </g>
</svg>
