<?xml version="1.0" encoding="utf-8"?>
<svg xmlns="http://www.w3.org/2000/svg" viewBox="0 0 1024 1024" width="24" height="24">
  <g transform="scale(1, -1) translate(0, -960)">
    <path d="M100.011 308.437l85.333-147.627c7.519-12.825 21.235-21.3 36.931-21.3 7.862 0 15.227 2.126 21.552 5.836l-0.201-0.109 59.563 34.389c24.747-19.499 52.096-35.499 80.853-47.445v-68.181c0-23.564 19.103-42.667 42.667-42.667v0h170.667c23.564 0 42.667 19.103 42.667 42.667v0 68.181c30.882 13.021 57.525 28.94 81.571 47.994l-0.718-0.549 59.563-34.389c20.352-11.733 46.549-4.693 58.283 15.573l85.333 147.627c3.562 6.113 5.665 13.456 5.665 21.289 0 15.699-8.445 29.425-21.040 36.885l-0.199 0.109-58.539 33.835c2.17 14.17 3.409 30.517 3.409 47.154 0 16.844-1.27 33.391-3.721 49.551l0.226-1.814 58.539 33.835c20.309 11.733 27.349 37.973 15.573 58.283l-85.333 147.627c-7.519 12.825-21.235 21.3-36.931 21.3-7.862 0-15.227-2.126-21.552-5.836l0.201 0.109-59.563-34.389c-23.31 18.534-49.942 34.456-78.565 46.599l-2.246 0.846v68.181c0 23.564-19.103 42.667-42.667 42.667v0h-170.667c-23.564 0-42.667-19.103-42.667-42.667v0-68.181c-30.882-13.021-57.525-28.94-81.571-47.994l0.718 0.549-59.52 34.389c-6.127 3.61-13.498 5.742-21.367 5.742-15.695 0-29.409-8.483-36.807-21.115l-0.109-0.201-85.333-147.627c-3.562-6.113-5.665-13.456-5.665-21.289 0-15.699 8.445-29.425 21.040-36.885l0.199-0.109 58.539-33.835c-2.197-14.258-3.452-30.705-3.452-47.445s1.255-33.188 3.676-49.253l-0.224 1.808-58.539-33.835c-20.309-11.733-27.349-37.973-15.573-58.283zM512 618.667c94.123 0 170.667-76.544 170.667-170.667s-76.544-170.667-170.667-170.667-170.667 76.544-170.667 170.667 76.544 170.667 170.667 170.667z" fill="currentColor" />
  </g>
</svg>
