<?xml version="1.0" encoding="utf-8"?>
<svg xmlns="http://www.w3.org/2000/svg" viewBox="0 0 1024 1024" width="24" height="24">
  <g transform="scale(1, -1) translate(0, -960)">
    <path d="M810.667 661.333c0 47.128-38.205 85.333-85.333 85.333v0h-42.667v128h-85.333v-128h-170.667v128h-85.333v-128h-42.667c-47.128 0-85.333-38.205-85.333-85.333v0-42.667h-128v-85.333h128v-170.667h-128v-85.333h128v-42.667c0-47.128 38.205-85.333 85.333-85.333v0h42.667v-128h85.333v128h170.667v-128h85.333v128h42.667c47.128 0 85.333 38.205 85.333 85.333v0 42.667h128v85.333h-128v170.667h128v85.333h-128v42.667zM640 320h-256v256h256v-256z" fill="currentColor" />
  </g>
</svg>
