<?xml version="1.0" encoding="utf-8"?>
<svg xmlns="http://www.w3.org/2000/svg" viewBox="0 0 1024 1024" width="24" height="24">
  <g transform="scale(1, -1) translate(0, -960)">
    <path d="M256 832h85.333v-85.333h-85.333v85.333zM341.333 149.333h128v-85.333h-128v85.333zM682.667 832h85.333v-85.333h-85.333v85.333zM554.667 149.333h128v-85.333h-128v85.333zM853.333 490.667v85.333h-85.333v85.333h-85.333v85.333h-85.333v-85.333h-170.667v85.333h-85.333v-85.333h-85.333v-85.333h-85.333v-85.333h-85.333v-341.333h85.333v170.667h85.333v-170.667h85.333v128h341.333v-128h85.333v170.667h85.333v-170.667h85.333v341.333zM426.667 448h-85.333v128h85.333zM682.667 448h-85.333v128h85.333z" fill="currentColor" />
  </g>
</svg>
