<?xml version="1.0" encoding="utf-8"?>
<svg xmlns="http://www.w3.org/2000/svg" viewBox="0 0 1024 1024" width="24" height="24">
  <g transform="scale(1, -1) translate(0, -960)">
    <path d="M853.333 362.667c-3.925-2.731-85.333-88.875-85.333-149.333 0-63.744 40.491-104.448 85.333-106.667 38.656-1.877 85.333 38.016 85.333 106.667 0 64-81.408 146.603-85.333 149.333zM409.003 106.667c16.128-16.128 37.547-25.003 60.331-25.003s44.203 8.875 60.331 25.003l298.667 298.667-456.832 456.832-60.331-60.331 97.835-97.835-238.336-238.336c-16.128-16.128-25.003-37.547-25.003-60.331s8.875-44.203 25.003-60.331l238.336-238.336zM469.333 643.669l238.336-238.336h-476.672l238.336 238.336z" fill="currentColor" />
  </g>
</svg>
