<?xml version="1.0" encoding="utf-8"?>
<svg xmlns="http://www.w3.org/2000/svg" viewBox="0 0 1024 1024" width="24" height="24">
  <g transform="scale(1, -1) translate(0, -960)">
    <path d="M543.573 861.013c-7.834 8.596-19.076 13.969-31.573 13.969s-23.74-5.373-31.543-13.935l-0.030-0.034-384-426.667c-7.055-7.59-11.384-17.796-11.384-29.014 0-23.564 19.103-42.667 42.667-42.667 0.102 0 0.204 0 0.306 0.001h85.317v-298.667c0-23.564 19.103-42.667 42.667-42.667v0h512c23.564 0 42.667 19.103 42.667 42.667v0 298.667h85.333c23.564 0 42.667 19.103 42.667 42.667v0c0.001 0.093 0.001 0.204 0.001 0.314 0 11.068-4.214 21.151-11.125 28.733l0.030-0.034z" fill="currentColor" />
  </g>
</svg>
