<?xml version="1.0" encoding="utf-8"?>
<svg xmlns="http://www.w3.org/2000/svg" viewBox="0 0 1024 1024" width="24" height="24">
  <g transform="scale(1, -1) translate(0, -960)">
    <path d="M213.333 21.333h597.333c47.061 0 85.333 38.272 85.333 85.333v597.333c0 47.061-38.272 85.333-85.333 85.333h-85.333v85.333h-85.333v-85.333h-256v85.333h-85.333v-85.333h-85.333c-47.061 0-85.333-38.272-85.333-85.333v-597.333c0-47.061 38.272-85.333 85.333-85.333zM418.091 107.221h-76.757v76.757l212.352 212.053 76.757-76.757-212.352-212.053zM666.581 355.413l-76.757 76.757 58.539 58.496 76.757-76.757-58.539-58.496zM213.333 661.333h597.333v-85.333h-597.333v85.333z" fill="currentColor" />
  </g>
</svg>
