<?xml version="1.0" encoding="utf-8"?>
<svg xmlns="http://www.w3.org/2000/svg" viewBox="0 0 1024 1024" width="24" height="24">
  <g transform="scale(1, -1) translate(0, -960)">
    <path d="M532.48 832l-202.667-202.667-201.813-206.507c-15.335-15.424-24.814-36.685-24.814-60.16s9.479-44.736 24.818-60.164l183.463-183.463c7.667-7.606 18.211-12.323 29.857-12.373h512.010v85.333h-298.667l308.053 308.053c15.462 15.446 25.027 36.792 25.027 60.373s-9.565 44.928-25.026 60.373l-0.001 0.001-209.493 211.2c-15.446 15.462-36.792 25.027-60.373 25.027s-44.928-9.565-60.373-25.026l-0.001-0.001zM358.827 192l-170.667 170.667 234.24 238.507 211.2-211.2-194.56-194.56-2.987-3.413z" fill="currentColor" />
  </g>
</svg>
