<?xml version="1.0" encoding="utf-8"?>
<svg xmlns="http://www.w3.org/2000/svg" viewBox="0 0 1024 1024" width="24" height="24">
  <g transform="scale(1, -1) translate(0, -960)">
    <path d="M874.112 228.693l-173.44 157.696c-7.556 6.886-17.648 11.104-28.726 11.104-12.006 0-22.855-4.954-30.614-12.929l-0.009-0.010-102.101-105.003c-24.576 4.693-73.984 20.096-124.843 70.827-50.859 50.901-66.261 100.437-70.827 124.843l104.917 102.144c7.994 7.763 12.955 18.613 12.955 30.621 0 11.081-4.224 21.176-11.15 28.761l-157.623 173.364c-7.835 8.603-19.082 13.981-31.585 13.981-10.629 0-20.351-3.887-27.82-10.317l0.056 0.047-92.587-79.403c-7.131-7.156-11.737-16.831-12.368-27.575l-0.005-0.116c-0.64-10.667-12.843-263.339 183.083-459.349 170.923-170.88 385.024-183.381 443.989-183.381 8.619 0 13.909 0.256 15.317 0.341 10.856 0.626 20.524 5.253 27.646 12.414l0.002 0.002 79.36 92.629c6.423 7.409 10.337 17.145 10.337 27.795 0 12.477-5.372 23.699-13.929 31.481l-0.035 0.031z" fill="currentColor" />
  </g>
</svg>
