<?xml version="1.0" encoding="utf-8"?>
<svg xmlns="http://www.w3.org/2000/svg" viewBox="0 0 1024 1024" width="24" height="24">
  <g transform="scale(1, -1) translate(0, -960)">
    <path d="M617.856 362.027c-10.155 0-16.768-0.896-20.608-1.792v-131.797c3.883-0.896 10.112-0.896 15.829-0.896 41.216-0.299 68.139 22.4 68.139 70.528 0.299 41.856-24.235 63.957-63.36 63.957zM597.333 874.667h-341.333c-47.128 0-85.333-38.205-85.333-85.333v0-682.667c0-47.128 38.205-85.333 85.333-85.333v0h512c47.128 0 85.333 38.205 85.333 85.333v0 512l-256 256zM472.149 194.091l-2.987 77.099c-1.040 24.308-1.689 53.265-1.791 82.352l-0.001 0.421h-0.896c-8.405-34.145-16.090-60.206-24.683-85.851l2.283 7.856-24.491-78.592h-35.584l-21.504 77.995c-5.805 19.376-12.132 45.832-17.315 72.697l-0.947 5.895h-0.555c-1.195-27.221-2.091-58.283-3.584-83.371l-3.584-76.501h-42.155l12.843 201.429h60.672l19.712-67.243c6.272-23.296 12.587-48.427 17.024-72.021h0.896c8.499 36.111 15.075 60.321 22.165 84.311l-3.051-12.033 21.504 66.944h59.477l11.093-201.429h-44.544zM696.149 217.984c-21.248-17.621-53.461-25.984-92.928-25.984-0.921-0.008-2.010-0.012-3.099-0.012-17.135 0-34.016 1.090-50.577 3.203l1.964-0.205v197.803c17.594 2.696 37.892 4.235 58.55 4.235 1.061 0 2.122-0.004 3.181-0.012l-0.162 0.001c38.229 0 63.061-6.869 82.475-21.547 20.907-15.531 34.091-40.32 34.091-75.861 0-38.571-14.080-65.195-33.493-81.621zM597.333 576h-42.667v213.333l213.333-213.333h-170.667z" fill="currentColor" />
  </g>
</svg>
