<?xml version="1.0" encoding="utf-8"?>
<svg xmlns="http://www.w3.org/2000/svg" viewBox="0 0 1024 1024" width="24" height="24">
  <g transform="scale(1, -1) translate(0, -960)">
    <path d="M554.667 618.667h-85.333v-213.333h213.333v85.333h-128zM853.291 448c0 125.995-68.779 235.947-170.624 295.083v88.917c0 23.564-19.103 42.667-42.667 42.667v0h-256c-23.564 0-42.667-19.103-42.667-42.667v0-88.875c-101.845-59.136-170.624-169.131-170.624-295.125 0.111-127.928 70.555-239.378 174.747-297.78l1.723-0.887h-5.845v-87.083c0-23.564 19.103-42.667 42.667-42.667v0h256c23.564 0 42.667 19.103 42.667 42.667v0 87.083h-5.931c105.967 59.248 176.454 170.714 176.555 298.652v0.014zM511.957 192.043c-141.284 0.17-255.769 114.67-255.915 255.943v0.014c0.146 141.288 114.63 255.787 255.898 255.957h0.016c141.227 0 256-114.816 256-255.957-0.146-141.318-114.679-255.836-255.988-255.957h-0.012z" fill="currentColor" />
  </g>
</svg>
