<?xml version="1.0" encoding="utf-8"?>
<svg xmlns="http://www.w3.org/2000/svg" viewBox="0 0 1024 1024" width="24" height="24">
  <g transform="scale(1, -1) translate(0, -960)">
    <path d="M789.333 746.667l-52.224 104.405c-7.156 14.094-21.541 23.586-38.143 23.595h-373.932c-16.603-0.009-30.988-9.501-38.032-23.352l-0.112-0.243-52.224-104.405h-106.667v-85.333h768v85.333h-106.667zM287.317 57.941c3.029-20.992 21.035-36.608 42.283-36.608h364.843c0.002 0 0.004 0 0.006 0 21.427 0 39.165 15.794 42.206 36.375l0.028 0.233 73.984 518.059h-597.333l73.984-518.059zM682.667 448l-30.464-213.333h-280.405l-30.464 213.333h341.333z" fill="currentColor" />
  </g>
</svg>
