<?xml version="1.0" encoding="utf-8"?>
<svg xmlns="http://www.w3.org/2000/svg" viewBox="0 0 1024 1024" width="24" height="24">
  <g transform="scale(1, -1) translate(0, -960)">
    <path d="M938.069 544.427c-0.134 1.775-0.255 3.069-0.394 4.358l0.053-0.603c-8.049 111.082-100.002 198.192-212.365 198.485h-426.696c-0.285 0.001-0.621 0.002-0.958 0.002-113.618 0-206.366-89.356-211.801-201.627l-0.019-0.487c-0.427-3.371-0.555-6.869-0.555-10.795v-277.76c0-39.467 15.915-77.995 43.605-105.643 27.118-26.946 64.469-43.622 105.715-43.691h0.013c76.8 0 106.837 42.667 149.333 128 6.229 12.459 42.325 85.333 128 85.333 85.163 0 121.728-72.832 128-85.333 42.837-85.333 72.533-128 149.333-128 39.467 0 77.995 15.915 105.643 43.605 26.946 27.118 43.622 64.469 43.691 105.715v277.346c0 4.053-0.171 7.68-0.597 11.093zM298.667 446.677c-0.574-0.014-1.251-0.022-1.929-0.022-47.128 0-85.333 38.205-85.333 85.333s38.205 85.333 85.333 85.333c0.663 0 1.325-0.008 1.985-0.023l-0.098 0.002c46.31-1.056 83.447-38.848 83.447-85.312 0-46.45-37.113-84.232-83.304-85.31l-0.1-0.002zM725.333 660.011c23.564 0 42.667-19.103 42.667-42.667s-19.103-42.667-42.667-42.667v0c-23.564 0-42.667 19.103-42.667 42.667s19.103 42.667 42.667 42.667v0zM640 489.344c-23.564 0-42.667 19.103-42.667 42.667s19.103 42.667 42.667 42.667v0c23.564 0 42.667-19.103 42.667-42.667s-19.103-42.667-42.667-42.667v0zM725.333 404.011c-23.564 0-42.667 19.103-42.667 42.667s19.103 42.667 42.667 42.667v0c23.564 0 42.667-19.103 42.667-42.667s-19.103-42.667-42.667-42.667v0zM810.667 489.344c-23.564 0-42.667 19.103-42.667 42.667s19.103 42.667 42.667 42.667v0c23.564 0 42.667-19.103 42.667-42.667s-19.103-42.667-42.667-42.667v0z" fill="currentColor" />
  </g>
</svg>
