<?xml version="1.0" encoding="utf-8"?>
<svg xmlns="http://www.w3.org/2000/svg" viewBox="0 0 1024 1024" width="24" height="24">
  <g transform="scale(1, -1) translate(0, -960)">
    <path d="M512 21.333c0.047 0 0.104 0 0.16 0 55.241 0 102.254 35.229 119.798 84.445l0.276 0.888h-240.469c17.821-50.105 64.834-85.333 120.075-85.333 0.056 0 0.113 0 0.169 0h-0.009zM883.499 264.832l-72.832 72.832v195.669c0 137.259-93.227 252.843-219.52 287.701-12.501 31.445-43.051 53.632-79.147 53.632s-66.645-22.187-79.147-53.675c-126.293-34.816-219.52-150.4-219.52-287.659v-195.669l-72.832-72.832c-7.723-7.702-12.501-18.354-12.501-30.121 0-0.015 0-0.031 0-0.046v0.002-42.667c0-23.564 19.103-42.667 42.667-42.667v0h682.667c23.564 0 42.667 19.103 42.667 42.667v0 42.667c0 0.013 0 0.028 0 0.044 0 11.768-4.778 22.419-12.5 30.12l-0.001 0.001zM682.667 448h-128v-128h-85.333v128h-128v85.333h128v128h85.333v-128h128v-85.333z" fill="currentColor" />
  </g>
</svg>
