<?xml version="1.0" encoding="utf-8"?>
<svg xmlns="http://www.w3.org/2000/svg" viewBox="0 0 1024 1024" width="24" height="24">
  <g transform="scale(1, -1) translate(0, -960)">
    <path d="M110.933 401.792l147.285-64.469 424.448 231.552-256-298.667 366.933-167.083c5.040-2.265 10.924-3.584 17.117-3.584 22.573 0 41.052 17.53 42.566 39.719l0.007 0.132 42.667 640c0.056 0.819 0.088 1.774 0.088 2.737 0 23.611-19.141 42.752-42.752 42.752-6.569 0-12.791-1.481-18.352-4.128l0.259 0.111-725.333-341.333c-14.559-7.025-24.426-21.673-24.426-38.625 0-17.365 10.353-32.312 25.223-39.005l0.27-0.109zM341.333 14.208l203.776 98.816-203.776 95.061z" fill="currentColor" />
  </g>
</svg>
