<?xml version="1.0" encoding="utf-8"?>
<svg xmlns="http://www.w3.org/2000/svg" viewBox="0 0 1024 1024" width="24" height="24">
  <g transform="scale(1, -1) translate(0, -960)">
    <path d="M512 874.667c-235.264 0-426.667-191.403-426.667-426.667s191.403-426.667 426.667-426.667 426.667 191.403 426.667 426.667-191.403 426.667-426.667 426.667zM554.667 192h-85.333v85.333h85.333v-85.333zM596.309 400.427c-8.363-6.741-16.427-13.184-22.827-19.584-17.408-17.365-18.773-33.152-18.816-33.835v-5.675h-85.333v7.125c0 5.035 1.237 50.219 43.776 92.757 8.32 8.32 18.645 16.768 29.483 25.557 31.317 25.387 51.883 43.904 51.883 69.419-1.062 44.749-37.59 80.62-82.496 80.62-44.921 0-81.458-35.894-82.495-80.566l-0.002-0.096h-85.333c0 92.544 75.307 167.851 167.851 167.851s167.851-75.307 167.851-167.851c0-68.139-50.304-108.8-83.541-135.723z" fill="currentColor" />
  </g>
</svg>
