<?xml version="1.0" encoding="utf-8"?>
<svg xmlns="http://www.w3.org/2000/svg" viewBox="0 0 1024 1024" width="24" height="24">
  <g transform="scale(1, -1) translate(0, -960)">
    <path d="M919.296 463.104l-108.629 108.587v153.643c0 11.782-9.551 21.333-21.333 21.333v0h-153.643l-108.629 108.629c-3.86 3.859-9.193 6.246-15.083 6.246s-11.222-2.387-15.083-6.246l-108.587-108.629h-153.643c-11.782 0-21.333-9.551-21.333-21.333v0-153.643l-108.629-108.629c-3.859-3.86-6.246-9.193-6.246-15.083s2.387-11.222 6.246-15.083l108.629-108.587v-153.643c0-11.782 9.551-21.333 21.333-21.333v0h153.643l108.629-108.629c3.86-3.859 9.193-6.246 15.083-6.246s11.222 2.387 15.083 6.246l108.587 108.629h153.643c11.782 0 21.333 9.551 21.333 21.333v0 153.643l108.629 108.629c3.859 3.86 6.246 9.193 6.246 15.083s-2.387 11.222-6.246 15.083v0zM512 618.667c94.257 0 170.667-76.41 170.667-170.667s-76.41-170.667-170.667-170.667v0z" fill="currentColor" />
  </g>
</svg>
