<?xml version="1.0" encoding="utf-8"?>
<svg xmlns="http://www.w3.org/2000/svg" viewBox="0 0 1024 1024" width="24" height="24">
  <g transform="scale(1, -1) translate(0, -960)">
    <path d="M931.925 694.699c-4.482 10.415-10.584 19.307-18.089 26.793l-0.002 0.002c-15.395 15.547-36.744 25.173-60.341 25.173-0.056 0-0.112 0-0.169 0h-511.991c-12.672 0-24.661-5.632-32.811-15.317l-213.333-256c-13.184-15.829-13.184-38.827 0-54.656l213.333-256c8.149-9.728 20.139-15.36 32.811-15.36h512c0.115-0.001 0.251-0.001 0.388-0.001 23.356 0 44.495 9.493 59.769 24.83l0.003 0.003c15.547 15.395 25.173 36.744 25.173 60.341 0 0.056 0 0.112 0 0.169v-0.009 426.667c0 11.349-2.219 22.4-6.741 33.365zM755.499 350.165l-60.331-60.331-97.835 97.835-97.835-97.835-60.331 60.331 97.835 97.835-97.835 97.835 60.331 60.331 97.835-97.835 97.835 97.835 60.331-60.331-97.835-97.835 97.835-97.835z" fill="currentColor" />
  </g>
</svg>
