<?xml version="1.0" encoding="utf-8"?>
<svg xmlns="http://www.w3.org/2000/svg" viewBox="0 0 1024 1024" width="24" height="24">
  <g transform="scale(1, -1) translate(0, -960)">
    <path d="M519.936 339.115c-26.325 0-41.685-25.045-41.685-58.581 0-33.749 15.829-57.6 41.941-57.6 26.325 0 41.429 25.088 41.429 58.624 0 30.976-14.848 57.557-41.685 57.557zM597.333 874.667h-341.333c-47.128 0-85.333-38.205-85.333-85.333v0-682.667c0-47.128 38.205-85.333 85.333-85.333v0h512c47.128 0 85.333 38.205 85.333 85.333v0 512l-256 256zM390.613 215.296c-18.176-15.104-45.781-22.229-79.531-22.229-20.267 0-34.56 1.28-44.288 2.56v169.429c14.912 2.263 32.118 3.555 49.625 3.555 1.079 0 2.156-0.005 3.233-0.015l-0.165 0.001c32.768 0 54.016-5.888 70.613-18.432 17.92-13.312 29.184-34.56 29.184-64.939 0-33.067-12.032-55.851-28.672-69.931zM518.187 192c-51.2 0-81.109 38.656-81.109 87.808 0 51.669 32.981 90.283 83.925 90.283 52.949 0 81.877-39.637 81.877-87.253-0.043-56.533-34.347-90.837-84.693-90.837zM716.8 224.512c11.733 0 24.789 2.603 32.512 5.632l5.888-30.421c-7.168-3.584-23.296-7.424-44.245-7.424-59.605 0-90.325 37.077-90.325 86.229 0 58.837 41.941 91.563 94.165 91.563 20.224 0 35.541-4.096 42.453-7.68l-7.936-30.976c-9.531 4.048-20.616 6.402-32.25 6.402-0.182 0-0.364-0.001-0.546-0.002h0.028c-30.976 0-55.040-18.688-55.040-57.088 0-34.517 20.48-56.235 55.296-56.235zM597.333 576h-42.667v213.333l213.333-213.333h-170.667zM323.584 338.645c-8.661 0-14.293-0.768-17.621-1.536v-112.853c3.328-0.768 8.704-0.768 13.525-0.768 35.328-0.256 58.325 19.157 58.325 60.373 0.256 35.84-20.693 54.784-54.229 54.784z" fill="currentColor" />
  </g>
</svg>
