<?xml version="1.0" encoding="utf-8"?>
<svg xmlns="http://www.w3.org/2000/svg" viewBox="0 0 1024 1024" width="24" height="24">
  <g transform="scale(1, -1) translate(0, -960)">
    <path d="M899.584 835.669c-50.261 50.304-137.984 50.304-188.245 0l-357.504-357.504c-7.729-7.716-12.51-18.382-12.51-30.165s4.781-22.449 12.509-30.165l128.001-128.001c7.706-7.749 18.376-12.545 30.165-12.545s22.459 4.796 30.163 12.544l357.506 357.506c24.055 24.103 38.93 57.376 38.93 94.123 0 36.789-14.909 70.096-39.015 94.208v0zM839.339 707.669l-327.339-327.339-67.669 67.669 327.339 327.339c8.764 8.39 20.674 13.554 33.79 13.554 13.16 0 25.105-5.199 33.895-13.655l-0.016 0.015c8.618-8.662 13.945-20.605 13.945-33.792s-5.327-25.13-13.947-33.794l0.002 0.002zM341.333 320c-53.973 27.051-149.333 0-149.333-85.333 0-51.072 21.333-85.333-64-128 0 0 138.667-96 234.667 0 54.357 54.357 63.744 170.667-21.333 213.333z" fill="currentColor" />
  </g>
</svg>
