<?xml version="1.0" encoding="utf-8"?>
<svg xmlns="http://www.w3.org/2000/svg" viewBox="0 0 1024 1024" width="24" height="24">
  <g transform="scale(1, -1) translate(0, -960)">
    <path d="M762.325 853.163c-15.147 26.624-58.923 26.581-74.069 0l-170.624-298.667c-3.533-6.079-5.618-13.377-5.618-21.163 0-23.559 19.095-42.659 42.652-42.667h341.334c23.55 0.050 42.622 19.152 42.622 42.709 0 7.768-2.074 15.051-5.697 21.326l0.11-0.206-170.709 298.667zM128 21.333h298.667c23.564 0 42.667 19.103 42.667 42.667v0 298.667c0 23.564-19.103 42.667-42.667 42.667v0h-298.667c-23.564 0-42.667-19.103-42.667-42.667v0-298.667c0-23.564 19.103-42.667 42.667-42.667v0zM746.667 405.333c-105.856 0-192-86.144-192-192s86.144-192 192-192 192 86.144 192 192-86.144 192-192 192z" fill="currentColor" />
  </g>
</svg>
