<?xml version="1.0" encoding="utf-8"?>
<svg xmlns="http://www.w3.org/2000/svg" viewBox="0 0 1024 1024" width="24" height="24">
  <g transform="scale(1, -1) translate(0, -960)">
    <path d="M896 746.667c0 47.128-38.205 85.333-85.333 85.333v0h-597.333c-47.128 0-85.333-38.205-85.333-85.333v0-597.333c0-47.128 38.205-85.333 85.333-85.333v0h597.333c47.128 0 85.333 38.205 85.333 85.333v0 597.333zM691.499 328.832l-60.331-60.331-119.168 119.168-119.168-119.168-60.331 60.331 119.168 119.168-119.168 119.168 60.331 60.331 119.168-119.168 119.168 119.168 60.331-60.331-119.168-119.168 119.168-119.168z" fill="currentColor" />
  </g>
</svg>
