<?xml version="1.0" encoding="utf-8"?>
<svg xmlns="http://www.w3.org/2000/svg" viewBox="0 0 1024 1024" width="24" height="24">
  <g transform="scale(1, -1) translate(0, -960)">
    <path d="M554.667 256.299c0-82.517 67.115-149.632 149.632-149.632s149.632 67.115 149.632 149.632c0 7.552-1.152 14.805-2.261 22.059h1.664v425.643h85.333v85.333h-128c-23.564 0-42.667-19.103-42.667-42.667v0-355.541c-18.611 9.213-40.508 14.649-63.664 14.763h-0.038c-82.595-0.073-149.535-66.997-149.632-149.58v-0.009zM85.333 746.667h597.333v-85.333h-597.333zM85.333 576h597.333v-85.333h-597.333zM85.333 405.333h384v-85.333h-384zM85.333 234.667h384v-85.333h-384z" fill="currentColor" />
  </g>
</svg>
