<?xml version="1.0" encoding="utf-8"?>
<svg xmlns="http://www.w3.org/2000/svg" viewBox="0 0 1024 1024" width="24" height="24">
  <g transform="scale(1, -1) translate(0, -960)">
    <path d="M853.333 704h-85.333v85.333c0 47.061-38.272 85.333-85.333 85.333h-341.333c-47.061 0-85.333-38.272-85.333-85.333v-85.333h-85.333c-47.061 0-85.333-38.272-85.333-85.333v-512c0-47.061 38.272-85.333 85.333-85.333h682.667c47.061 0 85.333 38.272 85.333 85.333v512c0 47.061-38.272 85.333-85.333 85.333zM341.333 789.333h341.333v-85.333h-341.333v85.333zM256 149.333c-23.564 0-42.667 19.103-42.667 42.667s19.103 42.667 42.667 42.667v0c23.564 0 42.667-19.103 42.667-42.667s-19.103-42.667-42.667-42.667v0zM256 277.333c-23.564 0-42.667 19.103-42.667 42.667s19.103 42.667 42.667 42.667v0c23.564 0 42.667-19.103 42.667-42.667s-19.103-42.667-42.667-42.667v0zM384 149.333c-23.564 0-42.667 19.103-42.667 42.667s19.103 42.667 42.667 42.667v0c23.564 0 42.667-19.103 42.667-42.667s-19.103-42.667-42.667-42.667v0zM384 277.333c-23.564 0-42.667 19.103-42.667 42.667s19.103 42.667 42.667 42.667v0c23.564 0 42.667-19.103 42.667-42.667s-19.103-42.667-42.667-42.667v0zM512 149.333c-23.564 0-42.667 19.103-42.667 42.667s19.103 42.667 42.667 42.667v0c23.564 0 42.667-19.103 42.667-42.667s-19.103-42.667-42.667-42.667v0zM512 277.333c-23.564 0-42.667 19.103-42.667 42.667s19.103 42.667 42.667 42.667v0c23.564 0 42.667-19.103 42.667-42.667s-19.103-42.667-42.667-42.667v0zM640 149.333c-23.564 0-42.667 19.103-42.667 42.667s19.103 42.667 42.667 42.667v0c23.564 0 42.667-19.103 42.667-42.667s-19.103-42.667-42.667-42.667v0zM640 277.333c-23.564 0-42.667 19.103-42.667 42.667s19.103 42.667 42.667 42.667v0c23.564 0 42.667-19.103 42.667-42.667s-19.103-42.667-42.667-42.667v0zM768 149.333c-23.564 0-42.667 19.103-42.667 42.667s19.103 42.667 42.667 42.667v0c23.564 0 42.667-19.103 42.667-42.667s-19.103-42.667-42.667-42.667v0zM768 277.333c-23.564 0-42.667 19.103-42.667 42.667s19.103 42.667 42.667 42.667v0c23.564 0 42.667-19.103 42.667-42.667s-19.103-42.667-42.667-42.667v0zM853.333 448h-682.667v170.667h682.667v-170.667zM597.333 576h85.333v-85.333h-85.333zM725.333 576h85.333v-85.333h-85.333z" fill="currentColor" />
  </g>
</svg>
