<?xml version="1.0" encoding="utf-8"?>
<svg xmlns="http://www.w3.org/2000/svg" viewBox="0 0 1024 1024" width="24" height="24">
  <g transform="scale(1, -1) translate(0, -960)">
    <path d="M213.333 21.333h597.333c47.128 0 85.333 38.205 85.333 85.333v0 469.333c0 23.564-19.103 42.667-42.667 42.667v0h-128v33.152c0 111.317-81.195 210.987-192 221.781-6.333 0.667-13.682 1.047-21.12 1.047-117.857 0-213.414-95.475-213.547-213.301v-42.68h-128c-23.564 0-42.667-19.103-42.667-42.667v0-469.333c0-47.128 38.205-85.333 85.333-85.333v0zM725.333 533.333v-85.333h-85.333v85.333h85.333zM384 661.333c0 70.571 57.429 128 128 128s128-57.429 128-128v-42.667h-256v42.667zM298.667 533.333h85.333v-85.333h-85.333v85.333z" fill="currentColor" />
  </g>
</svg>
