<?xml version="1.0" encoding="utf-8"?>
<svg xmlns="http://www.w3.org/2000/svg" viewBox="0 0 1024 1024" width="24" height="24">
  <g transform="scale(1, -1) translate(0, -960)">
    <path d="M803.925 307.371c4.222-0.923 9.072-1.451 14.046-1.451 32.076 0 59.016 21.984 66.577 51.707l0.102 0.475v0.043c1.278 4.954 2.012 10.641 2.012 16.499 0 32.085-22.011 59.029-51.757 66.556l-0.474 0.102-195.243 48.341-219.989 290.731-94.891 9.6 125.056-281.131-189.824 19.157-98.645 163.371-58.88-13.227 52.907-235.52 649.003-135.253zM128 192h768v-85.333h-768z" fill="currentColor" />
  </g>
</svg>
