<?xml version="1.0" encoding="utf-8"?>
<svg xmlns="http://www.w3.org/2000/svg" viewBox="0 0 1024 1024" width="24" height="24">
  <g transform="scale(1, -1) translate(0, -960)">
    <path d="M213.333 746.667v-597.333c0-23.564 19.103-42.667 42.667-42.667v0h128v85.333h-85.333v512h85.333v85.333h-128c-23.564 0-42.667-19.103-42.667-42.667v0zM820.992 788.053l-341.333 85.333c-3.1 0.806-6.659 1.268-10.325 1.268-23.56 0-42.66-19.096-42.667-42.654v-768.001c0-0.029 0-0.063 0-0.098 0-23.517 19.064-42.581 42.581-42.581 3.698 0 7.286 0.471 10.707 1.357l-0.296-0.065 341.333 85.333c18.717 4.784 32.336 21.494 32.341 41.386v597.334c-0.006 19.893-13.624 36.603-32.046 41.322l-0.296 0.064zM640 439.979c-1.049-22.752-19.75-40.801-42.667-40.801s-41.617 18.049-42.663 40.707l-0.003 0.094v16.085c0.012 23.555 19.11 42.645 42.667 42.645 23.564 0 42.667-19.103 42.667-42.667 0-0.007 0-0.015 0-0.022v0.001-16.043z" fill="currentColor" />
  </g>
</svg>
