<?xml version="1.0" encoding="utf-8"?>
<svg xmlns="http://www.w3.org/2000/svg" viewBox="0 0 1024 1024" width="24" height="24">
  <g transform="scale(1, -1) translate(0, -960)">
    <path d="M896 789.333h-768c-23.564 0-42.667-19.103-42.667-42.667v0-597.333c0-47.128 38.205-85.333 85.333-85.333v0h682.667c47.128 0 85.333 38.205 85.333 85.333v0 597.333c0 23.564-19.103 42.667-42.667 42.667v0zM512 405.333c-141.184 0-256 114.816-256 256h85.333c0-94.123 76.544-170.667 170.667-170.667s170.667 76.544 170.667 170.667h85.333c0-141.184-114.816-256-256-256z" fill="currentColor" />
  </g>
</svg>
