<?xml version="1.0" encoding="utf-8"?>
<svg xmlns="http://www.w3.org/2000/svg" viewBox="0 0 1024 1024" width="24" height="24">
  <g transform="scale(1, -1) translate(0, -960)">
    <path d="M512 128c0-35.346-28.654-64-64-64s-64 28.654-64 64c0 35.346 28.654 64 64 64s64-28.654 64-64zM810.667 128c0-35.346-28.654-64-64-64s-64 28.654-64 64c0 35.346 28.654 64 64 64s64-28.654 64-64zM896 661.333h-583.083l-49.237 118.187c-13.147 31.074-43.381 52.48-78.613 52.48-0.067 0-0.135 0-0.202 0h-99.531v-85.333h99.584l202.368-485.76c6.613-15.872 22.187-26.24 39.381-26.24h341.333c17.792 0 33.707 11.051 39.979 27.648l128 341.333c1.693 4.425 2.674 9.543 2.674 14.891 0 23.585-19.079 42.714-42.645 42.794h-0.008zM725.333 405.333h-85.333v-85.333h-85.333v85.333h-85.333v85.333h85.333v85.333h85.333v-85.333h85.333v-85.333z" fill="currentColor" />
  </g>
</svg>
