<?xml version="1.0" encoding="utf-8"?>
<svg xmlns="http://www.w3.org/2000/svg" viewBox="0 0 1024 1024" width="24" height="24">
  <g transform="scale(1, -1) translate(0, -960)">
    <path d="M725.205 106.667c-38.357 0-54.955 13.269-80.043 33.323-29.013 23.168-65.067 52.011-133.419 52.011-68.309 0-104.363-28.843-133.333-52.053-25.045-20.011-41.6-33.28-79.957-33.28-38.272 0-54.827 13.269-79.872 33.28-28.971 23.211-64.939 52.053-133.248 52.053v-85.333c38.315 0 54.869-13.269 79.915-33.28 28.971-23.211 64.981-52.053 133.205-52.053 68.309 0 104.32 28.843 133.291 52.011 25.088 20.053 41.643 33.323 80 33.323 38.4 0 55.936-13.995 80.128-33.323 28.971-23.168 65.024-52.011 133.333-52.011s104.363 28.843 133.333 52.011c24.192 19.328 41.728 33.323 80.128 33.323v85.333c-68.352 0-104.405-28.843-133.419-52.011-25.088-20.053-41.685-33.323-80.043-33.323zM256 597.333l-85.333-21.333 85.333-341.333h42.453c68.309 0 104.32 28.843 133.291 52.011 25.088 20.053 41.643 33.323 80 33.323 38.4 0 55.936-13.995 80.128-33.323 28.971-23.168 65.024-52.011 133.333-52.011h42.795l1.152 4.565 84.181 336.768-85.333 21.333v149.291c0 0.005 0 0.011 0 0.017 0 20.605-14.606 37.798-34.029 41.792l-0.275 0.047-179.029 35.797v50.389h-85.333v-50.389l-179.029-35.797c-19.698-4.041-34.304-21.234-34.304-41.839 0-0.006 0-0.012 0-0.018v0.001-149.291zM341.333 711.723l170.667 34.133 170.667-34.133v-93.056l-170.667 42.667-170.667-42.667v93.056z" fill="currentColor" />
  </g>
</svg>
