<?xml version="1.0" encoding="utf-8"?>
<svg xmlns="http://www.w3.org/2000/svg" viewBox="0 0 1024 1024" width="24" height="24">
  <g transform="scale(1, -1) translate(0, -960)">
    <path d="M804.352 740.352c-1.753 36.486-17.066 69.089-40.968 93.149l0.008-0.008c-25.788 26.065-61.563 42.205-101.107 42.205-78.539 0-142.208-63.669-142.208-142.208 0-39.555 16.149-75.338 42.214-101.115l0.013-0.013-234.624-234.667c-25.79 26.078-61.573 42.227-101.128 42.227-78.539 0-142.208-63.669-142.208-142.208 0-39.544 16.14-75.318 42.193-101.094l0.012-0.012c25.856-25.856 59.307-39.168 93.141-40.96 1.792-33.835 15.104-67.243 40.96-93.141 25.788-26.065 61.563-42.205 101.107-42.205 78.539 0 142.208 63.669 142.208 142.208 0 39.555-16.149 75.338-42.214 101.115l-0.013 0.013 234.624 234.624c25.79-26.078 61.573-42.227 101.128-42.227 78.539 0 142.208 63.669 142.208 142.208 0 39.544-16.14 75.318-42.193 101.094l-0.012 0.012c-24.039 23.924-56.647 39.255-92.819 40.99l-0.322 0.012z" fill="currentColor" />
  </g>
</svg>
