<?xml version="1.0" encoding="utf-8"?>
<svg xmlns="http://www.w3.org/2000/svg" viewBox="0 0 1024 1024" width="24" height="24">
  <g transform="scale(1, -1) translate(0, -960)">
    <path d="M213.333 448h-42.667v-341.333c0-47.128 38.205-85.333 85.333-85.333v0h213.333v426.667h-256zM768 448h-213.333v-426.667h213.333c47.128 0 85.333 38.205 85.333 85.333v0 341.333h-85.333zM801.749 661.333c5.675 18.141 8.944 39.001 8.944 60.624 0 1.187-0.010 2.372-0.029 3.555l0.002-0.178c0 82.347-66.987 149.333-149.333 149.333-69.205 0-115.413-63.232-145.237-131.627-29.397 64.64-77.952 131.627-153.429 131.627-82.347 0-149.333-66.987-149.333-149.333 0-25.429 3.371-46.464 8.917-64h-136.917v-170.667h384v85.333h85.333v-85.333h384v170.667h-136.917zM298.667 725.333c0 35.285 28.715 64 64 64 37.888 0 73.131-65.067 93.781-128h-115.115c-15.957 0-42.667 0-42.667 64zM661.333 789.333c35.285 0 64-28.715 64-64 0-64-26.709-64-42.667-64h-105.685c21.76 67.243 53.376 128 84.352 128z" fill="currentColor" />
  </g>
</svg>
