<?xml version="1.0" encoding="utf-8"?>
<svg xmlns="http://www.w3.org/2000/svg" viewBox="0 0 1024 1024" width="24" height="24">
  <g transform="scale(1, -1) translate(0, -960)">
    <path d="M128 448c0-70.571 57.429-128 128-128 33.877 0 64.512 13.44 87.424 34.987l255.616-146.091c-0.768-5.547-1.707-11.093-1.707-16.896 0-70.571 57.429-128 128-128s128 57.429 128 128-57.429 128-128 128c-33.877 0-64.512-13.44-87.424-34.987l-255.616 146.048c0.768 5.589 1.707 11.136 1.707 16.939s-0.939 11.349-1.707 16.939l255.616 146.048c22.912-21.547 53.547-34.987 87.424-34.987 70.571 0 128 57.429 128 128s-57.429 128-128 128-128-57.429-128-128c0-5.803 0.939-11.349 1.707-16.939l-255.616-146.048c-22.72 21.615-53.512 34.93-87.413 34.987h-0.011c-70.571 0-128-57.429-128-128z" fill="currentColor" />
  </g>
</svg>
