<?xml version="1.0" encoding="utf-8"?>
<svg xmlns="http://www.w3.org/2000/svg" viewBox="0 0 1024 1024" width="24" height="24">
  <g transform="scale(1, -1) translate(0, -960)">
    <path d="M853.333 704.213h-42.667v-512h42.667c47.061 0 85.333 38.272 85.333 85.333v341.333c0 47.019-38.272 85.333-85.333 85.333zM725.333 192.213v597.12h127.787v85.333h-341.333v-85.333h128.213v-85.12h-469.333c-47.061 0-85.333-38.272-85.333-85.333v-341.333c0-47.061 38.272-85.333 85.333-85.333h469.333v-85.547h-128.213v-85.333h341.333v85.333h-127.787v85.547zM256 362.88v170.667h384v-170.667h-384z" fill="currentColor" />
  </g>
</svg>
