<?xml version="1.0" encoding="utf-8"?>
<svg xmlns="http://www.w3.org/2000/svg" viewBox="0 0 1024 1024" width="24" height="24">
  <g transform="scale(1, -1) translate(0, -960)">
    <path d="M597.333 874.667h-341.333c-47.128 0-85.333-38.205-85.333-85.333v0-682.667c0-47.128 38.205-85.333 85.333-85.333v0h512c47.128 0 85.333 38.205 85.333 85.333v0 512l-256 256zM394.197 258.304c0-49.152-23.509-66.304-61.355-66.304-8.96 0-20.736 1.536-28.373 4.139l4.309 31.445c5.419-1.792 12.331-3.072 20.011-3.072 16.384 0 26.581 7.424 26.581 34.304v108.501h38.869v-109.013zM534.741 273.877c-13.355-12.501-32.981-18.176-56.021-18.176-5.12 0-9.728 0.299-13.312 0.811v-61.653h-38.656v170.155c14.371 2.278 30.941 3.579 47.815 3.579 1.73 0 3.457-0.014 5.181-0.041l-0.26 0.003c24.021 0 41.173-4.565 52.651-13.781 11.051-8.704 18.475-23.040 18.475-39.936s-5.675-31.232-15.872-40.96zM719.531 202.752c-11.947-4.096-34.773-9.728-57.557-9.728-31.445 0-54.229 7.936-70.101 23.296-15.829 14.848-24.533 37.333-24.32 62.677 0.299 57.344 41.941 90.069 98.517 90.069 22.229 0 39.424-4.395 47.829-8.448l-8.149-31.189c-9.472 4.096-21.205 7.424-40.149 7.424-32.469 0-57.088-18.432-57.088-55.808 0-35.541 22.315-56.533 54.229-56.533 9.003 0 16.128 1.024 19.243 2.603v36.096h-26.624v30.421h64.171v-90.88zM597.333 576h-42.667v213.333l213.333-213.333h-170.667zM481.493 339.115c-7.936 0-13.312-0.768-16.085-1.536v-50.901c3.285-0.768 7.424-0.981 13.099-0.981 20.651 0 33.451 10.496 33.451 28.117 0 15.872-10.965 25.301-30.464 25.301z" fill="currentColor" />
  </g>
</svg>
