<?xml version="1.0" encoding="utf-8"?>
<svg xmlns="http://www.w3.org/2000/svg" viewBox="0 0 1024 1024" width="24" height="24">
  <g transform="scale(1, -1) translate(0, -960)">
    <path d="M547.115 314.795c-22.059 0-34.816-20.949-34.816-48.896 0-28.203 13.269-48.043 34.987-48.043 22.059 0 34.645 20.907 34.645 48.896 0 25.771-12.416 48.043-34.816 48.043zM597.333 874.667h-341.333c-47.128 0-85.333-38.205-85.333-85.333v0-682.667c0-47.128 38.205-85.333 85.333-85.333v0h512c47.128 0 85.333 38.205 85.333 85.333v0 512l-256 256zM342.272 247.296c0-41.003-19.669-55.296-51.2-55.296-7.509 0-17.323 1.237-23.765 3.413l3.669 26.24c4.437-1.493 10.197-2.56 16.683-2.56 13.611 0 22.187 6.187 22.187 28.587v90.539h32.469v-90.923zM404.523 192.213c-16.427 0-32.683 4.267-40.747 8.747l6.613 26.923c8.704-4.48 22.229-9.003 36.096-9.003 14.933 0 22.784 6.229 22.784 15.573 0 9.003-6.784 14.123-24.064 20.309-23.979 8.32-39.552 21.589-39.552 42.496 0 24.576 20.523 43.392 54.485 43.392 16.213 0 28.117-3.413 36.736-7.296l-7.339-26.24c-5.76 2.773-16 6.827-30.080 6.827s-20.949-6.4-20.949-13.867c0-9.173 8.107-13.269 26.752-20.309 25.429-9.387 37.376-22.613 37.376-42.923 0.043-24.149-18.603-44.629-58.112-44.629zM545.579 192c-42.709 0-67.669 32.213-67.669 73.216 0 43.179 27.563 75.435 70.059 75.435 44.16 0 68.309-33.109 68.309-72.832-0.043-47.232-28.629-75.819-70.699-75.819zM756.651 194.347h-34.219l-30.763 55.552c-7.767 13.482-16.12 30.159-23.608 47.301l-1.352 3.473-0.683-0.213c0.896-18.987 1.323-39.296 1.323-62.805v-43.349h-29.909v143.915h38.016l29.909-52.736c8.533-15.104 17.067-33.067 23.552-49.28h0.597c-2.133 18.987-2.773 38.4-2.773 59.989v42.027h29.952v-143.872zM597.333 576h-42.667v213.333l213.333-213.333h-170.667z" fill="currentColor" />
  </g>
</svg>
