<?xml version="1.0" encoding="utf-8"?>
<svg xmlns="http://www.w3.org/2000/svg" viewBox="0 0 1024 1024" width="24" height="24">
  <g transform="scale(1, -1) translate(0, -960)">
    <path d="M384 277.333c1.845-69.28 58.446-124.737 128-124.737s126.155 55.458 127.996 124.567l0.004 0.17c0 15.061-3.072 29.269-7.851 42.667h-240.299c-4.835-12.665-7.701-27.309-7.85-42.603v-0.064zM768 704v85.333h-135.893c-17.985 50-64.917 85.145-120.084 85.333h-0.023c-70.571 0-128-57.429-128-128v-247.467c-76.942-45.282-127.811-127.613-128-221.84v-0.027c0-141.184 114.816-256 256-256s256 114.816 256 256c-0.189 94.254-51.058 176.585-126.798 221.212l-1.202 0.655v34.133h128v85.333h-128v85.333h128zM580.053 434.176c60.764-27.295 102.367-87.181 102.613-156.81v-0.032c0-94.123-76.544-170.667-170.667-170.667s-170.667 76.544-170.667 170.667c0 67.627 40.277 129.152 102.613 156.843l25.387 11.221v301.269c0 23.564 19.103 42.667 42.667 42.667s42.667-19.103 42.667-42.667v0-301.269l25.387-11.221z" fill="currentColor" />
  </g>
</svg>
