<?xml version="1.0" encoding="utf-8"?>
<svg xmlns="http://www.w3.org/2000/svg" viewBox="0 0 1024 1024" width="24" height="24">
  <g transform="scale(1, -1) translate(0, -960)">
    <path d="M810.667 533.333v128c0 47.061-38.272 85.333-85.333 85.333h-128c0 70.571-57.429 128-128 128s-128-57.429-128-128h-128c-47.061 0-85.333-38.272-85.333-85.333v-170.667h42.667c47.128 0 85.333-38.205 85.333-85.333s-38.205-85.333-85.333-85.333v0h-42.667v-170.667c0-47.061 38.272-85.333 85.333-85.333h170.667v42.667c0 47.128 38.205 85.333 85.333 85.333s85.333-38.205 85.333-85.333v0-42.667h170.667c47.061 0 85.333 38.272 85.333 85.333v128c70.571 0 128 57.429 128 128s-57.429 128-128 128z" fill="currentColor" />
  </g>
</svg>
