<?xml version="1.0" encoding="utf-8"?>
<svg xmlns="http://www.w3.org/2000/svg" viewBox="0 0 1024 1024" width="24" height="24">
  <g transform="scale(1, -1) translate(0, -960)">
    <path d="M170.667 64h42.667v554.667h-42.667c-47.128 0-85.333-38.205-85.333-85.333v0-384c0-47.128 38.205-85.333 85.333-85.333v0zM853.333 618.667h-298.667l47.872 143.701c2.772 8.047 4.373 17.319 4.373 26.965 0 47.12-38.192 85.321-85.31 85.333h-9.601l-213.333-232.021v-578.645h469.333l166.912 366.763 3.755 17.237v85.333c0 47.128-38.205 85.333-85.333 85.333v0z" fill="currentColor" />
  </g>
</svg>
