<?xml version="1.0" encoding="utf-8"?>
<svg xmlns="http://www.w3.org/2000/svg" viewBox="0 0 1024 1024" width="24" height="24">
  <g transform="scale(1, -1) translate(0, -960)">
    <path d="M512 874.667c-235.264 0-426.667-153.131-426.667-341.333 0-124.075 80.939-235.349 213.333-295.851v-216.149l227.84 170.837c228.565 6.144 412.16 156.843 412.16 341.163 0 188.203-191.403 341.333-426.667 341.333zM405.333 490.667c-35.346 0-64 28.654-64 64s28.654 64 64 64v0c35.346 0 64-28.654 64-64s-28.654-64-64-64v0zM618.667 490.667c-35.346 0-64 28.654-64 64s28.654 64 64 64v0c35.346 0 64-28.654 64-64s-28.654-64-64-64v0z" fill="currentColor" />
  </g>
</svg>
