<?xml version="1.0" encoding="utf-8"?>
<svg xmlns="http://www.w3.org/2000/svg" viewBox="0 0 1024 1024" width="24" height="24">
  <g transform="scale(1, -1) translate(0, -960)">
    <path d="M256 167.552c94.123 0 170.667 76.544 170.667 170.667v432.853l384-139.605v-317.013c-24.385 14.763-53.811 23.573-85.28 23.765h-0.054c-94.123 0-170.667-76.544-170.667-170.667s76.544-170.667 170.667-170.667 170.667 76.544 170.667 170.667v493.781c0 0.009 0 0.019 0 0.030 0 18.312-11.56 33.925-27.78 39.938l-0.295 0.096-469.333 170.667c-4.352 1.641-9.382 2.591-14.635 2.591-23.541 0-42.624-19.083-42.624-42.624 0-0.011 0-0.022 0-0.033v0.002-346.88c-24.385 14.763-53.811 23.573-85.28 23.765h-0.054c-94.123 0-170.667-76.544-170.667-170.667s76.544-170.667 170.667-170.667z" fill="currentColor" />
  </g>
</svg>
