<?xml version="1.0" encoding="utf-8"?>
<svg xmlns="http://www.w3.org/2000/svg" viewBox="0 0 1024 1024" width="24" height="24">
  <g transform="scale(1, -1) translate(0, -960)">
    <path d="M909.483 786.987c-75.093 24.619-269.483 88.32-269.483 87.68 0-70.692-57.308-128-128-128s-128 57.308-128 128v0c0 0.64-194.389-63.061-269.525-87.68-17.064-5.717-29.142-21.558-29.142-40.22 0-0.080 0-0.16 0.001-0.241v0.012-158.549c0.007-23.559 19.107-42.655 42.667-42.655 3.667 0 7.225 0.463 10.621 1.332l-0.296-0.064 117.675 29.397v-512c0-23.564 19.103-42.667 42.667-42.667v0h426.667c23.564 0 42.667 19.103 42.667 42.667v0 512l117.675-29.397c3.1-0.806 6.659-1.268 10.325-1.268 23.56 0 42.66 19.096 42.667 42.654v158.55c0 0.064 0.001 0.139 0.001 0.214 0 18.678-12.098 34.53-28.886 40.147l-0.299 0.087z" fill="currentColor" />
  </g>
</svg>
