<?xml version="1.0" encoding="utf-8"?>
<svg xmlns="http://www.w3.org/2000/svg" viewBox="0 0 1024 1024" width="24" height="24">
  <g transform="scale(1, -1) translate(0, -960)">
    <path d="M512 874.667c-235.264 0-426.667-191.403-426.667-426.667s191.403-426.667 426.667-426.667 426.667 191.403 426.667 426.667-191.403 426.667-426.667 426.667zM315.435 530.987c-10.601-24.35-16.769-52.718-16.769-82.525 0-0.162 0-0.324 0.001-0.486v0.025h-85.333c0 0.109 0 0.239 0 0.368 0 82.368 33.448 156.924 87.503 210.825l0.007 0.007c26.519 26.584 58.026 48.177 93.001 63.258l1.933 0.742 33.237-78.592c-25.429-10.752-48.213-26.112-67.84-45.739s-34.987-42.453-45.739-67.883zM511.701 362.667c-47.293 0-85.632 38.339-85.632 85.632s38.339 85.632 85.632 85.632v0c47.293 0 85.632-38.339 85.632-85.632s-38.339-85.632-85.632-85.632v0z" fill="currentColor" />
  </g>
</svg>
