<?xml version="1.0" encoding="utf-8"?>
<svg xmlns="http://www.w3.org/2000/svg" viewBox="0 0 1024 1024" width="24" height="24">
  <g transform="scale(1, -1) translate(0, -960)">
    <path d="M256 21.333h512c7.595 0 14.848 1.28 21.845 3.157l-160.384 160.384c-33.012-22.265-73.686-35.541-117.461-35.541v0c-117.632 0-213.333 95.701-213.333 213.333s95.701 213.333 213.333 213.333 213.333-95.701 213.333-213.333c0-0.007 0-0.014 0-0.022 0-43.768-13.276-84.435-36.021-118.194l0.479 0.755 160.384-160.384c1.877 6.997 3.157 14.251 3.157 21.845v512l-256 256h-341.333c-47.128 0-85.333-38.205-85.333-85.333v0-682.667c0-47.128 38.205-85.333 85.333-85.333v0zM640 362.667c0-70.692-57.308-128-128-128s-128 57.308-128 128c0 70.692 57.308 128 128 128s128-57.308 128-128z" fill="currentColor" />
  </g>
</svg>
