<?xml version="1.0" encoding="utf-8"?>
<svg xmlns="http://www.w3.org/2000/svg" viewBox="0 0 1024 1024" width="24" height="24">
  <g transform="scale(1, -1) translate(0, -960)">
    <path d="M512 874.667c-235.264 0-426.667-191.403-426.667-426.667s191.403-426.667 426.667-426.667 426.667 191.403 426.667 426.667-191.403 426.667-426.667 426.667zM341.333 430.336l-55.168-55.168-60.331 60.331 55.168 55.168-55.168 55.168 60.331 60.331 55.168-55.168 55.168 55.168 60.331-60.331-55.168-55.168 55.168-55.168-60.331-60.331-55.168 55.168zM597.333 192h-170.667v85.333h170.667v-85.333zM798.165 435.499l-60.331-60.331-55.168 55.168-55.168-55.168-60.331 60.331 55.168 55.168-55.168 55.168 60.331 60.331 55.168-55.168 55.168 55.168 60.331-60.331-55.168-55.168 55.168-55.168z" fill="currentColor" />
  </g>
</svg>
