<?xml version="1.0" encoding="utf-8"?>
<svg xmlns="http://www.w3.org/2000/svg" viewBox="0 0 1024 1024" width="24" height="24">
  <g transform="scale(1, -1) translate(0, -960)">
    <path d="M926.123 734.208l-127.957 127.957c-7.696 7.723-18.342 12.501-30.104 12.501-0.022 0-0.043 0-0.065 0h-511.997c-0.018 0-0.040 0-0.062 0-11.762 0-22.408-4.779-30.102-12.5l-127.958-127.958c-7.748-7.687-12.544-18.339-12.544-30.111 0-0.034 0-0.068 0-0.103v0.005-554.667c0-47.061 38.272-85.333 85.333-85.333h682.667c47.061 0 85.333 38.272 85.333 85.333v554.667c0 0.029 0 0.063 0 0.097 0 11.772-4.796 22.424-12.541 30.108l-0.003 0.003zM273.664 789.333h476.672l42.667-42.667h-562.005l42.667 42.667zM597.333 362.667v-128h-170.667v128h-128l213.333 213.333 213.333-213.333h-128z" fill="currentColor" />
  </g>
</svg>
