<?xml version="1.0" encoding="utf-8"?>
<svg xmlns="http://www.w3.org/2000/svg" viewBox="0 0 1024 1024" width="24" height="24">
  <g transform="scale(1, -1) translate(0, -960)">
    <path d="M648.661 662.187l34.304 6.869v120.277h-42.667c-118.784 0-209.323-32.896-269.184-97.792-80.555-87.381-72.448-199.595-72.192-200.875v-341.333c0-23.564 19.103-42.667 42.667-42.667v0h298.667c47.061 0 85.333 38.272 85.333 85.333v298.667c0 23.564-19.103 42.667-42.667 42.667v0h-174.037c0.939 17.152 5.248 38.912 18.304 59.563 21.717 34.176 62.549 57.472 121.472 69.291z" fill="currentColor" />
  </g>
</svg>
