<?xml version="1.0" encoding="utf-8"?>
<svg xmlns="http://www.w3.org/2000/svg" viewBox="0 0 1024 1024" width="24" height="24">
  <g transform="scale(1, -1) translate(0, -960)">
    <path d="M886.272 398.72l-58.368 175.104c-17.402 51.271-65.105 87.509-121.273 87.509-0.040 0-0.080 0-0.12 0h-389.028c-0.034 0-0.074 0-0.114 0-56.168 0-103.872-36.238-121.007-86.609l-0.266-0.9-58.368-175.104c-31.028-13.241-52.383-43.485-52.395-78.718v-128.002c0-31.488 17.237-58.709 42.667-73.515v-54.485c0-23.564 19.103-42.667 42.667-42.667v0h42.667c23.564 0 42.667 19.103 42.667 42.667v0 42.667h512v-42.667c0-23.564 19.103-42.667 42.667-42.667v0h42.667c23.564 0 42.667 19.103 42.667 42.667v0 54.485c25.638 14.902 42.614 42.22 42.667 73.507v128.008c0 35.456-21.632 65.792-52.395 78.72zM317.483 576h388.992c0.003 0 0.007 0 0.010 0 18.741 0 34.66-12.083 40.391-28.884l0.089-0.3 47.189-141.483h-564.309l47.147 141.483c5.845 17.451 22.144 29.184 40.491 29.184zM234.667 192c-35.349 0.012-64 28.671-64 64.021 0 35.358 28.663 64.021 64.021 64.021 0.008 0 0.015 0 0.023 0h-0.001c35.349-0.012 64-28.671 64-64.021 0-35.358-28.663-64.021-64.021-64.021-0.008 0-0.015 0-0.023 0h0.001zM789.333 192c-35.349 0.012-64 28.671-64 64.021 0 35.358 28.663 64.021 64.021 64.021 0.008 0 0.015 0 0.023 0h-0.001c35.349-0.012 64-28.671 64-64.021 0-35.358-28.663-64.021-64.021-64.021-0.008 0-0.015 0-0.023 0h0.001zM225.152 746.667c14.805-25.387 42.027-42.667 73.515-42.667s58.709 17.28 73.515 42.667h279.68c14.763-25.387 41.984-42.667 73.472-42.667s58.709 17.28 73.515 42.667h-73.515v85.333h73.515c-14.805 25.387-42.027 42.667-73.515 42.667s-58.709-17.28-73.515-42.667h-279.637c-14.805 25.387-42.027 42.667-73.515 42.667s-58.709-17.28-73.515-42.667h73.515v-85.333h-73.515z" fill="currentColor" />
  </g>
</svg>
