<?xml version="1.0" encoding="utf-8"?>
<svg xmlns="http://www.w3.org/2000/svg" viewBox="0 0 1024 1024" width="24" height="24">
  <g transform="scale(1, -1) translate(0, -960)">
    <path d="M512 481.195l113.792-75.861-37.973 132.736 94.848 80.597-113.792 14.208-56.875 113.792-56.875-113.792-113.792-14.208 94.848-80.597-37.973-132.736zM810.667 33.152v756.181c0 47.128-38.205 85.333-85.333 85.333v0h-426.667c-47.128 0-85.333-38.205-85.333-85.333v0-756.181l298.667 195.029 298.667-195.029zM341.333 618.667l113.792 14.208 56.875 113.792 56.875-113.792 113.792-14.208-94.848-80.597 37.973-132.736-113.792 75.861-113.792-75.861 37.973 132.736-94.848 80.597z" fill="currentColor" />
  </g>
</svg>
