<?xml version="1.0" encoding="utf-8"?>
<svg xmlns="http://www.w3.org/2000/svg" viewBox="0 0 1024 1024" width="24" height="24">
  <g transform="scale(1, -1) translate(0, -960)">
    <path d="M810.667 832h-597.333c-70.571 0-128-57.429-128-128v-512c0-70.571 57.429-128 128-128h597.333c70.571 0 128 57.429 128 128v512c0 70.571-57.429 128-128 128zM810.667 149.333h-597.333c-23.564 0-42.667 19.103-42.667 42.667v0 256h85.333v-170.667h85.333v170.667h42.667v-170.667h85.333v170.667h42.667v-170.667h85.333v170.667h85.333v-170.667h85.333v170.667h85.333v-256c0-23.564-19.103-42.667-42.667-42.667v0z" fill="currentColor" />
  </g>
</svg>
