<?xml version="1.0" encoding="utf-8"?>
<svg xmlns="http://www.w3.org/2000/svg" viewBox="0 0 1024 1024" width="24" height="24">
  <g transform="scale(1, -1) translate(0, -960)">
    <path d="M698.667 874.667h-373.504c-9.557 0-59.691-2.773-106.795-57.643-46.379-53.973-47.701-107.136-47.701-113.024v-469.333c0-47.128 38.205-85.333 85.333-85.333v0h42.667l-85.333-128h100.395l28.459 42.667h341.333l28.885-42.667h98.261l-85.333 128h42.667c47.128 0 85.333 38.205 85.333 85.333v0 469.333c0.043 8.021-1.365 61.184-48.171 113.707-49.323 55.381-100.779 56.96-106.496 56.96zM426.667 789.333h170.667v-85.333h-170.667v85.333zM320 234.667c-35.349 0.012-64 28.671-64 64.021 0 35.358 28.663 64.021 64.021 64.021 0.008 0 0.015 0 0.023 0h-0.001c35.349-0.012 64-28.671 64-64.021 0-35.358-28.663-64.021-64.021-64.021-0.008 0-0.015 0-0.023 0h0.001zM704 234.667c-35.349 0.012-64 28.671-64 64.021 0 35.358 28.663 64.021 64.021 64.021 0.008 0 0.015 0 0.023 0h-0.001c35.349-0.012 64-28.671 64-64.021 0-35.358-28.663-64.021-64.021-64.021-0.008 0-0.015 0-0.023 0h0.001zM768 448h-512v170.667h512v-170.667z" fill="currentColor" />
  </g>
</svg>
