<?xml version="1.0" encoding="utf-8"?>
<svg xmlns="http://www.w3.org/2000/svg" viewBox="0 0 1024 1024" width="24" height="24">
  <g transform="scale(1, -1) translate(0, -960)">
    <path d="M512 533.333c169.643 0 341.333 58.624 341.333 170.667s-171.691 170.667-341.333 170.667-341.333-58.624-341.333-170.667 171.691-170.667 341.333-170.667zM170.667 533.333c0-112.043 171.691-170.667 341.333-170.667s341.333 58.624 341.333 170.667v85.333c0-112.043-171.691-170.667-341.333-170.667s-341.333 58.624-341.333 170.667v-85.333zM170.667 362.667c0-112.043 171.691-170.667 341.333-170.667s341.333 58.624 341.333 170.667v85.333c0-112.043-171.691-170.667-341.333-170.667s-341.333 58.624-341.333 170.667v-85.333zM170.667 192c0-112.043 171.691-170.667 341.333-170.667s341.333 58.624 341.333 170.667v85.333c0-112.043-171.691-170.667-341.333-170.667s-341.333 58.624-341.333 170.667v-85.333z" fill="currentColor" />
  </g>
</svg>
