<?xml version="1.0" encoding="utf-8"?>
<svg xmlns="http://www.w3.org/2000/svg" viewBox="0 0 1024 1024" width="24" height="24">
  <g transform="scale(1, -1) translate(0, -960)">
    <path d="M853.333 832h-682.667c-47.061 0-85.333-38.272-85.333-85.333v-597.333c0-47.061 38.272-85.333 85.333-85.333h682.667c47.061 0 85.333 38.272 85.333 85.333v597.333c0 47.061-38.272 85.333-85.333 85.333zM853.376 576c-0.043 0-0.043 0 0 0h-19.84l-113.792 170.667h133.589l0.043-170.667zM661.333 320l-234.667-128v256l234.667-128zM620.203 576l-113.792 170.667h110.763l113.792-170.667h-110.763zM517.632 576h-110.763l-113.792 170.667h110.763l113.792-170.667zM170.667 746.667h19.84l113.792-170.667h-133.632v170.667z" fill="currentColor" />
  </g>
</svg>
