<?xml version="1.0" encoding="utf-8"?>
<svg xmlns="http://www.w3.org/2000/svg" viewBox="0 0 1024 1024" width="24" height="24">
  <g transform="scale(1, -1) translate(0, -960)">
    <path d="M646.827 874.667c-1.898 0.299-4.086 0.47-6.315 0.47-8.063 0-15.604-2.237-22.036-6.124l0.191 0.107-512-298.667c-2.108-1.239-3.928-2.652-5.547-4.267l0.001 0.001-4.267-3.413c-2.786-3.212-5.206-6.86-7.123-10.797l-0.13-0.296c-2.702-4.917-4.292-10.776-4.292-17.006 0-0.471 0.009-0.941 0.027-1.408l-0.002 0.067v-426.667c0-23.564 19.103-42.667 42.667-42.667v0h768c23.564 0 42.667 19.103 42.667 42.667v0 426.667c0 0.199 0.001 0.435 0.001 0.67 0 171.723-125.555 314.121-289.873 340.403l-1.968 0.259zM646.827 787.2c104.85-22.024 185.391-105.15 203.302-209.665l0.218-1.535h-564.48zM277.333 192c-35.346 0-64 28.654-64 64s28.654 64 64 64c35.346 0 64-28.654 64-64v0c0-35.346-28.654-64-64-64v0zM490.667 320c-35.346 0-64 28.654-64 64s28.654 64 64 64c35.346 0 64-28.654 64-64v0c0-35.346-28.654-64-64-64v0zM725.333 192c-47.128 0-85.333 38.205-85.333 85.333s38.205 85.333 85.333 85.333c47.128 0 85.333-38.205 85.333-85.333v0c0-47.128-38.205-85.333-85.333-85.333v0z" fill="currentColor" />
  </g>
</svg>
