<?xml version="1.0" encoding="utf-8"?>
<svg xmlns="http://www.w3.org/2000/svg" viewBox="0 0 1024 1024" width="24" height="24">
  <g transform="scale(1, -1) translate(0, -960)">
    <path d="M537.003 849.664c-15.439 15.443-36.769 24.997-60.33 25.003h-306.006c-47.128 0-85.333-38.205-85.333-85.333v0-306.005c0.005-23.562 9.559-44.892 25.002-60.33l341.334-341.334c15.441-15.437 36.771-24.984 60.331-24.984s44.889 9.548 60.331 24.985l306.005 306.005c15.437 15.441 24.984 36.771 24.984 60.331s-9.548 44.889-24.985 60.331l-341.333 341.333zM298.667 576c-47.131 0.012-85.333 38.222-85.333 85.355 0 47.14 38.215 85.355 85.355 85.355 0.007 0 0.015 0 0.022 0h-0.001c47.131-0.012 85.333-38.222 85.333-85.355 0-47.14-38.215-85.355-85.355-85.355-0.007 0-0.015 0-0.022 0h0.001z" fill="currentColor" />
  </g>
</svg>
