<?xml version="1.0" encoding="utf-8"?>
<svg xmlns="http://www.w3.org/2000/svg" viewBox="0 0 1024 1024" width="24" height="24">
  <g transform="scale(1, -1) translate(0, -960)">
    <path d="M896 704h-170.667v128c0 23.564-19.103 42.667-42.667 42.667v0h-341.333c-23.564 0-42.667-19.103-42.667-42.667v0-298.667h-170.667c-23.564 0-42.667-19.103-42.667-42.667v0-341.333c0-23.564 19.103-42.667 42.667-42.667v0h768c23.564 0 42.667 19.103 42.667 42.667v0 512c0 23.564-19.103 42.667-42.667 42.667v0zM256 192h-85.333v85.333h85.333v-85.333zM256 362.667h-85.333v85.333h85.333v-85.333zM469.333 192h-85.333v85.333h85.333v-85.333zM469.333 362.667h-85.333v85.333h85.333v-85.333zM469.333 533.333h-85.333v85.333h85.333v-85.333zM469.333 704h-85.333v85.333h85.333v-85.333zM640 192h-85.333v85.333h85.333v-85.333zM640 362.667h-85.333v85.333h85.333v-85.333zM640 533.333h-85.333v85.333h85.333v-85.333zM640 704h-85.333v85.333h85.333v-85.333zM853.333 192h-85.333v85.333h85.333v-85.333zM853.333 362.667h-85.333v85.333h85.333v-85.333zM853.333 533.333h-85.333v85.333h85.333v-85.333z" fill="currentColor" />
  </g>
</svg>
