<?xml version="1.0" encoding="utf-8"?>
<svg xmlns="http://www.w3.org/2000/svg" viewBox="0 0 1024 1024" width="24" height="24">
  <g transform="scale(1, -1) translate(0, -960)">
    <path d="M289.579 661.333h444.843c-4.608 6.741-8.576 14.123-13.568 20.523l120.021 119.979-60.331 60.331-121.429-121.429c-8.82 6.457-18.902 12.874-29.393 18.638l-1.455 0.732c-33.647 18.349-73.697 29.139-116.267 29.139s-82.619-10.79-117.563-29.784l1.296 0.645c-10.667-5.632-20.821-12.245-30.805-19.328l-121.429 121.387-60.331-60.331 120.021-119.979c-5.035-6.443-8.96-13.781-13.611-20.523zM245.589 576h-160.256v-85.333h98.432c-2.773-21.12-4.565-42.539-4.565-64 0-21.632 1.792-43.221 4.565-64.469h-98.432v-85.333h117.461c0.555-1.664 0.896-3.413 1.451-5.035 8.021-23.68 17.963-46.635 29.653-68.267 1.877-3.456 4.053-6.613 6.016-9.984l-99.413-99.413 60.331-60.331 90.027 90.069c24.789-27.616 53.963-50.679 86.54-68.242l1.695-0.835c20.437-10.795 41.899-19.157 63.829-24.747 8.704-2.219 17.536-3.627 26.368-5.035v252.288h85.333v-252.331c10.504 1.468 19.438 3.228 28.2 5.423l-1.832-0.389c24.302 6.341 45.531 14.804 65.372 25.508l-1.543-0.761c19.84 10.496 38.997 23.467 56.875 38.571 11.008 9.301 21.333 19.712 31.317 30.549l90.069-90.069 60.331 60.331-99.413 99.413c2.005 3.413 4.181 6.613 6.059 10.069 11.648 21.547 21.632 44.501 29.611 68.224 0.555 1.664 0.896 3.371 1.451 5.035h117.547v85.333h-98.475c2.773 21.291 4.565 42.837 4.565 64.469 0 21.461-1.792 42.88-4.523 64h98.432v85.291h-693.077z" fill="currentColor" />
  </g>
</svg>
