<?xml version="1.0" encoding="utf-8"?>
<svg xmlns="http://www.w3.org/2000/svg" viewBox="0 0 1024 1024" width="24" height="24">
  <g transform="scale(1, -1) translate(0, -960)">
    <path d="M597.333 874.667h-341.333c-47.128 0-85.333-38.205-85.333-85.333v0-682.667c0-47.128 38.205-85.333 85.333-85.333v0h512c47.128 0 85.333 38.205 85.333 85.333v0 512l-256 256zM554.667 789.333l213.333-213.333h-213.333v213.333zM363.989 192h-32.427v60.203h-53.589v-60.203h-32.725v143.915h32.725v-55.296h53.632v55.296h32.427v-143.915zM491.989 308.565h-39.296v-116.565h-32.683v116.565h-38.613v27.349h110.592v-27.349zM632.235 192l-2.133 55.083c-0.725 17.28-1.28 38.229-1.28 59.179h-0.683c-4.437-18.389-10.453-38.869-16-55.765l-17.493-56.149h-25.472l-15.317 55.765c-4.211 13.997-8.736 32.899-12.412 52.103l-0.644 4.047h-0.469c-0.896-19.456-1.451-41.643-2.517-59.563l-2.56-54.699h-30.080l9.216 143.915h43.307l14.123-48.043c4.437-16.683 8.96-34.603 12.117-51.456h0.725c4.053 16.683 8.917 35.669 13.653 51.669l15.317 47.829h42.496l7.893-143.915h-31.787zM778.752 192h-89.941v143.915h32.725v-116.565h57.259v-27.349z" fill="currentColor" />
  </g>
</svg>
