<?xml version="1.0" encoding="utf-8"?>
<svg xmlns="http://www.w3.org/2000/svg" viewBox="0 0 1024 1024" width="24" height="24">
  <g transform="scale(1, -1) translate(0, -960)">
    <path d="M853.333 832h-42.667v-554.667h42.667c47.128 0 85.333 38.205 85.333 85.333v0 384c0 47.128-38.205 85.333-85.333 85.333v0zM170.667 277.333h298.667l-47.872-143.701c-2.772-8.047-4.373-17.319-4.373-26.965 0-47.12 38.192-85.321 85.31-85.333h9.601l213.333 232.021v578.645h-469.333l-167.979-369.024-2.688-12.501v-87.808c0-47.128 38.205-85.333 85.333-85.333v0z" fill="currentColor" />
  </g>
</svg>
