<?xml version="1.0" encoding="utf-8"?>
<svg xmlns="http://www.w3.org/2000/svg" viewBox="0 0 1024 1024" width="24" height="24">
  <g transform="scale(1, -1) translate(0, -960)">
    <path d="M384 789.333h256v-85.333h-256zM853.333 490.667h-298.667c-47.128 0-85.333-38.205-85.333-85.333v0-298.667c0-47.128 38.205-85.333 85.333-85.333v0h298.667c47.128 0 85.333 38.205 85.333 85.333v0 298.667c0 47.128-38.205 85.333-85.333 85.333v0zM896 576v128c0 47.128-38.205 85.333-85.333 85.333v0h-85.333c0 47.128-38.205 85.333-85.333 85.333v0h-256c-47.128 0-85.333-38.205-85.333-85.333v0h-85.333c-47.128 0-85.333-38.205-85.333-85.333v0-512c0-47.128 38.205-85.333 85.333-85.333v0h170.667v384c0 47.128 38.205 85.333 85.333 85.333v0h426.667zM384 704v85.333h256v-85.333h-256z" fill="currentColor" />
  </g>
</svg>
