<?xml version="1.0" encoding="utf-8"?>
<svg xmlns="http://www.w3.org/2000/svg" viewBox="0 0 1024 1024" width="24" height="24">
  <g transform="scale(1, -1) translate(0, -960)">
    <path d="M853.333 874.667h-512c-47.128 0-85.333-38.205-85.333-85.333v0-512c0-47.128 38.205-85.333 85.333-85.333v0h512c47.128 0 85.333 38.205 85.333 85.333v0 512c0 47.128-38.205 85.333-85.333 85.333v0zM557.525 342.144l-139.691 139.691 60.331 60.331 73.643-73.643 183.424 220.117 65.579-54.656-243.285-291.84zM170.667 21.333h469.333v85.333h-469.333v512h-85.333v-512c0-47.061 38.272-85.333 85.333-85.333z" fill="currentColor" />
  </g>
</svg>
