<?xml version="1.0" encoding="utf-8"?>
<svg xmlns="http://www.w3.org/2000/svg" viewBox="0 0 1024 1024" width="24" height="24">
  <g transform="scale(1, -1) translate(0, -960)">
    <path d="M554.667 832h170.667v-85.333h-170.667zM128 618.667h170.667v-85.333h-170.667zM128 277.333h170.667v-85.333h-170.667zM85.333 448h170.24v-85.333h-170.24zM926.165 673.835l-60.331 60.331-72.832-72.832c-43.63 26.781-96.462 42.65-152.998 42.667h-0.005c-164.651 0-298.667-134.016-298.667-298.667s134.016-298.667 298.667-298.667 298.667 134.016 298.667 298.667c-0.046 78.015-30.134 148.994-79.32 202.002l0.173-0.189 66.645 66.688zM682.667 362.667h-85.333v215.125h85.333v-215.125z" fill="currentColor" />
  </g>
</svg>
