<?xml version="1.0" encoding="utf-8"?>
<svg xmlns="http://www.w3.org/2000/svg" viewBox="0 0 1024 1024" width="24" height="24">
  <g transform="scale(1, -1) translate(0, -960)">
    <path d="M896 533.333h-768c-23.564 0-42.667-19.103-42.667-42.667v0c0.004-157.090 84.903-294.35 211.32-368.403l2.014-1.090v-57.173c0-23.564 19.103-42.667 42.667-42.667v0h341.333c23.564 0 42.667 19.103 42.667 42.667v0 57.173c128.43 75.143 213.329 212.403 213.333 369.492v0.001c0 23.564-19.103 42.667-42.667 42.667v0zM384 576v45.653c0 0.031 0 0.067 0 0.104 0 52.263-20.835 99.659-54.652 134.336l0.039-0.040c-18.993 19.186-30.727 45.588-30.727 74.731 0 0.427 0.003 0.854 0.008 1.28l-0.001-0.065v42.667h-85.333v-42.667c-0.002-0.284-0.002-0.619-0.002-0.955 0-52.264 20.836-99.661 54.655-134.339l-0.039 0.040c18.989-19.185 30.721-45.585 30.721-74.725 0-0.13 0-0.259-0.001-0.389v0.020-45.653zM554.667 576v45.653c0 0.031 0 0.067 0 0.104 0 52.263-20.835 99.659-54.652 134.336l0.039-0.040c-18.993 19.186-30.727 45.588-30.727 74.731 0 0.427 0.003 0.854 0.008 1.28l-0.001-0.065v42.667h-85.333v-42.667c0-0.031 0-0.067 0-0.104 0-52.263 20.835-99.659 54.652-134.336l-0.039 0.040c18.993-19.186 30.727-45.588 30.727-74.731 0-0.427-0.003-0.854-0.008-1.28l0.001 0.065v-45.653zM725.333 576v45.653c0 0.031 0 0.067 0 0.104 0 52.263-20.835 99.659-54.652 134.336l0.039-0.040c-18.993 19.186-30.727 45.588-30.727 74.731 0 0.427 0.003 0.854 0.008 1.28l-0.001-0.065v42.667h-85.333v-42.667c0-0.031 0-0.067 0-0.104 0-52.263 20.835-99.659 54.652-134.336l-0.039 0.040c18.993-19.186 30.727-45.588 30.727-74.731 0-0.427-0.003-0.854-0.008-1.28l0.001 0.065v-45.653z" fill="currentColor" />
  </g>
</svg>
