<?xml version="1.0" encoding="utf-8"?>
<svg xmlns="http://www.w3.org/2000/svg" viewBox="0 0 1024 1024" width="24" height="24">
  <g transform="scale(1, -1) translate(0, -960)">
    <path d="M881.664 811.605l-540.331-192.939v-298.667l31.915-11.392-48.085-96.171c-5.695-11.127-9.033-24.274-9.033-38.2 0-37.469 24.162-69.296 57.755-80.748l0.6-0.178 174.251-58.069c7.958-2.685 17.122-4.234 26.649-4.234 33.272 0 62.129 18.9 76.421 46.549l0.226 0.48 55.595 111.189 174.037-62.165c4.267-1.571 9.196-2.481 14.336-2.481 23.551 0 42.646 19.082 42.667 42.628v604.247c-0.021 23.548-19.115 42.63-42.667 42.63-5.14 0-10.069-0.909-14.633-2.575l0.296 0.095zM575.701 116.181l-174.208 58.069 52.693 105.429 172.459-61.611-50.944-101.888zM170.667 320h85.333v298.667h-85.333c-47.061 0-85.333-38.272-85.333-85.333v-128c0-47.061 38.272-85.333 85.333-85.333z" fill="currentColor" />
  </g>
</svg>
