<?xml version="1.0" encoding="utf-8"?>
<svg xmlns="http://www.w3.org/2000/svg" viewBox="0 0 1024 1024" width="24" height="24">
  <g transform="scale(1, -1) translate(0, -960)">
    <path d="M512 874.667c-235.264 0-426.667-191.403-426.667-426.667s191.403-426.667 426.667-426.667 426.667 191.403 426.667 426.667-191.403 426.667-426.667 426.667zM236.928 486.187l104.917 52.437-66.859 44.544 47.317 70.997 128-85.333c11.527-7.76 19.009-20.76 19.009-35.507 0-16.621-9.504-31.023-23.374-38.066l-0.243-0.112-170.667-85.333-38.101 76.373zM512 192c-170.667 0-213.333 170.667-213.333 170.667h426.667s-42.667-170.667-213.333-170.667zM748.928 409.813l-170.667 85.333c-14.113 7.155-23.617 21.557-23.617 38.178 0 14.747 7.482 27.747 18.857 35.411l0.152 0.097 128 85.333 47.317-70.997-66.816-44.544 104.917-52.437-38.144-76.373z" fill="currentColor" />
  </g>
</svg>
