<?xml version="1.0" encoding="utf-8"?>
<svg xmlns="http://www.w3.org/2000/svg" viewBox="0 0 1024 1024" width="24" height="24">
  <g transform="scale(1, -1) translate(0, -960)">
    <path d="M512 874.667c-235.264 0-426.667-191.403-426.667-426.667s191.403-426.667 426.667-426.667 426.667 191.403 426.667 426.667-191.403 426.667-426.667 426.667zM341.333 490.24l-85.333 0.853c0.725 68.437 46.72 170.24 170.667 170.24v-85.333c-82.091 0-85.248-77.013-85.333-85.76zM512 192c-70.699 0-128 47.744-128 106.667s57.301 106.667 128 106.667 128-47.744 128-106.667-57.301-106.667-128-106.667zM725.333 490.667l-42.667-0.341c-0.341 20.139-7.424 85.675-85.333 85.675v85.333c125.227 0 170.667-102.101 170.667-170.667h-42.667z" fill="currentColor" />
  </g>
</svg>
