<?xml version="1.0" encoding="utf-8"?>
<svg xmlns="http://www.w3.org/2000/svg" viewBox="0 0 1024 1024" width="24" height="24">
  <g transform="scale(1, -1) translate(0, -960)">
    <path d="M896 703.104c0.128 6.229-0.299 62.507-55.467 116.693-54.315 53.333-109.099 54.869-115.2 54.869h-426.837c-10.197 0-63.701-2.688-115.541-55.552-53.419-54.443-54.955-109.099-54.955-115.115v-128h-42.667v-128h42.667v-256c0-31.317 17.323-58.581 42.667-73.429v-54.571c0-23.564 19.103-42.667 42.667-42.667v0h42.667c23.564 0 42.667 19.103 42.667 42.667v0 42.667h426.667v-42.667c0-23.564 19.103-42.667 42.667-42.667v0h42.667c23.564 0 42.667 19.103 42.667 42.667v0 54.485c25.638 14.902 42.614 42.22 42.667 73.507v256.008h42.667v128h-42.667v127.104zM384 789.333h256v-85.333h-256v85.333zM277.333 192c-35.349 0.012-64 28.671-64 64.021 0 35.358 28.663 64.021 64.021 64.021 0.008 0 0.015 0 0.023 0h-0.001c35.349-0.012 64-28.671 64-64.021 0-35.358-28.663-64.021-64.021-64.021-0.008 0-0.015 0-0.023 0h0.001zM469.333 405.333h-256v213.333h256v-213.333zM746.667 192c-35.349 0.012-64 28.671-64 64.021 0 35.358 28.663 64.021 64.021 64.021 0.008 0 0.015 0 0.023 0h-0.001c35.349-0.012 64-28.671 64-64.021 0-35.358-28.663-64.021-64.021-64.021-0.008 0-0.015 0-0.023 0h0.001zM810.667 405.333h-256v213.333h256v-213.333z" fill="currentColor" />
  </g>
</svg>
