<?xml version="1.0" encoding="utf-8"?>
<svg xmlns="http://www.w3.org/2000/svg" viewBox="0 0 1024 1024" width="24" height="24">
  <g transform="scale(1, -1) translate(0, -960)">
    <path d="M512 746.752c-78.336 0-143.189-16.597-196.992-41.429l-156.843 156.843-60.331-60.331 141.44-141.44c-111.488-83.285-151.168-197.035-151.765-198.827l-4.48-13.483 4.48-13.483c0.939-2.901 98.816-285.269 424.491-285.269 78.293 0 143.104 16.597 196.907 41.429l156.928-156.928 60.331 60.331-141.525 141.525c111.531 83.285 151.253 197.035 151.851 198.827l4.48 13.483-4.48 13.483c-0.939 2.901-98.816 285.269-424.491 285.269zM513.835 661.333h-1.835c117.821 0 213.333-95.513 213.333-213.333v0c-0.233-43.601-13.793-83.989-36.809-117.351l0.457 0.7-30.763 30.763c15.159 24.48 24.227 54.124 24.448 85.87v0.061c0 20.224-4.224 39.467-10.88 57.557-7.687-9.074-19.055-14.826-31.768-14.933h-0.018c-23.564 0-42.667 19.103-42.667 42.667v0c0 18.731 12.288 34.219 29.099 39.936-29.911 27.946-70.134 45.186-114.381 45.44h-0.051c-31.36 0-60.544-9.301-85.973-24.405l-30.72 30.72c33.621 22.4 73.259 36.309 116.693 36.309h-1.835l1.835 0.085 1.835-0.085zM173.824 448.043c4.395 10.027 11.691 25.003 22.229 42.197l250.325-250.325c-179.755 27.605-253.397 163.925-272.555 208.128zM568.363 238.635l-319.147 319.147c15.177 15.212 31.748 29.019 49.509 41.219l1.179 0.765 343.68-343.68c-21.641-7.723-47.060-13.838-73.328-17.25l-1.893-0.201z" fill="currentColor" />
  </g>
</svg>
