<?xml version="1.0" encoding="utf-8"?>
<svg xmlns="http://www.w3.org/2000/svg" viewBox="0 0 1024 1024" width="24" height="24">
  <g transform="scale(1, -1) translate(0, -960)">
    <path d="M346.965 853.163l-158.379-277.163h-60.587c-23.567-0.027-42.662-19.138-42.662-42.709 0-3.977 0.544-7.826 1.56-11.479l-0.071 0.3 119.424-437.888c10.251-36.507 43.217-62.837 82.341-62.891h446.854c38.315 0 72.192 25.813 82.347 62.933l119.424 437.888c0.963 3.377 1.517 7.256 1.517 11.264 0 23.517-19.064 42.581-42.581 42.581-0.053 0-0.107 0-0.16 0h-60.579l-158.379 277.163-74.069-42.325 134.187-234.837h-450.304l134.187 234.837-74.069 42.325zM597.333 405.333h85.333v-213.333h-85.333v213.333zM341.333 405.333h85.333v-213.333h-85.333v213.333z" fill="currentColor" />
  </g>
</svg>
