<?xml version="1.0" encoding="utf-8"?>
<svg xmlns="http://www.w3.org/2000/svg" viewBox="0 0 1024 1024" width="24" height="24">
  <g transform="scale(1, -1) translate(0, -960)">
    <path d="M896 533.333h-597.333v123.179c0 42.539 28.928 82.048 70.869 88.96 4.31 0.77 9.272 1.211 14.336 1.211 47.16 0 85.398-38.199 85.461-85.344v-0.006h85.333c-0.084 94.264-76.519 170.647-170.795 170.647-5.935 0-11.8-0.303-17.579-0.894l0.726 0.060c-88.704-8.619-153.685-88.277-153.685-177.408v-120.405h-85.333c-23.564 0-42.667-19.103-42.667-42.667v0-85.333c0-111.189 71.424-205.781 170.667-241.067v-142.933h85.333v128h341.333v-128h85.333v142.933c99.243 35.285 170.667 129.877 170.667 241.067v85.333c0 23.564-19.103 42.667-42.667 42.667v0z" fill="currentColor" />
  </g>
</svg>
