<?xml version="1.0" encoding="utf-8"?>
<svg xmlns="http://www.w3.org/2000/svg" viewBox="0 0 1024 1024" width="24" height="24">
  <g transform="scale(1, -1) translate(0, -960)">
    <path d="M640 490.667h298.667v-85.333h-298.667zM682.667 320h256v-85.333h-256zM597.333 661.333h341.333v-85.333h-341.333zM170.667 149.333h426.667v42.667c0 117.632-95.701 213.333-213.333 213.333h-85.333c-117.632 0-213.333-95.701-213.333-213.333v-42.667h85.333zM341.333 448c85.12 0 149.333 64.213 149.333 149.333s-64.213 149.333-149.333 149.333-149.333-64.213-149.333-149.333 64.213-149.333 149.333-149.333z" fill="currentColor" />
  </g>
</svg>
