<?xml version="1.0" encoding="utf-8"?>
<svg xmlns="http://www.w3.org/2000/svg" viewBox="0 0 1024 1024" width="24" height="24">
  <g transform="scale(1, -1) translate(0, -960)">
    <path d="M128 746.667v-597.333c0-47.128 38.205-85.333 85.333-85.333v0h597.333c47.128 0 85.333 38.205 85.333 85.333v0 597.333c0 47.128-38.205 85.333-85.333 85.333v0h-597.333c-47.128 0-85.333-38.205-85.333-85.333v0zM426.667 661.333h341.333v-85.333h-341.333v85.333zM426.667 490.667h341.333v-85.333h-341.333v85.333zM426.667 320h341.333v-85.333h-341.333v85.333zM256 661.333h85.333v-85.333h-85.333v85.333zM256 490.667h85.333v-85.333h-85.333v85.333zM256 320h85.333v-85.333h-85.333v85.333z" fill="currentColor" />
  </g>
</svg>
