<?xml version="1.0" encoding="utf-8"?>
<svg xmlns="http://www.w3.org/2000/svg" viewBox="0 0 1024 1024" width="24" height="24">
  <g transform="scale(1, -1) translate(0, -960)">
    <path d="M431.787 21.333c129.015 11.385 235.795 95.721 279.567 211.072l0.753 2.261c13.109 32.961 20.71 71.155 20.71 111.124 0 9.094-0.394 18.097-1.165 26.992l0.081-1.156c-0.191 2.728-0.299 5.913-0.299 9.122 0 39.505 16.469 75.163 42.916 100.483l0.051 0.048 26.027 26.027c30.098 30.046 48.717 71.581 48.717 117.466 0 29.040-7.458 56.338-20.564 80.083l0.433-0.856 97.28 97.28-60.587 61.013-97.707-96.427c-23.923 14.569-52.855 23.194-83.802 23.194-44.896 0-85.553-18.153-115.030-47.519l-31.995-31.995c-25.091-26.439-60.487-42.888-99.725-42.888-2.742 0-5.465 0.080-8.168 0.239l0.373-0.017c-6.404 0.486-13.871 0.762-21.402 0.762-43.496 0-84.835-9.232-122.166-25.843l1.915 0.761c-114.149-48.539-194.428-156.266-202.617-283.616l-0.050-0.971c-0.182-4.061-0.286-8.824-0.286-13.611 0-178.852 144.988-323.84 323.84-323.84 8.058 0 16.047 0.294 23.958 0.873l-1.058-0.062zM405.333 565.333v-64c-88.366 0-160-71.634-160-160v0h-64c0.242 123.614 100.386 223.758 223.977 224h0.023z" fill="currentColor" />
  </g>
</svg>
