<?xml version="1.0" encoding="utf-8"?>
<svg xmlns="http://www.w3.org/2000/svg" viewBox="0 0 1024 1024" width="24" height="24">
  <g transform="scale(1, -1) translate(0, -960)">
    <path d="M712.832 862.165c-7.696 7.723-18.342 12.501-30.104 12.501-0.022 0-0.043 0-0.065 0h-341.33c-17.664 0-33.493-10.88-39.851-27.349l-213.333-554.667c-1.798-4.539-2.841-9.798-2.841-15.301 0-11.791 4.788-22.464 12.525-30.181l213.334-213.334c7.696-7.723 18.342-12.501 30.104-12.501 0.022 0 0.043 0 0.065 0h341.33c17.664 0 33.493 10.88 39.851 27.349l213.333 554.667c1.798 4.539 2.841 9.798 2.841 15.301 0 11.791-4.788 22.464-12.525 30.181l-213.334 213.334zM792.96 661.333h-220.629l-128 128h220.672l127.957-128zM653.355 106.667h-265.813l195.541 469.333h250.795l-180.523-469.333z" fill="currentColor" />
  </g>
</svg>
