<?xml version="1.0" encoding="utf-8"?>
<svg xmlns="http://www.w3.org/2000/svg" viewBox="0 0 1024 1024" width="24" height="24">
  <g transform="scale(1, -1) translate(0, -960)">
    <path d="M362.667 192l149.333-170.667 149.333 170.667h149.333c47.061 0 85.333 38.272 85.333 85.333v512c0 47.061-38.272 85.333-85.333 85.333h-597.333c-47.061 0-85.333-38.272-85.333-85.333v-512c0-47.061 38.272-85.333 85.333-85.333h149.333zM311.168 673.835l60.331 60.331 140.501-140.501 140.501 140.501 60.331-60.331-140.501-140.501 140.501-140.501-60.331-60.331-140.501 140.501-140.501-140.501-60.331 60.331 140.501 140.501-140.501 140.501z" fill="currentColor" />
  </g>
</svg>
