<?xml version="1.0" encoding="utf-8"?>
<svg xmlns="http://www.w3.org/2000/svg" viewBox="0 0 1024 1024" width="24" height="24">
  <g transform="scale(1, -1) translate(0, -960)">
    <path d="M210.304 146.304c73.465-73.398 173.693-120.020 284.787-123.969l0.738-0.021c-19.755 118.315 15.573 244.096 106.667 335.189 91.136 91.093 216.875 126.421 335.189 106.667-3.925 103.808-44.928 206.464-123.989 285.525s-181.76 120.064-285.525 123.989c19.755-118.315-15.573-244.096-106.667-335.189-91.136-91.093-216.875-126.421-335.189-106.667 3.928-111.84 50.56-212.080 123.99-285.526l-0.001 0.001zM662.827 297.173c-53.966-54.009-87.342-128.598-87.342-210.983 0-20.733 2.114-40.972 6.138-60.514l-0.332 1.929c180.644 29.804 321.301 170.46 350.768 348.641l0.336 2.463c-17.6 3.685-37.825 5.795-58.543 5.795-82.396 0-156.998-33.37-211.028-87.333l0.003 0.003zM361.173 598.827c53.966 54.009 87.342 128.598 87.342 210.983 0 20.733-2.114 40.972-6.138 60.514l0.332-1.929c-180.662-29.787-321.338-170.449-350.81-348.641l-0.336-2.463c17.607-3.687 37.839-5.798 58.565-5.798 82.403 0 157.012 33.372 211.049 87.337l-0.003-0.003z" fill="currentColor" />
  </g>
</svg>
