<?xml version="1.0" encoding="utf-8"?>
<svg xmlns="http://www.w3.org/2000/svg" viewBox="0 0 1024 1024" width="24" height="24">
  <g transform="scale(1, -1) translate(0, -960)">
    <path d="M926.165 94.165l-145.067 145.067c44.993 56.886 72.189 129.647 72.235 208.758v0.010h-85.333c-0.045-55.546-17.938-106.903-48.251-148.659l0.507 0.733-61.824 61.867c15.095 24.537 24.092 54.232 24.235 86.019v256.040c0 94.592-76.16 171.563-169.771 171.563-2.987 0-5.973-0.384-8.917-1.067-90.69-4.533-162.521-79.106-162.645-170.484v-25.015l-183.168 183.168-60.331-60.331 768-768 60.331 60.331zM256 448h-85.333c0-173.739 130.56-317.269 298.667-338.389v-88.277h85.333v88.277c35.548 4.63 67.809 14.073 97.731 27.746l-2.115-0.866-66.091 66.048c-21.603-6.649-46.44-10.497-72.17-10.539h-0.022c-141.184 0-256 114.816-256 256zM341.632 445.141c1.646-91.843 75.666-165.863 167.354-167.507l0.156-0.002-167.509 167.509z" fill="currentColor" />
  </g>
</svg>
