<?xml version="1.0" encoding="utf-8"?>
<svg xmlns="http://www.w3.org/2000/svg" viewBox="0 0 1024 1024" width="24" height="24">
  <g transform="scale(1, -1) translate(0, -960)">
    <path d="M931.072 642.944c-7.801 11.168-20.593 18.384-35.071 18.389h-583.126l-49.237 118.187c-13.135 31.073-43.36 52.48-78.585 52.48-0.063 0-0.125 0-0.188 0h-99.531v-85.333h99.541l202.411-485.76c6.606-15.541 21.742-26.24 39.378-26.24 0.001 0 0.002 0 0.004 0h341.333c17.792 0 33.707 11.051 39.979 27.648l128 341.333c1.716 4.445 2.711 9.589 2.711 14.965 0 9.103-2.851 17.54-7.708 24.468l0.091-0.137zM512 128c0-35.346-28.654-64-64-64s-64 28.654-64 64c0 35.346 28.654 64 64 64s64-28.654 64-64zM810.667 128c0-35.346-28.654-64-64-64s-64 28.654-64 64c0 35.346 28.654 64 64 64s64-28.654 64-64z" fill="currentColor" />
  </g>
</svg>
