<?xml version="1.0" encoding="utf-8"?>
<svg xmlns="http://www.w3.org/2000/svg" viewBox="0 0 1024 1024" width="24" height="24">
  <g transform="scale(1, -1) translate(0, -960)">
    <path d="M213.333 874.667h-42.667v-85.333h42.667v-42.667c0.176-108.72 58.298-203.825 145.126-256.1l1.349-0.753c15.147-8.96 24.192-23.339 24.192-38.443v-6.741c0-15.104-9.045-29.483-24.149-38.4-88.194-53.038-146.33-148.157-146.517-256.869v-42.694h-42.667v-85.333h682.667v85.333h-42.667v42.667c-0.187 108.739-58.324 203.858-145.168 256.143l-1.349 0.753c-15.104 8.875-24.149 23.253-24.149 38.4v6.741c0 15.104 9.045 29.44 24.149 38.4 88.194 53.038 146.33 148.157 146.517 256.869v42.694h42.667v85.333h-640zM725.333 746.667c-0.121-77.624-41.598-145.533-103.572-182.886l-0.961-0.538c-27.614-16.278-48.467-41.514-58.773-71.643l-0.277-0.933h-99.499c-10.61 31.071-31.474 56.318-58.476 72.281l-0.618 0.338c-62.918 37.881-104.381 105.777-104.491 183.365v42.683h426.667v-42.667z" fill="currentColor" />
  </g>
</svg>
