<?xml version="1.0" encoding="utf-8"?>
<svg xmlns="http://www.w3.org/2000/svg" viewBox="0 0 1024 1024" width="24" height="24">
  <g transform="scale(1, -1) translate(0, -960)">
    <path d="M640 542.592v246.741h42.667v85.333h-341.333v-85.333h42.667v-246.741l-182.101-400.597c-4.855-10.369-7.688-22.515-7.688-35.324 0-17.179 5.097-33.167 13.86-46.536l-0.199 0.323c15.33-23.678 41.615-39.126 71.507-39.126 0.076 0 0.152 0 0.228 0h464.841c0.064 0 0.14 0 0.216 0 29.892 0 56.176 15.447 71.306 38.794l0.201 0.331c15.787 24.491 18.048 54.997 5.973 81.536l-182.144 400.597zM465.493 515.669c2.56 5.547 3.84 11.563 3.84 17.664v256h85.333v-256c0-6.101 1.28-12.117 3.84-17.664l89.045-195.669h-271.019l88.96 195.669z" fill="currentColor" />
  </g>
</svg>
