<?xml version="1.0" encoding="utf-8"?>
<svg xmlns="http://www.w3.org/2000/svg" viewBox="0 0 1024 1024" width="24" height="24">
  <g transform="scale(1, -1) translate(0, -960)">
    <path d="M853.333 874.667h-597.333c-51.456 0-128-34.091-128-128v-597.333c0-93.909 76.544-128 128-128h640v85.333h-639.488c-19.712 0.512-43.179 8.277-43.179 42.667s23.467 42.155 43.179 42.667h639.488v640c0 23.564-19.103 42.667-42.667 42.667v0zM405.461 746.667c35.417 0 64.128-28.711 64.128-64.128s-28.711-64.128-64.128-64.128v0c-35.417 0-64.128 28.711-64.128 64.128s28.711 64.128 64.128 64.128v0zM512 405.333h-213.333l128 128 64-59.691 128 145.024 149.333-213.333h-256z" fill="currentColor" />
  </g>
</svg>
