<?xml version="1.0" encoding="utf-8"?>
<svg xmlns="http://www.w3.org/2000/svg" viewBox="0 0 1024 1024" width="24" height="24">
  <g transform="scale(1, -1) translate(0, -960)">
    <path d="M197.376 581.205c17.998 42.155 42.621 78.143 72.954 108.41l0.006 0.006c30.275 30.358 66.28 54.984 106.258 72.121l2.201 0.839c39.268 16.765 84.955 26.512 132.919 26.512 46.334 0 90.544-9.096 130.941-25.599l-2.313 0.836c1.803-57.263 48.656-102.997 106.191-102.997 0.047 0 0.095 0 0.142 0h-0.007c59.136 0 106.667 47.531 106.667 106.667s-47.531 106.667-106.667 106.667c-29.397 0-55.979-11.776-75.221-30.933-103.723 41.515-222.848 40.875-325.76-2.517-50.773-21.333-96.427-52.053-135.68-91.264-77.030-77.052-124.673-183.488-124.673-301.051 0-0.317 0-0.633 0.001-0.95v0.048h85.333c0 46.336 9.003 91.136 26.709 133.205zM826.581 314.795c-17.109-40.619-41.685-77.141-72.96-108.416s-67.797-55.851-108.459-72.96c-39.268-16.765-84.955-26.512-132.919-26.512-46.334 0-90.544 9.096-130.941 25.599l2.313-0.836c-1.757 57.253-48.59 102.997-106.108 102.997-0.061 0-0.123 0-0.184 0h0.009c-59.136 0-106.667-47.531-106.667-106.667s47.531-106.667 106.667-106.667c29.397 0 55.979 11.776 75.221 30.933 47.133-19.569 101.876-30.933 159.274-30.933 0.060 0 0.12 0 0.18 0h-0.009c0.244-0.001 0.533-0.001 0.822-0.001 175.444 0 326.114 106.073 391.376 257.586l1.060 2.766c21.123 48.836 33.409 105.702 33.409 165.439 0 0.308 0 0.616-0.001 0.924v-0.048h-85.333c0.001-0.237 0.001-0.518 0.001-0.798 0-47.811-9.838-93.323-27.601-134.624l0.848 2.217zM512 641.621c-106.752 0-193.621-86.869-193.621-193.621s86.869-193.621 193.621-193.621c106.752 0 193.621 86.869 193.621 193.621s-86.869 193.621-193.621 193.621z" fill="currentColor" />
  </g>
</svg>
