<?xml version="1.0" encoding="utf-8"?>
<svg xmlns="http://www.w3.org/2000/svg" viewBox="0 0 1024 1024" width="24" height="24">
  <g transform="scale(1, -1) translate(0, -960)">
    <path d="M496.896 794.965l-331.861-331.861c-46.251-46.359-74.851-110.346-74.851-181.013s28.6-134.654 74.856-181.018l-0.005 0.005c46.209-46.237 110.061-74.838 180.594-74.838 0.14 0 0.28 0 0.42 0h-0.022c0.131 0 0.286 0 0.441 0 70.532 0 134.385 28.6 180.592 74.836l331.863 331.863c46.251 46.359 74.851 110.346 74.851 181.013s-28.6 134.654-74.856 181.018l0.005-0.005c-46.364 46.241-110.349 74.834-181.013 74.834s-134.649-28.592-181.019-74.839l0.005 0.005zM384 405.333c-23.564 0-42.667 19.103-42.667 42.667s19.103 42.667 42.667 42.667v0c23.564 0 42.667-19.103 42.667-42.667s-19.103-42.667-42.667-42.667v0zM512 277.333c-23.564 0-42.667 19.103-42.667 42.667s19.103 42.667 42.667 42.667v0c23.564 0 42.667-19.103 42.667-42.667s-19.103-42.667-42.667-42.667v0zM512 533.333c-23.564 0-42.667 19.103-42.667 42.667s19.103 42.667 42.667 42.667v0c23.564 0 42.667-19.103 42.667-42.667s-19.103-42.667-42.667-42.667v0zM640 405.333c-23.564 0-42.667 19.103-42.667 42.667s19.103 42.667 42.667 42.667v0c23.564 0 42.667-19.103 42.667-42.667s-19.103-42.667-42.667-42.667v0z" fill="currentColor" />
  </g>
</svg>
