<?xml version="1.0" encoding="utf-8"?>
<svg xmlns="http://www.w3.org/2000/svg" viewBox="0 0 1024 1024" width="24" height="24">
  <g transform="scale(1, -1) translate(0, -960)">
    <path d="M813.696 749.696c-77.017 77.205-183.516 124.971-301.171 124.971-0.184 0-0.369 0-0.553 0h0.028c-0.334 0.001-0.73 0.001-1.126 0.001-117.466 0-223.774-47.775-300.552-124.954l-0.018-0.018c-80.597-80.597-124.971-187.776-124.971-301.696s44.373-221.099 124.971-301.696c80.597-80.597 187.776-124.971 301.696-124.971s221.099 44.373 301.696 124.971c77.197 76.796 124.972 183.104 124.972 300.57 0 0.396-0.001 0.792-0.002 1.187v-0.062c0 0.155 0 0.34 0 0.525 0 117.655-47.765 224.154-124.962 301.163l-0.009 0.009zM753.365 206.635c-64.469-64.469-150.187-99.968-241.365-99.968s-176.896 35.499-241.365 99.968c-64.469 64.469-99.968 150.187-99.968 241.365s35.499 176.896 99.968 241.365c61.431 61.753 146.469 99.969 240.433 99.969 0.328 0 0.655 0 0.982-0.001h-0.050v-341.333h341.333c0.001-0.277 0.001-0.604 0.001-0.932 0-93.964-38.217-179.002-99.955-240.419l-0.014-0.014z" fill="currentColor" />
  </g>
</svg>
