<?xml version="1.0" encoding="utf-8"?>
<svg xmlns="http://www.w3.org/2000/svg" viewBox="0 0 1024 1024" width="24" height="24">
  <g transform="scale(1, -1) translate(0, -960)">
    <path d="M265.685 490.667h492.672c36.779 0 56.32 43.52 31.872 71.040l-246.315 277.12c-7.838 8.817-19.209 14.344-31.872 14.344s-24.034-5.527-31.834-14.301l-0.038-0.043-246.4-277.12c-24.448-27.52-4.907-71.040 31.915-71.040zM480.128 57.216c7.838-8.817 19.209-14.344 31.872-14.344s24.034 5.527 31.834 14.301l0.038 0.043 246.315 277.12c24.491 27.477 4.949 70.997-31.872 70.997h-492.629c-36.779 0-56.32-43.52-31.872-71.040l246.315-277.077z" fill="currentColor" />
  </g>
</svg>
