<?xml version="1.0" encoding="utf-8"?>
<svg xmlns="http://www.w3.org/2000/svg" viewBox="0 0 1024 1024" width="24" height="24">
  <g transform="scale(1, -1) translate(0, -960)">
    <path d="M512 874.667c-235.641 0-426.667-191.025-426.667-426.667s191.025-426.667 426.667-426.667c235.641 0 426.667 191.025 426.667 426.667v0c0 235.641-191.025 426.667-426.667 426.667v0zM512 732.587c39.352 0 71.253-31.901 71.253-71.253s-31.901-71.253-71.253-71.253c-39.352 0-71.253 31.901-71.253 71.253v0c0 39.352 31.901 71.253 71.253 71.253v0zM654.080 199.253l-70.827-35.84-59.307 165.973h-23.893l-59.307-165.973-70.827 35.84 70.827 201.387v70.827l-142.080 47.787 23.893 70.827 142.080-47.36h94.72l142.080 47.36 23.893-70.827-142.080-47.787v-70.827z" fill="currentColor" />
  </g>
</svg>
