<?xml version="1.0" encoding="utf-8"?>
<svg xmlns="http://www.w3.org/2000/svg" viewBox="0 0 1024 1024" width="24" height="24">
  <g transform="scale(1, -1) translate(0, -960)">
    <path d="M554.667 704c106.965-18.048 195.285-106.368 213.333-213.333h170.667c-20.096 201.259-182.741 363.904-384 384v-170.667zM768 405.333c-20.395-120.875-127.232-211.157-253.824-211.157-141.184 0-256 114.816-256 256 0 126.592 90.283 233.429 211.157 253.824v170.667c-215.296-21.504-381.824-203.648-381.824-424.491 0-235.264 191.403-426.667 426.667-426.667 220.843 0 402.987 166.528 424.491 381.824h-170.667z" fill="currentColor" />
  </g>
</svg>
