<?xml version="1.0" encoding="utf-8"?>
<svg xmlns="http://www.w3.org/2000/svg" viewBox="0 0 1024 1024" width="24" height="24">
  <g transform="scale(1, -1) translate(0, -960)">
    <path d="M823.168 606.165l-88.277-88.277c-26.165 29.518-57.68 53.627-93.121 70.942l-1.77 0.781v199.723h42.667v85.333h-341.333v-85.333h42.667v-199.723c-101.587-49.117-170.46-151.296-170.667-269.583v-0.028c0-164.651 134.016-298.667 298.667-298.667s298.667 134.016 298.667 298.667c-0.046 45.451-10.298 88.496-28.588 126.982l0.769-1.798 100.651 100.651-60.331 60.331zM440.917 520.917l28.416 10.027v258.389h85.333v-258.389l28.416-10.027c69.845-25.464 121.862-84.391 137.141-156.858l0.246-1.393h-416.939c15.525 73.86 67.542 132.786 135.903 157.776l1.484 0.474z" fill="currentColor" />
  </g>
</svg>
