<?xml version="1.0" encoding="utf-8"?>
<svg xmlns="http://www.w3.org/2000/svg" viewBox="0 0 1024 1024" width="24" height="24">
  <g transform="scale(1, -1) translate(0, -960)">
    <path d="M874.667 746.667c-35.346 0-64-28.654-64-64v0-192h-42.667v277.333c0 35.346-28.654 64-64 64s-64-28.654-64-64v0-277.333h-42.667v320c0 35.346-28.654 64-64 64s-64-28.654-64-64v0-320h-42.667v234.667c0 35.346-28.654 64-64 64s-64-28.654-64-64v0-461.227l-94.72 153.6c-11.497 18.407-31.646 30.471-54.613 30.471-35.444 0-64.178-28.733-64.178-64.178 0-12.477 3.561-24.123 9.721-33.976l-0.157 0.27 141.227-227.84c38.218-61.062 105.098-101.082 181.328-101.12h308.059c117.821 0 213.333 95.513 213.333 213.333v0 448c0 35.346-28.654 64-64 64v0z" fill="currentColor" />
  </g>
</svg>
