<?xml version="1.0" encoding="utf-8"?>
<svg xmlns="http://www.w3.org/2000/svg" viewBox="0 0 1024 1024" width="24" height="24">
  <g transform="scale(1, -1) translate(0, -960)">
    <path d="M664.149 489.771c88.194 53.038 146.33 148.157 146.517 256.869v42.694h42.667v85.333h-682.667v-85.333h42.667v-42.667c0.187-108.739 58.324-203.858 145.168-256.143l1.349-0.753c15.104-8.875 24.149-23.253 24.149-38.4v-6.741c0-15.104-9.045-29.44-24.149-38.4-88.194-53.038-146.33-148.157-146.517-256.869v-42.694h-42.667v-85.333h682.667v85.333h-42.667v42.667c-0.176 108.72-58.298 203.825-145.126 256.1l-1.349 0.753c-15.147 8.96-24.192 23.339-24.192 38.443v6.741c0 15.147 9.045 29.525 24.149 38.4zM725.333 149.333v-42.667h-426.667v42.667c0.121 77.624 41.598 145.533 103.572 182.886l0.961 0.538c27.603 16.289 48.453 41.522 58.773 71.642l0.278 0.934h99.499c9.813-29.483 30.037-55.467 59.093-72.619 62.918-37.881 104.381-105.777 104.491-183.365v-0.016z" fill="currentColor" />
  </g>
</svg>
