<?xml version="1.0" encoding="utf-8"?>
<svg xmlns="http://www.w3.org/2000/svg" viewBox="0 0 1024 1024" width="24" height="24">
  <g transform="scale(1, -1) translate(0, -960)">
    <path d="M927.701 433.877l-384 426.667c-16.171 18.005-47.232 18.005-63.403 0l-384-426.667c-6.802-7.517-10.965-17.534-10.965-28.523 0-6.297 1.367-12.275 3.82-17.653l-0.109 0.266c6.827-15.403 22.101-25.301 38.955-25.301h85.333v-298.667c0-23.564 19.103-42.667 42.667-42.667v0h128c23.564 0 42.667 19.103 42.667 42.667v0 170.667h170.667v-170.667c0-23.564 19.103-42.667 42.667-42.667v0h128c23.564 0 42.667 19.103 42.667 42.667v0 298.667h85.333c0.054 0 0.118 0 0.181 0 23.517 0 42.581 19.064 42.581 42.581 0 11.040-4.201 21.098-11.092 28.664l0.031-0.034z" fill="currentColor" />
  </g>
</svg>
