<?xml version="1.0" encoding="utf-8"?>
<svg xmlns="http://www.w3.org/2000/svg" viewBox="0 0 1024 1024" width="24" height="24">
  <g transform="scale(1, -1) translate(0, -960)">
    <path d="M810.283 874.667h-425.856c-47.403 0-85.76-38.357-85.76-85.76v-240.512l-200.619-198.059c-7.821-7.737-12.664-18.471-12.664-30.336 0-23.546 19.074-42.638 42.613-42.667h0.003v-213.333c0-23.564 19.103-42.667 42.667-42.667v0h682.667c23.564 0 42.667 19.103 42.667 42.667v0 724.949c0 47.36-38.315 85.717-85.717 85.717zM466.005 315.264v-208.597h-252.672v237.568l127.445 125.824 125.227-128.128v-26.667zM554.667 576h-85.333v85.333h85.333v-85.333zM725.333 234.667h-85.333v85.333h85.333v-85.333zM725.333 405.333h-85.333v85.333h85.333v-85.333zM725.333 576h-85.333v85.333h85.333v-85.333zM298.667 320h85.333v-85.333h-85.333z" fill="currentColor" />
  </g>
</svg>
