<?xml version="1.0" encoding="utf-8"?>
<svg xmlns="http://www.w3.org/2000/svg" viewBox="0 0 1024 1024" width="24" height="24">
  <g transform="scale(1, -1) translate(0, -960)">
    <path d="M474.88 771.84l180.48-180.48-45.227-45.227-180.907 180.907-75.52-75.52 180.907-180.907-45.227-45.227-180.907 180.907-75.52-75.52 180.907-180.907-45.227-45.227-180.48 180.48c-108.8-122.453-122.027-293.12-26.453-387.413 41.192-39.642 97.283-64.059 159.077-64.059 1.825 0 3.645 0.021 5.459 0.064l-0.269-0.005c94.091 2.219 178.435 42.178 238.814 105.262l0.119 0.125 256 256c122.453 122.453 141.227 303.36 42.667 403.2s-266.24 82.347-388.693-26.453z" fill="currentColor" />
  </g>
</svg>
