<?xml version="1.0" encoding="utf-8"?>
<svg xmlns="http://www.w3.org/2000/svg" viewBox="0 0 1024 1024" width="24" height="24">
  <g transform="scale(1, -1) translate(0, -960)">
    <path d="M170.667 874.667v-768h-42.667v-85.333h170.667v85.333h-42.667v213.333h554.667c23.564 0 42.667 19.103 42.667 42.667v0 426.667c0 23.564-19.103 42.667-42.667 42.667v0h-554.667v42.667h-85.333zM341.333 746.667v-85.333h85.333v85.333h85.333v-85.333h85.333v85.333h85.333v-85.333h85.333v-85.333h-85.333v-85.333h85.333v-85.333h-85.333v85.333h-85.333v-85.333h-85.333v85.333h-85.333v-85.333h-85.333v85.333h-85.333v85.333h85.333v85.333h-85.333v85.333h85.333zM341.333 576h85.333v-85.333h-85.333zM512 576h85.333v-85.333h-85.333zM426.667 661.333h85.333v-85.333h-85.333zM597.333 661.333h85.333v-85.333h-85.333z" fill="currentColor" />
  </g>
</svg>
