<?xml version="1.0" encoding="utf-8"?>
<svg xmlns="http://www.w3.org/2000/svg" viewBox="0 0 1024 1024" width="24" height="24">
  <g transform="scale(1, -1) translate(0, -960)">
    <path d="M853.333 832h-307.627c-43.793-0.017-79.872-33.020-84.742-75.51l-0.037-0.394-34.261-308.096h-256c-47.128 0-85.333-38.205-85.333-85.333s38.205-85.333 85.333-85.333v0h512l-51.712-129.28c-3.859-9.383-6.1-20.276-6.1-31.692 0-37.489 24.163-69.335 57.766-80.813l0.601-0.178 14.507-4.821c4.026-1.391 8.665-2.194 13.492-2.194 13.142 0 24.893 5.953 32.704 15.31l0.055 0.068 184.832 221.739c6.357 7.637 9.856 17.323 9.856 27.307v453.888c0 47.128-38.205 85.333-85.333 85.333v0z" fill="currentColor" />
  </g>
</svg>
