<?xml version="1.0" encoding="utf-8"?>
<svg xmlns="http://www.w3.org/2000/svg" viewBox="0 0 1024 1024" width="24" height="24">
  <g transform="scale(1, -1) translate(0, -960)">
    <path d="M853.333 789.333h-682.667c-47.061 0-85.333-38.272-85.333-85.333v-512c0-47.061 38.272-85.333 85.333-85.333h682.667c47.061 0 85.333 38.272 85.333 85.333v512c0 47.061-38.272 85.333-85.333 85.333zM371.84 618.667c49.109 0 85.333-36.224 85.333-85.333s-36.224-85.333-85.333-85.333-85.333 36.224-85.333 85.333 36.181 85.333 85.333 85.333zM530.347 277.333h-317.013v19.84c0 58.581 71.509 118.827 158.507 118.827s158.507-60.245 158.507-118.827v-19.84zM810.667 320h-170.667v85.333h170.667v-85.333zM810.667 490.667h-213.333v85.333h213.333v-85.333z" fill="currentColor" />
  </g>
</svg>
