<?xml version="1.0" encoding="utf-8"?>
<svg xmlns="http://www.w3.org/2000/svg" viewBox="0 0 1024 1024" width="24" height="24">
  <g transform="scale(1, -1) translate(0, -960)">
    <path d="M512 21.333c235.264 0 426.667 191.403 426.667 426.667s-191.403 426.667-426.667 426.667-426.667-191.403-426.667-426.667 191.403-426.667 426.667-426.667zM661.035 576c0.485 0.013 1.055 0.021 1.628 0.021 35.205 0 63.744-28.539 63.744-63.744s-28.539-63.744-63.744-63.744c-0.587 0-1.173 0.008-1.756 0.024l0.086-0.002c-34.479 0.932-62.074 29.105-62.074 63.722 0 34.633 27.619 62.814 62.032 63.721l0.084 0.002zM477.525 280.789c10.365-2.177 22.274-3.424 34.475-3.424s24.11 1.247 35.608 3.619l-1.134-0.196c10.795 2.219 21.547 5.589 32 9.941 9.984 4.267 19.797 9.557 28.971 15.701 8.875 6.059 17.365 13.056 25.216 20.864 7.808 7.765 14.805 16.256 20.864 25.259l70.741-47.659c-18.689-27.452-41.654-50.444-68.195-68.593l-0.883-0.57c-26.153-17.873-56.905-31.273-90.018-38.275l-1.672-0.296c-15.451-3.25-33.204-5.111-51.393-5.111-18.264 0-36.090 1.876-53.296 5.447l1.691-0.293c-34.775 7.189-65.528 20.586-92.508 39.085l0.86-0.557c-27.426 18.765-50.412 41.765-68.589 68.318l-0.574 0.887 70.741 47.659c6.101-9.003 13.099-17.493 20.821-25.173 22.873-22.983 52.261-39.464 85.16-46.437l1.112-0.197zM362.667 576c35.349-0.012 64-28.671 64-64.021 0-35.358-28.663-64.021-64.021-64.021-0.008 0-0.015 0-0.023 0h0.001c-35.349 0.012-64 28.671-64 64.021 0 35.358 28.663 64.021 64.021 64.021 0.008 0 0.015 0 0.023 0h-0.001z" fill="currentColor" />
  </g>
</svg>
