<?xml version="1.0" encoding="utf-8"?>
<svg xmlns="http://www.w3.org/2000/svg" viewBox="0 0 1024 1024" width="24" height="24">
  <g transform="scale(1, -1) translate(0, -960)">
    <path d="M853.333 789.333h-682.667c-47.128 0-85.333-38.205-85.333-85.333v0-512c0-47.128 38.205-85.333 85.333-85.333v0h682.667c47.128 0 85.333 38.205 85.333 85.333v0 512c0 47.128-38.205 85.333-85.333 85.333v0zM341.333 234.667h-128v426.667h128zM426.667 234.667h-42.667v426.667h42.667zM512 234.667h-42.667v426.667h42.667zM682.667 234.667h-128v426.667h128zM810.667 234.667h-85.333v426.667h85.333z" fill="currentColor" />
  </g>
</svg>
