<?xml version="1.0" encoding="utf-8"?>
<svg xmlns="http://www.w3.org/2000/svg" viewBox="0 0 1024 1024" width="24" height="24">
  <g transform="scale(1, -1) translate(0, -960)">
    <path d="M810.667 874.667h-554.667c-51.456 0-128-34.091-128-128v-597.333c0-93.909 76.544-128 128-128h640v85.333h-639.488c-19.712 0.512-43.179 8.277-43.179 42.667 0 4.309 0.384 8.149 1.024 11.648 4.779 24.576 24.917 30.592 42.155 31.019h639.488v597.333c0 47.128-38.205 85.333-85.333 85.333v0zM810.667 490.667l-85.333 42.667-85.333-42.667v298.667h170.667v-298.667z" fill="currentColor" />
  </g>
</svg>
