<?xml version="1.0" encoding="utf-8"?>
<svg xmlns="http://www.w3.org/2000/svg" viewBox="0 0 1024 1024" width="24" height="24">
  <g transform="scale(1, -1) translate(0, -960)">
    <path d="M422.912 596.011l-119.083 198.571c-3.786 6.34-10.612 10.519-18.414 10.519-4.321 0-8.342-1.282-11.705-3.487l0.081 0.050c-106.48-72.187-177.984-189.068-187.486-323.081l-0.077-1.357c-0.014-0.294-0.022-0.638-0.022-0.984 0-11.788 9.466-21.365 21.211-21.544h0.017l231.296-3.84c1.11 61.507 34.251 115.034 83.408 144.719l0.773 0.433zM768.896 788.437c-3.493 2.554-7.873 4.086-12.611 4.086-7.827 0-14.677-4.181-18.438-10.432l-0.054-0.097-119.168-198.741c39.651-31.231 65.111-78.947 65.961-132.639l0.002-0.139 231.211 3.84c11.809 0.18 21.313 9.795 21.313 21.63 0 0.346-0.008 0.69-0.024 1.032l0.002-0.048c-8.76 127.48-72.363 238.532-167.151 310.748l-1.041 0.761zM595.371 297.301c-24.057-13.942-52.894-22.246-83.655-22.442h-0.057c-30.832 0.191-59.685 8.496-84.581 22.883l0.826-0.44-112.725-202.88c-1.75-3.028-2.782-6.661-2.782-10.534 0-8.234 4.665-15.379 11.496-18.935l0.118-0.056c54.651-27.476 119.099-43.563 187.303-43.563 0.121 0 0.242 0 0.363 0h-0.019c0.1 0 0.219 0 0.339 0 68.178 0 132.598 16.087 189.672 44.673l-2.448-1.11c6.949 3.612 11.614 10.757 11.614 18.991 0 3.874-1.032 7.506-2.837 10.638l0.055-0.103-112.683 202.88zM640 448c0-70.692-57.308-128-128-128s-128 57.308-128 128c0 70.692 57.308 128 128 128s128-57.308 128-128z" fill="currentColor" />
  </g>
</svg>
