<?xml version="1.0" encoding="utf-8"?>
<svg xmlns="http://www.w3.org/2000/svg" viewBox="0 0 1024 1024" width="24" height="24">
  <g transform="scale(1, -1) translate(0, -960)">
    <path d="M140.757 209.237c18.432-56.832 74.453-93.099 134.229-93.099h2.347c11.455-54.48 59.108-94.796 116.18-94.805h0.001c19.499 0 37.717 4.907 53.845 13.355 13.196 7.339 21.977 21.201 21.977 37.113 0 0.183-0.001 0.365-0.003 0.547v-0.028 758.528c0.001 0.111 0.002 0.243 0.002 0.375 0 20.289-14.204 37.261-33.211 41.513l-0.284 0.053c-5.684 1.157-12.218 1.819-18.906 1.819-16.107 0-31.316-3.84-44.763-10.655l0.566 0.26c-31.744-15.189-50.347-49.109-50.347-84.395v-2.347c-7.126 1.522-15.313 2.394-23.703 2.394-65.461 0-118.528-53.067-118.528-118.528 0-27.655 9.471-53.097 25.346-73.261l-0.192 0.253c-68.379-11.011-119.979-69.6-119.979-140.241 0-0.031 0-0.063 0-0.094v0.005c0-50.261 26.069-94.336 65.408-119.979-18.347-32.896-24.363-74.496-9.984-118.784zM818.688 588.331c15.683 19.911 25.154 45.353 25.154 73.008 0 65.461-53.067 118.528-118.528 118.528-8.39 0-16.577-0.872-24.475-2.53l0.772 0.136v2.347c0 35.243-18.645 69.205-50.389 84.395-12.87 6.556-28.067 10.397-44.162 10.397-6.686 0-13.218-0.663-19.532-1.927l0.632 0.106c-19.293-4.323-33.495-21.303-33.495-41.601 0-0.12 0-0.24 0.001-0.359v0.018-758.485c0-15.573 8.192-30.379 22.016-37.632 16.128-8.491 34.304-13.397 53.803-13.397 57.084 0.013 104.744 40.35 116.045 94.075l0.136 0.773h2.389c59.733 0 115.797 36.267 134.229 93.099 14.379 44.288 8.363 85.888-9.984 118.784 39.544 25.832 65.322 69.869 65.365 119.93v0.006c0 0.027 0 0.058 0 0.090 0 70.641-51.6 129.23-119.164 140.133l-0.814 0.108z" fill="currentColor" />
  </g>
</svg>
