<?xml version="1.0" encoding="utf-8"?>
<svg xmlns="http://www.w3.org/2000/svg" viewBox="0 0 1024 1024" width="24" height="24">
  <g transform="scale(1, -1) translate(0, -960)">
    <path d="M725.333 362.667c43.022 0.163 83.005 13.036 116.429 35.056l-0.802-0.496 12.373 8.107c7.172 4.898 13.448 10.089 19.211 15.797l-0.011-0.010 8.96 8.533c7.308 7.451 14.036 15.533 20.073 24.135l0.407 0.611 2.56 3.413c6.416 9.329 12.276 19.992 17.043 31.23l0.451 1.196c1.364 2.723 2.667 5.974 3.713 9.339l0.127 0.475c3.144 7.44 6.073 16.409 8.286 25.657l0.247 1.223 2.56 10.667c1.192 8.884 1.872 19.155 1.872 29.584 0 3.1-0.060 6.187-0.179 9.258l0.014-0.442v298.667l-128-128h-170.667l-128 128v-298.667c0-117.821 95.513-213.333 213.333-213.333v0zM810.667 661.333c23.564 0 42.667-19.103 42.667-42.667s-19.103-42.667-42.667-42.667c-23.564 0-42.667 19.103-42.667 42.667v0c0 23.564 19.103 42.667 42.667 42.667v0zM640 661.333c23.564 0 42.667-19.103 42.667-42.667s-19.103-42.667-42.667-42.667c-23.564 0-42.667 19.103-42.667 42.667v0c0 23.564 19.103 42.667 42.667 42.667v0zM469.333 21.333v213.333h-128v-213.333h-128v430.933c-45.049 6.719-82.92 32.791-105.444 69.33l-0.369 0.643c-13.214 21.425-21.359 47.227-22.181 74.867l-0.005 0.226c3.14 83.534 71.616 150.061 155.63 150.061 5.295 0 10.528-0.264 15.688-0.78l-0.651 0.053c1.446-0.093 3.136-0.145 4.839-0.145 44.536 0 80.64 36.104 80.64 80.64 0 1.702-0.053 3.392-0.157 5.068l0.011-0.23c0 23.564 19.103 42.667 42.667 42.667v0 0c23.564 0 42.667-19.103 42.667-42.667v0c0.044-1.419 0.068-3.087 0.068-4.762 0-91.665-74.309-165.973-165.973-165.973-1.674 0-3.343 0.025-5.005 0.074l0.244-0.006c-77.227 0-85.333-49.493-85.333-64.427s7.68-63.573 85.333-63.573h217.173c21.313-121.677 126.174-212.971 252.358-212.971 30.514 0 59.782 5.339 86.919 15.133l-1.784-0.562v-313.6h-128v213.333h-85.333v-213.333z" fill="currentColor" />
  </g>
</svg>
