<?xml version="1.0" encoding="utf-8"?>
<svg xmlns="http://www.w3.org/2000/svg" viewBox="0 0 1024 1024" width="24" height="24">
  <g transform="scale(1, -1) translate(0, -960)">
    <path d="M302.080 480c5.438 35.813 19.35 67.642 39.627 94.38l-0.373-0.514-152.32 151.893c-58.134-65.881-96.114-150.78-103.585-244.28l-0.095-1.48zM386.133 618.667c26.251 19.752 58.088 33.523 92.735 38.688l1.131 0.139v217.173c-94.98-7.566-179.879-45.546-246.218-104.076l0.458 0.396zM544 874.667v-213.333c36.862-6.131 69.42-21.23 96.396-42.976l-0.396 0.309 151.893 151.893c-66.377 58.692-152.090 96.898-246.48 104.021l-1.413 0.086zM341.333 320c-19.752 26.251-33.523 58.088-38.688 92.735l-0.139 1.131h-217.173c7.054-94.797 44.456-179.714 102.406-246.268l-0.433 0.508zM480 238.080c-35.813 5.438-67.642 19.35-94.38 39.627l0.514-0.373-151.893-152.32c65.881-58.134 150.78-96.114 244.28-103.585l1.48-0.095zM682.667 573.867c19.752-26.251 33.523-58.088 38.688-92.735l0.139-1.131h213.333c-7.054 94.797-44.456 179.714-102.406 246.268l0.433-0.508zM640 277.333c-26.251-19.752-58.088-33.523-92.735-38.688l-1.131-0.139v-213.333c94.797 7.054 179.714 44.456 246.268 102.406l-0.508-0.433zM721.92 416c-5.066-36.584-19.033-69.195-39.633-96.525l0.379 0.525 151.893-151.893c58.692 66.377 96.898 152.090 104.021 246.48l0.086 1.413z" fill="currentColor" />
  </g>
</svg>
