<?xml version="1.0" encoding="utf-8"?>
<svg xmlns="http://www.w3.org/2000/svg" viewBox="0 0 1024 1024" width="24" height="24">
  <g transform="scale(1, -1) translate(0, -960)">
    <path d="M682.667 64c150.485 66.005 255.957 209.451 255.957 384s-105.472 317.995-255.957 384v-85.333c101.845-59.136 170.624-172.672 170.624-298.667s-68.779-239.531-170.624-298.667v-85.333zM682.667 661.333v-426.667c52.267 46.933 85.333 137.771 85.333 213.333s-33.067 166.4-85.333 213.333zM170.667 234.667h115.072l311.595-207.701v842.069l-311.595-207.701h-115.072c-47.061 0-85.333-38.272-85.333-85.333v-256c0-47.061 38.272-85.333 85.333-85.333z" fill="currentColor" />
  </g>
</svg>
