<?xml version="1.0" encoding="utf-8"?>
<svg xmlns="http://www.w3.org/2000/svg" viewBox="0 0 1024 1024" width="24" height="24">
  <g transform="scale(1, -1) translate(0, -960)">
    <path d="M725.205 320c-68.309 0-104.363 28.843-133.333 52.011-24.192 19.328-41.685 33.323-80.128 33.323-38.315 0-54.912-13.269-79.957-33.28-28.971-23.211-65.024-52.053-133.333-52.053s-104.277 28.843-133.248 52.053c-25.045 20.011-41.6 33.28-79.872 33.28v-213.333c0-47.061 38.272-85.333 85.333-85.333h682.667c47.061 0 85.333 38.272 85.333 85.333v213.333c-38.357 0-54.955-13.269-80.043-33.323-29.013-23.168-65.067-52.011-133.419-52.011zM810.667 746.667h-256v128h-85.333v-128h-256c-70.571 0-128-57.429-128-128v-128c68.267 0 104.235-28.843 133.205-52.053 25.045-20.011 41.6-33.28 79.915-33.28 38.357 0 54.912 13.269 80 33.323 28.971 23.168 65.024 52.011 133.291 52.011 68.352 0 104.405-28.843 133.419-52.011 25.088-20.053 41.685-33.323 80.043-33.323 38.4 0 55.936 13.995 80.128 33.323 28.971 23.168 65.024 52.011 133.333 52.011v128c0 70.571-57.429 128-128 128z" fill="currentColor" />
  </g>
</svg>
