<?xml version="1.0" encoding="utf-8"?>
<svg xmlns="http://www.w3.org/2000/svg" viewBox="0 0 1024 1024" width="24" height="24">
  <g transform="scale(1, -1) translate(0, -960)">
    <path d="M344.448 439.723l-164.736 164.736c-64.853-70.699-89.429-141.525-89.856-142.976l-4.523-13.483 4.48-13.483c0.939-2.859 98.816-285.184 424.491-285.184 39.637 0 75.733 4.352 108.885 11.648l-117.163 117.163c-87.403 4.417-157.162 74.175-161.562 161.172l-0.016 0.406zM514.304 746.667c-79.147 0-144-17.237-198.059-42.581l-158.080 158.080-60.331-60.331 768-768 60.331 60.331-140.715 140.715c112.555 83.328 152.704 197.845 153.301 199.637l4.48 13.483-4.48 13.483c-0.939 2.859-98.773 285.184-424.448 285.184zM595.627 424.704c7.979 28.885 1.195 61.397-20.992 83.627s-54.741 28.971-83.627 20.992l-64.341 64.341c24.935 15.566 55.186 24.852 87.596 25.003h0.041c94.123 0 170.667-76.544 170.667-170.667-0.137-32.443-9.443-62.684-25.457-88.301l0.412 0.707-64.299 64.299z" fill="currentColor" />
  </g>
</svg>
