<?xml version="1.0" encoding="utf-8"?>
<svg xmlns="http://www.w3.org/2000/svg" viewBox="0 0 1024 1024" width="24" height="24">
  <g transform="scale(1, -1) translate(0, -960)">
    <path d="M462.507 26.837l49.493-5.504c-25.714 200.057-183.827 356.393-382.543 379.162l-2.012 0.187-42.112 4.651 0.896-7.381c25.191-195.722 179.891-348.659 374.31-370.931l1.968-0.183zM937.771 397.952l0.896 7.381-42.112-4.651c-200.533-22.315-359.552-179.2-384.555-379.349l49.493 5.504c196.387 22.456 351.086 175.393 376.053 368.981l0.225 2.134zM770.688 725.333c-18.787 32.107-53.102 53.33-92.374 53.33-19.636 0-38.034-5.306-53.836-14.563l0.503 0.273c-2.645-1.493-4.736-3.456-7.168-5.163 0.213 2.944 0.853 5.803 0.853 8.789 0 58.91-47.756 106.667-106.667 106.667s-106.667-47.756-106.667-106.667v0c0-2.987 0.64-5.845 0.896-8.789-2.432 1.707-4.565 3.669-7.168 5.163-15.152 8.767-33.332 13.94-52.721 13.94-58.91 0-106.667-47.756-106.667-106.667 0-39.024 20.956-73.154 52.229-91.749l0.491-0.27c2.603-1.493 5.376-2.389 8.021-3.627-2.645-1.237-5.419-2.133-8.021-3.627-31.764-18.866-52.721-52.995-52.721-92.020 0-58.91 47.756-106.667 106.667-106.667 19.389 0 37.569 5.173 53.236 14.214l-0.515-0.274c2.645 1.493 4.736 3.456 7.168 5.163-0.256-2.944-0.896-5.803-0.896-8.789 0-58.91 47.756-106.667 106.667-106.667s106.667 47.756 106.667 106.667v0c0 2.987-0.64 5.845-0.896 8.789 2.432-1.707 4.523-3.669 7.168-5.163 15.152-8.767 33.332-13.94 52.721-13.94 58.91 0 106.667 47.756 106.667 106.667 0 39.024-20.956 73.154-52.229 91.749l-0.491 0.27c-2.603 1.493-5.376 2.389-8.021 3.627 2.688 1.237 5.419 2.133 8.021 3.627 32.124 18.782 53.362 53.107 53.362 92.393 0 19.629-5.302 38.020-14.552 53.818l0.273-0.504zM512 448c-70.692 0-128 57.308-128 128s57.308 128 128 128v0c70.692 0 128-57.308 128-128s-57.308-128-128-128v0z" fill="currentColor" />
  </g>
</svg>
