<?xml version="1.0" encoding="utf-8"?>
<svg xmlns="http://www.w3.org/2000/svg" viewBox="0 0 1024 1024" width="24" height="24">
  <g transform="scale(1, -1) translate(0, -960)">
    <path d="M732.501 618.667h-177.835l34.389 206.293c0.372 2.117 0.585 4.553 0.585 7.040 0 23.564-19.103 42.667-42.667 42.667-0.011 0-0.021 0-0.032 0h-219.817c-21.072-0.006-38.574-15.288-42.033-35.373l-0.036-0.254-71.125-426.667c-0.372-2.116-0.585-4.553-0.585-7.040 0-23.56 19.095-42.66 42.653-42.667h170.667v-341.333l341.76 531.584c4.253 6.523 6.783 14.507 6.783 23.083 0 23.564-19.103 42.667-42.667 42.667-0.015 0-0.029 0-0.044 0h0.002z" fill="currentColor" />
  </g>
</svg>
