<?xml version="1.0" encoding="utf-8"?>
<svg xmlns="http://www.w3.org/2000/svg" viewBox="0 0 1024 1024" width="24" height="24">
  <g transform="scale(1, -1) translate(0, -960)">
    <path d="M400.213 36.437c33.502-9.531 71.988-15.041 111.751-15.104h0.036l6.016 0.043c45.195 0.581 84.676 24.512 106.993 60.261l0.314 0.539c23.125 37.376 25.6 83.328 6.528 122.88l-8.448 17.707c-19.328 40.192-4.139 76.629 16.555 97.323s57.216 35.883 97.28 16.555h0.043l17.621-8.491c16.228-8.026 35.333-12.722 55.535-12.722 24.962 0 48.249 7.169 67.915 19.561l-0.528-0.31c36.311 22.616 60.261 62.102 60.842 107.222l0.001 0.085c0.024 1.69 0.038 3.684 0.038 5.682 0 39.881-5.513 78.475-15.817 115.061l0.718-2.983c-44.288 163.285-185.728 288.171-351.829 310.827-134.357 18.219-266.283-25.685-361.429-120.875s-139.264-226.901-120.917-361.429c22.613-166.144 147.541-307.541 310.784-351.829zM661.333 704c35.346 0 64-28.654 64-64s-28.654-64-64-64v0c-35.346 0-64 28.654-64 64s28.654 64 64 64v0zM448 746.667c35.346 0 64-28.654 64-64s-28.654-64-64-64v0c-35.346 0-64 28.654-64 64s28.654 64 64 64v0zM384 298.411c0-35.346-28.654-64-64-64s-64 28.654-64 64v0c0 35.346 28.654 64 64 64s64-28.654 64-64v0zM277.333 575.744c35.349-0.012 64-28.671 64-64.021 0-35.358-28.663-64.021-64.021-64.021-0.008 0-0.015 0-0.023 0h0.001c-35.349 0.012-64 28.671-64 64.021 0 35.358 28.663 64.021 64.021 64.021 0.008 0 0.015 0 0.023 0h-0.001z" fill="currentColor" />
  </g>
</svg>
