<?xml version="1.0" encoding="utf-8"?>
<svg xmlns="http://www.w3.org/2000/svg" viewBox="0 0 1024 1024" width="24" height="24">
  <g transform="scale(1, -1) translate(0, -960)">
    <path d="M896 465.195v25.472h42.667v128h-42.667v85.333c0 94.123-76.544 170.667-170.667 170.667h-426.667c-94.123 0-170.667-76.544-170.667-170.667v-85.333h-42.667v-128h42.667v-25.472c-26.46-29.748-42.625-69.163-42.625-112.354 0-0.221 0-0.441 0.001-0.662v0.034l0.171-160.341c0.043-31.275 17.237-58.411 42.453-73.216v-54.656c0-23.564 19.103-42.667 42.667-42.667v0h42.667c23.564 0 42.667 19.103 42.667 42.667v0 42.667h512v-42.667c0-23.564 19.103-42.667 42.667-42.667v0h42.667c23.564 0 42.667 19.103 42.667 42.667v0 54.357c6.836 3.855 12.734 8.284 17.985 13.376l-0.022-0.021c16.085 16.128 24.96 37.589 24.917 60.373l-0.171 160.384c0 0.106 0 0.232 0 0.357 0 43.21-16.2 82.635-42.857 112.536l0.147-0.168zM341.333 789.333h341.333v-85.333h-341.333v85.333zM277.333 234.667c-35.349 0.012-64 28.671-64 64.021 0 35.358 28.663 64.021 64.021 64.021 0.008 0 0.015 0 0.023 0h-0.001c35.349-0.012 64-28.671 64-64.021 0-35.358-28.663-64.021-64.021-64.021-0.008 0-0.015 0-0.023 0h0.001zM469.333 448h-256v170.667h256v-170.667zM746.667 234.667c-35.349 0.012-64 28.671-64 64.021 0 35.358 28.663 64.021 64.021 64.021 0.008 0 0.015 0 0.023 0h-0.001c35.349-0.012 64-28.671 64-64.021 0-35.358-28.663-64.021-64.021-64.021-0.008 0-0.015 0-0.023 0h0.001zM810.667 448h-256v170.667h256v-170.667z" fill="currentColor" />
  </g>
</svg>
