<?xml version="1.0" encoding="utf-8"?>
<svg xmlns="http://www.w3.org/2000/svg" viewBox="0 0 1024 1024" width="24" height="24">
  <g transform="scale(1, -1) translate(0, -960)">
    <path d="M359.851 82.517c56.96 0 110.549 22.187 150.827 62.464l304.384 304.341c38.523 38.643 62.341 91.964 62.341 150.848 0 58.905-23.836 112.243-62.389 150.895l0.005-0.005c-38.398 38.561-91.532 62.422-150.239 62.422-0.222 0-0.443 0-0.664-0.001h0.034c-56.96 0-110.507-22.187-150.784-62.464l-304.384-304.341c-38.528-38.657-62.349-91.992-62.349-150.891 0-58.878 23.804-112.195 62.313-150.855l-0.007 0.007c38.412-38.561 91.557-62.422 150.275-62.422 0.224 0 0.448 0 0.672 0.001h-0.035zM573.653 690.688c23.024 23.141 54.894 37.462 90.109 37.462 0.121 0 0.242 0 0.363-0.001h-0.019c34.219 0 66.389-13.312 90.539-37.461 23.14-23.185 37.449-55.191 37.449-90.539 0-35.327-14.292-67.315-37.409-90.499l-123.432-123.389-180.992 181.077 123.392 123.349z" fill="currentColor" />
  </g>
</svg>
