<?xml version="1.0" encoding="utf-8"?>
<svg xmlns="http://www.w3.org/2000/svg" viewBox="0 0 1024 1024" width="24" height="24">
  <g transform="scale(1, -1) translate(0, -960)">
    <path d="M576.299 868.779c-6.179 3.683-13.626 5.861-21.582 5.861-10.599 0-20.294-3.864-27.756-10.261l0.058 0.048-347.989-296.832c-124.757-124.757-124.757-327.765 0-452.523 57.707-57.782 137.469-93.526 225.579-93.526 0.195 0 0.39 0 0.584 0.001h-0.030c82.091 0 164.267 31.317 226.859 93.952l294.528 302.763c7.467 7.676 12.072 18.17 12.072 29.739 0 23.548-19.076 42.641-42.618 42.667h-140.845l178.133 320.597c3.332 5.942 5.295 13.040 5.295 20.597 0 23.588-19.122 42.709-42.709 42.709-7.546 0-14.634-1.957-20.786-5.391l0.217 0.111-303.36-168.533 24.576 122.837c0.524 2.511 0.824 5.396 0.824 8.351 0 15.607-8.363 29.261-20.852 36.725l-0.195 0.108zM597.333 341.333c0-106.039-85.961-192-192-192s-192 85.961-192 192v0c0 66.987 34.432 125.824 86.4 160.171-0.427-3.584-1.067-7.125-1.067-10.837 0-47.128 38.205-85.333 85.333-85.333s85.333 38.205 85.333 85.333c0 11.89-2.432 23.212-6.825 33.495l0.211-0.557c77.824-24.491 134.613-96.341 134.613-182.272z" fill="currentColor" />
  </g>
</svg>
