<?xml version="1.0" encoding="utf-8"?>
<svg xmlns="http://www.w3.org/2000/svg" viewBox="0 0 1024 1024" width="24" height="24">
  <g transform="scale(1, -1) translate(0, -960)">
    <path d="M853.333 490.667h-85.333v213.333h42.667v170.667h-85.333v-85.333h-42.667v85.333h-85.333v-85.333h-42.667v85.333h-85.333v-85.333h-42.667v85.333h-85.333v-85.333h-42.667v85.333h-85.333v-170.667h42.667v-213.333h-85.333v85.333h-85.333v-512h298.667v213.333c0 70.692 57.308 128 128 128s128-57.308 128-128v0-213.333h298.667v512h-85.333zM426.667 533.333h-85.333v128h85.333zM682.667 533.333h-85.333v128h85.333z" fill="currentColor" />
  </g>
</svg>
