<?xml version="1.0" encoding="utf-8"?>
<svg xmlns="http://www.w3.org/2000/svg" viewBox="0 0 1024 1024" width="24" height="24">
  <g transform="scale(1, -1) translate(0, -960)">
    <path d="M779.819 618.667c14.805-25.429 42.027-42.667 73.515-42.667 47.128 0 85.333 38.205 85.333 85.333s-38.205 85.333-85.333 85.333v0c-31.488 0-58.709-17.237-73.515-42.667h-97.152v85.333c0 23.564-19.103 42.667-42.667 42.667v0h-256c-23.564 0-42.667-19.103-42.667-42.667v0-85.333h-97.152c-14.805 25.429-42.027 42.667-73.515 42.667-47.128 0-85.333-38.205-85.333-85.333s38.205-85.333 85.333-85.333v0c31.488 0 58.709 17.237 73.515 42.667h97.152v-15.701c-122.283-62.763-157.056-177.749-166.741-240.299h-46.592c-23.564 0-42.667-19.103-42.667-42.667v0-170.667c0-23.564 19.103-42.667 42.667-42.667v0h170.667c23.564 0 42.667 19.103 42.667 42.667v0 170.667c0 23.564-19.103 42.667-42.667 42.667v0h-37.419c8.405 40.917 30.635 102.656 88.96 145.835 7.59-10.698 19.86-17.645 33.763-17.834h256.029c13.946 0.17 26.228 7.142 33.704 17.745l0.088 0.132c58.581-43.221 80.853-104.875 89.131-145.877h-37.589c-23.564 0-42.667-19.103-42.667-42.667v0-170.667c0-23.564 19.103-42.667 42.667-42.667v0h170.667c23.564 0 42.667 19.103 42.667 42.667v0 170.667c0 23.564-19.103 42.667-42.667 42.667v0h-46.592c-9.685 62.549-44.459 177.536-166.741 240.299v15.701h97.152zM597.333 576h-170.667v170.667h170.667v-170.667z" fill="currentColor" />
  </g>
</svg>
