<?xml version="1.0" encoding="utf-8"?>
<svg xmlns="http://www.w3.org/2000/svg" viewBox="0 0 1024 1024" width="24" height="24">
  <g transform="scale(1, -1) translate(0, -960)">
    <path d="M469.333 789.333l-21.333 42.667-21.333-42.667-42.667-5.333 35.584-30.208-14.251-49.792 42.667 28.416 42.667-28.416-14.251 49.792 35.584 30.208zM824.917 334.251l-35.584 71.083-35.584-71.083-71.083-8.917 59.264-50.389-23.68-82.944 71.083 47.403 71.083-47.403-23.68 82.944 59.264 50.389zM284.459 689.792l-28.459 56.875-28.459-56.875-56.875-7.125 47.403-40.277-18.944-66.389 56.875 37.931 56.875-37.931-18.944 66.389 47.403 40.277zM145.664 234.667c0-22.784 8.875-44.203 25.003-60.331l67.669-67.669c16.128-16.128 37.547-25.003 60.331-25.003s44.203 8.875 60.331 25.003l494.336 494.336c16.128 16.128 25.003 37.547 25.003 60.331s-8.875 44.203-25.003 60.331l-67.669 67.669c-32.256 32.256-88.405 32.256-120.661 0l-494.336-494.336c-16.128-16.128-25.003-37.547-25.003-60.331zM725.333 729.003l67.669-67.669-153.003-153.003-67.669 67.669 153.003 153.003z" fill="currentColor" />
  </g>
</svg>
