<?xml version="1.0" encoding="utf-8"?>
<svg xmlns="http://www.w3.org/2000/svg" viewBox="0 0 1024 1024" width="24" height="24">
  <g transform="scale(1, -1) translate(0, -960)">
    <path d="M853.333 704h-85.333v85.333c0 23.564-19.103 42.667-42.667 42.667v0h-597.333c-23.564 0-42.667-19.103-42.667-42.667v0-640c0-70.571 57.429-128 128-128h426.667c70.571 0 128 57.429 128 128v42.667h85.333c47.061 0 85.333 38.272 85.333 85.333v341.333c0 47.061-38.272 85.333-85.333 85.333zM341.333 234.667h-85.333v426.667h85.333v-426.667zM597.333 234.667h-85.333v426.667h85.333v-426.667zM853.333 277.333h-85.333v341.333h85.333v-341.333z" fill="currentColor" />
  </g>
</svg>
