<?xml version="1.0" encoding="utf-8"?>
<svg xmlns="http://www.w3.org/2000/svg" viewBox="0 0 1024 1024" width="24" height="24">
  <g transform="scale(1, -1) translate(0, -960)">
    <path d="M871.68 714.24l-341.333 151.893c-5.141 2.369-11.156 3.751-17.493 3.751s-12.352-1.382-17.759-3.86l0.266 0.109-341.333-151.893c-14.811-6.775-24.96-21.377-25.173-38.372v-0.028c0-101.12 18.773-460.8 363.093-644.693 6.12-3.594 13.479-5.716 21.333-5.716s15.214 2.123 21.535 5.825l-0.201-0.109c341.333 183.467 366.080 542.293 365.653 644.267-0.633 17.935-12.242 33.003-28.289 38.734l-0.298 0.093zM682.667 415.573h-341.333v85.333h341.333z" fill="currentColor" />
  </g>
</svg>
