<?xml version="1.0" encoding="utf-8"?>
<svg xmlns="http://www.w3.org/2000/svg" viewBox="0 0 1024 1024" width="24" height="24">
  <g transform="scale(1, -1) translate(0, -960)">
    <path d="M768 533.333h-384v128c0 70.571 57.429 128 128 128s128-57.429 128-128h85.333c0 117.632-95.701 213.333-213.333 213.333s-213.333-95.701-213.333-213.333v-128h-42.667c-47.128 0-85.333-38.205-85.333-85.333v0-341.333c0-47.128 38.205-85.333 85.333-85.333v0h512c47.128 0 85.333 38.205 85.333 85.333v0 341.333c0 47.128-38.205 85.333-85.333 85.333v0zM429.269 298.709c9.905 37.017 43.144 63.83 82.646 63.83 47.101 0 85.298-38.122 85.418-85.195v-0.012c-0.053-31.294-17.028-58.612-42.262-73.297l-0.405-0.218v-97.152h-85.333v97.152c-25.719 14.937-42.737 42.353-42.737 73.744 0 7.514 0.975 14.8 2.806 21.739l-0.133-0.592z" fill="currentColor" />
  </g>
</svg>
