<?xml version="1.0" encoding="utf-8"?>
<svg xmlns="http://www.w3.org/2000/svg" viewBox="0 0 1024 1024" width="24" height="24">
  <g transform="scale(1, -1) translate(0, -960)">
    <path d="M926.165 648.832l-213.333 213.333c-7.696 7.723-18.342 12.501-30.104 12.501-0.022 0-0.043 0-0.065 0h-341.33c-0.018 0-0.040 0-0.062 0-11.762 0-22.408-4.779-30.102-12.5l-213.334-213.334c-7.723-7.696-12.501-18.342-12.501-30.104 0-0.022 0-0.043 0-0.065v0.003-341.333c0-11.349 4.48-22.187 12.501-30.165l213.333-213.333c7.696-7.723 18.342-12.501 30.104-12.501 0.022 0 0.043 0 0.065 0h341.33c11.349 0 22.187 4.48 30.165 12.501l213.333 213.333c7.723 7.696 12.501 18.342 12.501 30.104 0 0.022 0 0.043 0 0.065v-0.003 341.333c0 0.018 0 0.040 0 0.062 0 11.762-4.779 22.408-12.5 30.102l-0.001 0.001z" fill="currentColor" />
  </g>
</svg>
