<?xml version="1.0" encoding="utf-8"?>
<svg xmlns="http://www.w3.org/2000/svg" viewBox="0 0 1024 1024" width="24" height="24">
  <g transform="scale(1, -1) translate(0, -960)">
    <path d="M937.984 437.931c0.095 3.348 0.149 7.288 0.149 11.241 0 117.367-47.551 223.628-124.439 300.569l0.002-0.002c-76.939 76.886-183.2 124.437-300.567 124.437-3.953 0-7.893-0.054-11.82-0.161l0.579 0.013c0.973-10.279 1.528-22.227 1.528-34.304 0-54.060-11.122-105.523-31.202-152.225l0.959 2.508-78.507 33.28c14.791 34.323 23.392 74.281 23.392 116.248 0 8.401-0.345 16.722-1.021 24.949l0.071-1.080c-81.446-18.652-151.682-58.621-206.808-113.709l0.003 0.003c-55.14-55.171-95.132-125.487-113.199-204.172l-0.55-2.847c6.978-0.573 15.104-0.9 23.307-0.9 30.882 0 60.682 4.633 88.743 13.241l-2.141-0.565 24.533-81.749c-46.933-14.080-96.299-18.901-144.981-14.677-0.095-3.346-0.148-7.284-0.148-11.234 0-117.356 47.552-223.606 124.438-300.533l-0.002 0.002c76.932-76.885 183.187-124.436 300.549-124.436 3.944 0 7.876 0.054 11.794 0.16l-0.577-0.012c-0.962 10.239-1.51 22.141-1.51 34.171 0 39.513 5.916 77.643 16.91 113.555l-0.723-2.745 81.749-24.533c-8.050-25.888-12.687-55.653-12.687-86.5 0-8.239 0.331-16.4 0.98-24.472l-0.069 1.063c81.546 18.617 151.876 58.609 207.064 113.752l-0.003-0.003c55.094 55.133 95.065 125.386 113.155 203.998l0.552 2.85c-7.122 0.599-15.414 0.941-23.786 0.941-41.994 0-81.98-8.598-118.294-24.13l1.963 0.746-33.28 78.549c44.155 19.122 95.575 30.245 149.593 30.245 12.076 0 24.022-0.556 35.813-1.643l-1.513 0.113zM391.253 568.619c-26.848-26.856-57.647-49.761-91.45-67.77l-2.075-1.009-39.552 75.605c44.926 23.84 81.897 57.234 109.236 97.674l0.674 1.057 70.955-47.488c-13.995-20.907-30.080-40.448-47.787-58.069zM693.077 267.051c-20.962-20.909-38.825-44.91-52.85-71.264l-0.782-1.611-75.605 39.552c30.634 57.738 73.519 105.266 125.451 140.447l1.354 0.865 47.488-70.955c-16.867-11.378-31.601-23.565-45.053-37.032l-0.003-0.003z" fill="currentColor" />
  </g>
</svg>
