<?xml version="1.0" encoding="utf-8"?>
<svg xmlns="http://www.w3.org/2000/svg" viewBox="0 0 1024 1024" width="24" height="24">
  <g transform="scale(1, -1) translate(0, -960)">
    <path d="M128 362.667h85.333v-298.667c0-23.564 19.103-42.667 42.667-42.667v0h512c23.564 0 42.667 19.103 42.667 42.667v0 298.667h85.333c0.011 0 0.024 0 0.037 0 17.261 0 32.123 10.27 38.809 25.034l0.109 0.268c2.344 5.112 3.711 11.089 3.711 17.386 0 10.989-4.163 21.006-10.997 28.559l0.033-0.037-384 426.667c-16.171 18.005-47.232 18.005-63.403 0l-384-426.667c-6.796-7.527-10.954-17.55-10.954-28.544 0-23.56 19.096-42.66 42.655-42.667h0.001zM369.195 463.317c17.128 16.916 40.677 27.364 66.667 27.364s49.539-10.448 66.676-27.374l-0.010 0.010 9.557-9.387 9.515 9.387c17.135 16.918 40.691 27.368 66.688 27.368s49.553-10.45 66.698-27.378l-0.010 0.010c17.194-16.559 27.874-39.779 27.874-65.493s-10.68-48.934-27.845-65.466l-0.029-0.027-142.891-140.331-142.891 140.331c-17.194 16.559-27.874 39.779-27.874 65.493s10.68 48.934 27.845 65.466l0.029 0.027z" fill="currentColor" />
  </g>
</svg>
