<?xml version="1.0" encoding="utf-8"?>
<svg xmlns="http://www.w3.org/2000/svg" viewBox="0 0 1024 1024" width="24" height="24">
  <g transform="scale(1, -1) translate(0, -960)">
    <path d="M853.333 789.333h-682.667c-47.061 0-85.333-38.272-85.333-85.333v-512c0-47.061 38.272-85.333 85.333-85.333h682.667c47.061 0 85.333 38.272 85.333 85.333v512c0 47.061-38.272 85.333-85.333 85.333zM213.333 597.333c0 11.782 9.551 21.333 21.333 21.333v0h128c11.782 0 21.333-9.551 21.333-21.333v0-85.333c0-11.782-9.551-21.333-21.333-21.333v0h-128c-11.782 0-21.333 9.551-21.333 21.333v0 85.333zM469.333 277.333h-256v85.333h256v-85.333zM810.667 277.333h-256v85.333h256v-85.333z" fill="currentColor" />
  </g>
</svg>
