<?xml version="1.0" encoding="utf-8"?>
<svg xmlns="http://www.w3.org/2000/svg" viewBox="0 0 1024 1024" width="24" height="24">
  <g transform="scale(1, -1) translate(0, -960)">
    <path d="M329.685 690.645l-171.52 171.52-60.331-60.331 768-768 60.331 60.331-86.187 86.187c61.307 71.062 98.648 164.301 98.648 266.262 0 0.487-0.001 0.974-0.003 1.461v-0.075c0 174.549-105.472 317.995-255.957 384v-85.333c101.845-59.136 170.624-172.672 170.624-298.667-0.236-79.248-27.010-152.198-71.897-210.477l0.601 0.813-54.869 54.869c25.685 46.592 40.875 104.021 40.875 154.795 0 75.563-33.067 166.4-85.333 213.333v-323.669l-85.333 85.333v446.037l-267.648-178.389zM170.667 234.667h115.072l311.595-207.701v159.872l-464.981 464.981c-28.015-14.248-46.899-42.814-47.019-75.802v-256.016c0-47.061 38.272-85.333 85.333-85.333z" fill="currentColor" />
  </g>
</svg>
