<?xml version="1.0" encoding="utf-8"?>
<svg xmlns="http://www.w3.org/2000/svg" viewBox="0 0 1024 1024" width="24" height="24">
  <g transform="scale(1, -1) translate(0, -960)">
    <path d="M512 874.667c-277.12 0-426.667-197.845-426.667-384 0-90.837 43.051-169.771 128-235.008v-191.659h128v128h85.333v-128h170.667v128h85.333v-128h128v191.701c84.949 65.195 128 144.171 128 234.965 0 186.155-149.547 384-426.667 384zM341.333 405.333c-47.829 0-85.333 46.848-85.333 106.667s37.504 106.667 85.333 106.667 85.333-46.848 85.333-106.667-37.504-106.667-85.333-106.667zM682.667 405.333c-47.829 0-85.333 46.848-85.333 106.667s37.504 106.667 85.333 106.667 85.333-46.848 85.333-106.667-37.504-106.667-85.333-106.667z" fill="currentColor" />
  </g>
</svg>
