<?xml version="1.0" encoding="utf-8"?>
<svg xmlns="http://www.w3.org/2000/svg" viewBox="0 0 1024 1024" width="24" height="24">
  <g transform="scale(1, -1) translate(0, -960)">
    <path d="M810.667 832h-597.333c-47.061 0-85.333-38.272-85.333-85.333v-597.333c0-47.061 38.272-85.333 85.333-85.333h597.333c47.061 0 85.333 38.272 85.333 85.333v597.333c0 47.061-38.272 85.333-85.333 85.333zM512 384c-35.346 0-64 28.654-64 64s28.654 64 64 64v0c35.346 0 64-28.654 64-64s-28.654-64-64-64v0z" fill="currentColor" />
  </g>
</svg>
