<?xml version="1.0" encoding="utf-8"?>
<svg xmlns="http://www.w3.org/2000/svg" viewBox="0 0 1024 1024" width="24" height="24">
  <g transform="scale(1, -1) translate(0, -960)">
    <path d="M682.667 704h-341.333c-141.385 0-256-114.615-256-256s114.615-256 256-256v0h341.333c141.385 0 256 114.615 256 256s-114.615 256-256 256v0zM469.333 405.333h-85.333v-85.333h-85.333v85.333h-85.333v85.333h85.333v85.333h85.333v-85.333h85.333v-85.333zM618.667 320c-35.346 0-64 28.654-64 64s28.654 64 64 64v0c35.346 0 64-28.654 64-64s-28.654-64-64-64v0zM746.667 448c-35.346 0-64 28.654-64 64s28.654 64 64 64v0c35.346 0 64-28.654 64-64s-28.654-64-64-64v0z" fill="currentColor" />
  </g>
</svg>
