<?xml version="1.0" encoding="utf-8"?>
<svg xmlns="http://www.w3.org/2000/svg" viewBox="0 0 1024 1024" width="24" height="24">
  <g transform="scale(1, -1) translate(0, -960)">
    <path d="M853.333 618.667h-170.667v170.667c0 47.128-38.205 85.333-85.333 85.333v0h-170.667c-47.128 0-85.333-38.205-85.333-85.333v0-170.667h-170.667c-47.128 0-85.333-38.205-85.333-85.333v0-170.667c0-47.128 38.205-85.333 85.333-85.333v0h170.667v-170.667c0-47.128 38.205-85.333 85.333-85.333v0h170.667c47.128 0 85.333 38.205 85.333 85.333v0 170.667h170.667c47.128 0 85.333 38.205 85.333 85.333v0 170.667c0 47.128-38.205 85.333-85.333 85.333v0zM298.667 362.667l-128 85.333 128 85.333v-170.667zM512 106.667l-85.333 128h170.667l-85.333-128zM512 362.667c-47.131 0.012-85.333 38.222-85.333 85.355 0 47.14 38.215 85.355 85.355 85.355 0.007 0 0.015 0 0.022 0h-0.001c47.131-0.012 85.333-38.222 85.333-85.355 0-47.14-38.215-85.355-85.355-85.355-0.007 0-0.015 0-0.022 0h0.001zM426.667 661.333l85.333 128 85.333-128h-170.667zM725.333 362.667v170.667l128-85.333-128-85.333z" fill="currentColor" />
  </g>
</svg>
