<?xml version="1.0" encoding="utf-8"?>
<svg xmlns="http://www.w3.org/2000/svg" viewBox="0 0 1024 1024" width="24" height="24">
  <g transform="scale(1, -1) translate(0, -960)">
    <path d="M789.333 490.667c-176.469 0-320-143.531-320-320 0-37.163 6.699-72.704 18.432-105.899l407.509 407.509c-31.53 11.572-67.936 18.303-105.903 18.389h-0.038zM512 874.667c-235.264 0-426.667-191.403-426.667-426.667 0-195.541 134.741-366.293 322.688-413.44-15.119 40.479-23.916 87.249-24.021 136.061v0.046c0 223.488 181.845 405.333 405.333 405.333 47.787 0 93.483-8.747 136.107-24.021-47.147 187.947-217.899 322.688-413.44 322.688z" fill="currentColor" />
  </g>
</svg>
