<?xml version="1.0" encoding="utf-8"?>
<svg xmlns="http://www.w3.org/2000/svg" viewBox="0 0 1024 1024" width="24" height="24">
  <g transform="scale(1, -1) translate(0, -960)">
    <path d="M512 874.667c-235.264 0-426.667-191.403-426.667-426.667s191.403-426.667 426.667-426.667 426.667 191.403 426.667 426.667-191.403 426.667-426.667 426.667zM362.667 576c35.349-0.012 64-28.671 64-64.021 0-35.358-28.663-64.021-64.021-64.021-0.008 0-0.015 0-0.023 0h0.001c-35.349 0.012-64 28.671-64 64.021 0 35.358 28.663 64.021 64.021 64.021 0.008 0 0.015 0 0.023 0h-0.001zM692.949 266.923c-34.341-34.394-78.439-59.037-127.787-69.424l-1.664-0.293c-15.445-3.288-33.191-5.171-51.377-5.171-35.995 0-70.267 7.377-101.386 20.702l1.68-0.64c-46.621 20.019-84.916 51.922-112.154 91.953l-0.571 0.89 70.741 47.659c6.101-9.003 13.099-17.493 20.821-25.173 15.167-15.243 33.194-27.623 53.211-36.269l1.103-0.424c10.368-4.352 21.12-7.723 31.957-9.899 10.365-2.177 22.274-3.424 34.475-3.424s24.11 1.247 35.608 3.619l-1.134-0.196c10.795 2.219 21.547 5.589 32 9.941 9.984 4.267 19.797 9.557 28.971 15.701 8.875 6.059 17.365 13.056 25.216 20.864 7.808 7.765 14.805 16.256 20.864 25.259l70.741-47.659c-9.131-13.653-19.669-26.453-31.317-38.016zM554.667 448s21.333 85.333 106.667 85.333c85.291 0 106.667-85.333 106.667-85.333h-213.333z" fill="currentColor" />
  </g>
</svg>
