<?xml version="1.0" encoding="utf-8"?>
<svg xmlns="http://www.w3.org/2000/svg" viewBox="0 0 1024 1024" width="24" height="24">
  <g transform="scale(1, -1) translate(0, -960)">
    <path d="M917.845 699.221l-165.973-165.931-150.827 150.869 165.931 165.931c-31.177 13.176-67.427 20.833-105.466 20.833-153.191 0-277.376-124.185-277.376-277.376 0-38.061 7.666-74.332 21.539-107.353l-0.681 1.827-267.776-267.733c-7.729-7.716-12.51-18.382-12.51-30.165s4.781-22.449 12.509-30.165l90.54-90.54c7.716-7.729 18.382-12.51 30.165-12.51s22.449 4.781 30.165 12.509l267.734 267.777c31.211-13.208 67.504-20.883 105.589-20.883 76.582 0 145.915 31.035 196.108 81.215l-0.001-0.001c50.166 50.21 81.191 119.55 81.191 196.137 0 38.073-7.667 74.355-21.542 107.386l0.681-1.828z" fill="currentColor" />
  </g>
</svg>
