<?xml version="1.0" encoding="utf-8"?>
<svg xmlns="http://www.w3.org/2000/svg" viewBox="0 0 1024 1024" width="24" height="24">
  <g transform="scale(1, -1) translate(0, -960)">
    <path d="M896 746.667h-768c-47.128 0-85.333-38.205-85.333-85.333v0-426.667c0-47.128 38.205-85.333 85.333-85.333v0h768c47.128 0 85.333 38.205 85.333 85.333v0 426.667c0 47.128-38.205 85.333-85.333 85.333v0zM554.667 661.333h85.333v-85.333h-85.333v85.333zM554.667 490.667h85.333v-85.333h-85.333v85.333zM384 661.333h85.333v-85.333h-85.333v85.333zM384 490.667h85.333v-85.333h-85.333v85.333zM213.333 661.333h85.333v-85.333h-85.333v85.333zM213.333 490.667h85.333v-85.333h-85.333v85.333zM725.333 234.667h-426.667v85.333h426.667v-85.333zM810.667 405.333h-85.333v85.333h85.333v-85.333zM810.667 576h-85.333v85.333h85.333v-85.333z" fill="currentColor" />
  </g>
</svg>
