<?xml version="1.0" encoding="utf-8"?>
<svg xmlns="http://www.w3.org/2000/svg" viewBox="0 0 1024 1024" width="24" height="24">
  <g transform="scale(1, -1) translate(0, -960)">
    <path d="M145.664 372.139l-60.331-60.331 211.157-90.496 90.539-211.2 60.331 60.331-30.165 150.869 141.355 141.355 154.027-328.704 57.131 57.131-50.773 431.915 120.661 120.704c16.073 15.539 26.051 37.294 26.051 61.379 0 47.128-38.205 85.333-85.333 85.333-24.086 0-45.841-9.979-61.356-26.027l-0.023-0.024-123.861-123.861-431.915 50.816-53.973-54.016 326.144-156.587-138.795-138.795-150.869 30.208z" fill="currentColor" />
  </g>
</svg>
