<?xml version="1.0" encoding="utf-8"?>
<svg xmlns="http://www.w3.org/2000/svg" viewBox="0 0 1024 1024" width="24" height="24">
  <g transform="scale(1, -1) translate(0, -960)">
    <path d="M853.333 789.333c-54.049 54.055-128.72 87.488-211.2 87.488s-157.151-33.434-211.2-87.488l-333.654-333.654c-7.668-7.712-12.407-18.343-12.407-30.080s4.74-22.368 12.409-30.082l151.038-151.038-151.040-150.613 60.587-60.587 150.613 151.040 151.040-151.040c7.712-7.668 18.343-12.407 30.080-12.407s22.368 4.74 30.082 12.409l-0.002-0.002 333.653 331.947c54.566 54.133 88.345 129.148 88.345 212.053s-33.779 157.92-88.326 212.034l-0.020 0.019zM738.133 674.133c-25.458 24.348-60.046 39.335-98.133 39.335s-72.675-14.987-98.186-39.385l0.053 0.050-45.227 45.227c36.728 36.604 87.401 59.236 143.36 59.236s106.632-22.632 143.365-59.242l-0.005 0.005z" fill="currentColor" />
  </g>
</svg>
