<?xml version="1.0" encoding="utf-8"?>
<svg xmlns="http://www.w3.org/2000/svg" viewBox="0 0 1024 1024" width="24" height="24">
  <g transform="scale(1, -1) translate(0, -960)">
    <path d="M642.987 661.333c0-40.295-57.308-72.96-128-72.96s-128 32.665-128 72.96c0 40.295 57.308 72.96 128 72.96s128-32.665 128-72.96zM514.987 21.333c191.147 0 341.333 93.867 341.333 213.333v426.667c0 119.467-150.187 213.333-341.333 213.333s-341.333-93.867-341.333-213.333v-426.667c0-119.467 149.76-213.333 341.333-213.333zM514.987 789.333c150.613 0 256-67.413 256-128-1.293-13.888-5.728-26.518-12.582-37.478l0.209 0.358c-29.013-42.667-107.947-85.333-213.333-90.453h-59.307c-107.093 6.827-187.307 46.933-215.040 91.733-5.7 9.318-9.879 20.227-11.87 31.882l-0.077 0.545v3.413c0 60.587 104.96 128 256 128z" fill="currentColor" />
  </g>
</svg>
