<?xml version="1.0" encoding="utf-8"?>
<svg xmlns="http://www.w3.org/2000/svg" viewBox="0 0 1024 1024" width="24" height="24">
  <g transform="scale(1, -1) translate(0, -960)">
    <path d="M756.309 404.48l-158.976-127.147h-213.333v42.667h173.44c11.777 0.006 21.322 9.555 21.322 21.333 0 4.404-1.335 8.497-3.621 11.895l0.048-0.076-37.888 56.832c-15.474 23.050-41.439 38.016-70.899 38.016-0.020 0-0.039 0-0.059 0h-338.344c-23.564 0-42.667-19.103-42.667-42.667v0-256c0-47.128 38.205-85.333 85.333-85.333v0h411.264c0.009 0 0.019 0 0.030 0 38.332 0 72.729 16.85 96.188 43.547l0.124 0.144 260.395 297.643-61.952 20.651c-12.070 4.161-25.98 6.564-40.45 6.564-30.367 0-58.263-10.582-80.201-28.26l0.246 0.192zM821.675 644.693c19.243 19.84 31.147 47.275 31.147 77.568s-11.904 57.728-31.147 77.568c-19.009 19.814-45.694 32.136-75.258 32.171h-0.006s-53.077 0.128-106.411-54.869c-53.333 54.997-106.411 54.869-106.411 54.869-29.561-0.039-56.242-12.342-75.231-32.094l-0.033-0.034c-19.243-19.883-31.147-47.275-31.147-77.568s11.904-57.771 31.147-77.568l181.675-196.736 181.675 196.693z" fill="currentColor" />
  </g>
</svg>
