<?xml version="1.0" encoding="utf-8"?>
<svg xmlns="http://www.w3.org/2000/svg" viewBox="0 0 1024 1024" width="24" height="24">
  <g transform="scale(1, -1) translate(0, -960)">
    <path d="M868.053 152.277c16.403 6.062 27.896 21.544 27.947 39.716v42.673c0 0.018 0 0.040 0 0.062 0 11.762-4.779 22.408-12.5 30.102l-72.833 72.833v195.669c0 137.259-93.227 252.885-219.52 287.659-12.501 31.488-43.051 53.675-79.147 53.675s-66.645-22.187-79.147-53.675c-56.448-15.531-105.088-48.128-142.763-90.752l-131.925 131.925-60.331-60.331 768-768 60.331 60.331-58.112 58.112zM512 21.333c0.047 0 0.104 0 0.16 0 55.241 0 102.254 35.229 119.798 84.445l0.276 0.888h-240.469c17.821-50.105 64.834-85.333 120.075-85.333 0.056 0 0.113 0 0.169 0h-0.009zM213.333 533.333v-195.669l-72.832-72.832c-7.723-7.696-12.501-18.342-12.501-30.104 0-0.022 0-0.043 0-0.065v0.003-42.667c0-23.564 19.103-42.667 42.667-42.667v0h464.171l-418.603 418.603c-1.323-11.435-2.901-22.827-2.901-34.603z" fill="currentColor" />
  </g>
</svg>
