<?xml version="1.0" encoding="utf-8"?>
<svg xmlns="http://www.w3.org/2000/svg" viewBox="0 0 1024 1024" width="24" height="24">
  <g transform="scale(1, -1) translate(0, -960)">
    <path d="M92.373 125.824c7.936-11.947 21.291-19.157 35.627-19.157h640c17.067 0 32.512 10.155 39.211 25.856l128 298.667c2.209 4.979 3.496 10.787 3.496 16.896 0 23.517-19.064 42.581-42.581 42.581-0.044 0-0.088 0-0.132 0h-42.66v128c0 47.061-38.272 85.333-85.333 85.333h-283.947l-109.056 85.333h-204.331c-47.061 0-85.333-38.272-85.333-85.333v-554.667h0.299c-0.002-0.145-0.003-0.316-0.003-0.487 0-8.55 2.515-16.512 6.845-23.188l-0.101 0.166zM768 618.667v-128h-512c-17.067 0-32.512-10.155-39.211-25.856l-46.123-107.648v261.504h597.333z" fill="currentColor" />
  </g>
</svg>
