<?xml version="1.0" encoding="utf-8"?>
<svg xmlns="http://www.w3.org/2000/svg" viewBox="0 0 1024 1024" width="24" height="24">
  <g transform="scale(1, -1) translate(0, -960)">
    <path d="M781.995 778.325c-68.838 56.502-156.888 91.919-253.085 95.339l-0.739 0.021c3.429-19.265 5.39-41.442 5.39-64.078 0-90.789-31.542-174.211-84.267-239.905l0.583 0.751 62.123-62.123 269.995 269.995zM328.576 571.093l-146.901 146.901c-45.457-55.364-77.388-123.499-89.774-198.235l-0.338-2.469c17.449-3.617 37.502-5.688 58.039-5.688 67.464 0 129.709 22.346 179.736 60.040l-0.762-0.55zM842.325 717.995l-269.995-269.995 62.123-62.123c64.956 52.137 148.389 83.676 239.189 83.676 22.623 0 44.789-1.958 66.337-5.713l-2.294 0.331c-3.441 96.936-38.858 184.986-95.953 254.568l0.593-0.744zM932.437 378.709c-17.449 3.617-37.502 5.688-58.039 5.688-67.464 0-129.709-22.346-179.736-60.040l0.762 0.55 146.901-146.901c45.481 55.353 77.417 123.494 89.776 198.242l0.336 2.462zM388.907 631.424c37.144 49.266 59.49 111.511 59.49 178.975 0 20.537-2.071 40.589-6.015 59.961l0.327-1.923c-77.208-12.703-145.347-44.637-201.443-90.701l0.739 0.589 146.901-146.901zM581.291 27.563c77.202 12.707 145.338 44.624 201.447 90.661l-0.743-0.592-146.901 146.901c-37.147-49.248-59.495-111.476-59.495-178.925 0-20.539 2.072-40.595 6.020-59.969l-0.327 1.922zM512 387.669l-269.995-269.995c68.838-56.502 156.888-91.919 253.085-95.339l0.739-0.021c-3.429 19.265-5.39 41.442-5.39 64.078 0 90.789 31.542 174.211 84.267 239.905l-0.583-0.751-62.123 62.123zM181.675 178.005l269.995 269.995-62.123 62.123c-64.956-52.137-148.389-83.676-239.189-83.676-22.623 0-44.789 1.958-66.337 5.713l2.294-0.331c3.441-96.936 38.858-184.986 95.953-254.568l-0.593 0.744z" fill="currentColor" />
  </g>
</svg>
