<?xml version="1.0" encoding="utf-8"?>
<svg xmlns="http://www.w3.org/2000/svg" viewBox="0 0 1024 1024" width="24" height="24">
  <g transform="scale(1, -1) translate(0, -960)">
    <path d="M371.499 119.168l396.501 396.501-188.331 188.331-396.501-396.501c-5.303-5.31-9.219-12.007-11.156-19.5l-0.065-0.297-43.947-223.701 223.659 43.947c7.509 1.877 14.379 5.76 19.84 11.221zM896 643.669c15.437 15.441 24.984 36.771 24.984 60.331s-9.548 44.889-24.985 60.331l-67.669 67.669c-15.441 15.437-36.771 24.984-60.331 24.984s-44.889-9.548-60.331-24.985l-67.669-67.669 188.331-188.331 67.669 67.669z" fill="currentColor" />
  </g>
</svg>
