<?xml version="1.0" encoding="utf-8"?>
<svg xmlns="http://www.w3.org/2000/svg" viewBox="0 0 1024 1024" width="24" height="24">
  <g transform="scale(1, -1) translate(0, -960)">
    <path d="M512 874.667c-231.296 0-426.667-195.371-426.667-426.667s195.371-426.667 426.667-426.667 426.667 195.371 426.667 426.667-195.371 426.667-426.667 426.667zM512 661.333c73.685 0 128-54.272 128-128s-54.315-128-128-128c-73.643 0-128 54.272-128 128s54.357 128 128 128zM294.144 244.395c38.272 56.32 102.101 93.867 175.189 93.867h85.333c73.131 0 136.917-37.547 175.189-93.867-54.528-58.368-131.883-95.061-217.856-95.061s-163.328 36.693-217.856 95.061z" fill="currentColor" />
  </g>
</svg>
