<?xml version="1.0" encoding="utf-8"?>
<svg xmlns="http://www.w3.org/2000/svg" viewBox="0 0 1024 1024" width="24" height="24">
  <g transform="scale(1, -1) translate(0, -960)">
    <path d="M673.28 284.16s122.027 121.173 163.413 163.84c130.987 128 65.707 391.68 65.707 391.68s-262.4 65.28-390.4-65.707c-99.84-97.28-164.693-164.693-164.693-164.693s-163.84 34.133-261.973-64l522.667-523.947c98.133 99.413 65.28 262.827 65.28 262.827zM609.28 668.16c15.446 15.462 36.792 25.027 60.373 25.027s44.928-9.565 60.373-25.026l0.001-0.001c15.422-15.439 24.96-36.759 24.96-60.306 0-47.128-38.205-85.333-85.333-85.333s-85.333 38.205-85.333 85.333c0 23.547 9.538 44.867 24.961 60.307l-0.001-0.001zM128 64c82.38 2.423 156.858 34.381 213.628 85.595l-0.295-0.262-128 128c-85.333-42.667-85.333-213.333-85.333-213.333z" fill="currentColor" />
  </g>
</svg>
