<?xml version="1.0" encoding="utf-8"?>
<svg xmlns="http://www.w3.org/2000/svg" viewBox="0 0 1024 1024" width="24" height="24">
  <g transform="scale(1, -1) translate(0, -960)">
    <path d="M820.096 499.072l-308.096 34.261v256c0 47.128-38.205 85.333-85.333 85.333s-85.333-38.205-85.333-85.333v0-512l-129.323 51.712c-9.38 3.859-20.268 6.099-31.68 6.099-37.481 0-69.318-24.165-80.782-57.765l-0.178-0.601-4.821-14.507c-1.391-4.026-2.194-8.665-2.194-13.492 0-13.142 5.953-24.893 15.31-32.704l0.068-0.055 221.739-184.832c7.637-6.357 17.323-9.856 27.307-9.856h453.888c47.128 0 85.333 38.205 85.333 85.333v0 307.627c-0.017 43.793-33.020 79.872-75.51 84.742l-0.394 0.037z" fill="currentColor" />
  </g>
</svg>
