<?xml version="1.0" encoding="utf-8"?>
<svg xmlns="http://www.w3.org/2000/svg" viewBox="0 0 1024 1024" width="24" height="24">
  <g transform="scale(1, -1) translate(0, -960)">
    <path d="M853.333 618.667h-512l51.712 129.28c3.868 9.39 6.114 20.292 6.114 31.718 0 37.487-24.172 69.328-57.78 80.787l-0.601 0.178-14.507 4.821c-4.026 1.391-8.665 2.194-13.492 2.194-13.142 0-24.893-5.953-32.704-15.31l-0.055-0.068-184.832-221.739c-6.133-7.342-9.856-16.881-9.856-27.29 0-0.006 0-0.012 0-0.018v0.001-453.888c0-47.128 38.205-85.333 85.333-85.333v0h307.627c43.793 0.017 79.872 33.020 84.742 75.51l0.037 0.394 34.261 308.096h256c47.128 0 85.333 38.205 85.333 85.333s-38.205 85.333-85.333 85.333v0z" fill="currentColor" />
  </g>
</svg>
