<?xml version="1.0" encoding="utf-8"?>
<svg xmlns="http://www.w3.org/2000/svg" viewBox="0 0 1024 1024" width="24" height="24">
  <g transform="scale(1, -1) translate(0, -960)">
    <path d="M256 874.667c-47.128 0-85.333-38.205-85.333-85.333v0-682.667c0-47.128 38.205-85.333 85.333-85.333v0h512c47.128 0 85.333 38.205 85.333 85.333v0 512l-256 256h-128v-85.333h-85.333v-85.333h85.333v-85.333h-85.333v-85.333h85.333v-341.333h-170.667v256h85.333v85.333h-85.333v85.333h85.333v85.333h-85.333v85.333h85.333v85.333h-128zM554.667 789.333l213.333-213.333h-213.333v213.333zM341.333 320h85.333v-85.333h-85.333z" fill="currentColor" />
  </g>
</svg>
