<?xml version="1.0" encoding="utf-8"?>
<svg xmlns="http://www.w3.org/2000/svg" viewBox="0 0 1024 1024" width="24" height="24">
  <g transform="scale(1, -1) translate(0, -960)">
    <path d="M512 874.667c-235.264 0-426.667-191.403-426.667-426.667 0-107.563 40.32-205.653 106.24-280.832 52.907-64.853 139.349-130.816 274.731-143.275 13.706-1.605 29.583-2.52 45.675-2.52s31.97 0.915 47.584 2.697l-1.91-0.177c135.424 12.459 221.824 78.464 274.731 143.275 65.962 74.431 106.254 172.923 106.283 280.826v0.006c0 235.264-191.403 426.667-426.667 426.667zM200.917 587.776c6.571-3.84 13.141-7.765 19.456-11.776 16.896-10.667 33.749-21.333 54.869-29.355 21.077-7.979 46.421-13.312 80.171-13.312 33.792 0 59.136 5.333 80.256 13.355s38.016 18.645 54.912 29.312 33.792 21.333 54.912 29.355c21.077 7.979 46.421 13.312 80.213 13.312s59.136-5.333 80.213-13.355c21.12-7.979 38.016-18.645 54.912-29.312s33.792-21.333 54.912-29.355c7.595-2.859 15.957-5.205 24.789-7.296 8.149-29.099 12.8-59.648 12.8-91.349 0-35.968-5.675-70.571-16-103.125-11.136-8.32-31.275-20.224-67.285-32.256-32.811-10.923-71.339-19.541-114.56-25.685-43.108-6.090-92.902-9.568-143.509-9.568s-100.4 3.477-149.156 10.206l5.647-0.638c-43.221 6.144-81.749 14.763-114.56 25.685-36.011 12.032-56.149 23.936-67.285 32.256-10.122 30.733-15.96 66.106-15.96 102.843 0 50.762 11.146 98.92 31.125 142.161l-0.871-2.102zM426.667 426.667c0-35.346-28.654-64-64-64s-64 28.654-64 64c0 35.346 28.654 64 64 64s64-28.654 64-64zM725.333 426.667c0-35.346-28.654-64-64-64s-64 28.654-64 64c0 35.346 28.654 64 64 64s64-28.654 64-64z" fill="currentColor" />
  </g>
</svg>
