<?xml version="1.0" encoding="utf-8"?>
<svg xmlns="http://www.w3.org/2000/svg" viewBox="0 0 1024 1024" width="24" height="24">
  <g transform="scale(1, -1) translate(0, -960)">
    <path d="M919.68 611.499l-384 256c-6.649 4.486-14.841 7.16-23.659 7.16s-17.010-2.675-23.811-7.257l0.152 0.097-384-256c-11.438-7.726-18.859-20.643-18.859-35.293 0-0.072 0-0.145 0.001-0.217v0.011h-0.171v-469.333c0-47.128 38.205-85.333 85.333-85.333v0h682.667c47.128 0 85.333 38.205 85.333 85.333v0 469.333h-0.171c0 0.056 0 0.122 0 0.189 0 14.646-7.401 27.563-18.668 35.215l-0.149 0.095zM853.333 418.133l-341.333-183.467-341.333 183.467v102.528l341.333-183.424 341.333 183.424v-102.528z" fill="currentColor" />
  </g>
</svg>
