<?xml version="1.0" encoding="utf-8"?>
<svg xmlns="http://www.w3.org/2000/svg" viewBox="0 0 1024 1024" width="24" height="24">
  <g transform="scale(1, -1) translate(0, -960)">
    <path d="M813.312 749.312c-76.774 77.328-183.096 125.233-300.606 125.355h-1.132c-0.2 0-0.437 0.001-0.674 0.001-117.678 0-224.162-47.928-300.996-125.33l-0.025-0.025c-166.315-166.315-166.315-437.035 0-603.435 80.853-80.853 187.947-125.355 301.696-125.355s220.885 44.501 301.696 125.355c166.4 166.357 166.4 437.035 0.043 603.435zM576 320c35.349-0.012 64-28.671 64-64.021 0-35.358-28.663-64.021-64.021-64.021-0.008 0-0.015 0-0.023 0h0.001c-35.349 0.012-64 28.671-64 64.021 0 35.358 28.663 64.021 64.021 64.021 0.008 0 0.015 0 0.023 0h-0.001zM270.208 688.939c61.505 62.008 146.742 100.395 240.945 100.395 0.148 0 0.296 0 0.443 0h-0.023l1.109-0.043c70.485-0.341 138.325-45.483 151.467-101.163 15.616-66.219-46.848-139.861-171.435-202.112-218.155-109.013-226.645-227.541-212.267-288.512l0.341-0.896c-3.499 3.2-7.211 6.229-10.624 9.643-133.035 133.077-133.035 349.611 0.043 482.688zM512 640c0-35.346-28.654-64-64-64s-64 28.654-64 64c0 35.346 28.654 64 64 64s64-28.654 64-64z" fill="currentColor" />
  </g>
</svg>
