<?xml version="1.0" encoding="utf-8"?>
<svg xmlns="http://www.w3.org/2000/svg" viewBox="0 0 1024 1024" width="24" height="24">
  <g transform="scale(1, -1) translate(0, -960)">
    <path d="M853.333 789.333h-682.667c-47.061 0-85.333-38.272-85.333-85.333v-512c0-47.061 38.272-85.333 85.333-85.333h682.667c47.061 0 85.333 38.272 85.333 85.333v512c0 47.061-38.272 85.333-85.333 85.333zM533.333 277.333c-58.91 0-106.667 47.756-106.667 106.667s47.756 106.667 106.667 106.667v0c24.205-0.058 46.481-8.266 64.241-22.025l-0.241 0.18c-25.771-19.456-42.667-50.048-42.667-84.821s16.896-65.365 42.667-84.821c-17.519-13.579-39.795-21.788-63.987-21.845h-0.013zM704 277.333c-58.91 0-106.667 47.756-106.667 106.667s47.756 106.667 106.667 106.667v0c58.91 0 106.667-47.756 106.667-106.667s-47.756-106.667-106.667-106.667v0z" fill="currentColor" />
  </g>
</svg>
