<?xml version="1.0" encoding="utf-8"?>
<svg xmlns="http://www.w3.org/2000/svg" viewBox="0 0 1024 1024" width="24" height="24">
  <g transform="scale(1, -1) translate(0, -960)">
    <path d="M936.533 587.904l-1.067 7.168-1.109-0.256c-19.174 87.4-95.938 151.851-187.755 151.851-106.039 0-192-85.961-192-192s85.961-192 192-192c0.023 0 0.045 0 0.068 0h-0.004c9.515 0 18.645 1.451 27.733 2.773-2.944-9.899-5.973-19.968-10.837-29.013-4.864-13.141-12.459-24.533-20.011-36.011-6.315-12.416-17.451-20.821-25.643-31.445-8.576-10.325-20.267-17.195-29.525-25.771-9.088-8.96-20.992-13.44-30.464-19.755-9.899-5.675-18.517-11.947-27.733-14.933l-22.997-9.472-20.224-8.405 20.651-82.731 25.472 6.144c8.149 2.048 18.091 4.437 29.397 7.296 11.563 2.133 23.893 7.979 37.632 13.312 13.525 6.101 29.269 10.155 43.861 19.925 14.677 9.301 31.616 17.067 46.549 29.525 14.464 12.843 31.915 23.979 44.8 40.277 14.080 15.275 27.989 31.317 38.784 49.579 12.501 17.408 20.992 36.523 29.952 55.424 8.107 18.901 14.635 38.229 19.968 57.003 10.112 37.632 14.635 73.387 16.384 103.979 1.451 30.635 0.597 56.107-1.195 74.539-0.709 9.036-1.663 16.925-2.916 24.715l0.228-1.717zM467.2 587.904l-1.067 7.168-1.109-0.256c-19.174 87.4-95.938 151.851-187.755 151.851-106.039 0-192-85.961-192-192s85.961-192 192-192c0.023 0 0.045 0 0.068 0h-0.004c9.515 0 18.645 1.451 27.733 2.773-2.944-9.899-5.973-19.968-10.837-29.013-4.864-13.141-12.459-24.533-20.011-36.011-6.315-12.416-17.451-20.821-25.643-31.445-8.576-10.325-20.267-17.195-29.525-25.771-9.088-8.96-20.992-13.44-30.464-19.755-9.899-5.675-18.517-11.947-27.733-14.933l-22.997-9.472c-12.843-5.248-20.181-8.32-20.181-8.32l20.651-82.731 25.472 6.144c8.149 2.048 18.091 4.437 29.397 7.296 11.563 2.133 23.893 7.979 37.632 13.312 13.525 6.101 29.269 10.155 43.861 19.925 14.677 9.301 31.616 17.067 46.549 29.525 14.464 12.843 31.915 23.979 44.8 40.277 14.080 15.275 27.989 31.317 38.784 49.579 12.501 17.408 20.992 36.523 29.952 55.424 8.107 18.901 14.635 38.229 19.968 57.003 10.112 37.632 14.635 73.387 16.384 103.979 1.451 30.635 0.597 56.107-1.195 74.539-0.763 9.137-1.73 16.994-2.974 24.757l0.244-1.845z" fill="currentColor" />
  </g>
</svg>
