<?xml version="1.0" encoding="utf-8"?>
<svg xmlns="http://www.w3.org/2000/svg" viewBox="0 0 1024 1024" width="24" height="24">
  <g transform="scale(1, -1) translate(0, -960)">
    <path d="M416.427 873.771c-0.478 0.019-1.040 0.030-1.604 0.030-19.012 0-35.104-12.497-40.512-29.724l-0.081-0.301-221.525-701.525c-1.26-3.845-1.986-8.271-1.986-12.866 0-23.564 19.103-42.667 42.667-42.667 4.595 0 9.021 0.726 13.168 2.071l-0.302-0.085 701.525 221.525c17.5 5.441 29.986 21.49 29.986 40.455 0 0.598-0.012 1.192-0.037 1.784l0.003-0.085c-16.128 280.533-240.811 505.216-521.301 521.387zM426.667 277.333c-47.131 0.012-85.333 38.222-85.333 85.355 0 47.14 38.215 85.355 85.355 85.355 0.007 0 0.015 0 0.022 0h-0.001c47.131-0.012 85.333-38.222 85.333-85.355 0-47.14-38.215-85.355-85.355-85.355-0.007 0-0.015 0-0.022 0h0.001zM682.667 362.667c-47.131 0.012-85.333 38.222-85.333 85.355 0 47.14 38.215 85.355 85.355 85.355 0.007 0 0.015 0 0.022 0h-0.001c47.131-0.012 85.333-38.222 85.333-85.355 0-47.14-38.215-85.355-85.355-85.355-0.007 0-0.015 0-0.022 0h0.001z" fill="currentColor" />
  </g>
</svg>
