<?xml version="1.0" encoding="utf-8"?>
<svg xmlns="http://www.w3.org/2000/svg" viewBox="0 0 1024 1024" width="24" height="24">
  <g transform="scale(1, -1) translate(0, -960)">
    <path d="M170.667 192h85.333v-174.123l217.643 174.123h209.024c47.061 0 85.333 38.272 85.333 85.333v341.333c0 47.061-38.272 85.333-85.333 85.333h-512c-47.061 0-85.333-38.272-85.333-85.333v-341.333c0-47.061 38.272-85.333 85.333-85.333zM853.333 874.667h-512c-47.061 0-85.333-38.272-85.333-85.333h512c47.061 0 85.333-38.272 85.333-85.333v-341.333c47.061 0 85.333 38.272 85.333 85.333v341.333c0 47.061-38.272 85.333-85.333 85.333z" fill="currentColor" />
  </g>
</svg>
