<?xml version="1.0" encoding="utf-8"?>
<svg xmlns="http://www.w3.org/2000/svg" viewBox="0 0 1024 1024" width="24" height="24">
  <g transform="scale(1, -1) translate(0, -960)">
    <path d="M554.795 832h85.333v-85.333h-85.333zM682.667 832h85.333v-85.333h-85.333zM682.667 704h85.333v-85.333h-85.333zM810.667 832h85.333v-85.333h-85.333zM810.667 704h85.333v-85.333h-85.333zM810.667 576h85.333v-85.333h-85.333zM171.179 448v-384c0-23.564 19.103-42.667 42.667-42.667v0h340.821c23.564 0 42.667 19.103 42.667 42.667v0 384c0 94.257-76.41 170.667-170.667 170.667v0h-84.821c-94.257 0-170.667-76.41-170.667-170.667v0zM298.795 874.667h170.667v-170.667h-170.667z" fill="currentColor" />
  </g>
</svg>
