<?xml version="1.0" encoding="utf-8"?>
<svg xmlns="http://www.w3.org/2000/svg" viewBox="0 0 1024 1024" width="24" height="24">
  <g transform="scale(1, -1) translate(0, -960)">
    <path d="M107.221 412.459l384.939-215.040c5.985-3.423 13.154-5.442 20.795-5.442 7.61 0 14.753 2.002 20.93 5.509l-0.21-0.11 383.061 213.333c13.177 7.432 21.93 21.338 21.93 37.288 0 15.985-8.79 29.916-21.8 37.225l-0.215 0.111-384.939 213.333c-5.964 3.368-13.095 5.352-20.689 5.352-7.564 0-14.667-1.968-20.827-5.42l0.215 0.111-383.061-211.627c-13.237-7.416-22.036-21.354-22.036-37.347 0-15.942 8.743-29.842 21.696-37.166l0.213-0.111zM148.693 314.624l-41.429-74.581 384-213.333c5.97-3.376 13.11-5.366 20.715-5.366s14.745 1.99 20.928 5.477l-0.213-0.111 384 213.333-41.429 74.581-363.264-201.813-363.307 201.813zM853.333 618.667v85.333h85.333v85.333h-85.333v85.333h-85.333v-85.333h-85.333v-85.333h85.333v-85.333z" fill="currentColor" />
  </g>
</svg>
