<?xml version="1.0" encoding="utf-8"?>
<svg xmlns="http://www.w3.org/2000/svg" viewBox="0 0 1024 1024" width="24" height="24">
  <g transform="scale(1, -1) translate(0, -960)">
    <path d="M810.667 874.667h-597.333c-47.128 0-85.333-38.205-85.333-85.333v0-554.667c0-47.128 38.205-85.333 85.333-85.333v0h170.667l128-128 128 128h170.667c47.128 0 85.333 38.205 85.333 85.333v0 554.667c0 47.128-38.205 85.333-85.333 85.333v0zM512 746.667c73.685 0 128-54.272 128-128s-54.315-128-128-128c-73.643 0-128 54.272-128 128s54.357 128 128 128zM306.219 277.333c23.808 73.515 106.496 128 205.781 128s182.016-54.485 205.781-128h-411.563z" fill="currentColor" />
  </g>
</svg>
