<?xml version="1.0" encoding="utf-8"?>
<svg xmlns="http://www.w3.org/2000/svg" viewBox="0 0 1024 1024" width="24" height="24">
  <g transform="scale(1, -1) translate(0, -960)">
    <path d="M87.339 334.208c3.018-11.148 10.175-20.266 19.68-25.79l0.202-0.109 81.451-47.104v-93.824c0-23.564 19.103-42.667 42.667-42.667v0h93.824l47.104-81.493c7.539-12.827 21.271-21.301 36.981-21.301 7.84 0 15.188 2.111 21.505 5.794l-0.203-0.109 81.451 47.061 81.493-47.104c6.114-3.574 13.461-5.685 21.302-5.685 15.71 0 29.442 8.474 36.872 21.101l0.109 0.2 47.061 81.451h93.824c23.564 0 42.667 19.103 42.667 42.667v0 93.824l81.451 47.104c12.851 7.502 21.348 21.226 21.348 36.934 0 7.862-2.128 15.226-5.84 21.549l0.109-0.2-47.061 81.493 47.104 81.451c3.594 6.12 5.716 13.478 5.716 21.333 0 15.709-8.489 29.435-21.131 36.841l-0.201 0.109-81.451 47.104v93.824c0 23.564-19.103 42.667-42.667 42.667v0h-93.824l-47.061 81.451c-5.675 9.67-14.775 16.811-25.598 19.811l-0.301 0.071c-3.323 0.935-7.138 1.473-11.079 1.473-7.848 0-15.198-2.132-21.503-5.847l0.198 0.108-81.536-47.061-81.451 47.104c-6.129 3.62-13.506 5.758-21.383 5.758-15.695 0-29.406-8.491-36.791-21.13l-0.109-0.202-47.104-81.493h-93.824c-23.564 0-42.667-19.103-42.667-42.667v0-93.824l-81.451-47.147c-12.817-7.531-21.284-21.25-21.284-36.947 0-7.855 2.121-15.215 5.82-21.538l-0.109 0.202 47.061-81.451-47.104-81.451c-3.586-6.126-5.703-13.488-5.703-21.345 0-3.91 0.524-7.697 1.507-11.296l-0.070 0.3z" fill="currentColor" />
  </g>
</svg>
