<?xml version="1.0" encoding="utf-8"?>
<svg xmlns="http://www.w3.org/2000/svg" viewBox="0 0 1024 1024" width="24" height="24">
  <g transform="scale(1, -1) translate(0, -960)">
    <path d="M156.587 266.24l23.040-22.613-26.453-26.027c11.502-17.808 23.301-33.269 36.18-47.749l-0.34 0.389 600.747 601.173c-13.922 12.018-29.229 23.663-45.233 34.346l-1.7 1.068-26.453-26.027-22.613 22.613 20.48 20.48c-58.447 32.042-128.062 50.889-202.078 50.889-235.641 0-426.667-191.025-426.667-426.667 0-74.127 18.904-143.839 52.153-204.579l-1.115 2.223zM634.027 743.68l22.613-22.613-59.307-59.733-22.613 22.613zM514.987 624.213l22.187-22.613-59.307-59.733-22.613 22.613zM395.52 504.747l22.613-22.613-59.733-59.307-22.613 22.613zM276.053 385.707l22.613-23.040-59.733-59.733-22.613 22.613zM281.173 89.173l26.453 26.027 22.613-22.613-20.48-20.48c58.447-32.042 128.062-50.889 202.078-50.889 235.641 0 426.667 191.025 426.667 426.667 0 74.127-18.904 143.839-52.153 204.579l1.115-2.223-20.053-20.48-23.040 22.613 26.453 26.027c-11.502 17.808-23.301 33.269-36.18 47.749l0.34-0.389-600.747-601.173c13.922-12.018 29.229-23.663 45.233-34.346l1.7-1.068zM785.067 592.64l22.613-22.613-59.733-59.733-22.613 23.040zM665.6 473.173l22.613-22.613-59.733-59.307-22.613 22.613zM546.133 354.133l22.613-22.613-59.307-59.733-23.040 22.613zM426.667 234.667l22.613-22.613-59.733-59.733-22.613 22.613z" fill="currentColor" />
  </g>
</svg>
