<?xml version="1.0" encoding="utf-8"?>
<svg xmlns="http://www.w3.org/2000/svg" viewBox="0 0 1024 1024" width="24" height="24">
  <g transform="scale(1, -1) translate(0, -960)">
    <path d="M512 789.333c-235.264 0-426.667-191.403-426.667-426.667 0-0.105 0-0.23 0-0.354 0-69.019 16.57-134.169 45.95-191.686l-1.107 2.387c7.253-14.507 22.016-23.68 38.187-23.68h687.232c16.171 0 30.976 9.173 38.229 23.68 28.273 55.131 44.843 120.28 44.843 189.299 0 0.125 0 0.25 0 0.374v-0.020c0 235.264-191.403 426.667-426.667 426.667zM726.272 575.061l-169.045-257.621c-11.837-17.885-31.867-29.519-54.614-29.519-13.357 0-25.778 4.012-36.122 10.896l0.24-0.15c-17.903 11.834-29.551 31.874-29.551 54.635s11.648 42.8 29.308 54.484l0.243 0.151 257.621 169.045c0.211 0.132 0.467 0.211 0.741 0.211 0.491 0 0.923-0.251 1.175-0.632l0.003-0.005c0.13-0.213 0.207-0.471 0.207-0.747s-0.077-0.534-0.211-0.753l0.004 0.006z" fill="currentColor" />
  </g>
</svg>
