<?xml version="1.0" encoding="utf-8"?>
<svg xmlns="http://www.w3.org/2000/svg" viewBox="0 0 1024 1024" width="24" height="24">
  <g transform="scale(1, -1) translate(0, -960)">
    <path d="M725.333 874.667h-426.667c-47.128 0-85.333-38.205-85.333-85.333v0-725.333c0-23.564 19.103-42.667 42.667-42.667v0h512c23.564 0 42.667 19.103 42.667 42.667v0 725.333c0 47.128-38.205 85.333-85.333 85.333v0zM469.333 277.333h-128v85.333h128v-85.333zM469.333 448h-128v85.333h128v-85.333zM469.333 618.667h-128v85.333h128v-85.333zM682.667 277.333h-128v85.333h128v-85.333zM682.667 448h-128v85.333h128v-85.333zM682.667 618.667h-128v85.333h128v-85.333z" fill="currentColor" />
  </g>
</svg>
