<?xml version="1.0" encoding="utf-8"?>
<svg xmlns="http://www.w3.org/2000/svg" viewBox="0 0 1024 1024" width="24" height="24">
  <g transform="scale(1, -1) translate(0, -960)">
    <path d="M682.667 874.667h-341.333c-141.184 0-256-114.816-256-256v-554.667c0-23.564 19.103-42.667 42.667-42.667v0h554.667c141.184 0 256 114.816 256 256v341.333c0 141.184-114.816 256-256 256zM469.333 426.667c0-35.346-28.654-64-64-64v0c-3.669 0-7.168 0.469-10.667 1.067-3.541-0.427-6.997-1.067-10.667-1.067-47.128 0-85.333 38.205-85.333 85.333s38.205 85.333 85.333 85.333c47.128 0 85.333-38.205 85.333-85.333v0c0-3.627-0.64-7.125-1.067-10.667 0.555-3.499 1.067-6.997 1.067-10.667zM640 362.667c-3.669 0-7.125 0.64-10.667 1.067-3.179-0.625-6.859-1.011-10.62-1.066l-0.047-0.001c-35.346 0-64 28.654-64 64v0c0 3.627 0.512 7.168 1.067 10.667-0.427 3.541-1.067 6.997-1.067 10.667 0 47.128 38.205 85.333 85.333 85.333s85.333-38.205 85.333-85.333c0-47.128-38.205-85.333-85.333-85.333v0z" fill="currentColor" />
  </g>
</svg>
