<?xml version="1.0" encoding="utf-8"?>
<svg xmlns="http://www.w3.org/2000/svg" viewBox="0 0 1024 1024" width="24" height="24">
  <g transform="scale(1, -1) translate(0, -960)">
    <path d="M780.501 776.832l-46.336-46.336-46.336 46.336c-7.716 7.729-18.382 12.51-30.165 12.51s-22.449-4.781-30.165-12.509l-53.292-53.292c-37.483 14.568-80.865 23.045-126.217 23.125h-0.033c-199.936 0-362.624-162.688-362.624-362.667s162.688-362.667 362.624-362.667 362.667 162.688 362.667 362.667c-0.027 40.515-6.756 79.449-19.138 115.767l0.749-2.529 57.429 57.429c7.729 7.716 12.51 18.382 12.51 30.165s-4.781 22.449-12.509 30.165l-55.169 55.169 46.507 46.507c9.771 9.771 36.053 29.995 54.997 29.995h42.667v85.333h-42.667c-59.733 0-110.251-49.792-115.499-55.168zM447.957 533.333c-39.893 0-77.355-15.531-105.6-43.733-26.99-26.89-43.691-64.091-43.691-105.193 0-0.143 0-0.286 0.001-0.429v0.022h-85.333c0 62.635 24.363 121.557 68.651 165.888 42.237 42.485 100.72 68.78 165.344 68.78 0.221 0 0.443 0 0.664-0.001h-0.034v-85.333z" fill="currentColor" />
  </g>
</svg>
