<?xml version="1.0" encoding="utf-8"?>
<svg xmlns="http://www.w3.org/2000/svg" viewBox="0 0 1024 1024" width="24" height="24">
  <g transform="scale(1, -1) translate(0, -960)">
    <path d="M896 704c0-70.692-57.308-128-128-128s-128 57.308-128 128c0 70.692 57.308 128 128 128s128-57.308 128-128zM853.333 192v316.672c-25.112-11.362-54.447-17.99-85.328-18.005h-0.006c-117.821 0-213.333 95.513-213.333 213.333v0c0 30.379 6.528 59.179 18.005 85.333h-316.672c-7.595 0-14.805-1.323-21.76-3.243l-76.075 76.075-60.331-60.331 768-768 60.331 60.331-76.075 76.075c1.92 6.955 3.243 14.165 3.243 21.76zM170.667 192c0-47.061 38.272-85.333 85.333-85.333h421.504l-506.837 506.837v-421.504z" fill="currentColor" />
  </g>
</svg>
