<?xml version="1.0" encoding="utf-8"?>
<svg xmlns="http://www.w3.org/2000/svg" viewBox="0 0 1024 1024" width="24" height="24">
  <g transform="scale(1, -1) translate(0, -960)">
    <path d="M768 661.333c0 47.128-38.205 85.333-85.333 85.333v0h-512c-47.128 0-85.333-38.205-85.333-85.333v0-426.667c0-47.128 38.205-85.333 85.333-85.333v0h512c47.128 0 85.333 38.205 85.333 85.333v0 142.208l170.667-142.208v426.667l-170.667-142.208v142.208zM597.333 405.333h-128v-128h-85.333v128h-128v85.333h128v128h85.333v-128h128v-85.333z" fill="currentColor" />
  </g>
</svg>
