<?xml version="1.0" encoding="utf-8"?>
<svg xmlns="http://www.w3.org/2000/svg" viewBox="0 0 1024 1024" width="24" height="24">
  <g transform="scale(1, -1) translate(0, -960)">
    <path d="M853.333 874.667h-426.667c-47.128 0-85.333-38.205-85.333-85.333v0-85.333h341.333c47.128 0 85.333-38.205 85.333-85.333v0-341.333h85.333c47.128 0 85.333 38.205 85.333 85.333v0 426.667c0 47.128-38.205 85.333-85.333 85.333v0zM170.667 21.333h426.667c47.061 0 85.333 38.272 85.333 85.333v426.667c0 47.061-38.272 85.333-85.333 85.333h-426.667c-47.061 0-85.333-38.272-85.333-85.333v-426.667c0-47.061 38.272-85.333 85.333-85.333zM256 448h256v-85.333h-256v85.333zM256 277.333h256v-85.333h-256v85.333z" fill="currentColor" />
  </g>
</svg>
