<?xml version="1.0" encoding="utf-8"?>
<svg xmlns="http://www.w3.org/2000/svg" viewBox="0 0 1024 1024" width="24" height="24">
  <g transform="scale(1, -1) translate(0, -960)">
    <path d="M885.291 448l47.104 81.408c3.6 6.124 5.727 13.489 5.727 21.351 0 15.696-8.475 29.412-21.099 36.822l-0.201 0.109-81.493 47.104v93.867c0 23.564-19.103 42.667-42.667 42.667v0h-93.824l-47.061 81.451c-5.688 9.658-14.783 16.794-25.596 19.811l-0.302 0.072c-3.324 0.937-7.142 1.476-11.085 1.476-7.846 0-15.194-2.133-21.496-5.85l0.198 0.108-81.493-47.104-81.493 47.147c-6.12 3.594-13.478 5.716-21.333 5.716-15.709 0-29.435-8.489-36.841-21.131l-0.109-0.201-47.104-81.493h-93.824c-23.564 0-42.667-19.103-42.667-42.667v0-93.824l-81.493-47.104c-12.851-7.492-21.35-21.209-21.35-36.911 0-7.889 2.146-15.278 5.885-21.613l-0.108 0.198 47.104-81.408-47.104-81.408c-3.58-6.125-5.694-13.486-5.694-21.34 0-15.693 8.439-29.416 21.026-36.877l0.198-0.109 81.493-47.104v-93.824c0-23.564 19.103-42.667 42.667-42.667v0h93.867l47.104-81.493c7.576-12.783 21.265-21.241 36.936-21.333h0.013c7.424 0 14.805 1.963 21.376 5.76l81.408 47.104 81.493-47.104c6.121-3.591 13.481-5.711 21.336-5.711 15.697 0 29.416 8.468 36.838 21.084l0.109 0.2 47.061 81.493h93.824c23.564 0 42.667 19.103 42.667 42.667v0 93.824l81.493 47.104c12.835 7.516 21.319 21.238 21.319 36.942 0 7.875-2.134 15.252-5.854 21.584l0.109-0.2-47.061 81.408zM405.291 661.76c35.349-0.012 64-28.671 64-64.021 0-35.358-28.663-64.021-64.021-64.021-0.008 0-0.015 0-0.023 0h0.001c-35.349 0.012-64 28.671-64 64.021 0 35.358 28.663 64.021 64.021 64.021 0.008 0 0.015 0 0.023 0h-0.001zM418.091 252.16l-68.267 51.157 256 341.333 68.267-51.157-256-341.333zM618.624 235.093c-35.349 0.012-64 28.671-64 64.021 0 35.358 28.663 64.021 64.021 64.021 0.008 0 0.015 0 0.023 0h-0.001c35.349-0.012 64-28.671 64-64.021 0-35.358-28.663-64.021-64.021-64.021-0.008 0-0.015 0-0.023 0h0.001z" fill="currentColor" />
  </g>
</svg>
