<?xml version="1.0" encoding="utf-8"?>
<svg xmlns="http://www.w3.org/2000/svg" viewBox="0 0 1024 1024" width="24" height="24">
  <g transform="scale(1, -1) translate(0, -960)">
    <path d="M512 874.667c-235.264 0-426.667-191.403-426.667-426.667s191.403-426.667 426.667-426.667 426.667 191.403 426.667 426.667-191.403 426.667-426.667 426.667zM512 106.667c-188.203 0-341.333 153.131-341.333 341.333 0 49.835 11.008 97.067 30.251 139.776 6.571-3.84 13.141-7.765 19.456-11.776 16.896-10.667 33.749-21.333 54.869-29.355 21.077-7.979 46.421-13.312 80.171-13.312 33.792 0 59.136 5.333 80.256 13.355s38.016 18.645 54.912 29.312 33.792 21.333 54.912 29.355c21.077 7.979 46.421 13.312 80.213 13.312s59.136-5.333 80.213-13.355c21.12-7.979 38.016-18.645 54.912-29.312s33.792-21.333 54.912-29.355c7.595-2.859 15.957-5.205 24.789-7.296 8.149-29.099 12.8-59.648 12.8-91.349 0-188.203-153.131-341.333-341.333-341.333zM426.667 426.667c0-35.346-28.654-64-64-64s-64 28.654-64 64c0 35.346 28.654 64 64 64s64-28.654 64-64zM725.333 426.667c0-35.346-28.654-64-64-64s-64 28.654-64 64c0 35.346 28.654 64 64 64s64-28.654 64-64z" fill="currentColor" />
  </g>
</svg>
