<?xml version="1.0" encoding="utf-8"?>
<svg xmlns="http://www.w3.org/2000/svg" viewBox="0 0 1024 1024" width="24" height="24">
  <g transform="scale(1, -1) translate(0, -960)">
    <path d="M896 704c0-70.692-57.308-128-128-128s-128 57.308-128 128c0 70.692 57.308 128 128 128s128-57.308 128-128zM554.667 704c0 30.379 6.528 59.179 18.005 85.333h-316.672c-47.061 0-85.333-38.272-85.333-85.333v-512c0-47.061 38.272-85.333 85.333-85.333h512c47.061 0 85.333 38.272 85.333 85.333v316.672c-25.112-11.362-54.447-17.99-85.328-18.005h-0.006c-117.821 0-213.333 95.513-213.333 213.333v0z" fill="currentColor" />
  </g>
</svg>
