<?xml version="1.0" encoding="utf-8"?>
<svg xmlns="http://www.w3.org/2000/svg" viewBox="0 0 1024 1024" width="24" height="24">
  <g transform="scale(1, -1) translate(0, -960)">
    <path d="M853.333 661.333v85.333c0 47.061-38.272 85.333-85.333 85.333h-554.667c-70.571 0-128-57.429-128-128v-512c0-93.909 76.544-128 128-128h640c47.061 0 85.333 38.272 85.333 85.333v426.667c0 47.061-38.272 85.333-85.333 85.333zM768 277.333h-85.333v170.667h85.333v-170.667zM213.333 661.333c-22.752 1.049-40.801 19.75-40.801 42.667s18.049 41.617 40.707 42.663l0.094 0.003h554.667v-85.333h-554.667z" fill="currentColor" />
  </g>
</svg>
