<?xml version="1.0" encoding="utf-8"?>
<svg xmlns="http://www.w3.org/2000/svg" viewBox="0 0 1024 1024" width="24" height="24">
  <g transform="scale(1, -1) translate(0, -960)">
    <path d="M536.704 857.899c-6.775 4.909-15.254 7.853-24.421 7.853-9.32 0-17.929-3.043-24.888-8.189l0.114 0.081c-78.251-56.704-316.843-249.728-316.843-494.976 0-138.539 83.115-257.835 201.984-311.296-19.55 27.229-31.278 61.222-31.317 97.953v0.010c-0.725 137.429 151.808 294.101 158.293 298.667 3.428 2.481 7.716 3.969 12.352 3.969s8.924-1.488 12.414-4.012l-0.062 0.043c6.485-4.565 158.336-126.891 158.336-298.752 0-36.437-11.733-70.101-31.275-97.877 118.827 53.461 201.941 172.715 201.941 311.083 0 250.069-238.165 439.765-316.629 495.445z" fill="currentColor" />
  </g>
</svg>
