<?xml version="1.0" encoding="utf-8"?>
<svg xmlns="http://www.w3.org/2000/svg" viewBox="0 0 1024 1024" width="24" height="24">
  <g transform="scale(1, -1) translate(0, -960)">
    <path d="M808.619 211.712c-31.957 31.957-38.741 79.744-21.333 121.429l0.896 2.091c17.024 41.557 55.851 70.101 100.779 70.101h3.413c27.221 0 46.293 19.072 46.293 42.667s-19.072 42.667-42.667 42.667h-7.253c-44.928 0-83.541 28.544-100.565 70.144l-0.896 2.091c-17.408 41.685-10.624 89.472 21.333 121.429l5.077 5.077c7.72 7.72 12.495 18.385 12.495 30.165 0 23.561-19.1 42.66-42.66 42.66-11.78 0-22.445-4.775-30.165-12.495l-5.077-5.077c-31.957-31.957-79.744-38.741-121.429-21.333l-2.091 0.896c-41.557 16.981-70.101 55.808-70.101 100.736v3.456c0 27.179-19.072 46.251-42.667 46.251s-42.667-19.072-42.667-42.667v-1.536c0-46.763-28.16-88.917-71.381-106.795l-0.256-0.128c-13.067-5.559-28.267-8.791-44.222-8.791-31.936 0-60.847 12.947-81.772 33.878l-113.536 113.536-60.331-60.331 768-768 60.331 60.331-117.547 117.547zM512 533.333c0 47.128 38.205 85.333 85.333 85.333s85.333-38.205 85.333-85.333c0-47.128-38.205-85.333-85.333-85.333v0c-10.965 0-21.376 2.261-31.061 6.059l-48.256 48.256c-3.752 9.183-5.956 19.835-6.016 30.995v0.024zM341.333 405.333c-23.564 0-42.667 19.103-42.667 42.667v0c0.173 10.412 4.088 19.877 10.452 27.142l-0.042-0.049-77.355 77.355c-18.886-36.866-56.582-61.681-100.082-61.781h-0.057c-27.179 0-46.251-19.072-46.251-42.667s19.072-42.667 42.667-42.667h2.901c0.009 0 0.019 0 0.029 0 47.042 0 87.399-28.62 104.609-69.398l0.279-0.746 0.896-2.091c5.506-12.958 8.706-28.030 8.706-43.849 0-31.676-12.832-60.355-33.582-81.123l-1.535-1.535c-7.72-7.72-12.495-18.385-12.495-30.165 0-23.561 19.1-42.66 42.66-42.66 11.78 0 22.445 4.775 30.165 12.495l1.536 1.536c20.761 20.753 49.437 33.589 81.112 33.589 15.823 0 30.898-3.203 44.612-8.997l-0.753 0.283 6.101-2.56c39.122-16.462 66.091-54.477 66.091-98.791 0-0.024 0-0.048 0-0.072v0.004-3.627c0-27.221 19.072-46.293 42.667-46.293s42.667 19.115 42.667 42.667v7.253c0 41.643 24.235 79.061 61.568 96.683l-247.851 247.851c-7.184-6.361-16.643-10.296-27.018-10.453h-0.032z" fill="currentColor" />
  </g>
</svg>
