<?xml version="1.0" encoding="utf-8"?>
<svg xmlns="http://www.w3.org/2000/svg" viewBox="0 0 1024 1024" width="24" height="24">
  <g transform="scale(1, -1) translate(0, -960)">
    <path d="M924.416 436.181c2.293 7.007 4.811 16.527 6.903 26.204l0.393 2.169c0.128 0.725 0.171 1.408 0.341 2.133 0.853 4.181 1.237 8.491 1.92 12.715 1.067 6.699 2.347 13.355 2.987 20.096 1.097 10.257 1.722 22.157 1.722 34.203 0 94.144-38.214 179.363-99.978 240.991l-0.006 0.006c-61.632 61.76-146.845 99.968-240.982 99.968-0.135 0-0.27 0-0.405 0h0.021v-341.333h-319.275l-36.608 85.333h-156.117v-85.333h99.883l77.995-182.016c-54.702-22.972-92.44-76.058-92.544-137.971v-0.013c0-82.347 66.987-149.333 149.333-149.333 75.051 0 136.704 55.851 147.157 128h89.685c10.453-72.149 72.107-128 147.157-128 82.347 0 149.333 66.987 149.333 149.333 0 26.88-7.723 51.755-20.181 73.6 1.792 1.749 3.797 3.285 5.589 5.077 15.36 15.403 29.355 32.384 41.685 50.517 12.288 18.347 22.869 37.803 31.403 57.984 0.683 1.579 1.109 3.243 1.749 4.821h0.043l0.64 1.792c3.755 9.387 7.168 18.816 10.027 28.501l0.128 0.555zM320 149.333c-35.285 0-64 28.715-64 64s28.715 64 64 64 64-28.715 64-64-28.715-64-64-64zM704 149.333c-35.285 0-64 28.715-64 64s28.715 64 64 64 64-28.715 64-64-28.715-64-64-64z" fill="currentColor" />
  </g>
</svg>
