<?xml version="1.0" encoding="utf-8"?>
<svg xmlns="http://www.w3.org/2000/svg" viewBox="0 0 1024 1024" width="24" height="24">
  <g transform="scale(1, -1) translate(0, -960)">
    <path d="M391.253 387.413c-18.674 24.778-32.491 54.318-39.414 86.422l-0.266 1.471 104.96 100.693c7.418 7.666 11.989 18.126 11.989 29.653s-4.571 21.987-12 29.665l0.011-0.012-155.733 174.933c-7.836 8.615-19.090 14.001-31.602 14.001-10.8 0-20.662-4.013-28.178-10.628l0.047 0.041-92.587-79.36c-7.14-7.166-11.748-16.858-12.368-27.619l-0.005-0.114c-0.020-1.901-0.031-4.146-0.031-6.394 0-159.080 57.088-304.826 151.895-417.869l-0.824 1.009-189.44-189.013 60.587-60.587 768 768-60.587 60.587zM708.693 386.56c-7.528 6.8-17.554 10.961-28.551 10.961-12.076 0-22.981-5.017-30.743-13.080l-102.413-107.107c-8.603 1.781-15.894 3.842-22.975 6.348l1.215-0.375-113.493-111.36c99.15-65.868 220.488-105.867 351.037-107.94l0.536-0.007h15.36c10.875 0.625 20.567 5.234 27.735 12.375l-0.001-0.001 79.36 92.587c6.336 7.4 10.193 17.087 10.193 27.675 0 12.528-5.399 23.794-13.998 31.6l-0.035 0.032z" fill="currentColor" />
  </g>
</svg>
