<?xml version="1.0" encoding="utf-8"?>
<svg xmlns="http://www.w3.org/2000/svg" viewBox="0 0 1024 1024" width="24" height="24">
  <g transform="scale(1, -1) translate(0, -960)">
    <path d="M853.333 704h-128v85.333c0 47.128-38.205 85.333-85.333 85.333v0h-256c-47.128 0-85.333-38.205-85.333-85.333v0-85.333h-128c-47.128 0-85.333-38.205-85.333-85.333v0-426.667c0-47.128 38.205-85.333 85.333-85.333v0h682.667c47.128 0 85.333 38.205 85.333 85.333v0 426.667c0 47.128-38.205 85.333-85.333 85.333v0zM384 789.333h256v-85.333h-256zM682.667 362.667h-128v-128h-85.333v128h-128v85.333h128v128h85.333v-128h128z" fill="currentColor" />
  </g>
</svg>
