<?xml version="1.0" encoding="utf-8"?>
<svg xmlns="http://www.w3.org/2000/svg" viewBox="0 0 1024 1024" width="24" height="24">
  <g transform="scale(1, -1) translate(0, -960)">
    <path d="M694.528 864.811c-7.342 6.133-16.881 9.856-27.29 9.856-0.006 0-0.012 0-0.018 0h-453.887c-47.128 0-85.333-38.205-85.333-85.333v0-307.627c0.017-43.793 33.020-79.872 75.51-84.742l0.394-0.037 308.096-34.261v-256c0-47.128 38.205-85.333 85.333-85.333s85.333 38.205 85.333 85.333v0 512l129.28-51.712c9.383-3.859 20.276-6.1 31.692-6.1 37.489 0 69.335 24.163 80.813 57.766l0.178 0.601 4.821 14.507c1.391 4.026 2.194 8.665 2.194 13.492 0 13.142-5.953 24.893-15.31 32.704l-0.068 0.055-221.739 184.832z" fill="currentColor" />
  </g>
</svg>
