<?xml version="1.0" encoding="utf-8"?>
<svg xmlns="http://www.w3.org/2000/svg" viewBox="0 0 1024 1024" width="24" height="24">
  <g transform="scale(1, -1) translate(0, -960)">
    <path d="M886.272 526.72l-58.368 175.104c-17.402 51.271-65.105 87.509-121.273 87.509-0.040 0-0.080 0-0.12 0h-389.028c-0.034 0-0.074 0-0.114 0-56.168 0-103.872-36.238-121.007-86.609l-0.266-0.9-58.368-175.104c-31.035-13.232-52.395-43.481-52.395-78.72v0-213.333c0-31.488 17.237-58.709 42.667-73.515v-97.152c0-23.564 19.103-42.667 42.667-42.667v0h42.667c23.564 0 42.667 19.103 42.667 42.667v0 85.333h512v-85.333c0-23.564 19.103-42.667 42.667-42.667v0h42.667c23.564 0 42.667 19.103 42.667 42.667v0 97.152c25.638 14.902 42.614 42.22 42.667 73.507v213.341c0 0 0 0 0 0 0 35.238-21.359 65.488-51.838 78.508l-0.557 0.212zM317.483 704h388.992c18.389 0 34.688-11.691 40.491-29.184l47.189-141.483h-564.309l47.147 141.483c5.82 17.101 21.739 29.184 40.48 29.184 0.004 0 0.007 0 0.011 0h-0.001zM234.667 277.333c-35.349 0.012-64 28.671-64 64.021 0 35.358 28.663 64.021 64.021 64.021 0.008 0 0.015 0 0.023 0h-0.001c35.349-0.012 64-28.671 64-64.021 0-35.358-28.663-64.021-64.021-64.021-0.008 0-0.015 0-0.023 0h0.001zM789.333 277.333c-35.349 0.012-64 28.671-64 64.021 0 35.358 28.663 64.021 64.021 64.021 0.008 0 0.015 0 0.023 0h-0.001c35.349-0.012 64-28.671 64-64.021 0-35.358-28.663-64.021-64.021-64.021-0.008 0-0.015 0-0.023 0h0.001z" fill="currentColor" />
  </g>
</svg>
