<?xml version="1.0" encoding="utf-8"?>
<svg xmlns="http://www.w3.org/2000/svg" viewBox="0 0 1024 1024" width="24" height="24">
  <g transform="scale(1, -1) translate(0, -960)">
    <path d="M829.739 731.947c-17.596 58.317-70.835 100.056-133.822 100.056-0.308 0-0.616-0.001-0.924-0.003h0.047c-73.142-0.067-133.197-56.014-139.778-127.448l-0.041-0.552h-86.4c-6.71 72.045-66.871 128-140.1 128-0.006 0-0.012 0-0.018 0h0.001c-0.203 0.001-0.444 0.002-0.684 0.002-62.971 0-116.192-41.743-133.502-99.068l-0.256-0.987-107.136-357.035c-1.122-3.663-1.776-7.875-1.792-12.237v-42.676c0.146-117.777 95.595-213.212 213.364-213.333h0.012c86.833 0.153 161.489 52.129 194.702 126.643l0.54 1.357h36.096c33.754-75.871 108.41-127.847 195.223-128h0.020c117.795 0.121 213.255 95.581 213.376 213.364v42.636c0 4.181-0.64 8.277-1.792 12.245l-107.136 357.035zM298.709 192c-70.662 0.097-127.921 57.341-128.043 127.988v0.012c0 3.243 0.725 6.272 0.939 9.472 4.965 66.342 59.91 118.317 127.040 118.528h0.021c70.692 0 128-57.308 128-128v0-0.384c-0.315-70.473-57.457-127.496-127.946-127.616h-0.012zM725.291 192c-70.5 0.12-127.643 57.143-127.957 127.586v0.414c0 0.006 0 0.014 0 0.021 0 70.692 57.308 128 128 128 70.685 0 127.988-57.295 128-127.978v-0.001c-0.097-70.677-57.366-127.946-128.033-128.043h-0.009z" fill="currentColor" />
  </g>
</svg>
