<?xml version="1.0" encoding="utf-8"?>
<svg xmlns="http://www.w3.org/2000/svg" viewBox="0 0 1024 1024" width="24" height="24">
  <g transform="scale(1, -1) translate(0, -960)">
    <path d="M512 874.667c-235.264 0-426.667-191.403-426.667-426.667s191.403-426.667 426.667-426.667 426.667 191.403 426.667 426.667-191.403 426.667-426.667 426.667zM512 277.333c-94.123 0-170.667 76.544-170.667 170.667s76.544 170.667 170.667 170.667 170.667-76.544 170.667-170.667-76.544-170.667-170.667-170.667zM597.333 448.085c0-47.175-38.243-85.419-85.419-85.419s-85.419 38.243-85.419 85.419c0 47.175 38.243 85.419 85.419 85.419s85.419-38.243 85.419-85.419z" fill="currentColor" />
  </g>
</svg>
