<?xml version="1.0" encoding="utf-8"?>
<svg xmlns="http://www.w3.org/2000/svg" viewBox="0 0 1024 1024" width="24" height="24">
  <g transform="scale(1, -1) translate(0, -960)">
    <path d="M981.333 661.333c-5.911 0.346-12.824 0.544-19.783 0.544-71.845 0-138.776-21.040-194.968-57.294l1.418 0.857c-15.36 17.493-31.147 34.987-47.787 51.627l-12.373 11.52 5.973 5.12c28.762 24.793 46.859 61.273 46.859 101.98 0 16.854-3.102 32.984-8.767 47.849l0.309-0.922c-27.399 56.512-84.33 94.786-150.201 94.786-1.645 0-3.285-0.024-4.919-0.071l0.24 0.006v-85.333c0.353 0.005 0.77 0.008 1.188 0.008 31.422 0 58.878-16.984 73.688-42.272l0.218-0.403c7.253-17.067 0-35.84-20.053-55.893l-9.813-8.96c-42.277 35.435-90.057 66.709-141.317 92.004l-4.176 1.863c-107.947 48.64-163.413 26.027-190.72 0-8.108-8.127-14.722-17.749-19.393-28.415l-0.233-0.598-7.68-22.613-61.44-185.173c48.64-121.173 166.4-336.64 422.4-429.653l213.333 70.827c7.392 2.801 13.584 7.345 18.284 13.147l0.063 0.080 8.96 7.68c61.013 61.44 21.76 179.627-60.16 294.4 40.846 24.239 90.043 38.564 142.586 38.564 6.427 0 12.805-0.214 19.125-0.636l-0.857 0.046zM819.627 304.213h-2.56c-29.44-15.787-151.467 24.32-289.707 162.56-14.507 14.507-28.16 28.587-40.533 42.667-4.267 4.693-8.107 9.813-12.373 14.933l-22.613 27.307-11.947 16.64c-5.973 8.107-11.947 16.213-17.067 23.893s-6.827 11.093-10.24 16.64-9.387 14.507-13.227 21.76-5.547 10.24-8.107 15.787-7.253 11.947-9.813 17.92-3.84 9.813-5.973 14.507-4.693 11.52-6.4 17.067-2.133 8.107-2.987 12.373-2.56 10.24-3.413 14.507c-0.098 1.531-0.154 3.319-0.154 5.12s0.056 3.589 0.166 5.363l-0.012-0.243c-0.2 1.665-0.315 3.592-0.315 5.547s0.114 3.882 0.336 5.777l-0.022-0.23 4.693 13.227c7.253 7.68 38.827 9.813 95.147-15.787 40.513-19.657 75.366-41.539 107.542-66.687l-1.302 0.98c-16.591-7.523-35.847-12.683-56.073-14.459l-0.673-0.048v-85.333c47.699 2.783 91.481 17.341 129.164 40.781l-1.164-0.675 20.907-19.627c18.773-18.347 35.413-36.693 50.773-54.187-19.563-32.812-31.128-72.361-31.128-114.611 0-10.892 0.769-21.604 2.255-32.086l-0.14 1.204 85.333 16.64c-1.376 7.312-2.163 15.724-2.163 24.32s0.787 17.008 2.293 25.168l-0.13-0.848c55.040-84.053 65.28-144.64 51.627-157.867zM187.733 490.667l-95.147-285.867c-4.4-12.994-6.939-27.961-6.939-43.52 0-77.18 62.477-139.767 139.615-139.946h0.017c15.316 0.154 29.964 2.797 43.628 7.544l-0.961-0.291 278.187 92.587c-157.39 81.561-281.363 209.11-356.325 364.716l-2.075 4.777z" fill="currentColor" />
  </g>
</svg>
