<?xml version="1.0" encoding="utf-8"?>
<svg xmlns="http://www.w3.org/2000/svg" viewBox="0 0 1024 1024" width="24" height="24">
  <g transform="scale(1, -1) translate(0, -960)">
    <path d="M896 533.333h-85.333v256h42.667v85.333h-682.667v-85.333h42.667v-256h-85.333c-23.564 0-42.667-19.103-42.667-42.667v0-384h853.333v384c0 23.564-19.103 42.667-42.667 42.667v0zM597.333 192v170.667h-170.667v-170.667h-128v597.333h426.667v-597.333h-128zM384 704h85.333v-85.333h-85.333zM554.667 704h85.333v-85.333h-85.333zM384 533.333h85.333v-85.333h-85.333zM554.667 533.333h85.333v-85.333h-85.333z" fill="currentColor" />
  </g>
</svg>
