<?xml version="1.0" encoding="utf-8"?>
<svg xmlns="http://www.w3.org/2000/svg" viewBox="0 0 1024 1024" width="24" height="24">
  <g transform="scale(1, -1) translate(0, -960)">
    <path d="M810.667 704h-597.333c-70.571 0-128-57.429-128-128v-213.333c0-94.123 76.544-170.667 170.667-170.667h69.845c49.749 0 97.28 23.765 127.189 63.616 28.16 37.504 89.771 37.547 117.931-0.043 29.391-38.691 75.386-63.452 127.169-63.573h69.865c94.123 0 170.667 76.544 170.667 170.667v213.333c0 70.571-57.429 128-128 128zM320 405.333c-58.923 0-106.667 28.672-106.667 64s47.744 64 106.667 64 106.667-28.672 106.667-64-47.744-64-106.667-64zM704 405.333c-58.923 0-106.667 28.672-106.667 64s47.744 64 106.667 64 106.667-28.672 106.667-64-47.744-64-106.667-64z" fill="currentColor" />
  </g>
</svg>
