<?xml version="1.0" encoding="utf-8"?>
<svg xmlns="http://www.w3.org/2000/svg" viewBox="0 0 1024 1024" width="24" height="24">
  <g transform="scale(1, -1) translate(0, -960)">
    <path d="M810.667 21.333h42.667v85.333h-42.667v42.667c-0.176 108.72-58.298 203.825-145.126 256.1l-1.349 0.753c-15.147 8.96-24.192 23.339-24.192 38.443v6.741c0 15.104 9.045 29.483 24.149 38.4 88.194 53.038 146.33 148.157 146.517 256.869v42.694h42.667v85.333h-682.667v-85.333h42.667v-42.667c0.187-108.739 58.324-203.858 145.168-256.143l1.349-0.753c15.104-8.917 24.149-23.253 24.149-38.4v-6.741c0-15.104-9.045-29.483-24.149-38.4-88.194-53.038-146.33-148.157-146.517-256.869v-42.694h-42.667v-85.333h640zM725.333 789.333v-42.667c-0.070-48.286-16.154-92.801-43.225-128.533l0.387 0.533h-340.992c-26.683 35.199-42.768 79.714-42.837 127.984v42.683h426.667zM403.2 332.715c41.429 24.491 66.133 66.304 66.133 111.915v3.371h85.333v-3.371c0-45.568 24.704-87.424 66.176-111.915 38.2-23.009 67.99-56.59 85.736-96.691l0.536-1.357h-390.229c18.285 41.468 48.092 75.052 85.36 97.514l0.955 0.534z" fill="currentColor" />
  </g>
</svg>
