<?xml version="1.0" encoding="utf-8"?>
<svg xmlns="http://www.w3.org/2000/svg" viewBox="0 0 1024 1024" width="24" height="24">
  <g transform="scale(1, -1) translate(0, -960)">
    <path d="M647.040 295.168c195.712 173.781 347.349 402.091 258.432 502.229-28.203 31.744-67.584 46.464-109.867 41.941-35.499-3.883-71.979-21.419-108.757-50.859-50.843 26.884-111.133 42.666-175.11 42.666-72.638 0-140.525-20.345-198.272-55.647l1.669 0.949c-86.368-51.778-149.616-134.589-174.745-232.671l-0.573-2.636c-7.327-27.867-11.534-59.86-11.534-92.836 0-48.289 9.022-94.471 25.472-136.953l-0.882 2.589c-45.44-51.328-87.637-156.885-35.115-216.021 22.059-24.789 53.632-35.883 91.605-35.883 115.499 0 290.475 102.357 437.675 233.131zM804.864 754.56c15.275 1.451 26.965-2.731 36.736-13.781 9.856-11.136 7.211-40.363-10.752-82.304-19.946 30.095-42.728 56.077-68.545 78.678l-0.447 0.383c18.389 11.179 33.109 15.915 43.008 17.024zM197.675 229.632c19.529-28.103 41.583-52.446 66.381-73.677l0.521-0.435c-43.733-12.928-73.131-12.075-82.987-0.896-9.259 10.368 0.085 45.611 16.085 75.008zM893.568 480.043c-51.84-76.672-123.989-156.629-203.861-227.541-82.517-73.344-173.483-136.875-258.133-179.285 23.934-5.51 51.494-8.792 79.777-9.044l0.18-0.001c72.75 0.081 140.736 20.411 198.644 55.657l-1.694-0.958c112.481 67.45 186.598 188.727 186.598 327.315 0 11.92-0.548 23.713-1.621 35.353l0.111-1.494z" fill="currentColor" />
  </g>
</svg>
