<?xml version="1.0" encoding="utf-8"?>
<svg xmlns="http://www.w3.org/2000/svg" viewBox="0 0 1024 1024" width="24" height="24">
  <g transform="scale(1, -1) translate(0, -960)">
    <path d="M817.067 618.667c-14.943 25.542-42.166 42.472-73.359 42.667h-103.708v85.333c0 23.564-19.103 42.667-42.667 42.667v0h-426.667c-47.128 0-85.333-38.205-85.333-85.333v0-426.667c0.033-31.385 17.005-58.799 42.264-73.595l0.403-0.218c-0.071-1.718-0.111-3.734-0.111-5.76 0-82.536 66.909-149.444 149.444-149.444 80.51 0 146.151 63.665 149.324 143.396l0.009 0.288h132.267c9.951-73.206 72.057-129.026 147.2-129.026s137.249 55.82 147.114 128.257l0.086 0.769c47.128 0 85.333 38.205 85.333 85.333v0 128c-0.073 8.17-2.28 15.81-6.091 22.407l0.117-0.22zM640 576h103.68l76.8-128h-180.48zM277.333 149.333c-35.346 0-64 28.654-64 64s28.654 64 64 64c35.346 0 64-28.654 64-64v0c0-35.346-28.654-64-64-64v0zM704 149.333c-35.346 0-64 28.654-64 64s28.654 64 64 64c35.346 0 64-28.654 64-64v0c0-35.346-28.654-64-64-64v0z" fill="currentColor" />
  </g>
</svg>
