<?xml version="1.0" encoding="utf-8"?>
<svg xmlns="http://www.w3.org/2000/svg" viewBox="0 0 1024 1024" width="24" height="24">
  <g transform="scale(1, -1) translate(0, -960)">
    <path d="M756.309 404.48l-158.976-127.147h-213.333v42.667h173.44c11.777 0.006 21.322 9.555 21.322 21.333 0 4.404-1.335 8.497-3.621 11.895l0.048-0.076-37.888 56.832c-15.474 23.050-41.439 38.016-70.899 38.016-0.020 0-0.039 0-0.059 0h-338.344c-23.564 0-42.667-19.103-42.667-42.667v0-256c0-47.128 38.205-85.333 85.333-85.333v0h411.264c0.009 0 0.019 0 0.030 0 38.332 0 72.729 16.85 96.188 43.547l0.124 0.144 260.395 297.643-61.952 20.651c-12.070 4.161-25.98 6.564-40.45 6.564-30.367 0-58.263-10.582-80.201-28.26l0.246 0.192zM657.195 448c70.692 0 128 57.308 128 128v0c0 115.541-128 256-128 256s-128-139.563-128-256c0-70.692 57.308-128 128-128v0z" fill="currentColor" />
  </g>
</svg>
