<?xml version="1.0" encoding="utf-8"?>
<svg xmlns="http://www.w3.org/2000/svg" viewBox="0 0 1024 1024" width="24" height="24">
  <g transform="scale(1, -1) translate(0, -960)">
    <path d="M904.832 478.805l-362.027 362.027c-7.716 7.729-18.382 12.51-30.165 12.51s-22.449-4.781-30.165-12.509l-280.406-280.321c-23.142-23.063-37.462-54.967-37.462-90.216 0-0.114 0-0.227 0-0.341v0.018c0-34.219 13.355-66.389 37.504-90.496l30.165-30.165-90.539-90.539c-23.001-22.651-37.252-54.132-37.252-88.94 0-0.352 0.001-0.704 0.004-1.055v0.054c-0.005-0.405-0.007-0.882-0.007-1.361 0-38.913 17.551-73.726 45.169-96.956l0.193-0.158c21.477-18.075 49.443-29.057 79.974-29.057 0.174 0 0.348 0 0.522 0.001h-0.027c35.584 0 70.571 14.549 96 39.979l86.997 86.997 30.165-30.123c48.341-48.341 132.565-48.384 180.992-0.043l280.362 280.363c7.729 7.716 12.51 18.382 12.51 30.165s-4.781 22.449-12.509 30.165l-0.001 0.001zM594.347 228.565l-30.208-30.123c-7.815-7.509-18.45-12.134-30.165-12.134s-22.351 4.625-30.18 12.148l0.015-0.014-60.331 60.288c-7.716 7.729-18.382 12.51-30.165 12.51s-22.449-4.781-30.165-12.509l-117.164-117.121c-9.12-9.181-21.715-14.901-35.647-15.019h-0.022c-0.182-0.003-0.398-0.005-0.614-0.005-9.438 0-18.093 3.353-24.839 8.932l0.065-0.053c-9.267 7.732-15.12 19.285-15.12 32.204 0 0.408 0.006 0.815 0.017 1.221l-0.001-0.060c-0.001 0.12-0.002 0.262-0.002 0.404 0 11.407 4.687 21.719 12.24 29.115l120.711 120.711c7.729 7.716 12.51 18.382 12.51 30.165s-4.781 22.449-12.509 30.165l-60.332 60.374c-8.064 8.021-12.501 18.688-12.501 30.123s4.437 22.144 12.501 30.208l30.165 30.165 301.739-301.696z" fill="currentColor" />
  </g>
</svg>
