<?xml version="1.0" encoding="utf-8"?>
<svg xmlns="http://www.w3.org/2000/svg" viewBox="0 0 1024 1024" width="24" height="24">
  <g transform="scale(1, -1) translate(0, -960)">
    <path d="M512 746.667c-325.675 0-423.552-282.325-424.448-285.184l-4.523-13.483 4.48-13.483c0.939-2.859 98.816-285.184 424.491-285.184s423.552 282.325 424.448 285.184l4.523 13.483-4.48 13.483c-0.939 2.859-98.816 285.184-424.491 285.184zM512 277.333c-94.123 0-170.667 76.544-170.667 170.667s76.544 170.667 170.667 170.667 170.667-76.544 170.667-170.667-76.544-170.667-170.667-170.667zM512 533.333c-46.251 0-85.333-39.083-85.333-85.333s39.083-85.333 85.333-85.333 85.333 39.083 85.333 85.333-39.083 85.333-85.333 85.333z" fill="currentColor" />
  </g>
</svg>
