<?xml version="1.0" encoding="utf-8"?>
<svg xmlns="http://www.w3.org/2000/svg" viewBox="0 0 1024 1024" width="24" height="24">
  <g transform="scale(1, -1) translate(0, -960)">
    <path d="M673.835 670.165l-119.168 119.168v-298.667h298.667l-119.168 119.168 192 192-60.331 60.331zM700.672 386.432c-7.556 6.886-17.648 11.104-28.726 11.104-12.006 0-22.855-4.954-30.614-12.929l-0.009-0.010-102.059-105.003c-24.576 4.693-73.984 20.096-124.843 70.827-50.859 50.901-66.261 100.437-70.827 124.843l104.917 102.144c7.994 7.763 12.955 18.613 12.955 30.621 0 11.081-4.224 21.176-11.15 28.761l-157.623 173.322c-7.835 8.603-19.082 13.981-31.585 13.981-10.629 0-20.351-3.887-27.82-10.317l0.056 0.047-92.587-79.403c-7.143-7.153-11.763-16.827-12.41-27.572l-0.006-0.119c-0.64-10.667-12.843-263.339 183.083-459.349 170.923-170.88 385.067-183.381 443.989-183.381 8.661 0 13.909 0.256 15.317 0.341 10.858 0.617 20.528 5.246 27.646 12.414l0.002 0.002 79.403 92.629c6.384 7.42 10.271 17.147 10.271 27.783 0 12.49-5.361 23.727-13.908 31.537l-173.473 157.726z" fill="currentColor" />
  </g>
</svg>
