<?xml version="1.0" encoding="utf-8"?>
<svg xmlns="http://www.w3.org/2000/svg" viewBox="0 0 1024 1024" width="24" height="24">
  <g transform="scale(1, -1) translate(0, -960)">
    <path d="M863.872 830.549c-2.944 0.768-74.325 18.475-172.885 18.475-121.259 0-293.035-27.307-422.827-157.312-227.84-228.224-142.507-580.693-138.752-595.627 3.944-15.283 15.763-27.073 30.766-30.912l0.296-0.064c2.944-0.768 73.643-18.176 171.435-18.176 121.557 0 293.717 27.349 423.765 157.355 227.627 227.627 142.976 580.267 139.264 595.157-3.946 15.312-15.757 27.137-30.763 31.038l-0.298 0.066zM712.96 435.371l-60.331-60.331-76.501 76.459-67.669-67.669 76.459-76.501-60.331-60.331-76.459 76.501-76.501-76.501-60.331 60.331 76.501 76.501-76.501 76.544 60.331 60.331 76.501-76.544 67.669 67.669-76.544 76.501 60.331 60.331 76.544-76.501 76.501 76.501 60.331-60.331-76.501-76.501 76.501-76.459z" fill="currentColor" />
  </g>
</svg>
