<?xml version="1.0" encoding="utf-8"?>
<svg xmlns="http://www.w3.org/2000/svg" viewBox="0 0 1024 1024" width="24" height="24">
  <g transform="scale(1, -1) translate(0, -960)">
    <path d="M597.333 874.667h-341.333c-47.128 0-85.333-38.205-85.333-85.333v0-682.667c0-47.128 38.205-85.333 85.333-85.333v0h512c47.128 0 85.333 38.205 85.333 85.333v0 512l-256 256zM403.029 217.088c11.733 0 24.789 2.603 32.512 5.632l5.888-30.421c-7.168-3.584-23.296-7.424-44.245-7.424-59.605 0-90.325 37.077-90.325 86.229-0.043 58.795 41.941 91.563 94.123 91.563 20.224 0 35.541-4.096 42.453-7.68l-7.936-30.976c-9.505 4.022-20.558 6.36-32.157 6.36-0.215 0-0.43-0.001-0.644-0.002h0.033c-30.976 0-55.040-18.688-55.040-57.045 0.043-34.475 20.565-56.235 55.339-56.235zM509.312 184.875c-19.669 0-39.125 5.077-48.853 10.453l7.936 32.256c10.496-5.376 26.624-10.752 43.264-10.752 17.92 0 27.392 7.424 27.392 18.688 0 10.752-8.192 16.896-28.928 24.32-28.672 9.984-47.317 25.813-47.317 50.901 0 29.397 24.533 51.925 65.237 51.925 19.413 0 33.749-4.096 43.989-8.661l-8.704-31.488c-10.43 5.169-22.712 8.193-35.7 8.193-0.139 0-0.278 0-0.417-0.001h0.021c-16.896 0-25.045-7.723-25.045-16.64 0-11.008 9.728-15.872 31.957-24.32 30.464-11.264 44.8-27.136 44.8-51.413-0.043-28.928-22.315-53.461-69.632-53.461zM647.552 184.875c-19.669 0-39.125 5.077-48.853 10.453l7.936 32.256c10.496-5.376 26.624-10.752 43.264-10.752 17.92 0 27.392 7.424 27.392 18.688 0 10.752-8.192 16.896-28.928 24.32-28.672 9.984-47.317 25.813-47.317 50.901 0 29.397 24.533 51.925 65.237 51.925 19.413 0 33.749-4.096 43.989-8.661l-8.704-31.488c-10.43 5.169-22.712 8.193-35.7 8.193-0.139 0-0.278 0-0.417-0.001h0.021c-16.896 0-25.045-7.723-25.045-16.64 0-11.008 9.728-15.872 31.957-24.32 30.464-11.264 44.8-27.136 44.8-51.413 0-28.928-22.315-53.461-69.632-53.461zM597.333 576h-42.667v213.333l213.333-213.333h-170.667z" fill="currentColor" />
  </g>
</svg>
