<?xml version="1.0" encoding="utf-8"?>
<svg xmlns="http://www.w3.org/2000/svg" viewBox="0 0 1024 1024" width="24" height="24">
  <g transform="scale(1, -1) translate(0, -960)">
    <path d="M512 874.667c-235.264 0-426.667-191.403-426.667-426.667s191.403-426.667 426.667-426.667 426.667 191.403 426.667 426.667-191.403 426.667-426.667 426.667zM469.333 490.667h-295.723c4.045 31.733 11.833 60.54 23.013 87.59l-0.826-2.257h273.536v-85.333zM469.333 320h-273.536c-10.353 24.793-18.141 53.6-22.008 83.636l-0.178 1.697h295.723v-85.333zM469.333 786.389v-125.056h-223.36c54.255 67.27 132.548 113.259 221.642 124.873l1.718 0.183zM245.973 234.667h223.36v-125.056c-90.812 11.797-169.105 57.786-222.851 124.404l-0.509 0.652z" fill="currentColor" />
  </g>
</svg>
