<?xml version="1.0" encoding="utf-8"?>
<svg xmlns="http://www.w3.org/2000/svg" viewBox="0 0 1024 1024" width="24" height="24">
  <g transform="scale(1, -1) translate(0, -960)">
    <path d="M170.667 21.333h682.667c23.564 0 42.667 19.103 42.667 42.667v0 682.667c0 70.571-57.429 128-128 128h-512c-70.571 0-128-57.429-128-128v-682.667c0-23.564 19.103-42.667 42.667-42.667v0zM768 792.576c23.564 0 42.667-19.103 42.667-42.667s-19.103-42.667-42.667-42.667v0c-23.564 0-42.667 19.103-42.667 42.667s19.103 42.667 42.667 42.667v0zM640 792.576c23.564 0 42.667-19.103 42.667-42.667s-19.103-42.667-42.667-42.667v0c-23.564 0-42.667 19.103-42.667 42.667s19.103 42.667 42.667 42.667v0zM512 659.584c141.184 0 256-114.816 256-256s-114.816-256-256-256-256 114.816-256 256 114.816 256 256 256zM397.653 436.693c-17.707-16.384-44.416-41.131-44.416-88.192 0-47.104 26.709-71.851 44.416-88.235 15.019-13.867 17.067-16.981 17.067-25.6h85.333c0 47.104-26.709 71.851-44.416 88.235-15.019 13.867-17.067 16.981-17.067 25.6s2.048 11.733 17.067 25.6c17.664 16.384 44.416 41.131 44.416 88.235 0 47.061-26.709 71.808-44.416 88.149-14.976 13.867-17.024 16.939-17.024 25.515h-85.333c0-47.104 26.752-71.808 44.459-88.149 14.976-13.824 17.024-16.896 17.024-25.472-0.043-8.661-2.133-11.776-17.109-25.685zM568.32 436.693c-17.664-16.384-44.373-41.131-44.373-88.192s26.709-71.851 44.373-88.192c14.976-13.867 17.024-16.981 17.024-25.643h85.333c0 47.104-26.709 71.851-44.373 88.192-14.976 13.867-17.024 16.981-17.024 25.643s2.091 11.733 17.024 25.643c17.664 16.384 44.373 41.131 44.373 88.235 0 47.061-26.709 71.765-44.373 88.107-14.933 13.824-17.024 16.939-17.024 25.515h-85.333c0-47.061 26.709-71.808 44.416-88.149 14.933-13.824 16.981-16.939 16.981-25.515 0.043-8.619-2.048-11.733-17.024-25.643z" fill="currentColor" />
  </g>
</svg>
