<?xml version="1.0" encoding="utf-8"?>
<svg xmlns="http://www.w3.org/2000/svg" viewBox="0 0 1024 1024" width="24" height="24">
  <g transform="scale(1, -1) translate(0, -960)">
    <path d="M704 618.667c0-64-21.333-149.333-123.733-183.467 29.867 72.533 34.133 145.067 12.8 213.333-29.867 89.6-128 157.867-196.267 196.267-17.067 12.8-46.933-4.267-42.667-29.867 0-46.933-12.8-115.2-85.333-187.733-93.867-93.867-140.8-192-140.8-285.867 0-123.733 85.333-277.333 256-277.333-170.667 170.667-42.667 320-42.667 320 34.133-251.733 213.333-320 298.667-320 72.533 0 213.333 51.2 213.333 273.067 0 132.267-55.467 234.667-102.4 294.4-12.8 21.333-42.667 8.533-46.933-12.8z" fill="currentColor" />
  </g>
</svg>
