<?xml version="1.0" encoding="utf-8"?>
<svg xmlns="http://www.w3.org/2000/svg" viewBox="0 0 1024 1024" width="24" height="24">
  <g transform="scale(1, -1) translate(0, -960)">
    <path d="M933.589 737.152c-0.371 11.397-9.699 20.495-21.152 20.495-3.952 0-7.652-1.083-10.817-2.97l0.097 0.054c-28.672-16.725-73.301-38.315-112.768-38.315-17.963 0-36.224 2.731-54.997 8.448-13.535 4.060-24.964 8.54-35.936 13.817l1.461-0.633c-57.088 27.264-109.525 75.392-157.696 123.264-7.666 7.558-18.163 12.26-29.759 12.373h-0.022c-11.618-0.113-22.116-4.816-29.786-12.378l0.005 0.005c-48.171-47.872-100.608-96-157.696-123.264h-0.043c-9.511-4.656-20.925-9.135-32.723-12.735l-1.709-0.449c-18.773-5.717-37.077-8.448-54.997-8.448-39.467 0-84.096 21.632-112.768 38.315-3.068 1.833-6.768 2.916-10.72 2.916-11.453 0-20.781-9.098-21.151-20.461l-0.001-0.034c-2.603-65.621-3.285-206.507 29.355-317.611 59.691-203.221 191.147-340.309 380.16-396.459l5.973-1.749 5.973 0.597h0.128l6.101-0.597 5.973 1.749c189.013 56.149 320.469 193.237 380.16 396.459 32.64 111.104 31.915 251.989 29.355 317.611z" fill="currentColor" />
  </g>
</svg>
