<?xml version="1.0" encoding="utf-8"?>
<svg xmlns="http://www.w3.org/2000/svg" viewBox="0 0 1024 1024" width="24" height="24">
  <g transform="scale(1, -1) translate(0, -960)">
    <path d="M874.496 699.477l-340.181 170.667c-5.582 2.88-12.183 4.569-19.178 4.569-6.928 0-13.47-1.656-19.25-4.595l0.242 0.112-342.485-170.667c-12.672-6.4-21.419-18.645-23.211-32.725-0.555-4.139-48.853-415.616 364.416-640.341 5.87-3.263 12.875-5.183 20.328-5.183 7.73 0 14.978 2.066 21.221 5.676l-0.205-0.109c397.099 224.384 363.264 621.781 361.643 638.592-1.495 14.924-10.482 27.455-23.097 33.893l-0.242 0.112z" fill="currentColor" />
  </g>
</svg>
