<?xml version="1.0" encoding="utf-8"?>
<svg xmlns="http://www.w3.org/2000/svg" viewBox="0 0 1024 1024" width="24" height="24">
  <g transform="scale(1, -1) translate(0, -960)">
    <path d="M490.155 31.829c12.544-6.699 28.288-6.656 40.832 0.043 341.845 183.637 366.123 542.421 365.824 644.437-0.070 17.169-10.393 31.909-25.16 38.422l-0.27 0.106-343.467 152.149c-5.090 2.302-11.036 3.643-17.296 3.643-6.296 0-12.276-1.357-17.662-3.795l0.27 0.109-341.077-152.149c-14.813-6.62-25.002-21.119-25.258-38.026v-0.033c-1.451-101.504 18.987-461.056 363.264-644.907zM370.091 520.832l97.835-97.835 183.168 183.168 60.331-60.331-243.499-243.499-158.165 158.165 60.331 60.331z" fill="currentColor" />
  </g>
</svg>
