<?xml version="1.0" encoding="utf-8"?>
<svg xmlns="http://www.w3.org/2000/svg" viewBox="0 0 1024 1024" width="24" height="24">
  <g transform="scale(1, -1) translate(0, -960)">
    <path d="M810.155 874.155l128-128-97.579-97.621-128 128zM341.333 277.333h128l310.912 310.912-128 128-310.912-310.912zM810.667 149.333h-462.592c-1.109 0-2.261-0.427-3.371-0.427-1.408 0-2.816 0.384-4.267 0.427h-127.104v597.333h292.139l85.333 85.333h-377.472c-47.061 0-85.333-38.229-85.333-85.333v-597.333c0-47.104 38.272-85.333 85.333-85.333h597.333c47.128 0 85.333 38.205 85.333 85.333v0 369.835l-85.333-85.333v-284.501z" fill="currentColor" />
  </g>
</svg>
