<?xml version="1.0" encoding="utf-8"?>
<svg xmlns="http://www.w3.org/2000/svg" viewBox="0 0 1024 1024" width="24" height="24">
  <g transform="scale(1, -1) translate(0, -960)">
    <path d="M896 491.733v126.933c0 47.128-38.205 85.333-85.333 85.333v0h-256v55.979c13.013 11.691 21.333 28.501 21.333 47.36 0 35.346-28.654 64-64 64s-64-28.654-64-64v0c0-18.859 8.32-35.669 21.333-47.36v-55.979h-256c-47.128 0-85.333-38.205-85.333-85.333v0-127.915l-3.072-0.213c-22.2-1.63-39.595-20.042-39.595-42.516 0-0.008 0-0.016 0-0.024v0.001-85.333c0-23.564 19.103-42.667 42.667-42.667v0-213.333c0-47.128 38.205-85.333 85.333-85.333v0h597.333c47.128 0 85.333 38.205 85.333 85.333v0 213.333c23.564 0 42.667 19.103 42.667 42.667v0 82.688c0.076 0.955 0.119 2.067 0.119 3.19 0 5.85-1.173 11.426-3.296 16.506l0.105-0.283c-8.619 20.821-27.093 25.813-39.595 26.965zM298.667 448c0 47.104 28.672 85.333 64 85.333s64-38.229 64-85.333-28.672-85.333-64-85.333-64 38.229-64 85.333zM682.581 192c-42.709 0.128-341.205 0-341.248 0v85.333s298.709 0.085 341.419 0l-0.171-85.333zM661.333 362.667c-35.328 0-64 38.229-64 85.333s28.672 85.333 64 85.333 64-38.229 64-85.333-28.672-85.333-64-85.333z" fill="currentColor" />
  </g>
</svg>
