<?xml version="1.0" encoding="utf-8"?>
<svg xmlns="http://www.w3.org/2000/svg" viewBox="0 0 1024 1024" width="24" height="24">
  <g transform="scale(1, -1) translate(0, -960)">
    <path d="M853.333 448v-256c0-23.564-19.103-42.667-42.667-42.667s-42.667 19.103-42.667 42.667v0 597.333c0 23.564-19.103 42.667-42.667 42.667v0h-597.333c-23.564 0-42.667-19.103-42.667-42.667v0-597.333c0-70.571 57.429-128 128-128h597.333c70.571 0 128 57.429 128 128v256h-85.333zM597.333 490.667v-85.333h-341.333v85.333h341.333zM256 576v85.333h341.333v-85.333h-341.333zM597.333 320v-85.333h-128v85.333h128z" fill="currentColor" />
  </g>
</svg>
