<?xml version="1.0" encoding="utf-8"?>
<svg xmlns="http://www.w3.org/2000/svg" viewBox="0 0 1024 1024" width="24" height="24">
  <g transform="scale(1, -1) translate(0, -960)">
    <path d="M921.515 487.936c-7.104 5.407-16.101 8.663-25.858 8.663-3.758 0-7.404-0.483-10.878-1.391l0.299 0.066c-9.47-2.752-20.374-4.422-31.639-4.607l-0.105-0.001c-70.571 0-128 57.429-128.128 125.355 0.213 1.451 0.683 5.717 0.725 7.168 0.024 0.53 0.037 1.151 0.037 1.776 0 23.517-19.064 42.581-42.581 42.581-3.897 0-7.672-0.524-11.258-1.504l0.299 0.070c-9.667-2.832-20.801-4.563-32.305-4.777l-0.121-0.002c-70.571 0-128 57.429-128 128 0 9.259 1.323 18.944 4.224 30.549 0.797 3.083 1.254 6.622 1.254 10.268 0 23.564-19.103 42.667-42.667 42.667-1.448 0-2.88-0.072-4.291-0.213l0.178 0.014c-217.022-20.826-385.369-202.232-385.369-422.956 0-0.584 0.001-1.169 0.004-1.752v0.090c0-235.264 191.403-426.667 426.667-426.667s426.667 191.403 426.667 426.667c0 2.091-0.128 4.139-0.299 6.827-0.31 13.486-6.807 25.394-16.752 33.035l-0.101 0.075zM362.667 704c35.346 0 64-28.654 64-64s-28.654-64-64-64v0c-35.346 0-64 28.654-64 64s28.654 64 64 64v0zM277.333 362.667c-35.346 0-64 28.654-64 64s28.654 64 64 64v0c35.346 0 64-28.654 64-64s-28.654-64-64-64v0zM405.333 192c-35.346 0-64 28.654-64 64s28.654 64 64 64v0c35.346 0 64-28.654 64-64s-28.654-64-64-64v0zM512 469.333c0 35.346 28.654 64 64 64s64-28.654 64-64v0c0-35.346-28.654-64-64-64s-64 28.654-64 64v0zM661.333 192c-35.346 0-64 28.654-64 64s28.654 64 64 64v0c35.346 0 64-28.654 64-64s-28.654-64-64-64v0z" fill="currentColor" />
  </g>
</svg>
