<?xml version="1.0" encoding="utf-8"?>
<svg xmlns="http://www.w3.org/2000/svg" viewBox="0 0 1024 1024" width="24" height="24">
  <g transform="scale(1, -1) translate(0, -960)">
    <path d="M810.667 21.333v768c0 47.061-38.272 85.333-85.333 85.333h-426.667c-47.061 0-85.333-38.272-85.333-85.333v-768l298.667 199.083 298.667-199.083zM341.589 616.277c0 24.235 9.557 46.208 24.96 62.123 15.403 15.872 36.693 25.728 60.245 25.728 0 0 42.496 0.128 85.205-43.904 42.709 44.032 85.205 43.904 85.205 43.904 23.552 0 44.843-9.813 60.245-25.728s24.96-37.888 24.96-62.123-9.557-46.251-24.96-62.123l-145.451-157.483-145.451 157.483c-15.443 15.967-24.961 37.75-24.961 61.755 0 0.129 0 0.258 0.001 0.387v-0.020z" fill="currentColor" />
  </g>
</svg>
