<?xml version="1.0" encoding="utf-8"?>
<svg xmlns="http://www.w3.org/2000/svg" viewBox="0 0 1024 1024" width="24" height="24">
  <g transform="scale(1, -1) translate(0, -960)">
    <path d="M490.325 31.104c12.544-6.699 28.288-6.699 40.832 0.043 341.845 183.637 366.123 542.421 365.824 644.437-0.070 17.169-10.393 31.909-25.16 38.422l-0.27 0.106-343.509 152.107c-5.090 2.302-11.036 3.643-17.296 3.643-6.296 0-12.276-1.357-17.662-3.795l0.27 0.109-341.035-152.149c-14.814-6.597-25.007-21.086-25.258-37.984v-0.032c-1.451-101.504 18.987-461.056 363.264-644.907zM353.835 545.835l60.331 60.331 97.835-97.835 97.835 97.835 60.331-60.331-97.835-97.835 97.835-97.835-60.331-60.331-97.835 97.835-97.835-97.835-60.331 60.331 97.835 97.835-97.835 97.835z" fill="currentColor" />
  </g>
</svg>
