<?xml version="1.0" encoding="utf-8"?>
<svg xmlns="http://www.w3.org/2000/svg" viewBox="0 0 1024 1024" width="24" height="24">
  <g transform="scale(1, -1) translate(0, -960)">
    <path d="M512 21.333c158.677 0 301.355 86.827 375.851 226.731l-333.184 199.936 333.184 199.936c-74.496 139.904-217.173 226.731-375.851 226.731-235.264 0-426.667-191.403-426.667-426.667s191.403-426.667 426.667-426.667zM490.667 704c35.349-0.012 64-28.671 64-64.021 0-35.358-28.663-64.021-64.021-64.021-0.008 0-0.015 0-0.023 0h0.001c-35.349 0.012-64 28.671-64 64.021 0 35.358 28.663 64.021 64.021 64.021 0.008 0 0.015 0 0.023 0h-0.001z" fill="currentColor" />
  </g>
</svg>
