<?xml version="1.0" encoding="utf-8"?>
<svg xmlns="http://www.w3.org/2000/svg" viewBox="0 0 1024 1024" width="24" height="24">
  <g transform="scale(1, -1) translate(0, -960)">
    <path d="M554.667 576h-128v-85.333h128c23.564 0 42.667 19.103 42.667 42.667s-19.103 42.667-42.667 42.667v0zM512 874.667c-235.641 0-426.667-191.025-426.667-426.667s191.025-426.667 426.667-426.667c235.641 0 426.667 191.025 426.667 426.667v0c0 235.641-191.025 426.667-426.667 426.667v0zM602.88 234.667l-113.92 170.667h-62.293v-170.667h-85.333v426.667h213.333c69.794-1.168 125.924-58.021 125.924-127.983 0-57.942-38.499-106.891-91.312-122.665l-0.906-0.232 117.333-175.787z" fill="currentColor" />
  </g>
</svg>
