<?xml version="1.0" encoding="utf-8"?>
<svg xmlns="http://www.w3.org/2000/svg" viewBox="0 0 1024 1024" width="24" height="24">
  <g transform="scale(1, -1) translate(0, -960)">
    <path d="M512 874.667c-117.632 0-213.333-95.701-213.333-213.333v-128h-42.667c-47.128 0-85.333-38.205-85.333-85.333v0-341.333c0-47.128 38.205-85.333 85.333-85.333v0h512c47.128 0 85.333 38.205 85.333 85.333v0 341.333c0 47.128-38.205 85.333-85.333 85.333v0h-42.667v128c0 117.632-95.701 213.333-213.333 213.333zM384 661.333c0 70.571 57.429 128 128 128s128-57.429 128-128v-128h-256v128zM554.667 203.819v-97.152h-85.333v97.152c-25.743 14.942-42.777 42.377-42.777 73.792 0 40.563 28.401 74.492 66.403 82.987l0.567 0.106c5.539 1.28 11.9 2.013 18.432 2.013 47.152 0 85.376-38.224 85.376-85.376 0-0.003 0-0.006 0-0.008v0c-0.053-31.294-17.028-58.612-42.262-73.297l-0.405-0.218z" fill="currentColor" />
  </g>
</svg>
