<?xml version="1.0" encoding="utf-8"?>
<svg xmlns="http://www.w3.org/2000/svg" viewBox="0 0 1024 1024" width="24" height="24">
  <g transform="scale(1, -1) translate(0, -960)">
    <path d="M853.333 405.333h-682.667c-47.128 0-85.333-38.205-85.333-85.333v0-170.667c0-47.128 38.205-85.333 85.333-85.333v0h682.667c47.128 0 85.333 38.205 85.333 85.333v0 170.667c0 47.128-38.205 85.333-85.333 85.333v0zM682.667 192h-85.333v85.333h85.333v-85.333zM853.333 192h-85.333v85.333h85.333v-85.333zM886.4 490.667h9.6l-70.485 317.184c-8.779 38.506-42.726 66.809-83.285 66.816h-460.459c-40.559-0.007-74.506-28.31-83.175-66.243l-0.11-0.573-70.485-317.184h758.4z" fill="currentColor" />
  </g>
</svg>
