<?xml version="1.0" encoding="utf-8"?>
<svg xmlns="http://www.w3.org/2000/svg" viewBox="0 0 1024 1024" width="24" height="24">
  <g transform="scale(1, -1) translate(0, -960)">
    <path d="M170.667 490.667h256c23.564 0 42.667 19.103 42.667 42.667v0 256c0 23.564-19.103 42.667-42.667 42.667v0h-256c-23.564 0-42.667-19.103-42.667-42.667v0-256c0-23.564 19.103-42.667 42.667-42.667v0zM170.667 64h256c23.564 0 42.667 19.103 42.667 42.667v0 256c0 23.564-19.103 42.667-42.667 42.667v0h-256c-23.564 0-42.667-19.103-42.667-42.667v0-256c0-23.564 19.103-42.667 42.667-42.667v0zM597.333 64h256c23.564 0 42.667 19.103 42.667 42.667v0 256c0 23.564-19.103 42.667-42.667 42.667v0h-256c-23.564 0-42.667-19.103-42.667-42.667v0-256c0-23.564 19.103-42.667 42.667-42.667v0zM908.501 691.499l-153.003 153.003c-7.716 7.729-18.382 12.51-30.165 12.51s-22.449-4.781-30.165-12.509l-153.004-153.004c-7.729-7.716-12.51-18.382-12.51-30.165s4.781-22.449 12.509-30.165l153.004-153.004c7.716-7.729 18.382-12.51 30.165-12.51s22.449 4.781 30.165 12.509l153.004 153.004c7.729 7.716 12.51 18.382 12.51 30.165s-4.781 22.449-12.509 30.165l-0.001 0.001z" fill="currentColor" />
  </g>
</svg>
