<?xml version="1.0" encoding="utf-8"?>
<svg xmlns="http://www.w3.org/2000/svg" viewBox="0 0 1024 1024" width="24" height="24">
  <g transform="scale(1, -1) translate(0, -960)">
    <path d="M256 192c125.531 19.159 220.587 126.357 220.587 255.756 0 0.086 0 0.171 0 0.257v-0.013c0.664 162.461 120.385 296.761 276.397 320.206l1.79 0.221 110.507 15.787c-2.987 3.413-5.547 6.827-8.96 10.24-139.093 139.093-406.187 97.28-597.333-93.013-161.707-163.84-216.32-381.44-141.227-529.067zM543.147 448c-0.601-162.444-120.087-296.802-275.949-320.626l-1.811-0.228-104.96-14.933 6.4-7.253c139.093-139.093 406.187-97.707 597.333 92.587 160.853 160.427 217.173 378.453 142.507 523.947l-142.507-20.48c-124.884-18.65-219.761-124.565-221.012-252.883l-0.001-0.131z" fill="currentColor" />
  </g>
</svg>
