<?xml version="1.0" encoding="utf-8"?>
<svg xmlns="http://www.w3.org/2000/svg" viewBox="0 0 1024 1024" width="24" height="24">
  <g transform="scale(1, -1) translate(0, -960)">
    <path d="M810.667 789.333h-85.333v85.333h-85.333v-85.333h-256v85.333h-85.333v-85.333h-85.333c-47.061 0-85.333-38.272-85.333-85.333v-597.333c0-47.061 38.272-85.333 85.333-85.333h597.333c47.061 0 85.333 38.272 85.333 85.333v597.333c0 47.061-38.272 85.333-85.333 85.333zM655.019 289.664l-142.933-140.331-142.891 140.331c-17.192 16.552-27.87 39.765-27.87 65.472s10.679 48.92 27.842 65.445l0.029 0.027c17.128 16.916 40.677 27.364 66.667 27.364s49.539-10.448 66.676-27.374l-0.010 0.010 9.557-9.344 9.557 9.344c17.135 16.918 40.691 27.368 66.688 27.368s49.553-10.45 66.698-27.378l-0.010 0.010c17.192-16.552 27.87-39.765 27.87-65.472s-10.679-48.92-27.842-65.445l-0.029-0.027zM810.667 576h-597.333v85.333h597.333v-85.333z" fill="currentColor" />
  </g>
</svg>
