<?xml version="1.0" encoding="utf-8"?>
<svg xmlns="http://www.w3.org/2000/svg" viewBox="0 0 1024 1024" width="24" height="24">
  <g transform="scale(1, -1) translate(0, -960)">
    <path d="M865.792 673.792l-128.427 128 60.245 60.459 128.427-128zM926.165 94.165l-97.579 97.621c42.197 61.525 67.413 135.168 67.413 213.547 0 208.128-175.829 384-384 384-78.421 0-152.021-25.173-213.589-67.456l-46.251 46.293 33.621 33.707-60.416 60.245-33.536-33.621-33.664 33.664-60.331-60.331 768-768 60.331 60.331zM725.333 362.667h-67.669l-85.333 85.333h153.003v-85.333zM469.333 618.667h85.333v-153.003l-85.333 85.333v67.669zM512 21.333c70.741 0 137.557 20.693 195.157 55.68l-523.477 523.477c-34.69-55.519-55.376-122.892-55.68-195.075v-0.083c0-208.128 175.872-384 384-384z" fill="currentColor" />
  </g>
</svg>
